G04*
G04 #@! TF.GenerationSoftware,Altium Limited,Altium Designer,21.2.2 (38)*
G04*
G04 Layer_Physical_Order=4*
G04 Layer_Color=16711680*
%FSLAX44Y44*%
%MOMM*%
G71*
G04*
G04 #@! TF.SameCoordinates,E7746868-0F62-4201-A4F5-850C2E651218*
G04*
G04*
G04 #@! TF.FilePolarity,Positive*
G04*
G01*
G75*
%ADD12C,0.2540*%
%ADD21R,0.6000X0.5000*%
%ADD27R,1.2500X0.9000*%
%ADD28R,0.9000X1.2500*%
%ADD34R,0.5000X0.6000*%
%ADD38R,1.6000X4.9000*%
%ADD39R,4.9000X1.6000*%
%ADD74C,0.8000*%
%ADD76C,0.1847*%
%ADD78C,0.2032*%
%ADD79C,0.5080*%
%ADD80C,0.7620*%
%ADD81C,0.3810*%
%ADD82C,0.3048*%
%ADD84C,1.0160*%
%ADD85C,0.6350*%
%ADD87C,1.5000*%
%ADD88R,1.5000X1.5000*%
G04:AMPARAMS|DCode=89|XSize=1.5mm|YSize=1.5mm|CornerRadius=0.225mm|HoleSize=0mm|Usage=FLASHONLY|Rotation=0.000|XOffset=0mm|YOffset=0mm|HoleType=Round|Shape=RoundedRectangle|*
%AMROUNDEDRECTD89*
21,1,1.5000,1.0500,0,0,0.0*
21,1,1.0500,1.5000,0,0,0.0*
1,1,0.4500,0.5250,-0.5250*
1,1,0.4500,-0.5250,-0.5250*
1,1,0.4500,-0.5250,0.5250*
1,1,0.4500,0.5250,0.5250*
%
%ADD89ROUNDEDRECTD89*%
%ADD90C,0.5000*%
%ADD91R,1.3970X1.0160*%
%ADD92R,0.2400X0.2100*%
%ADD93P,0.6788X4X180.0*%
%ADD94R,0.6000X1.2000*%
%ADD95R,1.6510X1.0160*%
%ADD96R,0.3000X0.4750*%
%ADD97R,1.8000X1.1500*%
G36*
X103000Y224500D02*
X103000Y208000D01*
X84000D01*
Y225000D01*
X87000Y228000D01*
X99500Y228000D01*
X103000Y224500D01*
D02*
G37*
G36*
X54000Y239000D02*
Y208000D01*
X35000D01*
X35000Y239000D01*
X37000Y241000D01*
X52000Y241000D01*
X54000Y239000D01*
D02*
G37*
G36*
X30000D02*
X30000Y208000D01*
X11000D01*
X11000Y239000D01*
X13000Y241000D01*
X28000Y241000D01*
X30000Y239000D01*
D02*
G37*
G36*
X88882Y262618D02*
X88356Y261348D01*
X86690D01*
Y252250D01*
Y243152D01*
X89400D01*
X90872Y243445D01*
X91635Y243955D01*
X92522Y243637D01*
X92930Y243378D01*
X93170Y242170D01*
X79500Y228500D01*
Y209000D01*
X76500Y206000D01*
X61000D01*
X59000Y208001D01*
Y211000D01*
X59000Y256000D01*
X67000Y264000D01*
X87500Y264000D01*
X88882Y262618D01*
D02*
G37*
G36*
X52500Y193500D02*
X55000Y191000D01*
X55000Y180000D01*
X52500Y177500D01*
X37500D01*
X32500Y172500D01*
Y166806D01*
Y165899D01*
Y160285D01*
X30899Y157414D01*
X15086D01*
X10000Y162500D01*
X10000Y191500D01*
X12000Y193500D01*
X52500Y193500D01*
D02*
G37*
G36*
X104500Y191000D02*
Y159000D01*
X102000Y156500D01*
X86500D01*
X63000Y156500D01*
X60500Y159000D01*
Y176000D01*
X59000Y177500D01*
Y192000D01*
X60500Y194000D01*
X101500D01*
X104500Y191000D01*
D02*
G37*
G36*
X236500Y186000D02*
X236500Y136710D01*
X183000Y136710D01*
X183000Y186000D01*
X236500Y186000D01*
D02*
G37*
G36*
X150404Y116194D02*
Y111540D01*
X148538Y109675D01*
X134460Y109675D01*
X133562Y110573D01*
X133562Y118359D01*
X133902Y118500D01*
X148098D01*
X150404Y116194D01*
D02*
G37*
G36*
X174000Y117500D02*
X177500Y114000D01*
X195000D01*
X200250Y119250D01*
X202499D01*
Y126999D01*
X204500Y129000D01*
X211500D01*
X213000Y127500D01*
Y119500D01*
X201500Y108000D01*
X163200D01*
Y108550D01*
X161128D01*
X161004Y108632D01*
X154250Y115387D01*
X154250D01*
X153000Y115933D01*
Y130209D01*
X155538Y132747D01*
X174000D01*
Y117500D01*
D02*
G37*
G36*
X173250Y104796D02*
X173386Y104661D01*
X174995Y103570D01*
Y98770D01*
X172386Y96160D01*
X164386D01*
X159385Y91160D01*
X155386D01*
X153385Y93160D01*
Y96760D01*
X157146Y100520D01*
X161421Y104796D01*
X173250D01*
D02*
G37*
G36*
X313500Y86500D02*
X314500Y85500D01*
X314500Y73701D01*
X312799Y72000D01*
X301500Y72000D01*
X300000Y73500D01*
Y86500D01*
X313500Y86500D01*
D02*
G37*
G36*
X330000Y84500D02*
X330000Y69500D01*
X326000Y65500D01*
X323488D01*
Y65944D01*
X320764D01*
Y67577D01*
X321671Y68484D01*
X323488D01*
Y69788D01*
X323488Y69788D01*
X323650Y70464D01*
X323187Y70928D01*
X317500Y76615D01*
Y77999D01*
X317751D01*
Y84251D01*
X320000Y86500D01*
X328000Y86500D01*
X330000Y84500D01*
D02*
G37*
G36*
X227500Y55150D02*
X222969D01*
X222215Y55000D01*
X200500D01*
Y82500D01*
X227500D01*
Y55150D01*
D02*
G37*
G36*
X416500Y53000D02*
X385000D01*
Y79343D01*
X391657Y86000D01*
X416500D01*
Y53000D01*
D02*
G37*
G36*
X296944Y48000D02*
X296992Y33995D01*
X295502Y32500D01*
X286000Y32500D01*
X285000Y33500D01*
Y37500D01*
X284140Y38360D01*
X283501Y39350D01*
Y39751D01*
X282500Y40000D01*
X282334Y40000D01*
X259500Y40000D01*
X257500Y42000D01*
X257500Y50000D01*
X259500Y52000D01*
X259500D01*
X259500Y52000D01*
X259500Y52000D01*
X271343D01*
X272105Y51685D01*
X273895D01*
X274657Y52000D01*
X292945Y52000D01*
X296944Y48000D01*
D02*
G37*
G36*
X328500Y43500D02*
X327000Y42000D01*
X321500Y42000D01*
X319500Y44000D01*
Y60500D01*
X328500D01*
X328500Y43500D01*
D02*
G37*
G36*
X311777Y66928D02*
X312187Y66654D01*
X316000Y62841D01*
X316000Y35000D01*
X313500Y32500D01*
X304278D01*
X302015Y34761D01*
X302000Y52500D01*
X301000Y53500D01*
X294300D01*
X293990Y53707D01*
X293725Y53884D01*
X292945Y54039D01*
X292945D01*
D01*
X285961D01*
X284000Y56000D01*
X284000Y66000D01*
X286500Y68500D01*
X310205D01*
X311777Y66928D01*
D02*
G37*
G36*
X447500Y82500D02*
Y70489D01*
X447281Y70162D01*
X446851Y68000D01*
Y62250D01*
X447249Y60250D01*
Y57271D01*
X447249Y56001D01*
X447249D01*
Y56001D01*
X447249Y56001D01*
Y50630D01*
X447120Y49981D01*
X447249Y49332D01*
Y44001D01*
X450999D01*
X452500Y42500D01*
Y30000D01*
X452127Y29627D01*
X420124D01*
X417638Y32113D01*
Y40138D01*
X427500Y50000D01*
Y85000D01*
X430000Y87500D01*
X442500D01*
X447500Y82500D01*
D02*
G37*
G36*
X453000Y6117D02*
X430382D01*
X428000Y8500D01*
Y18500D01*
X431000Y21500D01*
X453000D01*
Y6117D01*
D02*
G37*
%LPC*%
G36*
X81610Y261348D02*
X78900D01*
X77427Y261055D01*
X76179Y260221D01*
X75345Y258973D01*
X75052Y257500D01*
Y254790D01*
X81610D01*
Y261348D01*
D02*
G37*
G36*
Y249710D02*
X75052D01*
Y247000D01*
X75345Y245528D01*
X76179Y244279D01*
X77427Y243445D01*
X78900Y243152D01*
X81610D01*
Y249710D01*
D02*
G37*
%LPD*%
D12*
X432758Y57347D02*
Y82009D01*
Y57347D02*
X433096Y57009D01*
X132985Y218766D02*
X133001Y218751D01*
X131805Y219946D02*
X132985Y218766D01*
X131271Y219981D02*
X132485Y218766D01*
X124987Y226764D02*
X131271Y220481D01*
X132485Y218766D02*
X132985D01*
X131271Y219981D02*
Y220481D01*
X125000Y227266D02*
Y230000D01*
X117000Y218500D02*
X117500D01*
X118730Y219730D02*
Y220230D01*
X124980Y226480D01*
X117500Y218500D02*
X118730Y219730D01*
X436175Y59617D02*
X436828Y60271D01*
X433762Y57364D02*
X436015Y59617D01*
X433096Y57364D02*
X433762D01*
X436015Y59617D02*
X436175D01*
X442250Y60271D02*
Y61501D01*
Y50001D02*
Y60271D01*
X436828D02*
X441020D01*
X325727Y75319D02*
X326334Y75927D01*
X320764Y67214D02*
X322308D01*
X327251Y72157D02*
Y75347D01*
X327259Y75355D01*
X322308Y67214D02*
X327251Y72157D01*
X322369Y75319D02*
X325727D01*
X326334Y75927D02*
X326999D01*
X320764Y73714D02*
X322369Y75319D01*
X374417Y99661D02*
X378999Y104243D01*
X127482Y161602D02*
X128770Y162891D01*
Y166390D02*
X129000Y166620D01*
X128770Y162891D02*
Y166390D01*
X134000Y165745D02*
X134230Y165515D01*
Y159520D02*
X137250Y156499D01*
Y155999D02*
Y156499D01*
X134230Y159520D02*
Y165515D01*
X134000Y165745D02*
Y166620D01*
X126000Y149000D02*
X126751Y149751D01*
Y155999D01*
X127482Y156730D01*
Y161602D01*
X137000Y149000D02*
X137125Y149125D01*
Y155874D01*
X137250Y155999D01*
X247249Y125501D02*
X247250Y125500D01*
X255000D01*
X491293Y171555D02*
Y172895D01*
X491466Y173067D02*
Y178468D01*
X490899Y171161D02*
X491293Y171555D01*
Y172895D02*
X491466Y173067D01*
Y178468D02*
X491499Y178501D01*
X453750Y178501D02*
X459000D01*
X378999Y104243D02*
Y111750D01*
X432517Y82250D02*
X432758Y82009D01*
X452749Y50001D02*
X452769Y49981D01*
X452500Y62250D02*
X452749Y62001D01*
X442250Y49501D02*
Y50001D01*
X446750Y34750D02*
Y45000D01*
X442250Y49501D02*
X446750Y45000D01*
X442250Y61501D02*
Y62001D01*
X441020Y60271D02*
X442250Y61501D01*
X401999Y42250D02*
X402499D01*
X390499D02*
X390999D01*
X390499Y42250D02*
X390499Y42250D01*
X366499Y111750D02*
X378999D01*
X353999D02*
X366499D01*
Y122249D02*
X378999D01*
X353999D02*
X366499D01*
X379000Y122250D02*
Y127500D01*
X353999Y122249D02*
Y127499D01*
D21*
X151001Y210251D02*
D03*
Y220750D02*
D03*
X366499Y122249D02*
D03*
Y111750D02*
D03*
X353999Y122249D02*
D03*
Y111750D02*
D03*
X217501Y86751D02*
D03*
Y97250D02*
D03*
X205001Y86751D02*
D03*
Y97250D02*
D03*
X402499Y52749D02*
D03*
Y42250D02*
D03*
X390499Y52749D02*
D03*
Y42250D02*
D03*
X277501Y34251D02*
D03*
Y44750D02*
D03*
X265501Y34251D02*
D03*
Y44750D02*
D03*
X474501Y107251D02*
D03*
Y117750D02*
D03*
X170500Y102000D02*
D03*
Y112500D02*
D03*
X137501Y102251D02*
D03*
Y112750D02*
D03*
X208499Y135249D02*
D03*
Y124750D02*
D03*
X186001Y188251D02*
D03*
Y198750D02*
D03*
X198001Y188251D02*
D03*
Y198750D02*
D03*
X196499Y135249D02*
D03*
Y124750D02*
D03*
X184499Y135249D02*
D03*
Y124750D02*
D03*
X378999Y111750D02*
D03*
Y122249D02*
D03*
X133001Y229250D02*
D03*
Y218751D02*
D03*
X117000Y229000D02*
D03*
Y218500D02*
D03*
D27*
X446750Y34750D02*
D03*
Y16750D02*
D03*
D28*
X310500Y40500D02*
D03*
X292500D02*
D03*
D34*
X452749Y62001D02*
D03*
X442250D02*
D03*
X452749Y50001D02*
D03*
X442250D02*
D03*
X126751Y155999D02*
D03*
X137250D02*
D03*
X322749Y57001D02*
D03*
X312250D02*
D03*
X312251Y83999D02*
D03*
X322750D02*
D03*
X192751Y226499D02*
D03*
X203250D02*
D03*
X481750Y196001D02*
D03*
X492249D02*
D03*
X470250Y195999D02*
D03*
X459751D02*
D03*
X469500Y178500D02*
D03*
X459000D02*
D03*
X480999Y178501D02*
D03*
X491499D02*
D03*
X236750Y125501D02*
D03*
X247249D02*
D03*
D38*
X557500Y28250D02*
D03*
X472500D02*
D03*
D39*
X621750Y144000D02*
D03*
Y229000D02*
D03*
D74*
X160500Y127500D02*
D03*
X426500Y34500D02*
D03*
X291000Y60500D02*
D03*
D76*
X381000Y80500D02*
Y81000D01*
X377500Y77000D02*
X381000Y80500D01*
X363500Y77000D02*
X377500D01*
X350000Y63500D02*
X363500Y77000D01*
X352000Y83500D02*
X374159D01*
X342500Y74000D02*
X352000Y83500D01*
X374159D02*
X390159Y99500D01*
X350000Y47500D02*
Y63500D01*
X342500Y59500D02*
Y74000D01*
X390159Y99500D02*
X402445D01*
X406793Y103848D02*
Y107293D01*
X407000Y107500D01*
X402445Y99500D02*
X406793Y103848D01*
X410040Y96433D02*
Y99540D01*
X416000Y105500D01*
X404607Y91000D02*
X410040Y96433D01*
X391000Y91000D02*
X404607D01*
X381000Y81000D02*
X391000Y91000D01*
X459625Y195874D02*
X459751Y195999D01*
X79823Y247923D02*
X84150Y252250D01*
D78*
X149316Y104466D02*
X149350Y104500D01*
X148238Y100255D02*
X148256D01*
X149500Y101518D02*
Y103942D01*
X148756Y100756D02*
Y100774D01*
X148256Y100255D02*
X148756Y100756D01*
X149500Y103942D02*
X149677Y104120D01*
X148756Y100774D02*
X149500Y101518D01*
X148238Y99452D02*
Y100255D01*
X149350Y104500D02*
X149500D01*
X197000Y48500D02*
X220414D01*
X222969Y51055D01*
X247186D01*
X175500Y70000D02*
X197000Y48500D01*
X157500Y70000D02*
X175500D01*
X162660Y186135D02*
X163187D01*
X157149Y180624D02*
X162660Y186135D01*
X162923Y186398D02*
X163649Y187124D01*
X131237Y78613D02*
X148887D01*
X131561Y78937D02*
X131917D01*
X131237Y78613D02*
X131561Y78937D01*
X148887Y78613D02*
X157500Y70000D01*
X198500Y249113D02*
Y286000D01*
X177682Y223117D02*
Y228295D01*
X198500Y249113D01*
X173593Y219028D02*
X177682Y223117D01*
X173593Y218333D02*
Y219028D01*
X261290Y144139D02*
X262929Y142500D01*
X255917Y144139D02*
X261290D01*
X262929Y142500D02*
X295500D01*
X255349Y144707D02*
X255917Y144139D01*
X314321Y142000D02*
X314500D01*
X295500Y142500D02*
X298500Y139500D01*
X311821D02*
X314321Y142000D01*
X298500Y139500D02*
X311821D01*
X255258Y137247D02*
X287753D01*
X255180Y137169D02*
X255258Y137247D01*
X287753D02*
X294000Y131000D01*
X302000D01*
X270607Y154450D02*
X295247D01*
X326769Y185972D01*
X339474Y190974D02*
X339500Y191000D01*
X316937Y148787D02*
X339474Y171324D01*
Y190974D01*
X263500Y148787D02*
X316937D01*
X209759Y102009D02*
X211000D01*
X133000Y239000D02*
Y250300D01*
X133001Y229250D02*
Y238999D01*
X133000Y250300D02*
X134950Y252250D01*
X133000Y239000D02*
X133001Y238999D01*
X347866Y34134D02*
X389140D01*
X337000Y45000D02*
X347866Y34134D01*
X124000Y183957D02*
Y194512D01*
X129000Y183380D02*
X129018Y183398D01*
X125488Y196000D02*
X132000D01*
X124000Y194512D02*
X125488Y196000D01*
X129018Y190946D02*
X129036Y190964D01*
X129018Y183398D02*
Y190946D01*
X136818Y172000D02*
X146138Y162680D01*
Y162101D02*
Y162680D01*
X254000Y175763D02*
X265272Y187035D01*
X261398Y172900D02*
X280900D01*
X261182Y172685D02*
X261398Y172900D01*
X254000Y175036D02*
Y175763D01*
X263520Y165151D02*
X263618Y165053D01*
X256515Y159990D02*
Y160025D01*
X263618Y165053D02*
X287053D01*
X247500Y169040D02*
X256515Y160025D01*
X292501Y160001D02*
X307500Y175000D01*
X264501Y160001D02*
X292501D01*
X287053Y165053D02*
X299665Y177665D01*
X258000Y153500D02*
X264501Y160001D01*
X216016Y106437D02*
X249937D01*
X211253Y111200D02*
X216016Y106437D01*
X217954Y117105D02*
X228853D01*
X217943Y117093D02*
X217954Y117105D01*
X207999Y124750D02*
X208499D01*
X203558Y120308D02*
X207999Y124750D01*
X203558Y119299D02*
Y120308D01*
X202990Y118731D02*
X203558Y119299D01*
X137501Y112750D02*
X137833Y113083D01*
Y119922D01*
X138166Y120254D01*
X228042Y206315D02*
X239334D01*
X242052Y203596D01*
X163649Y193226D02*
X164665Y194242D01*
X163649Y187124D02*
Y193226D01*
X164665Y194242D02*
Y227665D01*
X152081Y175203D02*
X157149Y180271D01*
X152081Y148081D02*
Y175203D01*
X157149Y180271D02*
Y180624D01*
X140918Y178082D02*
X146500Y172500D01*
Y172373D02*
Y172500D01*
X382500Y220500D02*
X510000D01*
X519000Y229500D01*
X375440Y213440D02*
X382500Y220500D01*
X287500Y226500D02*
X502500D01*
X515950Y239950D01*
X526000Y236900D02*
X541350Y252250D01*
X515500Y204500D02*
X526000Y215000D01*
X278750Y217750D02*
X287500Y226500D01*
X526000Y215000D02*
Y236900D01*
X334500Y105500D02*
X337000Y103000D01*
Y45000D02*
Y103000D01*
X248522Y240000D02*
X346000D01*
X351750Y245750D01*
X242000Y212500D02*
X262500Y233000D01*
X488000D01*
X502500Y247500D01*
X246989Y238467D02*
X248522Y240000D01*
X246244Y238467D02*
X246989D01*
X229203Y215052D02*
X234090D01*
X236642Y212500D01*
X228635Y215620D02*
X229203Y215052D01*
X281000Y206000D02*
X288440Y213440D01*
X375440D01*
X199745Y210873D02*
X200235Y210383D01*
X207325D01*
X179587Y210873D02*
X199745D01*
X249937Y106437D02*
X271353Y127853D01*
X287353D01*
X124551Y172000D02*
X136818D01*
X169250Y152250D02*
Y200536D01*
X179587Y210873D01*
X236642Y212500D02*
X242000D01*
X147000Y143000D02*
X152081Y148081D01*
X242052Y203596D02*
X253596D01*
X132000Y196000D02*
X138924Y202924D01*
X253596Y203596D02*
X267750Y217750D01*
X278750D01*
X334500Y105500D02*
Y120500D01*
X134500Y61000D02*
X174737D01*
X180000Y55737D01*
X138924Y202924D02*
Y223827D01*
X124000Y183380D02*
Y183957D01*
X124551Y171981D02*
X124569Y172000D01*
X124551Y167171D02*
Y171981D01*
X122577Y172000D02*
X124551D01*
X124000Y166620D02*
X124551Y167171D01*
X119577Y175000D02*
Y198865D01*
Y175000D02*
X122577Y172000D01*
X148748Y131748D02*
X169250Y152250D01*
X281000Y195000D02*
Y206000D01*
X265272Y187035D02*
X273035D01*
X281000Y195000D01*
X172000Y235000D02*
Y263900D01*
X164665Y227665D02*
X172000Y235000D01*
Y263900D02*
X185750Y277650D01*
X397000Y214500D02*
X490000D01*
X388500Y206000D02*
X397000Y214500D01*
X298000Y206000D02*
X388500D01*
X502500Y257500D02*
X509500Y264500D01*
X502500Y247500D02*
Y257500D01*
X515950Y239950D02*
Y252250D01*
X192751Y226499D02*
X192775Y226475D01*
X104000Y119000D02*
X116748Y131748D01*
X148748D01*
X124535Y179434D02*
Y183421D01*
Y179434D02*
X125887Y178082D01*
X140918D01*
X124000Y183957D02*
X124535Y183421D01*
X110500Y207942D02*
X119577Y198865D01*
X110500Y207942D02*
Y226689D01*
X553500Y183000D02*
X582500Y212000D01*
X506634Y186313D02*
X509948Y183000D01*
X553500D01*
X484000Y135000D02*
Y143543D01*
X478043Y149500D02*
X484000Y143543D01*
X456500Y149500D02*
X478043D01*
X365999Y144501D02*
X375500Y135000D01*
X465000D01*
X352000Y144501D02*
X365999D01*
X241755Y191245D02*
X247500Y185500D01*
X228255Y191245D02*
X241755D01*
X217617Y201883D02*
X228255Y191245D01*
X217617Y201883D02*
Y231373D01*
X236550Y250305D02*
Y252250D01*
X217617Y231373D02*
X236550Y250305D01*
X359500Y181000D02*
X372500D01*
X346000Y156500D02*
Y167500D01*
X359500Y181000D01*
X309500Y120000D02*
X346000Y156500D01*
X295205Y120000D02*
X309500D01*
X287353Y127853D02*
X295205Y120000D01*
X241500Y130251D02*
Y142000D01*
X253000Y153500D02*
X258000D01*
X241500Y142000D02*
X253000Y153500D01*
X307500Y175000D02*
Y184500D01*
X236750Y126001D02*
X238326Y127577D01*
X238826D01*
X241500Y130251D01*
X236750Y125001D02*
Y126001D01*
X247500Y169040D02*
Y185500D01*
X351750Y245750D02*
Y265850D01*
X280900Y172900D02*
X292500Y184500D01*
Y200500D01*
X298000Y206000D01*
X299665Y191665D02*
X307000Y199000D01*
X458500Y207500D02*
X474255D01*
X307000Y199000D02*
X450000D01*
X458500Y207500D01*
X459625Y187125D02*
Y195874D01*
X104000Y97000D02*
Y119000D01*
X228853Y117105D02*
X236750Y125001D01*
X110500Y226689D02*
X111852Y228041D01*
X116041D01*
X117000Y229000D01*
X133501Y229250D02*
X138924Y223827D01*
X97000Y243500D02*
X106000Y234500D01*
X104000Y143000D02*
X147000D01*
X376106Y259894D02*
Y265094D01*
X363550Y277650D02*
X376106Y265094D01*
Y259894D02*
X376500Y259500D01*
X505889Y186313D02*
X506634D01*
X469500Y186000D02*
X470250Y186750D01*
X469500Y178500D02*
Y186000D01*
X470250Y186750D02*
Y195999D01*
X469500Y178500D02*
X469500Y178500D01*
X480999Y178501D02*
X481000Y178502D01*
Y186500D01*
X481750Y187250D01*
Y196001D01*
X493000Y196751D02*
Y200500D01*
X492249Y196001D02*
X493000Y196751D01*
Y200500D02*
X497000Y204500D01*
X515500D01*
X480840Y172660D02*
Y178342D01*
Y172660D02*
X484000Y169500D01*
X480840Y178342D02*
X480999Y178501D01*
X484000Y160000D02*
Y169500D01*
X469500Y171793D02*
Y176500D01*
X464897Y167189D02*
X469500Y171793D01*
X464897Y160103D02*
Y167189D01*
Y160103D02*
X465000Y160000D01*
X180000Y55136D02*
Y55737D01*
X109550Y251321D02*
X117000Y243871D01*
X109550Y251321D02*
Y252250D01*
X117000Y229000D02*
Y243871D01*
X299665Y177665D02*
Y191665D01*
X205501Y97250D02*
X206985Y98734D01*
X211000Y102500D02*
X211509D01*
X215274Y98734D02*
X216017D01*
X206985D02*
Y99234D01*
X351216Y154999D02*
X451001D01*
X456500Y149500D01*
X566750Y277650D02*
X582500Y261900D01*
Y212000D02*
Y261900D01*
X216017Y98734D02*
X217501Y97250D01*
X205001D02*
X205501D01*
X133001Y229250D02*
X133501D01*
X475755Y209000D02*
X476500D01*
X474255Y207500D02*
X475755Y209000D01*
X97000Y243500D02*
Y281500D01*
X108500Y293000D01*
X272000D02*
X287350Y277650D01*
X108500Y293000D02*
X272000D01*
X351750Y265850D02*
X363550Y277650D01*
X528200Y264500D02*
X541350Y277650D01*
X509500Y264500D02*
X528200D01*
D79*
X150957Y200745D02*
X150979Y200766D01*
Y209279D02*
X151001Y209301D01*
X150979Y200766D02*
Y209279D01*
X151000Y220751D02*
X151001Y220750D01*
X151000Y220751D02*
Y229750D01*
X452769Y49981D02*
X452787Y50000D01*
X137500Y97000D02*
Y102250D01*
X452787Y50000D02*
X460500D01*
X540000Y28000D02*
X540250Y28250D01*
X170500Y112500D02*
X170500Y112500D01*
X170500Y112500D02*
Y139134D01*
X402079Y52749D02*
X402499D01*
X402039Y52789D02*
X402079Y52749D01*
X402039Y52789D02*
Y57461D01*
X400000Y59500D02*
X402039Y57461D01*
X390039Y52789D02*
X390079Y52749D01*
X389500Y59500D02*
X390039Y58961D01*
X390079Y52749D02*
X390499D01*
X390039Y52789D02*
Y58961D01*
X621500Y228750D02*
X621750Y229000D01*
X620500Y145250D02*
X621750Y144000D01*
X452500Y62250D02*
Y68000D01*
X184499Y124750D02*
X196499D01*
X265501Y34251D02*
X277501D01*
X256889Y34500D02*
X257500D01*
X256392Y34997D02*
X256889Y34500D01*
X257500D02*
X257749Y34251D01*
X265501D01*
D80*
X571300Y117607D02*
Y120705D01*
Y117607D02*
X572425Y116483D01*
X552500Y95480D02*
Y114320D01*
X571300Y120705D02*
X575595Y125000D01*
X577500D01*
D81*
X265500Y49481D02*
X265500Y49480D01*
Y44751D02*
X265501Y44750D01*
X265500Y44751D02*
Y49480D01*
X265501Y44750D02*
X277501D01*
X177370Y146004D02*
Y198851D01*
X199000Y141286D02*
Y141500D01*
X397466Y35165D02*
Y35593D01*
X401404Y39532D01*
Y41655D02*
X401999Y42250D01*
X401404Y39532D02*
Y41655D01*
X182111Y119089D02*
Y119411D01*
X183404Y120704D01*
Y124155D02*
X183999Y124750D01*
X183404Y120704D02*
Y124155D01*
X183999Y124750D02*
X184499D01*
X197964Y205428D02*
X198024Y205368D01*
Y198773D02*
Y205368D01*
X390999Y42250D02*
X393784Y39465D01*
Y38847D02*
X397466Y35165D01*
X393784Y38847D02*
Y39465D01*
X170500Y139134D02*
X177370Y146004D01*
X92500Y215000D02*
X93000Y214500D01*
X311264Y73714D02*
X312064D01*
X315313Y70464D01*
X316014D01*
X207634Y226500D02*
X209013Y227878D01*
X203251Y226500D02*
X207634D01*
X203250Y226499D02*
X203251Y226500D01*
X192750D02*
X192751Y226499D01*
X187500Y226500D02*
X192750D01*
X209013Y227878D02*
X209226D01*
X198001Y198750D02*
X198024Y198773D01*
X187500Y183000D02*
Y183214D01*
X187096Y183618D02*
X187500Y183214D01*
X187096Y183618D02*
Y187656D01*
X197869Y188119D02*
X198001Y188251D01*
X197869Y183132D02*
Y188119D01*
X197737Y183000D02*
X197869Y183132D01*
X185594Y139381D02*
X187500Y141286D01*
X184999Y135249D02*
X185594Y135844D01*
Y139381D01*
X187500Y141286D02*
Y141500D01*
X186501Y188251D02*
X187096Y187656D01*
X184499Y135249D02*
X184999D01*
X186001Y188251D02*
X186501D01*
X208499Y135249D02*
X208999D01*
X209594Y135844D01*
X197594D02*
Y139881D01*
X210224Y141286D02*
Y141500D01*
X197594Y139881D02*
X199000Y141286D01*
X209594Y140656D02*
X210224Y141286D01*
X209594Y135844D02*
Y140656D01*
X459000Y178501D02*
X459000Y178500D01*
X474500Y117751D02*
X474501Y117750D01*
X474251Y118000D02*
X474500Y117751D01*
X468000Y118000D02*
X474251D01*
X474500Y117751D02*
Y135000D01*
X474500Y135000D02*
X474500Y135000D01*
X310500Y40500D02*
X310500Y40500D01*
X206985Y99234D02*
X209759Y102009D01*
X211509Y102500D02*
X215274Y98734D01*
X196499Y135249D02*
X196999D01*
X197594Y135844D01*
X186176Y198750D02*
X198001D01*
X282005Y44155D02*
X283170Y42991D01*
X277501Y44750D02*
X278096Y44155D01*
X282005D01*
X290009Y42991D02*
X292500Y40500D01*
X283170Y42991D02*
X290009D01*
X213919Y79919D02*
Y83669D01*
X213500Y79500D02*
X213919Y79919D01*
X217001Y86751D02*
X217501D01*
X213919Y83669D02*
X217001Y86751D01*
X205000Y86750D02*
X205001Y86751D01*
X205000Y81500D02*
Y86750D01*
X203500Y79500D02*
Y80000D01*
X205000Y81500D01*
D82*
X159000Y104500D02*
X159046D01*
X158266D02*
X159000D01*
X163410Y98696D02*
Y100090D01*
X159000Y104500D02*
X163410Y100090D01*
X154250Y107750D02*
X155016D01*
X158266Y104500D01*
X474500Y160000D02*
X475145Y160645D01*
Y170344D02*
X475442Y170641D01*
X475145Y160645D02*
Y170344D01*
X474250Y107000D02*
X474501Y107251D01*
X468000Y107000D02*
X474250D01*
X137500Y102250D02*
X137501Y102251D01*
D84*
X552000Y133000D02*
X563300D01*
X571300Y125000D01*
X575595D01*
X567950Y152050D02*
X568000Y152000D01*
X552000Y152050D02*
X567950D01*
X541605D02*
X552000D01*
X527000Y163480D02*
X530175D01*
X541605Y152050D01*
X527000Y133000D02*
X552000D01*
X526500Y95480D02*
X552500D01*
X472500Y28250D02*
X472750Y28500D01*
X487000D01*
X540250Y28250D02*
X557500D01*
X602550Y78450D02*
X603500Y77500D01*
X588168Y95000D02*
X603600Y79568D01*
X577500Y95000D02*
X588168D01*
X603600Y79500D02*
Y79568D01*
X577500Y125000D02*
X591600D01*
X603600Y113000D01*
X621500Y213000D02*
Y228750D01*
X620500Y145250D02*
Y160000D01*
X552740Y95240D02*
X577260D01*
X577500Y95000D01*
X552500Y95480D02*
X552740Y95240D01*
D85*
X526500Y65000D02*
X540706D01*
X551500Y65000D02*
Y75950D01*
X397360Y31855D02*
Y35165D01*
Y31855D02*
X397466Y31749D01*
X391217Y25500D02*
X397466Y31749D01*
X195500Y25500D02*
X391217D01*
D87*
X603600Y113000D02*
D03*
Y79500D02*
D03*
X414350Y277650D02*
D03*
X439750D02*
D03*
X465150D02*
D03*
X490550D02*
D03*
X566750D02*
D03*
X541350D02*
D03*
X515950D02*
D03*
Y252250D02*
D03*
X541350D02*
D03*
X566750D02*
D03*
X490550D02*
D03*
X465150D02*
D03*
X439750D02*
D03*
X414350D02*
D03*
X211150D02*
D03*
X109550D02*
D03*
X236550D02*
D03*
X134950D02*
D03*
X261950D02*
D03*
X160350D02*
D03*
X287350D02*
D03*
X185750D02*
D03*
X312750D02*
D03*
X388950D02*
D03*
X363550D02*
D03*
X338150D02*
D03*
Y277650D02*
D03*
X363550D02*
D03*
X388950D02*
D03*
X312750D02*
D03*
X185750D02*
D03*
X287350D02*
D03*
X160350D02*
D03*
X261950D02*
D03*
X134950D02*
D03*
X236550D02*
D03*
X109550D02*
D03*
X211150D02*
D03*
X84150D02*
D03*
X107500Y62500D02*
D03*
D88*
X629000Y113000D02*
D03*
Y79500D02*
D03*
D89*
X84150Y252250D02*
D03*
D90*
X572425Y116483D02*
D03*
X540190Y114000D02*
D03*
X552500Y114320D02*
D03*
X551500Y65000D02*
D03*
X540706Y65000D02*
D03*
X210224Y141500D02*
D03*
X199007Y151276D02*
D03*
X232500Y183000D02*
D03*
Y151276D02*
D03*
X187500Y141500D02*
D03*
X157839Y168909D02*
D03*
X221751Y141320D02*
D03*
X210224Y162500D02*
D03*
X221751Y151595D02*
D03*
X199007Y141500D02*
D03*
X210224Y151275D02*
D03*
X187500Y151276D02*
D03*
X232500Y141500D02*
D03*
X210224Y172855D02*
D03*
X187500Y162500D02*
D03*
Y172855D02*
D03*
X263500Y148787D02*
D03*
X221751Y183320D02*
D03*
X199007Y162500D02*
D03*
X207325Y210383D02*
D03*
X161500Y175500D02*
D03*
X221751Y162820D02*
D03*
X232500Y162500D02*
D03*
X199007Y172855D02*
D03*
X221751Y173175D02*
D03*
X210224Y183000D02*
D03*
X232500Y172855D02*
D03*
X187500Y183000D02*
D03*
X199007D02*
D03*
X151850Y182093D02*
D03*
X146500Y172373D02*
D03*
X270607Y154450D02*
D03*
X146138Y162101D02*
D03*
X256517Y187500D02*
D03*
X163187Y186135D02*
D03*
X197964Y205428D02*
D03*
X255180Y137169D02*
D03*
X173593Y218333D02*
D03*
X202990Y118731D02*
D03*
X217943Y117093D02*
D03*
X228042Y206315D02*
D03*
X197997Y216623D02*
D03*
X228635Y215620D02*
D03*
X263520Y165151D02*
D03*
X182111Y119089D02*
D03*
X211253Y111200D02*
D03*
X242888Y197279D02*
D03*
X254000Y175036D02*
D03*
X261182Y172685D02*
D03*
X256515Y159990D02*
D03*
X255349Y144707D02*
D03*
X45898Y168172D02*
D03*
X433096Y57009D02*
D03*
X407000Y107500D02*
D03*
X342500Y59500D02*
D03*
X416000Y105500D02*
D03*
X350000Y47500D02*
D03*
X265500Y49481D02*
D03*
X247186Y51055D02*
D03*
X131917Y78937D02*
D03*
X177370Y198851D02*
D03*
X314500Y142000D02*
D03*
X302000Y129500D02*
D03*
X326769Y185972D02*
D03*
X339500Y191000D02*
D03*
X568000Y152000D02*
D03*
X150957Y200745D02*
D03*
X125000Y230000D02*
D03*
X397360Y35165D02*
D03*
X389140Y34134D02*
D03*
X129036Y190964D02*
D03*
X326999Y75927D02*
D03*
X158374Y96275D02*
D03*
X148238Y99452D02*
D03*
X138166Y120254D02*
D03*
X312331Y91227D02*
D03*
X86500Y62500D02*
D03*
X151000Y229750D02*
D03*
X519000Y229500D02*
D03*
X445999Y184749D02*
D03*
X372500Y181000D02*
D03*
X301500Y219500D02*
D03*
X327000Y167000D02*
D03*
X314060Y192951D02*
D03*
X246244Y238467D02*
D03*
X36500Y104000D02*
D03*
X88000D02*
D03*
X371000Y219237D02*
D03*
X446017Y204420D02*
D03*
X111648Y188352D02*
D03*
X113590Y196701D02*
D03*
X137500Y97000D02*
D03*
X487000Y28500D02*
D03*
X269069Y115074D02*
D03*
X459625Y187125D02*
D03*
X460500Y50000D02*
D03*
X540000Y28000D02*
D03*
X127858Y201490D02*
D03*
X272855Y210044D02*
D03*
X374944Y92016D02*
D03*
X374417Y99661D02*
D03*
X375000Y11000D02*
D03*
X387500D02*
D03*
X357397Y40634D02*
D03*
X275573Y197948D02*
D03*
X209226Y227878D02*
D03*
X187500Y226500D02*
D03*
X263500Y198000D02*
D03*
X126000Y149000D02*
D03*
X137000D02*
D03*
X203500Y58500D02*
D03*
X307500Y184500D02*
D03*
X277000Y227000D02*
D03*
X97000Y224000D02*
D03*
X15500Y229500D02*
D03*
X25500D02*
D03*
X314000Y99500D02*
D03*
X171500Y210500D02*
D03*
X281737Y182043D02*
D03*
X351216Y154999D02*
D03*
X352000Y144501D02*
D03*
X255000Y125500D02*
D03*
X111500Y179000D02*
D03*
X338000Y220585D02*
D03*
X378500Y146000D02*
D03*
X287353Y127853D02*
D03*
X376500Y259500D02*
D03*
X505889Y186313D02*
D03*
X501500Y179000D02*
D03*
X324000Y46000D02*
D03*
X339500Y128500D02*
D03*
X329000D02*
D03*
X334500Y120500D02*
D03*
X344500Y113656D02*
D03*
X490899Y171161D02*
D03*
X453750Y178501D02*
D03*
X475442Y170641D02*
D03*
X468000Y118000D02*
D03*
Y107000D02*
D03*
X293000Y92500D02*
D03*
X284650Y99200D02*
D03*
X238500Y38500D02*
D03*
X49500Y229500D02*
D03*
X39500D02*
D03*
X77000Y41500D02*
D03*
X36500Y150000D02*
D03*
X88000D02*
D03*
X69000Y162000D02*
D03*
X79500D02*
D03*
X90000D02*
D03*
X100000D02*
D03*
X344481Y8390D02*
D03*
X344443Y16686D02*
D03*
X433454Y8893D02*
D03*
X433519Y18481D02*
D03*
X389500Y80500D02*
D03*
X172500Y18500D02*
D03*
X195500Y25500D02*
D03*
X184499Y18501D02*
D03*
X222500Y15000D02*
D03*
X195500Y14500D02*
D03*
X27500Y162500D02*
D03*
X17500D02*
D03*
X27500Y172500D02*
D03*
X17500D02*
D03*
X134500Y61000D02*
D03*
X303000Y82000D02*
D03*
X106500Y235000D02*
D03*
X211000Y102500D02*
D03*
X445999Y146749D02*
D03*
Y165749D02*
D03*
X400000Y80500D02*
D03*
X410500D02*
D03*
X389500Y69500D02*
D03*
X400000Y69500D02*
D03*
X410500D02*
D03*
X389500Y59500D02*
D03*
X400000Y59500D02*
D03*
X410500D02*
D03*
X621500Y213000D02*
D03*
X620500Y160000D02*
D03*
X564000Y169500D02*
D03*
X493180Y104108D02*
D03*
X523500Y117000D02*
D03*
X516000Y189000D02*
D03*
X501500Y169000D02*
D03*
X552292Y213803D02*
D03*
X541855Y213829D02*
D03*
X596000Y179500D02*
D03*
Y190500D02*
D03*
X452500Y68000D02*
D03*
X432517Y82250D02*
D03*
X368000Y67000D02*
D03*
X375108Y44608D02*
D03*
X403993Y120949D02*
D03*
X451451Y92756D02*
D03*
X439501Y92750D02*
D03*
X388262Y127170D02*
D03*
X379000Y127500D02*
D03*
X353999Y127499D02*
D03*
X291502Y115099D02*
D03*
X180000Y55136D02*
D03*
X188608Y44878D02*
D03*
X247500Y61000D02*
D03*
X273000Y56185D02*
D03*
X216119Y36404D02*
D03*
X256392Y34997D02*
D03*
X224000Y58500D02*
D03*
X213500D02*
D03*
X224000Y68500D02*
D03*
X213500D02*
D03*
X203500D02*
D03*
Y79500D02*
D03*
X224000D02*
D03*
X213500D02*
D03*
X88500Y224000D02*
D03*
X104000Y143000D02*
D03*
X104000Y97000D02*
D03*
X476500Y209000D02*
D03*
X198500Y286000D02*
D03*
X490000Y214500D02*
D03*
D91*
X552000Y133000D02*
D03*
Y152050D02*
D03*
X551500Y75950D02*
D03*
Y95000D02*
D03*
D92*
X149500Y111000D02*
D03*
X149500Y104500D02*
D03*
X159000D02*
D03*
Y111000D02*
D03*
X311264Y67214D02*
D03*
Y73714D02*
D03*
X320764D02*
D03*
X320764Y67214D02*
D03*
D93*
X154250Y107750D02*
D03*
X316014Y70464D02*
D03*
D94*
X465000Y160000D02*
D03*
X474500D02*
D03*
X484000D02*
D03*
Y135000D02*
D03*
X474500D02*
D03*
X465000D02*
D03*
D95*
X527000Y163480D02*
D03*
Y133000D02*
D03*
X526500Y95480D02*
D03*
Y65000D02*
D03*
D96*
X124000Y183380D02*
D03*
X129000D02*
D03*
X134000D02*
D03*
Y166620D02*
D03*
X129000D02*
D03*
X124000D02*
D03*
D97*
X20000Y185500D02*
D03*
Y214500D02*
D03*
X93000Y185500D02*
D03*
Y214500D02*
D03*
X68000D02*
D03*
Y185500D02*
D03*
X44000D02*
D03*
Y214500D02*
D03*
M02*
