G04*
G04 #@! TF.GenerationSoftware,Altium Limited,Altium Designer,21.2.2 (38)*
G04*
G04 Layer_Color=65535*
%FSLAX44Y44*%
%MOMM*%
G71*
G04*
G04 #@! TF.SameCoordinates,E7746868-0F62-4201-A4F5-850C2E651218*
G04*
G04*
G04 #@! TF.FilePolarity,Positive*
G04*
G01*
G75*
%ADD10C,0.2500*%
%ADD11C,0.2000*%
%ADD12C,0.2540*%
%ADD13C,0.1000*%
%ADD14C,0.1200*%
%ADD15C,0.1270*%
%ADD16C,0.1500*%
%ADD17C,0.1800*%
D10*
X176750Y123750D02*
G03*
X176750Y123750I-1250J0D01*
G01*
X144250Y199750D02*
G03*
X144250Y199750I-1250J0D01*
G01*
X32390Y195330D02*
G03*
X32390Y195330I-1250J0D01*
G01*
D11*
X524000Y194500D02*
G03*
X524000Y194500I-1000J0D01*
G01*
X248000Y48800D02*
G03*
X248000Y48800I-1000J0D01*
G01*
X434500Y49800D02*
G03*
X434500Y49800I-1000J0D01*
G01*
X264350Y103500D02*
G03*
X264350Y103500I-1000J0D01*
G01*
X71450Y245900D02*
Y290350D01*
Y245900D02*
X77800Y239550D01*
X579450D01*
Y290350D01*
X71450D02*
X579450D01*
X71450Y245900D02*
Y290350D01*
Y245900D02*
X77800Y239550D01*
X579450D01*
Y290350D01*
X71450D02*
X579450D01*
X523000Y190000D02*
X527500Y194500D01*
X523000Y120500D02*
Y190000D01*
Y120500D02*
X573000D01*
Y194500D01*
X527500D02*
X573000D01*
X575000Y84000D02*
Y87000D01*
X546000Y84000D02*
X575000D01*
X546000D02*
Y87000D01*
X575000D01*
X575850Y90500D02*
Y101500D01*
X537500Y84000D02*
Y87000D01*
X508500Y84000D02*
X537500D01*
X508500D02*
Y87000D01*
X537500D01*
X538350Y90500D02*
Y101500D01*
X495499Y169501D02*
Y172501D01*
X466499Y169501D02*
X495499D01*
X466499D02*
Y172501D01*
X495499D01*
X496349Y176001D02*
Y187001D01*
X422249Y154999D02*
X445999D01*
Y138499D02*
Y154999D01*
X422249Y138499D02*
X445999D01*
X422249Y192999D02*
X445999D01*
Y176499D02*
Y192999D01*
X422249Y176499D02*
X445999D01*
X422249Y173999D02*
X445999D01*
Y157499D02*
Y173999D01*
X422249Y157499D02*
X445999D01*
X422249Y211999D02*
X445999D01*
Y195499D02*
Y211999D01*
X422249Y195499D02*
X445999D01*
X345000Y165000D02*
Y197000D01*
X296000Y165000D02*
X345000D01*
X296000D02*
Y197000D01*
X345000D01*
X346300Y200500D02*
Y215750D01*
X245750Y235250D02*
X270500D01*
X245750Y217750D02*
Y235250D01*
Y217750D02*
X270500D01*
X150500Y207500D02*
X156500D01*
X169500Y218500D02*
Y221500D01*
X150500Y232500D02*
X156500D01*
X137500Y218500D02*
Y221500D01*
X56490Y201000D02*
X65510D01*
X56490Y173000D02*
X65510D01*
D12*
X61724Y95986D02*
G03*
X62425Y95998I526J-9986D01*
G01*
X61724Y141486D02*
G03*
X62425Y141498I526J-9986D01*
G01*
X640430Y100300D02*
Y125700D01*
X590900Y100300D02*
Y125700D01*
X592170Y100300D02*
X640430D01*
X592170Y125700D02*
X640430D01*
Y66800D02*
Y92200D01*
X590900Y66800D02*
Y92200D01*
X592170Y66800D02*
X640430D01*
X592170Y92200D02*
X640430D01*
X47250Y69750D02*
Y103000D01*
X77000D01*
Y69750D02*
Y103000D01*
X47250Y69750D02*
X77000D01*
X47250Y115250D02*
Y148500D01*
X77000D01*
Y115250D02*
Y148500D01*
X47250Y115250D02*
X77000D01*
D13*
X122500Y205000D02*
Y226000D01*
X133500D01*
Y205000D02*
Y226000D01*
X122500Y205000D02*
X133500D01*
X382749Y171249D02*
X412749D01*
Y158249D02*
Y171249D01*
X382749Y158249D02*
X412749D01*
X382749D02*
Y171249D01*
Y152750D02*
X412749D01*
Y139749D02*
Y152750D01*
X382749Y139749D02*
X412749D01*
X382749D02*
Y152750D01*
Y191250D02*
X412749D01*
Y178249D02*
Y191250D01*
X382749Y178249D02*
X412749D01*
X382749D02*
Y191250D01*
Y209749D02*
X412749D01*
Y196749D02*
Y209749D01*
X382749Y196749D02*
X412749D01*
X382749D02*
Y209749D01*
X382000Y11000D02*
Y32000D01*
X393000D01*
Y11000D02*
Y32000D01*
X382000Y11000D02*
X393000D01*
X369500D02*
Y32000D01*
X380500D01*
Y11000D02*
Y32000D01*
X369500Y11000D02*
X380500D01*
X344500Y72000D02*
X365500D01*
Y61000D02*
Y72000D01*
X344500Y61000D02*
X365500D01*
X344500D02*
Y72000D01*
Y59000D02*
X365500D01*
Y48000D02*
Y59000D01*
X344500Y48000D02*
X365500D01*
X344500D02*
Y59000D01*
X355500Y98000D02*
Y119000D01*
X344500Y98000D02*
X355500D01*
X344500D02*
Y119000D01*
X355500D01*
X382993Y126449D02*
X403993D01*
Y115449D02*
Y126449D01*
X382993Y115449D02*
X403993D01*
X382993D02*
Y126449D01*
Y114449D02*
X403993D01*
Y103449D02*
Y114449D01*
X382993Y103449D02*
X403993D01*
X382993D02*
Y114449D01*
X515000Y163500D02*
Y184500D01*
X504000Y163500D02*
X515000D01*
X504000D02*
Y184500D01*
X515000D01*
X593500Y174500D02*
Y195500D01*
X582500Y174500D02*
X593500D01*
X582500D02*
Y195500D01*
X593500D01*
X536500Y201000D02*
X557500D01*
X536500D02*
Y212000D01*
X557500D01*
Y201000D02*
Y212000D01*
X252000Y62000D02*
X273000D01*
Y51000D02*
Y62000D01*
X252000Y51000D02*
X273000D01*
X252000D02*
Y62000D01*
X434001Y71750D02*
Y92750D01*
X445001D01*
Y71750D02*
Y92750D01*
X434001Y71750D02*
X445001D01*
X446001D02*
Y92750D01*
X457001D01*
Y71750D02*
Y92750D01*
X446001Y71750D02*
X457001D01*
X487500Y82000D02*
Y103000D01*
X498500D01*
Y82000D02*
Y103000D01*
X487500Y82000D02*
X498500D01*
X327500Y65500D02*
Y86500D01*
X338500D01*
Y65500D02*
Y86500D01*
X327500Y65500D02*
X338500D01*
X315500D02*
Y86500D01*
X326500D01*
Y65500D02*
Y86500D01*
X315500Y65500D02*
X326500D01*
X475000Y82000D02*
Y103000D01*
X486000D01*
Y82000D02*
Y103000D01*
X475000Y82000D02*
X486000D01*
X232000Y11000D02*
Y32000D01*
X243000D01*
Y11000D02*
Y32000D01*
X232000Y11000D02*
X243000D01*
X475500Y68500D02*
X496500D01*
X475500D02*
Y79500D01*
X496500D01*
Y68500D02*
Y79500D01*
X402000Y14000D02*
X423000D01*
X402000D02*
Y25000D01*
X423000D01*
Y14000D02*
Y25000D01*
X402500Y37500D02*
X423500D01*
Y26500D02*
Y37500D01*
X402500Y26500D02*
X423500D01*
X402500D02*
Y37500D01*
X167000Y18500D02*
Y39500D01*
X178000D01*
Y18500D02*
Y39500D01*
X167000Y18500D02*
X178000D01*
X179000Y18500D02*
Y39500D01*
X190000D01*
Y18500D02*
Y39500D01*
X179000Y18500D02*
X190000D01*
X209500Y9500D02*
Y30500D01*
X198500Y9500D02*
X209500D01*
X198500D02*
Y30500D01*
X209500D01*
X269500Y109500D02*
X290500D01*
X269500D02*
Y120500D01*
X290500D01*
Y109500D02*
Y120500D01*
X324000Y129000D02*
X345000D01*
X324000D02*
Y140000D01*
X345000D01*
Y129000D02*
Y140000D01*
X250500Y204500D02*
X271500D01*
X250500D02*
Y215500D01*
X271500D01*
Y204500D02*
Y215500D01*
X269000Y177000D02*
Y198000D01*
X258000Y177000D02*
X269000D01*
X258000D02*
Y198000D01*
X269000D01*
X281000Y177000D02*
Y198000D01*
X270000Y177000D02*
X281000D01*
X270000D02*
Y198000D01*
X281000D01*
X98500Y117000D02*
X109500D01*
Y138000D01*
X98500D02*
X109500D01*
X98500Y117000D02*
Y138000D01*
X606500Y171500D02*
X617500D01*
Y192500D01*
X606500D02*
X617500D01*
X606500Y171500D02*
Y192500D01*
X528500Y46500D02*
Y57500D01*
X507500D02*
X528500D01*
X507500Y46500D02*
Y57500D01*
Y46500D02*
X528500D01*
X98500Y73500D02*
X109500D01*
Y94500D01*
X98500D02*
X109500D01*
X98500Y73500D02*
Y94500D01*
X365500Y74000D02*
Y85000D01*
X344500D02*
X365500D01*
X344500Y74000D02*
Y85000D01*
Y74000D02*
X365500D01*
Y86500D02*
Y97500D01*
X344500D02*
X365500D01*
X344500Y86500D02*
Y97500D01*
Y86500D02*
X365500D01*
X265250Y10001D02*
Y21001D01*
X244250D02*
X265250D01*
X244250Y10001D02*
Y21001D01*
Y10001D02*
X265250D01*
X457500Y47500D02*
Y58500D01*
X436500D02*
X457500D01*
X436500Y47500D02*
Y58500D01*
Y47500D02*
X457500D01*
X210500Y30500D02*
X221500D01*
X210500Y9500D02*
Y30500D01*
Y9500D02*
X221500D01*
Y30500D01*
X265170Y21767D02*
Y32767D01*
X244170D02*
X265170D01*
X244170Y21767D02*
Y32767D01*
Y21767D02*
X265170D01*
X376000Y223500D02*
Y234500D01*
X355000D02*
X376000D01*
X355000Y223500D02*
Y234500D01*
Y223500D02*
X376000D01*
X353500D02*
Y234500D01*
X332500D02*
X353500D01*
X332500Y223500D02*
Y234500D01*
Y223500D02*
X353500D01*
X90500Y173500D02*
Y184500D01*
Y173500D02*
X111500D01*
Y184500D01*
X90500D02*
X111500D01*
X215251Y234500D02*
X226251D01*
X215251Y213500D02*
Y234500D01*
Y213500D02*
X226251D01*
Y234500D01*
X90500Y191500D02*
Y202500D01*
Y191500D02*
X111500D01*
Y202500D01*
X90500D02*
X111500D01*
X62500Y209500D02*
Y220500D01*
Y209500D02*
X83500D01*
Y220500D01*
X62500D02*
X83500D01*
X39500Y209500D02*
Y220500D01*
Y209500D02*
X60500D01*
Y220500D01*
X39500D02*
X60500D01*
D14*
X348000Y41500D02*
X367000D01*
X348000Y7500D02*
Y41500D01*
Y7500D02*
X367000D01*
Y41500D01*
X465500Y130000D02*
Y149000D01*
Y130000D02*
X499500D01*
Y149000D01*
X465500D02*
X499500D01*
X319500Y63000D02*
X338500D01*
X319500Y29000D02*
Y63000D01*
Y29000D02*
X338500D01*
Y63000D01*
X299500D02*
X318500D01*
X299500Y29000D02*
Y63000D01*
Y29000D02*
X318500D01*
Y63000D01*
D15*
X187700Y94300D02*
X191500D01*
X187700Y90500D02*
Y94300D01*
X235500D02*
X239300D01*
Y90500D02*
Y94300D01*
X187700Y42700D02*
Y46500D01*
Y42700D02*
X191500D01*
X239300D02*
Y46500D01*
X235500Y42700D02*
X239300D01*
X374200Y95300D02*
X378000D01*
X374200Y91500D02*
Y95300D01*
X422000D02*
X425800D01*
Y91500D02*
Y95300D01*
X374200Y43700D02*
Y47500D01*
Y43700D02*
X378000D01*
X425800D02*
Y47500D01*
X422000Y43700D02*
X425800D01*
X273350Y107500D02*
X303350D01*
X273350Y83500D02*
X303350D01*
D16*
X126332Y64665D02*
X124999Y65997D01*
X122333D01*
X121000Y64665D01*
Y59333D01*
X122333Y58000D01*
X124999D01*
X126332Y59333D01*
Y61999D01*
X123666D01*
X128997Y58000D02*
Y65997D01*
X134329Y58000D01*
Y65997D01*
X136995D02*
Y58000D01*
X140993D01*
X142326Y59333D01*
Y64665D01*
X140993Y65997D01*
X136995D01*
X351398Y142001D02*
Y149999D01*
X355397D01*
X356730Y148666D01*
Y146000D01*
X355397Y144667D01*
X351398D01*
X359396Y149999D02*
Y142001D01*
X362061Y144667D01*
X364727Y142001D01*
Y149999D01*
X367393Y142001D02*
Y149999D01*
X371392D01*
X372725Y148666D01*
Y146000D01*
X371392Y144667D01*
X367393D01*
X370059D02*
X372725Y142001D01*
X351000Y168497D02*
Y160500D01*
Y164499D01*
X356331D01*
Y168497D01*
Y160500D01*
X358997Y168497D02*
X361663D01*
X360330D01*
Y160500D01*
X358997D01*
X361663D01*
X365662Y168497D02*
Y160500D01*
X370993D01*
X377658Y168497D02*
X374992D01*
X373659Y167164D01*
Y161833D01*
X374992Y160500D01*
X377658D01*
X378991Y161833D01*
Y167164D01*
X377658Y168497D01*
X351000Y186997D02*
X353666D01*
X352333D01*
Y179000D01*
X351000D01*
X353666D01*
X362996Y185665D02*
X361663Y186997D01*
X358997D01*
X357664Y185665D01*
Y180333D01*
X358997Y179000D01*
X361663D01*
X362996Y180333D01*
X370993Y185665D02*
X369661Y186997D01*
X366995D01*
X365662Y185665D01*
Y184332D01*
X366995Y182999D01*
X369661D01*
X370993Y181666D01*
Y180333D01*
X369661Y179000D01*
X366995D01*
X365662Y180333D01*
X351000Y206997D02*
Y199000D01*
X354999D01*
X356331Y200333D01*
Y205665D01*
X354999Y206997D01*
X351000D01*
X362996D02*
X360330D01*
X358997Y205665D01*
Y200333D01*
X360330Y199000D01*
X362996D01*
X364329Y200333D01*
Y205665D01*
X362996Y206997D01*
X366995Y199000D02*
Y206997D01*
X372326Y199000D01*
Y206997D01*
X380324D02*
X374992D01*
Y199000D01*
X380324D01*
X374992Y202999D02*
X377658D01*
X158000Y72500D02*
Y77832D01*
X160666Y80497D01*
X163332Y77832D01*
Y72500D01*
Y76499D01*
X158000D01*
X165997Y80497D02*
Y72500D01*
X169996D01*
X171329Y73833D01*
Y79165D01*
X169996Y80497D01*
X165997D01*
X179326Y79165D02*
X177994Y80497D01*
X175328D01*
X173995Y79165D01*
Y73833D01*
X175328Y72500D01*
X177994D01*
X179326Y73833D01*
X481500Y221500D02*
Y229497D01*
X485499D01*
X486832Y228165D01*
Y225499D01*
X485499Y224166D01*
X481500D01*
X489497Y226832D02*
Y222833D01*
X490830Y221500D01*
X494829D01*
Y226832D01*
X497495Y221500D02*
X500161D01*
X498828D01*
Y229497D01*
X497495D01*
X504159Y221500D02*
X508158D01*
X509491Y222833D01*
X508158Y224166D01*
X505492D01*
X504159Y225499D01*
X505492Y226832D01*
X509491D01*
X516155Y221500D02*
X513490D01*
X512157Y222833D01*
Y225499D01*
X513490Y226832D01*
X516155D01*
X517488Y225499D01*
Y224166D01*
X512157D01*
X520154Y226832D02*
Y221500D01*
Y224166D01*
X521487Y225499D01*
X522820Y226832D01*
X524153D01*
X293897Y120097D02*
Y112100D01*
X297896D01*
X299229Y113432D01*
Y118764D01*
X297896Y120097D01*
X293897D01*
X301895Y112100D02*
Y117431D01*
X304561Y120097D01*
X307227Y117431D01*
Y112100D01*
Y116098D01*
X301895D01*
X315224Y118764D02*
X313891Y120097D01*
X311225D01*
X309892Y118764D01*
Y113432D01*
X311225Y112100D01*
X313891D01*
X315224Y113432D01*
X355499Y131747D02*
Y126415D01*
X358165Y123749D01*
X360831Y126415D01*
Y131747D01*
X368828Y130414D02*
X367495Y131747D01*
X364830D01*
X363497Y130414D01*
Y125082D01*
X364830Y123749D01*
X367495D01*
X368828Y125082D01*
Y127748D01*
X366162D01*
X371494Y123749D02*
Y129081D01*
X374160Y131747D01*
X376826Y129081D01*
Y123749D01*
Y127748D01*
X371494D01*
X157235Y119172D02*
X151904D01*
Y115174D01*
X154570D01*
X151904D01*
Y111175D01*
X159901D02*
Y119172D01*
X163900D01*
X165233Y117839D01*
Y115174D01*
X163900Y113841D01*
X159901D01*
X173230Y117839D02*
X171897Y119172D01*
X169231D01*
X167899Y117839D01*
Y112508D01*
X169231Y111175D01*
X171897D01*
X173230Y112508D01*
Y115174D01*
X170564D01*
X175896Y111175D02*
Y116506D01*
X178562Y119172D01*
X181228Y116506D01*
Y111175D01*
Y115174D01*
X175896D01*
X63500Y20999D02*
X68832D01*
X66166Y23665D02*
Y18333D01*
X76829Y24997D02*
X71497D01*
Y20999D01*
X74163Y22332D01*
X75496D01*
X76829Y20999D01*
Y18333D01*
X75496Y17000D01*
X72830D01*
X71497Y18333D01*
X79495Y24997D02*
Y19666D01*
X82161Y17000D01*
X84826Y19666D01*
Y24997D01*
X59000Y50999D02*
X64331D01*
X61666Y53664D02*
Y48333D01*
X66997Y53664D02*
X68330Y54997D01*
X70996D01*
X72329Y53664D01*
Y52332D01*
X70996Y50999D01*
X69663D01*
X70996D01*
X72329Y49666D01*
Y48333D01*
X70996Y47000D01*
X68330D01*
X66997Y48333D01*
X74995Y54997D02*
Y49666D01*
X77661Y47000D01*
X80326Y49666D01*
Y54997D01*
X82992Y53664D02*
X84325Y54997D01*
X86991D01*
X88324Y53664D01*
Y52332D01*
X86991Y50999D01*
X85658D01*
X86991D01*
X88324Y49666D01*
Y48333D01*
X86991Y47000D01*
X84325D01*
X82992Y48333D01*
X56918Y281751D02*
Y289749D01*
X60917D01*
X62250Y288416D01*
Y285750D01*
X60917Y284417D01*
X56918D01*
X64916Y281751D02*
X67582D01*
X66249D01*
Y289749D01*
X64916Y288416D01*
X212330Y216714D02*
X204333D01*
Y220713D01*
X205665Y222045D01*
X208331D01*
X209664Y220713D01*
Y216714D01*
Y219380D02*
X212330Y222045D01*
X204333Y230043D02*
X205665Y227377D01*
X208331Y224711D01*
X210997D01*
X212330Y226044D01*
Y228710D01*
X210997Y230043D01*
X209664D01*
X208331Y228710D01*
Y224711D01*
X278503Y78499D02*
X281169D01*
X279836D01*
Y70501D01*
X278503D01*
X281169D01*
X290499Y77166D02*
X289166Y78499D01*
X286501D01*
X285168Y77166D01*
Y71834D01*
X286501Y70501D01*
X289166D01*
X290499Y71834D01*
X298497Y78499D02*
X293165D01*
Y74500D01*
X295831Y75833D01*
X297164D01*
X298497Y74500D01*
Y71834D01*
X297164Y70501D01*
X294498D01*
X293165Y71834D01*
X158500Y199666D02*
X157167Y200999D01*
X154501D01*
X153168Y199666D01*
Y194334D01*
X154501Y193001D01*
X157167D01*
X158500Y194334D01*
Y197000D01*
X155834D01*
X161166Y193001D02*
X163832D01*
X162499D01*
Y200999D01*
X161166Y199666D01*
X104668Y110666D02*
X103336Y111999D01*
X100670D01*
X99337Y110666D01*
Y109333D01*
X100670Y108000D01*
X103336D01*
X104668Y106667D01*
Y105334D01*
X103336Y104001D01*
X100670D01*
X99337Y105334D01*
X107334Y111999D02*
Y104001D01*
X110000Y106667D01*
X112666Y104001D01*
Y111999D01*
X120663Y104001D02*
X115332D01*
X120663Y109333D01*
Y110666D01*
X119330Y111999D01*
X116664D01*
X115332Y110666D01*
X104501Y154666D02*
X103168Y155999D01*
X100503D01*
X99170Y154666D01*
Y153333D01*
X100503Y152000D01*
X103168D01*
X104501Y150667D01*
Y149334D01*
X103168Y148001D01*
X100503D01*
X99170Y149334D01*
X107167Y155999D02*
Y148001D01*
X109833Y150667D01*
X112499Y148001D01*
Y155999D01*
X115164Y148001D02*
X117830D01*
X116497D01*
Y155999D01*
X115164Y154666D01*
X120499Y116837D02*
X112501D01*
Y120836D01*
X113834Y122168D01*
X116500D01*
X117833Y120836D01*
Y116837D01*
Y119503D02*
X120499Y122168D01*
Y130166D02*
Y124834D01*
X115167Y130166D01*
X113834D01*
X112501Y128833D01*
Y126167D01*
X113834Y124834D01*
X112501Y138163D02*
X113834Y135498D01*
X116500Y132832D01*
X119166D01*
X120499Y134165D01*
Y136830D01*
X119166Y138163D01*
X117833D01*
X116500Y136830D01*
Y132832D01*
X600337Y196001D02*
Y203999D01*
X604335D01*
X605668Y202666D01*
Y200000D01*
X604335Y198667D01*
X600337D01*
X603003D02*
X605668Y196001D01*
X613666D02*
X608334D01*
X613666Y201333D01*
Y202666D01*
X612333Y203999D01*
X609667D01*
X608334Y202666D01*
X616332D02*
X617664Y203999D01*
X620330D01*
X621663Y202666D01*
Y201333D01*
X620330Y200000D01*
X618997D01*
X620330D01*
X621663Y198667D01*
Y197334D01*
X620330Y196001D01*
X617664D01*
X616332Y197334D01*
X507337Y35501D02*
Y43499D01*
X511335D01*
X512668Y42166D01*
Y39500D01*
X511335Y38167D01*
X507337D01*
X510003D02*
X512668Y35501D01*
X520666D02*
X515334D01*
X520666Y40833D01*
Y42166D01*
X519333Y43499D01*
X516667D01*
X515334Y42166D01*
X528663Y35501D02*
X523332D01*
X528663Y40833D01*
Y42166D01*
X527330Y43499D01*
X524664D01*
X523332Y42166D01*
X119999Y74670D02*
X112001D01*
Y78668D01*
X113334Y80001D01*
X116000D01*
X117333Y78668D01*
Y74670D01*
Y77336D02*
X119999Y80001D01*
Y87999D02*
Y82667D01*
X114667Y87999D01*
X113334D01*
X112001Y86666D01*
Y84000D01*
X113334Y82667D01*
X119999Y90665D02*
Y93330D01*
Y91997D01*
X112001D01*
X113334Y90665D01*
X282503Y5001D02*
Y12999D01*
X286502D01*
X287835Y11666D01*
Y9000D01*
X286502Y7667D01*
X282503D01*
X285169D02*
X287835Y5001D01*
X290501D02*
X293166D01*
X291833D01*
Y12999D01*
X290501Y11666D01*
X297165D02*
X298498Y12999D01*
X301164D01*
X302497Y11666D01*
Y10333D01*
X301164Y9000D01*
X302497Y7667D01*
Y6334D01*
X301164Y5001D01*
X298498D01*
X297165Y6334D01*
Y7667D01*
X298498Y9000D01*
X297165Y10333D01*
Y11666D01*
X298498Y9000D02*
X301164D01*
X437503Y61001D02*
Y68999D01*
X441502D01*
X442835Y67666D01*
Y65000D01*
X441502Y63667D01*
X437503D01*
X440169D02*
X442835Y61001D01*
X445501D02*
X448166D01*
X446833D01*
Y68999D01*
X445501Y67666D01*
X452165Y68999D02*
X457497D01*
Y67666D01*
X452165Y62334D01*
Y61001D01*
X163999Y5503D02*
X156001D01*
Y9502D01*
X157334Y10835D01*
X160000D01*
X161333Y9502D01*
Y5503D01*
Y8169D02*
X163999Y10835D01*
Y13501D02*
Y16166D01*
Y14834D01*
X156001D01*
X157334Y13501D01*
X156001Y25497D02*
X157334Y22831D01*
X160000Y20165D01*
X162666D01*
X163999Y21498D01*
Y24164D01*
X162666Y25497D01*
X161333D01*
X160000Y24164D01*
Y20165D01*
X282503Y17001D02*
Y24999D01*
X286502D01*
X287835Y23666D01*
Y21000D01*
X286502Y19667D01*
X282503D01*
X285169D02*
X287835Y17001D01*
X290501D02*
X293166D01*
X291833D01*
Y24999D01*
X290501Y23666D01*
X302497Y24999D02*
X297165D01*
Y21000D01*
X299831Y22333D01*
X301164D01*
X302497Y21000D01*
Y18334D01*
X301164Y17001D01*
X298498D01*
X297165Y18334D01*
X378503Y224501D02*
Y232499D01*
X382502D01*
X383835Y231166D01*
Y228500D01*
X382502Y227167D01*
X378503D01*
X381169D02*
X383835Y224501D01*
X386501D02*
X389166D01*
X387834D01*
Y232499D01*
X386501Y231166D01*
X397164Y224501D02*
Y232499D01*
X393165Y228500D01*
X398497D01*
X310003Y225001D02*
Y232999D01*
X314002D01*
X315335Y231666D01*
Y229000D01*
X314002Y227667D01*
X310003D01*
X312669D02*
X315335Y225001D01*
X318001D02*
X320666D01*
X319333D01*
Y232999D01*
X318001Y231666D01*
X324665D02*
X325998Y232999D01*
X328664D01*
X329997Y231666D01*
Y230333D01*
X328664Y229000D01*
X327331D01*
X328664D01*
X329997Y227667D01*
Y226334D01*
X328664Y225001D01*
X325998D01*
X324665Y226334D01*
X94230Y162501D02*
Y170499D01*
X98229D01*
X99562Y169166D01*
Y166500D01*
X98229Y165167D01*
X94230D01*
X96896D02*
X99562Y162501D01*
X102228Y170499D02*
X107560D01*
Y169166D01*
X102228Y163834D01*
Y162501D01*
X93335Y205001D02*
Y212999D01*
X97334D01*
X98667Y211666D01*
Y209000D01*
X97334Y207667D01*
X93335D01*
X96001D02*
X98667Y205001D01*
X106664Y212999D02*
X101333D01*
Y209000D01*
X103999Y210333D01*
X105332D01*
X106664Y209000D01*
Y206334D01*
X105332Y205001D01*
X102666D01*
X101333Y206334D01*
X66336Y223501D02*
Y231499D01*
X70334D01*
X71667Y230166D01*
Y227500D01*
X70334Y226167D01*
X66336D01*
X69001D02*
X71667Y223501D01*
X79665D02*
X74333D01*
X79665Y228833D01*
Y230166D01*
X78332Y231499D01*
X75666D01*
X74333Y230166D01*
X44668Y236001D02*
Y243999D01*
X48667D01*
X50000Y242666D01*
Y240000D01*
X48667Y238667D01*
X44668D01*
X47334D02*
X50000Y236001D01*
X52666D02*
X55332D01*
X53999D01*
Y243999D01*
X52666Y242666D01*
X13501Y171338D02*
X21499D01*
Y176670D01*
X13501Y184667D02*
Y179335D01*
X21499D01*
Y184667D01*
X17500Y179335D02*
Y182001D01*
X13501Y187333D02*
X21499D01*
Y191332D01*
X20166Y192665D01*
X14834D01*
X13501Y191332D01*
Y187333D01*
X21499Y200662D02*
Y195330D01*
X16167Y200662D01*
X14834D01*
X13501Y199329D01*
Y196663D01*
X14834Y195330D01*
X502835Y142999D02*
Y135001D01*
X508167D01*
X510833Y141666D02*
X512166Y142999D01*
X514832D01*
X516165Y141666D01*
Y140333D01*
X514832Y139000D01*
X513499D01*
X514832D01*
X516165Y137667D01*
Y136334D01*
X514832Y135001D01*
X512166D01*
X510833Y136334D01*
X322501Y9336D02*
X330499D01*
Y14667D01*
Y22664D02*
Y17333D01*
X325167Y22664D01*
X323834D01*
X322501Y21332D01*
Y18666D01*
X323834Y17333D01*
X307001Y10168D02*
X314999D01*
Y15500D01*
Y18166D02*
Y20832D01*
Y19499D01*
X307001D01*
X308334Y18166D01*
X472836Y197999D02*
Y190001D01*
X476834D01*
X478167Y191334D01*
Y196666D01*
X476834Y197999D01*
X472836D01*
X486165Y190001D02*
X480833D01*
X486165Y195333D01*
Y196666D01*
X484832Y197999D01*
X482166D01*
X480833Y196666D01*
X282168Y230499D02*
Y222501D01*
X286167D01*
X287500Y223834D01*
Y229166D01*
X286167Y230499D01*
X282168D01*
X290166Y222501D02*
X292832D01*
X291499D01*
Y230499D01*
X290166Y229166D01*
X113584Y209668D02*
X112251Y208335D01*
Y205670D01*
X113584Y204337D01*
X118915D01*
X120248Y205670D01*
Y208335D01*
X118915Y209668D01*
X112251Y217666D02*
Y212334D01*
X116250D01*
X114917Y215000D01*
Y216333D01*
X116250Y217666D01*
X118915D01*
X120248Y216333D01*
Y213667D01*
X118915Y212334D01*
X112251Y225663D02*
X113584Y222997D01*
X116250Y220332D01*
X118915D01*
X120248Y221665D01*
Y224330D01*
X118915Y225663D01*
X117583D01*
X116250Y224330D01*
Y220332D01*
X359334Y105001D02*
X358001Y103668D01*
Y101003D01*
X359334Y99670D01*
X364666D01*
X365999Y101003D01*
Y103668D01*
X364666Y105001D01*
X365999Y111666D02*
X358001D01*
X362000Y107667D01*
Y112999D01*
X365999Y115665D02*
Y118330D01*
Y116997D01*
X358001D01*
X359334Y115665D01*
X412416Y124103D02*
X411083Y125436D01*
X408418D01*
X407085Y124103D01*
Y118772D01*
X408418Y117439D01*
X411083D01*
X412416Y118772D01*
X419081Y117439D02*
Y125436D01*
X415082Y121437D01*
X420414D01*
X423079Y124103D02*
X424412Y125436D01*
X427078D01*
X428411Y124103D01*
Y118772D01*
X427078Y117439D01*
X424412D01*
X423079Y118772D01*
Y124103D01*
X411906Y111847D02*
X410573Y113180D01*
X407907D01*
X406574Y111847D01*
Y106515D01*
X407907Y105183D01*
X410573D01*
X411906Y106515D01*
X414571Y111847D02*
X415904Y113180D01*
X418570D01*
X419903Y111847D01*
Y110514D01*
X418570Y109181D01*
X417237D01*
X418570D01*
X419903Y107848D01*
Y106515D01*
X418570Y105183D01*
X415904D01*
X414571Y106515D01*
X422569D02*
X423902Y105183D01*
X426567D01*
X427900Y106515D01*
Y111847D01*
X426567Y113180D01*
X423902D01*
X422569Y111847D01*
Y110514D01*
X423902Y109181D01*
X427900D01*
X506334Y197668D02*
X505001Y196336D01*
Y193670D01*
X506334Y192337D01*
X511666D01*
X512999Y193670D01*
Y196336D01*
X511666Y197668D01*
X506334Y200334D02*
X505001Y201667D01*
Y204333D01*
X506334Y205666D01*
X507667D01*
X509000Y204333D01*
Y203000D01*
Y204333D01*
X510333Y205666D01*
X511666D01*
X512999Y204333D01*
Y201667D01*
X511666Y200334D01*
X505001Y213663D02*
X506334Y210997D01*
X509000Y208332D01*
X511666D01*
X512999Y209665D01*
Y212330D01*
X511666Y213663D01*
X510333D01*
X509000Y212330D01*
Y208332D01*
X585334Y203168D02*
X584001Y201835D01*
Y199170D01*
X585334Y197837D01*
X590666D01*
X591999Y199170D01*
Y201835D01*
X590666Y203168D01*
X585334Y205834D02*
X584001Y207167D01*
Y209833D01*
X585334Y211166D01*
X586667D01*
X588000Y209833D01*
Y208500D01*
Y209833D01*
X589333Y211166D01*
X590666D01*
X591999Y209833D01*
Y207167D01*
X590666Y205834D01*
X584001Y219163D02*
Y213832D01*
X588000D01*
X586667Y216497D01*
Y217830D01*
X588000Y219163D01*
X590666D01*
X591999Y217830D01*
Y215165D01*
X590666Y213832D01*
X542794Y225637D02*
X541461Y226969D01*
X538795D01*
X537462Y225637D01*
Y220305D01*
X538795Y218972D01*
X541461D01*
X542794Y220305D01*
X545459Y225637D02*
X546792Y226969D01*
X549458D01*
X550791Y225637D01*
Y224304D01*
X549458Y222971D01*
X548125D01*
X549458D01*
X550791Y221638D01*
Y220305D01*
X549458Y218972D01*
X546792D01*
X545459Y220305D01*
X558788Y218972D02*
X553457D01*
X558788Y224304D01*
Y225637D01*
X557455Y226969D01*
X554790D01*
X553457Y225637D01*
X259840Y47875D02*
X258507Y49208D01*
X255842D01*
X254509Y47875D01*
Y42544D01*
X255842Y41211D01*
X258507D01*
X259840Y42544D01*
X262506Y47875D02*
X263839Y49208D01*
X266505D01*
X267838Y47875D01*
Y46543D01*
X266505Y45210D01*
X265172D01*
X266505D01*
X267838Y43877D01*
Y42544D01*
X266505Y41211D01*
X263839D01*
X262506Y42544D01*
X270504Y41211D02*
X273169D01*
X271837D01*
Y49208D01*
X270504Y47875D01*
X437334Y101668D02*
X436001Y100336D01*
Y97670D01*
X437334Y96337D01*
X442666D01*
X443999Y97670D01*
Y100336D01*
X442666Y101668D01*
X437334Y104334D02*
X436001Y105667D01*
Y108333D01*
X437334Y109666D01*
X438667D01*
X440000Y108333D01*
Y107000D01*
Y108333D01*
X441333Y109666D01*
X442666D01*
X443999Y108333D01*
Y105667D01*
X442666Y104334D01*
X437334Y112332D02*
X436001Y113665D01*
Y116330D01*
X437334Y117663D01*
X442666D01*
X443999Y116330D01*
Y113665D01*
X442666Y112332D01*
X437334D01*
X449334Y101668D02*
X448001Y100336D01*
Y97670D01*
X449334Y96337D01*
X454666D01*
X455999Y97670D01*
Y100336D01*
X454666Y101668D01*
X455999Y109666D02*
Y104334D01*
X450667Y109666D01*
X449334D01*
X448001Y108333D01*
Y105667D01*
X449334Y104334D01*
X454666Y112332D02*
X455999Y113665D01*
Y116330D01*
X454666Y117663D01*
X449334D01*
X448001Y116330D01*
Y113665D01*
X449334Y112332D01*
X450667D01*
X452000Y113665D01*
Y117663D01*
X491334Y110668D02*
X490001Y109335D01*
Y106670D01*
X491334Y105337D01*
X496666D01*
X497999Y106670D01*
Y109335D01*
X496666Y110668D01*
X497999Y118666D02*
Y113334D01*
X492667Y118666D01*
X491334D01*
X490001Y117333D01*
Y114667D01*
X491334Y113334D01*
Y121332D02*
X490001Y122665D01*
Y125330D01*
X491334Y126663D01*
X492667D01*
X494000Y125330D01*
X495333Y126663D01*
X496666D01*
X497999Y125330D01*
Y122665D01*
X496666Y121332D01*
X495333D01*
X494000Y122665D01*
X492667Y121332D01*
X491334D01*
X494000Y122665D02*
Y125330D01*
X477834Y111168D02*
X476501Y109836D01*
Y107170D01*
X477834Y105837D01*
X483166D01*
X484499Y107170D01*
Y109836D01*
X483166Y111168D01*
X484499Y119166D02*
Y113834D01*
X479167Y119166D01*
X477834D01*
X476501Y117833D01*
Y115167D01*
X477834Y113834D01*
X476501Y127163D02*
Y121832D01*
X480500D01*
X479167Y124497D01*
Y125830D01*
X480500Y127163D01*
X483166D01*
X484499Y125830D01*
Y123165D01*
X483166Y121832D01*
X269334Y16668D02*
X268001Y15336D01*
Y12670D01*
X269334Y11337D01*
X274666D01*
X275999Y12670D01*
Y15336D01*
X274666Y16668D01*
X275999Y24666D02*
Y19334D01*
X270667Y24666D01*
X269334D01*
X268001Y23333D01*
Y20667D01*
X269334Y19334D01*
X275999Y31330D02*
X268001D01*
X272000Y27332D01*
Y32663D01*
X480668Y64666D02*
X479335Y65999D01*
X476670D01*
X475337Y64666D01*
Y59334D01*
X476670Y58001D01*
X479335D01*
X480668Y59334D01*
X488666Y58001D02*
X483334D01*
X488666Y63333D01*
Y64666D01*
X487333Y65999D01*
X484667D01*
X483334Y64666D01*
X491332D02*
X492664Y65999D01*
X495330D01*
X496663Y64666D01*
Y63333D01*
X495330Y62000D01*
X493997D01*
X495330D01*
X496663Y60667D01*
Y59334D01*
X495330Y58001D01*
X492664D01*
X491332Y59334D01*
X432687Y22042D02*
X431354Y23375D01*
X428689D01*
X427356Y22042D01*
Y16710D01*
X428689Y15378D01*
X431354D01*
X432687Y16710D01*
X440685Y15378D02*
X435353D01*
X440685Y20709D01*
Y22042D01*
X439352Y23375D01*
X436686D01*
X435353Y22042D01*
X448682Y15378D02*
X443350D01*
X448682Y20709D01*
Y22042D01*
X447349Y23375D01*
X444683D01*
X443350Y22042D01*
X433001Y35166D02*
X431668Y36499D01*
X429002D01*
X427670Y35166D01*
Y29834D01*
X429002Y28501D01*
X431668D01*
X433001Y29834D01*
X440999Y28501D02*
X435667D01*
X440999Y33833D01*
Y35166D01*
X439666Y36499D01*
X437000D01*
X435667Y35166D01*
X443664Y28501D02*
X446330D01*
X444997D01*
Y36499D01*
X443664Y35166D01*
X123334Y23168D02*
X122001Y21835D01*
Y19170D01*
X123334Y17837D01*
X128666D01*
X129999Y19170D01*
Y21835D01*
X128666Y23168D01*
X129999Y31166D02*
Y25834D01*
X124667Y31166D01*
X123334D01*
X122001Y29833D01*
Y27167D01*
X123334Y25834D01*
Y33832D02*
X122001Y35165D01*
Y37830D01*
X123334Y39163D01*
X128666D01*
X129999Y37830D01*
Y35165D01*
X128666Y33832D01*
X123334D01*
X133834Y23335D02*
X132501Y22002D01*
Y19336D01*
X133834Y18003D01*
X139166D01*
X140499Y19336D01*
Y22002D01*
X139166Y23335D01*
X140499Y26001D02*
Y28667D01*
Y27334D01*
X132501D01*
X133834Y26001D01*
X139166Y32665D02*
X140499Y33998D01*
Y36664D01*
X139166Y37997D01*
X133834D01*
X132501Y36664D01*
Y33998D01*
X133834Y32665D01*
X135167D01*
X136500Y33998D01*
Y37997D01*
X146834Y10335D02*
X145501Y9002D01*
Y6336D01*
X146834Y5003D01*
X152166D01*
X153499Y6336D01*
Y9002D01*
X152166Y10335D01*
X153499Y13001D02*
Y15667D01*
Y14334D01*
X145501D01*
X146834Y13001D01*
Y19665D02*
X145501Y20998D01*
Y23664D01*
X146834Y24997D01*
X148167D01*
X149500Y23664D01*
X150833Y24997D01*
X152166D01*
X153499Y23664D01*
Y20998D01*
X152166Y19665D01*
X150833D01*
X149500Y20998D01*
X148167Y19665D01*
X146834D01*
X149500Y20998D02*
Y23664D01*
X274835Y130519D02*
X273502Y131852D01*
X270836D01*
X269503Y130519D01*
Y125187D01*
X270836Y123854D01*
X273502D01*
X274835Y125187D01*
X277501Y123854D02*
X280166D01*
X278834D01*
Y131852D01*
X277501Y130519D01*
X284165Y131852D02*
X289497D01*
Y130519D01*
X284165Y125187D01*
Y123854D01*
X306835Y136666D02*
X305502Y137999D01*
X302836D01*
X301503Y136666D01*
Y131334D01*
X302836Y130001D01*
X305502D01*
X306835Y131334D01*
X309501Y130001D02*
X312166D01*
X310833D01*
Y137999D01*
X309501Y136666D01*
X321497Y137999D02*
X318831Y136666D01*
X316165Y134000D01*
Y131334D01*
X317498Y130001D01*
X320164D01*
X321497Y131334D01*
Y132667D01*
X320164Y134000D01*
X316165D01*
X283387Y212386D02*
X282054Y213719D01*
X279388D01*
X278055Y212386D01*
Y207054D01*
X279388Y205721D01*
X282054D01*
X283387Y207054D01*
X286053D02*
X287386Y205721D01*
X290051D01*
X291384Y207054D01*
Y212386D01*
X290051Y213719D01*
X287386D01*
X286053Y212386D01*
Y211053D01*
X287386Y209720D01*
X291384D01*
X260834Y166167D02*
X259501Y164834D01*
Y162168D01*
X260834Y160835D01*
X266166D01*
X267499Y162168D01*
Y164834D01*
X266166Y166167D01*
X267499Y174165D02*
Y168833D01*
X262167Y174165D01*
X260834D01*
X259501Y172832D01*
Y170166D01*
X260834Y168833D01*
X273015Y166318D02*
X271682Y164985D01*
Y162320D01*
X273015Y160987D01*
X278346D01*
X279679Y162320D01*
Y164985D01*
X278346Y166318D01*
X279679Y168984D02*
Y171650D01*
Y170317D01*
X271682D01*
X273015Y168984D01*
X630335Y248499D02*
Y240501D01*
Y243167D01*
X635667Y248499D01*
X631668Y244500D01*
X635667Y240501D01*
X643664D02*
X638333D01*
X643664Y245833D01*
Y247166D01*
X642332Y248499D01*
X639666D01*
X638333Y247166D01*
X573168Y22999D02*
Y15001D01*
Y17667D01*
X578500Y22999D01*
X574501Y19000D01*
X578500Y15001D01*
X581166D02*
X583832D01*
X582499D01*
Y22999D01*
X581166Y21666D01*
X578946Y105972D02*
X586943D01*
X584277D01*
X578946Y111304D01*
X582944Y107305D01*
X586943Y111304D01*
Y117968D02*
X578946D01*
X582944Y113970D01*
Y119301D01*
X578001Y72835D02*
X585999D01*
X583333D01*
X578001Y78167D01*
X582000Y74168D01*
X585999Y78167D01*
X579334Y80833D02*
X578001Y82166D01*
Y84832D01*
X579334Y86165D01*
X580667D01*
X582000Y84832D01*
Y83499D01*
Y84832D01*
X583333Y86165D01*
X584666D01*
X585999Y84832D01*
Y82166D01*
X584666Y80833D01*
X577501Y140503D02*
Y143169D01*
Y141836D01*
X585499D01*
Y140503D01*
Y143169D01*
X578834Y152499D02*
X577501Y151166D01*
Y148501D01*
X578834Y147168D01*
X584166D01*
X585499Y148501D01*
Y151166D01*
X584166Y152499D01*
X578834Y155165D02*
X577501Y156498D01*
Y159164D01*
X578834Y160497D01*
X580167D01*
X581500Y159164D01*
X582833Y160497D01*
X584166D01*
X585499Y159164D01*
Y156498D01*
X584166Y155165D01*
X582833D01*
X581500Y156498D01*
X580167Y155165D01*
X578834D01*
X581500Y156498D02*
Y159164D01*
X161003Y93499D02*
X163669D01*
X162336D01*
Y85501D01*
X161003D01*
X163669D01*
X172999Y92166D02*
X171666Y93499D01*
X169001D01*
X167668Y92166D01*
Y86834D01*
X169001Y85501D01*
X171666D01*
X172999Y86834D01*
X175665Y93499D02*
X180997D01*
Y92166D01*
X175665Y86834D01*
Y85501D01*
X435003Y130999D02*
X437669D01*
X436336D01*
Y123001D01*
X435003D01*
X437669D01*
X446999Y129666D02*
X445666Y130999D01*
X443001D01*
X441668Y129666D01*
Y124334D01*
X443001Y123001D01*
X445666D01*
X446999Y124334D01*
X454997Y130999D02*
X452331Y129666D01*
X449665Y127000D01*
Y124334D01*
X450998Y123001D01*
X453664D01*
X454997Y124334D01*
Y125667D01*
X453664Y127000D01*
X449665D01*
X286501Y142003D02*
Y144669D01*
Y143336D01*
X294499D01*
Y142003D01*
Y144669D01*
X287834Y153999D02*
X286501Y152667D01*
Y150001D01*
X287834Y148668D01*
X293166D01*
X294499Y150001D01*
Y152667D01*
X293166Y153999D01*
X294499Y160664D02*
X286501D01*
X290500Y156665D01*
Y161997D01*
X151836Y131499D02*
X154502D01*
X153169D01*
Y123501D01*
X151836D01*
X154502D01*
X163832Y130166D02*
X162499Y131499D01*
X159833D01*
X158501Y130166D01*
Y124834D01*
X159833Y123501D01*
X162499D01*
X163832Y124834D01*
X166498Y123501D02*
X169164D01*
X167831D01*
Y131499D01*
X166498Y130166D01*
X555096Y112932D02*
Y104935D01*
X559095D01*
X560428Y106268D01*
Y111599D01*
X559095Y112932D01*
X555096D01*
X567092Y104935D02*
Y112932D01*
X563094Y108933D01*
X568425D01*
X516835Y112499D02*
Y104501D01*
X520834D01*
X522167Y105834D01*
Y111166D01*
X520834Y112499D01*
X516835D01*
X524833Y111166D02*
X526166Y112499D01*
X528832D01*
X530164Y111166D01*
Y109833D01*
X528832Y108500D01*
X527499D01*
X528832D01*
X530164Y107167D01*
Y105834D01*
X528832Y104501D01*
X526166D01*
X524833Y105834D01*
D17*
X10703Y69300D02*
Y75964D01*
Y72632D01*
X20700D01*
Y79297D02*
X10703D01*
Y84295D01*
X12369Y85961D01*
X15702D01*
X17368Y84295D01*
Y79297D01*
Y82629D02*
X20700Y85961D01*
X10703Y89294D02*
Y92626D01*
Y90960D01*
X20700D01*
Y89294D01*
Y92626D01*
X12369Y104289D02*
X10703Y102623D01*
Y99290D01*
X12369Y97624D01*
X19034D01*
X20700Y99290D01*
Y102623D01*
X19034Y104289D01*
X15702D01*
Y100956D01*
X10703Y115300D02*
X19034D01*
X20700Y116966D01*
Y120298D01*
X19034Y121965D01*
X10703D01*
X12369Y131961D02*
X10703Y130295D01*
Y126963D01*
X12369Y125297D01*
X14035D01*
X15702Y126963D01*
Y130295D01*
X17368Y131961D01*
X19034D01*
X20700Y130295D01*
Y126963D01*
X19034Y125297D01*
X10703Y141958D02*
Y135294D01*
X20700D01*
Y141958D01*
X15702Y135294D02*
Y138626D01*
X20700Y145290D02*
X10703D01*
Y150289D01*
X12369Y151955D01*
X15702D01*
X17368Y150289D01*
Y145290D01*
Y148623D02*
X20700Y151955D01*
M02*
