G04*
G04 #@! TF.GenerationSoftware,Altium Limited,Altium Designer,20.2.5 (213)*
G04*
G04 Layer_Color=16711935*
%FSLAX42Y42*%
%MOMM*%
G71*
G04*
G04 #@! TF.SameCoordinates,0AE3A023-6BB7-4A84-8F3F-E2DF2112AB30*
G04*
G04*
G04 #@! TF.FilePolarity,Negative*
G04*
G01*
G75*
%ADD63R,1.80X5.10*%
%ADD65R,0.80X0.70*%
%ADD66R,0.70X0.80*%
%ADD70R,1.10X1.45*%
%ADD72P,0.89X4X270.0*%
%ADD73C,1.20*%
%ADD74C,1.70*%
G04:AMPARAMS|DCode=75|XSize=1.7mm|YSize=1.7mm|CornerRadius=0.33mm|HoleSize=0mm|Usage=FLASHONLY|Rotation=0.000|XOffset=0mm|YOffset=0mm|HoleType=Round|Shape=RoundedRectangle|*
%AMROUNDEDRECTD75*
21,1,1.70,1.05,0,0,0.0*
21,1,1.05,1.70,0,0,0.0*
1,1,0.65,0.53,-0.53*
1,1,0.65,-0.53,-0.53*
1,1,0.65,-0.53,0.53*
1,1,0.65,0.53,0.53*
%
%ADD75ROUNDEDRECTD75*%
%ADD76R,1.70X1.70*%
%ADD77C,3.60*%
%ADD78C,0.65*%
%ADD119R,0.37X0.40*%
%ADD120R,0.68X0.50*%
%ADD121R,1.22X1.85*%
%ADD122R,1.22X1.60*%
%ADD123R,1.00X1.00*%
%ADD124R,1.05X1.25*%
%ADD125R,1.70X1.90*%
G04:AMPARAMS|DCode=126|XSize=1.9mm|YSize=1.7mm|CornerRadius=0.48mm|HoleSize=0mm|Usage=FLASHONLY|Rotation=90.000|XOffset=0mm|YOffset=0mm|HoleType=Round|Shape=RoundedRectangle|*
%AMROUNDEDRECTD126*
21,1,1.90,0.75,0,0,90.0*
21,1,0.95,1.70,0,0,90.0*
1,1,0.95,0.38,0.48*
1,1,0.95,0.38,-0.48*
1,1,0.95,-0.38,-0.48*
1,1,0.95,-0.38,0.48*
%
%ADD126ROUNDEDRECTD126*%
D63*
X3027Y292D02*
D03*
X3878D02*
D03*
X4867Y288D02*
D03*
X5717D02*
D03*
D65*
X1298Y2080D02*
D03*
Y1975D02*
D03*
X1168Y2080D02*
D03*
Y1975D02*
D03*
X882Y1478D02*
D03*
Y1582D02*
D03*
X1015Y1477D02*
D03*
Y1582D02*
D03*
X1037Y2080D02*
D03*
Y1975D02*
D03*
X1217Y1432D02*
D03*
Y1537D02*
D03*
X1510Y2080D02*
D03*
Y1975D02*
D03*
X585Y830D02*
D03*
Y935D02*
D03*
X863Y368D02*
D03*
Y473D02*
D03*
X1000Y370D02*
D03*
Y475D02*
D03*
X1135Y370D02*
D03*
Y475D02*
D03*
X1390Y1023D02*
D03*
Y918D02*
D03*
X1525Y1025D02*
D03*
Y920D02*
D03*
X3242Y1023D02*
D03*
Y918D02*
D03*
X3378Y1023D02*
D03*
Y918D02*
D03*
X3270Y2250D02*
D03*
Y2145D02*
D03*
X2183Y1525D02*
D03*
Y1420D02*
D03*
X2610Y1510D02*
D03*
Y1405D02*
D03*
X522Y1383D02*
D03*
Y1488D02*
D03*
D66*
X478Y2219D02*
D03*
X583D02*
D03*
X215Y2220D02*
D03*
X320D02*
D03*
X1515Y1715D02*
D03*
X1620D02*
D03*
X1515Y1847D02*
D03*
X1620D02*
D03*
X2473Y1642D02*
D03*
X2368D02*
D03*
X2207Y1188D02*
D03*
X2312D02*
D03*
X3202Y1898D02*
D03*
X3307D02*
D03*
X3202Y1768D02*
D03*
X3307D02*
D03*
D70*
X2870Y1020D02*
D03*
X3050D02*
D03*
X998Y647D02*
D03*
X818D02*
D03*
X2858Y1898D02*
D03*
X3038D02*
D03*
D72*
X743Y857D02*
D03*
D73*
X2598Y1115D02*
D03*
D74*
X4143Y2777D02*
D03*
X4397D02*
D03*
X4651D02*
D03*
X4905D02*
D03*
X5667D02*
D03*
X5413D02*
D03*
X5159D02*
D03*
Y2523D02*
D03*
X5413D02*
D03*
X5667D02*
D03*
X4905D02*
D03*
X4651D02*
D03*
X4397D02*
D03*
X4143D02*
D03*
X2111D02*
D03*
X1095D02*
D03*
X2365D02*
D03*
X1349D02*
D03*
X2619D02*
D03*
X1603D02*
D03*
X2873D02*
D03*
X1857D02*
D03*
X3127D02*
D03*
X3889D02*
D03*
X3635D02*
D03*
X3381D02*
D03*
Y2777D02*
D03*
X3635D02*
D03*
X3889D02*
D03*
X3127D02*
D03*
X1857D02*
D03*
X2873D02*
D03*
X1603D02*
D03*
X2619D02*
D03*
X1349D02*
D03*
X2365D02*
D03*
X1095D02*
D03*
X2111D02*
D03*
X841D02*
D03*
X4593Y434D02*
D03*
X4145Y432D02*
D03*
D75*
X841Y2523D02*
D03*
D76*
X4593Y180D02*
D03*
X4145Y177D02*
D03*
D77*
X350Y2650D02*
D03*
Y350D02*
D03*
X6150D02*
D03*
Y2650D02*
D03*
D78*
X5492Y657D02*
D03*
X5772Y1590D02*
D03*
X1433Y1318D02*
D03*
X5630Y1435D02*
D03*
X3453Y405D02*
D03*
X1405Y710D02*
D03*
X1470Y825D02*
D03*
X1470Y710D02*
D03*
X2698Y2038D02*
D03*
Y2138D02*
D03*
X1753Y1764D02*
D03*
X1808Y1813D02*
D03*
X1762Y2035D02*
D03*
X1725Y2108D02*
D03*
Y1962D02*
D03*
X2875Y2240D02*
D03*
X2908Y2060D02*
D03*
X3505Y1568D02*
D03*
X3435D02*
D03*
X3353D02*
D03*
X3285Y1464D02*
D03*
X3353D02*
D03*
X3435D02*
D03*
X3505D02*
D03*
X4285Y1293D02*
D03*
X4217Y1362D02*
D03*
X3283Y1568D02*
D03*
X2017Y1408D02*
D03*
X3785Y1312D02*
D03*
X2055Y1309D02*
D03*
X4572Y1285D02*
D03*
X3710Y1300D02*
D03*
X2208Y1282D02*
D03*
X2027Y2233D02*
D03*
X1512Y1617D02*
D03*
X1535Y710D02*
D03*
Y768D02*
D03*
X1470D02*
D03*
X1405Y768D02*
D03*
X1535Y825D02*
D03*
X1405D02*
D03*
X1512Y1560D02*
D03*
X1227Y1735D02*
D03*
X418Y827D02*
D03*
Y738D02*
D03*
X1112Y1677D02*
D03*
X1065Y1865D02*
D03*
X1170Y1738D02*
D03*
X1112Y1738D02*
D03*
X3205Y540D02*
D03*
X3740Y400D02*
D03*
X5433Y2323D02*
D03*
X1817Y1201D02*
D03*
X1950Y1493D02*
D03*
X1899Y1432D02*
D03*
X1967Y1560D02*
D03*
X1905Y1207D02*
D03*
X2135Y1965D02*
D03*
X5360Y1833D02*
D03*
X5130Y1842D02*
D03*
X5288Y1840D02*
D03*
X3685Y2013D02*
D03*
X3017Y2062D02*
D03*
X2233Y915D02*
D03*
X3120Y2042D02*
D03*
X3495Y2048D02*
D03*
X3042Y1617D02*
D03*
X4325Y1082D02*
D03*
X2862Y1155D02*
D03*
X2802Y632D02*
D03*
X1557Y1193D02*
D03*
X1605Y1145D02*
D03*
X2030Y800D02*
D03*
X1365Y362D02*
D03*
X603Y1152D02*
D03*
X848Y2323D02*
D03*
X2597Y1617D02*
D03*
X5855Y1220D02*
D03*
X6233Y2242D02*
D03*
X1930Y1908D02*
D03*
X5115Y2277D02*
D03*
X3685Y2098D02*
D03*
X1810Y570D02*
D03*
X2498Y1160D02*
D03*
X2317Y1088D02*
D03*
X2505Y765D02*
D03*
X2640D02*
D03*
X3098Y2248D02*
D03*
X5515Y2100D02*
D03*
X4700Y1593D02*
D03*
X3715Y912D02*
D03*
X4090Y2112D02*
D03*
X2213Y1090D02*
D03*
X4352Y1580D02*
D03*
X4292Y1655D02*
D03*
X4462Y2080D02*
D03*
X4547Y2093D02*
D03*
X3600Y2188D02*
D03*
X1223Y2345D02*
D03*
X1738Y2325D02*
D03*
X3342Y2335D02*
D03*
X5285Y2333D02*
D03*
X5167Y2335D02*
D03*
X4383Y1742D02*
D03*
X4412Y1660D02*
D03*
X4235Y1562D02*
D03*
X1916Y1712D02*
D03*
X1833Y1708D02*
D03*
X1912Y1615D02*
D03*
X1815Y750D02*
D03*
X3565Y1215D02*
D03*
X3265Y1148D02*
D03*
X5858Y1402D02*
D03*
Y1018D02*
D03*
X4970Y980D02*
D03*
X215Y2312D02*
D03*
X795Y77D02*
D03*
X1217Y1185D02*
D03*
X1301Y1133D02*
D03*
X1218Y1262D02*
D03*
X1145Y668D02*
D03*
X5788Y2088D02*
D03*
X5775Y1830D02*
D03*
X1665Y2292D02*
D03*
X4967Y1804D02*
D03*
X5042Y1833D02*
D03*
X1085Y2340D02*
D03*
X1165Y2308D02*
D03*
X940Y2250D02*
D03*
X1165Y2238D02*
D03*
X1220Y1343D02*
D03*
X177Y1073D02*
D03*
X780Y1465D02*
D03*
X50Y1835D02*
D03*
X1125Y588D02*
D03*
X1504Y446D02*
D03*
X1670Y450D02*
D03*
X397Y2311D02*
D03*
X1095Y1052D02*
D03*
X993Y1350D02*
D03*
X860Y1227D02*
D03*
X1055Y1318D02*
D03*
X1112Y1252D02*
D03*
X780Y1598D02*
D03*
X753Y1723D02*
D03*
X778Y1800D02*
D03*
X1402Y1165D02*
D03*
X1138Y768D02*
D03*
X1090Y920D02*
D03*
X1073Y823D02*
D03*
X1452Y1115D02*
D03*
X838Y2077D02*
D03*
X765Y2075D02*
D03*
D119*
X775Y810D02*
D03*
X710D02*
D03*
Y905D02*
D03*
X775Y905D02*
D03*
D120*
X2480Y1512D02*
D03*
Y1462D02*
D03*
Y1412D02*
D03*
X2312D02*
D03*
Y1462D02*
D03*
Y1512D02*
D03*
D121*
X4780Y815D02*
D03*
X4475D02*
D03*
X4228D02*
D03*
X3923D02*
D03*
D122*
X4587Y1088D02*
D03*
X4778D02*
D03*
X3967Y1090D02*
D03*
X4158D02*
D03*
D123*
X5398Y2190D02*
D03*
X5223D02*
D03*
X5398Y2025D02*
D03*
X5223D02*
D03*
X4828Y2187D02*
D03*
X4653D02*
D03*
X4828Y1977D02*
D03*
X4653D02*
D03*
D124*
X1885Y2100D02*
D03*
X2055D02*
D03*
D125*
X220Y1725D02*
D03*
D126*
Y1979D02*
D03*
X440D02*
D03*
Y1725D02*
D03*
M02*
