G04*
G04 #@! TF.GenerationSoftware,Altium Limited,Altium Designer,20.2.5 (213)*
G04*
G04 Layer_Color=128*
%FSLAX42Y42*%
%MOMM*%
G71*
G04*
G04 #@! TF.SameCoordinates,0AE3A023-6BB7-4A84-8F3F-E2DF2112AB30*
G04*
G04*
G04 #@! TF.FilePolarity,Positive*
G04*
G01*
G75*
%ADD134C,0.05*%
D134*
X4098Y2777D02*
X4188D01*
X4143Y2732D02*
Y2822D01*
X4352Y2777D02*
X4442D01*
X4397Y2732D02*
Y2822D01*
X4606Y2777D02*
X4696D01*
X4651Y2732D02*
Y2822D01*
X4860Y2777D02*
X4950D01*
X4905Y2732D02*
Y2822D01*
X5622Y2777D02*
X5712D01*
X5667Y2732D02*
Y2822D01*
X5368Y2777D02*
X5458D01*
X5413Y2732D02*
Y2822D01*
X5114Y2777D02*
X5204D01*
X5159Y2732D02*
Y2822D01*
X5114Y2523D02*
X5204D01*
X5159Y2478D02*
Y2568D01*
X5368Y2523D02*
X5458D01*
X5413Y2478D02*
Y2568D01*
X5622Y2523D02*
X5712D01*
X5667Y2478D02*
Y2568D01*
X4860Y2523D02*
X4950D01*
X4905Y2478D02*
Y2568D01*
X4606Y2523D02*
X4696D01*
X4651Y2478D02*
Y2568D01*
X4352Y2523D02*
X4442D01*
X4397Y2478D02*
Y2568D01*
X4098Y2523D02*
X4188D01*
X4143Y2478D02*
Y2568D01*
X796Y2523D02*
X886D01*
X841Y2478D02*
Y2568D01*
X2066Y2523D02*
X2156D01*
X2111Y2478D02*
Y2568D01*
X1050Y2523D02*
X1140D01*
X1095Y2478D02*
Y2568D01*
X2320Y2523D02*
X2410D01*
X2365Y2478D02*
Y2568D01*
X1304Y2523D02*
X1394D01*
X1349Y2478D02*
Y2568D01*
X2574Y2523D02*
X2664D01*
X2619Y2478D02*
Y2568D01*
X1558Y2523D02*
X1648D01*
X1603Y2478D02*
Y2568D01*
X2828Y2523D02*
X2918D01*
X2873Y2478D02*
Y2568D01*
X1812Y2523D02*
X1902D01*
X1857Y2478D02*
Y2568D01*
X3082Y2523D02*
X3172D01*
X3127Y2478D02*
Y2568D01*
X3844Y2523D02*
X3934D01*
X3889Y2478D02*
Y2568D01*
X3590Y2523D02*
X3680D01*
X3635Y2478D02*
Y2568D01*
X3336Y2523D02*
X3426D01*
X3381Y2478D02*
Y2568D01*
X3336Y2777D02*
X3426D01*
X3381Y2732D02*
Y2822D01*
X3590Y2777D02*
X3680D01*
X3635Y2732D02*
Y2822D01*
X3844Y2777D02*
X3934D01*
X3889Y2732D02*
Y2822D01*
X3082Y2777D02*
X3172D01*
X3127Y2732D02*
Y2822D01*
X1812Y2777D02*
X1902D01*
X1857Y2732D02*
Y2822D01*
X2828Y2777D02*
X2918D01*
X2873Y2732D02*
Y2822D01*
X1558Y2777D02*
X1648D01*
X1603Y2732D02*
Y2822D01*
X2574Y2777D02*
X2664D01*
X2619Y2732D02*
Y2822D01*
X1304Y2777D02*
X1394D01*
X1349Y2732D02*
Y2822D01*
X2320Y2777D02*
X2410D01*
X2365Y2732D02*
Y2822D01*
X1050Y2777D02*
X1140D01*
X1095Y2732D02*
Y2822D01*
X2066Y2777D02*
X2156D01*
X2111Y2732D02*
Y2822D01*
X796Y2777D02*
X886D01*
X841Y2732D02*
Y2822D01*
X4548Y434D02*
X4638D01*
X4593Y389D02*
Y479D01*
X4548Y180D02*
X4638D01*
X4593Y135D02*
Y225D01*
X4100Y432D02*
X4190D01*
X4145Y387D02*
Y476D01*
X4100Y177D02*
X4190D01*
X4145Y133D02*
Y222D01*
X210Y2650D02*
X490D01*
X350Y2510D02*
Y2790D01*
X210Y350D02*
X490D01*
X350Y210D02*
Y490D01*
X6010Y350D02*
X6290D01*
X6150Y210D02*
Y490D01*
X6010Y2650D02*
X6290D01*
X6150Y2510D02*
Y2790D01*
X5478Y657D02*
X5508D01*
X5492Y643D02*
Y672D01*
X5758Y1590D02*
X5788D01*
X5772Y1575D02*
Y1605D01*
X1418Y1318D02*
X1448D01*
X1433Y1303D02*
Y1333D01*
X5615Y1435D02*
X5645D01*
X5630Y1420D02*
Y1450D01*
X3438Y405D02*
X3467D01*
X3453Y390D02*
Y420D01*
X1390Y710D02*
X1420D01*
X1405Y695D02*
Y725D01*
X1455Y825D02*
X1485D01*
X1470Y810D02*
Y840D01*
X1455Y710D02*
X1485D01*
X1470Y695D02*
Y725D01*
X2683Y2038D02*
X2713D01*
X2698Y2023D02*
Y2052D01*
X2683Y2138D02*
X2713D01*
X2698Y2123D02*
Y2153D01*
X1738Y1764D02*
X1768D01*
X1753Y1749D02*
Y1779D01*
X1792Y1813D02*
X1823D01*
X1808Y1798D02*
Y1828D01*
X1748Y2035D02*
X1777D01*
X1762Y2020D02*
Y2050D01*
X1710Y2108D02*
X1740D01*
X1725Y2092D02*
Y2123D01*
X1710Y1962D02*
X1740D01*
X1725Y1948D02*
Y1977D01*
X2860Y2240D02*
X2890D01*
X2875Y2225D02*
Y2255D01*
X2893Y2060D02*
X2923D01*
X2908Y2045D02*
Y2075D01*
X3490Y1568D02*
X3520D01*
X3505Y1552D02*
Y1582D01*
X3420Y1568D02*
X3450D01*
X3435Y1552D02*
Y1582D01*
X3338Y1568D02*
X3367D01*
X3353Y1552D02*
Y1582D01*
X3270Y1464D02*
X3300D01*
X3285Y1449D02*
Y1479D01*
X3338Y1464D02*
X3367D01*
X3353Y1449D02*
Y1479D01*
X3420Y1464D02*
X3450D01*
X3435Y1449D02*
Y1479D01*
X3490Y1464D02*
X3520D01*
X3505Y1449D02*
Y1479D01*
X4270Y1293D02*
X4300D01*
X4285Y1278D02*
Y1308D01*
X4203Y1362D02*
X4233D01*
X4217Y1347D02*
Y1377D01*
X3267Y1568D02*
X3297D01*
X3283Y1552D02*
Y1582D01*
X2002Y1408D02*
X2032D01*
X2017Y1393D02*
Y1423D01*
X3770Y1312D02*
X3800D01*
X3785Y1297D02*
Y1327D01*
X2040Y1309D02*
X2070D01*
X2055Y1294D02*
Y1324D01*
X4558Y1285D02*
X4588D01*
X4572Y1270D02*
Y1300D01*
X3695Y1300D02*
X3725D01*
X3710Y1285D02*
Y1315D01*
X2192Y1282D02*
X2223D01*
X2208Y1268D02*
Y1298D01*
X2012Y2233D02*
X2042D01*
X2027Y2217D02*
Y2248D01*
X1498Y1617D02*
X1527D01*
X1512Y1602D02*
Y1633D01*
X1520Y710D02*
X1550D01*
X1535Y695D02*
Y725D01*
X1520Y768D02*
X1550D01*
X1535Y753D02*
Y782D01*
X1455Y768D02*
X1485D01*
X1470Y753D02*
Y782D01*
X1390Y768D02*
X1420D01*
X1405Y753D02*
Y782D01*
X1520Y825D02*
X1550D01*
X1535Y810D02*
Y840D01*
X1390Y825D02*
X1420D01*
X1405Y810D02*
Y840D01*
X1498Y1560D02*
X1527D01*
X1512Y1545D02*
Y1575D01*
X1212Y1735D02*
X1243D01*
X1227Y1720D02*
Y1750D01*
X403Y827D02*
X432D01*
X418Y812D02*
Y843D01*
X403Y738D02*
X432D01*
X418Y722D02*
Y753D01*
X1098Y1677D02*
X1127D01*
X1112Y1662D02*
Y1692D01*
X1050Y1865D02*
X1080D01*
X1065Y1850D02*
Y1880D01*
X1155Y1738D02*
X1185D01*
X1170Y1723D02*
Y1752D01*
X1098Y1738D02*
X1127D01*
X1112Y1723D02*
Y1752D01*
X3190Y540D02*
X3220D01*
X3205Y525D02*
Y555D01*
X3725Y400D02*
X3755D01*
X3740Y385D02*
Y415D01*
X5417Y2323D02*
X5447D01*
X5433Y2308D02*
Y2338D01*
X1802Y1201D02*
X1833D01*
X1817Y1186D02*
Y1216D01*
X1935Y1493D02*
X1965D01*
X1950Y1477D02*
Y1507D01*
X1884Y1432D02*
X1914D01*
X1899Y1418D02*
Y1448D01*
X1952Y1560D02*
X1983D01*
X1967Y1545D02*
Y1575D01*
X1890Y1207D02*
X1920D01*
X1905Y1193D02*
Y1223D01*
X2120Y1965D02*
X2150D01*
X2135Y1950D02*
Y1980D01*
X5345Y1833D02*
X5375D01*
X5360Y1817D02*
Y1848D01*
X5115Y1842D02*
X5145D01*
X5130Y1827D02*
Y1858D01*
X5272Y1840D02*
X5303D01*
X5288Y1825D02*
Y1855D01*
X3670Y2013D02*
X3700D01*
X3685Y1998D02*
Y2028D01*
X3002Y2062D02*
X3033D01*
X3017Y2048D02*
Y2077D01*
X2217Y915D02*
X2248D01*
X2233Y900D02*
Y930D01*
X3105Y2042D02*
X3135D01*
X3120Y2027D02*
Y2058D01*
X3480Y2048D02*
X3510D01*
X3495Y2033D02*
Y2062D01*
X3027Y1617D02*
X3058D01*
X3042Y1602D02*
Y1633D01*
X4310Y1082D02*
X4340D01*
X4325Y1068D02*
Y1098D01*
X2848Y1155D02*
X2877D01*
X2862Y1140D02*
Y1170D01*
X2788Y632D02*
X2817D01*
X2802Y618D02*
Y647D01*
X1542Y1193D02*
X1572D01*
X1557Y1178D02*
Y1208D01*
X1590Y1145D02*
X1620D01*
X1605Y1130D02*
Y1160D01*
X2015Y800D02*
X2045D01*
X2030Y785D02*
Y815D01*
X1350Y362D02*
X1380D01*
X1365Y347D02*
Y378D01*
X588Y1152D02*
X618D01*
X603Y1138D02*
Y1168D01*
X832Y2323D02*
X862D01*
X848Y2308D02*
Y2338D01*
X2582Y1617D02*
X2612D01*
X2597Y1602D02*
Y1633D01*
X5840Y1220D02*
X5870D01*
X5855Y1205D02*
Y1235D01*
X6217Y2242D02*
X6247D01*
X6233Y2227D02*
Y2258D01*
X1915Y1908D02*
X1945D01*
X1930Y1893D02*
Y1923D01*
X5100Y2277D02*
X5130D01*
X5115Y2262D02*
Y2292D01*
X3670Y2098D02*
X3700D01*
X3685Y2083D02*
Y2112D01*
X1795Y570D02*
X1825D01*
X1810Y555D02*
Y585D01*
X2483Y1160D02*
X2513D01*
X2498Y1145D02*
Y1175D01*
X2302Y1088D02*
X2333D01*
X2317Y1073D02*
Y1102D01*
X2490Y765D02*
X2520D01*
X2505Y750D02*
Y780D01*
X2625Y765D02*
X2655D01*
X2640Y750D02*
Y780D01*
X3083Y2248D02*
X3112D01*
X3098Y2233D02*
Y2262D01*
X5500Y2100D02*
X5530D01*
X5515Y2085D02*
Y2115D01*
X4685Y1593D02*
X4715D01*
X4700Y1577D02*
Y1608D01*
X3700Y912D02*
X3730D01*
X3715Y898D02*
Y927D01*
X4075Y2112D02*
X4105D01*
X4090Y2098D02*
Y2127D01*
X2198Y1090D02*
X2228D01*
X2213Y1075D02*
Y1105D01*
X4337Y1580D02*
X4367D01*
X4352Y1565D02*
Y1595D01*
X4278Y1655D02*
X4308D01*
X4292Y1640D02*
Y1670D01*
X4447Y2080D02*
X4477D01*
X4462Y2065D02*
Y2095D01*
X4532Y2093D02*
X4562D01*
X4547Y2078D02*
Y2108D01*
X3585Y2188D02*
X3615D01*
X3600Y2173D02*
Y2202D01*
X1208Y2345D02*
X1238D01*
X1223Y2330D02*
Y2360D01*
X1723Y2325D02*
X1752D01*
X1738Y2310D02*
Y2340D01*
X3328Y2335D02*
X3358D01*
X3342Y2320D02*
Y2350D01*
X5270Y2333D02*
X5300D01*
X5285Y2317D02*
Y2348D01*
X5153Y2335D02*
X5183D01*
X5167Y2320D02*
Y2350D01*
X4367Y1742D02*
X4397D01*
X4383Y1727D02*
Y1758D01*
X4397Y1660D02*
X4428D01*
X4412Y1645D02*
Y1675D01*
X4220Y1562D02*
X4250D01*
X4235Y1548D02*
Y1577D01*
X1901Y1712D02*
X1931D01*
X1916Y1697D02*
Y1727D01*
X1817Y1708D02*
X1848D01*
X1833Y1692D02*
Y1723D01*
X1898Y1615D02*
X1927D01*
X1912Y1600D02*
Y1630D01*
X1800Y750D02*
X1830D01*
X1815Y735D02*
Y765D01*
X3550Y1215D02*
X3580D01*
X3565Y1200D02*
Y1230D01*
X3250Y1148D02*
X3280D01*
X3265Y1132D02*
Y1162D01*
X5842Y1402D02*
X5872D01*
X5858Y1388D02*
Y1418D01*
X5842Y1018D02*
X5872D01*
X5858Y1002D02*
Y1032D01*
X4955Y980D02*
X4985D01*
X4970Y965D02*
Y995D01*
X200Y2312D02*
X230D01*
X215Y2298D02*
Y2327D01*
X780Y77D02*
X810D01*
X795Y62D02*
Y93D01*
X1202Y1185D02*
X1232D01*
X1217Y1170D02*
Y1200D01*
X1286Y1133D02*
X1316D01*
X1301Y1118D02*
Y1148D01*
X1202Y1262D02*
X1232D01*
X1218Y1248D02*
Y1277D01*
X1130Y668D02*
X1160D01*
X1145Y653D02*
Y682D01*
X5772Y2088D02*
X5803D01*
X5788Y2073D02*
Y2102D01*
X5760Y1830D02*
X5790D01*
X5775Y1815D02*
Y1845D01*
X1650Y2292D02*
X1680D01*
X1665Y2277D02*
Y2308D01*
X4953Y1804D02*
X4983D01*
X4967Y1789D02*
Y1819D01*
X5028Y1833D02*
X5058D01*
X5042Y1817D02*
Y1848D01*
X1070Y2340D02*
X1100D01*
X1085Y2325D02*
Y2355D01*
X1150Y2308D02*
X1180D01*
X1165Y2292D02*
Y2323D01*
X925Y2250D02*
X955D01*
X940Y2235D02*
Y2265D01*
X1150Y2238D02*
X1180D01*
X1165Y2223D02*
Y2252D01*
X1205Y1343D02*
X1235D01*
X1220Y1327D02*
Y1357D01*
X162Y1073D02*
X192D01*
X177Y1058D02*
Y1088D01*
X765Y1465D02*
X795D01*
X780Y1450D02*
Y1480D01*
X35Y1835D02*
X65D01*
X50Y1820D02*
Y1850D01*
X1110Y588D02*
X1140D01*
X1125Y572D02*
Y603D01*
X1489Y446D02*
X1519D01*
X1504Y431D02*
Y461D01*
X1655Y450D02*
X1685D01*
X1670Y435D02*
Y465D01*
X383Y2311D02*
X412D01*
X397Y2296D02*
Y2326D01*
X1080Y1052D02*
X1110D01*
X1095Y1038D02*
Y1068D01*
X977Y1350D02*
X1007D01*
X993Y1335D02*
Y1365D01*
X845Y1227D02*
X875D01*
X860Y1212D02*
Y1243D01*
X1040Y1318D02*
X1070D01*
X1055Y1302D02*
Y1332D01*
X1098Y1252D02*
X1127D01*
X1112Y1238D02*
Y1268D01*
X765Y1598D02*
X795D01*
X780Y1582D02*
Y1612D01*
X738Y1723D02*
X768D01*
X753Y1708D02*
Y1738D01*
X762Y1800D02*
X793D01*
X778Y1785D02*
Y1815D01*
X1388Y1165D02*
X1418D01*
X1402Y1150D02*
Y1180D01*
X1123Y768D02*
X1152D01*
X1138Y753D02*
Y782D01*
X1075Y920D02*
X1105D01*
X1090Y905D02*
Y935D01*
X1057Y823D02*
X1088D01*
X1073Y807D02*
Y838D01*
X1438Y1115D02*
X1468D01*
X1452Y1100D02*
Y1130D01*
X823Y2077D02*
X852D01*
X838Y2062D02*
Y2092D01*
X750Y2075D02*
X780D01*
X765Y2060D02*
Y2090D01*
M02*
