G04*
G04 #@! TF.GenerationSoftware,Altium Limited,Altium Designer,20.2.5 (213)*
G04*
G04 Layer_Physical_Order=3*
G04 Layer_Color=16440176*
%FSLAX42Y42*%
%MOMM*%
G71*
G04*
G04 #@! TF.SameCoordinates,0AE3A023-6BB7-4A84-8F3F-E2DF2112AB30*
G04*
G04*
G04 #@! TF.FilePolarity,Positive*
G04*
G01*
G75*
%ADD12C,0.25*%
%ADD103C,0.51*%
%ADD104C,0.30*%
%ADD106C,1.50*%
%ADD109C,0.45*%
D12*
X5765Y1592D02*
X5776Y1581D01*
Y1572D02*
Y1581D01*
Y1572D02*
X5780Y1569D01*
Y680D02*
Y1569D01*
X3453Y405D02*
X3670Y622D01*
X4620D01*
X4795Y447D02*
X5438D01*
X4620Y622D02*
X4795Y447D01*
X5630Y640D02*
Y1435D01*
X5438Y447D02*
X5630Y640D01*
X1093Y308D02*
X5408D01*
X5780Y680D01*
X1985Y2645D02*
X5795D01*
X1865Y2765D02*
X1985Y2645D01*
X5795D02*
X6055Y2385D01*
X1695Y2642D02*
X1727Y2675D01*
Y2848D02*
X1823Y2942D01*
X1727Y2675D02*
Y2848D01*
X1477Y2398D02*
Y2588D01*
X1361Y2281D02*
X1477Y2398D01*
Y2588D02*
X1532Y2642D01*
X2698Y2138D02*
X2698Y2138D01*
X1956Y2038D02*
X2698D01*
X1995Y2138D02*
X2698D01*
X1601Y1743D02*
X1995Y2138D01*
X1601Y1722D02*
X1808Y1515D01*
X1601Y1722D02*
Y1743D01*
X1548Y1707D02*
Y1886D01*
X1662Y1723D02*
Y1744D01*
X1759Y1758D02*
X1833D01*
X1662Y1744D02*
X1956Y2038D01*
X1753Y1764D02*
X1759Y1758D01*
X1662Y1723D02*
X1851Y1534D01*
X1817Y1816D02*
X1826D01*
X1811Y1811D02*
X1817Y1816D01*
X1811Y1803D02*
Y1811D01*
X1826Y1816D02*
X1862Y1852D01*
X1726Y1963D02*
X1759D01*
X1698Y2035D02*
X1762D01*
X1842Y2047D02*
Y2152D01*
X1759Y1963D02*
X1842Y2047D01*
X1725Y1962D02*
X1726Y1963D01*
X1548Y1707D02*
X1760Y1495D01*
X1548Y1886D02*
X1698Y2035D01*
X1967Y1560D02*
X2015Y1512D01*
X4185D02*
X4235Y1562D01*
X2015Y1512D02*
X4185D01*
X4284Y1360D02*
X5450D01*
X2120Y1410D02*
X5353D01*
X3851Y1314D02*
X4237D01*
X5353Y1410D02*
X5765Y1823D01*
X2074Y1456D02*
X2120Y1410D01*
X4237Y1314D02*
X4284Y1360D01*
X3805D02*
X3851Y1314D01*
X1992Y1456D02*
X2074D01*
X1955Y1493D02*
X1992Y1456D01*
X1950Y1493D02*
X1955D01*
X1972Y1360D02*
X3805D01*
X5450D02*
X5942Y1852D01*
X1899Y1432D02*
X1972Y1360D01*
X1407Y1585D02*
Y1777D01*
X1107Y2077D02*
X1407Y1777D01*
Y1585D02*
X1702Y1290D01*
Y1095D02*
Y1290D01*
X1615Y1155D02*
Y1316D01*
X1309Y1561D02*
X1557Y1312D01*
X1352Y1579D02*
Y1771D01*
X1557Y1193D02*
Y1312D01*
X1309Y1561D02*
Y1736D01*
X1352Y1579D02*
X1615Y1316D01*
X1104Y2020D02*
X1352Y1771D01*
X1245Y1800D02*
X1309Y1736D01*
X778Y1800D02*
X1245D01*
X1758Y2238D02*
X1842Y2152D01*
X1170Y2308D02*
X1197Y2281D01*
X1361D01*
X1165Y2238D02*
X1758D01*
X1851Y1395D02*
Y1534D01*
X1808Y1377D02*
Y1515D01*
X1760Y1251D02*
Y1495D01*
X838Y2077D02*
X1107D01*
X818Y2020D02*
X1104D01*
X1816Y1201D02*
X1817D01*
X1802Y1215D02*
X1816Y1201D01*
X1760Y1251D02*
X1796Y1215D01*
X1802D01*
X2867Y2115D02*
X2965D01*
X2717Y1965D02*
X2867Y2115D01*
X2135Y1965D02*
X2717D01*
X2965Y2115D02*
X3017Y2062D01*
X2708Y2138D02*
X2755Y2185D01*
X3442D02*
X3510Y2117D01*
X2755Y2185D02*
X3442D01*
X5065Y1908D02*
X5130Y1842D01*
X1930Y1908D02*
X5065D01*
X3688Y2185D02*
X4942D01*
X5288Y1840D01*
X3120Y2042D02*
X3123Y2045D01*
X3492D01*
X3495Y2048D01*
X2597Y1617D02*
X3042D01*
X1007Y392D02*
X1093Y308D01*
X2030Y800D02*
Y1216D01*
X1557Y1193D02*
X1557Y1193D01*
X1605Y1145D02*
X1615Y1155D01*
X1851Y1395D02*
X2030Y1216D01*
X1808Y1377D02*
X1970Y1215D01*
Y593D02*
Y1215D01*
X1870Y493D02*
X1970Y593D01*
X1723Y545D02*
X1775Y493D01*
X1870D01*
X1005Y392D02*
X1007D01*
X525Y873D02*
X1005Y392D01*
X525Y873D02*
Y2145D01*
X703Y2323D01*
X603Y2105D02*
X670Y2173D01*
X603Y1152D02*
Y1540D01*
X605Y1538D01*
X603Y1540D02*
Y2105D01*
X703Y2323D02*
X848D01*
X5925Y1300D02*
X6012D01*
X6055Y1343D02*
Y2385D01*
X6012Y1300D02*
X6055Y1343D01*
X5853Y1227D02*
X5925Y1300D01*
X1865Y2765D02*
Y2767D01*
X1738Y2325D02*
X3240D01*
X3312Y2252D02*
X5015D01*
X3240Y2325D02*
X3312Y2252D01*
X5065Y2202D02*
X5238D01*
X5015Y2252D02*
X5065Y2202D01*
X5238D02*
X5285Y2250D01*
X3510Y2117D02*
X3620D01*
X3688Y2185D01*
X1912Y672D02*
Y885D01*
X1810Y570D02*
X1912Y672D01*
X1723Y545D02*
Y585D01*
X1758Y620D01*
X1777D02*
X1869Y712D01*
X1758Y620D02*
X1777D01*
X1842Y820D02*
X1869Y793D01*
Y712D02*
Y793D01*
X1523Y562D02*
X1780Y820D01*
X1842D01*
X1477Y562D02*
X1523D01*
X1310Y565D02*
X1475D01*
X1477Y562D01*
X1256Y619D02*
X1310Y565D01*
X1256Y619D02*
Y1100D01*
X1212Y810D02*
Y1082D01*
X1138Y768D02*
X1141Y771D01*
X1174D01*
X1112Y1182D02*
X1212Y1082D01*
X1174Y771D02*
X1212Y810D01*
X1221Y1135D02*
X1256Y1100D01*
X1112Y1182D02*
Y1252D01*
X1217Y1185D02*
X1221Y1182D01*
Y1135D02*
Y1182D01*
X1702Y1095D02*
X1912Y885D01*
X4297Y1580D02*
X4347D01*
X4260Y1617D02*
X4297Y1580D01*
X3042Y1617D02*
X4260D01*
X4275Y1659D02*
X4289D01*
X4292Y1655D01*
X4266Y1667D02*
X4275Y1659D01*
X3467Y2942D02*
X3643Y2767D01*
X1823Y2942D02*
X3467D01*
X1532Y2642D02*
X1695D01*
X1165Y2308D02*
X1170D01*
X1223Y2345D02*
X1223Y2345D01*
X1223Y2345D02*
Y2852D01*
X1662Y2295D02*
X1665Y2292D01*
X1662Y2295D02*
Y2340D01*
X1720Y2398D01*
X4181Y2335D02*
X5167D01*
X4119Y2398D02*
X4181Y2335D01*
X1720Y2398D02*
X4119D01*
X1665Y2292D02*
X1670D01*
X5285Y2250D02*
Y2333D01*
X1918Y1615D02*
X1970Y1667D01*
X4266D01*
X1917Y1712D02*
X4315D01*
X1916Y1712D02*
X1917Y1712D01*
X4315D02*
X4365Y1662D01*
X4377Y1742D02*
X4383D01*
X4358Y1762D02*
X4377Y1742D01*
X1898Y1762D02*
X4358D01*
X4410Y1662D02*
X4412Y1660D01*
X4365Y1662D02*
X4410D01*
X1912Y1615D02*
X1918D01*
X1848Y1711D02*
X1898Y1762D01*
X1833Y1708D02*
X1836Y1711D01*
X1848D01*
X1880Y1805D02*
X4967D01*
X1833Y1758D02*
X1880Y1805D01*
X1862Y1852D02*
X5017D01*
X1670Y605D02*
X1815Y750D01*
X1670Y450D02*
Y605D01*
X1305Y2935D02*
X1540D01*
X1610Y2767D02*
X1611Y2767D01*
X1610Y2767D02*
Y2865D01*
X1540Y2935D02*
X1610Y2865D01*
X1298Y1136D02*
X1301Y1133D01*
X1298Y1136D02*
Y1141D01*
X1165Y852D02*
Y1065D01*
X1055Y1175D02*
Y1318D01*
Y1175D02*
X1165Y1065D01*
X1325Y1208D02*
Y1395D01*
X1402Y1165D02*
X1402Y1165D01*
X1368Y1165D02*
X1402D01*
X1325Y1208D02*
X1368Y1165D01*
X5840Y2088D02*
X5942Y1985D01*
X5790Y2088D02*
X5840D01*
X5942Y1852D02*
Y1985D01*
X998Y1723D02*
X1325Y1395D01*
X1280Y1160D02*
Y1370D01*
X1052Y1598D02*
X1280Y1370D01*
Y1160D02*
X1298Y1141D01*
X753Y1723D02*
X998D01*
X780Y1598D02*
X1052D01*
X5037Y1833D02*
X5042D01*
X5017Y1852D02*
X5037Y1833D01*
X4967Y1805D02*
X4967Y1804D01*
X1223Y2852D02*
X1305Y2935D01*
X1085Y2230D02*
Y2340D01*
X1027Y2173D02*
X1085Y2230D01*
X670Y2173D02*
X1027D01*
X1025Y1538D02*
X1220Y1343D01*
X605Y1538D02*
X1025D01*
X938Y1210D02*
Y1302D01*
X775Y1465D02*
X938Y1302D01*
X1266Y446D02*
X1504D01*
X1125Y588D02*
X1266Y446D01*
X1668Y448D02*
X1670Y450D01*
X1506Y448D02*
X1668D01*
X1504Y446D02*
X1506Y448D01*
X1135Y823D02*
X1165Y852D01*
X938Y1210D02*
X1095Y1052D01*
X860Y1150D02*
Y1227D01*
X1090Y920D02*
Y920D01*
X860Y1150D02*
X1090Y920D01*
X1073Y823D02*
X1135D01*
X765Y2073D02*
X818Y2020D01*
X765Y2073D02*
Y2075D01*
D103*
X4750Y657D02*
X5492D01*
X4325Y1082D02*
X4750Y657D01*
X4400Y1285D02*
X4572D01*
X4178Y1062D02*
X4400Y1285D01*
X3815Y1062D02*
X4178D01*
X3217Y1055D02*
X3808D01*
X3815Y1062D01*
X2862Y1155D02*
X3117D01*
X3217Y1055D01*
D104*
X5362Y1798D02*
Y1833D01*
X5330Y1765D02*
X5362Y1798D01*
X5250Y1765D02*
X5330D01*
X5221Y1794D02*
Y1841D01*
Y1794D02*
X5250Y1765D01*
X5100Y1962D02*
X5221Y1841D01*
X3040Y1962D02*
X5100D01*
X3017Y1985D02*
Y2062D01*
Y1985D02*
X3040Y1962D01*
D106*
X3635Y2777D02*
D03*
X1857D02*
D03*
X1603D02*
D03*
D109*
X5492Y657D02*
D03*
X5772Y1590D02*
D03*
X5630Y1435D02*
D03*
X3453Y405D02*
D03*
X2698Y2038D02*
D03*
Y2138D02*
D03*
X1753Y1764D02*
D03*
X1808Y1813D02*
D03*
X1762Y2035D02*
D03*
X1725Y1962D02*
D03*
X4572Y1285D02*
D03*
X1817Y1201D02*
D03*
X1950Y1493D02*
D03*
X1899Y1432D02*
D03*
X1967Y1560D02*
D03*
X2135Y1965D02*
D03*
X5360Y1833D02*
D03*
X5130Y1842D02*
D03*
X5288Y1840D02*
D03*
X3017Y2062D02*
D03*
X3120Y2042D02*
D03*
X3495Y2048D02*
D03*
X3042Y1617D02*
D03*
X4325Y1082D02*
D03*
X2862Y1155D02*
D03*
X1557Y1193D02*
D03*
X1605Y1145D02*
D03*
X2030Y800D02*
D03*
X603Y1152D02*
D03*
X848Y2323D02*
D03*
X2597Y1617D02*
D03*
X5855Y1220D02*
D03*
X1930Y1908D02*
D03*
X1810Y570D02*
D03*
X4352Y1580D02*
D03*
X4292Y1655D02*
D03*
X1223Y2345D02*
D03*
X1738Y2325D02*
D03*
X5285Y2333D02*
D03*
X5167Y2335D02*
D03*
X4383Y1742D02*
D03*
X4412Y1660D02*
D03*
X4235Y1562D02*
D03*
X1916Y1712D02*
D03*
X1833Y1708D02*
D03*
X1912Y1615D02*
D03*
X1815Y750D02*
D03*
X1217Y1185D02*
D03*
X1301Y1133D02*
D03*
X5788Y2088D02*
D03*
X5775Y1830D02*
D03*
X1665Y2292D02*
D03*
X4967Y1804D02*
D03*
X5042Y1833D02*
D03*
X1085Y2340D02*
D03*
X1165Y2308D02*
D03*
Y2238D02*
D03*
X1220Y1343D02*
D03*
X780Y1465D02*
D03*
X1125Y588D02*
D03*
X1504Y446D02*
D03*
X1670Y450D02*
D03*
X1095Y1052D02*
D03*
X860Y1227D02*
D03*
X1055Y1318D02*
D03*
X1112Y1252D02*
D03*
X780Y1598D02*
D03*
X753Y1723D02*
D03*
X778Y1800D02*
D03*
X1402Y1165D02*
D03*
X1138Y768D02*
D03*
X1090Y920D02*
D03*
X1073Y823D02*
D03*
X838Y2077D02*
D03*
X765Y2075D02*
D03*
M02*
