G04*
G04 #@! TF.GenerationSoftware,Altium Limited,Altium Designer,20.2.5 (213)*
G04*
G04 Layer_Physical_Order=2*
G04 Layer_Color=36540*
%FSLAX42Y42*%
%MOMM*%
G71*
G04*
G04 #@! TF.SameCoordinates,0AE3A023-6BB7-4A84-8F3F-E2DF2112AB30*
G04*
G04*
G04 #@! TF.FilePolarity,Positive*
G04*
G01*
G75*
%ADD12C,0.25*%
%ADD106C,1.50*%
%ADD108R,1.50X1.50*%
%ADD109C,0.45*%
G36*
X6500Y0D02*
X831Y-0D01*
X822Y38D01*
X830Y43D01*
X840Y59D01*
X841Y65D01*
X749D01*
X750Y59D01*
X760Y43D01*
X768Y38D01*
X759Y-0D01*
X0D01*
X-0Y1765D01*
X13Y1775D01*
X38Y1789D01*
X50Y1786D01*
X69Y1790D01*
X85Y1800D01*
X95Y1816D01*
X99Y1835D01*
X95Y1854D01*
X85Y1870D01*
X69Y1880D01*
X50Y1884D01*
X38Y1881D01*
X13Y1895D01*
X-0Y1905D01*
Y3000D01*
X6500D01*
Y0D01*
D02*
G37*
%LPC*%
G36*
X4918Y2876D02*
Y2789D01*
X5005D01*
X5003Y2803D01*
X4993Y2827D01*
X4977Y2848D01*
X4956Y2864D01*
X4932Y2874D01*
X4918Y2876D01*
D02*
G37*
G36*
X4893D02*
X4879Y2874D01*
X4855Y2864D01*
X4834Y2848D01*
X4818Y2827D01*
X4808Y2803D01*
X4806Y2789D01*
X4893D01*
Y2876D01*
D02*
G37*
G36*
X4410D02*
Y2789D01*
X4497D01*
X4495Y2803D01*
X4485Y2827D01*
X4469Y2848D01*
X4448Y2864D01*
X4424Y2874D01*
X4410Y2876D01*
D02*
G37*
G36*
X4385D02*
X4371Y2874D01*
X4347Y2864D01*
X4326Y2848D01*
X4310Y2827D01*
X4300Y2803D01*
X4298Y2789D01*
X4385D01*
Y2876D01*
D02*
G37*
G36*
X3140D02*
Y2789D01*
X3227D01*
X3225Y2803D01*
X3215Y2827D01*
X3199Y2848D01*
X3178Y2864D01*
X3154Y2874D01*
X3140Y2876D01*
D02*
G37*
G36*
X3115D02*
X3101Y2874D01*
X3077Y2864D01*
X3056Y2848D01*
X3040Y2827D01*
X3030Y2803D01*
X3028Y2789D01*
X3115D01*
Y2876D01*
D02*
G37*
G36*
X2378D02*
Y2789D01*
X2465D01*
X2463Y2803D01*
X2453Y2827D01*
X2437Y2848D01*
X2416Y2864D01*
X2392Y2874D01*
X2378Y2876D01*
D02*
G37*
G36*
X2353D02*
X2339Y2874D01*
X2315Y2864D01*
X2294Y2848D01*
X2278Y2827D01*
X2268Y2803D01*
X2266Y2789D01*
X2353D01*
Y2876D01*
D02*
G37*
G36*
X1362D02*
Y2789D01*
X1449D01*
X1447Y2803D01*
X1437Y2827D01*
X1421Y2848D01*
X1400Y2864D01*
X1376Y2874D01*
X1362Y2876D01*
D02*
G37*
G36*
X1337D02*
X1323Y2874D01*
X1299Y2864D01*
X1278Y2848D01*
X1262Y2827D01*
X1252Y2803D01*
X1250Y2789D01*
X1337D01*
Y2876D01*
D02*
G37*
G36*
X5005Y2764D02*
X4918D01*
Y2677D01*
X4932Y2679D01*
X4956Y2689D01*
X4977Y2705D01*
X4993Y2726D01*
X5003Y2750D01*
X5005Y2764D01*
D02*
G37*
G36*
X4893D02*
X4806D01*
X4808Y2750D01*
X4818Y2726D01*
X4834Y2705D01*
X4855Y2689D01*
X4879Y2679D01*
X4893Y2677D01*
Y2764D01*
D02*
G37*
G36*
X4497D02*
X4410D01*
Y2677D01*
X4424Y2679D01*
X4448Y2689D01*
X4469Y2705D01*
X4485Y2726D01*
X4495Y2750D01*
X4497Y2764D01*
D02*
G37*
G36*
X4385D02*
X4298D01*
X4300Y2750D01*
X4310Y2726D01*
X4326Y2705D01*
X4347Y2689D01*
X4371Y2679D01*
X4385Y2677D01*
Y2764D01*
D02*
G37*
G36*
X3227D02*
X3140D01*
Y2677D01*
X3154Y2679D01*
X3178Y2689D01*
X3199Y2705D01*
X3215Y2726D01*
X3225Y2750D01*
X3227Y2764D01*
D02*
G37*
G36*
X3115D02*
X3028D01*
X3030Y2750D01*
X3040Y2726D01*
X3056Y2705D01*
X3077Y2689D01*
X3101Y2679D01*
X3115Y2677D01*
Y2764D01*
D02*
G37*
G36*
X2465D02*
X2378D01*
Y2677D01*
X2392Y2679D01*
X2416Y2689D01*
X2437Y2705D01*
X2453Y2726D01*
X2463Y2750D01*
X2465Y2764D01*
D02*
G37*
G36*
X2353D02*
X2266D01*
X2268Y2750D01*
X2278Y2726D01*
X2294Y2705D01*
X2315Y2689D01*
X2339Y2679D01*
X2353Y2677D01*
Y2764D01*
D02*
G37*
G36*
X1449D02*
X1362D01*
Y2677D01*
X1376Y2679D01*
X1400Y2689D01*
X1421Y2705D01*
X1437Y2726D01*
X1447Y2750D01*
X1449Y2764D01*
D02*
G37*
G36*
X1337D02*
X1250D01*
X1252Y2750D01*
X1262Y2726D01*
X1278Y2705D01*
X1299Y2689D01*
X1323Y2679D01*
X1337Y2677D01*
Y2764D01*
D02*
G37*
G36*
X5667Y2878D02*
X5641Y2874D01*
X5617Y2864D01*
X5596Y2848D01*
X5580Y2827D01*
X5570Y2803D01*
X5566Y2777D01*
X5570Y2750D01*
X5580Y2726D01*
X5596Y2705D01*
X5617Y2689D01*
X5641Y2679D01*
X5667Y2675D01*
X5694Y2679D01*
X5718Y2689D01*
X5739Y2705D01*
X5755Y2726D01*
X5765Y2750D01*
X5769Y2777D01*
X5765Y2803D01*
X5755Y2827D01*
X5739Y2848D01*
X5718Y2864D01*
X5694Y2874D01*
X5667Y2878D01*
D02*
G37*
G36*
X5413D02*
X5387Y2874D01*
X5363Y2864D01*
X5342Y2848D01*
X5326Y2827D01*
X5316Y2803D01*
X5312Y2777D01*
X5316Y2750D01*
X5326Y2726D01*
X5342Y2705D01*
X5363Y2689D01*
X5387Y2679D01*
X5413Y2675D01*
X5440Y2679D01*
X5464Y2689D01*
X5485Y2705D01*
X5501Y2726D01*
X5511Y2750D01*
X5515Y2777D01*
X5511Y2803D01*
X5501Y2827D01*
X5485Y2848D01*
X5464Y2864D01*
X5440Y2874D01*
X5413Y2878D01*
D02*
G37*
G36*
X5159D02*
X5133Y2874D01*
X5109Y2864D01*
X5088Y2848D01*
X5072Y2827D01*
X5062Y2803D01*
X5058Y2777D01*
X5062Y2750D01*
X5072Y2726D01*
X5088Y2705D01*
X5109Y2689D01*
X5133Y2679D01*
X5159Y2675D01*
X5186Y2679D01*
X5210Y2689D01*
X5231Y2705D01*
X5247Y2726D01*
X5257Y2750D01*
X5261Y2777D01*
X5257Y2803D01*
X5247Y2827D01*
X5231Y2848D01*
X5210Y2864D01*
X5186Y2874D01*
X5159Y2878D01*
D02*
G37*
G36*
X4651D02*
X4625Y2874D01*
X4601Y2864D01*
X4580Y2848D01*
X4564Y2827D01*
X4554Y2803D01*
X4550Y2777D01*
X4554Y2750D01*
X4564Y2726D01*
X4580Y2705D01*
X4601Y2689D01*
X4625Y2679D01*
X4651Y2675D01*
X4678Y2679D01*
X4702Y2689D01*
X4723Y2705D01*
X4739Y2726D01*
X4749Y2750D01*
X4753Y2777D01*
X4749Y2803D01*
X4739Y2827D01*
X4723Y2848D01*
X4702Y2864D01*
X4678Y2874D01*
X4651Y2878D01*
D02*
G37*
G36*
X4143D02*
X4117Y2874D01*
X4093Y2864D01*
X4072Y2848D01*
X4056Y2827D01*
X4046Y2803D01*
X4042Y2777D01*
X4046Y2750D01*
X4056Y2726D01*
X4072Y2705D01*
X4093Y2689D01*
X4117Y2679D01*
X4143Y2675D01*
X4170Y2679D01*
X4194Y2689D01*
X4215Y2705D01*
X4231Y2726D01*
X4241Y2750D01*
X4245Y2777D01*
X4241Y2803D01*
X4231Y2827D01*
X4215Y2848D01*
X4194Y2864D01*
X4170Y2874D01*
X4143Y2878D01*
D02*
G37*
G36*
X3889D02*
X3863Y2874D01*
X3839Y2864D01*
X3818Y2848D01*
X3802Y2827D01*
X3792Y2803D01*
X3788Y2777D01*
X3792Y2750D01*
X3802Y2726D01*
X3818Y2705D01*
X3839Y2689D01*
X3863Y2679D01*
X3889Y2675D01*
X3916Y2679D01*
X3940Y2689D01*
X3961Y2705D01*
X3977Y2726D01*
X3987Y2750D01*
X3991Y2777D01*
X3987Y2803D01*
X3977Y2827D01*
X3961Y2848D01*
X3940Y2864D01*
X3916Y2874D01*
X3889Y2878D01*
D02*
G37*
G36*
X3635D02*
X3609Y2874D01*
X3585Y2864D01*
X3564Y2848D01*
X3548Y2827D01*
X3538Y2803D01*
X3534Y2777D01*
X3538Y2750D01*
X3548Y2726D01*
X3564Y2705D01*
X3585Y2689D01*
X3609Y2679D01*
X3635Y2675D01*
X3662Y2679D01*
X3686Y2689D01*
X3707Y2705D01*
X3723Y2726D01*
X3733Y2750D01*
X3737Y2777D01*
X3733Y2803D01*
X3723Y2827D01*
X3707Y2848D01*
X3686Y2864D01*
X3662Y2874D01*
X3635Y2878D01*
D02*
G37*
G36*
X3381D02*
X3355Y2874D01*
X3331Y2864D01*
X3310Y2848D01*
X3294Y2827D01*
X3284Y2803D01*
X3280Y2777D01*
X3284Y2750D01*
X3294Y2726D01*
X3310Y2705D01*
X3331Y2689D01*
X3355Y2679D01*
X3381Y2675D01*
X3408Y2679D01*
X3432Y2689D01*
X3453Y2705D01*
X3469Y2726D01*
X3479Y2750D01*
X3483Y2777D01*
X3479Y2803D01*
X3469Y2827D01*
X3453Y2848D01*
X3432Y2864D01*
X3408Y2874D01*
X3381Y2878D01*
D02*
G37*
G36*
X2873D02*
X2847Y2874D01*
X2823Y2864D01*
X2802Y2848D01*
X2786Y2827D01*
X2776Y2803D01*
X2772Y2777D01*
X2776Y2750D01*
X2786Y2726D01*
X2802Y2705D01*
X2823Y2689D01*
X2847Y2679D01*
X2873Y2675D01*
X2900Y2679D01*
X2924Y2689D01*
X2945Y2705D01*
X2961Y2726D01*
X2971Y2750D01*
X2975Y2777D01*
X2971Y2803D01*
X2961Y2827D01*
X2945Y2848D01*
X2924Y2864D01*
X2900Y2874D01*
X2873Y2878D01*
D02*
G37*
G36*
X2619D02*
X2593Y2874D01*
X2569Y2864D01*
X2548Y2848D01*
X2532Y2827D01*
X2522Y2803D01*
X2518Y2777D01*
X2522Y2750D01*
X2532Y2726D01*
X2548Y2705D01*
X2569Y2689D01*
X2593Y2679D01*
X2619Y2675D01*
X2646Y2679D01*
X2670Y2689D01*
X2691Y2705D01*
X2707Y2726D01*
X2717Y2750D01*
X2721Y2777D01*
X2717Y2803D01*
X2707Y2827D01*
X2691Y2848D01*
X2670Y2864D01*
X2646Y2874D01*
X2619Y2878D01*
D02*
G37*
G36*
X2111D02*
X2085Y2874D01*
X2061Y2864D01*
X2040Y2848D01*
X2024Y2827D01*
X2014Y2803D01*
X2010Y2777D01*
X2014Y2750D01*
X2024Y2726D01*
X2040Y2705D01*
X2061Y2689D01*
X2085Y2679D01*
X2111Y2675D01*
X2138Y2679D01*
X2162Y2689D01*
X2183Y2705D01*
X2199Y2726D01*
X2209Y2750D01*
X2213Y2777D01*
X2209Y2803D01*
X2199Y2827D01*
X2183Y2848D01*
X2162Y2864D01*
X2138Y2874D01*
X2111Y2878D01*
D02*
G37*
G36*
X1857D02*
X1831Y2874D01*
X1807Y2864D01*
X1786Y2848D01*
X1770Y2827D01*
X1760Y2803D01*
X1756Y2777D01*
X1760Y2750D01*
X1770Y2726D01*
X1786Y2705D01*
X1807Y2689D01*
X1831Y2679D01*
X1857Y2675D01*
X1884Y2679D01*
X1908Y2689D01*
X1929Y2705D01*
X1945Y2726D01*
X1955Y2750D01*
X1959Y2777D01*
X1955Y2803D01*
X1945Y2827D01*
X1929Y2848D01*
X1908Y2864D01*
X1884Y2874D01*
X1857Y2878D01*
D02*
G37*
G36*
X1603D02*
X1577Y2874D01*
X1553Y2864D01*
X1532Y2848D01*
X1516Y2827D01*
X1506Y2803D01*
X1502Y2777D01*
X1506Y2750D01*
X1516Y2726D01*
X1532Y2705D01*
X1553Y2689D01*
X1577Y2679D01*
X1603Y2675D01*
X1630Y2679D01*
X1654Y2689D01*
X1675Y2705D01*
X1691Y2726D01*
X1701Y2750D01*
X1705Y2777D01*
X1701Y2803D01*
X1691Y2827D01*
X1675Y2848D01*
X1654Y2864D01*
X1630Y2874D01*
X1603Y2878D01*
D02*
G37*
G36*
X1095D02*
X1069Y2874D01*
X1045Y2864D01*
X1024Y2848D01*
X1008Y2827D01*
X998Y2803D01*
X994Y2777D01*
X998Y2750D01*
X1008Y2726D01*
X1024Y2705D01*
X1045Y2689D01*
X1069Y2679D01*
X1095Y2675D01*
X1122Y2679D01*
X1146Y2689D01*
X1167Y2705D01*
X1183Y2726D01*
X1193Y2750D01*
X1197Y2777D01*
X1193Y2803D01*
X1183Y2827D01*
X1167Y2848D01*
X1146Y2864D01*
X1122Y2874D01*
X1095Y2878D01*
D02*
G37*
G36*
X841D02*
X815Y2874D01*
X791Y2864D01*
X770Y2848D01*
X754Y2827D01*
X744Y2803D01*
X740Y2777D01*
X744Y2750D01*
X754Y2726D01*
X770Y2705D01*
X791Y2689D01*
X815Y2679D01*
X841Y2675D01*
X868Y2679D01*
X892Y2689D01*
X913Y2705D01*
X929Y2726D01*
X939Y2750D01*
X943Y2777D01*
X939Y2803D01*
X929Y2827D01*
X913Y2848D01*
X892Y2864D01*
X868Y2874D01*
X841Y2878D01*
D02*
G37*
G36*
X5680Y2622D02*
Y2535D01*
X5767D01*
X5765Y2549D01*
X5755Y2573D01*
X5739Y2594D01*
X5718Y2610D01*
X5694Y2620D01*
X5680Y2622D01*
D02*
G37*
G36*
X5655D02*
X5641Y2620D01*
X5617Y2610D01*
X5596Y2594D01*
X5580Y2573D01*
X5570Y2549D01*
X5568Y2535D01*
X5655D01*
Y2622D01*
D02*
G37*
G36*
X3902D02*
Y2535D01*
X3989D01*
X3987Y2549D01*
X3977Y2573D01*
X3961Y2594D01*
X3940Y2610D01*
X3916Y2620D01*
X3902Y2622D01*
D02*
G37*
G36*
X3877D02*
X3863Y2620D01*
X3839Y2610D01*
X3818Y2594D01*
X3802Y2573D01*
X3792Y2549D01*
X3790Y2535D01*
X3877D01*
Y2622D01*
D02*
G37*
G36*
X1870D02*
Y2535D01*
X1957D01*
X1955Y2549D01*
X1945Y2573D01*
X1929Y2594D01*
X1908Y2610D01*
X1884Y2620D01*
X1870Y2622D01*
D02*
G37*
G36*
X1845D02*
X1831Y2620D01*
X1807Y2610D01*
X1786Y2594D01*
X1770Y2573D01*
X1760Y2549D01*
X1758Y2535D01*
X1845D01*
Y2622D01*
D02*
G37*
G36*
X6150Y2816D02*
X6118Y2813D01*
X6086Y2804D01*
X6058Y2788D01*
X6032Y2768D01*
X6012Y2742D01*
X5996Y2714D01*
X5987Y2682D01*
X5984Y2650D01*
X5987Y2618D01*
X5996Y2586D01*
X6012Y2558D01*
X6032Y2532D01*
X6058Y2512D01*
X6086Y2496D01*
X6118Y2487D01*
X6150Y2484D01*
X6182Y2487D01*
X6214Y2496D01*
X6242Y2512D01*
X6268Y2532D01*
X6288Y2558D01*
X6304Y2586D01*
X6313Y2618D01*
X6316Y2650D01*
X6313Y2682D01*
X6304Y2714D01*
X6288Y2742D01*
X6268Y2768D01*
X6242Y2788D01*
X6214Y2804D01*
X6182Y2813D01*
X6150Y2816D01*
D02*
G37*
G36*
X350D02*
X318Y2813D01*
X286Y2804D01*
X258Y2788D01*
X232Y2768D01*
X212Y2742D01*
X196Y2714D01*
X187Y2682D01*
X184Y2650D01*
X187Y2618D01*
X196Y2586D01*
X212Y2558D01*
X232Y2532D01*
X258Y2512D01*
X286Y2496D01*
X318Y2487D01*
X350Y2484D01*
X382Y2487D01*
X414Y2496D01*
X442Y2512D01*
X468Y2532D01*
X488Y2558D01*
X504Y2586D01*
X513Y2618D01*
X516Y2650D01*
X513Y2682D01*
X504Y2714D01*
X488Y2742D01*
X468Y2768D01*
X442Y2788D01*
X414Y2804D01*
X382Y2813D01*
X350Y2816D01*
D02*
G37*
G36*
X5767Y2510D02*
X5680D01*
Y2423D01*
X5694Y2425D01*
X5718Y2435D01*
X5739Y2451D01*
X5755Y2472D01*
X5765Y2496D01*
X5767Y2510D01*
D02*
G37*
G36*
X5655D02*
X5568D01*
X5570Y2496D01*
X5580Y2472D01*
X5596Y2451D01*
X5617Y2435D01*
X5641Y2425D01*
X5655Y2423D01*
Y2510D01*
D02*
G37*
G36*
X3989D02*
X3902D01*
Y2423D01*
X3916Y2425D01*
X3940Y2435D01*
X3961Y2451D01*
X3977Y2472D01*
X3987Y2496D01*
X3989Y2510D01*
D02*
G37*
G36*
X3877D02*
X3790D01*
X3792Y2496D01*
X3802Y2472D01*
X3818Y2451D01*
X3839Y2435D01*
X3863Y2425D01*
X3877Y2423D01*
Y2510D01*
D02*
G37*
G36*
X1957D02*
X1870D01*
Y2423D01*
X1884Y2425D01*
X1908Y2435D01*
X1929Y2451D01*
X1945Y2472D01*
X1955Y2496D01*
X1957Y2510D01*
D02*
G37*
G36*
X1845D02*
X1758D01*
X1760Y2496D01*
X1770Y2472D01*
X1786Y2451D01*
X1807Y2435D01*
X1831Y2425D01*
X1845Y2423D01*
Y2510D01*
D02*
G37*
G36*
X5413Y2624D02*
X5387Y2620D01*
X5363Y2610D01*
X5342Y2594D01*
X5326Y2573D01*
X5316Y2549D01*
X5312Y2523D01*
X5316Y2496D01*
X5326Y2472D01*
X5342Y2451D01*
X5363Y2435D01*
X5387Y2425D01*
X5413Y2421D01*
X5440Y2425D01*
X5464Y2435D01*
X5485Y2451D01*
X5501Y2472D01*
X5511Y2496D01*
X5515Y2523D01*
X5511Y2549D01*
X5501Y2573D01*
X5485Y2594D01*
X5464Y2610D01*
X5440Y2620D01*
X5413Y2624D01*
D02*
G37*
G36*
X5159D02*
X5133Y2620D01*
X5109Y2610D01*
X5088Y2594D01*
X5072Y2573D01*
X5062Y2549D01*
X5058Y2523D01*
X5062Y2496D01*
X5072Y2472D01*
X5088Y2451D01*
X5109Y2435D01*
X5133Y2425D01*
X5159Y2421D01*
X5186Y2425D01*
X5210Y2435D01*
X5231Y2451D01*
X5247Y2472D01*
X5257Y2496D01*
X5261Y2523D01*
X5257Y2549D01*
X5247Y2573D01*
X5231Y2594D01*
X5210Y2610D01*
X5186Y2620D01*
X5159Y2624D01*
D02*
G37*
G36*
X4905D02*
X4879Y2620D01*
X4855Y2610D01*
X4834Y2594D01*
X4818Y2573D01*
X4808Y2549D01*
X4804Y2523D01*
X4808Y2496D01*
X4818Y2472D01*
X4834Y2451D01*
X4855Y2435D01*
X4879Y2425D01*
X4905Y2421D01*
X4932Y2425D01*
X4956Y2435D01*
X4977Y2451D01*
X4993Y2472D01*
X5003Y2496D01*
X5007Y2523D01*
X5003Y2549D01*
X4993Y2573D01*
X4977Y2594D01*
X4956Y2610D01*
X4932Y2620D01*
X4905Y2624D01*
D02*
G37*
G36*
X4651D02*
X4625Y2620D01*
X4601Y2610D01*
X4580Y2594D01*
X4564Y2573D01*
X4554Y2549D01*
X4550Y2523D01*
X4554Y2496D01*
X4564Y2472D01*
X4580Y2451D01*
X4601Y2435D01*
X4625Y2425D01*
X4651Y2421D01*
X4678Y2425D01*
X4702Y2435D01*
X4723Y2451D01*
X4739Y2472D01*
X4749Y2496D01*
X4753Y2523D01*
X4749Y2549D01*
X4739Y2573D01*
X4723Y2594D01*
X4702Y2610D01*
X4678Y2620D01*
X4651Y2624D01*
D02*
G37*
G36*
X4397D02*
X4371Y2620D01*
X4347Y2610D01*
X4326Y2594D01*
X4310Y2573D01*
X4300Y2549D01*
X4296Y2523D01*
X4300Y2496D01*
X4310Y2472D01*
X4326Y2451D01*
X4347Y2435D01*
X4371Y2425D01*
X4397Y2421D01*
X4424Y2425D01*
X4448Y2435D01*
X4469Y2451D01*
X4485Y2472D01*
X4495Y2496D01*
X4499Y2523D01*
X4495Y2549D01*
X4485Y2573D01*
X4469Y2594D01*
X4448Y2610D01*
X4424Y2620D01*
X4397Y2624D01*
D02*
G37*
G36*
X4143D02*
X4117Y2620D01*
X4093Y2610D01*
X4072Y2594D01*
X4056Y2573D01*
X4046Y2549D01*
X4042Y2523D01*
X4046Y2496D01*
X4056Y2472D01*
X4072Y2451D01*
X4093Y2435D01*
X4117Y2425D01*
X4143Y2421D01*
X4170Y2425D01*
X4194Y2435D01*
X4215Y2451D01*
X4231Y2472D01*
X4241Y2496D01*
X4245Y2523D01*
X4241Y2549D01*
X4231Y2573D01*
X4215Y2594D01*
X4194Y2610D01*
X4170Y2620D01*
X4143Y2624D01*
D02*
G37*
G36*
X3635D02*
X3609Y2620D01*
X3585Y2610D01*
X3564Y2594D01*
X3548Y2573D01*
X3538Y2549D01*
X3534Y2523D01*
X3538Y2496D01*
X3548Y2472D01*
X3564Y2451D01*
X3585Y2435D01*
X3609Y2425D01*
X3635Y2421D01*
X3662Y2425D01*
X3686Y2435D01*
X3707Y2451D01*
X3723Y2472D01*
X3733Y2496D01*
X3737Y2523D01*
X3733Y2549D01*
X3723Y2573D01*
X3707Y2594D01*
X3686Y2610D01*
X3662Y2620D01*
X3635Y2624D01*
D02*
G37*
G36*
X3381D02*
X3355Y2620D01*
X3331Y2610D01*
X3310Y2594D01*
X3294Y2573D01*
X3284Y2549D01*
X3280Y2523D01*
X3284Y2496D01*
X3294Y2472D01*
X3310Y2451D01*
X3331Y2435D01*
X3355Y2425D01*
X3381Y2421D01*
X3408Y2425D01*
X3432Y2435D01*
X3453Y2451D01*
X3469Y2472D01*
X3479Y2496D01*
X3483Y2523D01*
X3479Y2549D01*
X3469Y2573D01*
X3453Y2594D01*
X3432Y2610D01*
X3408Y2620D01*
X3381Y2624D01*
D02*
G37*
G36*
X3127D02*
X3101Y2620D01*
X3077Y2610D01*
X3056Y2594D01*
X3040Y2573D01*
X3030Y2549D01*
X3026Y2523D01*
X3030Y2496D01*
X3040Y2472D01*
X3056Y2451D01*
X3077Y2435D01*
X3101Y2425D01*
X3127Y2421D01*
X3154Y2425D01*
X3178Y2435D01*
X3199Y2451D01*
X3215Y2472D01*
X3225Y2496D01*
X3229Y2523D01*
X3225Y2549D01*
X3215Y2573D01*
X3199Y2594D01*
X3178Y2610D01*
X3154Y2620D01*
X3127Y2624D01*
D02*
G37*
G36*
X2873D02*
X2847Y2620D01*
X2823Y2610D01*
X2802Y2594D01*
X2786Y2573D01*
X2776Y2549D01*
X2772Y2523D01*
X2776Y2496D01*
X2786Y2472D01*
X2802Y2451D01*
X2823Y2435D01*
X2847Y2425D01*
X2873Y2421D01*
X2900Y2425D01*
X2924Y2435D01*
X2945Y2451D01*
X2961Y2472D01*
X2971Y2496D01*
X2975Y2523D01*
X2971Y2549D01*
X2961Y2573D01*
X2945Y2594D01*
X2924Y2610D01*
X2900Y2620D01*
X2873Y2624D01*
D02*
G37*
G36*
X2619D02*
X2593Y2620D01*
X2569Y2610D01*
X2548Y2594D01*
X2532Y2573D01*
X2522Y2549D01*
X2518Y2523D01*
X2522Y2496D01*
X2532Y2472D01*
X2548Y2451D01*
X2569Y2435D01*
X2593Y2425D01*
X2619Y2421D01*
X2646Y2425D01*
X2670Y2435D01*
X2691Y2451D01*
X2707Y2472D01*
X2717Y2496D01*
X2721Y2523D01*
X2717Y2549D01*
X2707Y2573D01*
X2691Y2594D01*
X2670Y2610D01*
X2646Y2620D01*
X2619Y2624D01*
D02*
G37*
G36*
X2365D02*
X2339Y2620D01*
X2315Y2610D01*
X2294Y2594D01*
X2278Y2573D01*
X2268Y2549D01*
X2264Y2523D01*
X2268Y2496D01*
X2278Y2472D01*
X2294Y2451D01*
X2315Y2435D01*
X2339Y2425D01*
X2365Y2421D01*
X2392Y2425D01*
X2416Y2435D01*
X2437Y2451D01*
X2453Y2472D01*
X2463Y2496D01*
X2467Y2523D01*
X2463Y2549D01*
X2453Y2573D01*
X2437Y2594D01*
X2416Y2610D01*
X2392Y2620D01*
X2365Y2624D01*
D02*
G37*
G36*
X2111D02*
X2085Y2620D01*
X2061Y2610D01*
X2040Y2594D01*
X2024Y2573D01*
X2014Y2549D01*
X2010Y2523D01*
X2014Y2496D01*
X2024Y2472D01*
X2040Y2451D01*
X2061Y2435D01*
X2085Y2425D01*
X2111Y2421D01*
X2138Y2425D01*
X2162Y2435D01*
X2183Y2451D01*
X2199Y2472D01*
X2209Y2496D01*
X2213Y2523D01*
X2209Y2549D01*
X2199Y2573D01*
X2183Y2594D01*
X2162Y2610D01*
X2138Y2620D01*
X2111Y2624D01*
D02*
G37*
G36*
X1603D02*
X1577Y2620D01*
X1553Y2610D01*
X1532Y2594D01*
X1516Y2573D01*
X1506Y2549D01*
X1502Y2523D01*
X1506Y2496D01*
X1516Y2472D01*
X1532Y2451D01*
X1553Y2435D01*
X1577Y2425D01*
X1603Y2421D01*
X1630Y2425D01*
X1654Y2435D01*
X1675Y2451D01*
X1691Y2472D01*
X1701Y2496D01*
X1705Y2523D01*
X1701Y2549D01*
X1691Y2573D01*
X1675Y2594D01*
X1654Y2610D01*
X1630Y2620D01*
X1603Y2624D01*
D02*
G37*
G36*
X1349D02*
X1323Y2620D01*
X1299Y2610D01*
X1278Y2594D01*
X1262Y2573D01*
X1252Y2549D01*
X1248Y2523D01*
X1252Y2496D01*
X1262Y2472D01*
X1278Y2451D01*
X1299Y2435D01*
X1323Y2425D01*
X1349Y2421D01*
X1376Y2425D01*
X1400Y2435D01*
X1421Y2451D01*
X1437Y2472D01*
X1447Y2496D01*
X1451Y2523D01*
X1447Y2549D01*
X1437Y2573D01*
X1421Y2594D01*
X1400Y2610D01*
X1376Y2620D01*
X1349Y2624D01*
D02*
G37*
G36*
X894Y2624D02*
X789D01*
X770Y2620D01*
X754Y2610D01*
X744Y2594D01*
X740Y2575D01*
Y2470D01*
X744Y2451D01*
X754Y2435D01*
X770Y2425D01*
X789Y2421D01*
X894D01*
X913Y2425D01*
X929Y2435D01*
X939Y2451D01*
X943Y2470D01*
Y2575D01*
X939Y2594D01*
X929Y2610D01*
X913Y2620D01*
X894Y2624D01*
D02*
G37*
G36*
X1095Y2624D02*
X1069Y2620D01*
X1045Y2610D01*
X1024Y2594D01*
X1008Y2573D01*
X998Y2549D01*
X994Y2523D01*
X998Y2496D01*
X1008Y2472D01*
X1024Y2451D01*
X1040Y2439D01*
X1045Y2435D01*
X1070Y2420D01*
X1070Y2406D01*
D01*
X1071Y2386D01*
X1066Y2385D01*
X1050Y2375D01*
X1040Y2359D01*
X1036Y2340D01*
X1040Y2321D01*
X1050Y2305D01*
X1066Y2295D01*
X1085Y2291D01*
X1101Y2290D01*
X1121Y2258D01*
X1120Y2256D01*
X1116Y2238D01*
X1120Y2219D01*
X1130Y2203D01*
X1146Y2192D01*
X1165Y2189D01*
X1184Y2192D01*
X1200Y2203D01*
X1210Y2219D01*
X1214Y2238D01*
X1210Y2256D01*
X1207Y2261D01*
X1217Y2282D01*
X1226Y2297D01*
X1241Y2300D01*
X1257Y2311D01*
X1268Y2326D01*
X1271Y2345D01*
X1268Y2364D01*
X1257Y2380D01*
X1241Y2390D01*
X1223Y2394D01*
X1204Y2390D01*
X1188Y2380D01*
X1177Y2364D01*
X1177Y2363D01*
X1139Y2359D01*
X1120Y2375D01*
X1107Y2383D01*
X1105Y2384D01*
X1105Y2388D01*
X1109Y2401D01*
D01*
X1115Y2424D01*
X1122Y2425D01*
X1146Y2435D01*
X1167Y2451D01*
X1183Y2472D01*
X1193Y2496D01*
X1197Y2523D01*
X1193Y2549D01*
X1183Y2573D01*
X1167Y2594D01*
X1146Y2610D01*
X1122Y2620D01*
X1095Y2624D01*
D02*
G37*
G36*
X1738Y2374D02*
X1719Y2370D01*
X1703Y2360D01*
X1684Y2338D01*
X1665Y2341D01*
X1646Y2338D01*
X1630Y2327D01*
X1620Y2311D01*
X1616Y2292D01*
X1620Y2274D01*
X1630Y2258D01*
X1646Y2247D01*
X1665Y2244D01*
X1684Y2247D01*
X1700Y2258D01*
X1719Y2280D01*
X1738Y2276D01*
X1756Y2280D01*
X1772Y2290D01*
X1783Y2306D01*
X1786Y2325D01*
X1783Y2344D01*
X1772Y2360D01*
X1756Y2370D01*
X1738Y2374D01*
D02*
G37*
G36*
X5445Y2369D02*
Y2335D01*
X5479D01*
X5478Y2341D01*
X5467Y2357D01*
X5451Y2368D01*
X5445Y2369D01*
D02*
G37*
G36*
X5420D02*
X5414Y2368D01*
X5398Y2357D01*
X5387Y2341D01*
X5386Y2335D01*
X5420D01*
Y2369D01*
D02*
G37*
G36*
X228Y2359D02*
Y2325D01*
X261D01*
X260Y2331D01*
X250Y2347D01*
X234Y2358D01*
X228Y2359D01*
D02*
G37*
G36*
X202D02*
X196Y2358D01*
X180Y2347D01*
X170Y2331D01*
X169Y2325D01*
X202D01*
Y2359D01*
D02*
G37*
G36*
X3342Y2384D02*
X3324Y2380D01*
X3308Y2370D01*
X3297Y2354D01*
X3294Y2335D01*
X3297Y2316D01*
X3308Y2300D01*
X3324Y2290D01*
X3342Y2286D01*
X3361Y2290D01*
X3377Y2300D01*
X3388Y2316D01*
X3391Y2335D01*
X3388Y2354D01*
X3377Y2370D01*
X3361Y2380D01*
X3342Y2384D01*
D02*
G37*
G36*
X5167Y2384D02*
X5149Y2380D01*
X5133Y2370D01*
X5122Y2354D01*
X5117Y2334D01*
X5096Y2323D01*
X5080Y2312D01*
X5070Y2296D01*
X5066Y2277D01*
X5070Y2259D01*
X5080Y2243D01*
X5096Y2232D01*
X5115Y2229D01*
X5134Y2232D01*
X5150Y2243D01*
X5160Y2259D01*
X5165Y2278D01*
X5186Y2290D01*
X5202Y2300D01*
X5204Y2304D01*
X5211Y2306D01*
X5245Y2304D01*
X5247Y2304D01*
X5250Y2298D01*
X5266Y2287D01*
X5285Y2284D01*
X5304Y2287D01*
X5320Y2298D01*
X5330Y2314D01*
X5334Y2333D01*
X5330Y2351D01*
X5320Y2367D01*
X5304Y2378D01*
X5285Y2381D01*
X5266Y2378D01*
X5250Y2367D01*
X5248Y2364D01*
X5242Y2362D01*
X5208Y2363D01*
X5206Y2364D01*
X5202Y2370D01*
X5186Y2380D01*
X5167Y2384D01*
D02*
G37*
G36*
X5479Y2310D02*
X5445D01*
Y2276D01*
X5451Y2277D01*
X5467Y2288D01*
X5478Y2304D01*
X5479Y2310D01*
D02*
G37*
G36*
X5420D02*
X5386D01*
X5387Y2304D01*
X5398Y2288D01*
X5414Y2277D01*
X5420Y2276D01*
Y2310D01*
D02*
G37*
G36*
X261Y2300D02*
X228D01*
Y2266D01*
X234Y2267D01*
X250Y2278D01*
X260Y2294D01*
X261Y2300D01*
D02*
G37*
G36*
X202D02*
X169D01*
X170Y2294D01*
X180Y2278D01*
X196Y2267D01*
X202Y2266D01*
Y2300D01*
D02*
G37*
G36*
X397Y2360D02*
X379Y2356D01*
X363Y2346D01*
X352Y2330D01*
X349Y2311D01*
X352Y2293D01*
X363Y2277D01*
X379Y2266D01*
X397Y2262D01*
X416Y2266D01*
X432Y2277D01*
X443Y2293D01*
X446Y2311D01*
X443Y2330D01*
X432Y2346D01*
X416Y2356D01*
X397Y2360D01*
D02*
G37*
G36*
X6245Y2289D02*
Y2255D01*
X6279D01*
X6278Y2261D01*
X6267Y2277D01*
X6251Y2288D01*
X6245Y2289D01*
D02*
G37*
G36*
X6220D02*
X6214Y2288D01*
X6198Y2277D01*
X6187Y2261D01*
X6186Y2255D01*
X6220D01*
Y2289D01*
D02*
G37*
G36*
X2888Y2286D02*
Y2253D01*
X2921D01*
X2920Y2259D01*
X2910Y2275D01*
X2894Y2285D01*
X2888Y2286D01*
D02*
G37*
G36*
X2862D02*
X2856Y2285D01*
X2840Y2275D01*
X2830Y2259D01*
X2829Y2253D01*
X2862D01*
Y2286D01*
D02*
G37*
G36*
X2040Y2279D02*
Y2245D01*
X2074D01*
X2073Y2251D01*
X2062Y2267D01*
X2046Y2278D01*
X2040Y2279D01*
D02*
G37*
G36*
X2015D02*
X2009Y2278D01*
X1993Y2267D01*
X1982Y2251D01*
X1981Y2245D01*
X2015D01*
Y2279D01*
D02*
G37*
G36*
X848Y2371D02*
X829Y2368D01*
X813Y2357D01*
X802Y2341D01*
X799Y2323D01*
X802Y2304D01*
X813Y2288D01*
X829Y2277D01*
X848Y2274D01*
X857Y2276D01*
X886Y2256D01*
X891Y2250D01*
X895Y2231D01*
X905Y2215D01*
X921Y2205D01*
X940Y2201D01*
X959Y2205D01*
X975Y2215D01*
X985Y2231D01*
X989Y2250D01*
X985Y2269D01*
X975Y2285D01*
X959Y2295D01*
X940Y2299D01*
X930Y2297D01*
X902Y2316D01*
X896Y2323D01*
X893Y2341D01*
X882Y2357D01*
X866Y2368D01*
X848Y2371D01*
D02*
G37*
G36*
X3098Y2296D02*
X3079Y2293D01*
X3063Y2282D01*
X3052Y2266D01*
X3049Y2248D01*
X3052Y2229D01*
X3063Y2213D01*
X3079Y2202D01*
X3098Y2199D01*
X3116Y2202D01*
X3132Y2213D01*
X3143Y2229D01*
X3146Y2248D01*
X3143Y2266D01*
X3132Y2282D01*
X3116Y2293D01*
X3098Y2296D01*
D02*
G37*
G36*
X6279Y2230D02*
X6245D01*
Y2196D01*
X6251Y2197D01*
X6267Y2208D01*
X6278Y2224D01*
X6279Y2230D01*
D02*
G37*
G36*
X6220D02*
X6186D01*
X6187Y2224D01*
X6198Y2208D01*
X6214Y2197D01*
X6220Y2196D01*
Y2230D01*
D02*
G37*
G36*
X2921Y2227D02*
X2888D01*
Y2194D01*
X2894Y2195D01*
X2910Y2205D01*
X2920Y2221D01*
X2921Y2227D01*
D02*
G37*
G36*
X2862D02*
X2829D01*
X2830Y2221D01*
X2840Y2205D01*
X2856Y2195D01*
X2862Y2194D01*
Y2227D01*
D02*
G37*
G36*
X2074Y2220D02*
X2040D01*
Y2186D01*
X2046Y2187D01*
X2062Y2198D01*
X2073Y2214D01*
X2074Y2220D01*
D02*
G37*
G36*
X2015D02*
X1981D01*
X1982Y2214D01*
X1993Y2198D01*
X2009Y2187D01*
X2015Y2186D01*
Y2220D01*
D02*
G37*
G36*
X4103Y2159D02*
Y2125D01*
X4136D01*
X4135Y2131D01*
X4125Y2147D01*
X4109Y2158D01*
X4103Y2159D01*
D02*
G37*
G36*
X4077D02*
X4071Y2158D01*
X4055Y2147D01*
X4045Y2131D01*
X4044Y2125D01*
X4077D01*
Y2159D01*
D02*
G37*
G36*
X4547Y2141D02*
X4528Y2138D01*
X4512Y2127D01*
X4497Y2115D01*
X4481Y2125D01*
X4481Y2125D01*
X4462Y2129D01*
X4443Y2125D01*
X4427Y2115D01*
X4417Y2099D01*
X4413Y2080D01*
X4417Y2061D01*
X4427Y2046D01*
X4443Y2035D01*
X4462Y2031D01*
X4481Y2035D01*
X4496Y2046D01*
X4512Y2058D01*
X4528Y2047D01*
X4528Y2047D01*
X4547Y2044D01*
X4566Y2047D01*
X4581Y2058D01*
X4592Y2074D01*
X4596Y2093D01*
X4592Y2111D01*
X4581Y2127D01*
X4566Y2138D01*
X4547Y2141D01*
D02*
G37*
G36*
X838Y2126D02*
X819Y2123D01*
X803Y2112D01*
X784Y2120D01*
X765Y2124D01*
X746Y2120D01*
X730Y2110D01*
X720Y2094D01*
X716Y2075D01*
X720Y2056D01*
X730Y2040D01*
X746Y2030D01*
X765Y2026D01*
X784Y2030D01*
X800Y2040D01*
X819Y2032D01*
X838Y2029D01*
X856Y2032D01*
X872Y2043D01*
X883Y2059D01*
X886Y2077D01*
X883Y2096D01*
X872Y2112D01*
X856Y2123D01*
X838Y2126D01*
D02*
G37*
G36*
X3017Y2111D02*
X3017Y2111D01*
X2999Y2108D01*
X2985Y2098D01*
X2983Y2097D01*
X2943Y2095D01*
X2939Y2096D01*
X2926Y2105D01*
X2908Y2109D01*
X2889Y2105D01*
X2873Y2095D01*
X2862Y2079D01*
X2859Y2060D01*
X2862Y2041D01*
X2873Y2025D01*
X2889Y2015D01*
X2907Y2011D01*
X2908Y2011D01*
X2908Y2011D01*
X2926Y2015D01*
X2940Y2024D01*
X2942Y2025D01*
X2982Y2028D01*
X2986Y2026D01*
X2999Y2017D01*
X3017Y2014D01*
X3036Y2017D01*
X3037Y2018D01*
X3062Y2022D01*
X3085Y2009D01*
X3085Y2008D01*
X3101Y1997D01*
X3120Y1994D01*
X3139Y1997D01*
X3155Y2008D01*
X3165Y2024D01*
X3169Y2042D01*
X3165Y2061D01*
X3155Y2077D01*
X3139Y2088D01*
X3120Y2091D01*
X3101Y2088D01*
X3100Y2087D01*
X3075Y2083D01*
X3053Y2096D01*
X3052Y2097D01*
X3036Y2108D01*
X3018Y2111D01*
X3017Y2111D01*
D02*
G37*
G36*
X4136Y2100D02*
X4103D01*
Y2066D01*
X4109Y2067D01*
X4125Y2078D01*
X4135Y2094D01*
X4136Y2100D01*
D02*
G37*
G36*
X4077D02*
X4044D01*
X4045Y2094D01*
X4055Y2078D01*
X4071Y2067D01*
X4077Y2066D01*
Y2100D01*
D02*
G37*
G36*
X5515Y2149D02*
X5496Y2145D01*
X5480Y2135D01*
X5470Y2119D01*
X5466Y2100D01*
X5470Y2081D01*
X5480Y2065D01*
X5496Y2055D01*
X5515Y2051D01*
X5534Y2055D01*
X5550Y2065D01*
X5560Y2081D01*
X5564Y2100D01*
X5560Y2119D01*
X5550Y2135D01*
X5534Y2145D01*
X5515Y2149D01*
D02*
G37*
G36*
X5788Y2136D02*
X5769Y2133D01*
X5753Y2122D01*
X5742Y2106D01*
X5739Y2088D01*
X5742Y2069D01*
X5753Y2053D01*
X5769Y2042D01*
X5788Y2039D01*
X5806Y2042D01*
X5822Y2053D01*
X5833Y2069D01*
X5836Y2088D01*
X5833Y2106D01*
X5822Y2122D01*
X5806Y2133D01*
X5788Y2136D01*
D02*
G37*
G36*
X3495Y2096D02*
X3476Y2093D01*
X3460Y2082D01*
X3450Y2066D01*
X3446Y2048D01*
X3450Y2029D01*
X3460Y2013D01*
X3476Y2002D01*
X3495Y1999D01*
X3514Y2002D01*
X3530Y2013D01*
X3540Y2029D01*
X3544Y2048D01*
X3540Y2066D01*
X3530Y2082D01*
X3514Y2093D01*
X3495Y2096D01*
D02*
G37*
G36*
X2698Y2187D02*
X2679Y2183D01*
X2664Y2173D01*
X2653Y2157D01*
X2649Y2138D01*
X2653Y2119D01*
X2664Y2104D01*
Y2072D01*
X2653Y2056D01*
X2649Y2038D01*
X2653Y2019D01*
X2664Y2003D01*
X2679Y1992D01*
X2698Y1989D01*
X2717Y1992D01*
X2733Y2003D01*
X2743Y2019D01*
X2747Y2038D01*
X2743Y2056D01*
X2733Y2072D01*
Y2104D01*
X2743Y2119D01*
X2747Y2138D01*
X2743Y2157D01*
X2733Y2173D01*
X2717Y2183D01*
X2698Y2187D01*
D02*
G37*
G36*
X3600Y2236D02*
X3581Y2233D01*
X3565Y2222D01*
X3555Y2206D01*
X3551Y2188D01*
X3555Y2169D01*
X3565Y2153D01*
X3581Y2142D01*
X3600Y2139D01*
X3610Y2141D01*
X3630Y2125D01*
X3630Y2124D01*
X3639Y2110D01*
X3636Y2098D01*
X3640Y2079D01*
X3650Y2063D01*
Y2048D01*
X3640Y2032D01*
X3636Y2013D01*
X3640Y1994D01*
X3650Y1979D01*
X3666Y1968D01*
X3685Y1964D01*
X3704Y1968D01*
X3720Y1979D01*
X3730Y1994D01*
X3734Y2013D01*
X3730Y2032D01*
X3720Y2048D01*
Y2063D01*
X3730Y2079D01*
X3734Y2098D01*
X3730Y2116D01*
X3720Y2132D01*
X3704Y2143D01*
X3685Y2146D01*
X3675Y2144D01*
X3655Y2160D01*
X3655Y2161D01*
X3646Y2175D01*
X3649Y2188D01*
X3645Y2206D01*
X3635Y2222D01*
X3619Y2233D01*
X3600Y2236D01*
D02*
G37*
G36*
X2135Y2014D02*
X2116Y2010D01*
X2100Y2000D01*
X2090Y1984D01*
X2086Y1965D01*
X2090Y1946D01*
X2100Y1930D01*
X2116Y1920D01*
X2135Y1916D01*
X2154Y1920D01*
X2170Y1930D01*
X2180Y1946D01*
X2184Y1965D01*
X2180Y1984D01*
X2170Y2000D01*
X2154Y2010D01*
X2135Y2014D01*
D02*
G37*
G36*
X1725Y2156D02*
X1706Y2153D01*
X1690Y2142D01*
X1680Y2126D01*
X1676Y2108D01*
X1680Y2089D01*
X1690Y2073D01*
X1717Y2054D01*
X1714Y2035D01*
X1717Y2016D01*
X1690Y1997D01*
X1680Y1981D01*
X1676Y1962D01*
X1680Y1944D01*
X1690Y1928D01*
X1706Y1917D01*
X1725Y1914D01*
X1744Y1917D01*
X1760Y1928D01*
X1770Y1944D01*
X1774Y1962D01*
X1770Y1981D01*
X1797Y2000D01*
X1808Y2016D01*
X1811Y2035D01*
X1808Y2054D01*
X1797Y2070D01*
X1770Y2089D01*
X1774Y2108D01*
X1770Y2126D01*
X1760Y2142D01*
X1744Y2153D01*
X1725Y2156D01*
D02*
G37*
G36*
X1078Y1911D02*
Y1878D01*
X1111D01*
X1110Y1884D01*
X1100Y1900D01*
X1084Y1910D01*
X1078Y1911D01*
D02*
G37*
G36*
X1052D02*
X1046Y1910D01*
X1030Y1900D01*
X1020Y1884D01*
X1019Y1878D01*
X1052D01*
Y1911D01*
D02*
G37*
G36*
X5130Y1891D02*
X5111Y1888D01*
X5110Y1887D01*
X5077Y1867D01*
X5061Y1878D01*
X5042Y1881D01*
X5024Y1878D01*
X5008Y1867D01*
X4989Y1852D01*
X4967Y1853D01*
X4949Y1850D01*
X4933Y1839D01*
X4922Y1823D01*
X4919Y1804D01*
X4922Y1786D01*
X4933Y1770D01*
X4949Y1759D01*
X4967Y1756D01*
X4986Y1759D01*
X5002Y1770D01*
X5021Y1785D01*
X5042Y1784D01*
X5061Y1787D01*
X5077Y1798D01*
X5095Y1808D01*
X5111Y1797D01*
X5130Y1794D01*
X5149Y1797D01*
X5165Y1808D01*
X5175Y1824D01*
X5179Y1842D01*
X5175Y1861D01*
X5165Y1877D01*
X5149Y1888D01*
X5130Y1891D01*
D02*
G37*
G36*
X1930Y1957D02*
X1911Y1953D01*
X1895Y1942D01*
X1885Y1927D01*
X1881Y1908D01*
X1885Y1889D01*
X1895Y1873D01*
X1911Y1863D01*
X1930Y1859D01*
X1948Y1863D01*
X1964Y1873D01*
X1975Y1889D01*
X1979Y1908D01*
X1975Y1927D01*
X1964Y1942D01*
X1948Y1953D01*
X1930Y1957D01*
D02*
G37*
G36*
X1111Y1852D02*
X1078D01*
Y1819D01*
X1084Y1820D01*
X1100Y1830D01*
X1110Y1846D01*
X1111Y1852D01*
D02*
G37*
G36*
X1052D02*
X1019D01*
X1020Y1846D01*
X1030Y1830D01*
X1046Y1820D01*
X1052Y1819D01*
Y1852D01*
D02*
G37*
G36*
X5288Y1889D02*
X5269Y1885D01*
X5253Y1875D01*
X5242Y1859D01*
X5239Y1840D01*
X5242Y1821D01*
X5253Y1805D01*
X5269Y1795D01*
X5288Y1791D01*
X5306Y1795D01*
X5321Y1805D01*
X5325Y1798D01*
X5341Y1787D01*
X5360Y1784D01*
X5379Y1787D01*
X5395Y1798D01*
X5405Y1814D01*
X5409Y1833D01*
X5405Y1851D01*
X5395Y1867D01*
X5379Y1878D01*
X5360Y1881D01*
X5341Y1878D01*
X5327Y1868D01*
X5322Y1875D01*
X5306Y1885D01*
X5288Y1889D01*
D02*
G37*
G36*
X5775Y1879D02*
X5756Y1875D01*
X5740Y1865D01*
X5730Y1849D01*
X5726Y1830D01*
X5730Y1811D01*
X5740Y1795D01*
X5756Y1785D01*
X5775Y1781D01*
X5794Y1785D01*
X5810Y1795D01*
X5820Y1811D01*
X5824Y1830D01*
X5820Y1849D01*
X5810Y1865D01*
X5794Y1875D01*
X5775Y1879D01*
D02*
G37*
G36*
X1100Y1784D02*
X1094Y1783D01*
X1078Y1772D01*
X1067Y1756D01*
X1066Y1750D01*
X1100D01*
Y1784D01*
D02*
G37*
G36*
X1240Y1781D02*
Y1748D01*
X1274D01*
X1273Y1754D01*
X1262Y1770D01*
X1246Y1780D01*
X1240Y1781D01*
D02*
G37*
G36*
X1183Y1784D02*
Y1738D01*
X1157D01*
Y1784D01*
X1151Y1783D01*
X1141Y1776D01*
X1131Y1783D01*
X1125Y1784D01*
Y1738D01*
X1112D01*
Y1725D01*
X1066D01*
X1067Y1719D01*
X1075Y1708D01*
X1067Y1696D01*
X1066Y1690D01*
X1112D01*
Y1677D01*
X1125D01*
Y1631D01*
X1131Y1632D01*
X1147Y1643D01*
X1158Y1659D01*
X1161Y1677D01*
X1189Y1692D01*
X1197Y1698D01*
X1209Y1690D01*
X1215Y1689D01*
Y1735D01*
Y1781D01*
X1209Y1780D01*
X1201Y1775D01*
X1189Y1783D01*
X1183Y1784D01*
D02*
G37*
G36*
X4383Y1791D02*
X4364Y1788D01*
X4348Y1777D01*
X4337Y1761D01*
X4334Y1742D01*
X4336Y1729D01*
X4321Y1712D01*
X4307Y1701D01*
X4292Y1704D01*
X4274Y1700D01*
X4258Y1690D01*
X4247Y1674D01*
X4244Y1655D01*
X4245Y1648D01*
X4240Y1628D01*
X4220Y1608D01*
X4216Y1608D01*
X4200Y1597D01*
X4190Y1581D01*
X4186Y1562D01*
X4190Y1544D01*
X4200Y1528D01*
X4216Y1517D01*
X4235Y1514D01*
X4254Y1517D01*
X4270Y1528D01*
X4276Y1538D01*
X4309Y1545D01*
X4317Y1546D01*
X4333Y1535D01*
X4352Y1531D01*
X4371Y1535D01*
X4386Y1546D01*
X4397Y1561D01*
X4400Y1575D01*
X4400Y1578D01*
X4402Y1583D01*
X4414Y1607D01*
X4430Y1615D01*
X4431Y1615D01*
X4447Y1625D01*
X4458Y1641D01*
X4461Y1660D01*
X4458Y1679D01*
X4449Y1692D01*
X4447Y1695D01*
X4447Y1695D01*
X4431Y1705D01*
X4431Y1742D01*
X4428Y1761D01*
X4417Y1777D01*
X4401Y1788D01*
X4383Y1791D01*
D02*
G37*
G36*
X1274Y1722D02*
X1240D01*
Y1689D01*
X1246Y1690D01*
X1262Y1700D01*
X1273Y1716D01*
X1274Y1722D01*
D02*
G37*
G36*
X1100Y1665D02*
X1066D01*
X1067Y1659D01*
X1078Y1643D01*
X1094Y1632D01*
X1100Y1631D01*
Y1665D01*
D02*
G37*
G36*
X1525Y1664D02*
Y1630D01*
X1559D01*
X1558Y1636D01*
X1547Y1652D01*
X1531Y1663D01*
X1525Y1664D01*
D02*
G37*
G36*
X1500D02*
X1494Y1663D01*
X1478Y1652D01*
X1467Y1636D01*
X1466Y1630D01*
X1500D01*
Y1664D01*
D02*
G37*
G36*
X4713Y1639D02*
Y1605D01*
X4746D01*
X4745Y1611D01*
X4735Y1627D01*
X4719Y1638D01*
X4713Y1639D01*
D02*
G37*
G36*
X4687D02*
X4681Y1638D01*
X4665Y1627D01*
X4655Y1611D01*
X4654Y1605D01*
X4687D01*
Y1639D01*
D02*
G37*
G36*
X3518Y1614D02*
Y1580D01*
X3551D01*
X3550Y1586D01*
X3540Y1602D01*
X3524Y1613D01*
X3518Y1614D01*
D02*
G37*
G36*
X3270Y1614D02*
X3264Y1613D01*
X3248Y1602D01*
X3237Y1586D01*
X3236Y1580D01*
X3270D01*
Y1614D01*
D02*
G37*
G36*
X1559Y1605D02*
X1466D01*
X1467Y1599D01*
X1474Y1589D01*
X1467Y1579D01*
X1466Y1573D01*
X1559D01*
X1558Y1579D01*
X1551Y1589D01*
X1558Y1599D01*
X1559Y1605D01*
D02*
G37*
G36*
X3042Y1666D02*
X3024Y1663D01*
X3008Y1652D01*
X2997Y1636D01*
X2994Y1617D01*
X2997Y1599D01*
X3008Y1583D01*
X3024Y1572D01*
X3042Y1569D01*
X3061Y1572D01*
X3077Y1583D01*
X3088Y1599D01*
X3091Y1617D01*
X3088Y1636D01*
X3077Y1652D01*
X3061Y1663D01*
X3042Y1666D01*
D02*
G37*
G36*
X2597D02*
X2578Y1663D01*
X2562Y1652D01*
X2552Y1636D01*
X2548Y1617D01*
X2552Y1599D01*
X2562Y1583D01*
X2578Y1572D01*
X2597Y1569D01*
X2616Y1572D01*
X2631Y1583D01*
X2642Y1599D01*
X2646Y1617D01*
X2642Y1636D01*
X2631Y1652D01*
X2616Y1663D01*
X2597Y1666D01*
D02*
G37*
G36*
X3365Y1614D02*
Y1568D01*
X3340D01*
Y1614D01*
X3334Y1613D01*
X3318Y1602D01*
X3317D01*
X3301Y1613D01*
X3295Y1614D01*
Y1568D01*
X3283D01*
Y1555D01*
X3236D01*
X3237Y1549D01*
X3246Y1536D01*
X3249Y1513D01*
X3249Y1498D01*
X3245Y1490D01*
X3240Y1483D01*
X3239Y1477D01*
X3285D01*
Y1464D01*
X3298D01*
Y1418D01*
X3304Y1419D01*
X3319Y1429D01*
X3334Y1419D01*
X3340Y1418D01*
Y1464D01*
X3365D01*
Y1418D01*
X3371Y1419D01*
X3387Y1430D01*
X3400D01*
X3416Y1419D01*
X3422Y1418D01*
Y1464D01*
X3448D01*
Y1418D01*
X3454Y1419D01*
X3470Y1430D01*
X3470D01*
X3486Y1419D01*
X3492Y1418D01*
Y1464D01*
X3505D01*
Y1477D01*
X3551D01*
X3550Y1483D01*
X3541Y1497D01*
X3540Y1516D01*
X3541Y1535D01*
X3550Y1549D01*
X3551Y1555D01*
X3505D01*
Y1568D01*
X3492D01*
Y1614D01*
X3486Y1613D01*
X3470Y1602D01*
X3470D01*
X3454Y1613D01*
X3448Y1614D01*
Y1568D01*
X3422D01*
Y1614D01*
X3416Y1613D01*
X3394Y1604D01*
X3371Y1613D01*
X3365Y1614D01*
D02*
G37*
G36*
X4746Y1580D02*
X4713D01*
Y1546D01*
X4719Y1547D01*
X4735Y1558D01*
X4745Y1574D01*
X4746Y1580D01*
D02*
G37*
G36*
X4687D02*
X4654D01*
X4655Y1574D01*
X4665Y1558D01*
X4681Y1547D01*
X4687Y1546D01*
Y1580D01*
D02*
G37*
G36*
X5772Y1639D02*
X5754Y1635D01*
X5738Y1625D01*
X5727Y1609D01*
X5724Y1590D01*
X5727Y1571D01*
X5738Y1555D01*
X5754Y1545D01*
X5772Y1541D01*
X5791Y1545D01*
X5807Y1555D01*
X5818Y1571D01*
X5821Y1590D01*
X5818Y1609D01*
X5807Y1625D01*
X5791Y1635D01*
X5772Y1639D01*
D02*
G37*
G36*
X1559Y1547D02*
X1525D01*
Y1514D01*
X1531Y1515D01*
X1547Y1525D01*
X1558Y1541D01*
X1559Y1547D01*
D02*
G37*
G36*
X1500D02*
X1466D01*
X1467Y1541D01*
X1478Y1525D01*
X1494Y1515D01*
X1500Y1514D01*
Y1547D01*
D02*
G37*
G36*
X3551Y1452D02*
X3518D01*
Y1418D01*
X3524Y1419D01*
X3540Y1430D01*
X3550Y1446D01*
X3551Y1452D01*
D02*
G37*
G36*
X3272D02*
X3239D01*
X3240Y1446D01*
X3250Y1430D01*
X3266Y1419D01*
X3272Y1418D01*
Y1452D01*
D02*
G37*
G36*
X778Y1849D02*
X759Y1845D01*
X743Y1835D01*
X732Y1819D01*
X729Y1800D01*
X732Y1781D01*
X718Y1757D01*
X707Y1741D01*
X704Y1723D01*
X707Y1704D01*
X718Y1688D01*
X734Y1677D01*
X741Y1676D01*
X745Y1675D01*
X754Y1643D01*
X754Y1638D01*
X751Y1636D01*
X745Y1632D01*
X735Y1616D01*
X731Y1598D01*
X735Y1579D01*
X745Y1563D01*
X755Y1557D01*
X761Y1552D01*
X762Y1551D01*
Y1511D01*
X761Y1510D01*
X756Y1507D01*
X745Y1500D01*
X735Y1484D01*
X731Y1465D01*
X735Y1446D01*
X745Y1430D01*
X761Y1420D01*
X780Y1416D01*
X799Y1420D01*
X815Y1430D01*
X825Y1446D01*
X829Y1465D01*
X825Y1484D01*
X815Y1500D01*
X805Y1506D01*
X799Y1510D01*
X798Y1511D01*
Y1551D01*
X799Y1552D01*
X804Y1556D01*
X815Y1563D01*
X825Y1579D01*
X829Y1598D01*
X825Y1616D01*
X815Y1632D01*
X799Y1643D01*
X792Y1644D01*
X788Y1645D01*
X779Y1677D01*
X779Y1682D01*
X782Y1684D01*
X787Y1688D01*
X798Y1704D01*
X801Y1723D01*
X798Y1741D01*
X812Y1765D01*
X823Y1781D01*
X826Y1800D01*
X823Y1819D01*
X812Y1835D01*
X796Y1845D01*
X778Y1849D01*
D02*
G37*
G36*
X5870Y1449D02*
Y1415D01*
X5904D01*
X5903Y1421D01*
X5892Y1437D01*
X5876Y1448D01*
X5870Y1449D01*
D02*
G37*
G36*
X5845D02*
X5839Y1448D01*
X5823Y1437D01*
X5812Y1421D01*
X5811Y1415D01*
X5845D01*
Y1449D01*
D02*
G37*
G36*
X5630Y1484D02*
X5611Y1480D01*
X5595Y1470D01*
X5585Y1454D01*
X5581Y1435D01*
X5585Y1416D01*
X5595Y1400D01*
X5611Y1390D01*
X5630Y1386D01*
X5649Y1390D01*
X5665Y1400D01*
X5675Y1416D01*
X5679Y1435D01*
X5675Y1454D01*
X5665Y1470D01*
X5649Y1480D01*
X5630Y1484D01*
D02*
G37*
G36*
X4205Y1408D02*
X4199Y1407D01*
X4183Y1396D01*
X4172Y1381D01*
X4171Y1375D01*
X4205D01*
Y1408D01*
D02*
G37*
G36*
X5904Y1390D02*
X5870D01*
Y1356D01*
X5876Y1357D01*
X5892Y1368D01*
X5903Y1384D01*
X5904Y1390D01*
D02*
G37*
G36*
X5845D02*
X5811D01*
X5812Y1384D01*
X5823Y1368D01*
X5839Y1357D01*
X5845Y1356D01*
Y1390D01*
D02*
G37*
G36*
X3785Y1361D02*
X3766Y1357D01*
X3750Y1346D01*
X3743Y1335D01*
X3729Y1345D01*
X3710Y1349D01*
X3691Y1345D01*
X3675Y1335D01*
X3665Y1319D01*
X3661Y1300D01*
X3665Y1281D01*
X3675Y1265D01*
X3691Y1255D01*
X3710Y1251D01*
X3729Y1255D01*
X3745Y1265D01*
X3752Y1276D01*
X3766Y1267D01*
X3785Y1263D01*
X3804Y1267D01*
X3820Y1277D01*
X3830Y1293D01*
X3834Y1312D01*
X3830Y1331D01*
X3820Y1346D01*
X3804Y1357D01*
X3785Y1361D01*
D02*
G37*
G36*
X1433Y1366D02*
X1414Y1363D01*
X1398Y1352D01*
X1388Y1336D01*
X1384Y1318D01*
X1388Y1299D01*
X1398Y1283D01*
X1414Y1272D01*
X1433Y1269D01*
X1451Y1272D01*
X1467Y1283D01*
X1478Y1299D01*
X1482Y1318D01*
X1478Y1336D01*
X1467Y1352D01*
X1451Y1363D01*
X1433Y1366D01*
D02*
G37*
G36*
X1808Y1861D02*
X1789Y1858D01*
X1773Y1847D01*
X1762Y1831D01*
X1753Y1813D01*
X1734Y1809D01*
X1719Y1798D01*
X1708Y1782D01*
X1704Y1764D01*
X1708Y1745D01*
X1719Y1729D01*
X1734Y1719D01*
X1749Y1716D01*
X1754Y1715D01*
X1774Y1705D01*
X1787Y1689D01*
X1789Y1686D01*
X1798Y1673D01*
X1814Y1662D01*
X1833Y1659D01*
X1839Y1660D01*
X1856Y1644D01*
X1865Y1632D01*
X1867Y1630D01*
X1864Y1615D01*
X1867Y1596D01*
X1878Y1580D01*
X1894Y1570D01*
X1909Y1567D01*
X1915Y1553D01*
X1919Y1529D01*
X1915Y1527D01*
X1905Y1511D01*
X1901Y1493D01*
X1901Y1492D01*
X1899Y1481D01*
X1880Y1478D01*
X1864Y1467D01*
X1854Y1451D01*
X1850Y1432D01*
X1854Y1414D01*
X1864Y1398D01*
X1880Y1387D01*
X1899Y1384D01*
X1918Y1387D01*
X1934Y1398D01*
X1972Y1389D01*
X1982Y1374D01*
X1992Y1367D01*
X1998Y1362D01*
X2010Y1328D01*
X2010Y1328D01*
X2009Y1322D01*
X2006Y1309D01*
X2010Y1291D01*
X2020Y1275D01*
X2036Y1264D01*
X2055Y1261D01*
X2074Y1264D01*
X2090Y1275D01*
X2100Y1291D01*
X2104Y1309D01*
X2100Y1328D01*
X2090Y1344D01*
X2080Y1350D01*
X2073Y1356D01*
X2062Y1389D01*
X2062Y1389D01*
X2063Y1395D01*
X2017D01*
Y1421D01*
X2063D01*
X2062Y1427D01*
X2051Y1443D01*
X2035Y1453D01*
X2027Y1455D01*
X2014Y1463D01*
X1999Y1492D01*
X1999Y1493D01*
X1995Y1511D01*
X1991Y1518D01*
X2002Y1525D01*
X2013Y1541D01*
X2016Y1560D01*
X2013Y1579D01*
X2002Y1595D01*
X1986Y1605D01*
X1967Y1609D01*
X1961Y1615D01*
X1958Y1634D01*
X1947Y1650D01*
X1950Y1677D01*
X1961Y1693D01*
X1965Y1712D01*
X1961Y1730D01*
X1950Y1746D01*
X1935Y1757D01*
X1916Y1760D01*
X1897Y1757D01*
X1884Y1750D01*
X1868Y1760D01*
X1853Y1794D01*
X1856Y1813D01*
X1853Y1831D01*
X1842Y1847D01*
X1826Y1858D01*
X1808Y1861D01*
D02*
G37*
G36*
X4230Y1408D02*
Y1362D01*
X4217D01*
Y1349D01*
X4171D01*
X4172Y1343D01*
X4183Y1327D01*
X4199Y1317D01*
X4217Y1313D01*
X4236Y1293D01*
X4239Y1274D01*
X4250Y1258D01*
X4266Y1248D01*
X4285Y1244D01*
X4303Y1248D01*
X4319Y1258D01*
X4330Y1274D01*
X4333Y1293D01*
X4330Y1312D01*
X4319Y1327D01*
X4303Y1338D01*
X4285Y1342D01*
X4266Y1362D01*
X4263Y1381D01*
X4252Y1396D01*
X4236Y1407D01*
X4230Y1408D01*
D02*
G37*
G36*
X4572Y1334D02*
X4554Y1330D01*
X4538Y1320D01*
X4527Y1304D01*
X4524Y1285D01*
X4527Y1266D01*
X4538Y1250D01*
X4554Y1240D01*
X4572Y1236D01*
X4591Y1240D01*
X4607Y1250D01*
X4618Y1266D01*
X4621Y1285D01*
X4618Y1304D01*
X4607Y1320D01*
X4591Y1330D01*
X4572Y1334D01*
D02*
G37*
G36*
X1905Y1256D02*
X1886Y1253D01*
X1870Y1242D01*
X1852Y1236D01*
X1836Y1246D01*
X1836Y1246D01*
X1831Y1247D01*
X1817Y1250D01*
X1799Y1246D01*
X1783Y1236D01*
X1772Y1220D01*
X1769Y1201D01*
X1772Y1182D01*
X1783Y1166D01*
X1799Y1156D01*
X1817Y1152D01*
X1836Y1156D01*
X1852Y1166D01*
X1870Y1173D01*
X1886Y1162D01*
X1886Y1162D01*
X1891Y1161D01*
X1905Y1159D01*
X1924Y1162D01*
X1940Y1173D01*
X1950Y1189D01*
X1954Y1207D01*
X1950Y1226D01*
X1940Y1242D01*
X1924Y1253D01*
X1905Y1256D01*
D02*
G37*
G36*
X2208Y1331D02*
X2189Y1328D01*
X2173Y1317D01*
X2162Y1301D01*
X2159Y1282D01*
X2162Y1264D01*
X2173Y1248D01*
X2189Y1237D01*
X2208Y1234D01*
X2226Y1237D01*
X2242Y1248D01*
X2253Y1264D01*
X2256Y1282D01*
X2253Y1301D01*
X2242Y1317D01*
X2226Y1328D01*
X2208Y1331D01*
D02*
G37*
G36*
X860Y1276D02*
X841Y1273D01*
X825Y1262D01*
X815Y1246D01*
X811Y1227D01*
X815Y1209D01*
X825Y1193D01*
X841Y1182D01*
X860Y1179D01*
X879Y1182D01*
X895Y1193D01*
X905Y1209D01*
X909Y1227D01*
X905Y1246D01*
X895Y1262D01*
X879Y1273D01*
X860Y1276D01*
D02*
G37*
G36*
X5855Y1269D02*
X5836Y1265D01*
X5820Y1255D01*
X5810Y1239D01*
X5806Y1220D01*
X5810Y1201D01*
X5820Y1185D01*
X5836Y1175D01*
X5855Y1171D01*
X5874Y1175D01*
X5890Y1185D01*
X5900Y1201D01*
X5904Y1220D01*
X5900Y1239D01*
X5890Y1255D01*
X5874Y1265D01*
X5855Y1269D01*
D02*
G37*
G36*
X3565Y1264D02*
X3546Y1260D01*
X3530Y1250D01*
X3520Y1234D01*
X3516Y1215D01*
X3520Y1196D01*
X3530Y1180D01*
X3546Y1170D01*
X3565Y1166D01*
X3584Y1170D01*
X3600Y1180D01*
X3610Y1196D01*
X3614Y1215D01*
X3610Y1234D01*
X3600Y1250D01*
X3584Y1260D01*
X3565Y1264D01*
D02*
G37*
G36*
X2498Y1209D02*
X2479Y1205D01*
X2463Y1195D01*
X2452Y1179D01*
X2449Y1160D01*
X2452Y1141D01*
X2463Y1125D01*
X2479Y1115D01*
X2498Y1111D01*
X2516Y1115D01*
X2532Y1125D01*
X2543Y1141D01*
X2546Y1160D01*
X2543Y1179D01*
X2532Y1195D01*
X2516Y1205D01*
X2498Y1209D01*
D02*
G37*
G36*
X2862Y1204D02*
X2844Y1200D01*
X2828Y1190D01*
X2817Y1174D01*
X2814Y1155D01*
X2817Y1136D01*
X2828Y1120D01*
X2844Y1110D01*
X2862Y1106D01*
X2881Y1110D01*
X2897Y1120D01*
X2908Y1136D01*
X2911Y1155D01*
X2908Y1174D01*
X2897Y1190D01*
X2881Y1200D01*
X2862Y1204D01*
D02*
G37*
G36*
X603Y1201D02*
X584Y1198D01*
X568Y1187D01*
X557Y1171D01*
X554Y1152D01*
X557Y1134D01*
X568Y1118D01*
X584Y1107D01*
X603Y1104D01*
X621Y1107D01*
X637Y1118D01*
X648Y1134D01*
X651Y1152D01*
X648Y1171D01*
X637Y1187D01*
X621Y1198D01*
X603Y1201D01*
D02*
G37*
G36*
X2330Y1134D02*
Y1100D01*
X2364D01*
X2363Y1106D01*
X2352Y1122D01*
X2336Y1133D01*
X2330Y1134D01*
D02*
G37*
G36*
X3265Y1196D02*
X3246Y1193D01*
X3230Y1182D01*
X3220Y1166D01*
X3216Y1148D01*
X3220Y1129D01*
X3230Y1113D01*
X3246Y1102D01*
X3265Y1099D01*
X3284Y1102D01*
X3300Y1113D01*
X3310Y1129D01*
X3314Y1148D01*
X3310Y1166D01*
X3300Y1182D01*
X3284Y1193D01*
X3265Y1196D01*
D02*
G37*
G36*
X993Y1399D02*
X974Y1395D01*
X958Y1385D01*
X947Y1369D01*
X944Y1350D01*
X947Y1331D01*
X958Y1315D01*
X974Y1305D01*
X993Y1301D01*
X1009Y1304D01*
X1010Y1299D01*
X1020Y1283D01*
X1036Y1272D01*
X1064Y1252D01*
X1067Y1234D01*
X1078Y1218D01*
X1094Y1207D01*
X1112Y1204D01*
X1131Y1207D01*
X1134Y1209D01*
X1169Y1187D01*
X1168Y1185D01*
X1172Y1167D01*
X1183Y1151D01*
X1199Y1140D01*
X1216Y1137D01*
X1217Y1136D01*
X1238Y1131D01*
X1255Y1115D01*
X1258Y1112D01*
X1267Y1099D01*
X1283Y1088D01*
X1301Y1084D01*
X1320Y1088D01*
X1336Y1099D01*
X1341Y1106D01*
X1351Y1115D01*
X1384Y1120D01*
X1384D01*
X1386Y1119D01*
X1402Y1116D01*
X1404Y1115D01*
X1407Y1096D01*
X1418Y1080D01*
X1434Y1070D01*
X1452Y1066D01*
X1471Y1070D01*
X1487Y1080D01*
X1498Y1096D01*
X1501Y1115D01*
X1500Y1121D01*
X1532Y1145D01*
X1559Y1135D01*
X1560Y1127D01*
X1571Y1111D01*
X1587Y1100D01*
X1605Y1096D01*
X1624Y1100D01*
X1640Y1111D01*
X1650Y1127D01*
X1654Y1145D01*
X1650Y1164D01*
X1640Y1180D01*
X1624Y1190D01*
X1606Y1194D01*
X1602Y1212D01*
X1592Y1228D01*
X1576Y1238D01*
X1557Y1242D01*
X1539Y1238D01*
X1523Y1228D01*
X1512Y1212D01*
X1508Y1193D01*
X1511Y1182D01*
X1480Y1160D01*
X1474Y1162D01*
X1450Y1172D01*
X1448Y1184D01*
X1437Y1200D01*
X1421Y1210D01*
X1402Y1214D01*
X1384Y1210D01*
X1368Y1200D01*
X1363Y1192D01*
X1353Y1183D01*
X1346Y1182D01*
X1329Y1181D01*
X1326Y1181D01*
X1304Y1182D01*
X1296Y1185D01*
X1298Y1184D01*
X1297Y1184D01*
X1295Y1185D01*
X1296Y1185D01*
X1289Y1189D01*
X1278Y1195D01*
X1265Y1204D01*
X1263Y1207D01*
X1262Y1213D01*
X1261Y1242D01*
X1263Y1244D01*
X1266Y1262D01*
X1263Y1281D01*
X1252Y1297D01*
X1265Y1324D01*
X1269Y1343D01*
X1265Y1361D01*
X1255Y1377D01*
X1239Y1388D01*
X1220Y1391D01*
X1201Y1388D01*
X1185Y1377D01*
X1175Y1361D01*
X1171Y1343D01*
X1175Y1324D01*
X1167Y1312D01*
X1156Y1308D01*
X1124Y1303D01*
X1104Y1318D01*
X1100Y1336D01*
X1090Y1352D01*
X1074Y1363D01*
X1055Y1366D01*
X1039Y1363D01*
X1038Y1369D01*
X1027Y1385D01*
X1011Y1395D01*
X993Y1399D01*
D02*
G37*
G36*
X2364Y1075D02*
X2330D01*
Y1041D01*
X2336Y1042D01*
X2352Y1053D01*
X2363Y1069D01*
X2364Y1075D01*
D02*
G37*
G36*
X2213Y1139D02*
X2194Y1135D01*
X2178Y1125D01*
X2167Y1109D01*
X2164Y1090D01*
X2167Y1071D01*
X2178Y1055D01*
X2194Y1045D01*
X2213Y1041D01*
X2231Y1045D01*
X2240Y1051D01*
X2248Y1055D01*
X2283Y1053D01*
X2283Y1053D01*
X2289Y1049D01*
X2299Y1042D01*
X2305Y1041D01*
Y1088D01*
Y1134D01*
X2299Y1133D01*
X2290Y1127D01*
X2282Y1122D01*
X2247Y1125D01*
X2247Y1125D01*
X2241Y1128D01*
X2231Y1135D01*
X2213Y1139D01*
D02*
G37*
G36*
X4325Y1131D02*
X4306Y1128D01*
X4290Y1117D01*
X4280Y1101D01*
X4276Y1082D01*
X4280Y1064D01*
X4290Y1048D01*
X4306Y1037D01*
X4325Y1034D01*
X4344Y1037D01*
X4360Y1048D01*
X4370Y1064D01*
X4374Y1082D01*
X4370Y1101D01*
X4360Y1117D01*
X4344Y1128D01*
X4325Y1131D01*
D02*
G37*
G36*
X5870Y1064D02*
Y1030D01*
X5904D01*
X5903Y1036D01*
X5892Y1052D01*
X5876Y1063D01*
X5870Y1064D01*
D02*
G37*
G36*
X5845D02*
X5839Y1063D01*
X5823Y1052D01*
X5812Y1036D01*
X5811Y1030D01*
X5845D01*
Y1064D01*
D02*
G37*
G36*
X177Y1121D02*
X159Y1118D01*
X143Y1107D01*
X132Y1091D01*
X129Y1073D01*
X132Y1054D01*
X143Y1038D01*
X159Y1027D01*
X177Y1024D01*
X196Y1027D01*
X212Y1038D01*
X223Y1054D01*
X226Y1073D01*
X223Y1091D01*
X212Y1107D01*
X196Y1118D01*
X177Y1121D01*
D02*
G37*
G36*
X4983Y1026D02*
Y993D01*
X5016D01*
X5015Y999D01*
X5005Y1015D01*
X4989Y1025D01*
X4983Y1026D01*
D02*
G37*
G36*
X4957D02*
X4951Y1025D01*
X4935Y1015D01*
X4925Y999D01*
X4924Y993D01*
X4957D01*
Y1026D01*
D02*
G37*
G36*
X5904Y1005D02*
X5870D01*
Y971D01*
X5876Y972D01*
X5892Y983D01*
X5903Y999D01*
X5904Y1005D01*
D02*
G37*
G36*
X5845D02*
X5811D01*
X5812Y999D01*
X5823Y983D01*
X5839Y972D01*
X5845Y971D01*
Y1005D01*
D02*
G37*
G36*
X5016Y967D02*
X4983D01*
Y934D01*
X4989Y935D01*
X5005Y945D01*
X5015Y961D01*
X5016Y967D01*
D02*
G37*
G36*
X4957D02*
X4924D01*
X4925Y961D01*
X4935Y945D01*
X4951Y935D01*
X4957Y934D01*
Y967D01*
D02*
G37*
G36*
X2233Y964D02*
X2214Y960D01*
X2198Y950D01*
X2187Y934D01*
X2184Y915D01*
X2187Y896D01*
X2198Y880D01*
X2214Y870D01*
X2233Y866D01*
X2251Y870D01*
X2267Y880D01*
X2278Y896D01*
X2281Y915D01*
X2278Y934D01*
X2267Y950D01*
X2251Y960D01*
X2233Y964D01*
D02*
G37*
G36*
X3715Y961D02*
X3696Y958D01*
X3680Y947D01*
X3670Y931D01*
X3666Y912D01*
X3670Y894D01*
X3680Y878D01*
X3696Y867D01*
X3715Y864D01*
X3734Y867D01*
X3750Y878D01*
X3760Y894D01*
X3764Y912D01*
X3760Y931D01*
X3750Y947D01*
X3734Y958D01*
X3715Y961D01*
D02*
G37*
G36*
X1522Y871D02*
X1516Y870D01*
X1502Y861D01*
X1489Y870D01*
X1483Y871D01*
Y825D01*
X1457D01*
Y871D01*
X1451Y870D01*
X1438Y861D01*
X1424Y870D01*
X1418Y871D01*
Y825D01*
X1405D01*
Y812D01*
X1359D01*
X1360Y806D01*
X1367Y796D01*
X1360Y786D01*
X1359Y780D01*
X1405D01*
Y755D01*
X1359D01*
X1360Y749D01*
X1367Y739D01*
X1360Y729D01*
X1359Y723D01*
X1405D01*
Y710D01*
X1418D01*
Y664D01*
X1424Y665D01*
X1438Y674D01*
X1451Y665D01*
X1457Y664D01*
Y710D01*
X1483D01*
Y664D01*
X1489Y665D01*
X1502Y674D01*
X1516Y665D01*
X1522Y664D01*
Y710D01*
X1535D01*
Y723D01*
X1581D01*
X1580Y729D01*
X1573Y739D01*
X1580Y749D01*
X1581Y755D01*
X1535D01*
Y780D01*
X1581D01*
X1580Y786D01*
X1573Y796D01*
X1580Y806D01*
X1581Y812D01*
X1535D01*
Y825D01*
X1522D01*
Y871D01*
D02*
G37*
G36*
X430Y874D02*
Y840D01*
X464D01*
X463Y846D01*
X452Y862D01*
X436Y873D01*
X430Y874D01*
D02*
G37*
G36*
X405D02*
X399Y873D01*
X383Y862D01*
X372Y846D01*
X371Y840D01*
X405D01*
Y874D01*
D02*
G37*
G36*
X1548Y871D02*
Y838D01*
X1581D01*
X1580Y844D01*
X1570Y860D01*
X1554Y870D01*
X1548Y871D01*
D02*
G37*
G36*
X1392D02*
X1386Y870D01*
X1370Y860D01*
X1360Y844D01*
X1359Y838D01*
X1392D01*
Y871D01*
D02*
G37*
G36*
X2030Y849D02*
X2011Y845D01*
X1995Y835D01*
X1985Y819D01*
X1981Y800D01*
X1985Y781D01*
X1995Y765D01*
X2011Y755D01*
X2030Y751D01*
X2049Y755D01*
X2065Y765D01*
X2075Y781D01*
X2079Y800D01*
X2075Y819D01*
X2065Y835D01*
X2049Y845D01*
X2030Y849D01*
D02*
G37*
G36*
X464Y815D02*
X371D01*
X372Y809D01*
X380Y782D01*
X372Y756D01*
X371Y750D01*
X464D01*
X463Y756D01*
X455Y782D01*
X463Y809D01*
X464Y815D01*
D02*
G37*
G36*
X2640Y814D02*
X2621Y810D01*
X2605Y800D01*
X2595Y784D01*
X2591Y765D01*
X2595Y746D01*
X2605Y730D01*
X2621Y720D01*
X2640Y716D01*
X2659Y720D01*
X2675Y730D01*
X2685Y746D01*
X2689Y765D01*
X2685Y784D01*
X2675Y800D01*
X2659Y810D01*
X2640Y814D01*
D02*
G37*
G36*
X2505D02*
X2486Y810D01*
X2470Y800D01*
X2460Y784D01*
X2456Y765D01*
X2460Y746D01*
X2470Y730D01*
X2486Y720D01*
X2505Y716D01*
X2524Y720D01*
X2540Y730D01*
X2550Y746D01*
X2554Y765D01*
X2550Y784D01*
X2540Y800D01*
X2524Y810D01*
X2505Y814D01*
D02*
G37*
G36*
X1815Y799D02*
X1796Y795D01*
X1780Y785D01*
X1770Y769D01*
X1766Y750D01*
X1770Y731D01*
X1780Y715D01*
X1796Y705D01*
X1815Y701D01*
X1834Y705D01*
X1850Y715D01*
X1860Y731D01*
X1864Y750D01*
X1860Y769D01*
X1850Y785D01*
X1834Y795D01*
X1815Y799D01*
D02*
G37*
G36*
X464Y725D02*
X430D01*
Y691D01*
X436Y692D01*
X452Y703D01*
X463Y719D01*
X464Y725D01*
D02*
G37*
G36*
X405D02*
X371D01*
X372Y719D01*
X383Y703D01*
X399Y692D01*
X405Y691D01*
Y725D01*
D02*
G37*
G36*
X1392Y697D02*
X1359D01*
X1360Y691D01*
X1370Y675D01*
X1386Y665D01*
X1392Y664D01*
Y697D01*
D02*
G37*
G36*
X1581Y697D02*
X1548D01*
Y664D01*
X1554Y665D01*
X1570Y675D01*
X1580Y691D01*
X1581Y697D01*
D02*
G37*
G36*
X5492Y706D02*
X5474Y703D01*
X5458Y692D01*
X5447Y676D01*
X5444Y657D01*
X5447Y639D01*
X5458Y623D01*
X5474Y612D01*
X5492Y609D01*
X5511Y612D01*
X5527Y623D01*
X5538Y639D01*
X5541Y657D01*
X5538Y676D01*
X5527Y692D01*
X5511Y703D01*
X5492Y706D01*
D02*
G37*
G36*
X2802Y681D02*
X2784Y678D01*
X2768Y667D01*
X2757Y651D01*
X2754Y632D01*
X2757Y614D01*
X2768Y598D01*
X2784Y587D01*
X2802Y584D01*
X2821Y587D01*
X2837Y598D01*
X2848Y614D01*
X2851Y632D01*
X2848Y651D01*
X2837Y667D01*
X2821Y678D01*
X2802Y681D01*
D02*
G37*
G36*
X3218Y586D02*
Y553D01*
X3251D01*
X3250Y559D01*
X3240Y575D01*
X3224Y585D01*
X3218Y586D01*
D02*
G37*
G36*
X3192D02*
X3186Y585D01*
X3170Y575D01*
X3160Y559D01*
X3159Y553D01*
X3192D01*
Y586D01*
D02*
G37*
G36*
X1095Y1101D02*
X1076Y1098D01*
X1060Y1087D01*
X1050Y1071D01*
X1046Y1052D01*
X1050Y1034D01*
X1060Y1018D01*
X1076Y1007D01*
X1076Y1007D01*
X1074Y967D01*
X1071Y965D01*
X1068Y963D01*
X1055Y955D01*
X1045Y939D01*
X1041Y920D01*
X1044Y904D01*
X1045Y901D01*
X1048Y879D01*
X1038Y857D01*
X1037Y856D01*
X1035Y853D01*
X1027Y841D01*
X1024Y823D01*
X1027Y804D01*
X1038Y788D01*
X1054Y777D01*
X1073Y774D01*
X1081Y775D01*
X1089Y768D01*
X1092Y749D01*
X1100Y737D01*
X1104Y723D01*
X1108Y700D01*
X1102Y690D01*
X1100Y686D01*
X1096Y668D01*
X1100Y649D01*
X1090Y622D01*
X1080Y606D01*
X1076Y588D01*
X1080Y569D01*
X1090Y553D01*
X1106Y542D01*
X1125Y539D01*
X1144Y542D01*
X1160Y553D01*
X1170Y569D01*
X1174Y588D01*
X1170Y606D01*
X1180Y633D01*
X1190Y649D01*
X1194Y668D01*
X1190Y686D01*
X1179Y713D01*
X1179Y719D01*
X1183Y749D01*
X1186Y768D01*
X1183Y786D01*
X1172Y802D01*
X1156Y813D01*
X1138Y816D01*
X1117Y849D01*
X1115Y864D01*
X1124Y885D01*
X1126Y887D01*
X1127Y889D01*
X1135Y901D01*
X1139Y920D01*
X1135Y939D01*
X1125Y955D01*
X1109Y965D01*
X1109Y965D01*
X1111Y1005D01*
X1114Y1007D01*
X1117Y1010D01*
X1130Y1018D01*
X1140Y1034D01*
X1144Y1052D01*
X1140Y1071D01*
X1130Y1087D01*
X1114Y1098D01*
X1095Y1101D01*
D02*
G37*
G36*
X1810Y619D02*
X1791Y615D01*
X1775Y605D01*
X1765Y589D01*
X1761Y570D01*
X1765Y551D01*
X1775Y535D01*
X1791Y525D01*
X1810Y521D01*
X1829Y525D01*
X1845Y535D01*
X1855Y551D01*
X1859Y570D01*
X1855Y589D01*
X1845Y605D01*
X1829Y615D01*
X1810Y619D01*
D02*
G37*
G36*
X3251Y527D02*
X3218D01*
Y494D01*
X3224Y495D01*
X3240Y505D01*
X3250Y521D01*
X3251Y527D01*
D02*
G37*
G36*
X3192D02*
X3159D01*
X3160Y521D01*
X3170Y505D01*
X3186Y495D01*
X3192Y494D01*
Y527D01*
D02*
G37*
G36*
X3753Y446D02*
Y413D01*
X3786D01*
X3785Y419D01*
X3775Y435D01*
X3759Y445D01*
X3753Y446D01*
D02*
G37*
G36*
X3727D02*
X3721Y445D01*
X3705Y435D01*
X3695Y419D01*
X3694Y413D01*
X3727D01*
Y446D01*
D02*
G37*
G36*
X1670Y499D02*
X1651Y495D01*
X1635Y485D01*
X1625Y469D01*
X1621Y450D01*
X1625Y431D01*
X1635Y415D01*
X1651Y405D01*
X1670Y401D01*
X1689Y405D01*
X1705Y415D01*
X1715Y431D01*
X1719Y450D01*
X1715Y469D01*
X1705Y485D01*
X1689Y495D01*
X1670Y499D01*
D02*
G37*
G36*
X1504Y495D02*
X1485Y492D01*
X1469Y481D01*
X1459Y465D01*
X1455Y446D01*
X1459Y428D01*
X1469Y412D01*
X1485Y401D01*
X1504Y398D01*
X1523Y401D01*
X1538Y412D01*
X1549Y428D01*
X1553Y446D01*
X1549Y465D01*
X1538Y481D01*
X1523Y492D01*
X1504Y495D01*
D02*
G37*
G36*
X3453Y454D02*
X3434Y450D01*
X3418Y440D01*
X3407Y424D01*
X3404Y405D01*
X3407Y386D01*
X3418Y370D01*
X3434Y360D01*
X3453Y356D01*
X3471Y360D01*
X3487Y370D01*
X3498Y386D01*
X3501Y405D01*
X3498Y424D01*
X3487Y440D01*
X3471Y450D01*
X3453Y454D01*
D02*
G37*
G36*
X3786Y387D02*
X3753D01*
Y354D01*
X3759Y355D01*
X3775Y365D01*
X3785Y381D01*
X3786Y387D01*
D02*
G37*
G36*
X3727D02*
X3694D01*
X3695Y381D01*
X3705Y365D01*
X3721Y355D01*
X3727Y354D01*
Y387D01*
D02*
G37*
G36*
X4593Y535D02*
X4566Y532D01*
X4542Y522D01*
X4521Y506D01*
X4505Y485D01*
X4495Y460D01*
X4491Y434D01*
X4495Y408D01*
X4505Y383D01*
X4521Y362D01*
X4542Y346D01*
X4566Y336D01*
X4593Y333D01*
X4619Y336D01*
X4643Y346D01*
X4664Y362D01*
X4680Y383D01*
X4690Y408D01*
X4694Y434D01*
X4690Y460D01*
X4680Y485D01*
X4664Y506D01*
X4643Y522D01*
X4619Y532D01*
X4593Y535D01*
D02*
G37*
G36*
X4145Y533D02*
X4119Y529D01*
X4094Y519D01*
X4073Y503D01*
X4057Y482D01*
X4047Y458D01*
X4044Y432D01*
X4047Y405D01*
X4057Y381D01*
X4073Y360D01*
X4094Y344D01*
X4119Y334D01*
X4145Y330D01*
X4171Y334D01*
X4196Y344D01*
X4217Y360D01*
X4233Y381D01*
X4243Y405D01*
X4246Y432D01*
X4243Y458D01*
X4233Y482D01*
X4217Y503D01*
X4196Y519D01*
X4171Y529D01*
X4145Y533D01*
D02*
G37*
G36*
X1365Y411D02*
X1346Y408D01*
X1330Y397D01*
X1320Y381D01*
X1316Y362D01*
X1320Y344D01*
X1330Y328D01*
X1346Y317D01*
X1365Y314D01*
X1384Y317D01*
X1400Y328D01*
X1410Y344D01*
X1414Y362D01*
X1410Y381D01*
X1400Y397D01*
X1384Y408D01*
X1365Y411D01*
D02*
G37*
G36*
X4693Y280D02*
X4605D01*
Y193D01*
X4693D01*
Y280D01*
D02*
G37*
G36*
X4580D02*
X4492D01*
Y193D01*
X4580D01*
Y280D01*
D02*
G37*
G36*
X6150Y516D02*
X6118Y513D01*
X6086Y504D01*
X6058Y488D01*
X6032Y468D01*
X6012Y442D01*
X5996Y414D01*
X5987Y382D01*
X5984Y350D01*
X5987Y318D01*
X5996Y286D01*
X6012Y258D01*
X6032Y232D01*
X6058Y212D01*
X6086Y196D01*
X6118Y187D01*
X6150Y184D01*
X6182Y187D01*
X6214Y196D01*
X6242Y212D01*
X6268Y232D01*
X6288Y258D01*
X6304Y286D01*
X6313Y318D01*
X6316Y350D01*
X6313Y382D01*
X6304Y414D01*
X6288Y442D01*
X6268Y468D01*
X6242Y488D01*
X6214Y504D01*
X6182Y513D01*
X6150Y516D01*
D02*
G37*
G36*
X350D02*
X318Y513D01*
X286Y504D01*
X258Y488D01*
X232Y468D01*
X212Y442D01*
X196Y414D01*
X187Y382D01*
X184Y350D01*
X187Y318D01*
X196Y286D01*
X212Y258D01*
X232Y232D01*
X258Y212D01*
X286Y196D01*
X318Y187D01*
X350Y184D01*
X382Y187D01*
X414Y196D01*
X442Y212D01*
X468Y232D01*
X488Y258D01*
X504Y286D01*
X513Y318D01*
X516Y350D01*
X513Y382D01*
X504Y414D01*
X488Y442D01*
X468Y468D01*
X442Y488D01*
X414Y504D01*
X382Y513D01*
X350Y516D01*
D02*
G37*
G36*
X808Y124D02*
Y90D01*
X841D01*
X840Y96D01*
X830Y112D01*
X814Y123D01*
X808Y124D01*
D02*
G37*
G36*
X782D02*
X776Y123D01*
X760Y112D01*
X750Y96D01*
X749Y90D01*
X782D01*
Y124D01*
D02*
G37*
G36*
X4693Y167D02*
X4605D01*
Y80D01*
X4693D01*
Y167D01*
D02*
G37*
G36*
X4580D02*
X4492D01*
Y80D01*
X4580D01*
Y167D01*
D02*
G37*
G36*
X4245Y278D02*
X4045D01*
Y77D01*
X4245D01*
Y278D01*
D02*
G37*
%LPD*%
D12*
X1665Y2292D02*
X1666D01*
D106*
X4397Y2777D02*
D03*
X4905D02*
D03*
X5667Y2523D02*
D03*
X1857D02*
D03*
X3889D02*
D03*
X3127Y2777D02*
D03*
X1349D02*
D03*
X2365D02*
D03*
D108*
X4593Y180D02*
D03*
D109*
X1405Y710D02*
D03*
X1470Y825D02*
D03*
X1470Y710D02*
D03*
X2875Y2240D02*
D03*
X3505Y1568D02*
D03*
X3435D02*
D03*
X3353D02*
D03*
X3285Y1464D02*
D03*
X3353D02*
D03*
X3435D02*
D03*
X3505D02*
D03*
X4217Y1362D02*
D03*
X3283Y1568D02*
D03*
X2017Y1408D02*
D03*
X2027Y2233D02*
D03*
X1512Y1617D02*
D03*
X1535Y710D02*
D03*
Y768D02*
D03*
X1405Y768D02*
D03*
X1535Y825D02*
D03*
X1405D02*
D03*
X1512Y1560D02*
D03*
X1227Y1735D02*
D03*
X418Y827D02*
D03*
Y738D02*
D03*
X1112Y1677D02*
D03*
X1065Y1865D02*
D03*
X1170Y1738D02*
D03*
X1112Y1738D02*
D03*
X3205Y540D02*
D03*
X3740Y400D02*
D03*
X5433Y2323D02*
D03*
X6233Y2242D02*
D03*
X2317Y1088D02*
D03*
X4700Y1593D02*
D03*
X4090Y2112D02*
D03*
X5858Y1402D02*
D03*
Y1018D02*
D03*
X4970Y980D02*
D03*
X215Y2312D02*
D03*
X795Y77D02*
D03*
X1665Y2292D02*
D03*
M02*
