G04*
G04 #@! TF.GenerationSoftware,Altium Limited,Altium Designer,20.2.5 (213)*
G04*
G04 Layer_Color=32896*
%FSLAX42Y42*%
%MOMM*%
G71*
G04*
G04 #@! TF.SameCoordinates,0AE3A023-6BB7-4A84-8F3F-E2DF2112AB30*
G04*
G04*
G04 #@! TF.FilePolarity,Positive*
G04*
G01*
G75*
%ADD12C,0.25*%
%ADD13C,0.20*%
%ADD14C,0.15*%
%ADD16C,0.10*%
%ADD17C,0.12*%
%ADD18C,0.13*%
%ADD22C,0.18*%
%ADD23C,0.14*%
G36*
X2266Y584D02*
X2267D01*
Y583D01*
Y582D01*
Y581D01*
Y580D01*
Y579D01*
Y578D01*
Y577D01*
Y576D01*
Y574D01*
Y573D01*
Y572D01*
Y571D01*
Y570D01*
Y569D01*
Y568D01*
Y567D01*
Y566D01*
Y564D01*
Y563D01*
Y562D01*
Y561D01*
Y560D01*
Y559D01*
Y558D01*
Y557D01*
Y556D01*
Y555D01*
Y553D01*
Y552D01*
Y551D01*
Y550D01*
Y549D01*
Y548D01*
Y547D01*
Y546D01*
Y545D01*
Y543D01*
Y542D01*
Y541D01*
Y540D01*
Y539D01*
Y538D01*
Y537D01*
Y536D01*
Y535D01*
Y534D01*
Y532D01*
Y531D01*
Y530D01*
Y529D01*
Y528D01*
Y527D01*
Y526D01*
Y525D01*
Y524D01*
Y522D01*
Y521D01*
Y520D01*
Y519D01*
Y518D01*
Y517D01*
Y516D01*
Y515D01*
Y514D01*
Y513D01*
Y511D01*
Y510D01*
Y509D01*
Y508D01*
Y507D01*
Y506D01*
Y505D01*
Y504D01*
Y503D01*
Y501D01*
Y500D01*
Y499D01*
Y498D01*
Y497D01*
Y496D01*
Y495D01*
Y494D01*
Y493D01*
Y492D01*
Y490D01*
Y489D01*
Y488D01*
Y487D01*
Y486D01*
Y485D01*
Y484D01*
Y483D01*
Y482D01*
Y480D01*
Y479D01*
Y478D01*
Y477D01*
Y476D01*
Y475D01*
Y474D01*
Y473D01*
Y472D01*
Y470D01*
Y469D01*
Y468D01*
Y467D01*
Y466D01*
Y465D01*
Y464D01*
Y463D01*
Y462D01*
Y461D01*
Y459D01*
Y458D01*
Y457D01*
Y456D01*
Y455D01*
Y454D01*
Y453D01*
Y452D01*
Y451D01*
Y449D01*
Y448D01*
Y447D01*
Y446D01*
Y445D01*
Y444D01*
Y443D01*
Y442D01*
Y441D01*
Y440D01*
Y438D01*
Y437D01*
Y436D01*
Y435D01*
Y434D01*
Y433D01*
Y432D01*
Y431D01*
Y430D01*
Y428D01*
Y427D01*
Y426D01*
Y425D01*
Y424D01*
Y423D01*
Y422D01*
Y421D01*
Y420D01*
Y419D01*
Y417D01*
Y416D01*
Y415D01*
Y414D01*
Y413D01*
Y412D01*
Y411D01*
Y410D01*
Y409D01*
X2245D01*
Y410D01*
Y411D01*
Y412D01*
Y413D01*
Y414D01*
Y415D01*
Y416D01*
Y417D01*
Y419D01*
Y420D01*
Y421D01*
Y422D01*
Y423D01*
Y424D01*
Y425D01*
Y426D01*
Y427D01*
Y428D01*
Y430D01*
Y431D01*
Y432D01*
Y433D01*
Y434D01*
Y435D01*
Y436D01*
Y437D01*
Y438D01*
Y440D01*
Y441D01*
Y442D01*
Y443D01*
Y444D01*
Y445D01*
Y446D01*
Y447D01*
Y448D01*
Y449D01*
Y451D01*
Y452D01*
Y453D01*
Y454D01*
Y455D01*
Y456D01*
Y457D01*
Y458D01*
Y459D01*
Y461D01*
Y462D01*
Y463D01*
Y464D01*
Y465D01*
Y466D01*
Y467D01*
Y468D01*
Y469D01*
Y470D01*
Y472D01*
Y473D01*
Y474D01*
Y475D01*
Y476D01*
Y477D01*
Y478D01*
Y479D01*
Y480D01*
Y482D01*
Y483D01*
Y484D01*
Y485D01*
Y486D01*
Y487D01*
Y488D01*
Y489D01*
Y490D01*
Y492D01*
Y493D01*
Y494D01*
X2176D01*
Y493D01*
Y492D01*
Y490D01*
Y489D01*
Y488D01*
Y487D01*
Y486D01*
Y485D01*
Y484D01*
Y483D01*
Y482D01*
Y480D01*
Y479D01*
Y478D01*
Y477D01*
Y476D01*
Y475D01*
Y474D01*
Y473D01*
Y472D01*
Y470D01*
Y469D01*
Y468D01*
Y467D01*
Y466D01*
Y465D01*
Y464D01*
Y463D01*
Y462D01*
Y461D01*
Y459D01*
Y458D01*
Y457D01*
Y456D01*
Y455D01*
Y454D01*
Y453D01*
Y452D01*
Y451D01*
Y449D01*
Y448D01*
Y447D01*
Y446D01*
Y445D01*
Y444D01*
Y443D01*
Y442D01*
Y441D01*
Y440D01*
Y438D01*
Y437D01*
Y436D01*
Y435D01*
Y434D01*
Y433D01*
Y432D01*
Y431D01*
Y430D01*
Y428D01*
Y427D01*
Y426D01*
Y425D01*
Y424D01*
Y423D01*
Y422D01*
Y421D01*
Y420D01*
Y419D01*
Y417D01*
Y416D01*
Y415D01*
Y414D01*
Y413D01*
Y412D01*
Y411D01*
Y410D01*
Y409D01*
X2154D01*
Y410D01*
Y411D01*
Y412D01*
Y413D01*
Y414D01*
Y415D01*
Y416D01*
Y417D01*
Y419D01*
Y420D01*
Y421D01*
Y422D01*
Y423D01*
Y424D01*
Y425D01*
Y426D01*
Y427D01*
Y428D01*
Y430D01*
Y431D01*
Y432D01*
Y433D01*
Y434D01*
Y435D01*
Y436D01*
Y437D01*
Y438D01*
Y440D01*
Y441D01*
Y442D01*
Y443D01*
Y444D01*
Y445D01*
Y446D01*
Y447D01*
Y448D01*
Y449D01*
Y451D01*
Y452D01*
Y453D01*
Y454D01*
Y455D01*
Y456D01*
Y457D01*
Y458D01*
Y459D01*
Y461D01*
Y462D01*
Y463D01*
Y464D01*
Y465D01*
Y466D01*
Y467D01*
Y468D01*
Y469D01*
Y470D01*
Y472D01*
Y473D01*
Y474D01*
Y475D01*
Y476D01*
Y477D01*
Y478D01*
Y479D01*
Y480D01*
Y482D01*
Y483D01*
Y484D01*
Y485D01*
Y486D01*
Y487D01*
Y488D01*
Y489D01*
Y490D01*
Y492D01*
Y493D01*
Y494D01*
Y495D01*
Y496D01*
Y497D01*
Y498D01*
Y499D01*
Y500D01*
Y501D01*
Y503D01*
Y504D01*
Y505D01*
Y506D01*
Y507D01*
Y508D01*
Y509D01*
Y510D01*
Y511D01*
Y513D01*
Y514D01*
Y515D01*
Y516D01*
Y517D01*
Y518D01*
Y519D01*
Y520D01*
Y521D01*
Y522D01*
Y524D01*
Y525D01*
Y526D01*
Y527D01*
Y528D01*
Y529D01*
Y530D01*
Y531D01*
Y532D01*
Y534D01*
Y535D01*
Y536D01*
Y537D01*
Y538D01*
Y539D01*
Y540D01*
Y541D01*
Y542D01*
Y543D01*
Y545D01*
Y546D01*
Y547D01*
Y548D01*
Y549D01*
Y550D01*
Y551D01*
Y552D01*
Y553D01*
Y555D01*
Y556D01*
Y557D01*
Y558D01*
Y559D01*
Y560D01*
Y561D01*
Y562D01*
Y563D01*
Y564D01*
Y566D01*
Y567D01*
Y568D01*
Y569D01*
Y570D01*
Y571D01*
Y572D01*
Y573D01*
Y574D01*
Y576D01*
Y577D01*
Y578D01*
Y579D01*
Y580D01*
Y581D01*
Y582D01*
Y583D01*
Y584D01*
X2162D01*
Y585D01*
X2172D01*
Y584D01*
X2176D01*
Y583D01*
Y582D01*
Y581D01*
Y580D01*
Y579D01*
Y578D01*
Y577D01*
Y576D01*
Y574D01*
Y573D01*
Y572D01*
Y571D01*
Y570D01*
Y569D01*
Y568D01*
Y567D01*
Y566D01*
Y564D01*
Y563D01*
Y562D01*
Y561D01*
Y560D01*
Y559D01*
Y558D01*
Y557D01*
Y556D01*
Y555D01*
Y553D01*
Y552D01*
Y551D01*
Y550D01*
Y549D01*
Y548D01*
Y547D01*
Y546D01*
Y545D01*
Y543D01*
Y542D01*
Y541D01*
Y540D01*
Y539D01*
Y538D01*
Y537D01*
Y536D01*
Y535D01*
Y534D01*
Y532D01*
Y531D01*
Y530D01*
Y529D01*
Y528D01*
Y527D01*
Y526D01*
Y525D01*
Y524D01*
Y522D01*
Y521D01*
Y520D01*
Y519D01*
Y518D01*
Y517D01*
Y516D01*
Y515D01*
Y514D01*
Y513D01*
X2245D01*
Y514D01*
Y515D01*
Y516D01*
Y517D01*
Y518D01*
Y519D01*
Y520D01*
Y521D01*
Y522D01*
Y524D01*
Y525D01*
Y526D01*
Y527D01*
Y528D01*
Y529D01*
Y530D01*
Y531D01*
Y532D01*
Y534D01*
Y535D01*
Y536D01*
Y537D01*
Y538D01*
Y539D01*
Y540D01*
Y541D01*
Y542D01*
Y543D01*
Y545D01*
Y546D01*
Y547D01*
Y548D01*
Y549D01*
Y550D01*
Y551D01*
Y552D01*
Y553D01*
Y555D01*
Y556D01*
Y557D01*
Y558D01*
Y559D01*
Y560D01*
Y561D01*
Y562D01*
Y563D01*
Y564D01*
Y566D01*
Y567D01*
Y568D01*
Y569D01*
Y570D01*
Y571D01*
Y572D01*
Y573D01*
Y574D01*
Y576D01*
Y577D01*
Y578D01*
Y579D01*
Y580D01*
Y581D01*
Y582D01*
Y583D01*
Y584D01*
X2246D01*
Y585D01*
X2266D01*
Y584D01*
D02*
G37*
G36*
X1972Y716D02*
Y715D01*
X1973D01*
Y714D01*
Y713D01*
Y712D01*
Y710D01*
Y709D01*
Y708D01*
X1974D01*
Y707D01*
Y706D01*
Y705D01*
Y704D01*
Y703D01*
X1975D01*
Y702D01*
Y700D01*
Y699D01*
Y698D01*
Y697D01*
Y696D01*
X1977D01*
Y695D01*
Y694D01*
Y693D01*
Y692D01*
Y691D01*
X1979D01*
Y689D01*
Y688D01*
Y687D01*
Y686D01*
Y685D01*
Y684D01*
X1980D01*
Y683D01*
Y682D01*
Y681D01*
Y679D01*
Y678D01*
Y677D01*
X1981D01*
Y676D01*
Y675D01*
Y674D01*
Y673D01*
Y672D01*
X1982D01*
Y671D01*
Y670D01*
Y668D01*
Y667D01*
Y666D01*
Y665D01*
X1984D01*
Y664D01*
X1983D01*
Y663D01*
Y662D01*
Y661D01*
Y660D01*
Y658D01*
X1985D01*
Y657D01*
Y656D01*
Y655D01*
Y654D01*
Y653D01*
Y652D01*
X1986D01*
Y651D01*
Y650D01*
Y649D01*
Y647D01*
X1987D01*
Y646D01*
Y645D01*
Y644D01*
Y643D01*
Y642D01*
Y641D01*
X1988D01*
Y640D01*
Y639D01*
Y637D01*
Y636D01*
Y635D01*
Y634D01*
X1990D01*
Y633D01*
Y632D01*
Y631D01*
Y630D01*
Y629D01*
Y628D01*
X1992D01*
Y626D01*
Y625D01*
Y624D01*
Y623D01*
Y622D01*
Y621D01*
X1993D01*
Y620D01*
Y619D01*
Y618D01*
Y616D01*
Y615D01*
X1994D01*
Y614D01*
Y613D01*
Y612D01*
Y611D01*
Y610D01*
Y609D01*
X1995D01*
Y608D01*
Y607D01*
Y605D01*
Y604D01*
Y603D01*
Y602D01*
X1996D01*
Y601D01*
Y600D01*
Y599D01*
Y598D01*
Y597D01*
X1997D01*
Y595D01*
Y594D01*
Y593D01*
Y592D01*
Y591D01*
Y590D01*
X2000D01*
Y589D01*
Y588D01*
Y587D01*
Y585D01*
Y584D01*
X2001D01*
Y583D01*
Y582D01*
Y581D01*
Y580D01*
Y579D01*
Y578D01*
X2002D01*
Y577D01*
Y576D01*
Y574D01*
Y573D01*
Y572D01*
Y571D01*
X2003D01*
Y570D01*
Y569D01*
Y568D01*
Y567D01*
Y566D01*
Y564D01*
X2004D01*
Y563D01*
Y562D01*
Y561D01*
Y560D01*
X2005D01*
Y559D01*
X2006D01*
Y558D01*
Y557D01*
Y556D01*
Y555D01*
Y553D01*
X2007D01*
Y552D01*
Y551D01*
Y550D01*
Y549D01*
Y548D01*
Y547D01*
X2008D01*
Y546D01*
Y545D01*
Y543D01*
Y542D01*
Y541D01*
Y540D01*
X2009D01*
Y539D01*
Y538D01*
Y537D01*
Y536D01*
Y535D01*
Y534D01*
X2011D01*
Y532D01*
Y531D01*
Y530D01*
Y529D01*
Y528D01*
Y527D01*
X2013D01*
Y526D01*
X2012D01*
Y525D01*
Y524D01*
Y522D01*
Y521D01*
X2014D01*
Y520D01*
Y519D01*
Y518D01*
Y517D01*
Y516D01*
Y515D01*
X2015D01*
Y514D01*
Y513D01*
Y511D01*
Y510D01*
Y509D01*
Y508D01*
X2016D01*
Y507D01*
Y506D01*
Y505D01*
Y504D01*
Y503D01*
X2017D01*
Y501D01*
Y500D01*
Y499D01*
Y498D01*
Y497D01*
X2018D01*
Y496D01*
Y495D01*
Y494D01*
Y493D01*
Y492D01*
Y490D01*
X2021D01*
Y489D01*
X2019D01*
Y488D01*
Y487D01*
Y486D01*
Y485D01*
Y484D01*
X2022D01*
Y483D01*
Y482D01*
Y480D01*
Y479D01*
Y478D01*
Y477D01*
X2023D01*
Y476D01*
Y475D01*
Y474D01*
Y473D01*
Y472D01*
Y470D01*
X2024D01*
Y469D01*
Y468D01*
Y467D01*
Y466D01*
Y465D01*
X2025D01*
Y464D01*
Y463D01*
Y462D01*
Y461D01*
Y459D01*
X2026D01*
Y458D01*
Y457D01*
Y456D01*
Y455D01*
Y454D01*
Y453D01*
X2028D01*
Y452D01*
Y451D01*
Y449D01*
Y448D01*
Y447D01*
Y446D01*
X2029D01*
Y445D01*
Y444D01*
Y443D01*
Y442D01*
X2032D01*
Y443D01*
Y444D01*
Y445D01*
Y446D01*
X2034D01*
Y447D01*
Y448D01*
Y449D01*
X2033D01*
Y451D01*
X2034D01*
Y452D01*
X2035D01*
Y453D01*
Y454D01*
Y455D01*
Y456D01*
Y457D01*
X2036D01*
Y458D01*
Y459D01*
Y461D01*
Y462D01*
Y463D01*
Y464D01*
X2037D01*
Y465D01*
Y466D01*
Y467D01*
Y468D01*
Y469D01*
X2038D01*
Y470D01*
Y472D01*
Y473D01*
Y474D01*
Y475D01*
Y476D01*
X2039D01*
Y477D01*
Y478D01*
Y479D01*
Y480D01*
Y482D01*
Y483D01*
X2042D01*
Y484D01*
Y485D01*
Y486D01*
Y487D01*
Y488D01*
X2043D01*
Y489D01*
Y490D01*
Y492D01*
Y493D01*
Y494D01*
X2044D01*
Y495D01*
Y496D01*
Y497D01*
Y498D01*
Y499D01*
Y500D01*
X2045D01*
Y501D01*
Y503D01*
Y504D01*
Y505D01*
Y506D01*
X2046D01*
Y507D01*
Y508D01*
Y509D01*
Y510D01*
Y511D01*
Y513D01*
X2048D01*
Y514D01*
Y515D01*
Y516D01*
Y517D01*
Y518D01*
X2047D01*
Y519D01*
X2049D01*
Y520D01*
Y521D01*
Y522D01*
Y524D01*
Y525D01*
X2050D01*
Y526D01*
Y527D01*
Y528D01*
Y529D01*
Y530D01*
Y531D01*
X2051D01*
Y532D01*
Y534D01*
Y535D01*
Y536D01*
X2076D01*
Y535D01*
Y534D01*
Y532D01*
Y531D01*
Y530D01*
Y529D01*
X2078D01*
Y528D01*
X2077D01*
Y527D01*
Y526D01*
Y525D01*
Y524D01*
Y522D01*
X2079D01*
Y521D01*
Y520D01*
Y519D01*
Y518D01*
X2080D01*
Y517D01*
Y516D01*
Y515D01*
Y514D01*
Y513D01*
Y511D01*
X2081D01*
Y510D01*
Y509D01*
Y508D01*
Y507D01*
Y506D01*
Y505D01*
X2082D01*
Y504D01*
Y503D01*
Y501D01*
Y500D01*
Y499D01*
Y498D01*
X2084D01*
Y497D01*
Y496D01*
Y495D01*
Y494D01*
Y493D01*
X2086D01*
Y492D01*
X2085D01*
Y490D01*
Y489D01*
Y488D01*
Y487D01*
X2086D01*
Y486D01*
X2087D01*
Y485D01*
Y484D01*
Y483D01*
Y482D01*
Y480D01*
Y479D01*
X2088D01*
Y478D01*
Y477D01*
Y476D01*
Y475D01*
X2089D01*
Y474D01*
Y473D01*
Y472D01*
Y470D01*
Y469D01*
Y468D01*
X2090D01*
Y467D01*
Y466D01*
Y465D01*
Y464D01*
Y463D01*
Y462D01*
X2092D01*
Y461D01*
X2091D01*
Y459D01*
Y458D01*
Y457D01*
Y456D01*
Y455D01*
X2094D01*
Y454D01*
Y453D01*
Y452D01*
Y451D01*
Y449D01*
X2095D01*
Y448D01*
Y447D01*
Y446D01*
Y445D01*
Y444D01*
Y443D01*
X2097D01*
Y444D01*
Y445D01*
X2099D01*
Y446D01*
Y447D01*
Y448D01*
Y449D01*
Y451D01*
Y452D01*
Y453D01*
Y454D01*
X2098D01*
Y455D01*
X2100D01*
Y456D01*
Y457D01*
Y458D01*
Y459D01*
Y461D01*
Y462D01*
Y463D01*
Y464D01*
Y465D01*
Y466D01*
Y467D01*
X2101D01*
Y468D01*
Y469D01*
Y470D01*
Y472D01*
Y473D01*
Y474D01*
Y475D01*
Y476D01*
Y477D01*
X2102D01*
Y478D01*
Y479D01*
Y480D01*
Y482D01*
Y483D01*
Y484D01*
Y485D01*
Y486D01*
Y487D01*
Y488D01*
Y489D01*
X2103D01*
Y490D01*
Y492D01*
Y493D01*
Y494D01*
Y495D01*
Y496D01*
Y497D01*
Y498D01*
Y499D01*
X2105D01*
Y500D01*
Y501D01*
Y503D01*
Y504D01*
Y505D01*
Y506D01*
Y507D01*
Y508D01*
Y509D01*
Y510D01*
Y511D01*
X2107D01*
Y513D01*
Y514D01*
Y515D01*
Y516D01*
Y517D01*
Y518D01*
Y519D01*
Y520D01*
Y521D01*
X2108D01*
Y522D01*
Y524D01*
Y525D01*
Y526D01*
Y527D01*
Y528D01*
Y529D01*
Y530D01*
Y531D01*
Y532D01*
X2109D01*
Y534D01*
Y535D01*
Y536D01*
Y537D01*
Y538D01*
Y539D01*
Y540D01*
Y541D01*
Y542D01*
Y543D01*
X2110D01*
Y545D01*
Y546D01*
Y547D01*
Y548D01*
Y549D01*
Y550D01*
Y551D01*
Y552D01*
Y553D01*
Y555D01*
X2111D01*
Y556D01*
Y557D01*
Y558D01*
Y559D01*
Y560D01*
Y561D01*
Y562D01*
Y563D01*
Y564D01*
Y566D01*
X2112D01*
Y567D01*
X2113D01*
Y568D01*
Y569D01*
Y570D01*
Y571D01*
Y572D01*
Y573D01*
Y574D01*
Y576D01*
X2112D01*
Y577D01*
X2115D01*
Y578D01*
Y579D01*
Y580D01*
Y581D01*
Y582D01*
Y583D01*
Y584D01*
X2137D01*
Y583D01*
Y582D01*
X2134D01*
Y581D01*
Y580D01*
Y579D01*
Y578D01*
Y577D01*
Y576D01*
Y574D01*
X2133D01*
Y573D01*
Y572D01*
Y571D01*
Y570D01*
Y569D01*
Y568D01*
Y567D01*
Y566D01*
Y564D01*
X2132D01*
Y563D01*
Y562D01*
Y561D01*
Y560D01*
Y559D01*
Y558D01*
Y557D01*
Y556D01*
X2131D01*
Y555D01*
Y553D01*
Y552D01*
Y551D01*
Y550D01*
Y549D01*
Y548D01*
X2130D01*
Y547D01*
Y546D01*
Y545D01*
Y543D01*
Y542D01*
Y541D01*
Y540D01*
Y539D01*
X2128D01*
Y538D01*
Y537D01*
Y536D01*
Y535D01*
Y534D01*
Y532D01*
Y531D01*
Y530D01*
X2127D01*
Y529D01*
Y528D01*
Y527D01*
Y526D01*
Y525D01*
Y524D01*
Y522D01*
Y521D01*
Y520D01*
X2126D01*
Y519D01*
Y518D01*
Y517D01*
Y516D01*
Y515D01*
Y514D01*
Y513D01*
X2124D01*
Y511D01*
Y510D01*
Y509D01*
Y508D01*
Y507D01*
Y506D01*
Y505D01*
Y504D01*
X2123D01*
Y503D01*
Y501D01*
Y500D01*
Y499D01*
Y498D01*
Y497D01*
Y496D01*
X2122D01*
Y495D01*
Y494D01*
Y493D01*
Y492D01*
Y490D01*
Y489D01*
Y488D01*
Y487D01*
X2120D01*
Y486D01*
Y485D01*
Y484D01*
Y483D01*
Y482D01*
Y480D01*
Y479D01*
Y478D01*
Y477D01*
X2119D01*
Y476D01*
Y475D01*
Y474D01*
Y473D01*
Y472D01*
Y470D01*
Y469D01*
Y468D01*
X2118D01*
Y467D01*
Y466D01*
Y465D01*
Y464D01*
Y463D01*
Y462D01*
Y461D01*
X2117D01*
Y459D01*
Y458D01*
Y457D01*
Y456D01*
Y455D01*
Y454D01*
Y453D01*
Y452D01*
X2116D01*
Y451D01*
Y449D01*
Y448D01*
Y447D01*
Y446D01*
Y445D01*
Y444D01*
Y443D01*
Y442D01*
X2113D01*
Y441D01*
Y440D01*
Y438D01*
Y437D01*
Y436D01*
Y435D01*
Y434D01*
X2112D01*
Y433D01*
Y432D01*
Y431D01*
Y430D01*
Y428D01*
Y427D01*
Y426D01*
Y425D01*
X2111D01*
Y424D01*
Y423D01*
Y422D01*
Y421D01*
Y420D01*
Y419D01*
Y417D01*
Y416D01*
X2110D01*
Y415D01*
Y414D01*
Y413D01*
Y412D01*
Y411D01*
Y410D01*
X2109D01*
Y409D01*
X2089D01*
Y410D01*
X2088D01*
Y411D01*
Y412D01*
Y413D01*
Y414D01*
X2087D01*
Y415D01*
Y416D01*
Y417D01*
Y419D01*
X2086D01*
Y420D01*
Y421D01*
Y422D01*
Y423D01*
Y424D01*
Y425D01*
X2084D01*
Y426D01*
X2085D01*
Y427D01*
Y428D01*
Y430D01*
Y431D01*
X2082D01*
Y432D01*
Y433D01*
Y434D01*
Y435D01*
Y436D01*
X2081D01*
Y437D01*
Y438D01*
Y440D01*
Y441D01*
Y442D01*
X2080D01*
Y443D01*
Y444D01*
Y445D01*
Y446D01*
Y447D01*
X2079D01*
Y448D01*
Y449D01*
Y451D01*
Y452D01*
Y453D01*
Y454D01*
X2078D01*
Y455D01*
Y456D01*
Y457D01*
Y458D01*
Y459D01*
X2076D01*
Y461D01*
Y462D01*
Y463D01*
Y464D01*
Y465D01*
X2075D01*
Y466D01*
Y467D01*
Y468D01*
Y469D01*
Y470D01*
X2074D01*
Y472D01*
Y473D01*
Y474D01*
Y475D01*
Y476D01*
X2072D01*
Y477D01*
Y478D01*
Y479D01*
Y480D01*
Y482D01*
Y483D01*
X2071D01*
Y484D01*
Y485D01*
Y486D01*
Y487D01*
Y488D01*
X2069D01*
Y489D01*
X2070D01*
Y490D01*
Y492D01*
Y493D01*
X2069D01*
Y494D01*
X2068D01*
Y495D01*
Y496D01*
Y497D01*
Y498D01*
Y499D01*
X2067D01*
Y500D01*
Y501D01*
Y503D01*
Y504D01*
Y505D01*
X2066D01*
Y506D01*
Y507D01*
Y508D01*
Y509D01*
Y510D01*
X2065D01*
Y511D01*
Y513D01*
X2061D01*
Y511D01*
Y510D01*
Y509D01*
Y508D01*
X2060D01*
Y507D01*
Y506D01*
Y505D01*
Y504D01*
Y503D01*
X2059D01*
Y501D01*
Y500D01*
Y499D01*
Y498D01*
Y497D01*
Y496D01*
X2058D01*
Y495D01*
Y494D01*
Y493D01*
Y492D01*
Y490D01*
X2057D01*
Y489D01*
Y488D01*
Y487D01*
Y486D01*
Y485D01*
X2055D01*
Y484D01*
Y483D01*
Y482D01*
Y480D01*
Y479D01*
X2054D01*
Y478D01*
Y477D01*
Y476D01*
Y475D01*
Y474D01*
X2053D01*
Y473D01*
Y472D01*
Y470D01*
Y469D01*
Y468D01*
X2051D01*
Y467D01*
Y466D01*
Y465D01*
Y464D01*
Y463D01*
Y462D01*
X2050D01*
Y461D01*
Y459D01*
Y458D01*
Y457D01*
Y456D01*
X2048D01*
Y455D01*
Y454D01*
Y453D01*
Y452D01*
X2049D01*
Y451D01*
X2047D01*
Y449D01*
Y448D01*
Y447D01*
Y446D01*
Y445D01*
X2046D01*
Y444D01*
Y443D01*
Y442D01*
Y441D01*
Y440D01*
X2045D01*
Y438D01*
Y437D01*
Y436D01*
Y435D01*
Y434D01*
Y433D01*
X2044D01*
Y432D01*
Y431D01*
Y430D01*
Y428D01*
X2043D01*
Y427D01*
Y426D01*
Y425D01*
Y424D01*
Y423D01*
X2040D01*
Y422D01*
Y421D01*
Y420D01*
Y419D01*
Y417D01*
Y416D01*
X2039D01*
Y415D01*
Y414D01*
Y413D01*
Y412D01*
Y411D01*
X2038D01*
Y410D01*
Y409D01*
X2017D01*
Y410D01*
Y411D01*
X2016D01*
Y412D01*
Y413D01*
Y414D01*
Y415D01*
Y416D01*
Y417D01*
X2015D01*
Y419D01*
Y420D01*
Y421D01*
Y422D01*
Y423D01*
X2014D01*
Y424D01*
Y425D01*
Y426D01*
Y427D01*
Y428D01*
Y430D01*
X2013D01*
Y431D01*
Y432D01*
Y433D01*
Y434D01*
Y435D01*
Y436D01*
X2011D01*
Y437D01*
Y438D01*
Y440D01*
Y441D01*
X2009D01*
Y442D01*
Y443D01*
Y444D01*
Y445D01*
Y446D01*
Y447D01*
X2008D01*
Y448D01*
Y449D01*
Y451D01*
Y452D01*
Y453D01*
Y454D01*
X2007D01*
Y455D01*
Y456D01*
Y457D01*
Y458D01*
Y459D01*
X2006D01*
Y461D01*
Y462D01*
Y463D01*
Y464D01*
Y465D01*
Y466D01*
X2004D01*
Y467D01*
X2005D01*
Y468D01*
Y469D01*
Y470D01*
X2003D01*
Y472D01*
Y473D01*
Y474D01*
Y475D01*
Y476D01*
Y477D01*
X2002D01*
Y478D01*
Y479D01*
Y480D01*
Y482D01*
Y483D01*
X2001D01*
Y484D01*
Y485D01*
Y486D01*
Y487D01*
Y488D01*
Y489D01*
X2000D01*
Y490D01*
Y492D01*
Y493D01*
Y494D01*
Y495D01*
Y496D01*
X1998D01*
Y497D01*
Y498D01*
Y499D01*
Y500D01*
Y501D01*
X1996D01*
Y503D01*
X1997D01*
Y504D01*
Y505D01*
Y506D01*
Y507D01*
X1996D01*
Y508D01*
X1995D01*
Y509D01*
Y510D01*
Y511D01*
Y513D01*
Y514D01*
X1994D01*
Y515D01*
Y516D01*
Y517D01*
Y518D01*
Y519D01*
X1993D01*
Y520D01*
Y521D01*
Y522D01*
Y524D01*
Y525D01*
Y526D01*
X1992D01*
Y527D01*
Y528D01*
Y529D01*
Y530D01*
Y531D01*
X1990D01*
Y532D01*
X1991D01*
Y534D01*
Y535D01*
Y536D01*
Y537D01*
Y538D01*
X1988D01*
Y539D01*
Y540D01*
Y541D01*
Y542D01*
X1987D01*
Y543D01*
Y545D01*
Y546D01*
Y547D01*
Y548D01*
Y549D01*
X1986D01*
Y550D01*
Y551D01*
Y552D01*
Y553D01*
Y555D01*
Y556D01*
X1985D01*
Y557D01*
Y558D01*
Y559D01*
Y560D01*
Y561D01*
X1984D01*
Y562D01*
Y563D01*
Y564D01*
Y566D01*
Y567D01*
Y568D01*
X1982D01*
Y569D01*
X1983D01*
Y570D01*
Y571D01*
Y572D01*
Y573D01*
X1982D01*
Y574D01*
X1981D01*
Y576D01*
Y577D01*
Y578D01*
Y579D01*
X1980D01*
Y580D01*
Y581D01*
Y582D01*
Y583D01*
Y584D01*
Y585D01*
X1979D01*
Y587D01*
Y588D01*
Y589D01*
Y590D01*
Y591D01*
Y592D01*
X1977D01*
Y593D01*
Y594D01*
Y595D01*
Y597D01*
Y598D01*
X1975D01*
Y599D01*
X1976D01*
Y600D01*
Y601D01*
Y602D01*
Y603D01*
Y604D01*
X1974D01*
Y605D01*
Y607D01*
Y608D01*
Y609D01*
Y610D01*
X1973D01*
Y611D01*
Y612D01*
Y613D01*
Y614D01*
Y615D01*
Y616D01*
X1972D01*
Y618D01*
Y619D01*
Y620D01*
Y621D01*
X1971D01*
Y622D01*
Y623D01*
Y624D01*
Y625D01*
Y626D01*
Y628D01*
X1970D01*
Y629D01*
Y630D01*
Y631D01*
Y632D01*
Y633D01*
Y634D01*
X1967D01*
Y635D01*
X1969D01*
Y636D01*
Y637D01*
Y639D01*
Y640D01*
X1966D01*
Y641D01*
Y642D01*
Y643D01*
Y644D01*
Y645D01*
Y646D01*
X1965D01*
Y647D01*
Y649D01*
Y650D01*
Y651D01*
X1964D01*
Y652D01*
Y653D01*
Y654D01*
Y655D01*
Y656D01*
Y657D01*
X1963D01*
Y658D01*
Y660D01*
Y661D01*
Y662D01*
Y663D01*
Y664D01*
X1962D01*
Y665D01*
Y666D01*
Y667D01*
Y668D01*
Y670D01*
X1960D01*
Y671D01*
Y672D01*
Y673D01*
Y674D01*
Y675D01*
Y676D01*
X1959D01*
Y677D01*
Y678D01*
Y679D01*
Y681D01*
Y682D01*
X1957D01*
Y683D01*
Y684D01*
Y685D01*
Y686D01*
Y687D01*
X1956D01*
Y688D01*
Y689D01*
Y691D01*
Y692D01*
Y693D01*
Y694D01*
X1955D01*
Y695D01*
Y696D01*
Y697D01*
Y698D01*
Y699D01*
X1953D01*
Y700D01*
X1954D01*
Y702D01*
Y703D01*
Y704D01*
Y705D01*
Y706D01*
X1952D01*
Y707D01*
Y708D01*
Y709D01*
Y710D01*
Y712D01*
Y713D01*
X1951D01*
Y714D01*
Y715D01*
Y716D01*
Y717D01*
X1972D01*
Y716D01*
D02*
G37*
G36*
X2514Y587D02*
X2520D01*
Y585D01*
X2524D01*
Y584D01*
X2528D01*
Y583D01*
X2530D01*
Y582D01*
X2532D01*
Y581D01*
X2534D01*
Y580D01*
X2535D01*
Y579D01*
X2537D01*
Y578D01*
X2538D01*
Y577D01*
X2539D01*
Y576D01*
X2540D01*
Y574D01*
X2541D01*
Y573D01*
X2542D01*
Y572D01*
X2544D01*
Y571D01*
X2545D01*
Y570D01*
X2546D01*
Y569D01*
Y568D01*
X2547D01*
Y567D01*
X2548D01*
Y566D01*
Y564D01*
Y563D01*
X2550D01*
Y562D01*
X2551D01*
Y561D01*
Y560D01*
Y559D01*
X2552D01*
Y558D01*
Y557D01*
Y556D01*
X2554D01*
Y555D01*
Y553D01*
X2555D01*
Y552D01*
Y551D01*
Y550D01*
Y549D01*
X2557D01*
Y548D01*
X2556D01*
Y547D01*
Y546D01*
X2557D01*
Y545D01*
X2558D01*
Y543D01*
Y542D01*
Y541D01*
Y540D01*
X2559D01*
Y539D01*
Y538D01*
Y537D01*
Y536D01*
Y535D01*
Y534D01*
X2560D01*
Y532D01*
Y531D01*
Y530D01*
Y529D01*
Y528D01*
Y527D01*
Y526D01*
X2561D01*
Y525D01*
Y524D01*
Y522D01*
Y521D01*
Y520D01*
Y519D01*
Y518D01*
Y517D01*
Y516D01*
Y515D01*
Y514D01*
Y513D01*
X2563D01*
Y511D01*
X2562D01*
Y510D01*
Y509D01*
Y508D01*
Y507D01*
Y506D01*
Y505D01*
Y504D01*
Y503D01*
Y501D01*
Y500D01*
Y499D01*
Y498D01*
Y497D01*
Y496D01*
Y495D01*
Y494D01*
Y493D01*
Y492D01*
Y490D01*
Y489D01*
Y488D01*
Y487D01*
Y486D01*
Y485D01*
Y484D01*
Y483D01*
Y482D01*
Y480D01*
X2561D01*
Y479D01*
Y478D01*
Y477D01*
Y476D01*
Y475D01*
Y474D01*
Y473D01*
Y472D01*
Y470D01*
Y469D01*
Y468D01*
Y467D01*
X2560D01*
Y466D01*
Y465D01*
Y464D01*
Y463D01*
Y462D01*
Y461D01*
Y459D01*
X2559D01*
Y458D01*
Y457D01*
Y456D01*
Y455D01*
Y454D01*
X2558D01*
Y453D01*
Y452D01*
Y451D01*
Y449D01*
Y448D01*
X2556D01*
Y447D01*
Y446D01*
Y445D01*
X2557D01*
Y444D01*
X2555D01*
Y443D01*
Y442D01*
Y441D01*
Y440D01*
X2554D01*
Y438D01*
Y437D01*
X2552D01*
Y436D01*
Y435D01*
Y434D01*
X2551D01*
Y433D01*
Y432D01*
X2550D01*
Y431D01*
Y430D01*
X2549D01*
Y428D01*
X2548D01*
Y427D01*
X2547D01*
Y426D01*
Y425D01*
X2546D01*
Y424D01*
X2545D01*
Y423D01*
X2544D01*
Y422D01*
X2542D01*
Y421D01*
Y420D01*
X2540D01*
Y419D01*
X2539D01*
Y417D01*
X2538D01*
Y416D01*
X2537D01*
Y415D01*
X2536D01*
Y414D01*
X2534D01*
Y413D01*
X2532D01*
Y412D01*
X2530D01*
Y411D01*
X2528D01*
Y410D01*
X2525D01*
Y409D01*
X2521D01*
Y407D01*
X2516D01*
Y406D01*
Y405D01*
X2493D01*
Y406D01*
X2492D01*
Y407D01*
X2487D01*
Y409D01*
X2483D01*
Y410D01*
X2481D01*
Y411D01*
X2478D01*
Y412D01*
X2475D01*
Y413D01*
Y414D01*
X2473D01*
Y415D01*
X2472D01*
Y416D01*
X2471D01*
Y417D01*
X2468D01*
Y419D01*
X2467D01*
Y420D01*
X2466D01*
Y421D01*
Y422D01*
X2465D01*
Y423D01*
X2464D01*
Y424D01*
X2462D01*
Y425D01*
X2461D01*
Y426D01*
X2462D01*
Y427D01*
X2461D01*
Y428D01*
X2460D01*
Y430D01*
Y431D01*
X2458D01*
Y432D01*
X2457D01*
Y433D01*
Y434D01*
X2456D01*
Y435D01*
Y436D01*
Y437D01*
X2455D01*
Y438D01*
Y440D01*
Y441D01*
X2453D01*
Y442D01*
Y443D01*
Y444D01*
X2452D01*
Y445D01*
Y446D01*
Y447D01*
Y448D01*
X2451D01*
Y449D01*
Y451D01*
Y452D01*
Y453D01*
X2450D01*
Y454D01*
Y455D01*
Y456D01*
Y457D01*
Y458D01*
Y459D01*
X2448D01*
Y461D01*
Y462D01*
Y463D01*
Y464D01*
Y465D01*
Y466D01*
Y467D01*
X2446D01*
Y468D01*
X2447D01*
Y469D01*
Y470D01*
Y472D01*
Y473D01*
Y474D01*
Y475D01*
Y476D01*
Y477D01*
Y478D01*
Y479D01*
Y480D01*
X2445D01*
Y482D01*
Y483D01*
Y484D01*
Y485D01*
Y486D01*
Y487D01*
Y488D01*
Y489D01*
Y490D01*
Y492D01*
Y493D01*
Y494D01*
Y495D01*
Y496D01*
Y497D01*
Y498D01*
Y499D01*
Y500D01*
Y501D01*
Y503D01*
Y504D01*
Y505D01*
Y506D01*
Y507D01*
Y508D01*
Y509D01*
Y510D01*
Y511D01*
Y513D01*
Y514D01*
X2447D01*
Y515D01*
Y516D01*
Y517D01*
Y518D01*
Y519D01*
Y520D01*
Y521D01*
Y522D01*
Y524D01*
Y525D01*
Y526D01*
X2446D01*
Y527D01*
X2448D01*
Y528D01*
Y529D01*
Y530D01*
Y531D01*
Y532D01*
Y534D01*
Y535D01*
X2450D01*
Y536D01*
Y537D01*
Y538D01*
Y539D01*
Y540D01*
X2451D01*
Y541D01*
Y542D01*
Y543D01*
Y545D01*
X2452D01*
Y546D01*
Y547D01*
Y548D01*
Y549D01*
X2454D01*
Y550D01*
Y551D01*
X2453D01*
Y552D01*
Y553D01*
X2455D01*
Y555D01*
Y556D01*
X2456D01*
Y557D01*
Y558D01*
X2457D01*
Y559D01*
Y560D01*
Y561D01*
X2458D01*
Y562D01*
Y563D01*
X2460D01*
Y564D01*
Y566D01*
X2461D01*
Y567D01*
X2462D01*
Y568D01*
X2463D01*
Y569D01*
Y570D01*
X2464D01*
Y571D01*
X2465D01*
Y572D01*
X2466D01*
Y573D01*
X2467D01*
Y574D01*
Y576D01*
X2468D01*
Y577D01*
X2471D01*
Y578D01*
X2472D01*
Y579D01*
X2474D01*
Y580D01*
X2475D01*
Y581D01*
X2476D01*
Y582D01*
X2478D01*
Y583D01*
X2481D01*
Y584D01*
X2485D01*
Y585D01*
X2488D01*
Y587D01*
X2495D01*
Y588D01*
X2514D01*
Y587D01*
D02*
G37*
G36*
X2364D02*
X2372D01*
Y585D01*
X2378D01*
Y584D01*
X2380D01*
Y583D01*
X2384D01*
Y582D01*
X2387D01*
Y581D01*
X2388D01*
Y580D01*
X2390D01*
Y579D01*
X2391D01*
Y578D01*
X2393D01*
Y577D01*
X2394D01*
Y576D01*
X2395D01*
Y574D01*
X2396D01*
Y573D01*
X2399D01*
Y572D01*
X2400D01*
Y571D01*
X2401D01*
Y570D01*
Y569D01*
X2402D01*
Y568D01*
X2403D01*
Y567D01*
X2404D01*
Y566D01*
X2405D01*
Y564D01*
Y563D01*
X2406D01*
Y562D01*
X2408D01*
Y561D01*
Y560D01*
Y559D01*
X2409D01*
Y558D01*
Y557D01*
X2410D01*
Y556D01*
Y555D01*
Y553D01*
X2412D01*
Y552D01*
Y551D01*
X2411D01*
Y550D01*
Y549D01*
Y548D01*
X2413D01*
Y547D01*
Y546D01*
Y545D01*
Y543D01*
Y542D01*
Y541D01*
Y540D01*
Y539D01*
Y538D01*
Y537D01*
Y536D01*
Y535D01*
Y534D01*
Y532D01*
Y531D01*
Y530D01*
Y529D01*
Y528D01*
Y527D01*
Y526D01*
X2411D01*
Y525D01*
Y524D01*
X2412D01*
Y522D01*
X2411D01*
Y521D01*
X2410D01*
Y520D01*
Y519D01*
Y518D01*
X2409D01*
Y517D01*
Y516D01*
X2408D01*
Y515D01*
Y514D01*
Y513D01*
X2406D01*
Y511D01*
X2405D01*
Y510D01*
X2403D01*
Y509D01*
Y508D01*
Y507D01*
X2402D01*
Y506D01*
X2401D01*
Y505D01*
X2400D01*
Y504D01*
X2398D01*
Y503D01*
X2396D01*
Y501D01*
X2393D01*
Y500D01*
Y499D01*
X2392D01*
Y498D01*
X2390D01*
Y497D01*
X2385D01*
Y496D01*
X2383D01*
Y495D01*
X2381D01*
Y494D01*
X2375D01*
Y493D01*
Y492D01*
X2371D01*
Y490D01*
X2366D01*
Y489D01*
X2360D01*
Y488D01*
X2354D01*
Y487D01*
X2349D01*
Y486D01*
Y485D01*
X2345D01*
Y484D01*
X2341D01*
Y483D01*
X2339D01*
Y482D01*
X2336D01*
Y480D01*
X2333D01*
Y479D01*
X2332D01*
Y478D01*
Y477D01*
X2329D01*
Y476D01*
X2328D01*
Y475D01*
Y474D01*
X2327D01*
Y473D01*
X2326D01*
Y472D01*
Y470D01*
Y469D01*
X2324D01*
Y468D01*
Y467D01*
X2325D01*
Y466D01*
X2322D01*
Y465D01*
Y464D01*
Y463D01*
Y462D01*
Y461D01*
Y459D01*
X2321D01*
Y458D01*
Y457D01*
Y456D01*
Y455D01*
Y454D01*
Y453D01*
Y452D01*
Y451D01*
X2322D01*
Y449D01*
Y448D01*
Y447D01*
Y446D01*
Y445D01*
X2324D01*
Y444D01*
Y443D01*
Y442D01*
Y441D01*
X2326D01*
Y440D01*
Y438D01*
X2327D01*
Y437D01*
Y436D01*
Y435D01*
X2328D01*
Y434D01*
X2329D01*
Y433D01*
X2331D01*
Y432D01*
X2332D01*
Y431D01*
X2335D01*
Y430D01*
Y428D01*
X2336D01*
Y427D01*
X2339D01*
Y426D01*
X2342D01*
Y425D01*
X2347D01*
Y424D01*
X2356D01*
Y423D01*
X2367D01*
Y424D01*
X2378D01*
Y425D01*
X2382D01*
Y426D01*
X2387D01*
Y427D01*
X2390D01*
Y428D01*
X2393D01*
Y430D01*
Y431D01*
X2395D01*
Y432D01*
X2400D01*
Y433D01*
X2402D01*
Y434D01*
X2404D01*
Y435D01*
X2406D01*
Y436D01*
X2408D01*
Y437D01*
X2409D01*
Y438D01*
X2412D01*
Y437D01*
X2411D01*
Y436D01*
Y435D01*
Y434D01*
Y433D01*
Y432D01*
Y431D01*
Y430D01*
Y428D01*
Y427D01*
Y426D01*
Y425D01*
Y424D01*
Y423D01*
Y422D01*
Y421D01*
Y420D01*
Y419D01*
Y417D01*
X2412D01*
Y416D01*
X2411D01*
Y415D01*
X2408D01*
Y414D01*
X2404D01*
Y413D01*
Y412D01*
X2400D01*
Y411D01*
X2396D01*
Y410D01*
X2391D01*
Y409D01*
X2385D01*
Y407D01*
X2378D01*
Y406D01*
Y405D01*
X2346D01*
Y406D01*
X2345D01*
Y407D01*
X2338D01*
Y409D01*
X2333D01*
Y410D01*
X2330D01*
Y411D01*
X2328D01*
Y412D01*
X2325D01*
Y413D01*
X2324D01*
Y414D01*
X2322D01*
Y415D01*
X2320D01*
Y416D01*
X2319D01*
Y417D01*
X2316D01*
Y419D01*
X2315D01*
Y420D01*
X2314D01*
Y421D01*
Y422D01*
X2312D01*
Y423D01*
X2311D01*
Y424D01*
Y425D01*
X2309D01*
Y426D01*
X2308D01*
Y427D01*
Y428D01*
X2307D01*
Y430D01*
Y431D01*
X2306D01*
Y432D01*
Y433D01*
X2305D01*
Y434D01*
Y435D01*
Y436D01*
Y437D01*
X2304D01*
Y438D01*
Y440D01*
Y441D01*
X2302D01*
Y442D01*
Y443D01*
Y444D01*
Y445D01*
Y446D01*
Y447D01*
X2300D01*
Y448D01*
Y449D01*
Y451D01*
Y452D01*
Y453D01*
Y454D01*
Y455D01*
Y456D01*
Y457D01*
Y458D01*
Y459D01*
Y461D01*
Y462D01*
Y463D01*
Y464D01*
Y465D01*
X2301D01*
Y466D01*
X2302D01*
Y467D01*
Y468D01*
Y469D01*
Y470D01*
Y472D01*
X2304D01*
Y473D01*
Y474D01*
Y475D01*
Y476D01*
X2305D01*
Y477D01*
Y478D01*
Y479D01*
X2306D01*
Y480D01*
Y482D01*
Y483D01*
X2307D01*
Y484D01*
X2309D01*
Y485D01*
X2308D01*
Y486D01*
X2309D01*
Y487D01*
X2310D01*
Y488D01*
X2311D01*
Y489D01*
X2312D01*
Y490D01*
X2314D01*
Y492D01*
X2315D01*
Y493D01*
X2316D01*
Y494D01*
X2317D01*
Y495D01*
X2318D01*
Y496D01*
X2319D01*
Y497D01*
X2321D01*
Y498D01*
X2324D01*
Y499D01*
X2327D01*
Y500D01*
X2329D01*
Y501D01*
Y503D01*
X2332D01*
Y504D01*
X2335D01*
Y505D01*
X2338D01*
Y506D01*
X2343D01*
Y507D01*
X2348D01*
Y508D01*
X2353D01*
Y509D01*
X2354D01*
Y510D01*
X2359D01*
Y511D01*
X2364D01*
Y513D01*
X2370D01*
Y514D01*
X2372D01*
Y515D01*
X2375D01*
Y516D01*
X2377D01*
Y517D01*
X2379D01*
Y518D01*
X2381D01*
Y519D01*
X2382D01*
Y520D01*
X2385D01*
Y521D01*
X2387D01*
Y522D01*
Y524D01*
Y525D01*
X2388D01*
Y526D01*
X2390D01*
Y527D01*
Y528D01*
X2391D01*
Y529D01*
Y530D01*
Y531D01*
Y532D01*
Y534D01*
X2392D01*
Y535D01*
Y536D01*
Y537D01*
Y538D01*
Y539D01*
Y540D01*
Y541D01*
Y542D01*
Y543D01*
Y545D01*
Y546D01*
Y547D01*
X2391D01*
Y548D01*
Y549D01*
Y550D01*
Y551D01*
Y552D01*
X2390D01*
Y553D01*
Y555D01*
X2388D01*
Y556D01*
X2389D01*
Y557D01*
X2387D01*
Y558D01*
Y559D01*
X2385D01*
Y560D01*
X2384D01*
Y561D01*
X2382D01*
Y562D01*
X2381D01*
Y563D01*
X2379D01*
Y564D01*
X2378D01*
Y566D01*
Y567D01*
X2374D01*
Y568D01*
X2371D01*
Y569D01*
X2366D01*
Y570D01*
X2342D01*
Y569D01*
X2336D01*
Y568D01*
X2332D01*
Y567D01*
X2328D01*
Y566D01*
Y564D01*
X2325D01*
Y563D01*
X2321D01*
Y562D01*
X2319D01*
Y561D01*
X2317D01*
Y560D01*
X2314D01*
Y559D01*
X2312D01*
Y558D01*
Y557D01*
X2311D01*
Y558D01*
Y559D01*
Y560D01*
Y561D01*
Y562D01*
Y563D01*
Y564D01*
Y566D01*
Y567D01*
Y568D01*
Y569D01*
Y570D01*
Y571D01*
Y572D01*
Y573D01*
Y574D01*
Y576D01*
Y577D01*
Y578D01*
Y579D01*
X2314D01*
Y580D01*
X2317D01*
Y581D01*
X2318D01*
Y582D01*
X2321D01*
Y583D01*
X2326D01*
Y584D01*
X2331D01*
Y585D01*
X2337D01*
Y587D01*
X2346D01*
Y588D01*
X2364D01*
Y587D01*
D02*
G37*
G36*
X2645Y672D02*
Y671D01*
Y670D01*
Y668D01*
Y667D01*
Y666D01*
Y665D01*
Y664D01*
Y663D01*
Y662D01*
Y661D01*
Y660D01*
Y658D01*
Y657D01*
Y656D01*
Y655D01*
Y654D01*
Y653D01*
Y652D01*
Y651D01*
Y650D01*
Y649D01*
Y647D01*
Y646D01*
Y645D01*
Y644D01*
Y643D01*
Y642D01*
Y641D01*
Y640D01*
Y639D01*
Y637D01*
Y636D01*
Y635D01*
Y634D01*
Y633D01*
Y632D01*
Y631D01*
Y630D01*
Y629D01*
Y628D01*
Y626D01*
Y625D01*
Y624D01*
Y623D01*
Y622D01*
Y621D01*
Y620D01*
Y619D01*
Y618D01*
Y616D01*
Y615D01*
Y614D01*
Y613D01*
Y612D01*
Y611D01*
Y610D01*
Y609D01*
Y608D01*
Y607D01*
Y605D01*
Y604D01*
Y603D01*
Y602D01*
Y601D01*
Y600D01*
Y599D01*
Y598D01*
Y597D01*
Y595D01*
Y594D01*
Y593D01*
Y592D01*
Y591D01*
Y590D01*
Y589D01*
Y588D01*
Y587D01*
Y585D01*
Y584D01*
Y583D01*
Y582D01*
Y581D01*
Y580D01*
Y579D01*
Y578D01*
Y577D01*
Y576D01*
Y574D01*
Y573D01*
Y572D01*
Y571D01*
Y570D01*
Y569D01*
Y568D01*
Y567D01*
Y566D01*
Y564D01*
Y563D01*
Y562D01*
Y561D01*
Y560D01*
Y559D01*
Y558D01*
Y557D01*
Y556D01*
Y555D01*
Y553D01*
Y552D01*
Y551D01*
Y550D01*
Y549D01*
Y548D01*
Y547D01*
Y546D01*
Y545D01*
Y543D01*
Y542D01*
Y541D01*
Y540D01*
Y539D01*
Y538D01*
Y537D01*
Y536D01*
Y535D01*
Y534D01*
Y532D01*
Y531D01*
Y530D01*
Y529D01*
Y528D01*
Y527D01*
Y526D01*
Y525D01*
Y524D01*
Y522D01*
Y521D01*
Y520D01*
Y519D01*
Y518D01*
Y517D01*
Y516D01*
Y515D01*
Y514D01*
Y513D01*
Y511D01*
Y510D01*
Y509D01*
Y508D01*
Y507D01*
Y506D01*
Y505D01*
Y504D01*
Y503D01*
Y501D01*
Y500D01*
Y499D01*
Y498D01*
Y497D01*
Y496D01*
Y495D01*
Y494D01*
Y493D01*
Y492D01*
Y490D01*
Y489D01*
Y488D01*
Y487D01*
Y486D01*
Y485D01*
Y484D01*
Y483D01*
Y482D01*
Y480D01*
Y479D01*
Y478D01*
Y477D01*
Y476D01*
Y475D01*
Y474D01*
Y473D01*
Y472D01*
Y470D01*
Y469D01*
Y468D01*
Y467D01*
Y466D01*
Y465D01*
Y464D01*
Y463D01*
Y462D01*
Y461D01*
Y459D01*
Y458D01*
Y457D01*
Y456D01*
Y455D01*
Y454D01*
Y453D01*
Y452D01*
Y451D01*
Y449D01*
Y448D01*
Y447D01*
Y446D01*
Y445D01*
Y444D01*
Y443D01*
Y442D01*
Y441D01*
Y440D01*
Y438D01*
Y437D01*
Y436D01*
Y435D01*
Y434D01*
Y433D01*
Y432D01*
Y431D01*
Y430D01*
Y428D01*
Y427D01*
Y426D01*
Y425D01*
Y424D01*
Y423D01*
Y422D01*
Y421D01*
Y420D01*
Y419D01*
Y417D01*
Y416D01*
Y415D01*
Y414D01*
Y413D01*
Y412D01*
Y411D01*
Y410D01*
Y409D01*
Y407D01*
Y406D01*
Y405D01*
Y404D01*
Y403D01*
Y402D01*
Y401D01*
Y400D01*
Y399D01*
Y398D01*
Y396D01*
Y395D01*
Y394D01*
Y393D01*
Y392D01*
Y391D01*
Y390D01*
Y389D01*
Y388D01*
Y386D01*
Y385D01*
Y384D01*
Y383D01*
Y382D01*
Y381D01*
Y380D01*
Y379D01*
Y378D01*
Y377D01*
Y375D01*
Y374D01*
Y373D01*
Y372D01*
Y371D01*
Y370D01*
Y369D01*
Y368D01*
Y367D01*
Y365D01*
Y364D01*
Y363D01*
Y362D01*
Y361D01*
Y360D01*
Y359D01*
Y358D01*
Y357D01*
Y355D01*
Y354D01*
Y353D01*
Y352D01*
Y351D01*
Y350D01*
Y349D01*
Y348D01*
Y347D01*
Y346D01*
Y344D01*
Y343D01*
Y342D01*
Y341D01*
Y340D01*
Y339D01*
Y338D01*
Y337D01*
Y336D01*
Y334D01*
Y333D01*
Y332D01*
Y331D01*
Y330D01*
Y329D01*
Y328D01*
X1897D01*
Y329D01*
Y330D01*
Y331D01*
Y332D01*
Y333D01*
Y334D01*
Y336D01*
Y337D01*
Y338D01*
Y339D01*
Y340D01*
Y341D01*
Y342D01*
Y343D01*
Y344D01*
Y346D01*
Y347D01*
Y348D01*
Y349D01*
Y350D01*
Y351D01*
Y352D01*
Y353D01*
Y354D01*
Y355D01*
Y357D01*
Y358D01*
Y359D01*
Y360D01*
Y361D01*
Y362D01*
Y363D01*
Y364D01*
Y365D01*
Y367D01*
Y368D01*
Y369D01*
Y370D01*
Y371D01*
Y372D01*
Y373D01*
Y374D01*
Y375D01*
Y377D01*
Y378D01*
Y379D01*
Y380D01*
Y381D01*
Y382D01*
Y383D01*
Y384D01*
Y385D01*
Y386D01*
Y388D01*
Y389D01*
Y390D01*
Y391D01*
Y392D01*
Y393D01*
Y394D01*
Y395D01*
Y396D01*
Y398D01*
Y399D01*
Y400D01*
Y401D01*
Y402D01*
Y403D01*
Y404D01*
Y405D01*
Y406D01*
Y407D01*
Y409D01*
Y410D01*
Y411D01*
Y412D01*
Y413D01*
Y414D01*
Y415D01*
Y416D01*
Y417D01*
Y419D01*
Y420D01*
Y421D01*
Y422D01*
Y423D01*
Y424D01*
Y425D01*
Y426D01*
Y427D01*
Y428D01*
Y430D01*
Y431D01*
Y432D01*
Y433D01*
Y434D01*
Y435D01*
Y436D01*
Y437D01*
Y438D01*
Y440D01*
Y441D01*
Y442D01*
Y443D01*
Y444D01*
Y445D01*
Y446D01*
Y447D01*
Y448D01*
Y449D01*
Y451D01*
Y452D01*
Y453D01*
Y454D01*
Y455D01*
Y456D01*
Y457D01*
Y458D01*
Y459D01*
Y461D01*
Y462D01*
Y463D01*
Y464D01*
Y465D01*
Y466D01*
Y467D01*
Y468D01*
Y469D01*
Y470D01*
Y472D01*
Y473D01*
Y474D01*
Y475D01*
Y476D01*
Y477D01*
Y478D01*
Y479D01*
Y480D01*
Y482D01*
Y483D01*
Y484D01*
Y485D01*
Y486D01*
Y487D01*
Y488D01*
Y489D01*
Y490D01*
Y492D01*
Y493D01*
Y494D01*
Y495D01*
Y496D01*
Y497D01*
Y498D01*
Y499D01*
Y500D01*
Y501D01*
Y503D01*
Y504D01*
Y505D01*
Y506D01*
Y507D01*
Y508D01*
Y509D01*
Y510D01*
Y511D01*
Y513D01*
Y514D01*
Y515D01*
Y516D01*
Y517D01*
Y518D01*
Y519D01*
Y520D01*
Y521D01*
Y522D01*
Y524D01*
Y525D01*
Y526D01*
Y527D01*
Y528D01*
Y529D01*
Y530D01*
Y531D01*
Y532D01*
Y534D01*
Y535D01*
Y536D01*
Y537D01*
Y538D01*
Y539D01*
Y540D01*
Y541D01*
Y542D01*
Y543D01*
Y545D01*
Y546D01*
Y547D01*
Y548D01*
Y549D01*
Y550D01*
Y551D01*
Y552D01*
Y553D01*
Y555D01*
Y556D01*
Y557D01*
Y558D01*
Y559D01*
Y560D01*
Y561D01*
Y562D01*
Y563D01*
Y564D01*
Y566D01*
Y567D01*
Y568D01*
Y569D01*
Y570D01*
Y571D01*
Y572D01*
Y573D01*
Y574D01*
Y576D01*
Y577D01*
Y578D01*
Y579D01*
Y580D01*
Y581D01*
Y582D01*
Y583D01*
Y584D01*
Y585D01*
Y587D01*
Y588D01*
Y589D01*
Y590D01*
Y591D01*
Y592D01*
Y593D01*
Y594D01*
Y595D01*
Y597D01*
Y598D01*
Y599D01*
Y600D01*
Y601D01*
Y602D01*
Y603D01*
Y604D01*
Y605D01*
Y607D01*
Y608D01*
Y609D01*
Y610D01*
Y611D01*
Y612D01*
Y613D01*
Y614D01*
Y615D01*
Y616D01*
Y618D01*
Y619D01*
Y620D01*
Y621D01*
Y622D01*
Y623D01*
Y624D01*
Y625D01*
Y626D01*
Y628D01*
Y629D01*
Y630D01*
Y631D01*
Y632D01*
Y633D01*
Y634D01*
Y635D01*
Y636D01*
Y637D01*
Y639D01*
Y640D01*
Y641D01*
Y642D01*
Y643D01*
Y644D01*
Y645D01*
Y646D01*
Y647D01*
Y649D01*
Y650D01*
Y651D01*
Y652D01*
Y653D01*
Y654D01*
Y655D01*
Y656D01*
Y657D01*
Y658D01*
Y660D01*
Y661D01*
Y662D01*
Y663D01*
Y664D01*
Y665D01*
Y666D01*
Y667D01*
Y668D01*
Y670D01*
Y671D01*
Y672D01*
Y673D01*
X1923D01*
Y672D01*
X1924D01*
Y671D01*
Y670D01*
Y668D01*
Y667D01*
Y666D01*
Y665D01*
Y664D01*
Y663D01*
Y662D01*
Y661D01*
Y660D01*
Y658D01*
Y657D01*
Y656D01*
Y655D01*
Y654D01*
Y653D01*
Y652D01*
Y651D01*
Y650D01*
Y649D01*
Y647D01*
Y646D01*
Y645D01*
Y644D01*
Y643D01*
Y642D01*
Y641D01*
Y640D01*
Y639D01*
Y637D01*
Y636D01*
Y635D01*
Y634D01*
Y633D01*
Y632D01*
Y631D01*
Y630D01*
Y629D01*
Y628D01*
Y626D01*
Y625D01*
Y624D01*
Y623D01*
Y622D01*
Y621D01*
Y620D01*
Y619D01*
Y618D01*
Y616D01*
Y615D01*
Y614D01*
Y613D01*
Y612D01*
Y611D01*
Y610D01*
Y609D01*
Y608D01*
Y607D01*
Y605D01*
Y604D01*
Y603D01*
Y602D01*
Y601D01*
Y600D01*
Y599D01*
Y598D01*
Y597D01*
Y595D01*
Y594D01*
Y593D01*
Y592D01*
Y591D01*
Y590D01*
Y589D01*
Y588D01*
Y587D01*
Y585D01*
Y584D01*
Y583D01*
Y582D01*
Y581D01*
Y580D01*
Y579D01*
Y578D01*
Y577D01*
Y576D01*
Y574D01*
Y573D01*
Y572D01*
Y571D01*
Y570D01*
Y569D01*
Y568D01*
Y567D01*
Y566D01*
Y564D01*
Y563D01*
Y562D01*
Y561D01*
Y560D01*
Y559D01*
Y558D01*
Y557D01*
Y556D01*
Y555D01*
Y553D01*
Y552D01*
Y551D01*
Y550D01*
Y549D01*
Y548D01*
Y547D01*
Y546D01*
Y545D01*
Y543D01*
Y542D01*
Y541D01*
Y540D01*
Y539D01*
Y538D01*
Y537D01*
Y536D01*
Y535D01*
Y534D01*
Y532D01*
Y531D01*
Y530D01*
Y529D01*
Y528D01*
Y527D01*
Y526D01*
Y525D01*
Y524D01*
Y522D01*
Y521D01*
Y520D01*
Y519D01*
Y518D01*
Y517D01*
Y516D01*
Y515D01*
Y514D01*
Y513D01*
Y511D01*
Y510D01*
Y509D01*
Y508D01*
Y507D01*
Y506D01*
Y505D01*
Y504D01*
Y503D01*
Y501D01*
Y500D01*
Y499D01*
Y498D01*
Y497D01*
Y496D01*
Y495D01*
Y494D01*
Y493D01*
Y492D01*
Y490D01*
Y489D01*
Y488D01*
Y487D01*
Y486D01*
Y485D01*
Y484D01*
Y483D01*
Y482D01*
Y480D01*
Y479D01*
Y478D01*
Y477D01*
Y476D01*
Y475D01*
Y474D01*
Y473D01*
Y472D01*
Y470D01*
Y469D01*
Y468D01*
Y467D01*
Y466D01*
Y465D01*
Y464D01*
Y463D01*
Y462D01*
Y461D01*
Y459D01*
Y458D01*
Y457D01*
Y456D01*
Y455D01*
Y454D01*
Y453D01*
Y452D01*
Y451D01*
Y449D01*
Y448D01*
Y447D01*
Y446D01*
Y445D01*
Y444D01*
Y443D01*
Y442D01*
Y441D01*
Y440D01*
Y438D01*
Y437D01*
Y436D01*
Y435D01*
Y434D01*
Y433D01*
Y432D01*
Y431D01*
Y430D01*
Y428D01*
Y427D01*
Y426D01*
Y425D01*
Y424D01*
Y423D01*
Y422D01*
Y421D01*
Y420D01*
Y419D01*
Y417D01*
Y416D01*
Y415D01*
Y414D01*
Y413D01*
Y412D01*
Y411D01*
Y410D01*
Y409D01*
Y407D01*
Y406D01*
Y405D01*
Y404D01*
Y403D01*
Y402D01*
Y401D01*
Y400D01*
Y399D01*
Y398D01*
Y396D01*
Y395D01*
Y394D01*
Y393D01*
Y392D01*
Y391D01*
Y390D01*
Y389D01*
Y388D01*
Y386D01*
Y385D01*
Y384D01*
Y383D01*
Y382D01*
Y381D01*
Y380D01*
Y379D01*
Y378D01*
Y377D01*
Y375D01*
Y374D01*
Y373D01*
Y372D01*
Y371D01*
Y370D01*
Y369D01*
Y368D01*
Y367D01*
Y365D01*
Y364D01*
Y363D01*
Y362D01*
Y361D01*
Y360D01*
Y359D01*
Y358D01*
X1925D01*
Y357D01*
X2617D01*
Y358D01*
Y359D01*
Y360D01*
Y361D01*
Y362D01*
Y363D01*
Y364D01*
Y365D01*
Y367D01*
Y368D01*
Y369D01*
Y370D01*
Y371D01*
Y372D01*
Y373D01*
Y374D01*
Y375D01*
Y377D01*
Y378D01*
Y379D01*
Y380D01*
Y381D01*
Y382D01*
Y383D01*
Y384D01*
Y385D01*
Y386D01*
Y388D01*
Y389D01*
Y390D01*
Y391D01*
Y392D01*
Y393D01*
Y394D01*
Y395D01*
Y396D01*
Y398D01*
Y399D01*
Y400D01*
Y401D01*
Y402D01*
Y403D01*
Y404D01*
Y405D01*
Y406D01*
Y407D01*
Y409D01*
Y410D01*
Y411D01*
Y412D01*
Y413D01*
Y414D01*
Y415D01*
Y416D01*
Y417D01*
Y419D01*
Y420D01*
Y421D01*
Y422D01*
Y423D01*
Y424D01*
Y425D01*
Y426D01*
Y427D01*
Y428D01*
Y430D01*
Y431D01*
Y432D01*
Y433D01*
Y434D01*
Y435D01*
Y436D01*
Y437D01*
Y438D01*
Y440D01*
Y441D01*
Y442D01*
Y443D01*
Y444D01*
Y445D01*
Y446D01*
Y447D01*
Y448D01*
Y449D01*
Y451D01*
Y452D01*
Y453D01*
Y454D01*
Y455D01*
Y456D01*
Y457D01*
Y458D01*
Y459D01*
Y461D01*
Y462D01*
Y463D01*
Y464D01*
Y465D01*
Y466D01*
Y467D01*
Y468D01*
Y469D01*
Y470D01*
Y472D01*
Y473D01*
Y474D01*
Y475D01*
Y476D01*
Y477D01*
Y478D01*
Y479D01*
Y480D01*
Y482D01*
Y483D01*
Y484D01*
Y485D01*
Y486D01*
Y487D01*
Y488D01*
Y489D01*
Y490D01*
Y492D01*
Y493D01*
Y494D01*
Y495D01*
Y496D01*
Y497D01*
Y498D01*
Y499D01*
Y500D01*
Y501D01*
Y503D01*
Y504D01*
Y505D01*
Y506D01*
Y507D01*
Y508D01*
Y509D01*
Y510D01*
Y511D01*
Y513D01*
Y514D01*
Y515D01*
Y516D01*
Y517D01*
Y518D01*
Y519D01*
Y520D01*
Y521D01*
Y522D01*
Y524D01*
Y525D01*
Y526D01*
Y527D01*
Y528D01*
Y529D01*
Y530D01*
Y531D01*
Y532D01*
Y534D01*
Y535D01*
Y536D01*
Y537D01*
Y538D01*
Y539D01*
Y540D01*
Y541D01*
Y542D01*
Y543D01*
Y545D01*
Y546D01*
Y547D01*
Y548D01*
Y549D01*
Y550D01*
Y551D01*
Y552D01*
Y553D01*
Y555D01*
Y556D01*
Y557D01*
Y558D01*
Y559D01*
Y560D01*
Y561D01*
Y562D01*
Y563D01*
Y564D01*
Y566D01*
Y567D01*
Y568D01*
Y569D01*
Y570D01*
Y571D01*
Y572D01*
Y573D01*
Y574D01*
Y576D01*
Y577D01*
Y578D01*
Y579D01*
Y580D01*
Y581D01*
Y582D01*
Y583D01*
Y584D01*
Y585D01*
Y587D01*
Y588D01*
Y589D01*
Y590D01*
Y591D01*
Y592D01*
Y593D01*
Y594D01*
Y595D01*
Y597D01*
Y598D01*
Y599D01*
Y600D01*
Y601D01*
Y602D01*
Y603D01*
Y604D01*
Y605D01*
Y607D01*
Y608D01*
Y609D01*
Y610D01*
Y611D01*
Y612D01*
Y613D01*
Y614D01*
Y615D01*
Y616D01*
Y618D01*
Y619D01*
Y620D01*
Y621D01*
Y622D01*
Y623D01*
Y624D01*
Y625D01*
Y626D01*
Y628D01*
Y629D01*
Y630D01*
Y631D01*
Y632D01*
Y633D01*
Y634D01*
Y635D01*
Y636D01*
Y637D01*
Y639D01*
Y640D01*
Y641D01*
Y642D01*
Y643D01*
X2029D01*
Y644D01*
Y645D01*
Y646D01*
Y647D01*
Y649D01*
Y650D01*
Y651D01*
Y652D01*
Y653D01*
Y654D01*
Y655D01*
Y656D01*
Y657D01*
Y658D01*
Y660D01*
Y661D01*
Y662D01*
Y663D01*
Y664D01*
Y665D01*
Y666D01*
Y667D01*
Y668D01*
Y670D01*
Y671D01*
Y672D01*
Y673D01*
X2645D01*
Y672D01*
D02*
G37*
G36*
X5422Y1745D02*
Y1744D01*
X5437Y1669D01*
Y1666D01*
X5438Y1665D01*
X5440D01*
X5489Y1644D01*
X5495D01*
X5557Y1688D01*
X5560D01*
X5561Y1687D01*
X5615Y1635D01*
Y1634D01*
Y1633D01*
Y1631D01*
Y1630D01*
X5573Y1568D01*
Y1567D01*
Y1565D01*
Y1564D01*
Y1562D01*
X5593Y1511D01*
X5598Y1508D01*
X5599D01*
X5670Y1495D01*
X5673D01*
X5674Y1493D01*
Y1492D01*
Y1417D01*
X5673Y1416D01*
X5671Y1414D01*
X5670D01*
X5601Y1400D01*
X5598Y1398D01*
Y1397D01*
X5574Y1341D01*
Y1340D01*
Y1338D01*
Y1337D01*
Y1335D01*
X5615Y1278D01*
Y1277D01*
Y1275D01*
Y1274D01*
X5561Y1221D01*
X5560Y1219D01*
X5558D01*
X5557Y1221D01*
X5500Y1259D01*
X5495D01*
X5470Y1246D01*
X5466Y1247D01*
X5465D01*
X5413Y1373D01*
Y1378D01*
X5415Y1379D01*
X5422Y1382D01*
X5424D01*
X5425Y1384D01*
Y1385D01*
X5438Y1395D01*
X5447Y1406D01*
X5454Y1417D01*
X5459Y1427D01*
X5462Y1438D01*
X5463Y1445D01*
Y1451D01*
Y1452D01*
X5462Y1466D01*
X5459Y1476D01*
X5456Y1486D01*
X5451Y1495D01*
X5447Y1502D01*
X5443Y1507D01*
X5441Y1510D01*
X5440Y1511D01*
X5429Y1520D01*
X5421Y1526D01*
X5410Y1530D01*
X5402Y1533D01*
X5393Y1534D01*
X5387Y1536D01*
X5381D01*
X5368Y1534D01*
X5358Y1531D01*
X5347Y1529D01*
X5339Y1524D01*
X5331Y1518D01*
X5327Y1515D01*
X5324Y1512D01*
X5322Y1511D01*
X5315Y1502D01*
X5309Y1492D01*
X5305Y1482D01*
X5302Y1473D01*
X5300Y1464D01*
X5299Y1458D01*
Y1454D01*
Y1452D01*
X5300Y1436D01*
X5305Y1423D01*
X5311Y1411D01*
X5318Y1403D01*
X5325Y1395D01*
X5331Y1389D01*
X5336Y1386D01*
X5337Y1385D01*
X5339Y1384D01*
X5340Y1382D01*
X5347Y1379D01*
X5349Y1375D01*
Y1373D01*
X5296Y1247D01*
X5295Y1246D01*
X5292D01*
X5268Y1259D01*
X5262D01*
X5205Y1221D01*
X5204Y1219D01*
X5202D01*
X5201Y1221D01*
X5147Y1274D01*
Y1275D01*
Y1278D01*
X5188Y1335D01*
Y1337D01*
Y1338D01*
Y1340D01*
Y1341D01*
X5166Y1397D01*
X5164Y1398D01*
X5163Y1400D01*
X5161D01*
X5092Y1414D01*
X5090D01*
X5088Y1416D01*
Y1417D01*
Y1492D01*
Y1493D01*
X5090Y1495D01*
X5092D01*
X5163Y1508D01*
X5166D01*
X5167Y1510D01*
Y1511D01*
X5191Y1562D01*
Y1564D01*
Y1565D01*
Y1568D01*
X5147Y1630D01*
Y1631D01*
Y1633D01*
Y1634D01*
Y1635D01*
X5201Y1687D01*
X5204Y1688D01*
X5205D01*
X5268Y1644D01*
X5273D01*
X5322Y1665D01*
X5324Y1666D01*
X5325Y1668D01*
Y1669D01*
X5340Y1744D01*
Y1745D01*
X5341Y1747D01*
X5421D01*
X5422Y1745D01*
D02*
G37*
G36*
X5678Y957D02*
X5665D01*
Y1003D01*
X5664Y1009D01*
X5662Y1013D01*
X5656Y1019D01*
X5652Y1020D01*
X5643D01*
X5640Y1017D01*
X5634Y1011D01*
X5633Y1006D01*
Y1004D01*
Y1003D01*
Y957D01*
X5617D01*
Y1009D01*
X5618Y1017D01*
X5621Y1023D01*
X5626Y1029D01*
X5630Y1032D01*
X5639Y1035D01*
X5643D01*
X5653Y1033D01*
X5659Y1031D01*
X5664Y1028D01*
X5665Y1026D01*
Y1088D01*
X5656Y1083D01*
X5649Y1080D01*
X5645Y1079D01*
X5643D01*
X5636Y1080D01*
X5629Y1085D01*
X5623Y1088D01*
X5621Y1089D01*
X5618Y1098D01*
X5617Y1108D01*
Y1117D01*
Y1118D01*
Y1120D01*
Y1135D01*
X5618Y1143D01*
X5620Y1149D01*
X5621Y1151D01*
X5629Y1156D01*
X5636Y1158D01*
X5642Y1159D01*
X5643D01*
X5652Y1158D01*
X5658Y1155D01*
X5664Y1152D01*
X5665Y1151D01*
Y1159D01*
X5678D01*
Y957D01*
D02*
G37*
G36*
X5529Y1080D02*
X5513D01*
Y1127D01*
X5511Y1133D01*
X5510Y1137D01*
X5504Y1143D01*
X5500Y1145D01*
X5491D01*
X5488Y1142D01*
X5482Y1136D01*
X5481Y1130D01*
Y1129D01*
Y1127D01*
Y1080D01*
X5465D01*
Y1132D01*
X5466Y1140D01*
X5469Y1148D01*
X5473Y1152D01*
X5478Y1156D01*
X5487Y1159D01*
X5491D01*
X5501Y1158D01*
X5507Y1155D01*
X5511Y1152D01*
X5513Y1151D01*
Y1159D01*
X5529D01*
Y1080D01*
D02*
G37*
G36*
X5188D02*
X5172D01*
Y1127D01*
X5170Y1133D01*
X5169Y1137D01*
X5163Y1143D01*
X5158Y1145D01*
X5155D01*
X5153Y1143D01*
X5150Y1142D01*
X5148Y1140D01*
X5147Y1139D01*
X5135Y1154D01*
X5141Y1156D01*
X5147Y1159D01*
X5151D01*
X5160Y1158D01*
X5167Y1155D01*
X5170Y1152D01*
X5172Y1151D01*
Y1159D01*
X5188D01*
Y1080D01*
D02*
G37*
G36*
X5268Y1105D02*
X5267Y1096D01*
X5264Y1091D01*
X5259Y1085D01*
X5254Y1082D01*
X5245Y1079D01*
X5240D01*
X5233Y1080D01*
X5227Y1083D01*
X5223Y1086D01*
X5221Y1088D01*
Y1080D01*
X5205D01*
Y1159D01*
X5221D01*
Y1113D01*
Y1107D01*
X5224Y1102D01*
X5229Y1098D01*
X5233Y1095D01*
X5236D01*
X5242Y1096D01*
X5245Y1098D01*
X5251Y1104D01*
X5252Y1110D01*
Y1113D01*
Y1159D01*
X5268D01*
Y1105D01*
D02*
G37*
G36*
X5113Y1158D02*
X5122Y1154D01*
X5128Y1146D01*
X5132Y1140D01*
X5135Y1133D01*
X5136Y1126D01*
Y1121D01*
Y1120D01*
X5135Y1107D01*
X5131Y1096D01*
X5125Y1089D01*
X5119Y1085D01*
X5113Y1082D01*
X5107Y1079D01*
X5101D01*
X5090Y1082D01*
X5081Y1086D01*
X5075Y1091D01*
X5073Y1094D01*
X5085Y1104D01*
X5091Y1099D01*
X5095Y1096D01*
X5100Y1095D01*
X5101D01*
X5107Y1096D01*
X5112Y1099D01*
X5117Y1108D01*
X5120Y1115D01*
Y1118D01*
Y1120D01*
X5119Y1129D01*
X5117Y1135D01*
X5114Y1139D01*
X5110Y1142D01*
X5104Y1145D01*
X5101D01*
X5094Y1143D01*
X5090Y1140D01*
X5087Y1137D01*
X5085Y1136D01*
X5073Y1146D01*
X5082Y1154D01*
X5091Y1158D01*
X5098Y1159D01*
X5101D01*
X5113Y1158D01*
D02*
G37*
G36*
X5585D02*
X5593Y1154D01*
X5599Y1146D01*
X5602Y1140D01*
X5605Y1133D01*
X5607Y1126D01*
Y1121D01*
Y1120D01*
X5605Y1107D01*
X5601Y1096D01*
X5595Y1089D01*
X5589Y1085D01*
X5583Y1082D01*
X5577Y1079D01*
X5571D01*
X5560Y1080D01*
X5551Y1086D01*
X5545Y1091D01*
X5542Y1092D01*
X5555Y1102D01*
X5561Y1098D01*
X5566Y1095D01*
X5571Y1094D01*
X5573D01*
X5579Y1095D01*
X5583Y1096D01*
X5588Y1104D01*
X5591Y1110D01*
Y1111D01*
Y1113D01*
X5541D01*
Y1127D01*
X5542Y1137D01*
X5547Y1146D01*
X5551Y1152D01*
X5557Y1155D01*
X5564Y1158D01*
X5569Y1159D01*
X5574D01*
X5585Y1158D01*
D02*
G37*
G36*
X5047D02*
X5056Y1154D01*
X5062Y1146D01*
X5065Y1140D01*
X5068Y1133D01*
X5069Y1126D01*
Y1121D01*
Y1120D01*
X5068Y1107D01*
X5063Y1096D01*
X5057Y1089D01*
X5051Y1085D01*
X5046Y1082D01*
X5040Y1079D01*
X5034D01*
X5022Y1080D01*
X5013Y1086D01*
X5008Y1091D01*
X5006Y1092D01*
X5018Y1102D01*
X5022Y1098D01*
X5028Y1095D01*
X5032Y1094D01*
X5034D01*
X5040Y1095D01*
X5044Y1096D01*
X5050Y1104D01*
X5053Y1110D01*
Y1111D01*
Y1113D01*
X5003D01*
Y1127D01*
X5005Y1137D01*
X5009Y1146D01*
X5013Y1152D01*
X5019Y1155D01*
X5027Y1158D01*
X5031Y1159D01*
X5037D01*
X5047Y1158D01*
D02*
G37*
G36*
X5736D02*
X5744Y1155D01*
X5749Y1152D01*
X5750Y1151D01*
X5753Y1140D01*
X5755Y1132D01*
X5756Y1123D01*
Y1121D01*
Y1120D01*
X5755Y1107D01*
X5753Y1098D01*
X5752Y1091D01*
X5750Y1089D01*
X5741Y1083D01*
X5734Y1080D01*
X5728Y1079D01*
X5725D01*
X5715Y1080D01*
X5708Y1085D01*
X5703Y1088D01*
X5702Y1089D01*
X5696Y1098D01*
X5695Y1108D01*
X5693Y1117D01*
Y1118D01*
Y1120D01*
X5695Y1135D01*
X5697Y1143D01*
X5700Y1149D01*
X5702Y1151D01*
X5708Y1156D01*
X5715Y1158D01*
X5722Y1159D01*
X5725D01*
X5736Y1158D01*
D02*
G37*
G36*
X5397D02*
X5404Y1156D01*
X5409Y1152D01*
X5413Y1148D01*
X5416Y1140D01*
Y1137D01*
Y1136D01*
X5415Y1129D01*
X5413Y1124D01*
X5406Y1117D01*
X5399Y1114D01*
X5397Y1113D01*
X5381D01*
X5375Y1110D01*
X5372Y1107D01*
X5371Y1105D01*
Y1104D01*
Y1101D01*
X5374Y1098D01*
X5378Y1095D01*
X5384Y1094D01*
X5387D01*
X5396Y1095D01*
X5404Y1099D01*
X5410Y1102D01*
X5412Y1104D01*
X5422Y1094D01*
X5410Y1085D01*
X5400Y1080D01*
X5391Y1079D01*
X5388D01*
X5377Y1080D01*
X5369Y1083D01*
X5363Y1086D01*
X5359Y1092D01*
X5356Y1096D01*
X5355Y1099D01*
Y1102D01*
Y1104D01*
X5356Y1111D01*
X5358Y1115D01*
X5366Y1123D01*
X5374Y1127D01*
X5378D01*
X5391Y1129D01*
X5399Y1130D01*
X5402Y1133D01*
X5403Y1135D01*
Y1136D01*
X5400Y1142D01*
X5396Y1143D01*
X5391Y1145D01*
X5388D01*
X5383Y1143D01*
X5375Y1142D01*
X5369Y1139D01*
X5366Y1137D01*
X5358Y1148D01*
X5368Y1155D01*
X5377Y1158D01*
X5385Y1159D01*
X5388D01*
X5397Y1158D01*
D02*
G37*
G36*
X5324D02*
X5333Y1155D01*
X5337Y1152D01*
X5339Y1151D01*
X5343Y1142D01*
X5344Y1132D01*
X5346Y1123D01*
Y1121D01*
Y1120D01*
X5344Y1107D01*
X5341Y1096D01*
X5340Y1091D01*
X5339Y1089D01*
X5330Y1083D01*
X5322Y1080D01*
X5317Y1079D01*
X5314D01*
X5303Y1080D01*
X5296Y1085D01*
X5292Y1088D01*
X5290Y1089D01*
X5284Y1098D01*
X5283Y1108D01*
X5281Y1117D01*
Y1118D01*
Y1120D01*
X5283Y1135D01*
X5286Y1143D01*
X5289Y1149D01*
X5290Y1151D01*
X5298Y1156D01*
X5305Y1158D01*
X5311Y1159D01*
X5314D01*
X5324Y1158D01*
D02*
G37*
G36*
X5525Y957D02*
X5508D01*
Y1003D01*
Y1009D01*
X5507Y1013D01*
X5501Y1019D01*
X5497Y1020D01*
X5491D01*
X5487Y1019D01*
X5485Y1017D01*
X5484Y1016D01*
X5472Y1029D01*
X5478Y1032D01*
X5484Y1035D01*
X5489D01*
X5498Y1033D01*
X5504Y1031D01*
X5507Y1028D01*
X5508Y1026D01*
Y1035D01*
X5525D01*
Y957D01*
D02*
G37*
G36*
X5208D02*
X5192D01*
Y1003D01*
Y1009D01*
X5189Y1013D01*
X5185Y1019D01*
X5180Y1020D01*
X5173D01*
X5170Y1019D01*
X5167Y1017D01*
Y1016D01*
X5154Y1029D01*
X5160Y1032D01*
X5166Y1035D01*
X5170D01*
X5180Y1033D01*
X5186Y1031D01*
X5191Y1028D01*
X5192Y1026D01*
Y1035D01*
X5208D01*
Y957D01*
D02*
G37*
G36*
X5588Y1033D02*
X5595Y1031D01*
X5601Y1026D01*
X5602Y1025D01*
X5591Y1016D01*
X5586Y1019D01*
X5580Y1020D01*
X5569D01*
X5566Y1019D01*
X5560Y1016D01*
X5558Y1011D01*
Y1010D01*
Y1003D01*
X5580D01*
X5589Y1001D01*
X5595Y1000D01*
X5601Y995D01*
X5604Y991D01*
X5607Y984D01*
Y981D01*
Y979D01*
X5605Y970D01*
X5602Y965D01*
X5598Y960D01*
X5592Y957D01*
X5582Y954D01*
X5577D01*
X5569Y956D01*
X5563Y959D01*
X5560Y962D01*
X5558Y963D01*
Y957D01*
X5542D01*
Y1010D01*
X5544Y1019D01*
X5548Y1025D01*
X5552Y1029D01*
X5558Y1032D01*
X5566Y1033D01*
X5570Y1035D01*
X5576D01*
X5588Y1033D01*
D02*
G37*
G36*
X5270D02*
X5277Y1031D01*
X5281Y1026D01*
X5283Y1025D01*
X5271Y1016D01*
X5268Y1019D01*
X5262Y1020D01*
X5251D01*
X5248Y1019D01*
X5242Y1016D01*
X5240Y1011D01*
Y1010D01*
Y1003D01*
X5262D01*
X5271Y1001D01*
X5277Y1000D01*
X5283Y995D01*
X5286Y991D01*
X5289Y984D01*
Y981D01*
Y979D01*
X5287Y970D01*
X5284Y965D01*
X5280Y960D01*
X5274Y957D01*
X5265Y954D01*
X5261D01*
X5252Y956D01*
X5245Y959D01*
X5242Y962D01*
X5240Y963D01*
Y957D01*
X5226D01*
Y1010D01*
X5227Y1019D01*
X5230Y1025D01*
X5236Y1029D01*
X5240Y1032D01*
X5252Y1035D01*
X5257D01*
X5270Y1033D01*
D02*
G37*
G36*
X5375Y957D02*
X5362D01*
X5346Y1011D01*
X5328Y957D01*
X5314D01*
X5289Y1035D01*
X5306D01*
X5321Y979D01*
X5339Y1035D01*
X5350D01*
X5369Y979D01*
X5384Y1035D01*
X5400D01*
X5375Y957D01*
D02*
G37*
G36*
X5132Y1033D02*
X5141Y1029D01*
X5147Y1022D01*
X5150Y1016D01*
X5153Y1009D01*
X5154Y1001D01*
Y997D01*
Y995D01*
X5153Y982D01*
X5148Y972D01*
X5142Y965D01*
X5136Y960D01*
X5131Y957D01*
X5125Y954D01*
X5119D01*
X5107Y956D01*
X5098Y962D01*
X5092Y966D01*
X5091Y968D01*
X5103Y978D01*
X5109Y973D01*
X5113Y970D01*
X5119Y969D01*
X5120D01*
X5126Y970D01*
X5131Y972D01*
X5135Y979D01*
X5138Y985D01*
Y987D01*
Y988D01*
X5088D01*
Y1003D01*
X5090Y1013D01*
X5094Y1022D01*
X5098Y1028D01*
X5104Y1031D01*
X5112Y1033D01*
X5116Y1035D01*
X5122D01*
X5132Y1033D01*
D02*
G37*
G36*
X5425Y1026D02*
X5432Y1032D01*
X5438Y1033D01*
X5444Y1035D01*
X5445D01*
X5454Y1033D01*
X5462Y1031D01*
X5465Y1028D01*
X5466Y1026D01*
X5467Y1023D01*
X5469Y1019D01*
X5470Y1009D01*
X5472Y1000D01*
Y997D01*
Y995D01*
Y987D01*
X5470Y981D01*
Y975D01*
X5469Y972D01*
X5467Y968D01*
X5466Y966D01*
X5460Y959D01*
X5453Y956D01*
X5447Y954D01*
X5445D01*
X5437Y956D01*
X5431Y959D01*
X5426Y962D01*
X5425Y963D01*
Y957D01*
X5409D01*
Y1067D01*
X5425D01*
Y1026D01*
D02*
G37*
%LPC*%
G36*
X2511Y570D02*
X2496D01*
Y569D01*
X2492D01*
Y568D01*
X2490D01*
Y567D01*
X2487D01*
Y566D01*
Y564D01*
X2486D01*
Y563D01*
X2484D01*
Y562D01*
X2482D01*
Y561D01*
Y560D01*
X2481D01*
Y559D01*
X2479D01*
Y558D01*
Y557D01*
Y556D01*
X2478D01*
Y555D01*
X2476D01*
Y553D01*
Y552D01*
X2477D01*
Y551D01*
X2476D01*
Y550D01*
X2475D01*
Y549D01*
Y548D01*
X2474D01*
Y547D01*
Y546D01*
Y545D01*
Y543D01*
Y542D01*
X2473D01*
Y541D01*
Y540D01*
Y539D01*
Y538D01*
X2472D01*
Y537D01*
Y536D01*
Y535D01*
Y534D01*
Y532D01*
Y531D01*
Y530D01*
X2471D01*
Y529D01*
Y528D01*
Y527D01*
Y526D01*
Y525D01*
Y524D01*
Y522D01*
Y521D01*
Y520D01*
Y519D01*
Y518D01*
Y517D01*
X2468D01*
Y516D01*
Y515D01*
Y514D01*
Y513D01*
Y511D01*
Y510D01*
Y509D01*
Y508D01*
Y507D01*
Y506D01*
Y505D01*
Y504D01*
Y503D01*
Y501D01*
Y500D01*
Y499D01*
Y498D01*
Y497D01*
Y496D01*
Y495D01*
Y494D01*
Y493D01*
Y492D01*
Y490D01*
Y489D01*
Y488D01*
Y487D01*
Y486D01*
Y485D01*
Y484D01*
Y483D01*
Y482D01*
Y480D01*
Y479D01*
Y478D01*
Y477D01*
Y476D01*
X2471D01*
Y475D01*
Y474D01*
Y473D01*
Y472D01*
Y470D01*
Y469D01*
Y468D01*
Y467D01*
Y466D01*
Y465D01*
Y464D01*
Y463D01*
X2472D01*
Y462D01*
Y461D01*
Y459D01*
Y458D01*
Y457D01*
Y456D01*
Y455D01*
X2473D01*
Y454D01*
Y453D01*
Y452D01*
Y451D01*
Y449D01*
X2474D01*
Y448D01*
Y447D01*
Y446D01*
X2475D01*
Y445D01*
Y444D01*
Y443D01*
Y442D01*
X2477D01*
Y441D01*
X2476D01*
Y440D01*
X2478D01*
Y438D01*
Y437D01*
Y436D01*
X2479D01*
Y435D01*
Y434D01*
X2481D01*
Y433D01*
X2482D01*
Y432D01*
X2484D01*
Y431D01*
X2485D01*
Y430D01*
Y428D01*
X2486D01*
Y427D01*
X2488D01*
Y426D01*
X2492D01*
Y425D01*
X2494D01*
Y424D01*
X2503D01*
Y423D01*
X2507D01*
Y424D01*
X2515D01*
Y425D01*
X2518D01*
Y426D01*
X2519D01*
Y427D01*
X2523D01*
Y428D01*
X2524D01*
Y430D01*
Y431D01*
X2525D01*
Y432D01*
X2526D01*
Y433D01*
X2527D01*
Y434D01*
X2529D01*
Y435D01*
Y436D01*
X2530D01*
Y437D01*
Y438D01*
Y440D01*
X2531D01*
Y441D01*
Y442D01*
X2532D01*
Y443D01*
Y444D01*
Y445D01*
X2535D01*
Y446D01*
Y447D01*
Y448D01*
X2536D01*
Y449D01*
Y451D01*
Y452D01*
Y453D01*
Y454D01*
Y455D01*
X2537D01*
Y456D01*
Y457D01*
Y458D01*
Y459D01*
Y461D01*
Y462D01*
X2538D01*
Y463D01*
Y464D01*
Y465D01*
Y466D01*
Y467D01*
Y468D01*
Y469D01*
Y470D01*
Y472D01*
Y473D01*
Y474D01*
X2539D01*
Y475D01*
Y476D01*
Y477D01*
Y478D01*
Y479D01*
Y480D01*
Y482D01*
Y483D01*
Y484D01*
Y485D01*
Y486D01*
Y487D01*
Y488D01*
Y489D01*
Y490D01*
Y492D01*
Y493D01*
Y494D01*
Y495D01*
Y496D01*
Y497D01*
Y498D01*
Y499D01*
Y500D01*
Y501D01*
Y503D01*
Y504D01*
Y505D01*
Y506D01*
Y507D01*
Y508D01*
Y509D01*
Y510D01*
Y511D01*
Y513D01*
Y514D01*
Y515D01*
Y516D01*
Y517D01*
Y518D01*
Y519D01*
Y520D01*
X2538D01*
Y521D01*
Y522D01*
Y524D01*
Y525D01*
Y526D01*
Y527D01*
Y528D01*
Y529D01*
Y530D01*
Y531D01*
X2537D01*
Y532D01*
Y534D01*
Y535D01*
Y536D01*
Y537D01*
Y538D01*
Y539D01*
X2536D01*
Y540D01*
Y541D01*
Y542D01*
Y543D01*
Y545D01*
X2535D01*
Y546D01*
Y547D01*
Y548D01*
X2532D01*
Y549D01*
Y550D01*
X2534D01*
Y551D01*
X2532D01*
Y552D01*
X2531D01*
Y553D01*
Y555D01*
X2530D01*
Y556D01*
Y557D01*
X2529D01*
Y558D01*
X2528D01*
Y559D01*
Y560D01*
Y561D01*
X2526D01*
Y562D01*
X2525D01*
Y563D01*
X2524D01*
Y564D01*
X2521D01*
Y566D01*
X2520D01*
Y567D01*
X2519D01*
Y568D01*
X2517D01*
Y569D01*
X2511D01*
Y570D01*
D02*
G37*
G36*
X5652Y1145D02*
X5649D01*
X5643Y1143D01*
X5640Y1140D01*
X5634Y1133D01*
X5633Y1124D01*
Y1121D01*
Y1120D01*
Y1111D01*
X5636Y1105D01*
X5637Y1101D01*
X5640Y1098D01*
X5646Y1095D01*
X5649D01*
X5655Y1096D01*
X5658Y1099D01*
X5664Y1108D01*
X5665Y1115D01*
Y1118D01*
Y1120D01*
X5664Y1129D01*
X5662Y1135D01*
X5659Y1139D01*
X5656Y1142D01*
X5652Y1145D01*
D02*
G37*
G36*
X5577D02*
X5570D01*
X5566Y1142D01*
X5560Y1136D01*
X5557Y1130D01*
Y1129D01*
Y1127D01*
X5591D01*
X5589Y1133D01*
X5588Y1137D01*
X5582Y1143D01*
X5577Y1145D01*
D02*
G37*
G36*
X5040D02*
X5032D01*
X5028Y1142D01*
X5022Y1136D01*
X5019Y1130D01*
Y1129D01*
Y1127D01*
X5053D01*
X5051Y1133D01*
X5050Y1137D01*
X5044Y1143D01*
X5040Y1145D01*
D02*
G37*
G36*
X5727D02*
X5725D01*
X5719Y1143D01*
X5715Y1142D01*
X5714Y1139D01*
X5712Y1137D01*
X5711Y1133D01*
X5709Y1127D01*
Y1123D01*
Y1120D01*
Y1111D01*
X5711Y1105D01*
X5712Y1102D01*
Y1101D01*
X5715Y1098D01*
X5719Y1096D01*
X5724Y1095D01*
X5725D01*
X5731Y1096D01*
X5736Y1098D01*
X5737Y1099D01*
Y1101D01*
X5740Y1107D01*
X5741Y1113D01*
X5743Y1118D01*
Y1120D01*
X5741Y1127D01*
X5740Y1133D01*
X5738Y1136D01*
X5737Y1137D01*
X5734Y1142D01*
X5730Y1143D01*
X5727Y1145D01*
D02*
G37*
G36*
X5315D02*
X5314D01*
X5308Y1143D01*
X5305Y1142D01*
X5302Y1139D01*
Y1137D01*
X5299Y1133D01*
X5298Y1127D01*
Y1123D01*
Y1120D01*
Y1111D01*
X5299Y1105D01*
X5300Y1102D01*
X5302Y1101D01*
X5305Y1098D01*
X5309Y1096D01*
X5312Y1095D01*
X5314D01*
X5320Y1096D01*
X5324Y1098D01*
X5325Y1099D01*
Y1101D01*
X5328Y1105D01*
X5330Y1113D01*
Y1117D01*
Y1120D01*
X5328Y1129D01*
X5327Y1135D01*
X5325Y1137D01*
X5322Y1142D01*
X5318Y1143D01*
X5315Y1145D01*
D02*
G37*
G36*
X5579Y988D02*
X5558D01*
Y984D01*
Y979D01*
X5561Y975D01*
X5567Y970D01*
X5573Y969D01*
X5576D01*
X5585Y970D01*
X5589Y975D01*
X5591Y978D01*
Y979D01*
X5589Y985D01*
X5583Y987D01*
X5579Y988D01*
D02*
G37*
G36*
X5261D02*
X5240D01*
Y984D01*
X5242Y979D01*
X5243Y975D01*
X5249Y970D01*
X5257Y969D01*
X5259D01*
X5267Y970D01*
X5271Y975D01*
X5273Y978D01*
Y979D01*
X5271Y985D01*
X5265Y987D01*
X5261Y988D01*
D02*
G37*
G36*
X5125Y1020D02*
X5117D01*
X5113Y1017D01*
X5107Y1011D01*
X5104Y1006D01*
Y1004D01*
Y1003D01*
X5138D01*
X5136Y1009D01*
X5135Y1013D01*
X5129Y1019D01*
X5125Y1020D01*
D02*
G37*
G36*
X5443D02*
X5440D01*
X5435Y1019D01*
X5431Y1016D01*
X5426Y1009D01*
X5425Y1000D01*
Y997D01*
Y995D01*
Y987D01*
X5428Y981D01*
X5429Y976D01*
X5432Y973D01*
X5437Y970D01*
X5440D01*
X5445Y972D01*
X5448Y975D01*
X5454Y984D01*
X5456Y991D01*
Y994D01*
Y995D01*
X5454Y1004D01*
X5453Y1010D01*
X5450Y1014D01*
X5447Y1017D01*
X5443Y1020D01*
D02*
G37*
%LPD*%
D12*
X4386Y701D02*
Y929D01*
X4869Y701D02*
Y929D01*
X4386D02*
X4869D01*
X4386Y701D02*
X4869D01*
X4498Y1194D02*
X4866D01*
X4498Y981D02*
X4866D01*
Y1194D01*
X4498Y981D02*
Y1194D01*
X3878Y1197D02*
X4246D01*
X3878Y983D02*
X4246D01*
Y1197D01*
X3878Y983D02*
Y1197D01*
X3834Y701D02*
Y929D01*
X4316Y701D02*
Y929D01*
X3834D02*
X4316D01*
X3834Y701D02*
X4316D01*
X6291Y2177D02*
X6367D01*
X6392Y2152D01*
Y2076D01*
X6291D01*
X6392Y2025D02*
X6291D01*
Y1949D01*
X6316Y1923D01*
X6392D01*
X6265Y1872D02*
X6240Y1847D01*
Y1796D01*
X6265Y1771D01*
X6367D01*
X6392Y1796D01*
Y1847D01*
X6367Y1872D01*
X6265D01*
X6291Y1720D02*
X6392D01*
X6341D01*
X6316Y1695D01*
X6291Y1669D01*
Y1644D01*
X6392Y1568D02*
Y1517D01*
Y1542D01*
X6291D01*
Y1568D01*
Y1339D02*
Y1415D01*
X6316Y1441D01*
X6367D01*
X6392Y1415D01*
Y1339D01*
Y1288D02*
X6240D01*
X6341D02*
X6291Y1212D01*
X6341Y1288D02*
X6392Y1212D01*
Y1136D02*
X6367D01*
Y1111D01*
X6392D01*
Y1136D01*
X6291Y908D02*
Y984D01*
X6316Y1009D01*
X6367D01*
X6392Y984D01*
Y908D01*
X6291Y755D02*
Y831D01*
X6316Y857D01*
X6367D01*
X6392Y831D01*
Y755D01*
X6135Y2172D02*
Y2121D01*
Y2147D01*
X5982D01*
Y2172D01*
X6135Y2045D02*
Y1994D01*
Y2020D01*
X6033D01*
Y2045D01*
X6008Y1893D02*
X6033D01*
Y1918D01*
Y1867D01*
Y1893D01*
X6109D01*
X6135Y1867D01*
X6008Y1791D02*
X5982Y1766D01*
Y1715D01*
X6008Y1690D01*
X6033D01*
X6058Y1715D01*
Y1740D01*
Y1715D01*
X6084Y1690D01*
X6109D01*
X6135Y1715D01*
Y1766D01*
X6109Y1791D01*
X6058Y1639D02*
Y1537D01*
X6008Y1487D02*
X5982Y1461D01*
Y1410D01*
X6008Y1385D01*
X6033D01*
X6058Y1410D01*
Y1436D01*
Y1410D01*
X6084Y1385D01*
X6109D01*
X6135Y1410D01*
Y1461D01*
X6109Y1487D01*
X6135Y1233D02*
Y1334D01*
X6033Y1233D01*
X6008D01*
X5982Y1258D01*
Y1309D01*
X6008Y1334D01*
D13*
X2371Y1543D02*
X2421D01*
X2371Y1382D02*
Y1543D01*
Y1382D02*
X2421D01*
Y1543D01*
X2456Y1552D02*
X2504D01*
X1808Y2012D02*
X2055D01*
X1808D02*
Y2188D01*
X2055D01*
D14*
X828Y794D02*
G03*
X828Y795I7J-1D01*
G01*
X2567Y287D02*
X2630D01*
Y240D01*
X2598D01*
X2630D01*
Y192D01*
X2535D02*
Y287D01*
X2488D01*
X2472Y272D01*
Y240D01*
X2488Y224D01*
X2535D01*
X2503D02*
X2472Y192D01*
X2440Y272D02*
X2424Y287D01*
X2393D01*
X2377Y272D01*
Y208D01*
X2393Y192D01*
X2424D01*
X2440Y208D01*
Y272D01*
X2345D02*
X2329Y287D01*
X2298D01*
X2282Y272D01*
Y208D01*
X2298Y192D01*
X2329D01*
X2345Y208D01*
Y272D01*
X2250D02*
X2234Y287D01*
X2203D01*
X2187Y272D01*
Y208D01*
X2203Y192D01*
X2234D01*
X2250Y208D01*
Y272D01*
X2155D02*
X2139Y287D01*
X2108D01*
X2092Y272D01*
Y208D01*
X2108Y192D01*
X2139D01*
X2155Y208D01*
Y272D01*
X2060Y192D02*
X2029D01*
X2044D01*
Y287D01*
X2060Y272D01*
X1918Y287D02*
X1949Y272D01*
X1981Y240D01*
Y208D01*
X1965Y192D01*
X1934D01*
X1918Y208D01*
Y224D01*
X1934Y240D01*
X1981D01*
D16*
X5160Y2125D02*
Y2255D01*
X5460D01*
Y2125D02*
Y2255D01*
X5160Y2125D02*
X5460D01*
X425Y2164D02*
X635D01*
Y2274D01*
X425D02*
X635D01*
X425Y2164D02*
Y2274D01*
X372Y2165D02*
Y2275D01*
X162Y2165D02*
X372D01*
X162D02*
Y2275D01*
X372D01*
X170Y2102D02*
X490D01*
X190Y1602D02*
X490D01*
X1243Y1923D02*
X1352D01*
X1243D02*
Y2133D01*
X1352D01*
Y1923D02*
Y2133D01*
X1112Y1923D02*
X1223D01*
X1112D02*
Y2133D01*
X1223D01*
Y1923D02*
Y2133D01*
X828Y1635D02*
X938D01*
Y1425D02*
Y1635D01*
X828Y1425D02*
X938D01*
X828D02*
Y1635D01*
X960Y1635D02*
X1070D01*
Y1425D02*
Y1635D01*
X960Y1425D02*
X1070D01*
X960D02*
Y1635D01*
X1462Y1660D02*
X1673D01*
Y1770D01*
X1462D02*
X1673D01*
X1462Y1660D02*
Y1770D01*
Y1792D02*
X1673D01*
Y1902D01*
X1462D02*
X1673D01*
X1462Y1792D02*
Y1902D01*
X982Y1923D02*
X1092D01*
X982D02*
Y2133D01*
X1092D01*
Y1923D02*
Y2133D01*
X1162Y1590D02*
X1273D01*
Y1380D02*
Y1590D01*
X1162Y1380D02*
X1273D01*
X1162D02*
Y1590D01*
X1455Y1923D02*
X1565D01*
X1455D02*
Y2133D01*
X1565D01*
Y1923D02*
Y2133D01*
X640Y778D02*
Y988D01*
X530D02*
X640D01*
X530Y778D02*
Y988D01*
Y778D02*
X640D01*
X918Y315D02*
Y525D01*
X807D02*
X918D01*
X807Y315D02*
Y525D01*
Y315D02*
X918D01*
X2315Y1588D02*
Y1698D01*
X2525D01*
Y1588D02*
Y1698D01*
X2315Y1588D02*
X2525D01*
X2365Y1132D02*
Y1243D01*
X2155Y1132D02*
X2365D01*
X2155D02*
Y1243D01*
X2365D01*
X1055Y317D02*
Y528D01*
X945D02*
X1055D01*
X945Y317D02*
Y528D01*
Y317D02*
X1055D01*
X1190D02*
Y528D01*
X1080D02*
X1190D01*
X1080Y317D02*
Y528D01*
Y317D02*
X1190D01*
X1335Y865D02*
X1445D01*
X1335D02*
Y1075D01*
X1445D01*
Y865D02*
Y1075D01*
X1470Y868D02*
X1580D01*
X1470D02*
Y1077D01*
X1580D01*
Y868D02*
Y1077D01*
X3360Y1842D02*
Y1952D01*
X3150Y1842D02*
X3360D01*
X3150D02*
Y1952D01*
X3360D01*
Y1712D02*
Y1823D01*
X3150Y1712D02*
X3360D01*
X3150D02*
Y1823D01*
X3360D01*
X3187Y865D02*
X3297D01*
X3187D02*
Y1075D01*
X3297D01*
Y865D02*
Y1075D01*
X3322Y865D02*
X3432D01*
X3322D02*
Y1075D01*
X3432D01*
Y865D02*
Y1075D01*
X3215Y2092D02*
X3325D01*
X3215D02*
Y2302D01*
X3325D01*
Y2092D02*
Y2302D01*
X2127Y1368D02*
X2238D01*
X2127D02*
Y1577D01*
X2238D01*
Y1368D02*
Y1577D01*
X2555Y1352D02*
X2665D01*
X2555D02*
Y1562D01*
X2665D01*
Y1352D02*
Y1562D01*
X5160Y1960D02*
Y2090D01*
X5460D01*
Y1960D02*
Y2090D01*
X5160Y1960D02*
X5460D01*
X4590Y2123D02*
Y2252D01*
X4890D01*
Y2123D02*
Y2252D01*
X4590Y2123D02*
X4890D01*
X4590Y1912D02*
Y2042D01*
X4890D01*
Y1912D02*
Y2042D01*
X4590Y1912D02*
X4890D01*
X468Y1540D02*
X578D01*
Y1330D02*
Y1540D01*
X468Y1330D02*
X578D01*
X468D02*
Y1540D01*
D17*
X2790Y925D02*
X3130D01*
Y1115D01*
X2790D02*
X3130D01*
X2790Y925D02*
Y1115D01*
X738Y743D02*
X1077D01*
X738Y553D02*
Y743D01*
Y553D02*
X1077D01*
Y743D01*
X3117Y1802D02*
Y1992D01*
X2777Y1802D02*
X3117D01*
X2777D02*
Y1992D01*
X3117D01*
D18*
X810Y782D02*
Y935D01*
X808Y780D02*
X810Y782D01*
X678Y780D02*
X808D01*
X678Y782D02*
Y935D01*
X680Y935D02*
X810D01*
D22*
X2560Y949D02*
Y1024D01*
X2522D01*
X2510Y1011D01*
Y961D01*
X2522Y949D01*
X2560D01*
X2435Y961D02*
X2447Y949D01*
X2472D01*
X2485Y961D01*
Y1011D01*
X2472Y1024D01*
X2447D01*
X2435Y1011D01*
Y986D01*
X2460D01*
D23*
X394Y1567D02*
Y1555D01*
X371Y1532D01*
X347Y1555D01*
Y1567D01*
X371Y1532D02*
Y1497D01*
X324D02*
X301D01*
X313D01*
Y1567D01*
X324Y1555D01*
X792Y1032D02*
Y974D01*
X780Y963D01*
X757D01*
X745Y974D01*
Y1032D01*
X722Y963D02*
X698D01*
X710D01*
Y1032D01*
X722Y1021D01*
X848Y2183D02*
Y2252D01*
X813D01*
X802Y2241D01*
Y2217D01*
X813Y2206D01*
X848D01*
X825D02*
X802Y2183D01*
X732D02*
X778D01*
X732Y2229D01*
Y2241D01*
X743Y2252D01*
X767D01*
X778Y2241D01*
X662Y2252D02*
X708D01*
Y2217D01*
X685Y2229D01*
X673D01*
X662Y2217D01*
Y2194D01*
X673Y2183D01*
X697D01*
X708Y2194D01*
X67Y2250D02*
X55Y2261D01*
Y2285D01*
X67Y2296D01*
X113D01*
X125Y2285D01*
Y2261D01*
X113Y2250D01*
X55Y2180D02*
Y2226D01*
X90D01*
X78Y2203D01*
Y2191D01*
X90Y2180D01*
X113D01*
X125Y2191D01*
Y2215D01*
X113Y2226D01*
X55Y2156D02*
Y2110D01*
X67D01*
X113Y2156D01*
X125D01*
X567Y1283D02*
X578Y1295D01*
X602D01*
X613Y1283D01*
Y1237D01*
X602Y1225D01*
X578D01*
X567Y1237D01*
X497Y1295D02*
X543D01*
Y1260D01*
X520Y1272D01*
X508D01*
X497Y1260D01*
Y1237D01*
X508Y1225D01*
X532D01*
X543Y1237D01*
X427Y1295D02*
X450Y1283D01*
X473Y1260D01*
Y1237D01*
X462Y1225D01*
X438D01*
X427Y1237D01*
Y1248D01*
X438Y1260D01*
X473D01*
X5667Y2160D02*
Y2230D01*
X5632D01*
X5621Y2218D01*
Y2195D01*
X5632Y2183D01*
X5667D01*
X5644D02*
X5621Y2160D01*
X5597D02*
X5574D01*
X5586D01*
Y2230D01*
X5597Y2218D01*
X5539D02*
X5528Y2230D01*
X5504D01*
X5493Y2218D01*
Y2172D01*
X5504Y2160D01*
X5528D01*
X5539Y2172D01*
Y2218D01*
X5046Y1943D02*
Y2012D01*
X5011D01*
X4999Y2001D01*
Y1977D01*
X5011Y1966D01*
X5046D01*
X5022D02*
X4999Y1943D01*
X4976Y1954D02*
X4964Y1943D01*
X4941D01*
X4929Y1954D01*
Y2001D01*
X4941Y2012D01*
X4964D01*
X4976Y2001D01*
Y1989D01*
X4964Y1977D01*
X4929D01*
X5043Y2155D02*
Y2225D01*
X5008D01*
X4997Y2213D01*
Y2190D01*
X5008Y2178D01*
X5043D01*
X5020D02*
X4997Y2155D01*
X4973Y2213D02*
X4962Y2225D01*
X4938D01*
X4927Y2213D01*
Y2202D01*
X4938Y2190D01*
X4927Y2178D01*
Y2167D01*
X4938Y2155D01*
X4962D01*
X4973Y2167D01*
Y2178D01*
X4962Y2190D01*
X4973Y2202D01*
Y2213D01*
X4962Y2190D02*
X4938D01*
X5606Y1975D02*
Y2045D01*
X5571D01*
X5559Y2033D01*
Y2010D01*
X5571Y1998D01*
X5606D01*
X5582D02*
X5559Y1975D01*
X5501D02*
Y2045D01*
X5536Y2010D01*
X5489D01*
X2767Y1550D02*
X2698D01*
Y1515D01*
X2709Y1503D01*
X2733D01*
X2744Y1515D01*
Y1550D01*
Y1527D02*
X2767Y1503D01*
Y1480D02*
Y1457D01*
Y1468D01*
X2698D01*
X2709Y1480D01*
X2767Y1375D02*
Y1422D01*
X2721Y1375D01*
X2709D01*
X2698Y1387D01*
Y1410D01*
X2709Y1422D01*
X2256Y1608D02*
Y1677D01*
X2221D01*
X2209Y1666D01*
Y1642D01*
X2221Y1631D01*
X2256D01*
X2232D02*
X2209Y1608D01*
X2186D02*
X2163D01*
X2174D01*
Y1677D01*
X2186Y1666D01*
X2128Y1608D02*
X2104D01*
X2116D01*
Y1677D01*
X2128Y1666D01*
X3427Y2243D02*
X3358D01*
Y2208D01*
X3369Y2197D01*
X3392D01*
X3404Y2208D01*
Y2243D01*
Y2220D02*
X3427Y2197D01*
X3369Y2173D02*
X3358Y2162D01*
Y2138D01*
X3369Y2127D01*
X3381D01*
X3392Y2138D01*
Y2150D01*
Y2138D01*
X3404Y2127D01*
X3416D01*
X3427Y2138D01*
Y2162D01*
X3416Y2173D01*
X3011Y900D02*
Y830D01*
X2964D01*
X2894Y900D02*
X2918Y888D01*
X2941Y865D01*
Y842D01*
X2929Y830D01*
X2906D01*
X2894Y842D01*
Y853D01*
X2906Y865D01*
X2941D01*
X2678Y1966D02*
X2747D01*
Y1919D01*
X2678Y1849D02*
Y1896D01*
X2712D01*
X2701Y1873D01*
Y1861D01*
X2712Y1849D01*
X2736D01*
X2747Y1861D01*
Y1884D01*
X2736Y1896D01*
X996Y837D02*
Y768D01*
X949D01*
X891D02*
Y837D01*
X926Y802D01*
X879D01*
X2477Y1352D02*
X2454D01*
X2466D01*
Y1283D01*
X2477D01*
X2454D01*
X2373Y1341D02*
X2384Y1352D01*
X2407D01*
X2419Y1341D01*
Y1294D01*
X2407Y1283D01*
X2384D01*
X2373Y1294D01*
X2349Y1341D02*
X2338Y1352D01*
X2314D01*
X2303Y1341D01*
Y1329D01*
X2314Y1318D01*
X2326D01*
X2314D01*
X2303Y1306D01*
Y1294D01*
X2314Y1283D01*
X2338D01*
X2349Y1294D01*
X2232Y2137D02*
Y2068D01*
X2197D01*
X2185Y2079D01*
Y2126D01*
X2197Y2137D01*
X2232D01*
X2162Y2068D02*
X2138D01*
X2150D01*
Y2137D01*
X2162Y2126D01*
X5059Y838D02*
X5071Y850D01*
X5094D01*
X5106Y838D01*
Y792D01*
X5094Y780D01*
X5071D01*
X5059Y792D01*
X4989Y850D02*
X5036D01*
Y815D01*
X5012Y827D01*
X5001D01*
X4989Y815D01*
Y792D01*
X5001Y780D01*
X5024D01*
X5036Y792D01*
X4919Y850D02*
X4966D01*
Y815D01*
X4943Y827D01*
X4931D01*
X4919Y815D01*
Y792D01*
X4931Y780D01*
X4954D01*
X4966Y792D01*
X4784Y1301D02*
X4796Y1312D01*
X4819D01*
X4831Y1301D01*
Y1254D01*
X4819Y1243D01*
X4796D01*
X4784Y1254D01*
X4714Y1312D02*
X4761D01*
Y1277D01*
X4738Y1289D01*
X4726D01*
X4714Y1277D01*
Y1254D01*
X4726Y1243D01*
X4749D01*
X4761Y1254D01*
X4656Y1243D02*
Y1312D01*
X4691Y1277D01*
X4644D01*
X3349Y802D02*
X3338Y813D01*
Y837D01*
X3349Y848D01*
X3396D01*
X3407Y837D01*
Y813D01*
X3396Y802D01*
X3338Y732D02*
Y778D01*
X3372D01*
X3361Y755D01*
Y743D01*
X3372Y732D01*
X3396D01*
X3407Y743D01*
Y767D01*
X3396Y778D01*
X3349Y708D02*
X3338Y697D01*
Y673D01*
X3349Y662D01*
X3361D01*
X3372Y673D01*
Y685D01*
Y673D01*
X3384Y662D01*
X3396D01*
X3407Y673D01*
Y697D01*
X3396Y708D01*
X3217Y794D02*
X3205Y806D01*
Y829D01*
X3217Y841D01*
X3263D01*
X3275Y829D01*
Y806D01*
X3263Y794D01*
X3205Y724D02*
Y771D01*
X3240D01*
X3228Y747D01*
Y736D01*
X3240Y724D01*
X3263D01*
X3275Y736D01*
Y759D01*
X3263Y771D01*
X3275Y654D02*
Y701D01*
X3228Y654D01*
X3217D01*
X3205Y666D01*
Y689D01*
X3217Y701D01*
X3287Y1678D02*
X3299Y1690D01*
X3322D01*
X3334Y1678D01*
Y1632D01*
X3322Y1620D01*
X3299D01*
X3287Y1632D01*
X3218Y1690D02*
X3264D01*
Y1655D01*
X3241Y1667D01*
X3229D01*
X3218Y1655D01*
Y1632D01*
X3229Y1620D01*
X3253D01*
X3264Y1632D01*
X3194Y1620D02*
X3171D01*
X3183D01*
Y1690D01*
X3194Y1678D01*
X3314Y2036D02*
X3326Y2047D01*
X3349D01*
X3361Y2036D01*
Y1989D01*
X3349Y1978D01*
X3326D01*
X3314Y1989D01*
X3244Y2047D02*
X3291D01*
Y2012D01*
X3267Y2024D01*
X3256D01*
X3244Y2012D01*
Y1989D01*
X3256Y1978D01*
X3279D01*
X3291Y1989D01*
X3221Y2036D02*
X3209Y2047D01*
X3186D01*
X3174Y2036D01*
Y1989D01*
X3186Y1978D01*
X3209D01*
X3221Y1989D01*
Y2036D01*
X3739Y821D02*
X3751Y832D01*
X3774D01*
X3786Y821D01*
Y774D01*
X3774Y763D01*
X3751D01*
X3739Y774D01*
X3681Y763D02*
Y832D01*
X3716Y797D01*
X3669D01*
X3599Y832D02*
X3646D01*
Y797D01*
X3623Y809D01*
X3611D01*
X3599Y797D01*
Y774D01*
X3611Y763D01*
X3634D01*
X3646Y774D01*
X3787Y1113D02*
X3798Y1125D01*
X3822D01*
X3833Y1113D01*
Y1067D01*
X3822Y1055D01*
X3798D01*
X3787Y1067D01*
X3728Y1055D02*
Y1125D01*
X3763Y1090D01*
X3717D01*
X3658Y1055D02*
Y1125D01*
X3693Y1090D01*
X3647D01*
X1617Y1027D02*
X1605Y1038D01*
Y1062D01*
X1617Y1073D01*
X1663D01*
X1675Y1062D01*
Y1038D01*
X1663Y1027D01*
X1675Y968D02*
X1605D01*
X1640Y1003D01*
Y957D01*
X1617Y933D02*
X1605Y922D01*
Y898D01*
X1617Y887D01*
X1628D01*
X1640Y898D01*
Y910D01*
Y898D01*
X1652Y887D01*
X1663D01*
X1675Y898D01*
Y922D01*
X1663Y933D01*
X1247Y1029D02*
X1235Y1041D01*
Y1064D01*
X1247Y1076D01*
X1293D01*
X1305Y1064D01*
Y1041D01*
X1293Y1029D01*
X1305Y971D02*
X1235D01*
X1270Y1006D01*
Y959D01*
X1305Y889D02*
Y936D01*
X1258Y889D01*
X1247D01*
X1235Y901D01*
Y924D01*
X1247Y936D01*
X1119Y232D02*
X1108Y243D01*
Y267D01*
X1119Y278D01*
X1166D01*
X1177Y267D01*
Y243D01*
X1166Y232D01*
X1119Y208D02*
X1108Y197D01*
Y173D01*
X1119Y162D01*
X1131D01*
X1142Y173D01*
Y185D01*
Y173D01*
X1154Y162D01*
X1166D01*
X1177Y173D01*
Y197D01*
X1166Y208D01*
X1177Y103D02*
X1108D01*
X1142Y138D01*
Y92D01*
X967Y229D02*
X955Y241D01*
Y264D01*
X967Y276D01*
X1013D01*
X1025Y264D01*
Y241D01*
X1013Y229D01*
X967Y206D02*
X955Y194D01*
Y171D01*
X967Y159D01*
X978D01*
X990Y171D01*
Y183D01*
Y171D01*
X1002Y159D01*
X1013D01*
X1025Y171D01*
Y194D01*
X1013Y206D01*
X967Y136D02*
X955Y124D01*
Y101D01*
X967Y89D01*
X978D01*
X990Y101D01*
Y113D01*
Y101D01*
X1002Y89D01*
X1013D01*
X1025Y101D01*
Y124D01*
X1013Y136D01*
X2081Y1211D02*
X2092Y1222D01*
X2116D01*
X2127Y1211D01*
Y1164D01*
X2116Y1153D01*
X2092D01*
X2081Y1164D01*
X2057Y1153D02*
X2034D01*
X2046D01*
Y1222D01*
X2057Y1211D01*
X1999Y1222D02*
X1953D01*
Y1211D01*
X1999Y1164D01*
Y1153D01*
X2458Y1776D02*
X2470Y1787D01*
X2493D01*
X2505Y1776D01*
Y1729D01*
X2493Y1718D01*
X2470D01*
X2458Y1729D01*
X2435Y1718D02*
X2412D01*
X2423D01*
Y1787D01*
X2435Y1776D01*
X2330Y1787D02*
X2377D01*
Y1753D01*
X2353Y1764D01*
X2342D01*
X2330Y1753D01*
Y1729D01*
X2342Y1718D01*
X2365D01*
X2377Y1729D01*
X832Y229D02*
X820Y241D01*
Y264D01*
X832Y276D01*
X878D01*
X890Y264D01*
Y241D01*
X878Y229D01*
X890Y206D02*
Y183D01*
Y194D01*
X820D01*
X832Y206D01*
X890Y148D02*
Y124D01*
Y136D01*
X820D01*
X832Y148D01*
X621Y1081D02*
X632Y1092D01*
X656D01*
X667Y1081D01*
Y1034D01*
X656Y1023D01*
X632D01*
X621Y1034D01*
X597Y1023D02*
X574D01*
X586D01*
Y1092D01*
X597Y1081D01*
X539D02*
X528Y1092D01*
X504D01*
X493Y1081D01*
Y1034D01*
X504Y1023D01*
X528D01*
X539Y1034D01*
Y1081D01*
X1522Y2218D02*
X1533Y2230D01*
X1557D01*
X1568Y2218D01*
Y2172D01*
X1557Y2160D01*
X1533D01*
X1522Y2172D01*
X1498D02*
X1487Y2160D01*
X1463D01*
X1452Y2172D01*
Y2218D01*
X1463Y2230D01*
X1487D01*
X1498Y2218D01*
Y2207D01*
X1487Y2195D01*
X1452D01*
X1309Y1502D02*
X1298Y1513D01*
Y1537D01*
X1309Y1548D01*
X1356D01*
X1367Y1537D01*
Y1513D01*
X1356Y1502D01*
X1309Y1478D02*
X1298Y1467D01*
Y1443D01*
X1309Y1432D01*
X1321D01*
X1332Y1443D01*
X1344Y1432D01*
X1356D01*
X1367Y1443D01*
Y1467D01*
X1356Y1478D01*
X1344D01*
X1332Y1467D01*
X1321Y1478D01*
X1309D01*
X1332Y1467D02*
Y1443D01*
X1052Y2216D02*
X1063Y2227D01*
X1087D01*
X1098Y2216D01*
Y2169D01*
X1087Y2158D01*
X1063D01*
X1052Y2169D01*
X1028Y2227D02*
X982D01*
Y2216D01*
X1028Y2169D01*
Y2158D01*
X1384Y1871D02*
X1396Y1882D01*
X1419D01*
X1431Y1871D01*
Y1824D01*
X1419Y1813D01*
X1396D01*
X1384Y1824D01*
X1314Y1882D02*
X1338Y1871D01*
X1361Y1848D01*
Y1824D01*
X1349Y1813D01*
X1326D01*
X1314Y1824D01*
Y1836D01*
X1326Y1848D01*
X1361D01*
X1387Y1738D02*
X1398Y1750D01*
X1422D01*
X1433Y1738D01*
Y1692D01*
X1422Y1680D01*
X1398D01*
X1387Y1692D01*
X1317Y1750D02*
X1363D01*
Y1715D01*
X1340Y1727D01*
X1328D01*
X1317Y1715D01*
Y1692D01*
X1328Y1680D01*
X1352D01*
X1363Y1692D01*
X994Y1734D02*
X983Y1746D01*
Y1769D01*
X994Y1781D01*
X1041D01*
X1052Y1769D01*
Y1746D01*
X1041Y1734D01*
X1052Y1676D02*
X983D01*
X1018Y1711D01*
Y1664D01*
X849Y1739D02*
X838Y1751D01*
Y1774D01*
X849Y1786D01*
X896D01*
X907Y1774D01*
Y1751D01*
X896Y1739D01*
X849Y1716D02*
X838Y1704D01*
Y1681D01*
X849Y1669D01*
X861D01*
X872Y1681D01*
Y1693D01*
Y1681D01*
X884Y1669D01*
X896D01*
X907Y1681D01*
Y1704D01*
X896Y1716D01*
X1189Y1883D02*
X1201Y1895D01*
X1224D01*
X1236Y1883D01*
Y1837D01*
X1224Y1825D01*
X1201D01*
X1189Y1837D01*
X1119Y1825D02*
X1166D01*
X1119Y1872D01*
Y1883D01*
X1131Y1895D01*
X1154D01*
X1166Y1883D01*
X1300Y2218D02*
X1312Y2230D01*
X1335D01*
X1347Y2218D01*
Y2172D01*
X1335Y2160D01*
X1312D01*
X1300Y2172D01*
X1277Y2160D02*
X1253D01*
X1265D01*
Y2230D01*
X1277Y2218D01*
M02*
