G04*
G04 #@! TF.GenerationSoftware,Altium Limited,Altium Designer,20.2.5 (213)*
G04*
G04 Layer_Color=8421504*
%FSLAX42Y42*%
%MOMM*%
G71*
G04*
G04 #@! TF.SameCoordinates,0AE3A023-6BB7-4A84-8F3F-E2DF2112AB30*
G04*
G04*
G04 #@! TF.FilePolarity,Positive*
G04*
G01*
G75*
%ADD24R,1.20X0.75*%
%ADD25R,1.30X0.70*%
%ADD26R,1.50X0.55*%
%ADD27R,0.75X1.63*%
%ADD28R,0.35X0.95*%
%ADD29R,0.95X0.35*%
%ADD30R,5.60X5.60*%
%ADD31R,0.91X0.40*%
%ADD32R,0.40X0.91*%
%ADD33R,3.35X3.35*%
%ADD34R,0.95X1.05*%
%ADD35R,1.20X1.50*%
%ADD36R,1.55X0.80*%
%ADD37C,0.30*%
%ADD38R,1.70X5.00*%
%ADD39R,0.80X2.45*%
%ADD40R,0.70X0.60*%
%ADD41R,0.60X0.70*%
%ADD42R,0.75X1.20*%
%ADD43R,3.35X3.35*%
%ADD44R,1.35X1.00*%
%ADD45R,1.00X1.35*%
%ADD46R,0.24X0.21*%
%ADD47P,0.82X4X270.0*%
%ADD48C,1.10*%
D24*
X5440Y1009D02*
D03*
Y816D02*
D03*
X5650Y912D02*
D03*
X4338Y1016D02*
D03*
X4547Y1112D02*
D03*
Y920D02*
D03*
D25*
X5945Y1895D02*
D03*
Y1990D02*
D03*
Y2085D02*
D03*
X6195D02*
D03*
Y1990D02*
D03*
Y1895D02*
D03*
D26*
X2058Y1102D02*
D03*
Y1038D02*
D03*
Y973D02*
D03*
Y907D02*
D03*
X2498D02*
D03*
Y973D02*
D03*
Y1038D02*
D03*
Y1102D02*
D03*
D27*
X2493Y1574D02*
D03*
X2366D02*
D03*
X2239D02*
D03*
X2112D02*
D03*
Y2116D02*
D03*
X2239D02*
D03*
X2366D02*
D03*
X2493D02*
D03*
D28*
X1015Y1443D02*
D03*
X1065D02*
D03*
X1115D02*
D03*
X1165D02*
D03*
X1215D02*
D03*
X1265D02*
D03*
X1315D02*
D03*
X1365D02*
D03*
X1415D02*
D03*
X1465D02*
D03*
X1515D02*
D03*
X1565D02*
D03*
Y2133D02*
D03*
X1515D02*
D03*
X1465D02*
D03*
X1415D02*
D03*
X1365D02*
D03*
X1315D02*
D03*
X1265D02*
D03*
X1215D02*
D03*
X1165D02*
D03*
X1115D02*
D03*
X1065D02*
D03*
X1015D02*
D03*
D29*
X1635Y1512D02*
D03*
Y1562D02*
D03*
Y1612D02*
D03*
Y1662D02*
D03*
Y1712D02*
D03*
Y1762D02*
D03*
Y1812D02*
D03*
Y1862D02*
D03*
Y1912D02*
D03*
Y1962D02*
D03*
Y2012D02*
D03*
Y2062D02*
D03*
X945D02*
D03*
Y2012D02*
D03*
Y1962D02*
D03*
Y1912D02*
D03*
Y1862D02*
D03*
Y1812D02*
D03*
Y1762D02*
D03*
Y1712D02*
D03*
Y1662D02*
D03*
Y1612D02*
D03*
Y1562D02*
D03*
Y1512D02*
D03*
D30*
X1290Y1788D02*
D03*
D31*
X1716Y620D02*
D03*
Y671D02*
D03*
Y719D02*
D03*
Y770D02*
D03*
Y820D02*
D03*
Y871D02*
D03*
Y919D02*
D03*
Y970D02*
D03*
X1239D02*
D03*
Y919D02*
D03*
Y871D02*
D03*
Y820D02*
D03*
Y770D02*
D03*
Y719D02*
D03*
Y671D02*
D03*
Y620D02*
D03*
X3159Y1367D02*
D03*
Y1418D02*
D03*
Y1466D02*
D03*
Y1517D02*
D03*
Y1568D02*
D03*
Y1619D02*
D03*
Y1667D02*
D03*
Y1718D02*
D03*
X3636D02*
D03*
Y1667D02*
D03*
Y1619D02*
D03*
Y1568D02*
D03*
Y1517D02*
D03*
Y1466D02*
D03*
Y1418D02*
D03*
Y1367D02*
D03*
D32*
X1653Y1034D02*
D03*
X1602D02*
D03*
X1554D02*
D03*
X1503D02*
D03*
X1452D02*
D03*
X1401D02*
D03*
X1353D02*
D03*
X1302D02*
D03*
Y556D02*
D03*
X1353D02*
D03*
X1401D02*
D03*
X1452D02*
D03*
X1503D02*
D03*
X1554D02*
D03*
X1602D02*
D03*
X1653D02*
D03*
X3222Y1781D02*
D03*
X3273D02*
D03*
X3321D02*
D03*
X3372D02*
D03*
X3423D02*
D03*
X3474D02*
D03*
X3522D02*
D03*
X3573D02*
D03*
Y1304D02*
D03*
X3522D02*
D03*
X3474D02*
D03*
X3423D02*
D03*
X3372D02*
D03*
X3321D02*
D03*
X3273D02*
D03*
X3222D02*
D03*
D33*
X1477Y795D02*
D03*
D34*
X5158Y2190D02*
D03*
X5318D02*
D03*
X5158Y1973D02*
D03*
X5318D02*
D03*
X4680Y2190D02*
D03*
X4840D02*
D03*
X4678Y1980D02*
D03*
X4838D02*
D03*
D35*
X132Y1394D02*
D03*
X292D02*
D03*
X132Y1694D02*
D03*
X292D02*
D03*
D36*
X5857Y1132D02*
D03*
Y927D02*
D03*
X6372Y1132D02*
D03*
Y927D02*
D03*
X5857Y1522D02*
D03*
Y1317D02*
D03*
X6372Y1522D02*
D03*
Y1317D02*
D03*
D37*
X5195Y845D02*
D03*
X5145D02*
D03*
X5095D02*
D03*
X5045D02*
D03*
X4995D02*
D03*
X4945D02*
D03*
X4895D02*
D03*
X4845D02*
D03*
X4795D02*
D03*
X4945Y1195D02*
D03*
X5095Y1245D02*
D03*
X4945D02*
D03*
X5145Y1445D02*
D03*
X4845D02*
D03*
X5195Y1495D02*
D03*
X5145D02*
D03*
X5095D02*
D03*
X5045D02*
D03*
X4945D02*
D03*
X4895D02*
D03*
X4845D02*
D03*
X4795D02*
D03*
D38*
X3027Y292D02*
D03*
X3878D02*
D03*
X4867Y288D02*
D03*
X5717D02*
D03*
D39*
X3453Y135D02*
D03*
X5292Y130D02*
D03*
D40*
X233Y875D02*
D03*
Y980D02*
D03*
X593Y995D02*
D03*
Y890D02*
D03*
X1325Y117D02*
D03*
Y222D02*
D03*
X1190Y118D02*
D03*
Y222D02*
D03*
X1055Y117D02*
D03*
Y222D02*
D03*
X2895Y1412D02*
D03*
Y1307D02*
D03*
X2765D02*
D03*
Y1412D02*
D03*
X1602Y223D02*
D03*
Y118D02*
D03*
X2602Y418D02*
D03*
Y313D02*
D03*
X2460Y417D02*
D03*
Y312D02*
D03*
X3353Y945D02*
D03*
Y840D02*
D03*
X3490Y945D02*
D03*
Y840D02*
D03*
X3620Y945D02*
D03*
Y840D02*
D03*
X5418Y1585D02*
D03*
Y1480D02*
D03*
X4572Y1383D02*
D03*
Y1488D02*
D03*
X3280Y2240D02*
D03*
Y2135D02*
D03*
X3420Y2240D02*
D03*
Y2135D02*
D03*
X1460Y118D02*
D03*
Y222D02*
D03*
X3183Y945D02*
D03*
Y840D02*
D03*
X2602Y555D02*
D03*
Y660D02*
D03*
X2462Y555D02*
D03*
Y660D02*
D03*
D41*
X6035Y2243D02*
D03*
X6140D02*
D03*
X2130Y2292D02*
D03*
X2235D02*
D03*
X3282Y690D02*
D03*
X3177D02*
D03*
X3425Y693D02*
D03*
X3530D02*
D03*
X2138Y675D02*
D03*
X2033D02*
D03*
X5040Y1693D02*
D03*
X4935D02*
D03*
X4120Y1505D02*
D03*
X4015D02*
D03*
X4120Y1375D02*
D03*
X4015D02*
D03*
X2833Y1773D02*
D03*
X2938D02*
D03*
X2833Y1642D02*
D03*
X2937D02*
D03*
X4015Y1635D02*
D03*
X4120D02*
D03*
X4117Y1765D02*
D03*
X4012D02*
D03*
X4117Y1895D02*
D03*
X4012D02*
D03*
X285Y1985D02*
D03*
X390D02*
D03*
X525Y1983D02*
D03*
X630D02*
D03*
X528Y1715D02*
D03*
X633D02*
D03*
X1315Y2305D02*
D03*
X1420D02*
D03*
X528Y1853D02*
D03*
X633D02*
D03*
X2375Y2290D02*
D03*
X2480D02*
D03*
X2270Y1380D02*
D03*
X2375D02*
D03*
X1752Y265D02*
D03*
X1857D02*
D03*
X1748Y117D02*
D03*
X1852D02*
D03*
X5552Y1182D02*
D03*
X5657D02*
D03*
X5550Y1350D02*
D03*
X5655D02*
D03*
X4117Y2025D02*
D03*
X4012D02*
D03*
D42*
X4025Y995D02*
D03*
X4121Y785D02*
D03*
X3929D02*
D03*
D43*
X3397Y1543D02*
D03*
D44*
X2780Y130D02*
D03*
Y310D02*
D03*
X2275Y130D02*
D03*
Y310D02*
D03*
D45*
X4097Y1193D02*
D03*
X3917D02*
D03*
D46*
X465Y930D02*
D03*
Y995D02*
D03*
X370D02*
D03*
X370Y930D02*
D03*
D47*
X418Y962D02*
D03*
D48*
X2498Y1270D02*
D03*
M02*
