M48
;Layer_Color=9474304
;FILE_FORMAT=4:2
METRIC,LZ
;TYPE=PLATED
T1F00S00C0.30
T2F00S00C0.90
;TYPE=NON_PLATED
T3F00S00C2.80
%
T01
X00203Y0008
X002233Y000915
X002505Y000765
X00264
X002802Y000632
X003205Y00054
X003453Y000405
X00374Y0004
X003715Y000912
X005492Y000657
X00181Y00057
X001815Y00075
X001535Y000768
Y00071
X00147
Y000768
X00147Y000825
X001535
X001405
Y000768
Y00071
X001145Y000668
X001125Y000588
X001138Y000768
X001073Y000823
X00109Y00092
X000418Y000827
Y000738
X000795Y000077
X001365Y000362
X001504Y000446
X00167Y00045
X001605Y001145
X001557Y001193
X001402Y001165
X001452Y001115
X001301Y001133
X001217Y001185
X001218Y001262
X00122Y001343
X001055Y001318
X000993Y00135
X001112Y001252
X001095Y001052
X00086Y001227
X00078Y001465
X00078Y001598
X000753Y001723
X000778Y0018
X000765Y002075
X000838Y002077
X000848Y002323
X00094Y00225
X001085Y00234
X001165Y002308
Y002238
X001223Y002345
X001665Y002292
X001738Y002325
X001725Y002108
X001762Y002035
X001725Y001962
X001753Y001764
X001808Y001813
X001833Y001708
X001899Y001432
X001905Y001207
X001817Y001201
X001433Y001318
X001512Y00156
Y001617
X001227Y001735
X00117Y001738
X001112Y001738
Y001677
X001065Y001865
X00005Y001835
X000215Y002312
X000397Y002311
X000603Y001152
X000177Y001073
X002213Y00109
X002317Y001088
X002498Y00116
X002862Y001155
X003265Y001148
X003285Y001464
X003353
X003435
X003505
X003505Y001568
X003435
X003353
X003283Y001568
X003042Y001617
X002597
X002698Y002038
Y002138
X002875Y00224
X002908Y00206
X003017Y002062
X00312Y002042
X003098Y002248
X003342Y002335
X0036Y002188
X003685Y002098
Y002013
X003495Y002048
X00409Y002112
X004462Y00208
X004547Y002093
X004383Y001742
X004412Y00166
X004292Y001655
X004352Y00158
X004235Y001562
X004217Y001362
X004285Y001293
X004325Y001082
X004572Y001285
X0047Y001593
X004967Y001804
X005042Y001833
X00513Y001842
X005288Y00184
X00536Y001833
X005775Y00183
X005772Y00159
X005858Y001402
X005855Y00122
X005858Y001018
X00563Y001435
X005515Y0021
X005788Y002088
X005433Y002323
X005285Y002333
X005167Y002335
X005115Y002277
X00497Y00098
X003785Y001312
X00371Y0013
X003565Y001215
X002208Y001282
X002055Y001309
X002017Y001408
X00195Y001493
X001967Y00156
X001912Y001615
X001916Y001712
X00193Y001908
X002135Y001965
X002027Y002233
X006233Y002242
T02
X004145Y000177
Y000432
X004593Y000434
Y00018
X001857Y002523
Y002777
X001603
X001349
X001095
X000841
Y002523
X001095
X001349
X001603
X002111
Y002777
X002365
X002619
X002873
X003127
X003381
X003635
X003889
Y002523
X003635
X003381
X003127
X002873
X002619
X002365
X004143
X004397
X004651
X004905
X005159
X005413
X005667
Y002777
X005413
X005159
X004905
X004651
X004397
X004143
T03
X00615Y00035
X00035
Y00265
X00615
M30
