G04*
G04 #@! TF.GenerationSoftware,Altium Limited,Altium Designer,20.2.5 (213)*
G04*
G04 Layer_Color=2752767*
%FSLAX42Y42*%
%MOMM*%
G71*
G04*
G04 #@! TF.SameCoordinates,0AE3A023-6BB7-4A84-8F3F-E2DF2112AB30*
G04*
G04*
G04 #@! TF.FilePolarity,Positive*
G04*
G01*
G75*
%ADD134C,0.05*%
%ADD135C,0.07*%
D134*
X4123Y2756D02*
Y2797D01*
X4164D01*
Y2756D01*
X4123D01*
X4377D02*
Y2797D01*
X4418D01*
Y2756D01*
X4377D01*
X4631D02*
Y2797D01*
X4672D01*
Y2756D01*
X4631D01*
X4885D02*
Y2797D01*
X4926D01*
Y2756D01*
X4885D01*
X5647D02*
Y2797D01*
X5688D01*
Y2756D01*
X5647D01*
X5393D02*
Y2797D01*
X5434D01*
Y2756D01*
X5393D01*
X5139D02*
Y2797D01*
X5180D01*
Y2756D01*
X5139D01*
Y2502D02*
Y2543D01*
X5180D01*
Y2502D01*
X5139D01*
X5393D02*
Y2543D01*
X5434D01*
Y2502D01*
X5393D01*
X5647D02*
Y2543D01*
X5688D01*
Y2502D01*
X5647D01*
X4885D02*
Y2543D01*
X4926D01*
Y2502D01*
X4885D01*
X4631D02*
Y2543D01*
X4672D01*
Y2502D01*
X4631D01*
X4377D02*
Y2543D01*
X4418D01*
Y2502D01*
X4377D01*
X4123D02*
Y2543D01*
X4164D01*
Y2502D01*
X4123D01*
X821D02*
Y2543D01*
X862D01*
Y2502D01*
X821D01*
X2091D02*
Y2543D01*
X2132D01*
Y2502D01*
X2091D01*
X1075D02*
Y2543D01*
X1116D01*
Y2502D01*
X1075D01*
X2345D02*
Y2543D01*
X2386D01*
Y2502D01*
X2345D01*
X1329D02*
Y2543D01*
X1370D01*
Y2502D01*
X1329D01*
X2599D02*
Y2543D01*
X2640D01*
Y2502D01*
X2599D01*
X1583D02*
Y2543D01*
X1624D01*
Y2502D01*
X1583D01*
X2853D02*
Y2543D01*
X2894D01*
Y2502D01*
X2853D01*
X1837D02*
Y2543D01*
X1878D01*
Y2502D01*
X1837D01*
X3107D02*
Y2543D01*
X3148D01*
Y2502D01*
X3107D01*
X3869D02*
Y2543D01*
X3910D01*
Y2502D01*
X3869D01*
X3615D02*
Y2543D01*
X3656D01*
Y2502D01*
X3615D01*
X3361D02*
Y2543D01*
X3402D01*
Y2502D01*
X3361D01*
Y2756D02*
Y2797D01*
X3402D01*
Y2756D01*
X3361D01*
X3615D02*
Y2797D01*
X3656D01*
Y2756D01*
X3615D01*
X3869D02*
Y2797D01*
X3910D01*
Y2756D01*
X3869D01*
X3107D02*
Y2797D01*
X3148D01*
Y2756D01*
X3107D01*
X1837D02*
Y2797D01*
X1878D01*
Y2756D01*
X1837D01*
X2853D02*
Y2797D01*
X2894D01*
Y2756D01*
X2853D01*
X1583D02*
Y2797D01*
X1624D01*
Y2756D01*
X1583D01*
X2599D02*
Y2797D01*
X2640D01*
Y2756D01*
X2599D01*
X1329D02*
Y2797D01*
X1370D01*
Y2756D01*
X1329D01*
X2345D02*
Y2797D01*
X2386D01*
Y2756D01*
X2345D01*
X1075D02*
Y2797D01*
X1116D01*
Y2756D01*
X1075D01*
X2091D02*
Y2797D01*
X2132D01*
Y2756D01*
X2091D01*
X821D02*
Y2797D01*
X862D01*
Y2756D01*
X821D01*
X4572Y414D02*
Y454D01*
X4613D01*
Y414D01*
X4572D01*
Y160D02*
Y200D01*
X4613D01*
Y160D01*
X4572D01*
X4125Y411D02*
Y452D01*
X4165D01*
Y411D01*
X4125D01*
Y157D02*
Y198D01*
X4165D01*
Y157D01*
X4125D01*
X5492Y637D02*
X5472Y678D01*
X5513D01*
X5492Y637D01*
X5772Y1570D02*
X5752Y1610D01*
X5793D01*
X5772Y1570D01*
X1433Y1297D02*
X1412Y1338D01*
X1453D01*
X1433Y1297D01*
X5630Y1415D02*
X5610Y1455D01*
X5650D01*
X5630Y1415D01*
X3453Y385D02*
X3432Y425D01*
X3473D01*
X3453Y385D01*
X1405Y690D02*
X1385Y730D01*
X1425D01*
X1405Y690D01*
X1470Y805D02*
X1450Y845D01*
X1490D01*
X1470Y805D01*
X1470Y690D02*
X1450Y730D01*
X1490D01*
X1470Y690D01*
X2698Y2017D02*
X2678Y2058D01*
X2718D01*
X2698Y2017D01*
Y2118D02*
X2678Y2158D01*
X2718D01*
X2698Y2118D01*
X1753Y1743D02*
X1733Y1784D01*
X1773D01*
X1753Y1743D01*
X1808Y1792D02*
X1787Y1833D01*
X1828D01*
X1808Y1792D01*
X1762Y2015D02*
X1742Y2055D01*
X1783D01*
X1762Y2015D01*
X1725Y2087D02*
X1705Y2128D01*
X1745D01*
X1725Y2087D01*
Y1942D02*
X1705Y1983D01*
X1745D01*
X1725Y1942D01*
X2875Y2220D02*
X2855Y2260D01*
X2895D01*
X2875Y2220D01*
X2908Y2040D02*
X2887Y2080D01*
X2928D01*
X2908Y2040D01*
X3505Y1547D02*
X3485Y1588D01*
X3525D01*
X3505Y1547D01*
X3435D02*
X3415Y1588D01*
X3455D01*
X3435Y1547D01*
X3353D02*
X3332Y1588D01*
X3373D01*
X3353Y1547D01*
X3285Y1444D02*
X3265Y1485D01*
X3305D01*
X3285Y1444D01*
X3353D02*
X3332Y1485D01*
X3373D01*
X3353Y1444D01*
X3435D02*
X3415Y1485D01*
X3455D01*
X3435Y1444D01*
X3505D02*
X3485Y1485D01*
X3525D01*
X3505Y1444D01*
X4285Y1273D02*
X4264Y1313D01*
X4305D01*
X4285Y1273D01*
X4217Y1342D02*
X4197Y1382D01*
X4238D01*
X4217Y1342D01*
X3283Y1547D02*
X3262Y1588D01*
X3303D01*
X3283Y1547D01*
X2017Y1388D02*
X1996Y1428D01*
X2037D01*
X2017Y1388D01*
X3785Y1292D02*
X3765Y1332D01*
X3805D01*
X3785Y1292D01*
X2055Y1289D02*
X2035Y1330D01*
X2075D01*
X2055Y1289D01*
X4572Y1265D02*
X4552Y1305D01*
X4593D01*
X4572Y1265D01*
X3710Y1280D02*
X3690Y1320D01*
X3730D01*
X3710Y1280D01*
X2208Y1262D02*
X2187Y1303D01*
X2228D01*
X2208Y1262D01*
X2027Y2212D02*
X2007Y2253D01*
X2048D01*
X2027Y2212D01*
X1512Y1597D02*
X1492Y1638D01*
X1533D01*
X1512Y1597D01*
X1535Y690D02*
X1515Y730D01*
X1555D01*
X1535Y690D01*
Y747D02*
X1515Y788D01*
X1555D01*
X1535Y747D01*
X1470D02*
X1450Y788D01*
X1490D01*
X1470Y747D01*
X1405Y747D02*
X1385Y788D01*
X1425D01*
X1405Y747D01*
X1535Y805D02*
X1515Y845D01*
X1555D01*
X1535Y805D01*
X1405D02*
X1385Y845D01*
X1425D01*
X1405Y805D01*
X1512Y1540D02*
X1492Y1580D01*
X1533D01*
X1512Y1540D01*
X1227Y1715D02*
X1207Y1755D01*
X1248D01*
X1227Y1715D01*
X418Y807D02*
X397Y848D01*
X438D01*
X418Y807D01*
Y717D02*
X397Y758D01*
X438D01*
X418Y717D01*
X1112Y1657D02*
X1092Y1698D01*
X1133D01*
X1112Y1657D01*
X1065Y1845D02*
X1045Y1885D01*
X1085D01*
X1065Y1845D01*
X1170Y1717D02*
X1150Y1758D01*
X1190D01*
X1170Y1717D01*
X1112Y1717D02*
X1092Y1758D01*
X1133D01*
X1112Y1717D01*
X3205Y520D02*
X3185Y560D01*
X3225D01*
X3205Y520D01*
X3740Y380D02*
X3720Y420D01*
X3760D01*
X3740Y380D01*
X5433Y2302D02*
X5412Y2343D01*
X5453D01*
X5433Y2302D01*
X1817Y1181D02*
X1797Y1221D01*
X1838D01*
X1817Y1181D01*
X1950Y1472D02*
X1930Y1513D01*
X1970D01*
X1950Y1472D01*
X1899Y1412D02*
X1879Y1453D01*
X1919D01*
X1899Y1412D01*
X1967Y1540D02*
X1947Y1580D01*
X1988D01*
X1967Y1540D01*
X1905Y1187D02*
X1885Y1228D01*
X1925D01*
X1905Y1187D01*
X2135Y1945D02*
X2115Y1985D01*
X2155D01*
X2135Y1945D01*
X5360Y1812D02*
X5340Y1853D01*
X5380D01*
X5360Y1812D01*
X5130Y1822D02*
X5110Y1863D01*
X5150D01*
X5130Y1822D01*
X5288Y1820D02*
X5267Y1860D01*
X5308D01*
X5288Y1820D01*
X3685Y1993D02*
X3665Y2033D01*
X3705D01*
X3685Y1993D01*
X3017Y2042D02*
X2997Y2083D01*
X3038D01*
X3017Y2042D01*
X2233Y895D02*
X2212Y935D01*
X2253D01*
X2233Y895D01*
X3120Y2022D02*
X3100Y2063D01*
X3140D01*
X3120Y2022D01*
X3495Y2027D02*
X3475Y2068D01*
X3515D01*
X3495Y2027D01*
X3042Y1597D02*
X3022Y1638D01*
X3063D01*
X3042Y1597D01*
X4325Y1062D02*
X4305Y1103D01*
X4345D01*
X4325Y1062D01*
X2862Y1135D02*
X2842Y1175D01*
X2883D01*
X2862Y1135D01*
X2802Y612D02*
X2782Y653D01*
X2823D01*
X2802Y612D01*
X1557Y1173D02*
X1537Y1214D01*
X1578D01*
X1557Y1173D01*
X1605Y1125D02*
X1585Y1166D01*
X1626D01*
X1605Y1125D01*
X2030Y780D02*
X2010Y820D01*
X2050D01*
X2030Y780D01*
X1365Y342D02*
X1345Y383D01*
X1385D01*
X1365Y342D01*
X603Y1132D02*
X582Y1173D01*
X623D01*
X603Y1132D01*
X848Y2302D02*
X827Y2343D01*
X868D01*
X848Y2302D01*
X2597Y1597D02*
X2577Y1638D01*
X2617D01*
X2597Y1597D01*
X5855Y1200D02*
X5835Y1240D01*
X5875D01*
X5855Y1200D01*
X6233Y2222D02*
X6212Y2263D01*
X6253D01*
X6233Y2222D01*
X1930Y1888D02*
X1909Y1928D01*
X1950D01*
X1930Y1888D01*
X5115Y2257D02*
X5095Y2298D01*
X5135D01*
X5115Y2257D01*
X3685Y2077D02*
X3665Y2118D01*
X3705D01*
X3685Y2077D01*
X1810Y550D02*
X1790Y590D01*
X1830D01*
X1810Y550D01*
X2498Y1140D02*
X2477Y1180D01*
X2518D01*
X2498Y1140D01*
X2317Y1067D02*
X2297Y1108D01*
X2338D01*
X2317Y1067D01*
X2505Y745D02*
X2485Y785D01*
X2525D01*
X2505Y745D01*
X2640D02*
X2620Y785D01*
X2660D01*
X2640Y745D01*
X3098Y2227D02*
X3077Y2268D01*
X3118D01*
X3098Y2227D01*
X5515Y2080D02*
X5495Y2120D01*
X5535D01*
X5515Y2080D01*
X4700Y1572D02*
X4680Y1613D01*
X4720D01*
X4700Y1572D01*
X3715Y892D02*
X3695Y933D01*
X3735D01*
X3715Y892D01*
X4090Y2092D02*
X4070Y2133D01*
X4110D01*
X4090Y2092D01*
X2213Y1070D02*
X2192Y1110D01*
X2233D01*
X2213Y1070D01*
X4352Y1560D02*
X4332Y1600D01*
X4372D01*
X4352Y1560D01*
X4292Y1635D02*
X4272Y1675D01*
X4313D01*
X4292Y1635D01*
X4462Y2060D02*
X4442Y2100D01*
X4482D01*
X4462Y2060D01*
X4547Y2072D02*
X4527Y2113D01*
X4567D01*
X4547Y2072D01*
X3600Y2167D02*
X3580Y2208D01*
X3620D01*
X3600Y2167D01*
X1223Y2325D02*
X1202Y2365D01*
X1243D01*
X1223Y2325D01*
X1738Y2305D02*
X1717Y2345D01*
X1758D01*
X1738Y2305D01*
X3342Y2315D02*
X3322Y2355D01*
X3363D01*
X3342Y2315D01*
X5285Y2312D02*
X5265Y2353D01*
X5305D01*
X5285Y2312D01*
X5167Y2315D02*
X5147Y2355D01*
X5188D01*
X5167Y2315D01*
X4383Y1722D02*
X4362Y1763D01*
X4403D01*
X4383Y1722D01*
X4412Y1640D02*
X4392Y1680D01*
X4433D01*
X4412Y1640D01*
X4235Y1542D02*
X4215Y1583D01*
X4255D01*
X4235Y1542D01*
X1916Y1691D02*
X1896Y1732D01*
X1936D01*
X1916Y1691D01*
X1833Y1687D02*
X1812Y1728D01*
X1853D01*
X1833Y1687D01*
X1912Y1595D02*
X1892Y1635D01*
X1933D01*
X1912Y1595D01*
X1815Y730D02*
X1795Y770D01*
X1835D01*
X1815Y730D01*
X3565Y1195D02*
X3545Y1235D01*
X3585D01*
X3565Y1195D01*
X3265Y1127D02*
X3245Y1168D01*
X3285D01*
X3265Y1127D01*
X5858Y1382D02*
X5837Y1423D01*
X5878D01*
X5858Y1382D01*
Y997D02*
X5837Y1038D01*
X5878D01*
X5858Y997D01*
X4970Y960D02*
X4950Y1000D01*
X4990D01*
X4970Y960D01*
X215Y2292D02*
X195Y2333D01*
X235D01*
X215Y2292D01*
X795Y57D02*
X775Y98D01*
X815D01*
X795Y57D01*
X1217Y1165D02*
X1197Y1206D01*
X1238D01*
X1217Y1165D01*
X1301Y1113D02*
X1281Y1154D01*
X1322D01*
X1301Y1113D01*
X1218Y1242D02*
X1197Y1283D01*
X1238D01*
X1218Y1242D01*
X1145Y647D02*
X1125Y688D01*
X1165D01*
X1145Y647D01*
X5788Y2067D02*
X5767Y2108D01*
X5808D01*
X5788Y2067D01*
X5775Y1810D02*
X5755Y1850D01*
X5795D01*
X5775Y1810D01*
X1665Y2272D02*
X1645Y2313D01*
X1685D01*
X1665Y2272D01*
X4967Y1784D02*
X4947Y1825D01*
X4988D01*
X4967Y1784D01*
X5042Y1812D02*
X5022Y1853D01*
X5063D01*
X5042Y1812D01*
X1085Y2320D02*
X1065Y2360D01*
X1105D01*
X1085Y2320D01*
X1165Y2287D02*
X1145Y2328D01*
X1185D01*
X1165Y2287D01*
X940Y2230D02*
X920Y2270D01*
X960D01*
X940Y2230D01*
X1165Y2217D02*
X1145Y2258D01*
X1185D01*
X1165Y2217D01*
X1220Y1322D02*
X1200Y1363D01*
X1240D01*
X1220Y1322D01*
X177Y1052D02*
X157Y1093D01*
X198D01*
X177Y1052D01*
X780Y1445D02*
X760Y1485D01*
X800D01*
X780Y1445D01*
X50Y1815D02*
X30Y1855D01*
X70D01*
X50Y1815D01*
X1125Y567D02*
X1105Y608D01*
X1145D01*
X1125Y567D01*
X1504Y426D02*
X1484Y467D01*
X1524D01*
X1504Y426D01*
X1670Y430D02*
X1650Y470D01*
X1690D01*
X1670Y430D01*
X397Y2291D02*
X377Y2332D01*
X418D01*
X397Y2291D01*
X1095Y1032D02*
X1075Y1073D01*
X1115D01*
X1095Y1032D01*
X993Y1330D02*
X972Y1370D01*
X1013D01*
X993Y1330D01*
X860Y1207D02*
X840Y1248D01*
X880D01*
X860Y1207D01*
X1055Y1297D02*
X1035Y1338D01*
X1075D01*
X1055Y1297D01*
X1112Y1232D02*
X1092Y1273D01*
X1133D01*
X1112Y1232D01*
X780Y1577D02*
X760Y1618D01*
X800D01*
X780Y1577D01*
X753Y1702D02*
X732Y1743D01*
X773D01*
X753Y1702D01*
X778Y1780D02*
X757Y1820D01*
X798D01*
X778Y1780D01*
X1402Y1145D02*
X1382Y1185D01*
X1423D01*
X1402Y1145D01*
X1138Y747D02*
X1117Y788D01*
X1158D01*
X1138Y747D01*
X1090Y900D02*
X1070Y940D01*
X1110D01*
X1090Y900D01*
X1073Y802D02*
X1052Y843D01*
X1093D01*
X1073Y802D01*
X1452Y1095D02*
X1432Y1135D01*
X1473D01*
X1452Y1095D01*
X838Y2057D02*
X817Y2098D01*
X858D01*
X838Y2057D01*
X765Y2055D02*
X745Y2095D01*
X785D01*
X765Y2055D01*
D135*
X370Y2650D02*
G03*
X370Y2650I-20J0D01*
G01*
Y350D02*
G03*
X370Y350I-20J0D01*
G01*
X6170D02*
G03*
X6170Y350I-20J0D01*
G01*
Y2650D02*
G03*
X6170Y2650I-20J0D01*
G01*
M02*
