<?xml version="1.0" encoding="utf-8" ?>
<svg baseProfile="tiny" height="121.1810994" version="1.2" width="238.1102304" xmlns="http://www.w3.org/2000/svg" xmlns:ev="http://www.w3.org/2001/xml-events" xmlns:xlink="http://www.w3.org/1999/xlink"><defs /><g id="paths" stroke="blue"><path d="M 16.2992122,117.2834617 L 221.8110182,117.2834617 A 12.4015712839 12.4015712839 0 0,0 234.2125927 104.881890743 L 234.2125927,16.2992122 A 12.4015833815 12.4015833815 0 0,0 221.8110182 3.8976377 L 16.2992122,3.8976377 A 12.4015773327 12.4015773327 0 0,0 3.8976377 16.2992122 L 3.8976377,104.8818872 A 12.4015652351 12.4015652351 0 0,0 16.2992051134 117.2834617 L 16.2992122,117.2834617 Z" fill-opacity="0" stroke-linejoin="round" stroke-width="1.0" /></g><g fill="red" id="holes"><circle cx="201.5256" cy="113.3858" r="0.54" stroke-width="0.0" /><circle cx="179.8228" cy="39.5079" r="0.54" stroke-width="0.0" /><circle cx="83.7106" cy="34.4055" r="0.45" stroke-width="0.0" /><circle cx="71.7153" cy="35.821" r="0.45" stroke-width="0.0" /><circle cx="99.7441" cy="39.0472" r="0.45" stroke-width="0.0" /><circle cx="72.0578" cy="108.6909" r="0.45" stroke-width="0.0" /><circle cx="184.7835" cy="50.0644" r="0.45" stroke-width="0.0" /><circle cx="24.626" cy="83.8511" r="0.45" stroke-width="0.0" /><circle cx="65.374" cy="84.3307" r="0.45" stroke-width="0.0" /><circle cx="57.4383" cy="82.1162" r="0.45" stroke-width="0.0" /><circle cx="126.9833" cy="14.7933" r="0.45" stroke-width="0.0" /><circle cx="32.5984" cy="47.8102" r="0.45" stroke-width="0.0" /><circle cx="78.8386" cy="77.296" r="0.45" stroke-width="0.0" /><circle cx="134.8228" cy="46.9488" r="0.54" stroke-width="0.0" /><circle cx="104.3504" cy="111.9318" r="0.54" stroke-width="0.0" /><circle cx="137.6575" cy="76.4284" r="0.54" stroke-width="0.0" /><circle cx="26.6634" cy="88.4941" r="0.45" stroke-width="0.0" /><circle cx="195.6791" cy="51.0059" r="0.54" stroke-width="0.0" /><circle cx="49.6367" cy="104.6617" r="0.45" stroke-width="0.0" /><circle cx="49.09" cy="72.6378" r="0.45" stroke-width="0.0" /><circle cx="96.7286" cy="66.4831" r="0.45" stroke-width="0.0" /><circle cx="144.5669" cy="103.9075" r="0.54" stroke-width="0.0" /><circle cx="221.1745" cy="58.6417" r="0.45" stroke-width="0.0" /><circle cx="177.6968" cy="50.7731" r="0.45" stroke-width="0.0" /><circle cx="63.1076" cy="43.7712" r="0.45" stroke-width="0.0" /><circle cx="57.1421" cy="107.8937" r="0.45" stroke-width="0.0" /><circle cx="33.197" cy="81.9023" r="0.45" stroke-width="0.0" /><circle cx="78.5551" cy="12.1358" r="0.45" stroke-width="0.0" /><circle cx="74.3209" cy="49.128" r="0.54" stroke-width="0.0" /><circle cx="16.9711" cy="45.2657" r="0.54" stroke-width="0.0" /><circle cx="56.1981" cy="75.7749" r="0.45" stroke-width="0.0" /><circle cx="30.7106" cy="93.1614" r="0.45" stroke-width="0.0" /><circle cx="60.5905" cy="69.8642" r="0.45" stroke-width="0.0" /><circle cx="65.4626" cy="36.4623" r="0.45" stroke-width="0.0" /><circle cx="57.4943" cy="40.7662" r="0.45" stroke-width="0.0" /><circle cx="142.5295" cy="46.5565" r="0.54" stroke-width="0.0" /><circle cx="66.6142" cy="77.9528" r="0.45" stroke-width="0.0" /><circle cx="14.0846" cy="85.4823" r="0.45" stroke-width="0.0" /><circle cx="13.0217" cy="90.2747" r="0.45" stroke-width="0.0" /><circle cx="46.8602" cy="110.6183" r="0.45" stroke-width="0.0" /><circle cx="22.4114" cy="56.9953" r="0.45" stroke-width="0.0" /><circle cx="102.0472" cy="54.4783" r="0.45" stroke-width="0.0" /><circle cx="215.876" cy="86.7212" r="0.45" stroke-width="0.0" /><circle cx="142.5295" cy="63.762" r="0.45" stroke-width="0.0" /><circle cx="108.7441" cy="69.067" r="0.54" stroke-width="0.0" /><circle cx="82.3075" cy="45.6568" r="0.54" stroke-width="0.0" /><circle cx="40.2165" cy="85.748" r="0.45" stroke-width="0.0" /><circle cx="81.1401" cy="79.727" r="0.45" stroke-width="0.0" /><circle cx="46.8602" cy="113.282" r="0.45" stroke-width="0.0" /><circle cx="221.811" cy="104.8819" r="4.872" stroke-width="0.0" /><circle cx="66.828" cy="69.9457" r="0.45" stroke-width="0.0" /><circle cx="64.0453" cy="68.3184" r="0.45" stroke-width="0.0" /><circle cx="150.7677" cy="63.762" r="0.54" stroke-width="0.0" /><circle cx="181.4173" cy="111.0827" r="0.54" stroke-width="0.0" /><circle cx="130.6594" cy="81.0184" r="0.54" stroke-width="0.0" /><circle cx="40.5585" cy="64.4087" r="0.45" stroke-width="0.0" /><circle cx="209.3209" cy="43.2106" r="0.45" stroke-width="0.0" /><circle cx="6.8702" cy="76.4468" r="0.54" stroke-width="0.0" /><circle cx="47.8255" cy="91.2858" r="0.45" stroke-width="0.0" /><circle cx="47.3183" cy="74.66" r="0.45" stroke-width="0.0" /><circle cx="38.1333" cy="40.3202" r="0.54" stroke-width="0.0" /><circle cx="155.5512" cy="48.0118" r="0.54" stroke-width="0.0" /><circle cx="62.8418" cy="83.5335" r="0.45" stroke-width="0.0" /><circle cx="114.7995" cy="101.4308" r="0.54" stroke-width="0.0" /><circle cx="47.3183" cy="35.821" r="0.45" stroke-width="0.0" /><circle cx="92.8828" cy="54.4783" r="0.45" stroke-width="0.0" /><circle cx="177.6968" cy="75.17" r="0.54" stroke-width="0.0" /><circle cx="179.4685" cy="67.3228" r="0.54" stroke-width="0.0" /><circle cx="71.1319" cy="85.5709" r="0.45" stroke-width="0.0" /><circle cx="16.2992" cy="104.8819" r="4.872" stroke-width="0.0" /><circle cx="121.0925" cy="43.4966" r="0.45" stroke-width="0.0" /><circle cx="32.5984" cy="40.8854" r="0.45" stroke-width="0.0" /><circle cx="26.8406" cy="42.7121" r="0.54" stroke-width="0.0" /><circle cx="199.4882" cy="75.8787" r="0.54" stroke-width="0.0" /><circle cx="191.6929" cy="71.6634" r="0.45" stroke-width="0.0" /><circle cx="134.3799" cy="107.3622" r="0.54" stroke-width="0.0" /><circle cx="9.3012" cy="43.0664" r="0.54" stroke-width="0.0" /><circle cx="142.1752" cy="58.6417" r="0.54" stroke-width="0.0" /><circle cx="159.745" cy="64.7731" r="0.45" stroke-width="0.0" /><circle cx="49.6367" cy="93.5003" r="0.45" stroke-width="0.0" /><circle cx="77.1555" cy="110.9055" r="0.45" stroke-width="0.0" /><circle cx="215.1673" cy="70.4232" r="0.54" stroke-width="0.0" /><circle cx="42.3425" cy="108.5961" r="0.45" stroke-width="0.0" /><circle cx="50.8616" cy="74.2323" r="0.45" stroke-width="0.0" /><circle cx="46.8602" cy="107.8937" r="0.45" stroke-width="0.0" /><circle cx="172.2933" cy="68.9173" r="0.45" stroke-width="0.0" /><circle cx="68.1568" cy="83.8878" r="0.45" stroke-width="0.0" /><circle cx="114.7995" cy="108.6909" r="0.54" stroke-width="0.0" /><circle cx="186.7842" cy="55.7337" r="0.54" stroke-width="0.0" /><circle cx="66.828" cy="81.1417" r="0.45" stroke-width="0.0" /><circle cx="61.956" cy="62.3102" r="0.45" stroke-width="0.0" /><circle cx="133.3169" cy="56.5584" r="0.54" stroke-width="0.0" /><circle cx="66.6142" cy="66.7568" r="0.45" stroke-width="0.0" /><circle cx="81.8504" cy="100.2693" r="0.45" stroke-width="0.0" /><circle cx="209.3209" cy="50.7212" r="0.45" stroke-width="0.0" /><circle cx="54.1668" cy="82.4338" r="0.45" stroke-width="0.0" /><circle cx="19.5768" cy="59.0937" r="0.45" stroke-width="0.0" /><circle cx="81.8504" cy="96.6007" r="0.45" stroke-width="0.0" /><circle cx="76.5721" cy="54.8693" r="0.54" stroke-width="0.0" /><circle cx="221.811" cy="23.3858" r="4.872" stroke-width="0.0" /><circle cx="117.7441" cy="52.5472" r="0.45" stroke-width="0.0" /><circle cx="151.9193" cy="91.5059" r="0.54" stroke-width="0.0" /><circle cx="8.5925" cy="38.8663" r="0.54" stroke-width="0.0" /><circle cx="43.775" cy="43.1059" r="0.45" stroke-width="0.0" /><circle cx="166.5354" cy="53.962" r="0.54" stroke-width="0.0" /><circle cx="174.1687" cy="81.4961" r="0.54" stroke-width="0.0" /><circle cx="170.7874" cy="50.0644" r="0.54" stroke-width="0.0" /><circle cx="107.0598" cy="55.3946" r="0.54" stroke-width="0.0" /><circle cx="181.4173" cy="101.9764" r="0.54" stroke-width="0.0" /><circle cx="24.0945" cy="49.9087" r="0.45" stroke-width="0.0" /><circle cx="131.1024" cy="87.7684" r="0.54" stroke-width="0.0" /><circle cx="104.0846" cy="49.9606" r="0.45" stroke-width="0.0" /><circle cx="13.376" cy="78.6357" r="0.45" stroke-width="0.0" /><circle cx="64.6135" cy="61.9834" r="0.45" stroke-width="0.0" /><circle cx="87.874" cy="79.727" r="0.45" stroke-width="0.0" /><circle cx="148.4458" cy="46.9488" r="0.54" stroke-width="0.0" /><circle cx="61.7421" cy="49.5819" r="0.45" stroke-width="0.0" /><circle cx="65.4626" cy="45.9684" r="0.45" stroke-width="0.0" /><circle cx="35.4331" cy="85.748" r="0.45" stroke-width="0.0" /><circle cx="137.6575" cy="69.6784" r="0.54" stroke-width="0.0" /><circle cx="23.5271" cy="36.4745" r="0.54" stroke-width="0.0" /><circle cx="70.5852" cy="56.9953" r="0.45" stroke-width="0.0" /><circle cx="171.6732" cy="92.8346" r="0.54" stroke-width="0.0" /><circle cx="107.628" cy="65.7186" r="0.54" stroke-width="0.0" /><circle cx="140.1378" cy="92.517" r="0.54" stroke-width="0.0" /><circle cx="45.8491" cy="88.4055" r="0.45" stroke-width="0.0" /><circle cx="60.0591" cy="114.464" r="0.54" stroke-width="0.0" /><circle cx="161.4128" cy="89.8228" r="0.54" stroke-width="0.0" /><circle cx="74.6752" cy="10.0984" r="0.45" stroke-width="0.0" /><circle cx="16.2992" cy="23.3858" r="4.872" stroke-width="0.0" /><circle cx="109.8425" cy="16.2701" r="0.45" stroke-width="0.0" /><circle cx="183.0118" cy="39.5079" r="0.54" stroke-width="0.0" /><circle cx="62.8418" cy="108.7795" r="0.45" stroke-width="0.0" /><circle cx="79.867" cy="55.2236" r="0.45" stroke-width="0.0" /><circle cx="36.652" cy="81.9023" r="0.45" stroke-width="0.0" /><circle cx="215.1673" cy="80.6976" r="0.54" stroke-width="0.0" /><circle cx="76.0406" cy="93.9432" r="0.45" stroke-width="0.0" /><circle cx="61.956" cy="58.7669" r="0.45" stroke-width="0.0" /><circle cx="147.4902" cy="10.9843" r="0.45" stroke-width="0.0" /><circle cx="195.6791" cy="46.8754" r="0.54" stroke-width="0.0" /><circle cx="141.5551" cy="39.0472" r="0.54" stroke-width="0.0" /><circle cx="38.1333" cy="35.5583" r="0.54" stroke-width="0.0" /><circle cx="217.3287" cy="58.6417" r="0.45" stroke-width="0.0" /><circle cx="186.7842" cy="43.8484" r="0.45" stroke-width="0.0" /><circle cx="28.5847" cy="91.9947" r="0.45" stroke-width="0.0" /><circle cx="144.3012" cy="112.4114" r="0.54" stroke-width="0.0" /><circle cx="81.8504" cy="103.6328" r="0.45" stroke-width="0.0" /><circle cx="52.8839" cy="87.1654" r="0.45" stroke-width="0.0" /><circle cx="65.9055" cy="58.0583" r="0.45" stroke-width="0.0" /><circle cx="135.782" cy="39.0472" r="0.54" stroke-width="0.0" /><circle cx="111.1713" cy="33.9272" r="0.45" stroke-width="0.0" /><circle cx="70.5852" cy="42.5539" r="0.45" stroke-width="0.0" /><circle cx="35.3445" cy="7.9724" r="0.45" stroke-width="0.0" /><circle cx="114.8942" cy="65.4062" r="0.45" stroke-width="0.0" /><circle cx="130.3051" cy="65.4062" r="0.45" stroke-width="0.0" /><circle cx="126.4075" cy="90.1405" r="0.54" stroke-width="0.0" /><circle cx="57.4902" cy="13.4646" r="0.45" stroke-width="0.0" /><circle cx="28.7008" cy="45.7087" r="0.45" stroke-width="0.0" /><circle cx="99.7441" cy="45.3658" r="0.45" stroke-width="0.0" /><circle cx="97.2027" cy="71.3701" r="0.45" stroke-width="0.0" /><circle cx="200.4626" cy="87.5197" r="0.54" stroke-width="0.0" /><circle cx="98.1496" cy="54.4783" r="0.45" stroke-width="0.0" /><circle cx="45.5467" cy="72.3718" r="0.45" stroke-width="0.0" /><circle cx="117.2096" cy="49.1115" r="0.45" stroke-width="0.0" /><circle cx="201.5256" cy="102.0472" r="0.54" stroke-width="0.0" /><circle cx="40.5585" cy="53.7788" r="0.45" stroke-width="0.0" /><circle cx="61.0335" cy="41.811" r="0.45" stroke-width="0.0" /><circle cx="150.7677" cy="110.9764" r="1.5945" stroke-width="0.0" /><circle cx="150.7677" cy="101.9764" r="1.5945" stroke-width="0.0" /><circle cx="166.624" cy="110.9764" r="1.5945" stroke-width="0.0" /><circle cx="166.624" cy="101.9764" r="1.5945" stroke-width="0.0" /><circle cx="65.8536" cy="100.0554" r="0.3543" stroke-width="0.0" /><circle cx="61.956" cy="100.0554" r="0.3543" stroke-width="0.0" /><circle cx="58.0583" cy="100.0554" r="0.3543" stroke-width="0.0" /><circle cx="65.8536" cy="96.1578" r="0.3543" stroke-width="0.0" /><circle cx="61.956" cy="96.1578" r="0.3543" stroke-width="0.0" /><circle cx="58.0583" cy="96.1578" r="0.3543" stroke-width="0.0" /><circle cx="65.8536" cy="92.2602" r="0.3543" stroke-width="0.0" /><circle cx="61.956" cy="92.2602" r="0.3543" stroke-width="0.0" /><circle cx="58.0583" cy="92.2602" r="0.3543" stroke-width="0.0" /><circle cx="123.5551" cy="18.8858" r="1.9488" stroke-width="0.0" /><circle cx="105.5551" cy="27.8858" r="1.9488" stroke-width="0.0" /><circle cx="186.5551" cy="27.8858" r="1.9488" stroke-width="0.0" /><circle cx="195.5551" cy="18.8858" r="1.9488" stroke-width="0.0" /><circle cx="114.5551" cy="27.8858" r="1.9488" stroke-width="0.0" /><circle cx="87.5551" cy="27.8858" r="1.9488" stroke-width="0.0" /><circle cx="33.5551" cy="27.8858" r="1.9488" stroke-width="0.0" /><circle cx="195.5551" cy="27.8858" r="1.9488" stroke-width="0.0" /><circle cx="159.5551" cy="18.8858" r="1.9488" stroke-width="0.0" /><circle cx="177.5551" cy="18.8858" r="1.9488" stroke-width="0.0" /><circle cx="141.5551" cy="18.8858" r="1.9488" stroke-width="0.0" /><circle cx="141.5551" cy="27.8858" r="1.9488" stroke-width="0.0" /><circle cx="150.5551" cy="18.8858" r="1.9488" stroke-width="0.0" /><circle cx="69.5551" cy="27.8858" r="1.9488" stroke-width="0.0" /><circle cx="204.5551" cy="27.8858" r="1.9488" stroke-width="0.0" /><circle cx="60.5551" cy="18.8858" r="1.9488" stroke-width="0.0" /><circle cx="123.5551" cy="27.8858" r="1.9488" stroke-width="0.0" /><circle cx="78.5551" cy="18.8858" r="1.9488" stroke-width="0.0" /><circle cx="159.5551" cy="27.8858" r="1.9488" stroke-width="0.0" /><circle cx="150.5551" cy="27.8858" r="1.9488" stroke-width="0.0" /><circle cx="51.5551" cy="27.8858" r="1.9488" stroke-width="0.0" /><circle cx="42.5551" cy="27.8858" r="1.9488" stroke-width="0.0" /><circle cx="186.5551" cy="18.8858" r="1.9488" stroke-width="0.0" /><circle cx="132.5551" cy="27.8858" r="1.9488" stroke-width="0.0" /><circle cx="105.5551" cy="18.8858" r="1.9488" stroke-width="0.0" /><circle cx="96.5551" cy="27.8858" r="1.9488" stroke-width="0.0" /><circle cx="168.5551" cy="27.8858" r="1.9488" stroke-width="0.0" /><circle cx="51.5551" cy="18.8858" r="1.9488" stroke-width="0.0" /><circle cx="60.5551" cy="27.8858" r="1.9488" stroke-width="0.0" /><circle cx="87.5551" cy="18.8858" r="1.9488" stroke-width="0.0" /><circle cx="132.5551" cy="18.8858" r="1.9488" stroke-width="0.0" /><circle cx="78.5551" cy="27.8858" r="1.9488" stroke-width="0.0" /><circle cx="114.5551" cy="18.8858" r="1.9488" stroke-width="0.0" /><circle cx="42.5551" cy="18.8858" r="1.9488" stroke-width="0.0" /><circle cx="96.5551" cy="18.6201" r="1.9488" stroke-width="0.0" /><circle cx="69.5551" cy="18.8858" r="1.9488" stroke-width="0.0" /><circle cx="168.5551" cy="18.8858" r="1.9488" stroke-width="0.0" /><circle cx="177.5551" cy="27.8858" r="1.9488" stroke-width="0.0" /><circle cx="33.5551" cy="18.8858" r="1.9488" stroke-width="0.0" /><circle cx="204.5551" cy="18.8858" r="1.9488" stroke-width="0.0" /></g><g id="rulers" stroke="black" /></svg>