G04*
G04 #@! TF.GenerationSoftware,Altium Limited,Altium Designer,21.2.2 (38)*
G04*
G04 Layer_Color=1265191*
%FSLAX44Y44*%
%MOMM*%
G71*
G04*
G04 #@! TF.SameCoordinates,E7746868-0F62-4201-A4F5-850C2E651218*
G04*
G04*
G04 #@! TF.FilePolarity,Positive*
G04*
G01*
G75*
%ADD11C,0.2000*%
%ADD13C,0.1000*%
%ADD106C,0.0500*%
D11*
X77800Y239550D02*
X579450D01*
Y290350D01*
X71450D02*
X579450D01*
X71450Y245900D02*
Y290350D01*
Y245900D02*
X77800Y239550D01*
X729310Y217440D02*
X730690D01*
X723710D02*
X725090D01*
X718110D02*
X719490D01*
X712510D02*
X713890D01*
X706910D02*
X708290D01*
X701310D02*
X702690D01*
X729310Y155560D02*
X730690D01*
X734910D02*
X736290D01*
X723710D02*
X725090D01*
X718110D02*
X719490D01*
X712510D02*
X713890D01*
X706910D02*
X708290D01*
X701310D02*
X702690D01*
X650250Y138900D02*
X666750D01*
X650250D02*
Y175127D01*
Y197873D02*
Y234100D01*
X666750D01*
Y211033D02*
X695450D01*
X666750Y138900D02*
Y234100D01*
Y162026D02*
X695450D01*
X699200Y159850D01*
X734910Y217440D02*
X736290D01*
X732800Y213650D02*
X734910Y217440D01*
X730690D02*
X732800Y213650D01*
X727200D02*
X729310Y217440D01*
X719490D02*
X721600Y213650D01*
X723710Y217440D01*
X725090D02*
X727200Y213650D01*
X716000D02*
X718110Y217440D01*
X713890D02*
X716000Y213650D01*
X710400D02*
X712510Y217440D01*
X708290D02*
X710400Y213650D01*
X704800D02*
X706910Y217440D01*
X699200Y213650D02*
X701310Y217440D01*
X695450Y211033D02*
X699200Y213150D01*
X695450Y162026D02*
Y211033D01*
X699200Y159373D02*
X702690Y217440D01*
X699200Y159373D02*
X701310Y155560D01*
X702690D02*
X704800Y159350D01*
X706910Y155560D01*
X708290D02*
X710400Y159350D01*
X712510Y155560D01*
X713890D02*
X716000Y159350D01*
X718110Y155560D01*
X719490D02*
X721600Y159350D01*
X723710Y155560D01*
X725090D02*
X727200Y159350D01*
X729310Y155560D01*
X730690D02*
X732800Y159350D01*
X734910Y155560D01*
X736290D02*
X738400Y159350D01*
X725090Y155560D02*
X730690Y217440D01*
X736290D02*
X738400Y213150D01*
X745550D01*
X738400Y159850D02*
X745550D01*
Y213150D01*
X734910Y155560D02*
X738400Y213150D01*
X736290Y155560D02*
X738400Y213150D01*
X730690Y155560D02*
X736290Y217440D01*
X732800Y159350D02*
X738400Y213150D01*
X699200Y159373D02*
Y213650D01*
X702690Y217440D02*
X704800Y213650D01*
X699200Y159850D02*
X701310Y217440D01*
Y155560D02*
X706910Y217440D01*
X699200Y159373D02*
X704800Y213650D01*
X702690Y155560D02*
X708290Y217440D01*
X704800Y159350D02*
X710400Y213650D01*
X706910Y155560D02*
X712510Y217440D01*
X708290Y155560D02*
X713890Y217440D01*
X710400Y159350D02*
X716000Y213650D01*
X712510Y155560D02*
X718110Y217440D01*
X713890Y155560D02*
X719490Y217440D01*
X716000Y159350D02*
X721600Y213650D01*
X718110Y155560D02*
X723710Y217440D01*
X719490Y155560D02*
X725090Y217440D01*
X723710Y155560D02*
X729310Y217440D01*
X727200Y159350D02*
X732800Y213650D01*
X729310Y155560D02*
X734910Y217440D01*
X738400Y159350D02*
Y213150D01*
X721600Y159350D02*
X727200Y213650D01*
X545940Y-69490D02*
Y-68110D01*
Y-80690D02*
Y-79310D01*
Y-58290D02*
Y-56910D01*
X542150Y-60400D02*
X545940Y-62510D01*
Y-63890D02*
Y-62510D01*
X542150Y-66000D02*
X545940Y-63890D01*
X542150Y-71600D02*
X545940Y-69490D01*
X542150Y-66000D02*
X545940Y-68110D01*
X542150Y-71600D02*
X545940Y-73710D01*
Y-75090D02*
Y-73710D01*
X542150Y-77200D02*
X545940Y-75090D01*
X542150Y-77200D02*
X545940Y-79310D01*
X542150Y-82800D02*
X545940Y-80690D01*
X542150Y-82800D02*
X545940Y-84910D01*
Y-86290D02*
Y-84910D01*
X484060Y-58290D02*
Y-56910D01*
Y-58290D02*
X487850Y-60400D01*
X484060Y-63890D02*
Y-62510D01*
Y-69490D02*
Y-68110D01*
X487850Y-66000D01*
X484060Y-69490D02*
X487850Y-71600D01*
X484060Y-75090D02*
Y-73710D01*
Y-75090D02*
X487850Y-77200D01*
X484060Y-80690D02*
Y-79310D01*
Y-80690D02*
X487850Y-82800D01*
X484060Y-86290D02*
Y-84910D01*
Y-73710D02*
X487850Y-71600D01*
X484060Y-79310D02*
X487850Y-77200D01*
X484060Y-86290D02*
X487850Y-88400D01*
X484060Y-84910D02*
X487850Y-82800D01*
X541650Y-88400D02*
X545940Y-86290D01*
X541650Y-95550D02*
Y-88400D01*
X488350Y-95550D02*
Y-88400D01*
Y-95550D02*
X541650D01*
X487850Y-82800D02*
X541650Y-88400D01*
X484060Y-84910D02*
X541650Y-88400D01*
X484060Y-86290D02*
X541650Y-88400D01*
X487850D02*
X541650D01*
X484060Y-79310D02*
X545940Y-84910D01*
X484060Y-80690D02*
X545940Y-86290D01*
X487850Y-77200D02*
X542150Y-82800D01*
X484060Y-75090D02*
X545940Y-80690D01*
X484060Y-73710D02*
X545940Y-79310D01*
X487850Y-71600D02*
X542150Y-77200D01*
X484060Y-68110D02*
X545940Y-73710D01*
X484060Y-69490D02*
X545940Y-75090D01*
X484060Y-63890D02*
X545940Y-69490D01*
X484060Y-62510D02*
X545940Y-68110D01*
X487850Y-66000D02*
X542150Y-71600D01*
X484060Y-63890D02*
X487850Y-66000D01*
X484060Y-62510D02*
X487850Y-60400D01*
X542150Y-66000D01*
X484060Y-56910D02*
X545940Y-62510D01*
X484060Y-58290D02*
X545940Y-63890D01*
X484060Y-56910D02*
X487850Y-54800D01*
X542150D02*
X545940Y-56910D01*
X542150Y-60400D02*
X545940Y-58290D01*
Y-52690D02*
Y-51310D01*
X542150Y-49200D02*
X545940Y-51310D01*
X484060Y-52690D02*
Y-51310D01*
X542150Y-54800D02*
X545940Y-52690D01*
X487873Y-49200D02*
X545940Y-52690D01*
X487873Y-49200D02*
X542150D01*
X488350D02*
X545940Y-51310D01*
X487873Y-49200D02*
X542150Y-54800D01*
X484060Y-52690D02*
X545940Y-58290D01*
X487850Y-54800D02*
X542150Y-60400D01*
X484060Y-51310D02*
X545940Y-56910D01*
X484060Y-52690D02*
X487850Y-54800D01*
X484060Y-51310D02*
X487873Y-49200D01*
X488350D02*
X490526Y-45450D01*
X539533D02*
X541650Y-49200D01*
X490526Y-45450D02*
X539533D01*
X526373Y-250D02*
X562600D01*
Y-16750D02*
Y-250D01*
X539533Y-45450D02*
Y-16750D01*
X490526Y-45450D02*
Y-16750D01*
X467400D02*
X562600D01*
X467400D02*
Y-250D01*
X503627D01*
D13*
X640430Y100300D02*
Y125700D01*
X590900Y100300D02*
Y125700D01*
X640430D01*
X590900Y100300D02*
X640430D01*
Y66800D02*
Y92200D01*
X590900Y66800D02*
Y92200D01*
X640430D01*
X590900Y66800D02*
X640430D01*
X122500Y205000D02*
X133500D01*
X122500Y226000D02*
X133500D01*
X122500Y205000D02*
Y226000D01*
X133500Y205000D02*
Y226000D01*
X153500Y215000D02*
Y225000D01*
X148500Y220000D02*
X158500D01*
X135000Y237000D02*
X172000D01*
Y203000D02*
Y237000D01*
X135000Y203000D02*
X172000D01*
X135000D02*
Y237000D01*
X26710Y208590D02*
X90210D01*
X26710Y165410D02*
Y208590D01*
Y165410D02*
X90210D01*
Y208590D01*
X382000Y11000D02*
X393000D01*
X382000Y32000D02*
X393000D01*
X382000Y11000D02*
Y32000D01*
X393000Y11000D02*
Y32000D01*
X369500Y11000D02*
X380500D01*
X369500Y32000D02*
X380500D01*
X369500Y11000D02*
Y32000D01*
X380500Y11000D02*
Y32000D01*
X344500Y61000D02*
Y72000D01*
X365500Y61000D02*
Y72000D01*
X344500D02*
X365500D01*
X344500Y61000D02*
X365500D01*
X344500Y48000D02*
Y59000D01*
X365500Y48000D02*
Y59000D01*
X344500D02*
X365500D01*
X344500Y48000D02*
X365500D01*
X344500Y119000D02*
X355500D01*
X344500Y98000D02*
X355500D01*
Y119000D01*
X344500Y98000D02*
Y119000D01*
X382993Y115449D02*
Y126449D01*
X403993Y115449D02*
Y126449D01*
X382993D02*
X403993D01*
X382993Y115449D02*
X403993D01*
X382993Y103449D02*
Y114449D01*
X403993Y103449D02*
Y114449D01*
X382993D02*
X403993D01*
X382993Y103449D02*
X403993D01*
X504000Y184500D02*
X515000D01*
X504000Y163500D02*
X515000D01*
Y184500D01*
X504000Y163500D02*
Y184500D01*
X582500Y195500D02*
X593500D01*
X582500Y174500D02*
X593500D01*
Y195500D01*
X582500Y174500D02*
Y195500D01*
X557500Y201000D02*
Y212000D01*
X536500Y201000D02*
Y212000D01*
Y201000D02*
X557500D01*
X536500Y212000D02*
X557500D01*
X252000Y51000D02*
Y62000D01*
X273000Y51000D02*
Y62000D01*
X252000D02*
X273000D01*
X252000Y51000D02*
X273000D01*
X434001Y71750D02*
X445001D01*
X434001Y92750D02*
X445001D01*
X434001Y71750D02*
Y92750D01*
X445001Y71750D02*
Y92750D01*
X446001Y71750D02*
X457001D01*
X446001Y92750D02*
X457001D01*
X446001Y71750D02*
Y92750D01*
X457001Y71750D02*
Y92750D01*
X487500Y82000D02*
X498500D01*
X487500Y103000D02*
X498500D01*
X487500Y82000D02*
Y103000D01*
X498500Y82000D02*
Y103000D01*
X327500Y65500D02*
X338500D01*
X327500Y86500D02*
X338500D01*
X327500Y65500D02*
Y86500D01*
X338500Y65500D02*
Y86500D01*
X315500Y65500D02*
X326500D01*
X315500Y86500D02*
X326500D01*
X315500Y65500D02*
Y86500D01*
X326500Y65500D02*
Y86500D01*
X475000Y82000D02*
X486000D01*
X475000Y103000D02*
X486000D01*
X475000Y82000D02*
Y103000D01*
X486000Y82000D02*
Y103000D01*
X232000Y11000D02*
X243000D01*
X232000Y32000D02*
X243000D01*
X232000Y11000D02*
Y32000D01*
X243000Y11000D02*
Y32000D01*
X496500Y68500D02*
Y79500D01*
X475500Y68500D02*
Y79500D01*
Y68500D02*
X496500D01*
X475500Y79500D02*
X496500D01*
X423000Y14000D02*
Y25000D01*
X402000Y14000D02*
Y25000D01*
Y14000D02*
X423000D01*
X402000Y25000D02*
X423000D01*
X402500Y26500D02*
Y37500D01*
X423500Y26500D02*
Y37500D01*
X402500D02*
X423500D01*
X402500Y26500D02*
X423500D01*
X167000Y18500D02*
X178000D01*
X167000Y39500D02*
X178000D01*
X167000Y18500D02*
Y39500D01*
X178000Y18500D02*
Y39500D01*
X179000Y18500D02*
X190000D01*
X179000Y39500D02*
X190000D01*
X179000Y18500D02*
Y39500D01*
X190000Y18500D02*
Y39500D01*
X198500Y30500D02*
X209500D01*
X198500Y9500D02*
X209500D01*
Y30500D01*
X198500Y9500D02*
Y30500D01*
X290500Y109500D02*
Y120500D01*
X269500Y109500D02*
Y120500D01*
Y109500D02*
X290500D01*
X269500Y120500D02*
X290500D01*
X345000Y129000D02*
Y140000D01*
X324000Y129000D02*
Y140000D01*
Y129000D02*
X345000D01*
X324000Y140000D02*
X345000D01*
X271500Y204500D02*
Y215500D01*
X250500Y204500D02*
Y215500D01*
Y204500D02*
X271500D01*
X250500Y215500D02*
X271500D01*
X258000Y198000D02*
X269000D01*
X258000Y177000D02*
X269000D01*
Y198000D01*
X258000Y177000D02*
Y198000D01*
X270000D02*
X281000D01*
X270000Y177000D02*
X281000D01*
Y198000D01*
X270000Y177000D02*
Y198000D01*
X26340Y67610D02*
X97460D01*
X26340Y105710D02*
X97460D01*
X26340Y67610D02*
Y105710D01*
X97460Y67610D02*
Y105710D01*
X26340Y113110D02*
X97460D01*
X26340Y151210D02*
X97460D01*
X26340Y113110D02*
Y151210D01*
X97460Y113110D02*
Y151210D01*
X109500Y117000D02*
Y138000D01*
X98500Y117000D02*
Y138000D01*
X109500D01*
X98500Y117000D02*
X109500D01*
X617500Y171500D02*
Y192500D01*
X606500Y171500D02*
Y192500D01*
X617500D01*
X606500Y171500D02*
X617500D01*
X507500Y57500D02*
X528500D01*
X507500Y46500D02*
X528500D01*
X507500D02*
Y57500D01*
X528500Y46500D02*
Y57500D01*
X109500Y73500D02*
Y94500D01*
X98500Y73500D02*
Y94500D01*
X109500D01*
X98500Y73500D02*
X109500D01*
X344500Y85000D02*
X365500D01*
X344500Y74000D02*
X365500D01*
X344500D02*
Y85000D01*
X365500Y74000D02*
Y85000D01*
X344500Y97500D02*
X365500D01*
X344500Y86500D02*
X365500D01*
X344500D02*
Y97500D01*
X365500Y86500D02*
Y97500D01*
X244250Y21001D02*
X265250D01*
X244250Y10001D02*
X265250D01*
X244250D02*
Y21001D01*
X265250Y10001D02*
Y21001D01*
X436500Y58500D02*
X457500D01*
X436500Y47500D02*
X457500D01*
X436500D02*
Y58500D01*
X457500Y47500D02*
Y58500D01*
X210500Y9500D02*
Y30500D01*
X221500Y9500D02*
Y30500D01*
X210500Y9500D02*
X221500D01*
X210500Y30500D02*
X221500D01*
X244170Y32767D02*
X265170D01*
X244170Y21767D02*
X265170D01*
X244170D02*
Y32767D01*
X265170Y21767D02*
Y32767D01*
X355000Y234500D02*
X376000D01*
X355000Y223500D02*
X376000D01*
X355000D02*
Y234500D01*
X376000Y223500D02*
Y234500D01*
X332500D02*
X353500D01*
X332500Y223500D02*
X353500D01*
X332500D02*
Y234500D01*
X353500Y223500D02*
Y234500D01*
X90500Y173500D02*
X111500D01*
X90500Y184500D02*
X111500D01*
Y173500D02*
Y184500D01*
X90500Y173500D02*
Y184500D01*
X215251Y213500D02*
Y234500D01*
X226251Y213500D02*
Y234500D01*
X215251Y213500D02*
X226251D01*
X215251Y234500D02*
X226251D01*
X90500Y191500D02*
X111500D01*
X90500Y202500D02*
X111500D01*
Y191500D02*
Y202500D01*
X90500Y191500D02*
Y202500D01*
X62500Y209500D02*
X83500D01*
X62500Y220500D02*
X83500D01*
Y209500D02*
Y220500D01*
X62500Y209500D02*
Y220500D01*
X39500Y209500D02*
X60500D01*
X39500Y220500D02*
X60500D01*
Y209500D02*
Y220500D01*
X39500Y209500D02*
Y220500D01*
D106*
X251750Y121250D02*
Y203750D01*
X169250D02*
X251750D01*
X169250Y121250D02*
Y203750D01*
Y121250D02*
X251750D01*
X514980Y114320D02*
Y200680D01*
Y114320D02*
X581020D01*
X514980Y200680D02*
X581020D01*
Y114320D02*
Y200680D01*
X543000Y104000D02*
X578000D01*
Y67000D02*
Y104000D01*
X543000Y67000D02*
X578000D01*
X543000D02*
Y104000D01*
X505500D02*
X540500D01*
Y67000D02*
Y104000D01*
X505500Y67000D02*
X540500D01*
X505500D02*
Y104000D01*
X463499Y189501D02*
X498499D01*
Y152501D02*
Y189501D01*
X463499Y152501D02*
X498499D01*
X463499D02*
Y189501D01*
X413499Y137499D02*
X446999D01*
X413499D02*
Y155999D01*
X446999D01*
Y137499D02*
Y155999D01*
X413499Y175499D02*
X446999D01*
X413499D02*
Y193999D01*
X446999D01*
Y175499D02*
Y193999D01*
X413499Y156499D02*
X446999D01*
X413499D02*
Y174999D01*
X446999D01*
Y156499D02*
Y174999D01*
X413499Y194499D02*
X446999D01*
X413499D02*
Y212999D01*
X446999D01*
Y194499D02*
Y212999D01*
X382749Y172249D02*
X412749D01*
Y157249D02*
Y172249D01*
X382749Y157249D02*
Y172249D01*
Y157249D02*
X412749D01*
X382749Y153750D02*
X412749D01*
Y138749D02*
Y153750D01*
X382749Y138749D02*
Y153750D01*
Y138749D02*
X412749D01*
X382749Y192250D02*
X412749D01*
Y177249D02*
Y192250D01*
X382749Y177249D02*
Y192250D01*
Y177249D02*
X412749D01*
X382749Y210749D02*
X412749D01*
Y195749D02*
Y210749D01*
X382749Y195749D02*
Y210749D01*
Y195749D02*
X412749D01*
X293000Y143750D02*
X348000D01*
Y218250D01*
X293000D02*
X348000D01*
X293000Y143750D02*
Y218250D01*
X357500Y19500D02*
Y29500D01*
X352500Y24500D02*
X362500D01*
X347500Y42000D02*
X367500D01*
Y7000D02*
Y42000D01*
X347500Y7000D02*
X367500D01*
X347500D02*
Y42000D01*
X477500Y139500D02*
X487500D01*
X482500Y134500D02*
Y144500D01*
X465000Y129500D02*
Y149500D01*
X500000D01*
Y129500D02*
Y149500D01*
X465000Y129500D02*
X500000D01*
X329000Y41000D02*
Y51000D01*
X324000Y46000D02*
X334000D01*
X319000Y63500D02*
X339000D01*
Y28500D02*
Y63500D01*
X319000Y28500D02*
X339000D01*
X319000D02*
Y63500D01*
X309000Y41000D02*
Y51000D01*
X304000Y46000D02*
X314000D01*
X299000Y63500D02*
X319000D01*
Y28500D02*
Y63500D01*
X299000Y28500D02*
X319000D01*
X299000D02*
Y63500D01*
X244750Y236250D02*
X279250D01*
Y216750D02*
Y236250D01*
X244750Y216750D02*
X279250D01*
X244750D02*
Y236250D01*
X182200Y99800D02*
X244800D01*
X182200Y37200D02*
Y99800D01*
Y37200D02*
X244800D01*
Y99800D01*
X368700Y100800D02*
X431300D01*
X368700Y38200D02*
Y100800D01*
Y38200D02*
X431300D01*
Y100800D01*
X267250Y83000D02*
Y108000D01*
Y83000D02*
X309450D01*
Y108000D01*
X267250D02*
X309450D01*
M02*
