G04*
G04 #@! TF.GenerationSoftware,Altium Limited,Altium Designer,21.2.2 (38)*
G04*
G04 Layer_Color=32896*
%FSLAX44Y44*%
%MOMM*%
G71*
G04*
G04 #@! TF.SameCoordinates,E7746868-0F62-4201-A4F5-850C2E651218*
G04*
G04*
G04 #@! TF.FilePolarity,Positive*
G04*
G01*
G75*
%ADD13C,0.1000*%
%ADD106C,0.0500*%
D13*
X541186Y160940D02*
X562656D01*
X541186Y124086D02*
Y160940D01*
Y124086D02*
X562656D01*
Y160940D01*
X540686Y103890D02*
X562156D01*
X540686Y67036D02*
Y103890D01*
Y67036D02*
X562156D01*
Y103890D01*
X145500Y205000D02*
X156500D01*
X145500Y226000D02*
X156500D01*
Y205000D02*
Y226000D01*
X145500Y205000D02*
Y226000D01*
X515570Y124110D02*
Y172370D01*
X538430D01*
Y124110D02*
Y172370D01*
X515570Y124110D02*
X538430D01*
X515070Y56110D02*
Y104370D01*
X537930D01*
Y56110D02*
Y104370D01*
X515070Y56110D02*
X537930D01*
X458000Y56500D02*
Y67500D01*
X437000Y56500D02*
Y67500D01*
X458000D01*
X437000Y56500D02*
X458000D01*
Y44500D02*
Y55500D01*
X437000Y44500D02*
Y55500D01*
X458000D01*
X437000Y44500D02*
X458000D01*
X361000Y127500D02*
X372000D01*
X361000Y106500D02*
X372000D01*
X361000D02*
Y127500D01*
X372000Y106500D02*
Y127500D01*
X348500D02*
X359500D01*
X348500Y106500D02*
X359500D01*
X348500D02*
Y127500D01*
X359500Y106500D02*
Y127500D01*
X212000Y81500D02*
X223000D01*
X212000Y102500D02*
X223000D01*
Y81500D02*
Y102500D01*
X212000Y81500D02*
Y102500D01*
X199500Y81500D02*
X210500D01*
X199500Y102500D02*
X210500D01*
Y81500D02*
Y102500D01*
X199500Y81500D02*
Y102500D01*
X397000Y58000D02*
X408000D01*
X397000Y37000D02*
X408000D01*
X397000D02*
Y58000D01*
X408000Y37000D02*
Y58000D01*
X385000Y58000D02*
X396000D01*
X385000Y37000D02*
X396000D01*
X385000D02*
Y58000D01*
X396000Y37000D02*
Y58000D01*
X272000Y29000D02*
X283000D01*
X272000Y50000D02*
X283000D01*
Y29000D02*
Y50000D01*
X272000Y29000D02*
Y50000D01*
X260000Y29000D02*
X271000D01*
X260000Y50000D02*
X271000D01*
Y29000D02*
Y50000D01*
X260000Y29000D02*
Y50000D01*
X121500Y150500D02*
Y161500D01*
X142500Y150500D02*
Y161500D01*
X121500Y150500D02*
X142500D01*
X121500Y161500D02*
X142500D01*
X469000Y102000D02*
X480000D01*
X469000Y123000D02*
X480000D01*
Y102000D02*
Y123000D01*
X469000Y102000D02*
Y123000D01*
X164999Y96750D02*
X175999D01*
X164999Y117750D02*
X175999D01*
Y96750D02*
Y117750D01*
X164999Y96750D02*
Y117750D01*
X132000Y97000D02*
X143000D01*
X132000Y118000D02*
X143000D01*
Y97000D02*
Y118000D01*
X132000Y97000D02*
Y118000D01*
X328000Y51500D02*
Y62500D01*
X307000Y51500D02*
Y62500D01*
X328000D01*
X307000Y51500D02*
X328000D01*
X307000Y78500D02*
Y89500D01*
X328000Y78500D02*
Y89500D01*
X307000Y78500D02*
X328000D01*
X307000Y89500D02*
X328000D01*
X187500Y221000D02*
Y232000D01*
X208500Y221000D02*
Y232000D01*
X187500Y221000D02*
X208500D01*
X187500Y232000D02*
X208500D01*
X203000Y140500D02*
X214000D01*
X203000Y119500D02*
X214000D01*
X203000D02*
Y140500D01*
X214000Y119500D02*
Y140500D01*
X180500Y183000D02*
X191500D01*
X180500Y204000D02*
X191500D01*
Y183000D02*
Y204000D01*
X180500Y183000D02*
Y204000D01*
X192500Y183000D02*
X203500D01*
X192500Y204000D02*
X203500D01*
Y183000D02*
Y204000D01*
X192500Y183000D02*
Y204000D01*
X191000Y140500D02*
X202000D01*
X191000Y119500D02*
X202000D01*
X191000D02*
Y140500D01*
X202000Y119500D02*
Y140500D01*
X179000D02*
X190000D01*
X179000Y119500D02*
X190000D01*
X179000D02*
Y140500D01*
X190000Y119500D02*
Y140500D01*
X476500Y190500D02*
X497500D01*
X476500Y201500D02*
X497500D01*
X476500Y190500D02*
Y201500D01*
X497500Y190500D02*
Y201500D01*
X454500D02*
X475500D01*
X454500Y190500D02*
X475500D01*
Y201500D01*
X454500Y190500D02*
Y201500D01*
X453750Y184001D02*
X474750D01*
X453750Y173001D02*
X474750D01*
Y184001D01*
X453750Y173001D02*
Y184001D01*
X475750Y173001D02*
X496750D01*
X475750Y184001D02*
X496750D01*
X475750Y173001D02*
Y184001D01*
X496750Y173001D02*
Y184001D01*
X384500Y106500D02*
Y127500D01*
X373500Y106500D02*
Y127500D01*
Y106500D02*
X384500D01*
X373500Y127500D02*
X384500D01*
X127500Y213500D02*
Y234500D01*
X138500Y213500D02*
Y234500D01*
X127500D02*
X138500D01*
X127500Y213500D02*
X138500D01*
X111499Y213250D02*
Y234250D01*
X122499Y213250D02*
Y234250D01*
X111499D02*
X122499D01*
X111499Y213250D02*
X122499D01*
X231500Y120000D02*
X252500D01*
X231500Y131000D02*
X252500D01*
X231500Y120000D02*
Y131000D01*
X252500Y120000D02*
Y131000D01*
X8500Y177000D02*
X31500D01*
X8500Y223000D02*
X31500D01*
X8500Y177000D02*
Y223000D01*
X15000Y200000D02*
X25000D01*
X20000Y195000D02*
Y205000D01*
X31500Y177000D02*
Y223000D01*
X81500Y177000D02*
X104500D01*
X81500Y223000D02*
X104500D01*
X81500Y177000D02*
Y223000D01*
X88000Y200000D02*
X98000D01*
X93000Y195000D02*
Y205000D01*
X104500Y177000D02*
Y223000D01*
X79500Y177000D02*
Y223000D01*
X68000Y195000D02*
Y205000D01*
X63000Y200000D02*
X73000D01*
X56500Y177000D02*
Y223000D01*
X79500D01*
X56500Y177000D02*
X79500D01*
X32500D02*
X55500D01*
X32500Y223000D02*
X55500D01*
X32500Y177000D02*
Y223000D01*
X39000Y200000D02*
X49000D01*
X44000Y195000D02*
Y205000D01*
X55500Y177000D02*
Y223000D01*
D106*
X446750Y20750D02*
Y30750D01*
X441750Y25750D02*
X451750D01*
X436750Y8250D02*
X456750D01*
Y43250D01*
X436750D02*
X456750D01*
X436750Y8250D02*
Y43250D01*
X296500Y40500D02*
X306500D01*
X301500Y35500D02*
Y45500D01*
X284000Y30500D02*
Y50500D01*
Y30500D02*
X319000D01*
Y50500D01*
X284000D02*
X319000D01*
M02*
