G04*
G04 #@! TF.GenerationSoftware,Altium Limited,Altium Designer,21.2.2 (38)*
G04*
G04 Layer_Color=128*
%FSLAX44Y44*%
%MOMM*%
G71*
G04*
G04 #@! TF.SameCoordinates,E7746868-0F62-4201-A4F5-850C2E651218*
G04*
G04*
G04 #@! TF.FilePolarity,Positive*
G04*
G01*
G75*
%ADD21R,0.6000X0.5000*%
%ADD27R,1.2500X0.9000*%
%ADD28R,0.9000X1.2500*%
%ADD34R,0.5000X0.6000*%
%ADD38R,1.6000X4.9000*%
%ADD39R,4.9000X1.6000*%
%ADD91R,1.3970X1.0160*%
%ADD92R,0.2400X0.2100*%
%ADD93P,0.6788X4X180.0*%
%ADD94R,0.6000X1.2000*%
%ADD95R,1.6510X1.0160*%
%ADD96R,0.3000X0.4750*%
%ADD97R,1.8000X1.1500*%
D21*
X151001Y210251D02*
D03*
Y220750D02*
D03*
X366499Y122249D02*
D03*
Y111750D02*
D03*
X353999Y122249D02*
D03*
Y111750D02*
D03*
X217501Y86751D02*
D03*
Y97250D02*
D03*
X205001Y86751D02*
D03*
Y97250D02*
D03*
X402499Y52749D02*
D03*
Y42250D02*
D03*
X390499Y52749D02*
D03*
Y42250D02*
D03*
X277501Y34251D02*
D03*
Y44750D02*
D03*
X265501Y34251D02*
D03*
Y44750D02*
D03*
X474501Y107251D02*
D03*
Y117750D02*
D03*
X170500Y102000D02*
D03*
Y112500D02*
D03*
X137501Y102251D02*
D03*
Y112750D02*
D03*
X208499Y135249D02*
D03*
Y124750D02*
D03*
X186001Y188251D02*
D03*
Y198750D02*
D03*
X198001Y188251D02*
D03*
Y198750D02*
D03*
X196499Y135249D02*
D03*
Y124750D02*
D03*
X184499Y135249D02*
D03*
Y124750D02*
D03*
X378999Y111750D02*
D03*
Y122249D02*
D03*
X133001Y229250D02*
D03*
Y218751D02*
D03*
X117000Y229000D02*
D03*
Y218500D02*
D03*
D27*
X446750Y34750D02*
D03*
Y16750D02*
D03*
D28*
X310500Y40500D02*
D03*
X292500D02*
D03*
D34*
X452749Y62001D02*
D03*
X442250D02*
D03*
X452749Y50001D02*
D03*
X442250D02*
D03*
X126751Y155999D02*
D03*
X137250D02*
D03*
X322749Y57001D02*
D03*
X312250D02*
D03*
X312251Y83999D02*
D03*
X322750D02*
D03*
X192751Y226499D02*
D03*
X203250D02*
D03*
X481750Y196001D02*
D03*
X492249D02*
D03*
X470250Y195999D02*
D03*
X459751D02*
D03*
X469500Y178500D02*
D03*
X459000D02*
D03*
X480999Y178501D02*
D03*
X491499D02*
D03*
X236750Y125501D02*
D03*
X247249D02*
D03*
D38*
X557500Y28250D02*
D03*
X472500D02*
D03*
D39*
X621750Y144000D02*
D03*
Y229000D02*
D03*
D91*
X552000Y133000D02*
D03*
Y152050D02*
D03*
X551500Y75950D02*
D03*
Y95000D02*
D03*
D92*
X149500Y111000D02*
D03*
X149500Y104500D02*
D03*
X159000D02*
D03*
Y111000D02*
D03*
X311264Y67214D02*
D03*
Y73714D02*
D03*
X320764D02*
D03*
X320764Y67214D02*
D03*
D93*
X154250Y107750D02*
D03*
X316014Y70464D02*
D03*
D94*
X465000Y160000D02*
D03*
X474500D02*
D03*
X484000D02*
D03*
Y135000D02*
D03*
X474500D02*
D03*
X465000D02*
D03*
D95*
X527000Y163480D02*
D03*
Y133000D02*
D03*
X526500Y95480D02*
D03*
Y65000D02*
D03*
D96*
X124000Y183380D02*
D03*
X129000D02*
D03*
X134000D02*
D03*
Y166620D02*
D03*
X129000D02*
D03*
X124000D02*
D03*
D97*
X20000Y185500D02*
D03*
Y214500D02*
D03*
X93000Y185500D02*
D03*
Y214500D02*
D03*
X68000D02*
D03*
Y185500D02*
D03*
X44000D02*
D03*
Y214500D02*
D03*
M02*
