G04*
G04 #@! TF.GenerationSoftware,Altium Limited,Altium Designer,21.2.2 (38)*
G04*
G04 Layer_Color=13010237*
%FSLAX44Y44*%
%MOMM*%
G71*
G04*
G04 #@! TF.SameCoordinates,E7746868-0F62-4201-A4F5-850C2E651218*
G04*
G04*
G04 #@! TF.FilePolarity,Positive*
G04*
G01*
G75*
%ADD11C,0.2000*%
%ADD111C,0.1400*%
D11*
X82250Y61250D02*
G03*
X82250Y61250I-6000J0D01*
G01*
X412500Y225000D02*
G03*
X412500Y225000I-6000J0D01*
G01*
X248000Y210500D02*
G03*
X248000Y210500I-6000J0D01*
G01*
X185000Y224500D02*
G03*
X185000Y224500I-6000J0D01*
G01*
X82500Y32500D02*
G03*
X82500Y32500I-6000J0D01*
G01*
X137315Y172000D02*
G03*
X137315Y172000I-6000J0D01*
G01*
X264000Y115500D02*
G03*
X264000Y115500I-6000J0D01*
G01*
X254500Y108000D02*
G03*
X254500Y108000I-6000J0D01*
G01*
X242500Y104500D02*
G03*
X242500Y104500I-6000J0D01*
G01*
X339499Y103001D02*
G03*
X339499Y103001I-6000J0D01*
G01*
X286000Y64000D02*
G03*
X286000Y64000I-6000J0D01*
G01*
X275500Y74500D02*
G03*
X275500Y74500I-6000J0D01*
G01*
X257000Y81000D02*
G03*
X257000Y81000I-6000J0D01*
G01*
D111*
X87259Y64545D02*
X91924D01*
X89592D01*
Y57547D01*
X94257D02*
Y64545D01*
X97756D01*
X98922Y63379D01*
Y61046D01*
X97756Y59880D01*
X94257D01*
X101255Y57547D02*
X103587D01*
X102421D01*
Y64545D01*
X101255Y63379D01*
X254656Y124805D02*
Y129470D01*
Y127137D01*
X261654D01*
Y131803D02*
X254656D01*
Y135301D01*
X255822Y136468D01*
X258155D01*
X259321Y135301D01*
Y131803D01*
X261654Y142299D02*
X254656D01*
X258155Y138800D01*
Y143465D01*
X416531Y228326D02*
X421196D01*
X418863D01*
Y221329D01*
X423529D02*
Y228326D01*
X427027D01*
X428194Y227160D01*
Y224828D01*
X427027Y223661D01*
X423529D01*
X435191Y221329D02*
X430526D01*
X435191Y225994D01*
Y227160D01*
X434025Y228326D01*
X431693D01*
X430526Y227160D01*
X437524Y228326D02*
X442189D01*
Y227160D01*
X437524Y222495D01*
Y221329D01*
X251076Y214329D02*
X255741D01*
X253409D01*
Y207332D01*
X258074D02*
Y214329D01*
X261573D01*
X262739Y213163D01*
Y210830D01*
X261573Y209664D01*
X258074D01*
X265071Y207332D02*
X267404D01*
X266238D01*
Y214329D01*
X265071Y213163D01*
X270903D02*
X272069Y214329D01*
X274402D01*
X275568Y213163D01*
Y208498D01*
X274402Y207332D01*
X272069D01*
X270903Y208498D01*
Y213163D01*
X187013Y228667D02*
X191678D01*
X189346D01*
Y221669D01*
X194011D02*
Y228667D01*
X197510D01*
X198676Y227501D01*
Y225168D01*
X197510Y224002D01*
X194011D01*
X205674Y228667D02*
X203341Y227501D01*
X201009Y225168D01*
Y222836D01*
X202175Y221669D01*
X204508D01*
X205674Y222836D01*
Y224002D01*
X204508Y225168D01*
X201009D01*
X85734Y35259D02*
X90399D01*
X88067D01*
Y28262D01*
X92732D02*
Y35259D01*
X96230D01*
X97397Y34093D01*
Y31760D01*
X96230Y30594D01*
X92732D01*
X99729Y35259D02*
X104395D01*
Y34093D01*
X99729Y29428D01*
Y28262D01*
X140644Y175892D02*
X145309D01*
X142977D01*
Y168894D01*
X147642D02*
Y175892D01*
X151141D01*
X152307Y174726D01*
Y172393D01*
X151141Y171227D01*
X147642D01*
X159305Y168894D02*
X154640D01*
X159305Y173559D01*
Y174726D01*
X158139Y175892D01*
X155806D01*
X154640Y174726D01*
X161637D02*
X162804Y175892D01*
X165136D01*
X166303Y174726D01*
Y173559D01*
X165136Y172393D01*
X163970D01*
X165136D01*
X166303Y171227D01*
Y170060D01*
X165136Y168894D01*
X162804D01*
X161637Y170060D01*
X242523Y124805D02*
Y129470D01*
Y127137D01*
X249520D01*
Y131803D02*
X242523D01*
Y135301D01*
X243689Y136468D01*
X246022D01*
X247188Y135301D01*
Y131803D01*
X243689Y138800D02*
X242523Y139966D01*
Y142299D01*
X243689Y143465D01*
X244855D01*
X246022Y142299D01*
Y141133D01*
Y142299D01*
X247188Y143465D01*
X248354D01*
X249520Y142299D01*
Y139966D01*
X248354Y138800D01*
X229971Y125432D02*
Y130098D01*
Y127765D01*
X236969D01*
Y132430D02*
X229971D01*
Y135929D01*
X231137Y137095D01*
X233470D01*
X234636Y135929D01*
Y132430D01*
X236969Y144093D02*
Y139428D01*
X232304Y144093D01*
X231137D01*
X229971Y142927D01*
Y140594D01*
X231137Y139428D01*
X342081Y107369D02*
X346747D01*
X344414D01*
Y100372D01*
X349079D02*
Y107369D01*
X352578D01*
X353744Y106203D01*
Y103870D01*
X352578Y102704D01*
X349079D01*
X360742Y107369D02*
X356077D01*
Y103870D01*
X358410Y105037D01*
X359576D01*
X360742Y103870D01*
Y101538D01*
X359576Y100372D01*
X357243D01*
X356077Y101538D01*
X289513Y66376D02*
X294179D01*
X291846D01*
Y59378D01*
X296511D02*
Y66376D01*
X300010D01*
X301176Y65210D01*
Y62877D01*
X300010Y61711D01*
X296511D01*
X303509Y65210D02*
X304675Y66376D01*
X307008D01*
X308174Y65210D01*
Y64043D01*
X307008Y62877D01*
X305842D01*
X307008D01*
X308174Y61711D01*
Y60545D01*
X307008Y59378D01*
X304675D01*
X303509Y60545D01*
X310507Y59378D02*
X312839D01*
X311673D01*
Y66376D01*
X310507Y65210D01*
X289058Y78876D02*
X293723D01*
X291391D01*
Y71879D01*
X296056D02*
Y78876D01*
X299555D01*
X300721Y77710D01*
Y75377D01*
X299555Y74211D01*
X296056D01*
X303054Y77710D02*
X304220Y78876D01*
X306553D01*
X307719Y77710D01*
Y76544D01*
X306553Y75377D01*
X305386D01*
X306553D01*
X307719Y74211D01*
Y73045D01*
X306553Y71879D01*
X304220D01*
X303054Y73045D01*
X310051Y77710D02*
X311218Y78876D01*
X313550D01*
X314717Y77710D01*
Y73045D01*
X313550Y71879D01*
X311218D01*
X310051Y73045D01*
Y77710D01*
X214376Y84315D02*
X219041D01*
X216708D01*
Y77318D01*
X221374D02*
Y84315D01*
X224872D01*
X226039Y83149D01*
Y80816D01*
X224872Y79650D01*
X221374D01*
X233036Y77318D02*
X228371D01*
X233036Y81983D01*
Y83149D01*
X231870Y84315D01*
X229538D01*
X228371Y83149D01*
X235369Y78484D02*
X236535Y77318D01*
X238868D01*
X240034Y78484D01*
Y83149D01*
X238868Y84315D01*
X236535D01*
X235369Y83149D01*
Y81983D01*
X236535Y80816D01*
X240034D01*
M02*
