G04*
G04 #@! TF.GenerationSoftware,Altium Limited,Altium Designer,21.2.2 (38)*
G04*
G04 Layer_Color=32896*
%FSLAX44Y44*%
%MOMM*%
G71*
G04*
G04 #@! TF.SameCoordinates,E7746868-0F62-4201-A4F5-850C2E651218*
G04*
G04*
G04 #@! TF.FilePolarity,Positive*
G04*
G01*
G75*
%ADD11C,0.2000*%
%ADD12C,0.2540*%
%ADD13C,0.1000*%
%ADD14C,0.1200*%
%ADD16C,0.1500*%
%ADD105C,0.1300*%
G36*
X118957Y44541D02*
X119067D01*
Y44430D01*
Y44320D01*
Y44209D01*
Y44099D01*
Y43988D01*
Y43878D01*
Y43767D01*
Y43656D01*
Y43546D01*
Y43435D01*
Y43325D01*
Y43214D01*
Y43103D01*
Y42993D01*
Y42882D01*
Y42772D01*
Y42661D01*
Y42551D01*
Y42440D01*
Y42329D01*
Y42219D01*
Y42108D01*
Y41998D01*
Y41887D01*
Y41776D01*
Y41666D01*
Y41555D01*
Y41445D01*
Y41334D01*
Y41224D01*
Y41113D01*
Y41002D01*
Y40892D01*
Y40781D01*
Y40671D01*
Y40560D01*
Y40450D01*
Y40339D01*
Y40228D01*
Y40118D01*
Y40007D01*
Y39897D01*
Y39786D01*
Y39676D01*
Y39565D01*
Y39454D01*
Y39344D01*
Y39233D01*
Y39123D01*
Y39012D01*
Y38902D01*
Y38791D01*
Y38680D01*
Y38570D01*
Y38459D01*
Y38349D01*
Y38238D01*
Y38127D01*
Y38017D01*
Y37906D01*
Y37796D01*
Y37685D01*
Y37575D01*
Y37464D01*
Y37353D01*
Y37243D01*
Y37132D01*
Y37022D01*
Y36911D01*
Y36800D01*
Y36690D01*
Y36579D01*
Y36469D01*
Y36358D01*
Y36248D01*
Y36137D01*
Y36026D01*
Y35916D01*
Y35805D01*
Y35695D01*
Y35584D01*
Y35474D01*
Y35363D01*
Y35252D01*
Y35142D01*
Y35031D01*
Y34921D01*
Y34810D01*
Y34699D01*
Y34589D01*
Y34478D01*
Y34368D01*
Y34257D01*
Y34147D01*
Y34036D01*
Y33925D01*
Y33815D01*
Y33704D01*
Y33594D01*
Y33483D01*
Y33373D01*
Y33262D01*
Y33151D01*
Y33041D01*
Y32930D01*
Y32820D01*
Y32709D01*
Y32599D01*
Y32488D01*
Y32377D01*
Y32267D01*
Y32156D01*
Y32046D01*
Y31935D01*
Y31825D01*
Y31714D01*
Y31603D01*
Y31493D01*
Y31382D01*
Y31272D01*
Y31161D01*
Y31051D01*
Y30940D01*
Y30829D01*
Y30719D01*
Y30608D01*
Y30498D01*
Y30387D01*
Y30277D01*
Y30166D01*
Y30055D01*
Y29945D01*
Y29834D01*
Y29724D01*
Y29613D01*
Y29502D01*
Y29392D01*
Y29281D01*
Y29171D01*
Y29060D01*
Y28949D01*
Y28839D01*
Y28728D01*
Y28618D01*
Y28507D01*
Y28397D01*
Y28286D01*
Y28175D01*
Y28065D01*
Y27954D01*
Y27844D01*
Y27733D01*
Y27623D01*
Y27512D01*
Y27401D01*
Y27291D01*
Y27180D01*
Y27070D01*
Y26959D01*
X116856D01*
Y27070D01*
Y27180D01*
Y27291D01*
Y27401D01*
Y27512D01*
Y27623D01*
Y27733D01*
Y27844D01*
Y27954D01*
Y28065D01*
Y28175D01*
Y28286D01*
Y28397D01*
Y28507D01*
Y28618D01*
Y28728D01*
Y28839D01*
Y28949D01*
Y29060D01*
Y29171D01*
Y29281D01*
Y29392D01*
Y29502D01*
Y29613D01*
Y29724D01*
Y29834D01*
Y29945D01*
Y30055D01*
Y30166D01*
Y30277D01*
Y30387D01*
Y30498D01*
Y30608D01*
Y30719D01*
Y30829D01*
Y30940D01*
Y31051D01*
Y31161D01*
Y31272D01*
Y31382D01*
Y31493D01*
Y31603D01*
Y31714D01*
Y31825D01*
Y31935D01*
Y32046D01*
Y32156D01*
Y32267D01*
Y32377D01*
Y32488D01*
Y32599D01*
Y32709D01*
Y32820D01*
Y32930D01*
Y33041D01*
Y33151D01*
Y33262D01*
Y33373D01*
Y33483D01*
Y33594D01*
Y33704D01*
Y33815D01*
Y33925D01*
Y34036D01*
Y34147D01*
Y34257D01*
Y34368D01*
Y34478D01*
Y34589D01*
Y34699D01*
Y34810D01*
Y34921D01*
Y35031D01*
Y35142D01*
Y35252D01*
Y35363D01*
Y35474D01*
X110000D01*
Y35363D01*
Y35252D01*
Y35142D01*
Y35031D01*
Y34921D01*
Y34810D01*
Y34699D01*
Y34589D01*
Y34478D01*
Y34368D01*
Y34257D01*
Y34147D01*
Y34036D01*
Y33925D01*
Y33815D01*
Y33704D01*
Y33594D01*
Y33483D01*
Y33373D01*
Y33262D01*
Y33151D01*
Y33041D01*
Y32930D01*
Y32820D01*
Y32709D01*
Y32599D01*
Y32488D01*
Y32377D01*
Y32267D01*
Y32156D01*
Y32046D01*
Y31935D01*
Y31825D01*
Y31714D01*
Y31603D01*
Y31493D01*
Y31382D01*
Y31272D01*
Y31161D01*
Y31051D01*
Y30940D01*
Y30829D01*
Y30719D01*
Y30608D01*
Y30498D01*
Y30387D01*
Y30277D01*
Y30166D01*
Y30055D01*
Y29945D01*
Y29834D01*
Y29724D01*
Y29613D01*
Y29502D01*
Y29392D01*
Y29281D01*
Y29171D01*
Y29060D01*
Y28949D01*
Y28839D01*
Y28728D01*
Y28618D01*
Y28507D01*
Y28397D01*
Y28286D01*
Y28175D01*
Y28065D01*
Y27954D01*
Y27844D01*
Y27733D01*
Y27623D01*
Y27512D01*
Y27401D01*
Y27291D01*
Y27180D01*
Y27070D01*
Y26959D01*
X107788D01*
Y27070D01*
Y27180D01*
Y27291D01*
Y27401D01*
Y27512D01*
Y27623D01*
Y27733D01*
Y27844D01*
Y27954D01*
Y28065D01*
Y28175D01*
Y28286D01*
Y28397D01*
Y28507D01*
Y28618D01*
Y28728D01*
Y28839D01*
Y28949D01*
Y29060D01*
Y29171D01*
Y29281D01*
Y29392D01*
Y29502D01*
Y29613D01*
Y29724D01*
Y29834D01*
Y29945D01*
Y30055D01*
Y30166D01*
Y30277D01*
Y30387D01*
Y30498D01*
Y30608D01*
Y30719D01*
Y30829D01*
Y30940D01*
Y31051D01*
Y31161D01*
Y31272D01*
Y31382D01*
Y31493D01*
Y31603D01*
Y31714D01*
Y31825D01*
Y31935D01*
Y32046D01*
Y32156D01*
Y32267D01*
Y32377D01*
Y32488D01*
Y32599D01*
Y32709D01*
Y32820D01*
Y32930D01*
Y33041D01*
Y33151D01*
Y33262D01*
Y33373D01*
Y33483D01*
Y33594D01*
Y33704D01*
Y33815D01*
Y33925D01*
Y34036D01*
Y34147D01*
Y34257D01*
Y34368D01*
Y34478D01*
Y34589D01*
Y34699D01*
Y34810D01*
Y34921D01*
Y35031D01*
Y35142D01*
Y35252D01*
Y35363D01*
Y35474D01*
Y35584D01*
Y35695D01*
Y35805D01*
Y35916D01*
Y36026D01*
Y36137D01*
Y36248D01*
Y36358D01*
Y36469D01*
Y36579D01*
Y36690D01*
Y36800D01*
Y36911D01*
Y37022D01*
Y37132D01*
Y37243D01*
Y37353D01*
Y37464D01*
Y37575D01*
Y37685D01*
Y37796D01*
Y37906D01*
Y38017D01*
Y38127D01*
Y38238D01*
Y38349D01*
Y38459D01*
Y38570D01*
Y38680D01*
Y38791D01*
Y38902D01*
Y39012D01*
Y39123D01*
Y39233D01*
Y39344D01*
Y39454D01*
Y39565D01*
Y39676D01*
Y39786D01*
Y39897D01*
Y40007D01*
Y40118D01*
Y40228D01*
Y40339D01*
Y40450D01*
Y40560D01*
Y40671D01*
Y40781D01*
Y40892D01*
Y41002D01*
Y41113D01*
Y41224D01*
Y41334D01*
Y41445D01*
Y41555D01*
Y41666D01*
Y41776D01*
Y41887D01*
Y41998D01*
Y42108D01*
Y42219D01*
Y42329D01*
Y42440D01*
Y42551D01*
Y42661D01*
Y42772D01*
Y42882D01*
Y42993D01*
Y43103D01*
Y43214D01*
Y43325D01*
Y43435D01*
Y43546D01*
Y43656D01*
Y43767D01*
Y43878D01*
Y43988D01*
Y44099D01*
Y44209D01*
Y44320D01*
Y44430D01*
Y44541D01*
X108562D01*
Y44651D01*
X109558D01*
Y44541D01*
X110000D01*
Y44430D01*
Y44320D01*
Y44209D01*
Y44099D01*
Y43988D01*
Y43878D01*
Y43767D01*
Y43656D01*
Y43546D01*
Y43435D01*
Y43325D01*
Y43214D01*
Y43103D01*
Y42993D01*
Y42882D01*
Y42772D01*
Y42661D01*
Y42551D01*
Y42440D01*
Y42329D01*
Y42219D01*
Y42108D01*
Y41998D01*
Y41887D01*
Y41776D01*
Y41666D01*
Y41555D01*
Y41445D01*
Y41334D01*
Y41224D01*
Y41113D01*
Y41002D01*
Y40892D01*
Y40781D01*
Y40671D01*
Y40560D01*
Y40450D01*
Y40339D01*
Y40228D01*
Y40118D01*
Y40007D01*
Y39897D01*
Y39786D01*
Y39676D01*
Y39565D01*
Y39454D01*
Y39344D01*
Y39233D01*
Y39123D01*
Y39012D01*
Y38902D01*
Y38791D01*
Y38680D01*
Y38570D01*
Y38459D01*
Y38349D01*
Y38238D01*
Y38127D01*
Y38017D01*
Y37906D01*
Y37796D01*
Y37685D01*
Y37575D01*
Y37464D01*
Y37353D01*
X116856D01*
Y37464D01*
Y37575D01*
Y37685D01*
Y37796D01*
Y37906D01*
Y38017D01*
Y38127D01*
Y38238D01*
Y38349D01*
Y38459D01*
Y38570D01*
Y38680D01*
Y38791D01*
Y38902D01*
Y39012D01*
Y39123D01*
Y39233D01*
Y39344D01*
Y39454D01*
Y39565D01*
Y39676D01*
Y39786D01*
Y39897D01*
Y40007D01*
Y40118D01*
Y40228D01*
Y40339D01*
Y40450D01*
Y40560D01*
Y40671D01*
Y40781D01*
Y40892D01*
Y41002D01*
Y41113D01*
Y41224D01*
Y41334D01*
Y41445D01*
Y41555D01*
Y41666D01*
Y41776D01*
Y41887D01*
Y41998D01*
Y42108D01*
Y42219D01*
Y42329D01*
Y42440D01*
Y42551D01*
Y42661D01*
Y42772D01*
Y42882D01*
Y42993D01*
Y43103D01*
Y43214D01*
Y43325D01*
Y43435D01*
Y43546D01*
Y43656D01*
Y43767D01*
Y43878D01*
Y43988D01*
Y44099D01*
Y44209D01*
Y44320D01*
Y44430D01*
Y44541D01*
X116966D01*
Y44651D01*
X118957D01*
Y44541D01*
D02*
G37*
G36*
X89543Y57700D02*
Y57589D01*
X89654D01*
Y57478D01*
Y57368D01*
Y57257D01*
Y57147D01*
Y57036D01*
Y56926D01*
X89764D01*
Y56815D01*
Y56704D01*
Y56594D01*
Y56483D01*
Y56373D01*
X89875D01*
Y56262D01*
Y56151D01*
Y56041D01*
Y55930D01*
Y55820D01*
Y55709D01*
X90096D01*
Y55599D01*
Y55488D01*
Y55377D01*
Y55267D01*
Y55156D01*
X90207D01*
Y55046D01*
Y54935D01*
Y54825D01*
Y54714D01*
Y54603D01*
Y54493D01*
X90317D01*
Y54382D01*
Y54272D01*
Y54161D01*
Y54050D01*
Y53940D01*
Y53829D01*
X90428D01*
Y53719D01*
Y53608D01*
Y53498D01*
Y53387D01*
Y53277D01*
X90538D01*
Y53166D01*
Y53055D01*
Y52945D01*
Y52834D01*
Y52724D01*
Y52613D01*
X90760D01*
Y52502D01*
X90649D01*
Y52392D01*
Y52281D01*
Y52171D01*
Y52060D01*
Y51950D01*
X90870D01*
Y51839D01*
Y51728D01*
Y51618D01*
Y51507D01*
Y51397D01*
Y51286D01*
X90981D01*
Y51175D01*
Y51065D01*
Y50954D01*
Y50844D01*
X91091D01*
Y50733D01*
Y50623D01*
Y50512D01*
Y50402D01*
Y50291D01*
Y50180D01*
X91202D01*
Y50070D01*
Y49959D01*
Y49849D01*
Y49738D01*
Y49627D01*
Y49517D01*
X91312D01*
Y49406D01*
Y49296D01*
Y49185D01*
Y49075D01*
Y48964D01*
Y48853D01*
X91534D01*
Y48743D01*
Y48632D01*
Y48522D01*
Y48411D01*
Y48300D01*
Y48190D01*
X91644D01*
Y48079D01*
Y47969D01*
Y47858D01*
Y47748D01*
Y47637D01*
X91755D01*
Y47526D01*
Y47416D01*
Y47305D01*
Y47195D01*
Y47084D01*
Y46974D01*
X91865D01*
Y46863D01*
Y46752D01*
Y46642D01*
Y46531D01*
Y46421D01*
Y46310D01*
X91976D01*
Y46200D01*
Y46089D01*
Y45978D01*
Y45868D01*
Y45757D01*
X92086D01*
Y45647D01*
Y45536D01*
Y45426D01*
Y45315D01*
Y45204D01*
Y45094D01*
X92308D01*
Y44983D01*
Y44873D01*
Y44762D01*
Y44651D01*
Y44541D01*
X92418D01*
Y44430D01*
Y44320D01*
Y44209D01*
Y44099D01*
Y43988D01*
Y43878D01*
X92529D01*
Y43767D01*
Y43656D01*
Y43546D01*
Y43435D01*
Y43325D01*
Y43214D01*
X92639D01*
Y43103D01*
Y42993D01*
Y42882D01*
Y42772D01*
Y42661D01*
Y42551D01*
X92750D01*
Y42440D01*
Y42329D01*
Y42219D01*
Y42108D01*
X92860D01*
Y41998D01*
X92971D01*
Y41887D01*
Y41776D01*
Y41666D01*
Y41555D01*
Y41445D01*
X93082D01*
Y41334D01*
Y41224D01*
Y41113D01*
Y41002D01*
Y40892D01*
Y40781D01*
X93192D01*
Y40671D01*
Y40560D01*
Y40450D01*
Y40339D01*
Y40228D01*
Y40118D01*
X93303D01*
Y40007D01*
Y39897D01*
Y39786D01*
Y39676D01*
Y39565D01*
Y39454D01*
X93413D01*
Y39344D01*
Y39233D01*
Y39123D01*
Y39012D01*
Y38902D01*
Y38791D01*
X93635D01*
Y38680D01*
X93524D01*
Y38570D01*
Y38459D01*
Y38349D01*
Y38238D01*
X93745D01*
Y38127D01*
Y38017D01*
Y37906D01*
Y37796D01*
Y37685D01*
Y37575D01*
X93856D01*
Y37464D01*
Y37353D01*
Y37243D01*
Y37132D01*
Y37022D01*
Y36911D01*
X93966D01*
Y36800D01*
Y36690D01*
Y36579D01*
Y36469D01*
Y36358D01*
X94077D01*
Y36248D01*
Y36137D01*
Y36026D01*
Y35916D01*
Y35805D01*
X94187D01*
Y35695D01*
Y35584D01*
Y35474D01*
Y35363D01*
Y35252D01*
Y35142D01*
X94409D01*
Y35031D01*
X94298D01*
Y34921D01*
Y34810D01*
Y34699D01*
Y34589D01*
Y34478D01*
X94519D01*
Y34368D01*
Y34257D01*
Y34147D01*
Y34036D01*
Y33925D01*
Y33815D01*
X94630D01*
Y33704D01*
Y33594D01*
Y33483D01*
Y33373D01*
Y33262D01*
Y33151D01*
X94740D01*
Y33041D01*
Y32930D01*
Y32820D01*
Y32709D01*
Y32599D01*
X94851D01*
Y32488D01*
Y32377D01*
Y32267D01*
Y32156D01*
Y32046D01*
X94962D01*
Y31935D01*
Y31825D01*
Y31714D01*
Y31603D01*
Y31493D01*
Y31382D01*
X95183D01*
Y31272D01*
Y31161D01*
Y31051D01*
Y30940D01*
Y30829D01*
Y30719D01*
X95293D01*
Y30608D01*
Y30498D01*
Y30387D01*
Y30277D01*
X95514D01*
Y30387D01*
Y30498D01*
Y30608D01*
Y30719D01*
X95736D01*
Y30829D01*
Y30940D01*
Y31051D01*
X95625D01*
Y31161D01*
X95736D01*
Y31272D01*
X95846D01*
Y31382D01*
Y31493D01*
Y31603D01*
Y31714D01*
Y31825D01*
X95957D01*
Y31935D01*
Y32046D01*
Y32156D01*
Y32267D01*
Y32377D01*
Y32488D01*
X96067D01*
Y32599D01*
Y32709D01*
Y32820D01*
Y32930D01*
Y33041D01*
X96178D01*
Y33151D01*
Y33262D01*
Y33373D01*
Y33483D01*
Y33594D01*
Y33704D01*
X96288D01*
Y33815D01*
Y33925D01*
Y34036D01*
Y34147D01*
Y34257D01*
Y34368D01*
X96510D01*
Y34478D01*
Y34589D01*
Y34699D01*
Y34810D01*
Y34921D01*
X96620D01*
Y35031D01*
Y35142D01*
Y35252D01*
Y35363D01*
Y35474D01*
X96731D01*
Y35584D01*
Y35695D01*
Y35805D01*
Y35916D01*
Y36026D01*
Y36137D01*
X96841D01*
Y36248D01*
Y36358D01*
Y36469D01*
Y36579D01*
Y36690D01*
X96952D01*
Y36800D01*
Y36911D01*
Y37022D01*
Y37132D01*
Y37243D01*
Y37353D01*
X97173D01*
Y37464D01*
Y37575D01*
Y37685D01*
Y37796D01*
Y37906D01*
X97062D01*
Y38017D01*
X97284D01*
Y38127D01*
Y38238D01*
Y38349D01*
Y38459D01*
Y38570D01*
X97394D01*
Y38680D01*
Y38791D01*
Y38902D01*
Y39012D01*
Y39123D01*
Y39233D01*
X97505D01*
Y39344D01*
Y39454D01*
Y39565D01*
Y39676D01*
X99937D01*
Y39565D01*
Y39454D01*
Y39344D01*
Y39233D01*
Y39123D01*
Y39012D01*
X100159D01*
Y38902D01*
X100048D01*
Y38791D01*
Y38680D01*
Y38570D01*
Y38459D01*
Y38349D01*
X100269D01*
Y38238D01*
Y38127D01*
Y38017D01*
Y37906D01*
X100380D01*
Y37796D01*
Y37685D01*
Y37575D01*
Y37464D01*
Y37353D01*
Y37243D01*
X100490D01*
Y37132D01*
Y37022D01*
Y36911D01*
Y36800D01*
Y36690D01*
Y36579D01*
X100601D01*
Y36469D01*
Y36358D01*
Y36248D01*
Y36137D01*
Y36026D01*
Y35916D01*
X100711D01*
Y35805D01*
Y35695D01*
Y35584D01*
Y35474D01*
Y35363D01*
X100933D01*
Y35252D01*
X100822D01*
Y35142D01*
Y35031D01*
Y34921D01*
Y34810D01*
X100933D01*
Y34699D01*
X101043D01*
Y34589D01*
Y34478D01*
Y34368D01*
Y34257D01*
Y34147D01*
Y34036D01*
X101154D01*
Y33925D01*
Y33815D01*
Y33704D01*
Y33594D01*
X101264D01*
Y33483D01*
Y33373D01*
Y33262D01*
Y33151D01*
Y33041D01*
Y32930D01*
X101375D01*
Y32820D01*
Y32709D01*
Y32599D01*
Y32488D01*
Y32377D01*
Y32267D01*
X101596D01*
Y32156D01*
X101486D01*
Y32046D01*
Y31935D01*
Y31825D01*
Y31714D01*
Y31603D01*
X101707D01*
Y31493D01*
Y31382D01*
Y31272D01*
Y31161D01*
Y31051D01*
X101817D01*
Y30940D01*
Y30829D01*
Y30719D01*
Y30608D01*
Y30498D01*
Y30387D01*
X102038D01*
Y30498D01*
Y30608D01*
X102260D01*
Y30719D01*
Y30829D01*
Y30940D01*
Y31051D01*
Y31161D01*
Y31272D01*
Y31382D01*
Y31493D01*
X102149D01*
Y31603D01*
X102370D01*
Y31714D01*
Y31825D01*
Y31935D01*
Y32046D01*
Y32156D01*
Y32267D01*
Y32377D01*
Y32488D01*
Y32599D01*
Y32709D01*
Y32820D01*
X102481D01*
Y32930D01*
Y33041D01*
Y33151D01*
Y33262D01*
Y33373D01*
Y33483D01*
Y33594D01*
Y33704D01*
Y33815D01*
X102591D01*
Y33925D01*
Y34036D01*
Y34147D01*
Y34257D01*
Y34368D01*
Y34478D01*
Y34589D01*
Y34699D01*
Y34810D01*
Y34921D01*
Y35031D01*
X102702D01*
Y35142D01*
Y35252D01*
Y35363D01*
Y35474D01*
Y35584D01*
Y35695D01*
Y35805D01*
Y35916D01*
Y36026D01*
X102812D01*
Y36137D01*
Y36248D01*
Y36358D01*
Y36469D01*
Y36579D01*
Y36690D01*
Y36800D01*
Y36911D01*
Y37022D01*
Y37132D01*
Y37243D01*
X103034D01*
Y37353D01*
Y37464D01*
Y37575D01*
Y37685D01*
Y37796D01*
Y37906D01*
Y38017D01*
Y38127D01*
Y38238D01*
X103144D01*
Y38349D01*
Y38459D01*
Y38570D01*
Y38680D01*
Y38791D01*
Y38902D01*
Y39012D01*
Y39123D01*
Y39233D01*
Y39344D01*
X103255D01*
Y39454D01*
Y39565D01*
Y39676D01*
Y39786D01*
Y39897D01*
Y40007D01*
Y40118D01*
Y40228D01*
Y40339D01*
Y40450D01*
X103365D01*
Y40560D01*
Y40671D01*
Y40781D01*
Y40892D01*
Y41002D01*
Y41113D01*
Y41224D01*
Y41334D01*
Y41445D01*
Y41555D01*
X103476D01*
Y41666D01*
Y41776D01*
Y41887D01*
Y41998D01*
Y42108D01*
Y42219D01*
Y42329D01*
Y42440D01*
Y42551D01*
Y42661D01*
X103587D01*
Y42772D01*
X103697D01*
Y42882D01*
Y42993D01*
Y43103D01*
Y43214D01*
Y43325D01*
Y43435D01*
Y43546D01*
Y43656D01*
X103587D01*
Y43767D01*
X103808D01*
Y43878D01*
Y43988D01*
Y44099D01*
Y44209D01*
Y44320D01*
Y44430D01*
Y44541D01*
X106019D01*
Y44430D01*
Y44320D01*
X105798D01*
Y44209D01*
Y44099D01*
Y43988D01*
Y43878D01*
Y43767D01*
Y43656D01*
Y43546D01*
X105687D01*
Y43435D01*
Y43325D01*
Y43214D01*
Y43103D01*
Y42993D01*
Y42882D01*
Y42772D01*
Y42661D01*
Y42551D01*
X105577D01*
Y42440D01*
Y42329D01*
Y42219D01*
Y42108D01*
Y41998D01*
Y41887D01*
Y41776D01*
Y41666D01*
X105466D01*
Y41555D01*
Y41445D01*
Y41334D01*
Y41224D01*
Y41113D01*
Y41002D01*
Y40892D01*
X105356D01*
Y40781D01*
Y40671D01*
Y40560D01*
Y40450D01*
Y40339D01*
Y40228D01*
Y40118D01*
Y40007D01*
X105135D01*
Y39897D01*
Y39786D01*
Y39676D01*
Y39565D01*
Y39454D01*
Y39344D01*
Y39233D01*
Y39123D01*
X105024D01*
Y39012D01*
Y38902D01*
Y38791D01*
Y38680D01*
Y38570D01*
Y38459D01*
Y38349D01*
Y38238D01*
Y38127D01*
X104913D01*
Y38017D01*
Y37906D01*
Y37796D01*
Y37685D01*
Y37575D01*
Y37464D01*
Y37353D01*
X104803D01*
Y37243D01*
Y37132D01*
Y37022D01*
Y36911D01*
Y36800D01*
Y36690D01*
Y36579D01*
Y36469D01*
X104692D01*
Y36358D01*
Y36248D01*
Y36137D01*
Y36026D01*
Y35916D01*
Y35805D01*
Y35695D01*
X104582D01*
Y35584D01*
Y35474D01*
Y35363D01*
Y35252D01*
Y35142D01*
Y35031D01*
Y34921D01*
Y34810D01*
X104361D01*
Y34699D01*
Y34589D01*
Y34478D01*
Y34368D01*
Y34257D01*
Y34147D01*
Y34036D01*
Y33925D01*
Y33815D01*
X104250D01*
Y33704D01*
Y33594D01*
Y33483D01*
Y33373D01*
Y33262D01*
Y33151D01*
Y33041D01*
Y32930D01*
X104139D01*
Y32820D01*
Y32709D01*
Y32599D01*
Y32488D01*
Y32377D01*
Y32267D01*
Y32156D01*
X104029D01*
Y32046D01*
Y31935D01*
Y31825D01*
Y31714D01*
Y31603D01*
Y31493D01*
Y31382D01*
Y31272D01*
X103918D01*
Y31161D01*
Y31051D01*
Y30940D01*
Y30829D01*
Y30719D01*
Y30608D01*
Y30498D01*
Y30387D01*
Y30277D01*
X103697D01*
Y30166D01*
Y30055D01*
Y29945D01*
Y29834D01*
Y29724D01*
Y29613D01*
Y29502D01*
X103587D01*
Y29392D01*
Y29281D01*
Y29171D01*
Y29060D01*
Y28949D01*
Y28839D01*
Y28728D01*
Y28618D01*
X103476D01*
Y28507D01*
Y28397D01*
Y28286D01*
Y28175D01*
Y28065D01*
Y27954D01*
Y27844D01*
Y27733D01*
X103365D01*
Y27623D01*
Y27512D01*
Y27401D01*
Y27291D01*
Y27180D01*
Y27070D01*
X103255D01*
Y26959D01*
X101264D01*
Y27070D01*
X101154D01*
Y27180D01*
Y27291D01*
Y27401D01*
Y27512D01*
X101043D01*
Y27623D01*
Y27733D01*
Y27844D01*
Y27954D01*
X100933D01*
Y28065D01*
Y28175D01*
Y28286D01*
Y28397D01*
Y28507D01*
Y28618D01*
X100711D01*
Y28728D01*
X100822D01*
Y28839D01*
Y28949D01*
Y29060D01*
Y29171D01*
X100601D01*
Y29281D01*
Y29392D01*
Y29502D01*
Y29613D01*
Y29724D01*
X100490D01*
Y29834D01*
Y29945D01*
Y30055D01*
Y30166D01*
Y30277D01*
X100380D01*
Y30387D01*
Y30498D01*
Y30608D01*
Y30719D01*
Y30829D01*
X100269D01*
Y30940D01*
Y31051D01*
Y31161D01*
Y31272D01*
Y31382D01*
Y31493D01*
X100159D01*
Y31603D01*
Y31714D01*
Y31825D01*
Y31935D01*
Y32046D01*
X99937D01*
Y32156D01*
Y32267D01*
Y32377D01*
Y32488D01*
Y32599D01*
X99827D01*
Y32709D01*
Y32820D01*
Y32930D01*
Y33041D01*
Y33151D01*
X99716D01*
Y33262D01*
Y33373D01*
Y33483D01*
Y33594D01*
Y33704D01*
X99606D01*
Y33815D01*
Y33925D01*
Y34036D01*
Y34147D01*
Y34257D01*
Y34368D01*
X99495D01*
Y34478D01*
Y34589D01*
Y34699D01*
Y34810D01*
Y34921D01*
X99274D01*
Y35031D01*
X99385D01*
Y35142D01*
Y35252D01*
Y35363D01*
X99274D01*
Y35474D01*
X99163D01*
Y35584D01*
Y35695D01*
Y35805D01*
Y35916D01*
Y36026D01*
X99053D01*
Y36137D01*
Y36248D01*
Y36358D01*
Y36469D01*
Y36579D01*
X98942D01*
Y36690D01*
Y36800D01*
Y36911D01*
Y37022D01*
Y37132D01*
X98832D01*
Y37243D01*
Y37353D01*
X98500D01*
Y37243D01*
Y37132D01*
Y37022D01*
Y36911D01*
X98389D01*
Y36800D01*
Y36690D01*
Y36579D01*
Y36469D01*
Y36358D01*
X98279D01*
Y36248D01*
Y36137D01*
Y36026D01*
Y35916D01*
Y35805D01*
Y35695D01*
X98168D01*
Y35584D01*
Y35474D01*
Y35363D01*
Y35252D01*
Y35142D01*
X98058D01*
Y35031D01*
Y34921D01*
Y34810D01*
Y34699D01*
Y34589D01*
X97837D01*
Y34478D01*
Y34368D01*
Y34257D01*
Y34147D01*
Y34036D01*
X97726D01*
Y33925D01*
Y33815D01*
Y33704D01*
Y33594D01*
Y33483D01*
X97615D01*
Y33373D01*
Y33262D01*
Y33151D01*
Y33041D01*
Y32930D01*
X97505D01*
Y32820D01*
Y32709D01*
Y32599D01*
Y32488D01*
Y32377D01*
Y32267D01*
X97394D01*
Y32156D01*
Y32046D01*
Y31935D01*
Y31825D01*
Y31714D01*
X97173D01*
Y31603D01*
Y31493D01*
Y31382D01*
Y31272D01*
X97284D01*
Y31161D01*
X97062D01*
Y31051D01*
Y30940D01*
Y30829D01*
Y30719D01*
Y30608D01*
X96952D01*
Y30498D01*
Y30387D01*
Y30277D01*
Y30166D01*
Y30055D01*
X96841D01*
Y29945D01*
Y29834D01*
Y29724D01*
Y29613D01*
Y29502D01*
Y29392D01*
X96731D01*
Y29281D01*
Y29171D01*
Y29060D01*
Y28949D01*
X96620D01*
Y28839D01*
Y28728D01*
Y28618D01*
Y28507D01*
Y28397D01*
X96399D01*
Y28286D01*
Y28175D01*
Y28065D01*
Y27954D01*
Y27844D01*
Y27733D01*
X96288D01*
Y27623D01*
Y27512D01*
Y27401D01*
Y27291D01*
Y27180D01*
X96178D01*
Y27070D01*
Y26959D01*
X94077D01*
Y27070D01*
Y27180D01*
X93966D01*
Y27291D01*
Y27401D01*
Y27512D01*
Y27623D01*
Y27733D01*
Y27844D01*
X93856D01*
Y27954D01*
Y28065D01*
Y28175D01*
Y28286D01*
Y28397D01*
X93745D01*
Y28507D01*
Y28618D01*
Y28728D01*
Y28839D01*
Y28949D01*
Y29060D01*
X93635D01*
Y29171D01*
Y29281D01*
Y29392D01*
Y29502D01*
Y29613D01*
Y29724D01*
X93413D01*
Y29834D01*
Y29945D01*
Y30055D01*
Y30166D01*
X93303D01*
Y30277D01*
Y30387D01*
Y30498D01*
Y30608D01*
Y30719D01*
Y30829D01*
X93192D01*
Y30940D01*
Y31051D01*
Y31161D01*
Y31272D01*
Y31382D01*
Y31493D01*
X93082D01*
Y31603D01*
Y31714D01*
Y31825D01*
Y31935D01*
Y32046D01*
X92971D01*
Y32156D01*
Y32267D01*
Y32377D01*
Y32488D01*
Y32599D01*
Y32709D01*
X92750D01*
Y32820D01*
X92860D01*
Y32930D01*
Y33041D01*
Y33151D01*
X92639D01*
Y33262D01*
Y33373D01*
Y33483D01*
Y33594D01*
Y33704D01*
Y33815D01*
X92529D01*
Y33925D01*
Y34036D01*
Y34147D01*
Y34257D01*
Y34368D01*
X92418D01*
Y34478D01*
Y34589D01*
Y34699D01*
Y34810D01*
Y34921D01*
Y35031D01*
X92308D01*
Y35142D01*
Y35252D01*
Y35363D01*
Y35474D01*
Y35584D01*
Y35695D01*
X92197D01*
Y35805D01*
Y35916D01*
Y36026D01*
Y36137D01*
Y36248D01*
X91976D01*
Y36358D01*
X92086D01*
Y36469D01*
Y36579D01*
Y36690D01*
Y36800D01*
X91976D01*
Y36911D01*
X91865D01*
Y37022D01*
Y37132D01*
Y37243D01*
Y37353D01*
Y37464D01*
X91755D01*
Y37575D01*
Y37685D01*
Y37796D01*
Y37906D01*
Y38017D01*
X91644D01*
Y38127D01*
Y38238D01*
Y38349D01*
Y38459D01*
Y38570D01*
Y38680D01*
X91534D01*
Y38791D01*
Y38902D01*
Y39012D01*
Y39123D01*
Y39233D01*
X91312D01*
Y39344D01*
X91423D01*
Y39454D01*
Y39565D01*
Y39676D01*
Y39786D01*
Y39897D01*
X91202D01*
Y40007D01*
Y40118D01*
Y40228D01*
Y40339D01*
X91091D01*
Y40450D01*
Y40560D01*
Y40671D01*
Y40781D01*
Y40892D01*
Y41002D01*
X90981D01*
Y41113D01*
Y41224D01*
Y41334D01*
Y41445D01*
Y41555D01*
Y41666D01*
X90870D01*
Y41776D01*
Y41887D01*
Y41998D01*
Y42108D01*
Y42219D01*
X90760D01*
Y42329D01*
Y42440D01*
Y42551D01*
Y42661D01*
Y42772D01*
Y42882D01*
X90538D01*
Y42993D01*
X90649D01*
Y43103D01*
Y43214D01*
Y43325D01*
Y43435D01*
X90538D01*
Y43546D01*
X90428D01*
Y43656D01*
Y43767D01*
Y43878D01*
Y43988D01*
X90317D01*
Y44099D01*
Y44209D01*
Y44320D01*
Y44430D01*
Y44541D01*
Y44651D01*
X90207D01*
Y44762D01*
Y44873D01*
Y44983D01*
Y45094D01*
Y45204D01*
Y45315D01*
X90096D01*
Y45426D01*
Y45536D01*
Y45647D01*
Y45757D01*
Y45868D01*
X89875D01*
Y45978D01*
X89986D01*
Y46089D01*
Y46200D01*
Y46310D01*
Y46421D01*
Y46531D01*
X89764D01*
Y46642D01*
Y46752D01*
Y46863D01*
Y46974D01*
Y47084D01*
X89654D01*
Y47195D01*
Y47305D01*
Y47416D01*
Y47526D01*
Y47637D01*
Y47748D01*
X89543D01*
Y47858D01*
Y47969D01*
Y48079D01*
Y48190D01*
X89433D01*
Y48300D01*
Y48411D01*
Y48522D01*
Y48632D01*
Y48743D01*
Y48853D01*
X89322D01*
Y48964D01*
Y49075D01*
Y49185D01*
Y49296D01*
Y49406D01*
Y49517D01*
X89101D01*
Y49627D01*
X89212D01*
Y49738D01*
Y49849D01*
Y49959D01*
Y50070D01*
X88990D01*
Y50180D01*
Y50291D01*
Y50402D01*
Y50512D01*
Y50623D01*
Y50733D01*
X88880D01*
Y50844D01*
Y50954D01*
Y51065D01*
Y51175D01*
X88769D01*
Y51286D01*
Y51397D01*
Y51507D01*
Y51618D01*
Y51728D01*
Y51839D01*
X88659D01*
Y51950D01*
Y52060D01*
Y52171D01*
Y52281D01*
Y52392D01*
Y52502D01*
X88548D01*
Y52613D01*
Y52724D01*
Y52834D01*
Y52945D01*
Y53055D01*
X88327D01*
Y53166D01*
Y53277D01*
Y53387D01*
Y53498D01*
Y53608D01*
Y53719D01*
X88216D01*
Y53829D01*
Y53940D01*
Y54050D01*
Y54161D01*
Y54272D01*
X88106D01*
Y54382D01*
Y54493D01*
Y54603D01*
Y54714D01*
Y54825D01*
X87995D01*
Y54935D01*
Y55046D01*
Y55156D01*
Y55267D01*
Y55377D01*
Y55488D01*
X87885D01*
Y55599D01*
Y55709D01*
Y55820D01*
Y55930D01*
Y56041D01*
X87663D01*
Y56151D01*
X87774D01*
Y56262D01*
Y56373D01*
Y56483D01*
Y56594D01*
Y56704D01*
X87553D01*
Y56815D01*
Y56926D01*
Y57036D01*
Y57147D01*
Y57257D01*
Y57368D01*
X87442D01*
Y57478D01*
Y57589D01*
Y57700D01*
Y57810D01*
X89543D01*
Y57700D01*
D02*
G37*
G36*
X143726Y44762D02*
X144389D01*
Y44651D01*
X144721D01*
Y44541D01*
X145163D01*
Y44430D01*
X145385D01*
Y44320D01*
X145606D01*
Y44209D01*
X145716D01*
Y44099D01*
X145827D01*
Y43988D01*
X146048D01*
Y43878D01*
X146159D01*
Y43767D01*
X146269D01*
Y43656D01*
X146380D01*
Y43546D01*
X146490D01*
Y43435D01*
X146601D01*
Y43325D01*
X146712D01*
Y43214D01*
X146822D01*
Y43103D01*
X146933D01*
Y42993D01*
Y42882D01*
X147043D01*
Y42772D01*
X147154D01*
Y42661D01*
Y42551D01*
Y42440D01*
X147375D01*
Y42329D01*
X147486D01*
Y42219D01*
Y42108D01*
Y41998D01*
X147596D01*
Y41887D01*
Y41776D01*
Y41666D01*
X147707D01*
Y41555D01*
Y41445D01*
X147817D01*
Y41334D01*
Y41224D01*
Y41113D01*
Y41002D01*
X148039D01*
Y40892D01*
X147928D01*
Y40781D01*
Y40671D01*
X148039D01*
Y40560D01*
X148149D01*
Y40450D01*
Y40339D01*
Y40228D01*
Y40118D01*
X148260D01*
Y40007D01*
Y39897D01*
Y39786D01*
Y39676D01*
Y39565D01*
Y39454D01*
X148370D01*
Y39344D01*
Y39233D01*
Y39123D01*
Y39012D01*
Y38902D01*
Y38791D01*
Y38680D01*
X148481D01*
Y38570D01*
Y38459D01*
Y38349D01*
Y38238D01*
Y38127D01*
Y38017D01*
Y37906D01*
Y37796D01*
Y37685D01*
Y37575D01*
Y37464D01*
Y37353D01*
X148702D01*
Y37243D01*
X148591D01*
Y37132D01*
Y37022D01*
Y36911D01*
Y36800D01*
Y36690D01*
Y36579D01*
Y36469D01*
Y36358D01*
Y36248D01*
Y36137D01*
Y36026D01*
Y35916D01*
Y35805D01*
Y35695D01*
Y35584D01*
Y35474D01*
Y35363D01*
Y35252D01*
Y35142D01*
Y35031D01*
Y34921D01*
Y34810D01*
Y34699D01*
Y34589D01*
Y34478D01*
Y34368D01*
Y34257D01*
Y34147D01*
X148481D01*
Y34036D01*
Y33925D01*
Y33815D01*
Y33704D01*
Y33594D01*
Y33483D01*
Y33373D01*
Y33262D01*
Y33151D01*
Y33041D01*
Y32930D01*
Y32820D01*
X148370D01*
Y32709D01*
Y32599D01*
Y32488D01*
Y32377D01*
Y32267D01*
Y32156D01*
Y32046D01*
X148260D01*
Y31935D01*
Y31825D01*
Y31714D01*
Y31603D01*
Y31493D01*
X148149D01*
Y31382D01*
Y31272D01*
Y31161D01*
Y31051D01*
Y30940D01*
X147928D01*
Y30829D01*
Y30719D01*
Y30608D01*
X148039D01*
Y30498D01*
X147817D01*
Y30387D01*
Y30277D01*
Y30166D01*
Y30055D01*
X147707D01*
Y29945D01*
Y29834D01*
X147596D01*
Y29724D01*
Y29613D01*
Y29502D01*
X147486D01*
Y29392D01*
Y29281D01*
X147375D01*
Y29171D01*
Y29060D01*
X147264D01*
Y28949D01*
X147154D01*
Y28839D01*
X147043D01*
Y28728D01*
Y28618D01*
X146933D01*
Y28507D01*
X146822D01*
Y28397D01*
X146712D01*
Y28286D01*
X146601D01*
Y28175D01*
Y28065D01*
X146380D01*
Y27954D01*
X146269D01*
Y27844D01*
X146159D01*
Y27733D01*
X146048D01*
Y27623D01*
X145938D01*
Y27512D01*
X145716D01*
Y27401D01*
X145606D01*
Y27291D01*
X145385D01*
Y27180D01*
X145163D01*
Y27070D01*
X144832D01*
Y26959D01*
X144500D01*
Y26849D01*
X143947D01*
Y26738D01*
Y26627D01*
X141625D01*
Y26738D01*
X141514D01*
Y26849D01*
X141072D01*
Y26959D01*
X140630D01*
Y27070D01*
X140409D01*
Y27180D01*
X140188D01*
Y27291D01*
X139856D01*
Y27401D01*
Y27512D01*
X139635D01*
Y27623D01*
X139524D01*
Y27733D01*
X139413D01*
Y27844D01*
X139192D01*
Y27954D01*
X139082D01*
Y28065D01*
X138971D01*
Y28175D01*
Y28286D01*
X138861D01*
Y28397D01*
X138750D01*
Y28507D01*
X138529D01*
Y28618D01*
X138418D01*
Y28728D01*
X138529D01*
Y28839D01*
X138418D01*
Y28949D01*
X138308D01*
Y29060D01*
Y29171D01*
X138197D01*
Y29281D01*
X138087D01*
Y29392D01*
Y29502D01*
X137976D01*
Y29613D01*
Y29724D01*
Y29834D01*
X137865D01*
Y29945D01*
Y30055D01*
Y30166D01*
X137644D01*
Y30277D01*
Y30387D01*
Y30498D01*
X137534D01*
Y30608D01*
Y30719D01*
Y30829D01*
Y30940D01*
X137423D01*
Y31051D01*
Y31161D01*
Y31272D01*
Y31382D01*
X137312D01*
Y31493D01*
Y31603D01*
Y31714D01*
Y31825D01*
Y31935D01*
Y32046D01*
X137202D01*
Y32156D01*
Y32267D01*
Y32377D01*
Y32488D01*
Y32599D01*
Y32709D01*
Y32820D01*
X136981D01*
Y32930D01*
X137091D01*
Y33041D01*
Y33151D01*
Y33262D01*
Y33373D01*
Y33483D01*
Y33594D01*
Y33704D01*
Y33815D01*
Y33925D01*
Y34036D01*
Y34147D01*
X136870D01*
Y34257D01*
Y34368D01*
Y34478D01*
Y34589D01*
Y34699D01*
Y34810D01*
Y34921D01*
Y35031D01*
Y35142D01*
Y35252D01*
Y35363D01*
Y35474D01*
Y35584D01*
Y35695D01*
Y35805D01*
Y35916D01*
Y36026D01*
Y36137D01*
Y36248D01*
Y36358D01*
Y36469D01*
Y36579D01*
Y36690D01*
Y36800D01*
Y36911D01*
Y37022D01*
Y37132D01*
Y37243D01*
Y37353D01*
Y37464D01*
X137091D01*
Y37575D01*
Y37685D01*
Y37796D01*
Y37906D01*
Y38017D01*
Y38127D01*
Y38238D01*
Y38349D01*
Y38459D01*
Y38570D01*
Y38680D01*
X136981D01*
Y38791D01*
X137202D01*
Y38902D01*
Y39012D01*
Y39123D01*
Y39233D01*
Y39344D01*
Y39454D01*
Y39565D01*
X137312D01*
Y39676D01*
Y39786D01*
Y39897D01*
Y40007D01*
Y40118D01*
X137423D01*
Y40228D01*
Y40339D01*
Y40450D01*
Y40560D01*
X137534D01*
Y40671D01*
Y40781D01*
Y40892D01*
Y41002D01*
X137755D01*
Y41113D01*
Y41224D01*
X137644D01*
Y41334D01*
Y41445D01*
X137865D01*
Y41555D01*
Y41666D01*
X137976D01*
Y41776D01*
Y41887D01*
X138087D01*
Y41998D01*
Y42108D01*
Y42219D01*
X138197D01*
Y42329D01*
Y42440D01*
X138308D01*
Y42551D01*
Y42661D01*
X138418D01*
Y42772D01*
X138529D01*
Y42882D01*
X138639D01*
Y42993D01*
Y43103D01*
X138750D01*
Y43214D01*
X138861D01*
Y43325D01*
X138971D01*
Y43435D01*
X139082D01*
Y43546D01*
Y43656D01*
X139192D01*
Y43767D01*
X139413D01*
Y43878D01*
X139524D01*
Y43988D01*
X139745D01*
Y44099D01*
X139856D01*
Y44209D01*
X139966D01*
Y44320D01*
X140188D01*
Y44430D01*
X140409D01*
Y44541D01*
X140851D01*
Y44651D01*
X141183D01*
Y44762D01*
X141846D01*
Y44873D01*
X143726D01*
Y44762D01*
D02*
G37*
G36*
X128798D02*
X129572D01*
Y44651D01*
X130125D01*
Y44541D01*
X130346D01*
Y44430D01*
X130788D01*
Y44320D01*
X131010D01*
Y44209D01*
X131120D01*
Y44099D01*
X131341D01*
Y43988D01*
X131452D01*
Y43878D01*
X131673D01*
Y43767D01*
X131784D01*
Y43656D01*
X131894D01*
Y43546D01*
X132005D01*
Y43435D01*
X132226D01*
Y43325D01*
X132337D01*
Y43214D01*
X132447D01*
Y43103D01*
Y42993D01*
X132558D01*
Y42882D01*
X132668D01*
Y42772D01*
X132779D01*
Y42661D01*
X132889D01*
Y42551D01*
Y42440D01*
X133000D01*
Y42329D01*
X133111D01*
Y42219D01*
Y42108D01*
Y41998D01*
X133221D01*
Y41887D01*
Y41776D01*
X133332D01*
Y41666D01*
Y41555D01*
Y41445D01*
X133553D01*
Y41334D01*
Y41224D01*
X133442D01*
Y41113D01*
Y41002D01*
Y40892D01*
X133664D01*
Y40781D01*
Y40671D01*
Y40560D01*
Y40450D01*
Y40339D01*
Y40228D01*
Y40118D01*
Y40007D01*
Y39897D01*
Y39786D01*
Y39676D01*
Y39565D01*
Y39454D01*
Y39344D01*
Y39233D01*
Y39123D01*
Y39012D01*
Y38902D01*
Y38791D01*
Y38680D01*
X133442D01*
Y38570D01*
Y38459D01*
X133553D01*
Y38349D01*
X133442D01*
Y38238D01*
X133332D01*
Y38127D01*
Y38017D01*
Y37906D01*
X133221D01*
Y37796D01*
Y37685D01*
X133111D01*
Y37575D01*
Y37464D01*
Y37353D01*
X133000D01*
Y37243D01*
X132889D01*
Y37132D01*
X132668D01*
Y37022D01*
Y36911D01*
Y36800D01*
X132558D01*
Y36690D01*
X132447D01*
Y36579D01*
X132337D01*
Y36469D01*
X132115D01*
Y36358D01*
X132005D01*
Y36248D01*
X131673D01*
Y36137D01*
Y36026D01*
X131562D01*
Y35916D01*
X131341D01*
Y35805D01*
X130899D01*
Y35695D01*
X130678D01*
Y35584D01*
X130457D01*
Y35474D01*
X129904D01*
Y35363D01*
Y35252D01*
X129461D01*
Y35142D01*
X128909D01*
Y35031D01*
X128356D01*
Y34921D01*
X127803D01*
Y34810D01*
X127250D01*
Y34699D01*
Y34589D01*
X126808D01*
Y34478D01*
X126476D01*
Y34368D01*
X126255D01*
Y34257D01*
X125923D01*
Y34147D01*
X125702D01*
Y34036D01*
X125591D01*
Y33925D01*
Y33815D01*
X125260D01*
Y33704D01*
X125149D01*
Y33594D01*
Y33483D01*
X125038D01*
Y33373D01*
X124928D01*
Y33262D01*
Y33151D01*
Y33041D01*
X124707D01*
Y32930D01*
Y32820D01*
X124817D01*
Y32709D01*
X124596D01*
Y32599D01*
Y32488D01*
Y32377D01*
Y32267D01*
Y32156D01*
Y32046D01*
X124486D01*
Y31935D01*
Y31825D01*
Y31714D01*
Y31603D01*
Y31493D01*
Y31382D01*
Y31272D01*
Y31161D01*
X124596D01*
Y31051D01*
Y30940D01*
Y30829D01*
Y30719D01*
Y30608D01*
X124707D01*
Y30498D01*
Y30387D01*
Y30277D01*
Y30166D01*
X124928D01*
Y30055D01*
Y29945D01*
X125038D01*
Y29834D01*
Y29724D01*
Y29613D01*
X125149D01*
Y29502D01*
X125260D01*
Y29392D01*
X125481D01*
Y29281D01*
X125591D01*
Y29171D01*
X125813D01*
Y29060D01*
Y28949D01*
X125923D01*
Y28839D01*
X126255D01*
Y28728D01*
X126587D01*
Y28618D01*
X127029D01*
Y28507D01*
X127914D01*
Y28397D01*
X129019D01*
Y28507D01*
X130125D01*
Y28618D01*
X130567D01*
Y28728D01*
X131010D01*
Y28839D01*
X131341D01*
Y28949D01*
X131673D01*
Y29060D01*
Y29171D01*
X131894D01*
Y29281D01*
X132337D01*
Y29392D01*
X132558D01*
Y29502D01*
X132779D01*
Y29613D01*
X133000D01*
Y29724D01*
X133111D01*
Y29834D01*
X133221D01*
Y29945D01*
X133553D01*
Y29834D01*
X133442D01*
Y29724D01*
Y29613D01*
Y29502D01*
Y29392D01*
Y29281D01*
Y29171D01*
Y29060D01*
Y28949D01*
Y28839D01*
Y28728D01*
Y28618D01*
Y28507D01*
Y28397D01*
Y28286D01*
Y28175D01*
Y28065D01*
Y27954D01*
Y27844D01*
X133553D01*
Y27733D01*
X133442D01*
Y27623D01*
X133111D01*
Y27512D01*
X132779D01*
Y27401D01*
Y27291D01*
X132337D01*
Y27180D01*
X132005D01*
Y27070D01*
X131452D01*
Y26959D01*
X130899D01*
Y26849D01*
X130125D01*
Y26738D01*
Y26627D01*
X126918D01*
Y26738D01*
X126808D01*
Y26849D01*
X126144D01*
Y26959D01*
X125702D01*
Y27070D01*
X125370D01*
Y27180D01*
X125149D01*
Y27291D01*
X124817D01*
Y27401D01*
X124707D01*
Y27512D01*
X124596D01*
Y27623D01*
X124375D01*
Y27733D01*
X124264D01*
Y27844D01*
X123933D01*
Y27954D01*
X123822D01*
Y28065D01*
X123712D01*
Y28175D01*
Y28286D01*
X123601D01*
Y28397D01*
X123490D01*
Y28507D01*
Y28618D01*
X123269D01*
Y28728D01*
X123159D01*
Y28839D01*
Y28949D01*
X123048D01*
Y29060D01*
Y29171D01*
X122937D01*
Y29281D01*
Y29392D01*
X122827D01*
Y29502D01*
Y29613D01*
Y29724D01*
Y29834D01*
X122716D01*
Y29945D01*
Y30055D01*
Y30166D01*
X122606D01*
Y30277D01*
Y30387D01*
Y30498D01*
Y30608D01*
Y30719D01*
Y30829D01*
X122385D01*
Y30940D01*
Y31051D01*
Y31161D01*
Y31272D01*
Y31382D01*
Y31493D01*
Y31603D01*
Y31714D01*
Y31825D01*
Y31935D01*
Y32046D01*
Y32156D01*
Y32267D01*
Y32377D01*
Y32488D01*
Y32599D01*
X122495D01*
Y32709D01*
X122606D01*
Y32820D01*
Y32930D01*
Y33041D01*
Y33151D01*
Y33262D01*
X122716D01*
Y33373D01*
Y33483D01*
Y33594D01*
Y33704D01*
X122827D01*
Y33815D01*
Y33925D01*
Y34036D01*
X122937D01*
Y34147D01*
Y34257D01*
Y34368D01*
X123048D01*
Y34478D01*
X123269D01*
Y34589D01*
X123159D01*
Y34699D01*
X123269D01*
Y34810D01*
X123380D01*
Y34921D01*
X123490D01*
Y35031D01*
X123601D01*
Y35142D01*
X123712D01*
Y35252D01*
X123822D01*
Y35363D01*
X123933D01*
Y35474D01*
X124043D01*
Y35584D01*
X124154D01*
Y35695D01*
X124264D01*
Y35805D01*
X124486D01*
Y35916D01*
X124707D01*
Y36026D01*
X125038D01*
Y36137D01*
X125260D01*
Y36248D01*
Y36358D01*
X125591D01*
Y36469D01*
X125813D01*
Y36579D01*
X126144D01*
Y36690D01*
X126697D01*
Y36800D01*
X127139D01*
Y36911D01*
X127692D01*
Y37022D01*
X127803D01*
Y37132D01*
X128245D01*
Y37243D01*
X128798D01*
Y37353D01*
X129351D01*
Y37464D01*
X129572D01*
Y37575D01*
X129904D01*
Y37685D01*
X130014D01*
Y37796D01*
X130236D01*
Y37906D01*
X130457D01*
Y38017D01*
X130567D01*
Y38127D01*
X130899D01*
Y38238D01*
X131010D01*
Y38349D01*
Y38459D01*
Y38570D01*
X131120D01*
Y38680D01*
X131341D01*
Y38791D01*
Y38902D01*
X131452D01*
Y39012D01*
Y39123D01*
Y39233D01*
Y39344D01*
Y39454D01*
X131562D01*
Y39565D01*
Y39676D01*
Y39786D01*
Y39897D01*
Y40007D01*
Y40118D01*
Y40228D01*
Y40339D01*
Y40450D01*
Y40560D01*
Y40671D01*
Y40781D01*
X131452D01*
Y40892D01*
Y41002D01*
Y41113D01*
Y41224D01*
Y41334D01*
X131341D01*
Y41445D01*
Y41555D01*
X131120D01*
Y41666D01*
X131231D01*
Y41776D01*
X131010D01*
Y41887D01*
Y41998D01*
X130899D01*
Y42108D01*
X130788D01*
Y42219D01*
X130567D01*
Y42329D01*
X130457D01*
Y42440D01*
X130236D01*
Y42551D01*
X130125D01*
Y42661D01*
Y42772D01*
X129793D01*
Y42882D01*
X129461D01*
Y42993D01*
X128909D01*
Y43103D01*
X126587D01*
Y42993D01*
X125923D01*
Y42882D01*
X125591D01*
Y42772D01*
X125149D01*
Y42661D01*
Y42551D01*
X124817D01*
Y42440D01*
X124486D01*
Y42329D01*
X124264D01*
Y42219D01*
X124043D01*
Y42108D01*
X123712D01*
Y41998D01*
X123601D01*
Y41887D01*
Y41776D01*
X123490D01*
Y41887D01*
Y41998D01*
Y42108D01*
Y42219D01*
Y42329D01*
Y42440D01*
Y42551D01*
Y42661D01*
Y42772D01*
Y42882D01*
Y42993D01*
Y43103D01*
Y43214D01*
Y43325D01*
Y43435D01*
Y43546D01*
Y43656D01*
Y43767D01*
Y43878D01*
Y43988D01*
X123712D01*
Y44099D01*
X124043D01*
Y44209D01*
X124154D01*
Y44320D01*
X124486D01*
Y44430D01*
X124928D01*
Y44541D01*
X125481D01*
Y44651D01*
X126034D01*
Y44762D01*
X126918D01*
Y44873D01*
X128798D01*
Y44762D01*
D02*
G37*
G36*
X156885Y53277D02*
Y53166D01*
Y53055D01*
Y52945D01*
Y52834D01*
Y52724D01*
Y52613D01*
Y52502D01*
Y52392D01*
Y52281D01*
Y52171D01*
Y52060D01*
Y51950D01*
Y51839D01*
Y51728D01*
Y51618D01*
Y51507D01*
Y51397D01*
Y51286D01*
Y51175D01*
Y51065D01*
Y50954D01*
Y50844D01*
Y50733D01*
Y50623D01*
Y50512D01*
Y50402D01*
Y50291D01*
Y50180D01*
Y50070D01*
Y49959D01*
Y49849D01*
Y49738D01*
Y49627D01*
Y49517D01*
Y49406D01*
Y49296D01*
Y49185D01*
Y49075D01*
Y48964D01*
Y48853D01*
Y48743D01*
Y48632D01*
Y48522D01*
Y48411D01*
Y48300D01*
Y48190D01*
Y48079D01*
Y47969D01*
Y47858D01*
Y47748D01*
Y47637D01*
Y47526D01*
Y47416D01*
Y47305D01*
Y47195D01*
Y47084D01*
Y46974D01*
Y46863D01*
Y46752D01*
Y46642D01*
Y46531D01*
Y46421D01*
Y46310D01*
Y46200D01*
Y46089D01*
Y45978D01*
Y45868D01*
Y45757D01*
Y45647D01*
Y45536D01*
Y45426D01*
Y45315D01*
Y45204D01*
Y45094D01*
Y44983D01*
Y44873D01*
Y44762D01*
Y44651D01*
Y44541D01*
Y44430D01*
Y44320D01*
Y44209D01*
Y44099D01*
Y43988D01*
Y43878D01*
Y43767D01*
Y43656D01*
Y43546D01*
Y43435D01*
Y43325D01*
Y43214D01*
Y43103D01*
Y42993D01*
Y42882D01*
Y42772D01*
Y42661D01*
Y42551D01*
Y42440D01*
Y42329D01*
Y42219D01*
Y42108D01*
Y41998D01*
Y41887D01*
Y41776D01*
Y41666D01*
Y41555D01*
Y41445D01*
Y41334D01*
Y41224D01*
Y41113D01*
Y41002D01*
Y40892D01*
Y40781D01*
Y40671D01*
Y40560D01*
Y40450D01*
Y40339D01*
Y40228D01*
Y40118D01*
Y40007D01*
Y39897D01*
Y39786D01*
Y39676D01*
Y39565D01*
Y39454D01*
Y39344D01*
Y39233D01*
Y39123D01*
Y39012D01*
Y38902D01*
Y38791D01*
Y38680D01*
Y38570D01*
Y38459D01*
Y38349D01*
Y38238D01*
Y38127D01*
Y38017D01*
Y37906D01*
Y37796D01*
Y37685D01*
Y37575D01*
Y37464D01*
Y37353D01*
Y37243D01*
Y37132D01*
Y37022D01*
Y36911D01*
Y36800D01*
Y36690D01*
Y36579D01*
Y36469D01*
Y36358D01*
Y36248D01*
Y36137D01*
Y36026D01*
Y35916D01*
Y35805D01*
Y35695D01*
Y35584D01*
Y35474D01*
Y35363D01*
Y35252D01*
Y35142D01*
Y35031D01*
Y34921D01*
Y34810D01*
Y34699D01*
Y34589D01*
Y34478D01*
Y34368D01*
Y34257D01*
Y34147D01*
Y34036D01*
Y33925D01*
Y33815D01*
Y33704D01*
Y33594D01*
Y33483D01*
Y33373D01*
Y33262D01*
Y33151D01*
Y33041D01*
Y32930D01*
Y32820D01*
Y32709D01*
Y32599D01*
Y32488D01*
Y32377D01*
Y32267D01*
Y32156D01*
Y32046D01*
Y31935D01*
Y31825D01*
Y31714D01*
Y31603D01*
Y31493D01*
Y31382D01*
Y31272D01*
Y31161D01*
Y31051D01*
Y30940D01*
Y30829D01*
Y30719D01*
Y30608D01*
Y30498D01*
Y30387D01*
Y30277D01*
Y30166D01*
Y30055D01*
Y29945D01*
Y29834D01*
Y29724D01*
Y29613D01*
Y29502D01*
Y29392D01*
Y29281D01*
Y29171D01*
Y29060D01*
Y28949D01*
Y28839D01*
Y28728D01*
Y28618D01*
Y28507D01*
Y28397D01*
Y28286D01*
Y28175D01*
Y28065D01*
Y27954D01*
Y27844D01*
Y27733D01*
Y27623D01*
Y27512D01*
Y27401D01*
Y27291D01*
Y27180D01*
Y27070D01*
Y26959D01*
Y26849D01*
Y26738D01*
Y26627D01*
Y26517D01*
Y26406D01*
Y26296D01*
Y26185D01*
Y26075D01*
Y25964D01*
Y25853D01*
Y25743D01*
Y25632D01*
Y25522D01*
Y25411D01*
Y25301D01*
Y25190D01*
Y25079D01*
Y24969D01*
Y24858D01*
Y24748D01*
Y24637D01*
Y24526D01*
Y24416D01*
Y24305D01*
Y24195D01*
Y24084D01*
Y23974D01*
Y23863D01*
Y23752D01*
Y23642D01*
Y23531D01*
Y23421D01*
Y23310D01*
Y23200D01*
Y23089D01*
Y22978D01*
Y22868D01*
Y22757D01*
Y22647D01*
Y22536D01*
Y22425D01*
Y22315D01*
Y22204D01*
Y22094D01*
Y21983D01*
Y21873D01*
Y21762D01*
Y21651D01*
Y21541D01*
Y21430D01*
Y21320D01*
Y21209D01*
Y21098D01*
Y20988D01*
Y20877D01*
Y20767D01*
Y20656D01*
Y20546D01*
Y20435D01*
Y20324D01*
Y20214D01*
Y20103D01*
Y19993D01*
Y19882D01*
Y19772D01*
Y19661D01*
Y19550D01*
Y19440D01*
Y19329D01*
Y19219D01*
Y19108D01*
Y18998D01*
Y18887D01*
X82024D01*
Y18998D01*
Y19108D01*
Y19219D01*
Y19329D01*
Y19440D01*
Y19550D01*
Y19661D01*
Y19772D01*
Y19882D01*
Y19993D01*
Y20103D01*
Y20214D01*
Y20324D01*
Y20435D01*
Y20546D01*
Y20656D01*
Y20767D01*
Y20877D01*
Y20988D01*
Y21098D01*
Y21209D01*
Y21320D01*
Y21430D01*
Y21541D01*
Y21651D01*
Y21762D01*
Y21873D01*
Y21983D01*
Y22094D01*
Y22204D01*
Y22315D01*
Y22425D01*
Y22536D01*
Y22647D01*
Y22757D01*
Y22868D01*
Y22978D01*
Y23089D01*
Y23200D01*
Y23310D01*
Y23421D01*
Y23531D01*
Y23642D01*
Y23752D01*
Y23863D01*
Y23974D01*
Y24084D01*
Y24195D01*
Y24305D01*
Y24416D01*
Y24526D01*
Y24637D01*
Y24748D01*
Y24858D01*
Y24969D01*
Y25079D01*
Y25190D01*
Y25301D01*
Y25411D01*
Y25522D01*
Y25632D01*
Y25743D01*
Y25853D01*
Y25964D01*
Y26075D01*
Y26185D01*
Y26296D01*
Y26406D01*
Y26517D01*
Y26627D01*
Y26738D01*
Y26849D01*
Y26959D01*
Y27070D01*
Y27180D01*
Y27291D01*
Y27401D01*
Y27512D01*
Y27623D01*
Y27733D01*
Y27844D01*
Y27954D01*
Y28065D01*
Y28175D01*
Y28286D01*
Y28397D01*
Y28507D01*
Y28618D01*
Y28728D01*
Y28839D01*
Y28949D01*
Y29060D01*
Y29171D01*
Y29281D01*
Y29392D01*
Y29502D01*
Y29613D01*
Y29724D01*
Y29834D01*
Y29945D01*
Y30055D01*
Y30166D01*
Y30277D01*
Y30387D01*
Y30498D01*
Y30608D01*
Y30719D01*
Y30829D01*
Y30940D01*
Y31051D01*
Y31161D01*
Y31272D01*
Y31382D01*
Y31493D01*
Y31603D01*
Y31714D01*
Y31825D01*
Y31935D01*
Y32046D01*
Y32156D01*
Y32267D01*
Y32377D01*
Y32488D01*
Y32599D01*
Y32709D01*
Y32820D01*
Y32930D01*
Y33041D01*
Y33151D01*
Y33262D01*
Y33373D01*
Y33483D01*
Y33594D01*
Y33704D01*
Y33815D01*
Y33925D01*
Y34036D01*
Y34147D01*
Y34257D01*
Y34368D01*
Y34478D01*
Y34589D01*
Y34699D01*
Y34810D01*
Y34921D01*
Y35031D01*
Y35142D01*
Y35252D01*
Y35363D01*
Y35474D01*
Y35584D01*
Y35695D01*
Y35805D01*
Y35916D01*
Y36026D01*
Y36137D01*
Y36248D01*
Y36358D01*
Y36469D01*
Y36579D01*
Y36690D01*
Y36800D01*
Y36911D01*
Y37022D01*
Y37132D01*
Y37243D01*
Y37353D01*
Y37464D01*
Y37575D01*
Y37685D01*
Y37796D01*
Y37906D01*
Y38017D01*
Y38127D01*
Y38238D01*
Y38349D01*
Y38459D01*
Y38570D01*
Y38680D01*
Y38791D01*
Y38902D01*
Y39012D01*
Y39123D01*
Y39233D01*
Y39344D01*
Y39454D01*
Y39565D01*
Y39676D01*
Y39786D01*
Y39897D01*
Y40007D01*
Y40118D01*
Y40228D01*
Y40339D01*
Y40450D01*
Y40560D01*
Y40671D01*
Y40781D01*
Y40892D01*
Y41002D01*
Y41113D01*
Y41224D01*
Y41334D01*
Y41445D01*
Y41555D01*
Y41666D01*
Y41776D01*
Y41887D01*
Y41998D01*
Y42108D01*
Y42219D01*
Y42329D01*
Y42440D01*
Y42551D01*
Y42661D01*
Y42772D01*
Y42882D01*
Y42993D01*
Y43103D01*
Y43214D01*
Y43325D01*
Y43435D01*
Y43546D01*
Y43656D01*
Y43767D01*
Y43878D01*
Y43988D01*
Y44099D01*
Y44209D01*
Y44320D01*
Y44430D01*
Y44541D01*
Y44651D01*
Y44762D01*
Y44873D01*
Y44983D01*
Y45094D01*
Y45204D01*
Y45315D01*
Y45426D01*
Y45536D01*
Y45647D01*
Y45757D01*
Y45868D01*
Y45978D01*
Y46089D01*
Y46200D01*
Y46310D01*
Y46421D01*
Y46531D01*
Y46642D01*
Y46752D01*
Y46863D01*
Y46974D01*
Y47084D01*
Y47195D01*
Y47305D01*
Y47416D01*
Y47526D01*
Y47637D01*
Y47748D01*
Y47858D01*
Y47969D01*
Y48079D01*
Y48190D01*
Y48300D01*
Y48411D01*
Y48522D01*
Y48632D01*
Y48743D01*
Y48853D01*
Y48964D01*
Y49075D01*
Y49185D01*
Y49296D01*
Y49406D01*
Y49517D01*
Y49627D01*
Y49738D01*
Y49849D01*
Y49959D01*
Y50070D01*
Y50180D01*
Y50291D01*
Y50402D01*
Y50512D01*
Y50623D01*
Y50733D01*
Y50844D01*
Y50954D01*
Y51065D01*
Y51175D01*
Y51286D01*
Y51397D01*
Y51507D01*
Y51618D01*
Y51728D01*
Y51839D01*
Y51950D01*
Y52060D01*
Y52171D01*
Y52281D01*
Y52392D01*
Y52502D01*
Y52613D01*
Y52724D01*
Y52834D01*
Y52945D01*
Y53055D01*
Y53166D01*
Y53277D01*
Y53387D01*
X84678D01*
Y53277D01*
X84788D01*
Y53166D01*
Y53055D01*
Y52945D01*
Y52834D01*
Y52724D01*
Y52613D01*
Y52502D01*
Y52392D01*
Y52281D01*
Y52171D01*
Y52060D01*
Y51950D01*
Y51839D01*
Y51728D01*
Y51618D01*
Y51507D01*
Y51397D01*
Y51286D01*
Y51175D01*
Y51065D01*
Y50954D01*
Y50844D01*
Y50733D01*
Y50623D01*
Y50512D01*
Y50402D01*
Y50291D01*
Y50180D01*
Y50070D01*
Y49959D01*
Y49849D01*
Y49738D01*
Y49627D01*
Y49517D01*
Y49406D01*
Y49296D01*
Y49185D01*
Y49075D01*
Y48964D01*
Y48853D01*
Y48743D01*
Y48632D01*
Y48522D01*
Y48411D01*
Y48300D01*
Y48190D01*
Y48079D01*
Y47969D01*
Y47858D01*
Y47748D01*
Y47637D01*
Y47526D01*
Y47416D01*
Y47305D01*
Y47195D01*
Y47084D01*
Y46974D01*
Y46863D01*
Y46752D01*
Y46642D01*
Y46531D01*
Y46421D01*
Y46310D01*
Y46200D01*
Y46089D01*
Y45978D01*
Y45868D01*
Y45757D01*
Y45647D01*
Y45536D01*
Y45426D01*
Y45315D01*
Y45204D01*
Y45094D01*
Y44983D01*
Y44873D01*
Y44762D01*
Y44651D01*
Y44541D01*
Y44430D01*
Y44320D01*
Y44209D01*
Y44099D01*
Y43988D01*
Y43878D01*
Y43767D01*
Y43656D01*
Y43546D01*
Y43435D01*
Y43325D01*
Y43214D01*
Y43103D01*
Y42993D01*
Y42882D01*
Y42772D01*
Y42661D01*
Y42551D01*
Y42440D01*
Y42329D01*
Y42219D01*
Y42108D01*
Y41998D01*
Y41887D01*
Y41776D01*
Y41666D01*
Y41555D01*
Y41445D01*
Y41334D01*
Y41224D01*
Y41113D01*
Y41002D01*
Y40892D01*
Y40781D01*
Y40671D01*
Y40560D01*
Y40450D01*
Y40339D01*
Y40228D01*
Y40118D01*
Y40007D01*
Y39897D01*
Y39786D01*
Y39676D01*
Y39565D01*
Y39454D01*
Y39344D01*
Y39233D01*
Y39123D01*
Y39012D01*
Y38902D01*
Y38791D01*
Y38680D01*
Y38570D01*
Y38459D01*
Y38349D01*
Y38238D01*
Y38127D01*
Y38017D01*
Y37906D01*
Y37796D01*
Y37685D01*
Y37575D01*
Y37464D01*
Y37353D01*
Y37243D01*
Y37132D01*
Y37022D01*
Y36911D01*
Y36800D01*
Y36690D01*
Y36579D01*
Y36469D01*
Y36358D01*
Y36248D01*
Y36137D01*
Y36026D01*
Y35916D01*
Y35805D01*
Y35695D01*
Y35584D01*
Y35474D01*
Y35363D01*
Y35252D01*
Y35142D01*
Y35031D01*
Y34921D01*
Y34810D01*
Y34699D01*
Y34589D01*
Y34478D01*
Y34368D01*
Y34257D01*
Y34147D01*
Y34036D01*
Y33925D01*
Y33815D01*
Y33704D01*
Y33594D01*
Y33483D01*
Y33373D01*
Y33262D01*
Y33151D01*
Y33041D01*
Y32930D01*
Y32820D01*
Y32709D01*
Y32599D01*
Y32488D01*
Y32377D01*
Y32267D01*
Y32156D01*
Y32046D01*
Y31935D01*
Y31825D01*
Y31714D01*
Y31603D01*
Y31493D01*
Y31382D01*
Y31272D01*
Y31161D01*
Y31051D01*
Y30940D01*
Y30829D01*
Y30719D01*
Y30608D01*
Y30498D01*
Y30387D01*
Y30277D01*
Y30166D01*
Y30055D01*
Y29945D01*
Y29834D01*
Y29724D01*
Y29613D01*
Y29502D01*
Y29392D01*
Y29281D01*
Y29171D01*
Y29060D01*
Y28949D01*
Y28839D01*
Y28728D01*
Y28618D01*
Y28507D01*
Y28397D01*
Y28286D01*
Y28175D01*
Y28065D01*
Y27954D01*
Y27844D01*
Y27733D01*
Y27623D01*
Y27512D01*
Y27401D01*
Y27291D01*
Y27180D01*
Y27070D01*
Y26959D01*
Y26849D01*
Y26738D01*
Y26627D01*
Y26517D01*
Y26406D01*
Y26296D01*
Y26185D01*
Y26075D01*
Y25964D01*
Y25853D01*
Y25743D01*
Y25632D01*
Y25522D01*
Y25411D01*
Y25301D01*
Y25190D01*
Y25079D01*
Y24969D01*
Y24858D01*
Y24748D01*
Y24637D01*
Y24526D01*
Y24416D01*
Y24305D01*
Y24195D01*
Y24084D01*
Y23974D01*
Y23863D01*
Y23752D01*
Y23642D01*
Y23531D01*
Y23421D01*
Y23310D01*
Y23200D01*
Y23089D01*
Y22978D01*
Y22868D01*
Y22757D01*
Y22647D01*
Y22536D01*
Y22425D01*
Y22315D01*
Y22204D01*
Y22094D01*
Y21983D01*
Y21873D01*
X84899D01*
Y21762D01*
X154010D01*
Y21873D01*
Y21983D01*
Y22094D01*
Y22204D01*
Y22315D01*
Y22425D01*
Y22536D01*
Y22647D01*
Y22757D01*
Y22868D01*
Y22978D01*
Y23089D01*
Y23200D01*
Y23310D01*
Y23421D01*
Y23531D01*
Y23642D01*
Y23752D01*
Y23863D01*
Y23974D01*
Y24084D01*
Y24195D01*
Y24305D01*
Y24416D01*
Y24526D01*
Y24637D01*
Y24748D01*
Y24858D01*
Y24969D01*
Y25079D01*
Y25190D01*
Y25301D01*
Y25411D01*
Y25522D01*
Y25632D01*
Y25743D01*
Y25853D01*
Y25964D01*
Y26075D01*
Y26185D01*
Y26296D01*
Y26406D01*
Y26517D01*
Y26627D01*
Y26738D01*
Y26849D01*
Y26959D01*
Y27070D01*
Y27180D01*
Y27291D01*
Y27401D01*
Y27512D01*
Y27623D01*
Y27733D01*
Y27844D01*
Y27954D01*
Y28065D01*
Y28175D01*
Y28286D01*
Y28397D01*
Y28507D01*
Y28618D01*
Y28728D01*
Y28839D01*
Y28949D01*
Y29060D01*
Y29171D01*
Y29281D01*
Y29392D01*
Y29502D01*
Y29613D01*
Y29724D01*
Y29834D01*
Y29945D01*
Y30055D01*
Y30166D01*
Y30277D01*
Y30387D01*
Y30498D01*
Y30608D01*
Y30719D01*
Y30829D01*
Y30940D01*
Y31051D01*
Y31161D01*
Y31272D01*
Y31382D01*
Y31493D01*
Y31603D01*
Y31714D01*
Y31825D01*
Y31935D01*
Y32046D01*
Y32156D01*
Y32267D01*
Y32377D01*
Y32488D01*
Y32599D01*
Y32709D01*
Y32820D01*
Y32930D01*
Y33041D01*
Y33151D01*
Y33262D01*
Y33373D01*
Y33483D01*
Y33594D01*
Y33704D01*
Y33815D01*
Y33925D01*
Y34036D01*
Y34147D01*
Y34257D01*
Y34368D01*
Y34478D01*
Y34589D01*
Y34699D01*
Y34810D01*
Y34921D01*
Y35031D01*
Y35142D01*
Y35252D01*
Y35363D01*
Y35474D01*
Y35584D01*
Y35695D01*
Y35805D01*
Y35916D01*
Y36026D01*
Y36137D01*
Y36248D01*
Y36358D01*
Y36469D01*
Y36579D01*
Y36690D01*
Y36800D01*
Y36911D01*
Y37022D01*
Y37132D01*
Y37243D01*
Y37353D01*
Y37464D01*
Y37575D01*
Y37685D01*
Y37796D01*
Y37906D01*
Y38017D01*
Y38127D01*
Y38238D01*
Y38349D01*
Y38459D01*
Y38570D01*
Y38680D01*
Y38791D01*
Y38902D01*
Y39012D01*
Y39123D01*
Y39233D01*
Y39344D01*
Y39454D01*
Y39565D01*
Y39676D01*
Y39786D01*
Y39897D01*
Y40007D01*
Y40118D01*
Y40228D01*
Y40339D01*
Y40450D01*
Y40560D01*
Y40671D01*
Y40781D01*
Y40892D01*
Y41002D01*
Y41113D01*
Y41224D01*
Y41334D01*
Y41445D01*
Y41555D01*
Y41666D01*
Y41776D01*
Y41887D01*
Y41998D01*
Y42108D01*
Y42219D01*
Y42329D01*
Y42440D01*
Y42551D01*
Y42661D01*
Y42772D01*
Y42882D01*
Y42993D01*
Y43103D01*
Y43214D01*
Y43325D01*
Y43435D01*
Y43546D01*
Y43656D01*
Y43767D01*
Y43878D01*
Y43988D01*
Y44099D01*
Y44209D01*
Y44320D01*
Y44430D01*
Y44541D01*
Y44651D01*
Y44762D01*
Y44873D01*
Y44983D01*
Y45094D01*
Y45204D01*
Y45315D01*
Y45426D01*
Y45536D01*
Y45647D01*
Y45757D01*
Y45868D01*
Y45978D01*
Y46089D01*
Y46200D01*
Y46310D01*
Y46421D01*
Y46531D01*
Y46642D01*
Y46752D01*
Y46863D01*
Y46974D01*
Y47084D01*
Y47195D01*
Y47305D01*
Y47416D01*
Y47526D01*
Y47637D01*
Y47748D01*
Y47858D01*
Y47969D01*
Y48079D01*
Y48190D01*
Y48300D01*
Y48411D01*
Y48522D01*
Y48632D01*
Y48743D01*
Y48853D01*
Y48964D01*
Y49075D01*
Y49185D01*
Y49296D01*
Y49406D01*
Y49517D01*
Y49627D01*
Y49738D01*
Y49849D01*
Y49959D01*
Y50070D01*
Y50180D01*
Y50291D01*
Y50402D01*
X95293D01*
Y50512D01*
Y50623D01*
Y50733D01*
Y50844D01*
Y50954D01*
Y51065D01*
Y51175D01*
Y51286D01*
Y51397D01*
Y51507D01*
Y51618D01*
Y51728D01*
Y51839D01*
Y51950D01*
Y52060D01*
Y52171D01*
Y52281D01*
Y52392D01*
Y52502D01*
Y52613D01*
Y52724D01*
Y52834D01*
Y52945D01*
Y53055D01*
Y53166D01*
Y53277D01*
Y53387D01*
X156885D01*
Y53277D01*
D02*
G37*
G36*
X56389Y139304D02*
Y139165D01*
Y139026D01*
X57917Y131665D01*
Y131388D01*
X58056Y131249D01*
X58195D01*
X63195Y129165D01*
X63750D01*
X69861Y133610D01*
X70278D01*
X70417Y133471D01*
X75834Y128332D01*
Y128193D01*
Y128054D01*
Y127915D01*
Y127777D01*
X71528Y121527D01*
Y121388D01*
Y121249D01*
Y121110D01*
Y120971D01*
X73611Y115832D01*
X74028Y115555D01*
X74167D01*
X81250Y114305D01*
X81389D01*
X81528Y114166D01*
Y114027D01*
Y113888D01*
Y106527D01*
Y106249D01*
X81389Y106110D01*
X81250D01*
X74306Y104721D01*
X74167D01*
X74028Y104583D01*
Y104444D01*
Y104305D01*
X71667Y98888D01*
Y98749D01*
Y98610D01*
Y98471D01*
Y98333D01*
X75834Y92499D01*
Y92360D01*
Y92221D01*
Y92083D01*
X70417Y86805D01*
X70139Y86666D01*
X70000D01*
X69861Y86805D01*
X64167Y90694D01*
X63750D01*
X61250Y89305D01*
X60834Y89444D01*
X60695D01*
X55556Y102083D01*
Y102499D01*
X55695Y102638D01*
X56389Y102916D01*
Y103055D01*
X56528D01*
X56667Y103194D01*
X56806Y103333D01*
X58056Y104305D01*
X59028Y105277D01*
X59584Y106388D01*
X60139Y107499D01*
X60417Y108471D01*
X60556Y109305D01*
Y109860D01*
Y109999D01*
X60417Y111249D01*
X60139Y112360D01*
X59861Y113332D01*
X59306Y114166D01*
X58889Y114860D01*
X58611Y115416D01*
X58334Y115694D01*
X58195Y115832D01*
X57223Y116666D01*
X56250Y117221D01*
X55278Y117777D01*
X54306Y118055D01*
X53611Y118193D01*
X52917Y118332D01*
X52361D01*
X51111Y118193D01*
X50000Y117916D01*
X49028Y117499D01*
X48195Y117082D01*
X47501Y116666D01*
X46945Y116249D01*
X46667Y115971D01*
X46528Y115832D01*
X45695Y114860D01*
X45139Y113888D01*
X44723Y112916D01*
X44445Y112082D01*
X44306Y111249D01*
X44167Y110555D01*
Y110138D01*
Y109999D01*
X44306Y108471D01*
X44723Y107083D01*
X45417Y105971D01*
X45973Y104999D01*
X46667Y104305D01*
X47362Y103749D01*
X47778Y103471D01*
X47917Y103333D01*
X48056Y103194D01*
X48195Y103055D01*
X48334Y102916D01*
X49028Y102638D01*
X49167Y102221D01*
Y102083D01*
X43889Y89444D01*
X43751Y89305D01*
X43473D01*
X41112Y90694D01*
X40556D01*
X34862Y86805D01*
X34584Y86666D01*
X34445D01*
X34306Y86805D01*
X29028Y92083D01*
Y92221D01*
Y92499D01*
X33056Y98333D01*
Y98471D01*
Y98610D01*
Y98749D01*
Y98888D01*
X30695Y104305D01*
Y104583D01*
X30556Y104721D01*
X30417D01*
X23473Y106110D01*
X23334Y106249D01*
X23195Y106388D01*
Y106527D01*
Y113888D01*
Y114166D01*
X23334Y114305D01*
X23473D01*
X30556Y115555D01*
X30834D01*
X30973Y115694D01*
Y115832D01*
X33195Y120971D01*
Y121110D01*
Y121249D01*
Y121527D01*
X29028Y127777D01*
Y127915D01*
Y128054D01*
Y128193D01*
Y128332D01*
X34306Y133471D01*
X34584Y133610D01*
X34862D01*
X41112Y129165D01*
X41528D01*
X46528Y131249D01*
X46667Y131388D01*
X46806Y131527D01*
Y131665D01*
X48334Y139026D01*
Y139304D01*
X48473Y139443D01*
X56250D01*
X56389Y139304D01*
D02*
G37*
G36*
X82083Y60416D02*
X80695D01*
Y65000D01*
X80556Y65555D01*
X80417Y66111D01*
X79861Y66527D01*
X79444Y66805D01*
X79167D01*
X78611Y66666D01*
X78194Y66527D01*
X77639Y65972D01*
X77500Y65277D01*
Y65139D01*
Y65000D01*
Y60416D01*
X75972D01*
Y65555D01*
X76111Y66389D01*
X76389Y67083D01*
X76806Y67500D01*
X77222Y67916D01*
X78194Y68194D01*
X78611D01*
X79583Y68055D01*
X80278Y67777D01*
X80556Y67500D01*
X80695Y67361D01*
Y73472D01*
X79861Y73055D01*
X79167Y72777D01*
X78750Y72638D01*
X78611D01*
X77778Y72777D01*
X77083Y73194D01*
X76528Y73611D01*
X76389Y73749D01*
X76250Y74027D01*
X76111Y74444D01*
X75972Y75416D01*
Y76249D01*
Y76527D01*
Y76666D01*
Y78055D01*
X76111Y79027D01*
X76250Y79583D01*
X76389Y79722D01*
X77083Y80277D01*
X77917Y80555D01*
X78333Y80694D01*
X78611D01*
X79444Y80555D01*
X80139Y80277D01*
X80556Y79861D01*
X80695Y79722D01*
Y80694D01*
X82083D01*
Y60416D01*
D02*
G37*
G36*
X67084Y72777D02*
X65417D01*
Y77499D01*
X65278Y78055D01*
X65139Y78472D01*
X64584Y79027D01*
X64167Y79166D01*
X63334D01*
X62917Y78888D01*
X62361Y78333D01*
X62222Y77777D01*
Y77638D01*
Y77499D01*
Y72777D01*
X60695D01*
Y77916D01*
X60834Y78888D01*
X61111Y79583D01*
X61528Y79999D01*
X61945Y80416D01*
X62917Y80694D01*
X63334D01*
X64306Y80555D01*
X65000Y80277D01*
X65278Y79861D01*
X65417Y79722D01*
Y80694D01*
X67084D01*
Y72777D01*
D02*
G37*
G36*
X33056D02*
X31390D01*
Y77499D01*
X31251Y78055D01*
X31112Y78472D01*
X30556Y79027D01*
X30140Y79166D01*
X29862D01*
X29584Y79027D01*
X29306Y78888D01*
X29028Y78749D01*
Y78611D01*
X27778Y80138D01*
X28334Y80416D01*
X28890Y80694D01*
X29306D01*
X30278Y80555D01*
X30973Y80277D01*
X31251Y79861D01*
X31390Y79722D01*
Y80694D01*
X33056D01*
Y72777D01*
D02*
G37*
G36*
X41112Y75277D02*
X40973Y74444D01*
X40695Y73749D01*
X40278Y73333D01*
X39723Y72916D01*
X38751Y72638D01*
X38334D01*
X37640Y72777D01*
X36945Y73055D01*
X36528Y73333D01*
X36390Y73472D01*
Y72777D01*
X34862D01*
Y80694D01*
X36390D01*
Y75972D01*
Y75416D01*
X36667Y74999D01*
X37084Y74583D01*
X37501Y74305D01*
X37778D01*
X38334Y74444D01*
X38751Y74583D01*
X39167Y75138D01*
X39445Y75694D01*
Y75972D01*
Y80694D01*
X41112D01*
Y75277D01*
D02*
G37*
G36*
X25556Y80555D02*
X26390Y80138D01*
X27084Y79444D01*
X27501Y78749D01*
X27778Y77916D01*
X27917Y77361D01*
Y76805D01*
Y76666D01*
X27778Y75277D01*
X27362Y74305D01*
X26806Y73611D01*
X26112Y73194D01*
X25417Y72916D01*
X24862Y72638D01*
X24306D01*
X23195Y72916D01*
X22223Y73333D01*
X21667Y73749D01*
X21529Y74027D01*
X22778Y75138D01*
X23334Y74722D01*
X23751Y74444D01*
X24167Y74305D01*
X24306D01*
X25001Y74444D01*
X25556Y74722D01*
X25834Y74999D01*
X26112Y75555D01*
X26390Y76249D01*
Y76527D01*
Y76666D01*
X26251Y77499D01*
X26112Y78055D01*
X25695Y78611D01*
X25278Y78888D01*
X24584Y79166D01*
X24306D01*
X23612Y79027D01*
X23195Y78749D01*
X22917Y78472D01*
X22778Y78333D01*
X21529Y79444D01*
X22501Y80138D01*
X23334Y80555D01*
X24028Y80694D01*
X24306D01*
X25556Y80555D01*
D02*
G37*
G36*
X72778D02*
X73472Y80138D01*
X74028Y79444D01*
X74445Y78749D01*
X74722Y77916D01*
X74861Y77361D01*
Y76805D01*
Y76666D01*
X74722Y75277D01*
X74306Y74305D01*
X73750Y73611D01*
X73056Y73194D01*
X72500Y72916D01*
X71945Y72638D01*
X71389D01*
X70278Y72777D01*
X69306Y73333D01*
X68750Y73749D01*
X68472Y73888D01*
X69722Y74999D01*
X70278Y74444D01*
X70834Y74166D01*
X71250Y74027D01*
X71528D01*
X72084Y74166D01*
X72500Y74305D01*
X73056Y74999D01*
X73334Y75694D01*
Y75833D01*
Y75972D01*
X68334D01*
Y77499D01*
X68472Y78611D01*
X68889Y79305D01*
X69445Y79861D01*
X70000Y80277D01*
X70556Y80555D01*
X71111Y80694D01*
X71667D01*
X72778Y80555D01*
D02*
G37*
G36*
X19167D02*
X19862Y80138D01*
X20417Y79444D01*
X20834Y78749D01*
X21112Y77916D01*
X21251Y77361D01*
Y76805D01*
Y76666D01*
X21112Y75277D01*
X20695Y74305D01*
X20140Y73611D01*
X19445Y73194D01*
X18751Y72916D01*
X18195Y72638D01*
X17640D01*
X16529Y72777D01*
X15695Y73333D01*
X15140Y73749D01*
X14862Y73888D01*
X16112Y74999D01*
X16529Y74444D01*
X17084Y74166D01*
X17501Y74027D01*
X17640D01*
X18334Y74166D01*
X18751Y74305D01*
X19306Y74999D01*
X19584Y75694D01*
Y75833D01*
Y75972D01*
X14584D01*
Y77499D01*
X14723Y78611D01*
X15140Y79305D01*
X15695Y79861D01*
X16251Y80277D01*
X16945Y80555D01*
X17501Y80694D01*
X18056D01*
X19167Y80555D01*
D02*
G37*
G36*
X87778D02*
X88472Y80277D01*
X89028Y79861D01*
X89167Y79722D01*
X89583Y78749D01*
X89722Y77777D01*
X89861Y76944D01*
Y76805D01*
Y76666D01*
X89722Y75416D01*
X89444Y74444D01*
X89305Y73888D01*
X89167Y73749D01*
X88333Y73055D01*
X87500Y72777D01*
X86944Y72638D01*
X86667D01*
X85694Y72777D01*
X85000Y73194D01*
X84583Y73611D01*
X84445Y73749D01*
X83889Y74583D01*
X83750Y75555D01*
X83611Y76388D01*
Y76527D01*
Y76666D01*
X83750Y78055D01*
X84028Y79027D01*
X84306Y79583D01*
X84445Y79722D01*
X85000Y80277D01*
X85694Y80555D01*
X86389Y80694D01*
X86667D01*
X87778Y80555D01*
D02*
G37*
G36*
X54028D02*
X54723Y80277D01*
X55278Y79999D01*
X55556Y79583D01*
X55973Y78749D01*
Y78472D01*
Y78333D01*
X55834Y77638D01*
X55556Y77083D01*
X54861Y76388D01*
X54028Y76111D01*
X53889Y75972D01*
X52361D01*
X51667Y75694D01*
X51389Y75416D01*
X51250Y75277D01*
Y75138D01*
Y74722D01*
X51528Y74444D01*
X52084Y74166D01*
X52639Y74027D01*
X52917D01*
X53889Y74166D01*
X54723Y74583D01*
X55278Y74999D01*
X55417Y75138D01*
X56389Y74027D01*
X55278Y73194D01*
X54167Y72777D01*
X53334Y72638D01*
X53056D01*
X51945Y72777D01*
X51111Y73055D01*
X50556Y73472D01*
X50139Y73888D01*
X49861Y74305D01*
X49723Y74722D01*
Y74999D01*
Y75138D01*
X49861Y75833D01*
X50000Y76388D01*
X50834Y77083D01*
X51528Y77361D01*
X51806Y77499D01*
X51945D01*
X53473Y77638D01*
X54028Y77777D01*
X54306Y78055D01*
X54445Y78194D01*
Y78333D01*
X54167Y78888D01*
X53750Y79027D01*
X53334Y79166D01*
X53056D01*
X52500Y79027D01*
X51806Y78888D01*
X51250Y78611D01*
X50973Y78472D01*
X50000Y79583D01*
X50973Y80277D01*
X51945Y80555D01*
X52778Y80694D01*
X53056D01*
X54028Y80555D01*
D02*
G37*
G36*
X46667D02*
X47501Y80277D01*
X47917Y79861D01*
X48056Y79722D01*
X48473Y78888D01*
X48750Y77777D01*
X48889Y76944D01*
Y76805D01*
Y76666D01*
X48750Y75416D01*
X48473Y74444D01*
X48195Y73888D01*
X48056Y73749D01*
X47223Y73055D01*
X46528Y72777D01*
X45973Y72638D01*
X45695D01*
X44584Y72777D01*
X43889Y73194D01*
X43473Y73611D01*
X43334Y73749D01*
X42778Y74583D01*
X42639Y75555D01*
X42501Y76388D01*
Y76527D01*
Y76666D01*
X42639Y78055D01*
X42917Y79027D01*
X43195Y79583D01*
X43334Y79722D01*
X44028Y80277D01*
X44723Y80555D01*
X45417Y80694D01*
X45695D01*
X46667Y80555D01*
D02*
G37*
G36*
X66667Y60416D02*
X65139D01*
Y65000D01*
Y65555D01*
X64861Y66111D01*
X64445Y66527D01*
X64028Y66805D01*
X63750D01*
X63334Y66666D01*
X62917Y66527D01*
X62778Y66389D01*
X62639Y66250D01*
X61389Y67639D01*
X62084Y67916D01*
X62639Y68194D01*
X63195D01*
X64028Y68055D01*
X64584Y67777D01*
X65000Y67500D01*
X65139Y67361D01*
Y68194D01*
X66667D01*
Y60416D01*
D02*
G37*
G36*
X35001D02*
X33473D01*
Y65000D01*
X33334Y65555D01*
X33195Y66111D01*
X32640Y66527D01*
X32223Y66805D01*
X31945D01*
X31667Y66666D01*
X31251Y66527D01*
X31112Y66389D01*
X30973Y66250D01*
X29723Y67639D01*
X30278Y67916D01*
X30834Y68194D01*
X31251D01*
X32223Y68055D01*
X32917Y67777D01*
X33334Y67500D01*
X33473Y67361D01*
Y68194D01*
X35001D01*
Y60416D01*
D02*
G37*
G36*
X72917Y68055D02*
X73750Y67777D01*
X74306Y67361D01*
X74445Y67222D01*
X73334Y66250D01*
X72778Y66527D01*
X72222Y66805D01*
X71111D01*
X70834Y66666D01*
X70278Y66250D01*
X70139Y65833D01*
Y65694D01*
Y65000D01*
X72222D01*
X73056Y64861D01*
X73750Y64722D01*
X74167Y64305D01*
X74584Y63889D01*
X74861Y63194D01*
Y62916D01*
Y62777D01*
X74722Y61944D01*
X74445Y61389D01*
X74028Y60833D01*
X73472Y60555D01*
X72500Y60278D01*
X72084D01*
X71111Y60416D01*
X70556Y60694D01*
X70278Y60972D01*
X70139Y61111D01*
Y60416D01*
X68472D01*
Y65694D01*
X68611Y66527D01*
X69028Y67083D01*
X69584Y67639D01*
X70139Y67916D01*
X70695Y68055D01*
X71250Y68194D01*
X71806D01*
X72917Y68055D01*
D02*
G37*
G36*
X41251D02*
X42084Y67777D01*
X42501Y67361D01*
X42639Y67222D01*
X41389Y66250D01*
X41112Y66527D01*
X40556Y66805D01*
X39445D01*
X39028Y66666D01*
X38473Y66250D01*
X38334Y65833D01*
Y65694D01*
Y65000D01*
X40556D01*
X41389Y64861D01*
X42084Y64722D01*
X42501Y64305D01*
X42917Y63889D01*
X43195Y63194D01*
Y62916D01*
Y62777D01*
X43056Y61944D01*
X42778Y61389D01*
X42223Y60833D01*
X41667Y60555D01*
X40695Y60278D01*
X40278D01*
X39445Y60416D01*
X38751Y60694D01*
X38473Y60972D01*
X38334Y61111D01*
Y60416D01*
X36806D01*
Y65694D01*
X36945Y66527D01*
X37362Y67083D01*
X37778Y67639D01*
X38334Y67916D01*
X39028Y68055D01*
X39445Y68194D01*
X40695D01*
X41251Y68055D01*
D02*
G37*
G36*
X51806Y60416D02*
X50417D01*
X48889Y65972D01*
X47084Y60416D01*
X45695D01*
X43195Y68194D01*
X44862D01*
X46389Y62777D01*
X48056Y68194D01*
X49306D01*
X51111Y62777D01*
X52778Y68194D01*
X54306D01*
X51806Y60416D01*
D02*
G37*
G36*
X27640Y68055D02*
X28334Y67639D01*
X28890Y66944D01*
X29306Y66250D01*
X29584Y65555D01*
X29723Y64861D01*
Y64444D01*
Y64305D01*
X29584Y62916D01*
X29167Y61944D01*
X28612Y61250D01*
X27917Y60833D01*
X27223Y60555D01*
X26667Y60278D01*
X26112D01*
X25001Y60416D01*
X24167Y60972D01*
X23612Y61389D01*
X23334Y61528D01*
X24584Y62500D01*
X25140Y62083D01*
X25695Y61805D01*
X26112Y61666D01*
X26390D01*
X26945Y61805D01*
X27362Y61944D01*
X27778Y62639D01*
X28056Y63333D01*
Y63472D01*
Y63611D01*
X23195D01*
Y65000D01*
X23334Y66111D01*
X23751Y66805D01*
X24306Y67361D01*
X24862Y67777D01*
X25417Y68055D01*
X25973Y68194D01*
X26528D01*
X27640Y68055D01*
D02*
G37*
G36*
X56806Y67361D02*
X57500Y67916D01*
X58056Y68055D01*
X58611Y68194D01*
X58750D01*
X59722Y68055D01*
X60417Y67777D01*
X60695Y67500D01*
X60834Y67361D01*
X60972Y67083D01*
X61111Y66666D01*
X61250Y65694D01*
X61389Y64722D01*
Y64444D01*
Y64305D01*
Y63472D01*
X61250Y62777D01*
Y62222D01*
X61111Y61805D01*
X60972Y61389D01*
X60834Y61250D01*
X60278Y60694D01*
X59584Y60416D01*
X59028Y60278D01*
X58750D01*
X57917Y60416D01*
X57361Y60694D01*
X56945Y60972D01*
X56806Y61111D01*
Y60416D01*
X55139D01*
Y71389D01*
X56806D01*
Y67361D01*
D02*
G37*
%LPC*%
G36*
X143505Y43103D02*
X141957D01*
Y42993D01*
X141514D01*
Y42882D01*
X141404D01*
Y42772D01*
X141072D01*
Y42661D01*
Y42551D01*
X140962D01*
Y42440D01*
X140740D01*
Y42329D01*
X140519D01*
Y42219D01*
Y42108D01*
X140409D01*
Y41998D01*
X140298D01*
Y41887D01*
Y41776D01*
Y41666D01*
X140188D01*
Y41555D01*
X139966D01*
Y41445D01*
Y41334D01*
X140077D01*
Y41224D01*
X139966D01*
Y41113D01*
X139856D01*
Y41002D01*
Y40892D01*
X139745D01*
Y40781D01*
Y40671D01*
Y40560D01*
Y40450D01*
Y40339D01*
X139635D01*
Y40228D01*
Y40118D01*
Y40007D01*
Y39897D01*
X139524D01*
Y39786D01*
Y39676D01*
Y39565D01*
Y39454D01*
Y39344D01*
Y39233D01*
Y39123D01*
X139413D01*
Y39012D01*
Y38902D01*
Y38791D01*
Y38680D01*
Y38570D01*
Y38459D01*
Y38349D01*
Y38238D01*
Y38127D01*
Y38017D01*
Y37906D01*
Y37796D01*
X139192D01*
Y37685D01*
Y37575D01*
Y37464D01*
Y37353D01*
Y37243D01*
Y37132D01*
Y37022D01*
Y36911D01*
Y36800D01*
Y36690D01*
Y36579D01*
Y36469D01*
Y36358D01*
Y36248D01*
Y36137D01*
Y36026D01*
Y35916D01*
Y35805D01*
Y35695D01*
Y35584D01*
Y35474D01*
Y35363D01*
Y35252D01*
Y35142D01*
Y35031D01*
Y34921D01*
Y34810D01*
Y34699D01*
Y34589D01*
Y34478D01*
Y34368D01*
Y34257D01*
Y34147D01*
Y34036D01*
Y33925D01*
Y33815D01*
Y33704D01*
X139413D01*
Y33594D01*
Y33483D01*
Y33373D01*
Y33262D01*
Y33151D01*
Y33041D01*
Y32930D01*
Y32820D01*
Y32709D01*
Y32599D01*
Y32488D01*
Y32377D01*
X139524D01*
Y32267D01*
Y32156D01*
Y32046D01*
Y31935D01*
Y31825D01*
Y31714D01*
Y31603D01*
X139635D01*
Y31493D01*
Y31382D01*
Y31272D01*
Y31161D01*
Y31051D01*
X139745D01*
Y30940D01*
Y30829D01*
Y30719D01*
X139856D01*
Y30608D01*
Y30498D01*
Y30387D01*
Y30277D01*
X140077D01*
Y30166D01*
X139966D01*
Y30055D01*
X140188D01*
Y29945D01*
Y29834D01*
Y29724D01*
X140298D01*
Y29613D01*
Y29502D01*
X140409D01*
Y29392D01*
X140519D01*
Y29281D01*
X140740D01*
Y29171D01*
X140851D01*
Y29060D01*
Y28949D01*
X140962D01*
Y28839D01*
X141183D01*
Y28728D01*
X141514D01*
Y28618D01*
X141736D01*
Y28507D01*
X142620D01*
Y28397D01*
X143062D01*
Y28507D01*
X143837D01*
Y28618D01*
X144168D01*
Y28728D01*
X144279D01*
Y28839D01*
X144611D01*
Y28949D01*
X144721D01*
Y29060D01*
Y29171D01*
X144832D01*
Y29281D01*
X144942D01*
Y29392D01*
X145053D01*
Y29502D01*
X145274D01*
Y29613D01*
Y29724D01*
X145385D01*
Y29834D01*
Y29945D01*
Y30055D01*
X145495D01*
Y30166D01*
Y30277D01*
X145606D01*
Y30387D01*
Y30498D01*
Y30608D01*
X145827D01*
Y30719D01*
Y30829D01*
Y30940D01*
X145938D01*
Y31051D01*
Y31161D01*
Y31272D01*
Y31382D01*
Y31493D01*
Y31603D01*
X146048D01*
Y31714D01*
Y31825D01*
Y31935D01*
Y32046D01*
Y32156D01*
Y32267D01*
X146159D01*
Y32377D01*
Y32488D01*
Y32599D01*
Y32709D01*
Y32820D01*
Y32930D01*
Y33041D01*
Y33151D01*
Y33262D01*
Y33373D01*
Y33483D01*
X146269D01*
Y33594D01*
Y33704D01*
Y33815D01*
Y33925D01*
Y34036D01*
Y34147D01*
Y34257D01*
Y34368D01*
Y34478D01*
Y34589D01*
Y34699D01*
Y34810D01*
Y34921D01*
Y35031D01*
Y35142D01*
Y35252D01*
Y35363D01*
Y35474D01*
Y35584D01*
Y35695D01*
Y35805D01*
Y35916D01*
Y36026D01*
Y36137D01*
Y36248D01*
Y36358D01*
Y36469D01*
Y36579D01*
Y36690D01*
Y36800D01*
Y36911D01*
Y37022D01*
Y37132D01*
Y37243D01*
Y37353D01*
Y37464D01*
Y37575D01*
Y37685D01*
Y37796D01*
Y37906D01*
Y38017D01*
Y38127D01*
X146159D01*
Y38238D01*
Y38349D01*
Y38459D01*
Y38570D01*
Y38680D01*
Y38791D01*
Y38902D01*
Y39012D01*
Y39123D01*
Y39233D01*
X146048D01*
Y39344D01*
Y39454D01*
Y39565D01*
Y39676D01*
Y39786D01*
Y39897D01*
Y40007D01*
X145938D01*
Y40118D01*
Y40228D01*
Y40339D01*
Y40450D01*
Y40560D01*
X145827D01*
Y40671D01*
Y40781D01*
Y40892D01*
X145606D01*
Y41002D01*
Y41113D01*
X145716D01*
Y41224D01*
X145606D01*
Y41334D01*
X145495D01*
Y41445D01*
Y41555D01*
X145385D01*
Y41666D01*
Y41776D01*
X145274D01*
Y41887D01*
X145163D01*
Y41998D01*
Y42108D01*
Y42219D01*
X144942D01*
Y42329D01*
X144832D01*
Y42440D01*
X144721D01*
Y42551D01*
X144500D01*
Y42661D01*
X144389D01*
Y42772D01*
X144279D01*
Y42882D01*
X144058D01*
Y42993D01*
X143505D01*
Y43103D01*
D02*
G37*
G36*
X79444Y79166D02*
X79167D01*
X78611Y79027D01*
X78194Y78749D01*
X77639Y77916D01*
X77500Y77083D01*
Y76805D01*
Y76666D01*
Y75833D01*
X77778Y75277D01*
X78056Y74861D01*
X78333Y74583D01*
X78889Y74305D01*
X79167D01*
X79722Y74444D01*
X80000Y74722D01*
X80556Y75555D01*
X80695Y76249D01*
Y76527D01*
Y76666D01*
X80556Y77499D01*
X80417Y78055D01*
X80139Y78611D01*
X79861Y78888D01*
X79444Y79166D01*
D02*
G37*
G36*
X71945D02*
X71111D01*
X70695Y78888D01*
X70139Y78333D01*
X69861Y77777D01*
Y77638D01*
Y77499D01*
X73334D01*
X73195Y78055D01*
X73056Y78472D01*
X72500Y79027D01*
X71945Y79166D01*
D02*
G37*
G36*
X18334D02*
X17501D01*
X17084Y78888D01*
X16529Y78333D01*
X16251Y77777D01*
Y77638D01*
Y77499D01*
X19584D01*
X19445Y78055D01*
X19306Y78472D01*
X18751Y79027D01*
X18334Y79166D01*
D02*
G37*
G36*
X86805D02*
X86667D01*
X86111Y79027D01*
X85833Y78888D01*
X85556Y78611D01*
Y78472D01*
X85278Y78055D01*
X85139Y77499D01*
Y76944D01*
Y76805D01*
Y76666D01*
Y75833D01*
X85278Y75138D01*
X85417Y74861D01*
X85556Y74722D01*
X85833Y74444D01*
X86250Y74305D01*
X86667D01*
X87361Y74444D01*
X87778Y74583D01*
X88055Y74722D01*
X88333Y75416D01*
X88472Y75972D01*
Y76527D01*
Y76666D01*
X88333Y77499D01*
X88194Y78055D01*
X88055Y78333D01*
Y78472D01*
X87639Y78888D01*
X87222Y79027D01*
X86805Y79166D01*
D02*
G37*
G36*
X45834D02*
X45695D01*
X45139Y79027D01*
X44723Y78888D01*
X44445Y78611D01*
Y78472D01*
X44167Y78055D01*
X44028Y77499D01*
Y76944D01*
Y76805D01*
Y76666D01*
Y75833D01*
X44167Y75138D01*
X44306Y74861D01*
X44445Y74722D01*
X44723Y74444D01*
X45139Y74305D01*
X45695D01*
X46251Y74444D01*
X46667Y74583D01*
X46806Y74722D01*
X47084Y75277D01*
X47223Y75972D01*
Y76388D01*
Y76666D01*
X47084Y77638D01*
X46945Y78194D01*
X46806Y78472D01*
X46528Y78888D01*
X46112Y79027D01*
X45834Y79166D01*
D02*
G37*
G36*
X72222Y63611D02*
X70139D01*
Y63055D01*
Y62639D01*
X70417Y62222D01*
X70972Y61805D01*
X71528Y61666D01*
X72361D01*
X72639Y61805D01*
X73195Y62222D01*
X73334Y62639D01*
Y62777D01*
X73195Y63333D01*
X72639Y63472D01*
X72222Y63611D01*
D02*
G37*
G36*
X40417D02*
X38334D01*
Y63055D01*
X38473Y62639D01*
X38612Y62222D01*
X39167Y61805D01*
X39862Y61666D01*
X40139D01*
X40973Y61805D01*
X41389Y62222D01*
X41528Y62639D01*
Y62777D01*
X41251Y63333D01*
X40834Y63472D01*
X40417Y63611D01*
D02*
G37*
G36*
X26806Y66805D02*
X26528D01*
X25973Y66666D01*
X25556Y66527D01*
X25001Y65972D01*
X24723Y65277D01*
Y65139D01*
Y65000D01*
X28056D01*
X27917Y65555D01*
X27778Y66111D01*
X27223Y66527D01*
X26806Y66805D01*
D02*
G37*
G36*
X58473D02*
X58195D01*
X57778Y66666D01*
X57361Y66389D01*
X56945Y65555D01*
X56806Y64722D01*
Y64444D01*
Y64305D01*
Y63472D01*
X57084Y62916D01*
X57223Y62361D01*
X57500Y62083D01*
X57917Y61805D01*
X58195D01*
X58750Y61944D01*
X59167Y62222D01*
X59584Y63055D01*
X59861Y63889D01*
Y64166D01*
Y64305D01*
X59722Y65139D01*
X59584Y65694D01*
X59306Y66250D01*
X59028Y66527D01*
X58473Y66805D01*
D02*
G37*
%LPD*%
D11*
X460000Y144500D02*
Y150500D01*
Y144500D02*
X489000D01*
Y150500D01*
X460000D02*
X489000D01*
X458500Y154000D02*
Y166000D01*
X121000Y172500D02*
Y177500D01*
Y172500D02*
X137000D01*
Y177500D01*
X121000D02*
X137000D01*
X120000Y181000D02*
Y185750D01*
X11500Y198000D02*
Y202000D01*
X28500Y198000D02*
Y202000D01*
X84500Y198000D02*
Y202000D01*
X101500Y198000D02*
Y202000D01*
X76500Y198000D02*
Y202000D01*
X59500Y198000D02*
Y202000D01*
X35500Y198000D02*
Y202000D01*
X52500Y198000D02*
Y202000D01*
D12*
X414960Y190197D02*
Y182579D01*
X412421Y180040D01*
X404803D01*
Y190197D01*
X399725Y180040D02*
Y190197D01*
X392107D01*
X389568Y187658D01*
Y180040D01*
X384490Y192736D02*
X381951Y195275D01*
X376872D01*
X374333Y192736D01*
Y182579D01*
X376872Y180040D01*
X381951D01*
X384490Y182579D01*
Y192736D01*
X369255Y190197D02*
Y180040D01*
Y185118D01*
X366716Y187658D01*
X364176Y190197D01*
X361637D01*
X354020Y180040D02*
X348941D01*
X351480D01*
Y190197D01*
X354020D01*
X331167D02*
X338785D01*
X341324Y187658D01*
Y182579D01*
X338785Y180040D01*
X331167D01*
X326089D02*
Y195275D01*
Y185118D02*
X318471Y190197D01*
X326089Y185118D02*
X318471Y180040D01*
X310854D02*
Y182579D01*
X308314D01*
Y180040D01*
X310854D01*
X288001Y190197D02*
X295619D01*
X298158Y187658D01*
Y182579D01*
X295619Y180040D01*
X288001D01*
X272766Y190197D02*
X280383D01*
X282923Y187658D01*
Y182579D01*
X280383Y180040D01*
X272766D01*
X392460Y205040D02*
X387382D01*
X389921D01*
Y220275D01*
X392460D01*
X379764Y205040D02*
X374686D01*
X377225D01*
Y215197D01*
X379764D01*
X364529Y217736D02*
Y215197D01*
X367068D01*
X361990D01*
X364529D01*
Y207579D01*
X361990Y205040D01*
X354372Y217736D02*
X351833Y220275D01*
X346755D01*
X344216Y217736D01*
Y215197D01*
X346755Y212658D01*
X349294D01*
X346755D01*
X344216Y210118D01*
Y207579D01*
X346755Y205040D01*
X351833D01*
X354372Y207579D01*
X339137Y212658D02*
X328980D01*
X323902Y217736D02*
X321363Y220275D01*
X316285D01*
X313745Y217736D01*
Y215197D01*
X316285Y212658D01*
X318824D01*
X316285D01*
X313745Y210118D01*
Y207579D01*
X316285Y205040D01*
X321363D01*
X323902Y207579D01*
X298510Y205040D02*
X308667D01*
X298510Y215197D01*
Y217736D01*
X301049Y220275D01*
X306128D01*
X308667Y217736D01*
D13*
X156500Y205000D02*
Y226000D01*
X145500D02*
X156500D01*
X145500Y205000D02*
Y226000D01*
Y205000D02*
X156500D01*
X437000Y67500D02*
X458000D01*
X437000Y56500D02*
Y67500D01*
Y56500D02*
X458000D01*
Y67500D01*
X437000Y55500D02*
X458000D01*
X437000Y44500D02*
Y55500D01*
Y44500D02*
X458000D01*
Y55500D01*
X361000Y106500D02*
Y127500D01*
Y106500D02*
X372000D01*
Y127500D01*
X361000D02*
X372000D01*
X348500Y106500D02*
Y127500D01*
Y106500D02*
X359500D01*
Y127500D01*
X348500D02*
X359500D01*
X223000Y81500D02*
Y102500D01*
X212000D02*
X223000D01*
X212000Y81500D02*
Y102500D01*
Y81500D02*
X223000D01*
X210500D02*
Y102500D01*
X199500D02*
X210500D01*
X199500Y81500D02*
Y102500D01*
Y81500D02*
X210500D01*
X397000Y37000D02*
Y58000D01*
Y37000D02*
X408000D01*
Y58000D01*
X397000D02*
X408000D01*
X385000Y37000D02*
Y58000D01*
Y37000D02*
X396000D01*
Y58000D01*
X385000D02*
X396000D01*
X283000Y29000D02*
Y50000D01*
X272000D02*
X283000D01*
X272000Y29000D02*
Y50000D01*
Y29000D02*
X283000D01*
X271000D02*
Y50000D01*
X260000D02*
X271000D01*
X260000Y29000D02*
Y50000D01*
Y29000D02*
X271000D01*
X121500Y150500D02*
X142500D01*
Y161500D01*
X121500D02*
X142500D01*
X121500Y150500D02*
Y161500D01*
X480000Y102000D02*
Y123000D01*
X469000D02*
X480000D01*
X469000Y102000D02*
Y123000D01*
Y102000D02*
X480000D01*
X175999Y96750D02*
Y117750D01*
X164999D02*
X175999D01*
X164999Y96750D02*
Y117750D01*
Y96750D02*
X175999D01*
X143000Y97000D02*
Y118000D01*
X132000D02*
X143000D01*
X132000Y97000D02*
Y118000D01*
Y97000D02*
X143000D01*
X307000Y62500D02*
X328000D01*
X307000Y51500D02*
Y62500D01*
Y51500D02*
X328000D01*
Y62500D01*
X307000Y78500D02*
X328000D01*
Y89500D01*
X307000D02*
X328000D01*
X307000Y78500D02*
Y89500D01*
X187500Y221000D02*
X208500D01*
Y232000D01*
X187500D02*
X208500D01*
X187500Y221000D02*
Y232000D01*
X203000Y119500D02*
Y140500D01*
Y119500D02*
X214000D01*
Y140500D01*
X203000D02*
X214000D01*
X191500Y183000D02*
Y204000D01*
X180500D02*
X191500D01*
X180500Y183000D02*
Y204000D01*
Y183000D02*
X191500D01*
X203500D02*
Y204000D01*
X192500D02*
X203500D01*
X192500Y183000D02*
Y204000D01*
Y183000D02*
X203500D01*
X191000Y119500D02*
Y140500D01*
Y119500D02*
X202000D01*
Y140500D01*
X191000D02*
X202000D01*
X179000Y119500D02*
Y140500D01*
Y119500D02*
X190000D01*
Y140500D01*
X179000D02*
X190000D01*
X497500Y190500D02*
Y201500D01*
X476500Y190500D02*
X497500D01*
X476500D02*
Y201500D01*
X497500D01*
X454500Y190500D02*
Y201500D01*
X475500D01*
Y190500D02*
Y201500D01*
X454500Y190500D02*
X475500D01*
X453750Y173001D02*
Y184001D01*
X474750D01*
Y173001D02*
Y184001D01*
X453750Y173001D02*
X474750D01*
X496750D02*
Y184001D01*
X475750Y173001D02*
X496750D01*
X475750D02*
Y184001D01*
X496750D01*
X373500Y127500D02*
X384500D01*
Y106500D02*
Y127500D01*
X373500Y106500D02*
X384500D01*
X373500D02*
Y127500D01*
X127500Y213500D02*
X138500D01*
X127500D02*
Y234500D01*
X138500D01*
Y213500D02*
Y234500D01*
X111499Y213250D02*
X122499D01*
X111499D02*
Y234250D01*
X122499D01*
Y213250D02*
Y234250D01*
X252500Y120000D02*
Y131000D01*
X231500Y120000D02*
X252500D01*
X231500D02*
Y131000D01*
X252500D01*
D14*
X437250Y8750D02*
X456250D01*
X437250D02*
Y42750D01*
X456250D01*
Y8750D02*
Y42750D01*
X284500Y31000D02*
Y50000D01*
X318500D01*
Y31000D02*
Y50000D01*
X284500Y31000D02*
X318500D01*
D16*
X158354Y116815D02*
G03*
X158256Y116844I146J685D01*
G01*
X305146Y67685D02*
G03*
X305244Y67656I-146J-685D01*
G01*
X541332Y124110D02*
Y160940D01*
X562668Y124110D02*
Y160940D01*
X541332D02*
X562668D01*
X541332Y124110D02*
X562668D01*
X540832Y67060D02*
Y103890D01*
X562168Y67060D02*
Y103890D01*
X540832D02*
X562168D01*
X540832Y67060D02*
X562168D01*
X515570Y124110D02*
X538430D01*
X515570Y172370D02*
X538430D01*
X515570Y124110D02*
Y172370D01*
X538430Y124110D02*
Y172370D01*
X515070Y56110D02*
X537930D01*
X515070Y104370D02*
X537930D01*
X515070Y56110D02*
Y104370D01*
X537930Y56110D02*
Y104370D01*
X149669Y15997D02*
X156000D01*
Y11249D01*
X152834D01*
X156000D01*
Y6500D01*
X146503D02*
Y15997D01*
X141755D01*
X140172Y14414D01*
Y11249D01*
X141755Y9666D01*
X146503D01*
X143337D02*
X140172Y6500D01*
X137006Y14414D02*
X135423Y15997D01*
X132258D01*
X130675Y14414D01*
Y8083D01*
X132258Y6500D01*
X135423D01*
X137006Y8083D01*
Y14414D01*
X127509D02*
X125926Y15997D01*
X122761D01*
X121178Y14414D01*
Y8083D01*
X122761Y6500D01*
X125926D01*
X127509Y8083D01*
Y14414D01*
X118012D02*
X116429Y15997D01*
X113264D01*
X111681Y14414D01*
Y8083D01*
X113264Y6500D01*
X116429D01*
X118012Y8083D01*
Y14414D01*
X108515D02*
X106932Y15997D01*
X103767D01*
X102184Y14414D01*
Y8083D01*
X103767Y6500D01*
X106932D01*
X108515Y8083D01*
Y14414D01*
X99018Y6500D02*
X95853D01*
X97436D01*
Y15997D01*
X99018Y14414D01*
X84773Y15997D02*
X87939Y14414D01*
X91104Y11249D01*
Y8083D01*
X89521Y6500D01*
X86356D01*
X84773Y8083D01*
Y9666D01*
X86356Y11249D01*
X91104D01*
X375445Y82248D02*
X383442D01*
Y86247D01*
X382109Y87580D01*
X379444D01*
X378111Y86247D01*
Y82248D01*
Y84914D02*
X375445Y87580D01*
Y95577D02*
Y90246D01*
X380776Y95577D01*
X382109D01*
X383442Y94244D01*
Y91579D01*
X382109Y90246D01*
X375445Y102242D02*
X383442D01*
X379444Y98243D01*
Y103575D01*
X368615Y87226D02*
X369948Y85893D01*
Y83227D01*
X368615Y81894D01*
X363283D01*
X361950Y83227D01*
Y85893D01*
X363283Y87226D01*
X361950Y93890D02*
X369948D01*
X365949Y89892D01*
Y95223D01*
X363283Y97889D02*
X361950Y99222D01*
Y101888D01*
X363283Y103221D01*
X368615D01*
X369948Y101888D01*
Y99222D01*
X368615Y97889D01*
X367282D01*
X365949Y99222D01*
Y103221D01*
X356666Y87168D02*
X357999Y85836D01*
Y83170D01*
X356666Y81837D01*
X351334D01*
X350001Y83170D01*
Y85836D01*
X351334Y87168D01*
X350001Y93833D02*
X357999D01*
X354000Y89834D01*
Y95166D01*
X356666Y97832D02*
X357999Y99164D01*
Y101830D01*
X356666Y103163D01*
X355333D01*
X354000Y101830D01*
X352667Y103163D01*
X351334D01*
X350001Y101830D01*
Y99164D01*
X351334Y97832D01*
X352667D01*
X354000Y99164D01*
X355333Y97832D01*
X356666D01*
X354000Y99164D02*
Y101830D01*
X159668Y89995D02*
Y83331D01*
X158335Y81998D01*
X155669D01*
X154336Y83331D01*
Y89995D01*
X146339Y81998D02*
X151670D01*
X146339Y87330D01*
Y88663D01*
X147672Y89995D01*
X150337D01*
X151670Y88663D01*
X302832Y76999D02*
Y70334D01*
X301499Y69001D01*
X298833D01*
X297500Y70334D01*
Y76999D01*
X294834Y69001D02*
X292168D01*
X293501D01*
Y76999D01*
X294834Y75666D01*
X499768Y206001D02*
Y213999D01*
X495769D01*
X494436Y212666D01*
Y210000D01*
X495769Y208667D01*
X499768D01*
X497102D02*
X494436Y206001D01*
X491771Y212666D02*
X490438Y213999D01*
X487772D01*
X486439Y212666D01*
Y211333D01*
X487772Y210000D01*
X489105D01*
X487772D01*
X486439Y208667D01*
Y207334D01*
X487772Y206001D01*
X490438D01*
X491771Y207334D01*
X478442Y206001D02*
X483773D01*
X478442Y211333D01*
Y212666D01*
X479775Y213999D01*
X482440D01*
X483773Y212666D01*
X472830Y206001D02*
Y213999D01*
X468831D01*
X467499Y212666D01*
Y210000D01*
X468831Y208667D01*
X472830D01*
X470164D02*
X467499Y206001D01*
X464833Y212666D02*
X463500Y213999D01*
X460834D01*
X459501Y212666D01*
Y211333D01*
X460834Y210000D01*
X462167D01*
X460834D01*
X459501Y208667D01*
Y207334D01*
X460834Y206001D01*
X463500D01*
X464833Y207334D01*
X456835Y206001D02*
X454170D01*
X455503D01*
Y213999D01*
X456835Y212666D01*
X450163Y175501D02*
Y183499D01*
X446165D01*
X444832Y182166D01*
Y179500D01*
X446165Y178167D01*
X450163D01*
X447497D02*
X444832Y175501D01*
X442166Y182166D02*
X440833Y183499D01*
X438167D01*
X436834Y182166D01*
Y180833D01*
X438167Y179500D01*
X439500D01*
X438167D01*
X436834Y178167D01*
Y176834D01*
X438167Y175501D01*
X440833D01*
X442166Y176834D01*
X434168Y182166D02*
X432835Y183499D01*
X430170D01*
X428837Y182166D01*
Y176834D01*
X430170Y175501D01*
X432835D01*
X434168Y176834D01*
Y182166D01*
X522163Y176001D02*
Y183999D01*
X518164D01*
X516832Y182666D01*
Y180000D01*
X518164Y178667D01*
X522163D01*
X519497D02*
X516832Y176001D01*
X508834D02*
X514166D01*
X508834Y181333D01*
Y182666D01*
X510167Y183999D01*
X512833D01*
X514166Y182666D01*
X506168Y177334D02*
X504835Y176001D01*
X502170D01*
X500837Y177334D01*
Y182666D01*
X502170Y183999D01*
X504835D01*
X506168Y182666D01*
Y181333D01*
X504835Y180000D01*
X500837D01*
X248664Y109501D02*
Y117499D01*
X244666D01*
X243333Y116166D01*
Y113500D01*
X244666Y112167D01*
X248664D01*
X245999D02*
X243333Y109501D01*
X240667Y116166D02*
X239334Y117499D01*
X236668D01*
X235335Y116166D01*
Y114833D01*
X236668Y113500D01*
X238001D01*
X236668D01*
X235335Y112167D01*
Y110834D01*
X236668Y109501D01*
X239334D01*
X240667Y110834D01*
X432164Y14999D02*
Y7001D01*
X426833D01*
X418835Y14999D02*
X421501Y13666D01*
X424167Y11000D01*
Y8334D01*
X422834Y7001D01*
X420168D01*
X418835Y8334D01*
Y9667D01*
X420168Y11000D01*
X424167D01*
X335664Y40999D02*
Y33001D01*
X330333D01*
X323668D02*
Y40999D01*
X327667Y37000D01*
X322335D01*
X160312Y178538D02*
X157646D01*
X158979D01*
Y170541D01*
X160312D01*
X157646D01*
X148315Y177205D02*
X149648Y178538D01*
X152314D01*
X153647Y177205D01*
Y171873D01*
X152314Y170541D01*
X149648D01*
X148315Y171873D01*
X145650Y177205D02*
X144317Y178538D01*
X141651D01*
X140318Y177205D01*
Y175872D01*
X141651Y174539D01*
X142984D01*
X141651D01*
X140318Y173206D01*
Y171873D01*
X141651Y170541D01*
X144317D01*
X145650Y171873D01*
X453497Y135999D02*
X450831D01*
X452164D01*
Y128001D01*
X453497D01*
X450831D01*
X441501Y134666D02*
X442834Y135999D01*
X445499D01*
X446832Y134666D01*
Y129334D01*
X445499Y128001D01*
X442834D01*
X441501Y129334D01*
X433503Y128001D02*
X438835D01*
X433503Y133333D01*
Y134666D01*
X434836Y135999D01*
X437502D01*
X438835Y134666D01*
X165666Y210168D02*
X166999Y208836D01*
Y206170D01*
X165666Y204837D01*
X160334D01*
X159001Y206170D01*
Y208836D01*
X160334Y210168D01*
X166999Y218166D02*
Y212834D01*
X163000D01*
X164333Y215500D01*
Y216833D01*
X163000Y218166D01*
X160334D01*
X159001Y216833D01*
Y214167D01*
X160334Y212834D01*
X166999Y220832D02*
Y226163D01*
X165666D01*
X160334Y220832D01*
X159001D01*
X509416Y140668D02*
X510749Y139335D01*
Y136670D01*
X509416Y135337D01*
X504084D01*
X502751Y136670D01*
Y139335D01*
X504084Y140668D01*
X510749Y148666D02*
Y143334D01*
X506750D01*
X508083Y146000D01*
Y147333D01*
X506750Y148666D01*
X504084D01*
X502751Y147333D01*
Y144667D01*
X504084Y143334D01*
X510749Y156663D02*
Y151332D01*
X506750D01*
X508083Y153997D01*
Y155330D01*
X506750Y156663D01*
X504084D01*
X502751Y155330D01*
Y152665D01*
X504084Y151332D01*
X573666Y134668D02*
X574999Y133336D01*
Y130670D01*
X573666Y129337D01*
X568334D01*
X567001Y130670D01*
Y133336D01*
X568334Y134668D01*
X574999Y142666D02*
Y137334D01*
X571000D01*
X572333Y140000D01*
Y141333D01*
X571000Y142666D01*
X568334D01*
X567001Y141333D01*
Y138667D01*
X568334Y137334D01*
X567001Y149330D02*
X574999D01*
X571000Y145332D01*
Y150663D01*
X452462Y89738D02*
X453795Y91071D01*
X456461D01*
X457794Y89738D01*
Y84407D01*
X456461Y83074D01*
X453795D01*
X452462Y84407D01*
X444465Y91071D02*
X449796D01*
Y87072D01*
X447131Y88405D01*
X445798D01*
X444465Y87072D01*
Y84407D01*
X445798Y83074D01*
X448464D01*
X449796Y84407D01*
X441799Y89738D02*
X440466Y91071D01*
X437800D01*
X436468Y89738D01*
Y88405D01*
X437800Y87072D01*
X439133D01*
X437800D01*
X436468Y85739D01*
Y84407D01*
X437800Y83074D01*
X440466D01*
X441799Y84407D01*
X452832Y78666D02*
X454164Y79999D01*
X456830D01*
X458163Y78666D01*
Y73334D01*
X456830Y72001D01*
X454164D01*
X452832Y73334D01*
X444834Y79999D02*
X450166D01*
Y76000D01*
X447500Y77333D01*
X446167D01*
X444834Y76000D01*
Y73334D01*
X446167Y72001D01*
X448833D01*
X450166Y73334D01*
X436837Y72001D02*
X442168D01*
X436837Y77333D01*
Y78666D01*
X438170Y79999D01*
X440835D01*
X442168Y78666D01*
X509166Y76168D02*
X510499Y74836D01*
Y72170D01*
X509166Y70837D01*
X503834D01*
X502501Y72170D01*
Y74836D01*
X503834Y76168D01*
X502501Y82833D02*
X510499D01*
X506500Y78834D01*
Y84166D01*
X510499Y92163D02*
Y86832D01*
X506500D01*
X507833Y89497D01*
Y90830D01*
X506500Y92163D01*
X503834D01*
X502501Y90830D01*
Y88165D01*
X503834Y86832D01*
X574166Y77168D02*
X575499Y75835D01*
Y73170D01*
X574166Y71837D01*
X568834D01*
X567501Y73170D01*
Y75835D01*
X568834Y77168D01*
X567501Y83833D02*
X575499D01*
X571500Y79834D01*
Y85166D01*
X567501Y91830D02*
X575499D01*
X571500Y87832D01*
Y93163D01*
X233666Y87518D02*
X234999Y86186D01*
Y83520D01*
X233666Y82187D01*
X228334D01*
X227001Y83520D01*
Y86186D01*
X228334Y87518D01*
X227001Y94183D02*
X234999D01*
X231000Y90184D01*
Y95516D01*
X233666Y98182D02*
X234999Y99515D01*
Y102180D01*
X233666Y103513D01*
X232333D01*
X231000Y102180D01*
Y100847D01*
Y102180D01*
X229667Y103513D01*
X228334D01*
X227001Y102180D01*
Y99515D01*
X228334Y98182D01*
X194666Y86668D02*
X195999Y85336D01*
Y82670D01*
X194666Y81337D01*
X189334D01*
X188001Y82670D01*
Y85336D01*
X189334Y86668D01*
X188001Y93333D02*
X195999D01*
X192000Y89334D01*
Y94666D01*
X188001Y102663D02*
Y97332D01*
X193333Y102663D01*
X194666D01*
X195999Y101330D01*
Y98665D01*
X194666Y97332D01*
X407204Y17379D02*
X408537Y16046D01*
Y13380D01*
X407204Y12047D01*
X401873D01*
X400540Y13380D01*
Y16046D01*
X401873Y17379D01*
X407204Y20045D02*
X408537Y21378D01*
Y24044D01*
X407204Y25376D01*
X405871D01*
X404538Y24044D01*
Y22710D01*
Y24044D01*
X403206Y25376D01*
X401873D01*
X400540Y24044D01*
Y21378D01*
X401873Y20045D01*
X407204Y28042D02*
X408537Y29375D01*
Y32041D01*
X407204Y33374D01*
X405871D01*
X404538Y32041D01*
X403206Y33374D01*
X401873D01*
X400540Y32041D01*
Y29375D01*
X401873Y28042D01*
X403206D01*
X404538Y29375D01*
X405871Y28042D01*
X407204D01*
X404538Y29375D02*
Y32041D01*
X393166Y17668D02*
X394499Y16336D01*
Y13670D01*
X393166Y12337D01*
X387834D01*
X386501Y13670D01*
Y16336D01*
X387834Y17668D01*
X393166Y20334D02*
X394499Y21667D01*
Y24333D01*
X393166Y25666D01*
X391833D01*
X390500Y24333D01*
Y23000D01*
Y24333D01*
X389167Y25666D01*
X387834D01*
X386501Y24333D01*
Y21667D01*
X387834Y20334D01*
X394499Y28332D02*
Y33663D01*
X393166D01*
X387834Y28332D01*
X386501D01*
X279666Y58168D02*
X280999Y56835D01*
Y54170D01*
X279666Y52837D01*
X274334D01*
X273001Y54170D01*
Y56835D01*
X274334Y58168D01*
X279666Y60834D02*
X280999Y62167D01*
Y64833D01*
X279666Y66166D01*
X278333D01*
X277000Y64833D01*
Y63500D01*
Y64833D01*
X275667Y66166D01*
X274334D01*
X273001Y64833D01*
Y62167D01*
X274334Y60834D01*
X273001Y72830D02*
X280999D01*
X277000Y68832D01*
Y74163D01*
X268425Y58379D02*
X269758Y57046D01*
Y54380D01*
X268425Y53047D01*
X263093D01*
X261760Y54380D01*
Y57046D01*
X263093Y58379D01*
X268425Y61044D02*
X269758Y62377D01*
Y65043D01*
X268425Y66376D01*
X267092D01*
X265759Y65043D01*
Y63710D01*
Y65043D01*
X264426Y66376D01*
X263093D01*
X261760Y65043D01*
Y62377D01*
X263093Y61044D01*
X268425Y69042D02*
X269758Y70375D01*
Y73041D01*
X268425Y74373D01*
X267092D01*
X265759Y73041D01*
Y71708D01*
Y73041D01*
X264426Y74373D01*
X263093D01*
X261760Y73041D01*
Y70375D01*
X263093Y69042D01*
X113665Y158666D02*
X114998Y159999D01*
X117664D01*
X118997Y158666D01*
Y153334D01*
X117664Y152001D01*
X114998D01*
X113665Y153334D01*
X110999Y152001D02*
X108334D01*
X109666D01*
Y159999D01*
X110999Y158666D01*
X99003Y159999D02*
X104335D01*
Y156000D01*
X101669Y157333D01*
X100336D01*
X99003Y156000D01*
Y153334D01*
X100336Y152001D01*
X103002D01*
X104335Y153334D01*
X462666Y107835D02*
X463999Y106502D01*
Y103836D01*
X462666Y102503D01*
X457334D01*
X456001Y103836D01*
Y106502D01*
X457334Y107835D01*
X456001Y110501D02*
Y113167D01*
Y111834D01*
X463999D01*
X462666Y110501D01*
X456001Y121164D02*
X463999D01*
X460000Y117165D01*
Y122497D01*
X173166Y78835D02*
X174499Y77502D01*
Y74836D01*
X173166Y73503D01*
X167834D01*
X166501Y74836D01*
Y77502D01*
X167834Y78835D01*
X166501Y81501D02*
Y84166D01*
Y82834D01*
X174499D01*
X173166Y81501D01*
Y88165D02*
X174499Y89498D01*
Y92164D01*
X173166Y93497D01*
X171833D01*
X170500Y92164D01*
Y90831D01*
Y92164D01*
X169167Y93497D01*
X167834D01*
X166501Y92164D01*
Y89498D01*
X167834Y88165D01*
X139666Y78835D02*
X140999Y77502D01*
Y74836D01*
X139666Y73503D01*
X134334D01*
X133001Y74836D01*
Y77502D01*
X134334Y78835D01*
X133001Y81501D02*
Y84166D01*
Y82834D01*
X140999D01*
X139666Y81501D01*
X133001Y93497D02*
Y88165D01*
X138333Y93497D01*
X139666D01*
X140999Y92164D01*
Y89498D01*
X139666Y88165D01*
X342017Y59617D02*
X343350Y60950D01*
X346016D01*
X347349Y59617D01*
Y54285D01*
X346016Y52952D01*
X343350D01*
X342017Y54285D01*
X339352Y52952D02*
X336686D01*
X338019D01*
Y60950D01*
X339352Y59617D01*
X332687Y52952D02*
X330021D01*
X331354D01*
Y60950D01*
X332687Y59617D01*
X322480Y99617D02*
X323813Y100950D01*
X326479D01*
X327812Y99617D01*
Y94285D01*
X326479Y92952D01*
X323813D01*
X322480Y94285D01*
X319814Y92952D02*
X317148D01*
X318481D01*
Y100950D01*
X319814Y99617D01*
X313150D02*
X311817Y100950D01*
X309151D01*
X307818Y99617D01*
Y94285D01*
X309151Y92952D01*
X311817D01*
X313150Y94285D01*
Y99617D01*
X200201Y216335D02*
X201534Y217668D01*
X204199D01*
X205532Y216335D01*
Y211004D01*
X204199Y209671D01*
X201534D01*
X200201Y211004D01*
X197535Y216335D02*
X196202Y217668D01*
X193536D01*
X192203Y216335D01*
Y215002D01*
X193536Y213669D01*
X192203Y212337D01*
Y211004D01*
X193536Y209671D01*
X196202D01*
X197535Y211004D01*
Y212337D01*
X196202Y213669D01*
X197535Y215002D01*
Y216335D01*
X196202Y213669D02*
X193536D01*
X210666Y150167D02*
X211999Y148834D01*
Y146168D01*
X210666Y144836D01*
X205334D01*
X204001Y146168D01*
Y148834D01*
X205334Y150167D01*
X211999Y152833D02*
Y158165D01*
X210666D01*
X205334Y152833D01*
X204001D01*
X176666Y185667D02*
X177999Y184334D01*
Y181668D01*
X176666Y180336D01*
X171334D01*
X170001Y181668D01*
Y184334D01*
X171334Y185667D01*
X177999Y193665D02*
X176666Y190999D01*
X174000Y188333D01*
X171334D01*
X170001Y189666D01*
Y192332D01*
X171334Y193665D01*
X172667D01*
X174000Y192332D01*
Y188333D01*
X213166Y191667D02*
X214499Y190334D01*
Y187668D01*
X213166Y186336D01*
X207834D01*
X206501Y187668D01*
Y190334D01*
X207834Y191667D01*
X214499Y199664D02*
Y194333D01*
X210500D01*
X211833Y196999D01*
Y198332D01*
X210500Y199664D01*
X207834D01*
X206501Y198332D01*
Y195666D01*
X207834Y194333D01*
X198666Y149667D02*
X199999Y148334D01*
Y145668D01*
X198666Y144335D01*
X193334D01*
X192001Y145668D01*
Y148334D01*
X193334Y149667D01*
X192001Y156332D02*
X199999D01*
X196000Y152333D01*
Y157665D01*
X186666Y149667D02*
X187999Y148334D01*
Y145668D01*
X186666Y144335D01*
X181334D01*
X180001Y145668D01*
Y148334D01*
X181334Y149667D01*
X186666Y152333D02*
X187999Y153666D01*
Y156332D01*
X186666Y157665D01*
X185333D01*
X184000Y156332D01*
Y154999D01*
Y156332D01*
X182667Y157665D01*
X181334D01*
X180001Y156332D01*
Y153666D01*
X181334Y152333D01*
X427875Y42392D02*
Y47724D01*
Y45058D01*
X419877D01*
Y50389D02*
X427875D01*
Y54388D01*
X426542Y55721D01*
X423876D01*
X422543Y54388D01*
Y50389D01*
X419877Y63719D02*
Y58387D01*
X425209Y63719D01*
X426542D01*
X427875Y62386D01*
Y59720D01*
X426542Y58387D01*
X427875Y71716D02*
Y66384D01*
X423876D01*
X425209Y69050D01*
Y70383D01*
X423876Y71716D01*
X421210D01*
X419877Y70383D01*
Y67717D01*
X421210Y66384D01*
X153995Y134999D02*
X148664D01*
X151330D01*
Y127001D01*
X145998D02*
Y134999D01*
X141999D01*
X140666Y133666D01*
Y131000D01*
X141999Y129667D01*
X145998D01*
X138001Y127001D02*
X135335D01*
X136668D01*
Y134999D01*
X138001Y133666D01*
X127337Y127001D02*
Y134999D01*
X131336Y131000D01*
X126004D01*
X44333Y150999D02*
X49664D01*
Y147000D01*
X46999D01*
X49664D01*
Y143001D01*
X36335D02*
X41667D01*
X36335Y148333D01*
Y149666D01*
X37668Y150999D01*
X40334D01*
X41667Y149666D01*
X69000Y151499D02*
X74332D01*
Y147500D01*
X71666D01*
X74332D01*
Y143501D01*
X66334D02*
X63668D01*
X65001D01*
Y151499D01*
X66334Y150166D01*
X25832Y173666D02*
X27164Y174999D01*
X29830D01*
X31163Y173666D01*
Y168334D01*
X29830Y167001D01*
X27164D01*
X25832Y168334D01*
X17834Y174999D02*
X23166D01*
Y171000D01*
X20500Y172333D01*
X19167D01*
X17834Y171000D01*
Y168334D01*
X19167Y167001D01*
X21833D01*
X23166Y168334D01*
X15168D02*
X13835Y167001D01*
X11170D01*
X9837Y168334D01*
Y173666D01*
X11170Y174999D01*
X13835D01*
X15168Y173666D01*
Y172333D01*
X13835Y171000D01*
X9837D01*
X99832Y174166D02*
X101164Y175499D01*
X103830D01*
X105163Y174166D01*
Y168834D01*
X103830Y167501D01*
X101164D01*
X99832Y168834D01*
X91834Y175499D02*
X97166D01*
Y171500D01*
X94500Y172833D01*
X93167D01*
X91834Y171500D01*
Y168834D01*
X93167Y167501D01*
X95833D01*
X97166Y168834D01*
X89168Y174166D02*
X87835Y175499D01*
X85170D01*
X83837Y174166D01*
Y172833D01*
X85170Y171500D01*
X83837Y170167D01*
Y168834D01*
X85170Y167501D01*
X87835D01*
X89168Y168834D01*
Y170167D01*
X87835Y171500D01*
X89168Y172833D01*
Y174166D01*
X87835Y171500D02*
X85170D01*
D105*
X146500Y101286D02*
X161750D01*
X146500Y114536D02*
X161750D01*
X308514Y63679D02*
X323764D01*
X308514Y76929D02*
X323764D01*
M02*
