M48
;Layer_Color=9474304
;FILE_FORMAT=4:4
METRIC,LZ
;TYPE=PLATED
T1F00S00C0.3000
T2F00S00C0.8900
T3F00S00C1.1500
T4F00S00C1.3000
;TYPE=NON_PLATED
T5F00S00C1.0200
T6F00S00C2.8000
%
T01
X00205Y0001375
X00253Y0001775
X0029475Y00039
X0032725Y0003575
X003125Y000895
X0035875Y000775
X0039225Y000205
X0047675Y000188
X001305Y0001625
X0019Y0015675
X0022Y00156
X002205Y0016525
X00216Y00175
X002665Y0017325
X00275Y0015125
X002745Y0012225
X0026975Y00108
X002765Y001025
X002825Y0009725
X0029925Y00106
X0032775Y0010025
X003365Y001015
X0035025Y00112
X0035675Y0010725
X00357767Y00127506
X0034525Y0013125
X00351Y0014325
X00352267Y00151007
X0033775Y0017625
X0032175Y0017875
X0032125Y00169
X0032175Y0013125
X00378503Y0013121
X0038Y0013875
X003875Y001125
X00417Y0009675
X004385Y0018825
X00436Y0023225
X0041175Y0023175
X0035125Y002205
X003555Y0030525
X003645Y0032325
X00401115Y00317635
T02
X006036Y000795
X00629
Y00113
X006036
T03
X0008415Y0025225
Y0027765
X0010955
Y0025225
X0013495
Y0027765
X0016035
Y0025225
X0018575
Y0027765
Y003683
Y003937
X0016035
Y003683
X0013495
Y003937
X0010955
Y003683
X0008415
Y003937
X0021115
X0023655
X0026195
X0028735
X0031275
X0033815
X0036355
X0038895
X0041435
X0043975
X0046515
X0049055
X0051595
X0054135
X0056675
Y003683
X0054135
X0051595
X0049055
X0046515
X0043975
X0041435
X0038895
X0036355
X0033815
X0031275
X0028735
X0026195
X0023655
X0021115
Y0027765
Y0025225
X0023655
Y0027765
X0026195
Y0025225
X0028735
Y0027765
X0031275
Y0025225
X0033815
Y0027765
X0036355
Y0025225
X0038895
Y0027765
X0041435
Y0025225
X0043975
Y0027765
X0046515
Y0025225
X0049055
Y0027765
X0051595
Y0025225
X0054135
Y0027765
X0056675
Y0025225
T04
X00275Y000218
X00341
T05
X00585Y00151
X005855Y0022125
X00613Y0018625
T06
X00615Y00035
X00035
X00035Y00265
X00035Y00375
X00615
X00615Y00265
M30
