G04*
G04 #@! TF.GenerationSoftware,Altium Limited,Altium Designer,21.2.2 (38)*
G04*
G04 Layer_Color=8388736*
%FSLAX44Y44*%
%MOMM*%
G71*
G04*
G04 #@! TF.SameCoordinates,E197076A-8C22-4D41-9B62-958370782F32*
G04*
G04*
G04 #@! TF.FilePolarity,Positive*
G04*
G01*
G75*
%ADD12C,0.2540*%
D12*
X2597500Y847500D02*
X2597500Y-27500D01*
X1098000D02*
Y847500D01*
Y-27500D02*
X2597500D01*
X1098000Y847500D02*
X1123000D01*
X2597500D01*
X1186795Y417653D02*
X1181716Y415114D01*
X1176638Y410036D01*
Y404957D01*
X1179177Y402418D01*
X1184255D01*
X1186795Y404957D01*
Y407496D01*
X1184255Y410036D01*
X1176638D01*
X1191873Y402418D02*
Y404957D01*
X1194412D01*
Y402418D01*
X1191873D01*
X1229961Y415114D02*
X1227421Y417653D01*
X1222343D01*
X1219804Y415114D01*
Y412575D01*
X1222343Y410036D01*
X1227421D01*
X1229961Y407496D01*
Y404957D01*
X1227421Y402418D01*
X1222343D01*
X1219804Y404957D01*
X1235039Y417653D02*
X1245196D01*
X1240117D01*
Y402418D01*
X1250274D02*
Y412575D01*
X1255352Y417653D01*
X1260431Y412575D01*
Y402418D01*
Y410036D01*
X1250274D01*
X1275666Y415114D02*
X1273127Y417653D01*
X1268048D01*
X1265509Y415114D01*
Y404957D01*
X1268048Y402418D01*
X1273127D01*
X1275666Y404957D01*
X1280744Y417653D02*
Y402418D01*
Y407496D01*
X1290901Y417653D01*
X1283283Y410036D01*
X1290901Y402418D01*
X1295979Y417653D02*
Y404957D01*
X1298518Y402418D01*
X1303597D01*
X1306136Y404957D01*
Y417653D01*
X1311214Y402418D02*
Y417653D01*
X1318832D01*
X1321371Y415114D01*
Y410036D01*
X1318832Y407496D01*
X1311214D01*
X1341685Y417653D02*
Y402418D01*
X1349302D01*
X1351841Y404957D01*
Y415114D01*
X1349302Y417653D01*
X1341685D01*
X1367076D02*
X1356920D01*
Y402418D01*
X1367076D01*
X1356920Y410036D02*
X1361998D01*
X1372155Y417653D02*
X1382311D01*
X1377233D01*
Y402418D01*
X1387390D02*
Y412575D01*
X1392468Y417653D01*
X1397546Y412575D01*
Y402418D01*
Y410036D01*
X1387390D01*
X1402625Y417653D02*
X1407703D01*
X1405164D01*
Y402418D01*
X1402625D01*
X1407703D01*
X1415321Y417653D02*
Y402418D01*
X1425477D01*
X1445791Y417653D02*
X1450869D01*
X1448330D01*
Y402418D01*
X1445791D01*
X1450869D01*
X1468643Y415114D02*
X1466104Y417653D01*
X1461026D01*
X1458487Y415114D01*
Y412575D01*
X1461026Y410036D01*
X1466104D01*
X1468643Y407496D01*
Y404957D01*
X1466104Y402418D01*
X1461026D01*
X1458487Y404957D01*
X1488957Y402418D02*
Y417653D01*
X1496574D01*
X1499113Y415114D01*
Y410036D01*
X1496574Y407496D01*
X1488957D01*
X1504192Y402418D02*
Y417653D01*
X1511809D01*
X1514349Y415114D01*
Y410036D01*
X1511809Y407496D01*
X1504192D01*
X1509270D02*
X1514349Y402418D01*
X1527045Y417653D02*
X1521966D01*
X1519427Y415114D01*
Y404957D01*
X1521966Y402418D01*
X1527045D01*
X1529584Y404957D01*
Y415114D01*
X1527045Y417653D01*
X1534662D02*
Y407496D01*
X1539740Y402418D01*
X1544819Y407496D01*
Y417653D01*
X1549897D02*
X1554975D01*
X1552436D01*
Y402418D01*
X1549897D01*
X1554975D01*
X1562593Y417653D02*
Y402418D01*
X1570211D01*
X1572750Y404957D01*
Y415114D01*
X1570211Y417653D01*
X1562593D01*
X1587985D02*
X1577828D01*
Y402418D01*
X1587985D01*
X1577828Y410036D02*
X1582906D01*
X1593063Y417653D02*
Y402418D01*
X1600681D01*
X1603220Y404957D01*
Y415114D01*
X1600681Y417653D01*
X1593063D01*
X1623533Y402418D02*
Y412575D01*
X1628612Y417653D01*
X1633690Y412575D01*
Y402418D01*
Y410036D01*
X1623533D01*
X1648925Y415114D02*
X1646386Y417653D01*
X1641308D01*
X1638768Y415114D01*
Y412575D01*
X1641308Y410036D01*
X1646386D01*
X1648925Y407496D01*
Y404957D01*
X1646386Y402418D01*
X1641308D01*
X1638768Y404957D01*
X1669238Y402418D02*
Y412575D01*
X1674317Y417653D01*
X1679395Y412575D01*
Y402418D01*
Y410036D01*
X1669238D01*
X1699709Y402418D02*
Y417653D01*
X1707326D01*
X1709865Y415114D01*
Y410036D01*
X1707326Y407496D01*
X1699709D01*
X1704787D02*
X1709865Y402418D01*
X1725100Y417653D02*
X1714944D01*
Y402418D01*
X1725100D01*
X1714944Y410036D02*
X1720022D01*
X1740336Y417653D02*
X1730179D01*
Y410036D01*
X1735257D01*
X1730179D01*
Y402418D01*
X1755571Y417653D02*
X1745414D01*
Y402418D01*
X1755571D01*
X1745414Y410036D02*
X1750492D01*
X1760649Y402418D02*
Y417653D01*
X1768266D01*
X1770806Y415114D01*
Y410036D01*
X1768266Y407496D01*
X1760649D01*
X1765727D02*
X1770806Y402418D01*
X1786041Y417653D02*
X1775884D01*
Y402418D01*
X1786041D01*
X1775884Y410036D02*
X1780962D01*
X1791119Y402418D02*
Y417653D01*
X1801276Y402418D01*
Y417653D01*
X1816511Y415114D02*
X1813972Y417653D01*
X1808893D01*
X1806354Y415114D01*
Y404957D01*
X1808893Y402418D01*
X1813972D01*
X1816511Y404957D01*
X1831746Y417653D02*
X1821589D01*
Y402418D01*
X1831746D01*
X1821589Y410036D02*
X1826668D01*
X1859677Y417653D02*
X1854599D01*
X1852059Y415114D01*
Y404957D01*
X1854599Y402418D01*
X1859677D01*
X1862216Y404957D01*
Y415114D01*
X1859677Y417653D01*
X1867294Y402418D02*
Y417653D01*
X1877451Y402418D01*
Y417653D01*
X1882529D02*
Y402418D01*
X1892686D01*
X1897765Y417653D02*
Y415114D01*
X1902843Y410036D01*
X1907921Y415114D01*
Y417653D01*
X1902843Y410036D02*
Y402418D01*
X1913000D02*
Y404957D01*
X1915539D01*
Y402418D01*
X1913000D01*
X1940931Y417653D02*
Y404957D01*
X1943470Y402418D01*
X1948548D01*
X1951087Y404957D01*
Y417653D01*
X1966322Y415114D02*
X1963783Y417653D01*
X1958705D01*
X1956166Y415114D01*
Y412575D01*
X1958705Y410036D01*
X1963783D01*
X1966322Y407496D01*
Y404957D01*
X1963783Y402418D01*
X1958705D01*
X1956166Y404957D01*
X1981557Y417653D02*
X1971401D01*
Y402418D01*
X1981557D01*
X1971401Y410036D02*
X1976479D01*
X2012028Y415114D02*
X2009488Y417653D01*
X2004410D01*
X2001871Y415114D01*
Y412575D01*
X2004410Y410036D01*
X2009488D01*
X2012028Y407496D01*
Y404957D01*
X2009488Y402418D01*
X2004410D01*
X2001871Y404957D01*
X2017106Y417653D02*
X2022184D01*
X2019645D01*
Y402418D01*
X2017106D01*
X2022184D01*
X2029802D02*
Y417653D01*
X2034880Y412575D01*
X2039959Y417653D01*
Y402418D01*
X2045037Y417653D02*
X2050115D01*
X2047576D01*
Y402418D01*
X2045037D01*
X2050115D01*
X2057733Y417653D02*
Y402418D01*
X2067890D01*
X2072968D02*
Y412575D01*
X2078046Y417653D01*
X2083125Y412575D01*
Y402418D01*
Y410036D01*
X2072968D01*
X2088203Y402418D02*
Y417653D01*
X2095820D01*
X2098360Y415114D01*
Y410036D01*
X2095820Y407496D01*
X2088203D01*
X2093281D02*
X2098360Y402418D01*
X2118673Y417653D02*
Y402418D01*
X2126291D01*
X2128830Y404957D01*
Y407496D01*
X2126291Y410036D01*
X2118673D01*
X2126291D01*
X2128830Y412575D01*
Y415114D01*
X2126291Y417653D01*
X2118673D01*
X2133908D02*
Y404957D01*
X2136447Y402418D01*
X2141526D01*
X2144065Y404957D01*
Y417653D01*
X2149143D02*
X2159300D01*
X2154222D01*
Y402418D01*
X2179613D02*
Y417653D01*
X2189770Y402418D01*
Y417653D01*
X2202466D02*
X2197388D01*
X2194848Y415114D01*
Y404957D01*
X2197388Y402418D01*
X2202466D01*
X2205005Y404957D01*
Y415114D01*
X2202466Y417653D01*
X2210083D02*
X2220240D01*
X2215162D01*
Y402418D01*
X2240554D02*
Y417653D01*
X2245632Y412575D01*
X2250710Y417653D01*
Y402418D01*
X2255789D02*
Y412575D01*
X2260867Y417653D01*
X2265945Y412575D01*
Y402418D01*
Y410036D01*
X2255789D01*
X2271024Y402418D02*
Y417653D01*
X2281181Y402418D01*
Y417653D01*
X2286259D02*
Y402418D01*
X2293876D01*
X2296416Y404957D01*
Y415114D01*
X2293876Y417653D01*
X2286259D01*
X2301494Y402418D02*
Y412575D01*
X2306572Y417653D01*
X2311651Y412575D01*
Y402418D01*
Y410036D01*
X2301494D01*
X2316729Y417653D02*
X2326886D01*
X2321807D01*
Y402418D01*
X2339582Y417653D02*
X2334503D01*
X2331964Y415114D01*
Y404957D01*
X2334503Y402418D01*
X2339582D01*
X2342121Y404957D01*
Y415114D01*
X2339582Y417653D01*
X2347199Y402418D02*
Y417653D01*
X2354817D01*
X2357356Y415114D01*
Y410036D01*
X2354817Y407496D01*
X2347199D01*
X2352278D02*
X2357356Y402418D01*
X2362434Y417653D02*
Y415114D01*
X2367513Y410036D01*
X2372591Y415114D01*
Y417653D01*
X2367513Y410036D02*
Y402418D01*
X2392904Y417653D02*
X2403061D01*
X2397983D01*
Y402418D01*
X2415757Y417653D02*
X2410679D01*
X2408139Y415114D01*
Y404957D01*
X2410679Y402418D01*
X2415757D01*
X2418296Y404957D01*
Y415114D01*
X2415757Y417653D01*
X2438610D02*
Y402418D01*
X2446227D01*
X2448766Y404957D01*
Y407496D01*
X2446227Y410036D01*
X2438610D01*
X2446227D01*
X2448766Y412575D01*
Y415114D01*
X2446227Y417653D01*
X2438610D01*
X2464001D02*
X2453845D01*
Y402418D01*
X2464001D01*
X2453845Y410036D02*
X2458923D01*
X2494472Y417653D02*
X2484315D01*
Y402418D01*
X2494472D01*
X2484315Y410036D02*
X2489393D01*
X2499550Y417653D02*
X2509707Y402418D01*
Y417653D02*
X2499550Y402418D01*
X2514785D02*
Y412575D01*
X2519863Y417653D01*
X2524942Y412575D01*
Y402418D01*
Y410036D01*
X2514785D01*
X2540177Y415114D02*
X2537638Y417653D01*
X2532559D01*
X2530020Y415114D01*
Y404957D01*
X2532559Y402418D01*
X2537638D01*
X2540177Y404957D01*
X2545255Y417653D02*
X2555412D01*
X2550334D01*
Y402418D01*
X1182657Y469735D02*
X1172500D01*
Y462118D01*
X1177578Y464657D01*
X1180117D01*
X1182657Y462118D01*
Y457039D01*
X1180117Y454500D01*
X1175039D01*
X1172500Y457039D01*
X1187735Y454500D02*
Y457039D01*
X1190274D01*
Y454500D01*
X1187735D01*
X1225823Y467196D02*
X1223283Y469735D01*
X1218205D01*
X1215666Y467196D01*
Y457039D01*
X1218205Y454500D01*
X1223283D01*
X1225823Y457039D01*
X1238519Y469735D02*
X1233440D01*
X1230901Y467196D01*
Y457039D01*
X1233440Y454500D01*
X1238519D01*
X1241058Y457039D01*
Y467196D01*
X1238519Y469735D01*
X1246136Y454500D02*
Y469735D01*
X1251215Y464657D01*
X1256293Y469735D01*
Y454500D01*
X1261371D02*
Y469735D01*
X1268989D01*
X1271528Y467196D01*
Y462118D01*
X1268989Y459578D01*
X1261371D01*
X1284224Y469735D02*
X1279146D01*
X1276606Y467196D01*
Y457039D01*
X1279146Y454500D01*
X1284224D01*
X1286763Y457039D01*
Y467196D01*
X1284224Y469735D01*
X1291841Y454500D02*
Y469735D01*
X1301998Y454500D01*
Y469735D01*
X1317233D02*
X1307076D01*
Y454500D01*
X1317233D01*
X1307076Y462118D02*
X1312155D01*
X1322312Y454500D02*
Y469735D01*
X1332468Y454500D01*
Y469735D01*
X1337547D02*
X1347703D01*
X1342625D01*
Y454500D01*
X1368017Y469735D02*
X1373095D01*
X1370556D01*
Y454500D01*
X1368017D01*
X1373095D01*
X1380713Y469735D02*
Y454500D01*
X1388330D01*
X1390869Y457039D01*
Y467196D01*
X1388330Y469735D01*
X1380713D01*
X1406104D02*
X1395948D01*
Y454500D01*
X1406104D01*
X1395948Y462118D02*
X1401026D01*
X1411183Y454500D02*
Y469735D01*
X1421340Y454500D01*
Y469735D01*
X1426418D02*
X1436575D01*
X1431496D01*
Y454500D01*
X1441653Y464657D02*
X1444192D01*
Y462118D01*
X1441653D01*
Y464657D01*
Y457039D02*
X1444192D01*
Y454500D01*
X1441653D01*
Y457039D01*
X1479741Y467196D02*
X1477201Y469735D01*
X1472123D01*
X1469584Y467196D01*
Y457039D01*
X1472123Y454500D01*
X1477201D01*
X1479741Y457039D01*
X1492437Y469735D02*
X1487358D01*
X1484819Y467196D01*
Y457039D01*
X1487358Y454500D01*
X1492437D01*
X1494976Y457039D01*
Y467196D01*
X1492437Y469735D01*
X1500054D02*
Y454500D01*
X1510211D01*
X1522907Y469735D02*
X1517828D01*
X1515289Y467196D01*
Y457039D01*
X1517828Y454500D01*
X1522907D01*
X1525446Y457039D01*
Y467196D01*
X1522907Y469735D01*
X1530524D02*
Y457039D01*
X1533063Y454500D01*
X1538142D01*
X1540681Y457039D01*
Y469735D01*
X1545759Y454500D02*
Y469735D01*
X1553377D01*
X1555916Y467196D01*
Y462118D01*
X1553377Y459578D01*
X1545759D01*
X1550838D02*
X1555916Y454500D01*
X1576229Y469735D02*
X1586386D01*
X1581308D01*
Y454500D01*
X1599082Y469735D02*
X1594004D01*
X1591464Y467196D01*
Y457039D01*
X1594004Y454500D01*
X1599082D01*
X1601621Y457039D01*
Y467196D01*
X1599082Y469735D01*
X1621935D02*
Y454500D01*
X1629552D01*
X1632091Y457039D01*
Y459578D01*
X1629552Y462118D01*
X1621935D01*
X1629552D01*
X1632091Y464657D01*
Y467196D01*
X1629552Y469735D01*
X1621935D01*
X1647326D02*
X1637170D01*
Y454500D01*
X1647326D01*
X1637170Y462118D02*
X1642248D01*
X1667640Y469735D02*
Y454500D01*
X1672718Y459578D01*
X1677796Y454500D01*
Y469735D01*
X1682875D02*
Y454500D01*
Y462118D01*
X1693032D01*
Y469735D01*
Y454500D01*
X1698110Y469735D02*
X1703188D01*
X1700649D01*
Y454500D01*
X1698110D01*
X1703188D01*
X1710806Y469735D02*
X1720963D01*
X1715884D01*
Y454500D01*
X1736198Y469735D02*
X1726041D01*
Y454500D01*
X1736198D01*
X1726041Y462118D02*
X1731119D01*
X1173000Y812735D02*
Y797500D01*
X1180618D01*
X1183157Y800039D01*
Y802578D01*
X1180618Y805118D01*
X1173000D01*
X1180618D01*
X1183157Y807657D01*
Y810196D01*
X1180618Y812735D01*
X1173000D01*
X1190774Y797500D02*
X1195853D01*
X1198392Y800039D01*
Y805118D01*
X1195853Y807657D01*
X1190774D01*
X1188235Y805118D01*
Y800039D01*
X1190774Y797500D01*
X1206009Y807657D02*
X1211088D01*
X1213627Y805118D01*
Y797500D01*
X1206009D01*
X1203470Y800039D01*
X1206009Y802578D01*
X1213627D01*
X1218705Y807657D02*
Y797500D01*
Y802578D01*
X1221244Y805118D01*
X1223783Y807657D01*
X1226323D01*
X1244097Y812735D02*
Y797500D01*
X1236479D01*
X1233940Y800039D01*
Y805118D01*
X1236479Y807657D01*
X1244097D01*
X1264410Y797500D02*
X1269489D01*
X1266950D01*
Y807657D01*
X1264410D01*
X1277106Y797500D02*
Y807657D01*
X1284724D01*
X1287263Y805118D01*
Y797500D01*
X1294881D02*
Y810196D01*
Y805118D01*
X1292341D01*
X1297420D01*
X1294881D01*
Y810196D01*
X1297420Y812735D01*
X1307576Y797500D02*
X1312655D01*
X1315194Y800039D01*
Y805118D01*
X1312655Y807657D01*
X1307576D01*
X1305037Y805118D01*
Y800039D01*
X1307576Y797500D01*
X1180117Y504500D02*
Y519735D01*
X1172500Y512118D01*
X1182657D01*
X1187735Y504500D02*
Y507039D01*
X1190274D01*
Y504500D01*
X1187735D01*
X1223283Y519735D02*
X1218205D01*
X1215666Y517196D01*
Y507039D01*
X1218205Y504500D01*
X1223283D01*
X1225823Y507039D01*
Y517196D01*
X1223283Y519735D01*
X1230901D02*
Y504500D01*
X1241058D01*
X1246136Y519735D02*
Y504500D01*
X1253754D01*
X1256293Y507039D01*
Y517196D01*
X1253754Y519735D01*
X1246136D01*
X1271528D02*
X1261371D01*
Y504500D01*
X1271528D01*
X1261371Y512118D02*
X1266450D01*
X1276606Y504500D02*
Y519735D01*
X1284224D01*
X1286763Y517196D01*
Y512118D01*
X1284224Y509578D01*
X1276606D01*
X1281685D02*
X1286763Y504500D01*
X1307076D02*
Y519735D01*
X1314694D01*
X1317233Y517196D01*
Y512118D01*
X1314694Y509578D01*
X1307076D01*
X1312155D02*
X1317233Y504500D01*
X1332468Y519735D02*
X1322312D01*
Y504500D01*
X1332468D01*
X1322312Y512118D02*
X1327390D01*
X1347703Y517196D02*
X1345164Y519735D01*
X1340086D01*
X1337547Y517196D01*
Y514657D01*
X1340086Y512118D01*
X1345164D01*
X1347703Y509578D01*
Y507039D01*
X1345164Y504500D01*
X1340086D01*
X1337547Y507039D01*
X1352782Y519735D02*
X1357860D01*
X1355321D01*
Y504500D01*
X1352782D01*
X1357860D01*
X1375634Y517196D02*
X1373095Y519735D01*
X1368017D01*
X1365477Y517196D01*
Y514657D01*
X1368017Y512118D01*
X1373095D01*
X1375634Y509578D01*
Y507039D01*
X1373095Y504500D01*
X1368017D01*
X1365477Y507039D01*
X1380713Y519735D02*
X1390869D01*
X1385791D01*
Y504500D01*
X1395948Y514657D02*
X1398487D01*
Y512118D01*
X1395948D01*
Y514657D01*
Y507039D02*
X1398487D01*
Y504500D01*
X1395948D01*
Y507039D01*
X1423879Y504500D02*
Y514657D01*
X1428957Y519735D01*
X1434035Y514657D01*
Y504500D01*
Y512118D01*
X1423879D01*
X1439114Y504500D02*
Y519735D01*
X1446731D01*
X1449270Y517196D01*
Y512118D01*
X1446731Y509578D01*
X1439114D01*
X1454349Y504500D02*
Y519735D01*
X1461966D01*
X1464505Y517196D01*
Y512118D01*
X1461966Y509578D01*
X1454349D01*
X1469584Y519735D02*
Y504500D01*
X1479741D01*
X1484819Y519735D02*
Y517196D01*
X1489897Y512118D01*
X1494976Y517196D01*
Y519735D01*
X1489897Y512118D02*
Y504500D01*
X1515289Y519735D02*
X1525446D01*
X1520367D01*
Y504500D01*
X1538142Y519735D02*
X1533063D01*
X1530524Y517196D01*
Y507039D01*
X1533063Y504500D01*
X1538142D01*
X1540681Y507039D01*
Y517196D01*
X1538142Y519735D01*
X1560994D02*
Y504500D01*
X1568612D01*
X1571151Y507039D01*
Y509578D01*
X1568612Y512118D01*
X1560994D01*
X1568612D01*
X1571151Y514657D01*
Y517196D01*
X1568612Y519735D01*
X1560994D01*
X1583847D02*
X1578768D01*
X1576229Y517196D01*
Y507039D01*
X1578768Y504500D01*
X1583847D01*
X1586386Y507039D01*
Y517196D01*
X1583847Y519735D01*
X1591464D02*
X1601621D01*
X1596543D01*
Y504500D01*
X1606700Y519735D02*
Y504500D01*
Y512118D01*
X1616856D01*
Y519735D01*
Y504500D01*
X1647326Y517196D02*
X1644787Y519735D01*
X1639709D01*
X1637170Y517196D01*
Y514657D01*
X1639709Y512118D01*
X1644787D01*
X1647326Y509578D01*
Y507039D01*
X1644787Y504500D01*
X1639709D01*
X1637170Y507039D01*
X1652405Y519735D02*
X1657483D01*
X1654944D01*
Y504500D01*
X1652405D01*
X1657483D01*
X1665101Y519735D02*
Y504500D01*
X1672718D01*
X1675257Y507039D01*
Y517196D01*
X1672718Y519735D01*
X1665101D01*
X1690492D02*
X1680336D01*
Y504500D01*
X1690492D01*
X1680336Y512118D02*
X1685414D01*
X1705728Y517196D02*
X1703188Y519735D01*
X1698110D01*
X1695571Y517196D01*
Y514657D01*
X1698110Y512118D01*
X1703188D01*
X1705728Y509578D01*
Y507039D01*
X1703188Y504500D01*
X1698110D01*
X1695571Y507039D01*
X1736198Y517196D02*
X1733658Y519735D01*
X1728580D01*
X1726041Y517196D01*
Y507039D01*
X1728580Y504500D01*
X1733658D01*
X1736198Y507039D01*
X1748893Y519735D02*
X1743815D01*
X1741276Y517196D01*
Y507039D01*
X1743815Y504500D01*
X1748893D01*
X1751433Y507039D01*
Y517196D01*
X1748893Y519735D01*
X1756511D02*
Y504500D01*
X1766668D01*
X1779364Y519735D02*
X1774285D01*
X1771746Y517196D01*
Y507039D01*
X1774285Y504500D01*
X1779364D01*
X1781903Y507039D01*
Y517196D01*
X1779364Y519735D01*
X1786981D02*
Y507039D01*
X1789520Y504500D01*
X1794599D01*
X1797138Y507039D01*
Y519735D01*
X1802216Y504500D02*
Y519735D01*
X1809834D01*
X1812373Y517196D01*
Y512118D01*
X1809834Y509578D01*
X1802216D01*
X1807295D02*
X1812373Y504500D01*
X1832686Y512118D02*
X1842843D01*
X1863156Y504500D02*
Y519735D01*
X1870774D01*
X1873313Y517196D01*
Y512118D01*
X1870774Y509578D01*
X1863156D01*
X1868235D02*
X1873313Y504500D01*
X1886009D02*
X1880931D01*
X1878392Y507039D01*
Y512118D01*
X1880931Y514657D01*
X1886009D01*
X1888548Y512118D01*
Y509578D01*
X1878392D01*
X1903783Y519735D02*
Y504500D01*
X1896166D01*
X1893627Y507039D01*
Y512118D01*
X1896166Y514657D01*
X1903783D01*
X1172500Y567196D02*
X1175039Y569735D01*
X1180117D01*
X1182657Y567196D01*
Y564657D01*
X1180117Y562118D01*
X1177578D01*
X1180117D01*
X1182657Y559578D01*
Y557039D01*
X1180117Y554500D01*
X1175039D01*
X1172500Y557039D01*
X1187735Y554500D02*
Y557039D01*
X1190274D01*
Y554500D01*
X1187735D01*
X1223283Y569735D02*
X1218205D01*
X1215666Y567196D01*
Y557039D01*
X1218205Y554500D01*
X1223283D01*
X1225823Y557039D01*
Y567196D01*
X1223283Y569735D01*
X1230901Y554500D02*
Y564657D01*
X1235979Y569735D01*
X1241058Y564657D01*
Y554500D01*
Y562118D01*
X1230901D01*
X1246136Y554500D02*
Y569735D01*
X1253754D01*
X1256293Y567196D01*
Y562118D01*
X1253754Y559578D01*
X1246136D01*
X1251215D02*
X1256293Y554500D01*
X1261371Y569735D02*
Y554500D01*
X1268989D01*
X1271528Y557039D01*
Y567196D01*
X1268989Y569735D01*
X1261371D01*
X1301998D02*
X1291841D01*
Y562118D01*
X1296920D01*
X1291841D01*
Y554500D01*
X1307076Y569735D02*
X1312155D01*
X1309616D01*
Y554500D01*
X1307076D01*
X1312155D01*
X1319772D02*
Y569735D01*
X1329929Y554500D01*
Y569735D01*
X1335007D02*
X1340086D01*
X1337547D01*
Y554500D01*
X1335007D01*
X1340086D01*
X1357860Y567196D02*
X1355321Y569735D01*
X1350242D01*
X1347703Y567196D01*
Y564657D01*
X1350242Y562118D01*
X1355321D01*
X1357860Y559578D01*
Y557039D01*
X1355321Y554500D01*
X1350242D01*
X1347703Y557039D01*
X1362938Y569735D02*
Y554500D01*
Y562118D01*
X1373095D01*
Y569735D01*
Y554500D01*
X1378173Y564657D02*
X1380713D01*
Y562118D01*
X1378173D01*
Y564657D01*
Y557039D02*
X1380713D01*
Y554500D01*
X1378173D01*
Y557039D01*
X1406104Y569735D02*
X1411183D01*
X1408644D01*
Y554500D01*
X1406104D01*
X1411183D01*
X1418800D02*
Y569735D01*
X1423879Y564657D01*
X1428957Y569735D01*
Y554500D01*
X1434035D02*
Y569735D01*
X1439114Y564657D01*
X1444192Y569735D01*
Y554500D01*
X1459427Y569735D02*
X1449270D01*
Y554500D01*
X1459427D01*
X1449270Y562118D02*
X1454349D01*
X1464505Y554500D02*
Y569735D01*
X1472123D01*
X1474662Y567196D01*
Y562118D01*
X1472123Y559578D01*
X1464505D01*
X1469584D02*
X1474662Y554500D01*
X1489897Y567196D02*
X1487358Y569735D01*
X1482280D01*
X1479741Y567196D01*
Y564657D01*
X1482280Y562118D01*
X1487358D01*
X1489897Y559578D01*
Y557039D01*
X1487358Y554500D01*
X1482280D01*
X1479741Y557039D01*
X1494976Y569735D02*
X1500054D01*
X1497515D01*
Y554500D01*
X1494976D01*
X1500054D01*
X1515289Y569735D02*
X1510211D01*
X1507672Y567196D01*
Y557039D01*
X1510211Y554500D01*
X1515289D01*
X1517828Y557039D01*
Y567196D01*
X1515289Y569735D01*
X1522907Y554500D02*
Y569735D01*
X1533063Y554500D01*
Y569735D01*
X1553377Y554500D02*
Y564657D01*
X1558455Y569735D01*
X1563533Y564657D01*
Y554500D01*
Y562118D01*
X1553377D01*
X1568612Y564657D02*
Y557039D01*
X1571151Y554500D01*
X1578768D01*
Y564657D01*
X1583847Y554500D02*
X1594004Y564657D01*
X1609239Y569735D02*
X1599082D01*
Y554500D01*
X1609239D01*
X1599082Y562118D02*
X1604160D01*
X1614317Y569735D02*
Y554500D01*
X1624474D01*
X1639709Y569735D02*
X1629552D01*
Y554500D01*
X1639709D01*
X1629552Y562118D02*
X1634630D01*
X1654944Y567196D02*
X1652405Y569735D01*
X1647326D01*
X1644787Y567196D01*
Y557039D01*
X1647326Y554500D01*
X1652405D01*
X1654944Y557039D01*
X1660022Y569735D02*
X1670179D01*
X1665101D01*
Y554500D01*
X1675257D02*
Y569735D01*
X1682875D01*
X1685414Y567196D01*
Y562118D01*
X1682875Y559578D01*
X1675257D01*
X1680336D02*
X1685414Y554500D01*
X1698110Y569735D02*
X1693032D01*
X1690492Y567196D01*
Y557039D01*
X1693032Y554500D01*
X1698110D01*
X1700649Y557039D01*
Y567196D01*
X1698110Y569735D01*
X1705727D02*
Y554500D01*
X1715884D01*
X1731119Y569735D02*
X1720963D01*
Y554500D01*
X1731119D01*
X1720963Y562118D02*
X1726041D01*
X1746354Y567196D02*
X1743815Y569735D01*
X1738737D01*
X1736198Y567196D01*
Y564657D01*
X1738737Y562118D01*
X1743815D01*
X1746354Y559578D01*
Y557039D01*
X1743815Y554500D01*
X1738737D01*
X1736198Y557039D01*
X1761589Y567196D02*
X1759050Y569735D01*
X1753972D01*
X1751433Y567196D01*
Y564657D01*
X1753972Y562118D01*
X1759050D01*
X1761589Y559578D01*
Y557039D01*
X1759050Y554500D01*
X1753972D01*
X1751433Y557039D01*
X1781903Y554500D02*
Y569735D01*
X1792059Y554500D01*
Y569735D01*
X1797138Y554500D02*
X1802216D01*
X1799677D01*
Y564657D01*
X1797138D01*
X1809834Y562118D02*
Y564657D01*
X1812373D01*
Y562118D01*
X1809834D01*
Y557039D02*
X1812373D01*
Y554500D01*
X1809834Y551961D01*
X1812373Y554500D02*
X1809834D01*
Y557039D01*
X1837765Y567196D02*
X1840304Y569735D01*
X1845382D01*
X1847921Y567196D01*
Y557039D01*
X1845382Y554500D01*
X1840304D01*
X1837765Y557039D01*
Y567196D01*
X1853000Y554500D02*
Y557039D01*
X1855539D01*
Y554500D01*
X1853000D01*
X1865696Y567196D02*
X1868235Y569735D01*
X1873313D01*
X1875852Y567196D01*
Y557039D01*
X1873313Y554500D01*
X1868235D01*
X1865696Y557039D01*
Y567196D01*
X1891087Y569735D02*
X1880931D01*
Y562118D01*
X1886009Y564657D01*
X1888548D01*
X1891087Y562118D01*
Y557039D01*
X1888548Y554500D01*
X1883470D01*
X1880931Y557039D01*
X1896166Y562118D02*
X1906323D01*
X1911401Y567196D02*
X1913940Y569735D01*
X1919018D01*
X1921558Y567196D01*
Y557039D01*
X1919018Y554500D01*
X1913940D01*
X1911401Y557039D01*
Y567196D01*
X1926636Y554500D02*
Y557039D01*
X1929175D01*
Y554500D01*
X1926636D01*
X1939332D02*
X1944410D01*
X1941871D01*
Y569735D01*
X1939332Y567196D01*
X1962184Y554500D02*
X1952028D01*
X1962184Y564657D01*
Y567196D01*
X1959645Y569735D01*
X1954567D01*
X1952028Y567196D01*
X1982498Y564657D02*
Y557039D01*
X1985037Y554500D01*
X1992655D01*
Y564657D01*
X1997733Y554500D02*
Y564657D01*
X2000272D01*
X2002811Y562118D01*
Y554500D01*
Y562118D01*
X2005350Y564657D01*
X2007890Y562118D01*
Y554500D01*
X2038360Y567196D02*
X2035821Y569735D01*
X2030742D01*
X2028203Y567196D01*
Y557039D01*
X2030742Y554500D01*
X2035821D01*
X2038360Y557039D01*
Y562118D01*
X2033282D01*
X2051056Y569735D02*
X2045977D01*
X2043438Y567196D01*
Y557039D01*
X2045977Y554500D01*
X2051056D01*
X2053595Y557039D01*
Y567196D01*
X2051056Y569735D01*
X2058673D02*
Y554500D01*
X2068830D01*
X2073908Y569735D02*
Y554500D01*
X2081526D01*
X2084065Y557039D01*
Y567196D01*
X2081526Y569735D01*
X2073908D01*
X2089143Y562118D02*
Y564657D01*
X2091683D01*
Y562118D01*
X2089143D01*
Y557039D02*
X2091683D01*
Y554500D01*
X2089143Y551961D01*
X2091683Y554500D02*
X2089143D01*
Y557039D01*
X2117074Y567196D02*
X2119613Y569735D01*
X2124692D01*
X2127231Y567196D01*
Y564657D01*
X2124692Y562118D01*
X2122153D01*
X2124692D01*
X2127231Y559578D01*
Y557039D01*
X2124692Y554500D01*
X2119613D01*
X2117074Y557039D01*
X2132309Y562118D02*
X2142466D01*
X2157701Y569735D02*
X2152623Y567196D01*
X2147545Y562118D01*
Y557039D01*
X2150084Y554500D01*
X2155162D01*
X2157701Y557039D01*
Y559578D01*
X2155162Y562118D01*
X2147545D01*
X2162780Y564657D02*
Y557039D01*
X2165319Y554500D01*
X2172936D01*
Y564657D01*
X2178015Y554500D02*
Y564657D01*
X2180554D01*
X2183093Y562118D01*
Y554500D01*
Y562118D01*
X2185632Y564657D01*
X2188171Y562118D01*
Y554500D01*
X2208485D02*
Y569735D01*
X2218642Y554500D01*
Y569735D01*
X2223720D02*
X2228798D01*
X2226259D01*
Y554500D01*
X2223720D01*
X2228798D01*
X2246573Y567196D02*
X2244033Y569735D01*
X2238955D01*
X2236416Y567196D01*
Y557039D01*
X2238955Y554500D01*
X2244033D01*
X2246573Y557039D01*
X2251651Y569735D02*
Y554500D01*
Y559578D01*
X2261808Y569735D01*
X2254190Y562118D01*
X2261808Y554500D01*
X2277043Y569735D02*
X2266886D01*
Y554500D01*
X2277043D01*
X2266886Y562118D02*
X2271964D01*
X2282121Y569735D02*
Y554500D01*
X2292278D01*
X1182657Y604500D02*
X1172500D01*
X1182657Y614657D01*
Y617196D01*
X1180117Y619735D01*
X1175039D01*
X1172500Y617196D01*
X1187735Y604500D02*
Y607039D01*
X1190274D01*
Y604500D01*
X1187735D01*
X1225823Y619735D02*
X1215666D01*
Y612118D01*
X1220744D01*
X1215666D01*
Y604500D01*
X1230901Y619735D02*
X1235979D01*
X1233440D01*
Y604500D01*
X1230901D01*
X1235979D01*
X1243597D02*
Y619735D01*
X1253754Y604500D01*
Y619735D01*
X1258832D02*
X1263910D01*
X1261371D01*
Y604500D01*
X1258832D01*
X1263910D01*
X1281685Y617196D02*
X1279145Y619735D01*
X1274067D01*
X1271528Y617196D01*
Y614657D01*
X1274067Y612118D01*
X1279145D01*
X1281685Y609578D01*
Y607039D01*
X1279145Y604500D01*
X1274067D01*
X1271528Y607039D01*
X1286763Y619735D02*
Y604500D01*
Y612118D01*
X1296920D01*
Y619735D01*
Y604500D01*
X1312155Y619735D02*
X1301998D01*
Y604500D01*
X1312155D01*
X1301998Y612118D02*
X1307076D01*
X1317233Y619735D02*
Y604500D01*
X1324851D01*
X1327390Y607039D01*
Y617196D01*
X1324851Y619735D01*
X1317233D01*
X1347703Y604500D02*
Y619735D01*
X1355321D01*
X1357860Y617196D01*
Y612118D01*
X1355321Y609578D01*
X1347703D01*
X1362938Y604500D02*
Y614657D01*
X1368017Y619735D01*
X1373095Y614657D01*
Y604500D01*
Y612118D01*
X1362938D01*
X1378173Y604500D02*
Y619735D01*
X1388330Y604500D01*
Y619735D01*
X1403565D02*
X1393409D01*
Y604500D01*
X1403565D01*
X1393409Y612118D02*
X1398487D01*
X1408644Y619735D02*
Y604500D01*
X1418800D01*
X1439114Y619735D02*
X1449270D01*
X1444192D01*
Y604500D01*
X1454349Y619735D02*
Y604500D01*
Y612118D01*
X1464505D01*
Y619735D01*
Y604500D01*
X1469584Y619735D02*
X1474662D01*
X1472123D01*
Y604500D01*
X1469584D01*
X1474662D01*
X1492437Y617196D02*
X1489897Y619735D01*
X1484819D01*
X1482280Y617196D01*
Y607039D01*
X1484819Y604500D01*
X1489897D01*
X1492437Y607039D01*
X1497515Y619735D02*
Y604500D01*
Y609578D01*
X1507672Y619735D01*
X1500054Y612118D01*
X1507672Y604500D01*
X1512750D02*
Y619735D01*
X1522907Y604500D01*
Y619735D01*
X1538142D02*
X1527985D01*
Y604500D01*
X1538142D01*
X1527985Y612118D02*
X1533063D01*
X1553377Y617196D02*
X1550838Y619735D01*
X1545759D01*
X1543220Y617196D01*
Y614657D01*
X1545759Y612118D01*
X1550838D01*
X1553377Y609578D01*
Y607039D01*
X1550838Y604500D01*
X1545759D01*
X1543220Y607039D01*
X1568612Y617196D02*
X1566073Y619735D01*
X1560994D01*
X1558455Y617196D01*
Y614657D01*
X1560994Y612118D01*
X1566073D01*
X1568612Y609578D01*
Y607039D01*
X1566073Y604500D01*
X1560994D01*
X1558455Y607039D01*
X1588925Y619735D02*
X1594004D01*
X1591464D01*
Y604500D01*
X1588925D01*
X1594004D01*
X1611778Y617196D02*
X1609239Y619735D01*
X1604160D01*
X1601621Y617196D01*
Y614657D01*
X1604160Y612118D01*
X1609239D01*
X1611778Y609578D01*
Y607039D01*
X1609239Y604500D01*
X1604160D01*
X1601621Y607039D01*
X1632091Y604500D02*
Y619735D01*
X1642248Y604500D01*
Y619735D01*
X1654944D02*
X1649866D01*
X1647326Y617196D01*
Y607039D01*
X1649866Y604500D01*
X1654944D01*
X1657483Y607039D01*
Y617196D01*
X1654944Y619735D01*
X1662561D02*
X1672718D01*
X1667640D01*
Y604500D01*
X1703188Y617196D02*
X1700649Y619735D01*
X1695571D01*
X1693032Y617196D01*
Y607039D01*
X1695571Y604500D01*
X1700649D01*
X1703188Y607039D01*
X1708267Y604500D02*
Y619735D01*
X1715884D01*
X1718423Y617196D01*
Y612118D01*
X1715884Y609578D01*
X1708267D01*
X1713345D02*
X1718423Y604500D01*
X1723502Y619735D02*
X1728580D01*
X1726041D01*
Y604500D01*
X1723502D01*
X1728580D01*
X1736198Y619735D02*
X1746354D01*
X1741276D01*
Y604500D01*
X1751433Y619735D02*
X1756511D01*
X1753972D01*
Y604500D01*
X1751433D01*
X1756511D01*
X1774285Y617196D02*
X1771746Y619735D01*
X1766668D01*
X1764129Y617196D01*
Y607039D01*
X1766668Y604500D01*
X1771746D01*
X1774285Y607039D01*
X1779364Y604500D02*
Y614657D01*
X1784442Y619735D01*
X1789520Y614657D01*
Y604500D01*
Y612118D01*
X1779364D01*
X1794599Y619735D02*
Y604500D01*
X1804755D01*
X1809834Y614657D02*
X1812373D01*
Y612118D01*
X1809834D01*
Y614657D01*
Y607039D02*
X1812373D01*
Y604500D01*
X1809834D01*
Y607039D01*
X1837765Y619735D02*
X1847921D01*
X1842843D01*
Y604500D01*
X1860617Y619735D02*
X1855539D01*
X1853000Y617196D01*
Y607039D01*
X1855539Y604500D01*
X1860617D01*
X1863156Y607039D01*
Y617196D01*
X1860617Y619735D01*
X1883470D02*
Y604500D01*
X1891087D01*
X1893627Y607039D01*
Y609578D01*
X1891087Y612118D01*
X1883470D01*
X1891087D01*
X1893627Y614657D01*
Y617196D01*
X1891087Y619735D01*
X1883470D01*
X1908862D02*
X1898705D01*
Y604500D01*
X1908862D01*
X1898705Y612118D02*
X1903783D01*
X1929175Y604500D02*
Y614657D01*
X1934254Y619735D01*
X1939332Y614657D01*
Y604500D01*
Y612118D01*
X1929175D01*
X1944410Y604500D02*
Y619735D01*
X1952028D01*
X1954567Y617196D01*
Y612118D01*
X1952028Y609578D01*
X1944410D01*
X1959645Y604500D02*
Y619735D01*
X1967263D01*
X1969802Y617196D01*
Y612118D01*
X1967263Y609578D01*
X1959645D01*
X1974880Y604500D02*
Y619735D01*
X1982498D01*
X1985037Y617196D01*
Y612118D01*
X1982498Y609578D01*
X1974880D01*
X1979959D02*
X1985037Y604500D01*
X1997733Y619735D02*
X1992655D01*
X1990116Y617196D01*
Y607039D01*
X1992655Y604500D01*
X1997733D01*
X2000272Y607039D01*
Y617196D01*
X1997733Y619735D01*
X2005350D02*
X2015507Y604500D01*
Y619735D02*
X2005350Y604500D01*
X2020586Y619735D02*
X2025664D01*
X2023125D01*
Y604500D01*
X2020586D01*
X2025664D01*
X2033282D02*
Y619735D01*
X2038360Y614657D01*
X2043438Y619735D01*
Y604500D01*
X2048517D02*
Y614657D01*
X2053595Y619735D01*
X2058673Y614657D01*
Y604500D01*
Y612118D01*
X2048517D01*
X2063752Y619735D02*
X2073908D01*
X2068830D01*
Y604500D01*
X2089143Y619735D02*
X2078987D01*
Y604500D01*
X2089143D01*
X2078987Y612118D02*
X2084065D01*
X2094222Y619735D02*
Y604500D01*
X2104379D01*
X2109457Y619735D02*
Y617196D01*
X2114535Y612118D01*
X2119614Y617196D01*
Y619735D01*
X2114535Y612118D02*
Y604500D01*
X2139927D02*
X2145005D01*
X2142466D01*
Y619735D01*
X2139927Y617196D01*
X2152623Y604500D02*
Y607039D01*
X2155162D01*
Y604500D01*
X2152623D01*
X2175475Y619735D02*
X2170397Y617196D01*
X2165319Y612118D01*
Y607039D01*
X2167858Y604500D01*
X2172936D01*
X2175475Y607039D01*
Y609578D01*
X2172936Y612118D01*
X2165319D01*
X2180554Y604500D02*
Y614657D01*
X2183093D01*
X2185632Y612118D01*
Y604500D01*
Y612118D01*
X2188171Y614657D01*
X2190711Y612118D01*
Y604500D01*
X2195789D02*
Y614657D01*
X2198328D01*
X2200867Y612118D01*
Y604500D01*
Y612118D01*
X2203406Y614657D01*
X2205946Y612118D01*
Y604500D01*
X1173000Y651500D02*
X1178078D01*
X1175539D01*
Y666735D01*
X1173000Y664196D01*
X1185696Y651500D02*
Y654039D01*
X1188235D01*
Y651500D01*
X1185696D01*
X1213627D02*
Y666735D01*
X1221244D01*
X1223783Y664196D01*
Y659118D01*
X1221244Y656578D01*
X1213627D01*
X1218705D02*
X1223783Y651500D01*
X1239019Y666735D02*
X1228862D01*
Y651500D01*
X1239019D01*
X1228862Y659118D02*
X1233940D01*
X1244097Y651500D02*
Y666735D01*
X1249175Y661657D01*
X1254254Y666735D01*
Y651500D01*
X1266950Y666735D02*
X1261871D01*
X1259332Y664196D01*
Y654039D01*
X1261871Y651500D01*
X1266950D01*
X1269489Y654039D01*
Y664196D01*
X1266950Y666735D01*
X1274567D02*
Y656578D01*
X1279645Y651500D01*
X1284724Y656578D01*
Y666735D01*
X1299959D02*
X1289802D01*
Y651500D01*
X1299959D01*
X1289802Y659118D02*
X1294881D01*
X1320272Y651500D02*
Y661657D01*
X1325351Y666735D01*
X1330429Y661657D01*
Y651500D01*
Y659118D01*
X1320272D01*
X1335507Y666735D02*
Y651500D01*
X1345664D01*
X1350742Y666735D02*
Y651500D01*
X1360899D01*
X1381213D02*
Y666735D01*
X1391369Y651500D01*
Y666735D01*
X1404065D02*
X1398987D01*
X1396448Y664196D01*
Y654039D01*
X1398987Y651500D01*
X1404065D01*
X1406604Y654039D01*
Y664196D01*
X1404065Y666735D01*
X1411683Y651500D02*
Y666735D01*
X1421839Y651500D01*
Y666735D01*
X1426918Y659118D02*
X1437074D01*
X1452310Y666735D02*
X1442153D01*
Y659118D01*
X1447231D01*
X1442153D01*
Y651500D01*
X1457388Y666735D02*
Y654039D01*
X1459927Y651500D01*
X1465005D01*
X1467545Y654039D01*
Y666735D01*
X1472623Y651500D02*
Y666735D01*
X1482780Y651500D01*
Y666735D01*
X1498015Y664196D02*
X1495476Y666735D01*
X1490397D01*
X1487858Y664196D01*
Y654039D01*
X1490397Y651500D01*
X1495476D01*
X1498015Y654039D01*
X1503093Y666735D02*
X1513250D01*
X1508172D01*
Y651500D01*
X1518328Y666735D02*
X1523407D01*
X1520867D01*
Y651500D01*
X1518328D01*
X1523407D01*
X1538642Y666735D02*
X1533563D01*
X1531024Y664196D01*
Y654039D01*
X1533563Y651500D01*
X1538642D01*
X1541181Y654039D01*
Y664196D01*
X1538642Y666735D01*
X1546259Y651500D02*
Y666735D01*
X1556416Y651500D01*
Y666735D01*
X1561494Y651500D02*
Y661657D01*
X1566573Y666735D01*
X1571651Y661657D01*
Y651500D01*
Y659118D01*
X1561494D01*
X1576729Y666735D02*
Y651500D01*
X1586886D01*
X1607200Y666735D02*
X1612278D01*
X1609739D01*
Y651500D01*
X1607200D01*
X1612278D01*
X1619895D02*
Y666735D01*
X1630052Y651500D01*
Y666735D01*
X1635130Y651500D02*
Y666735D01*
X1645287Y651500D01*
Y666735D01*
X1660522D02*
X1650365D01*
Y651500D01*
X1660522D01*
X1650365Y659118D02*
X1655444D01*
X1665601Y651500D02*
Y666735D01*
X1673218D01*
X1675757Y664196D01*
Y659118D01*
X1673218Y656578D01*
X1665601D01*
X1670679D02*
X1675757Y651500D01*
X1696071Y666735D02*
Y651500D01*
X1706228D01*
X1711306D02*
Y661657D01*
X1716384Y666735D01*
X1721463Y661657D01*
Y651500D01*
Y659118D01*
X1711306D01*
X1726541Y666735D02*
Y664196D01*
X1731619Y659118D01*
X1736698Y664196D01*
Y666735D01*
X1731619Y659118D02*
Y651500D01*
X1751933Y666735D02*
X1741776D01*
Y651500D01*
X1751933D01*
X1741776Y659118D02*
X1746854D01*
X1757011Y651500D02*
Y666735D01*
X1764629D01*
X1767168Y664196D01*
Y659118D01*
X1764629Y656578D01*
X1757011D01*
X1762089D02*
X1767168Y651500D01*
X1787481D02*
Y666735D01*
X1795099D01*
X1797638Y664196D01*
Y659118D01*
X1795099Y656578D01*
X1787481D01*
X1802716Y651500D02*
Y661657D01*
X1807795Y666735D01*
X1812873Y661657D01*
Y651500D01*
Y659118D01*
X1802716D01*
X1817951Y666735D02*
Y651500D01*
X1825569D01*
X1828108Y654039D01*
Y664196D01*
X1825569Y666735D01*
X1817951D01*
X1843343Y664196D02*
X1840804Y666735D01*
X1835726D01*
X1833186Y664196D01*
Y661657D01*
X1835726Y659118D01*
X1840804D01*
X1843343Y656578D01*
Y654039D01*
X1840804Y651500D01*
X1835726D01*
X1833186Y654039D01*
X1848421Y651500D02*
Y654039D01*
X1850961D01*
Y651500D01*
X1848421D01*
X1173000Y701500D02*
Y716735D01*
X1178078Y711657D01*
X1183157Y716735D01*
Y701500D01*
X1188235D02*
X1193313D01*
X1190774D01*
Y711657D01*
X1188235D01*
X1200931Y701500D02*
Y711657D01*
X1208549D01*
X1211088Y709118D01*
Y701500D01*
X1216166D02*
X1221244D01*
X1218705D01*
Y711657D01*
X1216166D01*
X1228862Y701500D02*
Y711657D01*
X1231401D01*
X1233940Y709118D01*
Y701500D01*
Y709118D01*
X1236479Y711657D01*
X1239019Y709118D01*
Y701500D01*
X1244097Y711657D02*
Y704039D01*
X1246636Y701500D01*
X1254254D01*
Y711657D01*
X1259332Y701500D02*
Y711657D01*
X1261871D01*
X1264410Y709118D01*
Y701500D01*
Y709118D01*
X1266950Y711657D01*
X1269489Y709118D01*
Y701500D01*
X1289802Y716735D02*
X1299959D01*
X1294881D01*
Y701500D01*
X1305037Y716735D02*
Y701500D01*
Y709118D01*
X1307576Y711657D01*
X1312655D01*
X1315194Y709118D01*
Y701500D01*
X1320272Y711657D02*
Y701500D01*
Y706578D01*
X1322811Y709118D01*
X1325351Y711657D01*
X1327890D01*
X1338047Y701500D02*
X1343125D01*
X1345664Y704039D01*
Y709118D01*
X1343125Y711657D01*
X1338047D01*
X1335507Y709118D01*
Y704039D01*
X1338047Y701500D01*
X1350742Y711657D02*
Y704039D01*
X1353282Y701500D01*
X1360899D01*
Y711657D01*
X1371056Y696422D02*
X1373595D01*
X1376134Y698961D01*
Y711657D01*
X1368517D01*
X1365977Y709118D01*
Y704039D01*
X1368517Y701500D01*
X1376134D01*
X1381213Y716735D02*
Y701500D01*
Y709118D01*
X1383752Y711657D01*
X1388830D01*
X1391369Y709118D01*
Y701500D01*
X1411683Y716735D02*
Y701500D01*
Y709118D01*
X1421839D01*
Y716735D01*
Y701500D01*
X1429457D02*
X1434535D01*
X1437074Y704039D01*
Y709118D01*
X1434535Y711657D01*
X1429457D01*
X1426918Y709118D01*
Y704039D01*
X1429457Y701500D01*
X1442153D02*
X1447231D01*
X1444692D01*
Y716735D01*
X1442153D01*
X1462466Y701500D02*
X1457388D01*
X1454849Y704039D01*
Y709118D01*
X1457388Y711657D01*
X1462466D01*
X1465005Y709118D01*
Y706578D01*
X1454849D01*
X1485319Y716735D02*
Y706578D01*
X1490397Y701500D01*
X1495476Y706578D01*
Y716735D01*
X1500554D02*
X1505632D01*
X1503093D01*
Y701500D01*
X1500554D01*
X1505632D01*
X1513250D02*
Y711657D01*
X1518328Y716735D01*
X1523407Y711657D01*
Y701500D01*
Y709118D01*
X1513250D01*
X1528485Y711657D02*
X1531024D01*
Y709118D01*
X1528485D01*
Y711657D01*
Y704039D02*
X1531024D01*
Y701500D01*
X1528485D01*
Y704039D01*
X1556416Y714196D02*
X1558955Y716735D01*
X1564033D01*
X1566573Y714196D01*
Y704039D01*
X1564033Y701500D01*
X1558955D01*
X1556416Y704039D01*
Y714196D01*
X1571651Y701500D02*
Y704039D01*
X1574190D01*
Y701500D01*
X1571651D01*
X1594504Y716735D02*
X1584347D01*
Y709118D01*
X1589425Y711657D01*
X1591964D01*
X1594504Y709118D01*
Y704039D01*
X1591964Y701500D01*
X1586886D01*
X1584347Y704039D01*
X1599582Y701500D02*
Y711657D01*
X1602121D01*
X1604660Y709118D01*
Y701500D01*
Y709118D01*
X1607200Y711657D01*
X1609739Y709118D01*
Y701500D01*
X1614817D02*
Y711657D01*
X1617356D01*
X1619895Y709118D01*
Y701500D01*
Y709118D01*
X1622435Y711657D01*
X1624974Y709118D01*
Y701500D01*
X1650365D02*
X1645287Y706578D01*
Y711657D01*
X1650365Y716735D01*
X1657983Y696422D02*
Y711657D01*
X1665601D01*
X1668140Y709118D01*
Y704039D01*
X1665601Y701500D01*
X1657983D01*
X1675757Y711657D02*
X1680836D01*
X1683375Y709118D01*
Y701500D01*
X1675757D01*
X1673218Y704039D01*
X1675757Y706578D01*
X1683375D01*
X1698610Y716735D02*
Y701500D01*
X1690992D01*
X1688453Y704039D01*
Y709118D01*
X1690992Y711657D01*
X1698610D01*
X1703688Y701500D02*
X1708767Y706578D01*
Y711657D01*
X1703688Y716735D01*
X1731619Y701500D02*
X1741776Y711657D01*
X1762089Y714196D02*
X1764629Y716735D01*
X1769707D01*
X1772246Y714196D01*
Y704039D01*
X1769707Y701500D01*
X1764629D01*
X1762089Y704039D01*
Y714196D01*
X1777324Y701500D02*
Y704039D01*
X1779864D01*
Y701500D01*
X1777324D01*
X1800177D02*
X1790020D01*
X1800177Y711657D01*
Y714196D01*
X1797638Y716735D01*
X1792560D01*
X1790020Y714196D01*
X1805255Y701500D02*
Y711657D01*
X1807795D01*
X1810334Y709118D01*
Y701500D01*
Y709118D01*
X1812873Y711657D01*
X1815412Y709118D01*
Y701500D01*
X1820491D02*
Y711657D01*
X1823030D01*
X1825569Y709118D01*
Y701500D01*
Y709118D01*
X1828108Y711657D01*
X1830647Y709118D01*
Y701500D01*
X1856039D02*
X1850961Y706578D01*
Y711657D01*
X1856039Y716735D01*
X1873813D02*
Y701500D01*
X1866196D01*
X1863656Y704039D01*
Y709118D01*
X1866196Y711657D01*
X1873813D01*
X1878892D02*
Y701500D01*
Y706578D01*
X1881431Y709118D01*
X1883970Y711657D01*
X1886509D01*
X1894127Y701500D02*
X1899205D01*
X1896666D01*
Y711657D01*
X1894127D01*
X1906823Y701500D02*
X1911901D01*
X1909362D01*
Y716735D01*
X1906823D01*
X1919518Y701500D02*
X1924597D01*
X1922058D01*
Y716735D01*
X1919518D01*
X1932214Y701500D02*
X1937293Y706578D01*
Y711657D01*
X1932214Y716735D01*
X1944910Y701500D02*
Y704039D01*
X1947449D01*
Y701500D01*
X1944910D01*
X1972841Y716735D02*
Y701500D01*
X1980459D01*
X1982998Y704039D01*
Y714196D01*
X1980459Y716735D01*
X1972841D01*
X1988076Y711657D02*
Y701500D01*
Y706578D01*
X1990615Y709118D01*
X1993155Y711657D01*
X1995694D01*
X2003311Y701500D02*
X2008390D01*
X2005851D01*
Y711657D01*
X2003311D01*
X2016007Y701500D02*
X2021086D01*
X2018546D01*
Y716735D01*
X2016007D01*
X2028703Y701500D02*
X2033781D01*
X2031242D01*
Y716735D01*
X2028703D01*
X2041399Y701500D02*
X2046477D01*
X2043938D01*
Y711657D01*
X2041399D01*
X2054095Y701500D02*
Y711657D01*
X2061712D01*
X2064252Y709118D01*
Y701500D01*
X2074408Y696422D02*
X2076947D01*
X2079487Y698961D01*
Y711657D01*
X2071869D01*
X2069330Y709118D01*
Y704039D01*
X2071869Y701500D01*
X2079487D01*
X2084565Y711657D02*
X2087104D01*
Y709118D01*
X2084565D01*
Y711657D01*
Y704039D02*
X2087104D01*
Y701500D01*
X2084565D01*
Y704039D01*
X2112496Y716735D02*
Y701500D01*
X2122653D01*
X2127731D02*
X2132809D01*
X2130270D01*
Y716735D01*
X2127731Y714196D01*
X2140427Y709118D02*
X2150584D01*
X2155662Y716735D02*
Y701500D01*
X2165819D01*
X2178515D02*
Y716735D01*
X2170897Y709118D01*
X2181054D01*
X1173000Y722500D02*
Y737735D01*
X1178078Y732657D01*
X1183157Y737735D01*
Y722500D01*
X1188235D02*
X1193313D01*
X1190774D01*
Y732657D01*
X1188235D01*
X1200931Y722500D02*
Y732657D01*
X1208549D01*
X1211088Y730118D01*
Y722500D01*
X1216166D02*
X1221244D01*
X1218705D01*
Y732657D01*
X1216166D01*
X1228862Y722500D02*
Y732657D01*
X1231401D01*
X1233940Y730118D01*
Y722500D01*
Y730118D01*
X1236479Y732657D01*
X1239019Y730118D01*
Y722500D01*
X1244097Y732657D02*
Y725039D01*
X1246636Y722500D01*
X1254254D01*
Y732657D01*
X1259332Y722500D02*
Y732657D01*
X1261871D01*
X1264410Y730118D01*
Y722500D01*
Y730118D01*
X1266950Y732657D01*
X1269489Y730118D01*
Y722500D01*
X1289802Y737735D02*
X1299959D01*
X1294881D01*
Y722500D01*
X1305037Y732657D02*
Y722500D01*
Y727578D01*
X1307576Y730118D01*
X1310116Y732657D01*
X1312655D01*
X1322811D02*
X1327890D01*
X1330429Y730118D01*
Y722500D01*
X1322811D01*
X1320272Y725039D01*
X1322811Y727578D01*
X1330429D01*
X1345664Y732657D02*
X1338047D01*
X1335507Y730118D01*
Y725039D01*
X1338047Y722500D01*
X1345664D01*
X1350742D02*
Y737735D01*
Y727578D02*
X1358360Y732657D01*
X1350742Y727578D02*
X1358360Y722500D01*
X1381213D02*
X1388830Y730118D01*
X1381213Y737735D01*
X1393909Y735196D02*
X1396448Y737735D01*
X1401526D01*
X1404065Y735196D01*
Y725039D01*
X1401526Y722500D01*
X1396448D01*
X1393909Y725039D01*
Y735196D01*
X1409144Y722500D02*
Y725039D01*
X1411683D01*
Y722500D01*
X1409144D01*
X1421839D02*
X1426918D01*
X1424379D01*
Y737735D01*
X1421839Y735196D01*
X1444692Y722500D02*
X1434535D01*
X1444692Y732657D01*
Y735196D01*
X1442153Y737735D01*
X1437074D01*
X1434535Y735196D01*
X1449770Y737735D02*
X1459927D01*
Y735196D01*
X1449770Y725039D01*
Y722500D01*
X1465005D02*
Y732657D01*
X1467545D01*
X1470084Y730118D01*
Y722500D01*
Y730118D01*
X1472623Y732657D01*
X1475162Y730118D01*
Y722500D01*
X1480240D02*
Y732657D01*
X1482780D01*
X1485319Y730118D01*
Y722500D01*
Y730118D01*
X1487858Y732657D01*
X1490397Y730118D01*
Y722500D01*
X1173000Y747500D02*
Y762735D01*
X1178078Y757657D01*
X1183157Y762735D01*
Y747500D01*
X1188235D02*
X1193313D01*
X1190774D01*
Y757657D01*
X1188235D01*
X1200931Y747500D02*
Y757657D01*
X1208549D01*
X1211088Y755118D01*
Y747500D01*
X1216166D02*
X1221244D01*
X1218705D01*
Y757657D01*
X1216166D01*
X1228862Y747500D02*
Y757657D01*
X1231401D01*
X1233940Y755118D01*
Y747500D01*
Y755118D01*
X1236479Y757657D01*
X1239019Y755118D01*
Y747500D01*
X1244097Y757657D02*
Y750039D01*
X1246636Y747500D01*
X1254254D01*
Y757657D01*
X1259332Y747500D02*
Y757657D01*
X1261871D01*
X1264410Y755118D01*
Y747500D01*
Y755118D01*
X1266950Y757657D01*
X1269489Y755118D01*
Y747500D01*
X1299959Y760196D02*
X1297420Y762735D01*
X1292341D01*
X1289802Y760196D01*
Y757657D01*
X1292341Y755118D01*
X1297420D01*
X1299959Y752578D01*
Y750039D01*
X1297420Y747500D01*
X1292341D01*
X1289802Y750039D01*
X1305037Y742422D02*
Y757657D01*
X1312655D01*
X1315194Y755118D01*
Y750039D01*
X1312655Y747500D01*
X1305037D01*
X1322811Y757657D02*
X1327890D01*
X1330429Y755118D01*
Y747500D01*
X1322811D01*
X1320272Y750039D01*
X1322811Y752578D01*
X1330429D01*
X1345664Y757657D02*
X1338047D01*
X1335507Y755118D01*
Y750039D01*
X1338047Y747500D01*
X1345664D01*
X1350742D02*
X1355821D01*
X1353282D01*
Y757657D01*
X1350742D01*
X1363438Y747500D02*
Y757657D01*
X1371056D01*
X1373595Y755118D01*
Y747500D01*
X1383752Y742422D02*
X1386291D01*
X1388830Y744961D01*
Y757657D01*
X1381213D01*
X1378673Y755118D01*
Y750039D01*
X1381213Y747500D01*
X1388830D01*
X1409144D02*
X1416761Y755118D01*
X1409144Y762735D01*
X1421839Y760196D02*
X1424379Y762735D01*
X1429457D01*
X1431996Y760196D01*
Y750039D01*
X1429457Y747500D01*
X1424379D01*
X1421839Y750039D01*
Y760196D01*
X1437074Y747500D02*
Y750039D01*
X1439614D01*
Y747500D01*
X1437074D01*
X1449770D02*
X1454849D01*
X1452310D01*
Y762735D01*
X1449770Y760196D01*
X1472623Y747500D02*
X1462466D01*
X1472623Y757657D01*
Y760196D01*
X1470084Y762735D01*
X1465005D01*
X1462466Y760196D01*
X1477701Y762735D02*
X1487858D01*
Y760196D01*
X1477701Y750039D01*
Y747500D01*
X1492936D02*
Y757657D01*
X1495476D01*
X1498015Y755118D01*
Y747500D01*
Y755118D01*
X1500554Y757657D01*
X1503093Y755118D01*
Y747500D01*
X1508172D02*
Y757657D01*
X1510711D01*
X1513250Y755118D01*
Y747500D01*
Y755118D01*
X1515789Y757657D01*
X1518328Y755118D01*
Y747500D01*
X1163157Y1328735D02*
X1153000D01*
Y1321118D01*
X1158078D01*
X1153000D01*
Y1313500D01*
X1168235D02*
X1173313D01*
X1170774D01*
Y1323657D01*
X1168235D01*
X1180931Y1313500D02*
X1186009D01*
X1183470D01*
Y1328735D01*
X1180931D01*
X1201244Y1313500D02*
X1196166D01*
X1193627Y1316039D01*
Y1321118D01*
X1196166Y1323657D01*
X1201244D01*
X1203783Y1321118D01*
Y1318578D01*
X1193627D01*
X1208862Y1313500D02*
X1216479D01*
X1219019Y1316039D01*
X1216479Y1318578D01*
X1211401D01*
X1208862Y1321118D01*
X1211401Y1323657D01*
X1219019D01*
X1153000Y976196D02*
X1163157Y966039D01*
X1153000D02*
X1163157Y976196D01*
X1153000Y971118D02*
X1163157D01*
X1158078Y966039D02*
Y976196D01*
X1168235Y963500D02*
Y966039D01*
X1170774D01*
Y963500D01*
X1168235D01*
X1191088Y976196D02*
X1188548Y978735D01*
X1183470D01*
X1180931Y976196D01*
Y966039D01*
X1183470Y963500D01*
X1188548D01*
X1191088Y966039D01*
Y971118D01*
X1186009D01*
X1196166Y963500D02*
Y978735D01*
X1201244Y973657D01*
X1206323Y978735D01*
Y963500D01*
X1211401D02*
X1216479D01*
X1213940D01*
Y978735D01*
X1211401Y976196D01*
X1224097Y963500D02*
X1229175D01*
X1226636D01*
Y978735D01*
X1224097Y976196D01*
X1252028Y971118D02*
X1262185D01*
X1282498Y963500D02*
Y978735D01*
X1287576Y973657D01*
X1292655Y978735D01*
Y963500D01*
X1305351D02*
X1300272D01*
X1297733Y966039D01*
Y971118D01*
X1300272Y973657D01*
X1305351D01*
X1307890Y971118D01*
Y968578D01*
X1297733D01*
X1323125Y973657D02*
X1315507D01*
X1312968Y971118D01*
Y966039D01*
X1315507Y963500D01*
X1323125D01*
X1328203Y978735D02*
Y963500D01*
Y971118D01*
X1330742Y973657D01*
X1335821D01*
X1338360Y971118D01*
Y963500D01*
X1345977Y973657D02*
X1351056D01*
X1353595Y971118D01*
Y963500D01*
X1345977D01*
X1343438Y966039D01*
X1345977Y968578D01*
X1353595D01*
X1358673Y963500D02*
Y973657D01*
X1366291D01*
X1368830Y971118D01*
Y963500D01*
X1373909D02*
X1378987D01*
X1376448D01*
Y973657D01*
X1373909D01*
X1396761D02*
X1389144D01*
X1386604Y971118D01*
Y966039D01*
X1389144Y963500D01*
X1396761D01*
X1404379Y973657D02*
X1409457D01*
X1411996Y971118D01*
Y963500D01*
X1404379D01*
X1401839Y966039D01*
X1404379Y968578D01*
X1411996D01*
X1417074Y963500D02*
X1422153D01*
X1419614D01*
Y978735D01*
X1417074D01*
X1455162D02*
Y963500D01*
X1447545D01*
X1445005Y966039D01*
Y971118D01*
X1447545Y973657D01*
X1455162D01*
X1460240Y963500D02*
X1465319D01*
X1462780D01*
Y973657D01*
X1460240D01*
X1472936Y963500D02*
Y973657D01*
X1475476D01*
X1478015Y971118D01*
Y963500D01*
Y971118D01*
X1480554Y973657D01*
X1483093Y971118D01*
Y963500D01*
X1495789D02*
X1490711D01*
X1488172Y966039D01*
Y971118D01*
X1490711Y973657D01*
X1495789D01*
X1498328Y971118D01*
Y968578D01*
X1488172D01*
X1503407Y963500D02*
Y973657D01*
X1511024D01*
X1513563Y971118D01*
Y963500D01*
X1518642D02*
X1526259D01*
X1528798Y966039D01*
X1526259Y968578D01*
X1521181D01*
X1518642Y971118D01*
X1521181Y973657D01*
X1528798D01*
X1533877Y963500D02*
X1538955D01*
X1536416D01*
Y973657D01*
X1533877D01*
X1549112Y963500D02*
X1554190D01*
X1556729Y966039D01*
Y971118D01*
X1554190Y973657D01*
X1549112D01*
X1546573Y971118D01*
Y966039D01*
X1549112Y963500D01*
X1561808D02*
Y973657D01*
X1569425D01*
X1571964Y971118D01*
Y963500D01*
X1577043D02*
X1584660D01*
X1587200Y966039D01*
X1584660Y968578D01*
X1579582D01*
X1577043Y971118D01*
X1579582Y973657D01*
X1587200D01*
X1153000Y1051196D02*
X1163157Y1041039D01*
X1153000D02*
X1163157Y1051196D01*
X1153000Y1046118D02*
X1163157D01*
X1158078Y1041039D02*
Y1051196D01*
X1168235Y1038500D02*
Y1041039D01*
X1170774D01*
Y1038500D01*
X1168235D01*
X1191088Y1051196D02*
X1188548Y1053735D01*
X1183470D01*
X1180931Y1051196D01*
Y1041039D01*
X1183470Y1038500D01*
X1188548D01*
X1191088Y1041039D01*
Y1046118D01*
X1186009D01*
X1196166Y1038500D02*
Y1053735D01*
X1201244Y1048657D01*
X1206323Y1053735D01*
Y1038500D01*
X1221558D02*
X1211401D01*
X1221558Y1048657D01*
Y1051196D01*
X1219019Y1053735D01*
X1213940D01*
X1211401Y1051196D01*
X1241871Y1046118D02*
X1252028D01*
X1272341Y1053735D02*
Y1038500D01*
X1279959D01*
X1282498Y1041039D01*
Y1043578D01*
X1279959Y1046118D01*
X1272341D01*
X1279959D01*
X1282498Y1048657D01*
Y1051196D01*
X1279959Y1053735D01*
X1272341D01*
X1290116Y1038500D02*
X1295194D01*
X1297733Y1041039D01*
Y1046118D01*
X1295194Y1048657D01*
X1290116D01*
X1287576Y1046118D01*
Y1041039D01*
X1290116Y1038500D01*
X1305351Y1048657D02*
X1310429D01*
X1312968Y1046118D01*
Y1038500D01*
X1305351D01*
X1302811Y1041039D01*
X1305351Y1043578D01*
X1312968D01*
X1318047Y1048657D02*
Y1038500D01*
Y1043578D01*
X1320586Y1046118D01*
X1323125Y1048657D01*
X1325664D01*
X1343438Y1053735D02*
Y1038500D01*
X1335821D01*
X1333282Y1041039D01*
Y1046118D01*
X1335821Y1048657D01*
X1343438D01*
X1366291Y1038500D02*
X1371369D01*
X1373909Y1041039D01*
Y1046118D01*
X1371369Y1048657D01*
X1366291D01*
X1363752Y1046118D01*
Y1041039D01*
X1366291Y1038500D01*
X1378987Y1048657D02*
Y1041039D01*
X1381526Y1038500D01*
X1389144D01*
Y1048657D01*
X1396761Y1051196D02*
Y1048657D01*
X1394222D01*
X1399300D01*
X1396761D01*
Y1041039D01*
X1399300Y1038500D01*
X1406918D02*
X1411996D01*
X1409457D01*
Y1053735D01*
X1406918D01*
X1419614Y1038500D02*
X1424692D01*
X1422153D01*
Y1048657D01*
X1419614D01*
X1432310Y1038500D02*
Y1048657D01*
X1439927D01*
X1442466Y1046118D01*
Y1038500D01*
X1455162D02*
X1450084D01*
X1447545Y1041039D01*
Y1046118D01*
X1450084Y1048657D01*
X1455162D01*
X1457701Y1046118D01*
Y1043578D01*
X1447545D01*
X1153000Y1026196D02*
X1163157Y1016039D01*
X1153000D02*
X1163157Y1026196D01*
X1153000Y1021118D02*
X1163157D01*
X1158078Y1016039D02*
Y1026196D01*
X1168235Y1013500D02*
Y1016039D01*
X1170774D01*
Y1013500D01*
X1168235D01*
X1191088Y1026196D02*
X1188548Y1028735D01*
X1183470D01*
X1180931Y1026196D01*
Y1016039D01*
X1183470Y1013500D01*
X1188548D01*
X1191088Y1016039D01*
Y1021118D01*
X1186009D01*
X1196166Y1013500D02*
Y1028735D01*
X1201244Y1023657D01*
X1206323Y1028735D01*
Y1013500D01*
X1221558Y1028735D02*
X1211401D01*
Y1021118D01*
X1216479Y1023657D01*
X1219019D01*
X1221558Y1021118D01*
Y1016039D01*
X1219019Y1013500D01*
X1213940D01*
X1211401Y1016039D01*
X1241871Y1021118D02*
X1252028D01*
X1282498Y1026196D02*
X1279959Y1028735D01*
X1274881D01*
X1272341Y1026196D01*
Y1023657D01*
X1274881Y1021118D01*
X1279959D01*
X1282498Y1018578D01*
Y1016039D01*
X1279959Y1013500D01*
X1274881D01*
X1272341Y1016039D01*
X1290116Y1026196D02*
Y1023657D01*
X1287576D01*
X1292655D01*
X1290116D01*
Y1016039D01*
X1292655Y1013500D01*
X1302811Y1023657D02*
X1307890D01*
X1310429Y1021118D01*
Y1013500D01*
X1302811D01*
X1300272Y1016039D01*
X1302811Y1018578D01*
X1310429D01*
X1325664Y1023657D02*
X1318047D01*
X1315507Y1021118D01*
Y1016039D01*
X1318047Y1013500D01*
X1325664D01*
X1330742D02*
Y1028735D01*
Y1018578D02*
X1338360Y1023657D01*
X1330742Y1018578D02*
X1338360Y1013500D01*
X1345977Y1023657D02*
Y1016039D01*
X1348517Y1013500D01*
X1356134D01*
Y1023657D01*
X1361213Y1008422D02*
Y1023657D01*
X1368830D01*
X1371369Y1021118D01*
Y1016039D01*
X1368830Y1013500D01*
X1361213D01*
X1391683Y1028735D02*
Y1013500D01*
X1399300D01*
X1401839Y1016039D01*
Y1026196D01*
X1399300Y1028735D01*
X1391683D01*
X1414535Y1013500D02*
X1409457D01*
X1406918Y1016039D01*
Y1021118D01*
X1409457Y1023657D01*
X1414535D01*
X1417074Y1021118D01*
Y1018578D01*
X1406918D01*
X1424692Y1026196D02*
Y1023657D01*
X1422153D01*
X1427231D01*
X1424692D01*
Y1016039D01*
X1427231Y1013500D01*
X1437388Y1023657D02*
X1442466D01*
X1445005Y1021118D01*
Y1013500D01*
X1437388D01*
X1434849Y1016039D01*
X1437388Y1018578D01*
X1445005D01*
X1450084Y1013500D02*
X1455162D01*
X1452623D01*
Y1023657D01*
X1450084D01*
X1462780Y1013500D02*
X1467858D01*
X1465319D01*
Y1028735D01*
X1462780D01*
X1475476Y1013500D02*
X1483093D01*
X1485632Y1016039D01*
X1483093Y1018578D01*
X1478015D01*
X1475476Y1021118D01*
X1478015Y1023657D01*
X1485632D01*
X1153000Y1126196D02*
X1163157Y1116039D01*
X1153000D02*
X1163157Y1126196D01*
X1153000Y1121118D02*
X1163157D01*
X1158078Y1116039D02*
Y1126196D01*
X1168235Y1113500D02*
Y1116039D01*
X1170774D01*
Y1113500D01*
X1168235D01*
X1191088Y1126196D02*
X1188548Y1128735D01*
X1183470D01*
X1180931Y1126196D01*
Y1116039D01*
X1183470Y1113500D01*
X1188548D01*
X1191088Y1116039D01*
Y1121118D01*
X1186009D01*
X1196166Y1128735D02*
Y1113500D01*
X1203783D01*
X1206323Y1116039D01*
Y1118578D01*
X1203783Y1121118D01*
X1196166D01*
X1203783D01*
X1206323Y1123657D01*
Y1126196D01*
X1203783Y1128735D01*
X1196166D01*
X1221558Y1126196D02*
X1219019Y1128735D01*
X1213940D01*
X1211401Y1126196D01*
Y1123657D01*
X1213940Y1121118D01*
X1219019D01*
X1221558Y1118578D01*
Y1116039D01*
X1219019Y1113500D01*
X1213940D01*
X1211401Y1116039D01*
X1241871Y1121118D02*
X1252028D01*
X1272341Y1128735D02*
Y1113500D01*
X1279959D01*
X1282498Y1116039D01*
Y1118578D01*
X1279959Y1121118D01*
X1272341D01*
X1279959D01*
X1282498Y1123657D01*
Y1126196D01*
X1279959Y1128735D01*
X1272341D01*
X1290116Y1113500D02*
X1295194D01*
X1297733Y1116039D01*
Y1121118D01*
X1295194Y1123657D01*
X1290116D01*
X1287576Y1121118D01*
Y1116039D01*
X1290116Y1113500D01*
X1305351Y1126196D02*
Y1123657D01*
X1302811D01*
X1307890D01*
X1305351D01*
Y1116039D01*
X1307890Y1113500D01*
X1318047Y1126196D02*
Y1123657D01*
X1315507D01*
X1320586D01*
X1318047D01*
Y1116039D01*
X1320586Y1113500D01*
X1330742D02*
X1335821D01*
X1338360Y1116039D01*
Y1121118D01*
X1335821Y1123657D01*
X1330742D01*
X1328203Y1121118D01*
Y1116039D01*
X1330742Y1113500D01*
X1343438D02*
Y1123657D01*
X1345977D01*
X1348517Y1121118D01*
Y1113500D01*
Y1121118D01*
X1351056Y1123657D01*
X1353595Y1121118D01*
Y1113500D01*
X1384065Y1126196D02*
X1381526Y1128735D01*
X1376448D01*
X1373909Y1126196D01*
Y1123657D01*
X1376448Y1121118D01*
X1381526D01*
X1384065Y1118578D01*
Y1116039D01*
X1381526Y1113500D01*
X1376448D01*
X1373909Y1116039D01*
X1391683Y1113500D02*
X1396761D01*
X1399300Y1116039D01*
Y1121118D01*
X1396761Y1123657D01*
X1391683D01*
X1389144Y1121118D01*
Y1116039D01*
X1391683Y1113500D01*
X1404379D02*
X1409457D01*
X1406918D01*
Y1128735D01*
X1404379D01*
X1427231D02*
Y1113500D01*
X1419614D01*
X1417074Y1116039D01*
Y1121118D01*
X1419614Y1123657D01*
X1427231D01*
X1439927Y1113500D02*
X1434849D01*
X1432310Y1116039D01*
Y1121118D01*
X1434849Y1123657D01*
X1439927D01*
X1442466Y1121118D01*
Y1118578D01*
X1432310D01*
X1447545Y1123657D02*
Y1113500D01*
Y1118578D01*
X1450084Y1121118D01*
X1452623Y1123657D01*
X1455162D01*
X1153000Y1101196D02*
X1163157Y1091039D01*
X1153000D02*
X1163157Y1101196D01*
X1153000Y1096118D02*
X1163157D01*
X1158078Y1091039D02*
Y1101196D01*
X1168235Y1088500D02*
Y1091039D01*
X1170774D01*
Y1088500D01*
X1168235D01*
X1191088Y1101196D02*
X1188548Y1103735D01*
X1183470D01*
X1180931Y1101196D01*
Y1091039D01*
X1183470Y1088500D01*
X1188548D01*
X1191088Y1091039D01*
Y1096118D01*
X1186009D01*
X1196166Y1103735D02*
Y1088500D01*
X1203783D01*
X1206323Y1091039D01*
Y1093578D01*
X1203783Y1096118D01*
X1196166D01*
X1203783D01*
X1206323Y1098657D01*
Y1101196D01*
X1203783Y1103735D01*
X1196166D01*
X1211401Y1088500D02*
Y1103735D01*
X1219019D01*
X1221558Y1101196D01*
Y1096118D01*
X1219019Y1093578D01*
X1211401D01*
X1241871Y1096118D02*
X1252028D01*
X1272341Y1103735D02*
Y1088500D01*
X1279959D01*
X1282498Y1091039D01*
Y1093578D01*
X1279959Y1096118D01*
X1272341D01*
X1279959D01*
X1282498Y1098657D01*
Y1101196D01*
X1279959Y1103735D01*
X1272341D01*
X1290116Y1088500D02*
X1295194D01*
X1297733Y1091039D01*
Y1096118D01*
X1295194Y1098657D01*
X1290116D01*
X1287576Y1096118D01*
Y1091039D01*
X1290116Y1088500D01*
X1305351Y1101196D02*
Y1098657D01*
X1302811D01*
X1307890D01*
X1305351D01*
Y1091039D01*
X1307890Y1088500D01*
X1318047Y1101196D02*
Y1098657D01*
X1315507D01*
X1320586D01*
X1318047D01*
Y1091039D01*
X1320586Y1088500D01*
X1330742D02*
X1335821D01*
X1338360Y1091039D01*
Y1096118D01*
X1335821Y1098657D01*
X1330742D01*
X1328203Y1096118D01*
Y1091039D01*
X1330742Y1088500D01*
X1343438D02*
Y1098657D01*
X1345977D01*
X1348517Y1096118D01*
Y1088500D01*
Y1096118D01*
X1351056Y1098657D01*
X1353595Y1096118D01*
Y1088500D01*
X1373909D02*
Y1103735D01*
X1381526D01*
X1384065Y1101196D01*
Y1096118D01*
X1381526Y1093578D01*
X1373909D01*
X1391683Y1098657D02*
X1396761D01*
X1399300Y1096118D01*
Y1088500D01*
X1391683D01*
X1389144Y1091039D01*
X1391683Y1093578D01*
X1399300D01*
X1404379Y1088500D02*
X1411996D01*
X1414535Y1091039D01*
X1411996Y1093578D01*
X1406918D01*
X1404379Y1096118D01*
X1406918Y1098657D01*
X1414535D01*
X1422153Y1101196D02*
Y1098657D01*
X1419614D01*
X1424692D01*
X1422153D01*
Y1091039D01*
X1424692Y1088500D01*
X1439927D02*
X1434849D01*
X1432310Y1091039D01*
Y1096118D01*
X1434849Y1098657D01*
X1439927D01*
X1442466Y1096118D01*
Y1093578D01*
X1432310D01*
X1153000Y1176196D02*
X1163157Y1166039D01*
X1153000D02*
X1163157Y1176196D01*
X1153000Y1171118D02*
X1163157D01*
X1158078Y1166039D02*
Y1176196D01*
X1168235Y1163500D02*
Y1166039D01*
X1170774D01*
Y1163500D01*
X1168235D01*
X1191088Y1176196D02*
X1188548Y1178735D01*
X1183470D01*
X1180931Y1176196D01*
Y1166039D01*
X1183470Y1163500D01*
X1188548D01*
X1191088Y1166039D01*
Y1171118D01*
X1186009D01*
X1206323Y1163500D02*
X1196166D01*
X1206323Y1173657D01*
Y1176196D01*
X1203783Y1178735D01*
X1198705D01*
X1196166Y1176196D01*
X1241871Y1171118D02*
X1252028D01*
X1272341Y1178735D02*
Y1163500D01*
X1282498D01*
X1287576Y1176196D02*
X1290116Y1178735D01*
X1295194D01*
X1297733Y1176196D01*
Y1173657D01*
X1295194Y1171118D01*
X1292655D01*
X1295194D01*
X1297733Y1168578D01*
Y1166039D01*
X1295194Y1163500D01*
X1290116D01*
X1287576Y1166039D01*
X1323125Y1163500D02*
X1318047Y1168578D01*
Y1173657D01*
X1323125Y1178735D01*
X1330742Y1163500D02*
Y1178735D01*
X1338360D01*
X1340899Y1176196D01*
Y1171118D01*
X1338360Y1168578D01*
X1330742D01*
X1348517Y1163500D02*
X1353595D01*
X1356134Y1166039D01*
Y1171118D01*
X1353595Y1173657D01*
X1348517D01*
X1345977Y1171118D01*
Y1166039D01*
X1348517Y1163500D01*
X1361213D02*
X1368830D01*
X1371369Y1166039D01*
X1368830Y1168578D01*
X1363752D01*
X1361213Y1171118D01*
X1363752Y1173657D01*
X1371369D01*
X1376448Y1163500D02*
X1381526D01*
X1378987D01*
Y1173657D01*
X1376448D01*
X1391683Y1176196D02*
Y1173657D01*
X1389144D01*
X1394222D01*
X1391683D01*
Y1166039D01*
X1394222Y1163500D01*
X1401839D02*
X1406918D01*
X1404379D01*
Y1173657D01*
X1401839D01*
X1414535D02*
X1419614Y1163500D01*
X1424692Y1173657D01*
X1437388Y1163500D02*
X1432310D01*
X1429770Y1166039D01*
Y1171118D01*
X1432310Y1173657D01*
X1437388D01*
X1439927Y1171118D01*
Y1168578D01*
X1429770D01*
X1445005Y1163500D02*
X1450084Y1168578D01*
Y1173657D01*
X1445005Y1178735D01*
X1153000Y1151196D02*
X1163157Y1141039D01*
X1153000D02*
X1163157Y1151196D01*
X1153000Y1146118D02*
X1163157D01*
X1158078Y1141039D02*
Y1151196D01*
X1168235Y1138500D02*
Y1141039D01*
X1170774D01*
Y1138500D01*
X1168235D01*
X1191088Y1151196D02*
X1188548Y1153735D01*
X1183470D01*
X1180931Y1151196D01*
Y1141039D01*
X1183470Y1138500D01*
X1188548D01*
X1191088Y1141039D01*
Y1146118D01*
X1186009D01*
X1196166Y1153735D02*
Y1138500D01*
X1203783D01*
X1206323Y1141039D01*
Y1143578D01*
X1203783Y1146118D01*
X1196166D01*
X1203783D01*
X1206323Y1148657D01*
Y1151196D01*
X1203783Y1153735D01*
X1196166D01*
X1211401D02*
Y1138500D01*
X1221558D01*
X1241871Y1146118D02*
X1252028D01*
X1272341Y1153735D02*
Y1138500D01*
X1282498D01*
X1295194D02*
Y1153735D01*
X1287576Y1146118D01*
X1297733D01*
X1323125Y1138500D02*
X1318047Y1143578D01*
Y1148657D01*
X1323125Y1153735D01*
X1330742Y1138500D02*
Y1153735D01*
X1338360D01*
X1340899Y1151196D01*
Y1146118D01*
X1338360Y1143578D01*
X1330742D01*
X1348517Y1138500D02*
X1353595D01*
X1356134Y1141039D01*
Y1146118D01*
X1353595Y1148657D01*
X1348517D01*
X1345977Y1146118D01*
Y1141039D01*
X1348517Y1138500D01*
X1361213D02*
X1368830D01*
X1371369Y1141039D01*
X1368830Y1143578D01*
X1363752D01*
X1361213Y1146118D01*
X1363752Y1148657D01*
X1371369D01*
X1376448Y1138500D02*
X1381526D01*
X1378987D01*
Y1148657D01*
X1376448D01*
X1391683Y1151196D02*
Y1148657D01*
X1389144D01*
X1394222D01*
X1391683D01*
Y1141039D01*
X1394222Y1138500D01*
X1401839D02*
X1406918D01*
X1404379D01*
Y1148657D01*
X1401839D01*
X1414535D02*
X1419614Y1138500D01*
X1424692Y1148657D01*
X1437388Y1138500D02*
X1432310D01*
X1429770Y1141039D01*
Y1146118D01*
X1432310Y1148657D01*
X1437388D01*
X1439927Y1146118D01*
Y1143578D01*
X1429770D01*
X1445005Y1138500D02*
X1450084Y1143578D01*
Y1148657D01*
X1445005Y1153735D01*
X1153000Y1251196D02*
X1163157Y1241039D01*
X1153000D02*
X1163157Y1251196D01*
X1153000Y1246118D02*
X1163157D01*
X1158078Y1241039D02*
Y1251196D01*
X1168235Y1238500D02*
Y1241039D01*
X1170774D01*
Y1238500D01*
X1168235D01*
X1191088Y1251196D02*
X1188548Y1253735D01*
X1183470D01*
X1180931Y1251196D01*
Y1241039D01*
X1183470Y1238500D01*
X1188548D01*
X1191088Y1241039D01*
Y1246118D01*
X1186009D01*
X1196166Y1253735D02*
X1206323D01*
X1201244D01*
Y1238500D01*
X1221558Y1251196D02*
X1219019Y1253735D01*
X1213940D01*
X1211401Y1251196D01*
Y1248657D01*
X1213940Y1246118D01*
X1219019D01*
X1221558Y1243578D01*
Y1241039D01*
X1219019Y1238500D01*
X1213940D01*
X1211401Y1241039D01*
X1241871Y1246118D02*
X1252028D01*
X1272341Y1253735D02*
X1282498D01*
X1277420D01*
Y1238500D01*
X1290116D02*
X1295194D01*
X1297733Y1241039D01*
Y1246118D01*
X1295194Y1248657D01*
X1290116D01*
X1287576Y1246118D01*
Y1241039D01*
X1290116Y1238500D01*
X1302811Y1233422D02*
Y1248657D01*
X1310429D01*
X1312968Y1246118D01*
Y1241039D01*
X1310429Y1238500D01*
X1302811D01*
X1343438Y1251196D02*
X1340899Y1253735D01*
X1335821D01*
X1333282Y1251196D01*
Y1248657D01*
X1335821Y1246118D01*
X1340899D01*
X1343438Y1243578D01*
Y1241039D01*
X1340899Y1238500D01*
X1335821D01*
X1333282Y1241039D01*
X1351056Y1238500D02*
X1356134D01*
X1358673Y1241039D01*
Y1246118D01*
X1356134Y1248657D01*
X1351056D01*
X1348517Y1246118D01*
Y1241039D01*
X1351056Y1238500D01*
X1363752D02*
X1368830D01*
X1366291D01*
Y1253735D01*
X1363752D01*
X1386604D02*
Y1238500D01*
X1378987D01*
X1376448Y1241039D01*
Y1246118D01*
X1378987Y1248657D01*
X1386604D01*
X1399300Y1238500D02*
X1394222D01*
X1391683Y1241039D01*
Y1246118D01*
X1394222Y1248657D01*
X1399300D01*
X1401839Y1246118D01*
Y1243578D01*
X1391683D01*
X1406918Y1248657D02*
Y1238500D01*
Y1243578D01*
X1409457Y1246118D01*
X1411996Y1248657D01*
X1414535D01*
X1153000Y1226196D02*
X1163157Y1216039D01*
X1153000D02*
X1163157Y1226196D01*
X1153000Y1221118D02*
X1163157D01*
X1158078Y1216039D02*
Y1226196D01*
X1168235Y1213500D02*
Y1216039D01*
X1170774D01*
Y1213500D01*
X1168235D01*
X1191088Y1226196D02*
X1188548Y1228735D01*
X1183470D01*
X1180931Y1226196D01*
Y1216039D01*
X1183470Y1213500D01*
X1188548D01*
X1191088Y1216039D01*
Y1221118D01*
X1186009D01*
X1196166Y1228735D02*
X1206323D01*
X1201244D01*
Y1213500D01*
X1211401Y1228735D02*
Y1213500D01*
X1221558D01*
X1241871Y1221118D02*
X1252028D01*
X1272341Y1228735D02*
Y1213500D01*
X1282498D01*
X1287576D02*
X1292655D01*
X1290116D01*
Y1228735D01*
X1287576Y1226196D01*
X1320586Y1213500D02*
X1315507Y1218578D01*
Y1223657D01*
X1320586Y1228735D01*
X1328203Y1213500D02*
Y1228735D01*
X1335821D01*
X1338360Y1226196D01*
Y1221118D01*
X1335821Y1218578D01*
X1328203D01*
X1345977Y1213500D02*
X1351056D01*
X1353595Y1216039D01*
Y1221118D01*
X1351056Y1223657D01*
X1345977D01*
X1343438Y1221118D01*
Y1216039D01*
X1345977Y1213500D01*
X1358673D02*
X1366291D01*
X1368830Y1216039D01*
X1366291Y1218578D01*
X1361213D01*
X1358673Y1221118D01*
X1361213Y1223657D01*
X1368830D01*
X1373909Y1213500D02*
X1378987D01*
X1376448D01*
Y1223657D01*
X1373909D01*
X1389144Y1226196D02*
Y1223657D01*
X1386604D01*
X1391683D01*
X1389144D01*
Y1216039D01*
X1391683Y1213500D01*
X1399300D02*
X1404379D01*
X1401839D01*
Y1223657D01*
X1399300D01*
X1411996D02*
X1417074Y1213500D01*
X1422153Y1223657D01*
X1434849Y1213500D02*
X1429770D01*
X1427231Y1216039D01*
Y1221118D01*
X1429770Y1223657D01*
X1434849D01*
X1437388Y1221118D01*
Y1218578D01*
X1427231D01*
X1442466Y1213500D02*
X1447545Y1218578D01*
Y1223657D01*
X1442466Y1228735D01*
X1153000Y1301196D02*
X1163157Y1291039D01*
X1153000D02*
X1163157Y1301196D01*
X1153000Y1296118D02*
X1163157D01*
X1158078Y1291039D02*
Y1301196D01*
X1168235Y1288500D02*
Y1291039D01*
X1170774D01*
Y1288500D01*
X1168235D01*
X1191088Y1301196D02*
X1188548Y1303735D01*
X1183470D01*
X1180931Y1301196D01*
Y1291039D01*
X1183470Y1288500D01*
X1188548D01*
X1191088Y1291039D01*
Y1296118D01*
X1186009D01*
X1196166Y1303735D02*
X1206323D01*
X1201244D01*
Y1288500D01*
X1219019Y1303735D02*
X1213940D01*
X1211401Y1301196D01*
Y1291039D01*
X1213940Y1288500D01*
X1219019D01*
X1221558Y1291039D01*
Y1301196D01*
X1219019Y1303735D01*
X1241871Y1296118D02*
X1252028D01*
X1272341Y1303735D02*
X1282498D01*
X1277420D01*
Y1288500D01*
X1290116D02*
X1295194D01*
X1297733Y1291039D01*
Y1296118D01*
X1295194Y1298657D01*
X1290116D01*
X1287576Y1296118D01*
Y1291039D01*
X1290116Y1288500D01*
X1302811Y1283422D02*
Y1298657D01*
X1310429D01*
X1312968Y1296118D01*
Y1291039D01*
X1310429Y1288500D01*
X1302811D01*
X1340899Y1303735D02*
X1335821D01*
X1333282Y1301196D01*
Y1291039D01*
X1335821Y1288500D01*
X1340899D01*
X1343438Y1291039D01*
Y1301196D01*
X1340899Y1303735D01*
X1348517Y1298657D02*
X1353595Y1288500D01*
X1358673Y1298657D01*
X1371369Y1288500D02*
X1366291D01*
X1363752Y1291039D01*
Y1296118D01*
X1366291Y1298657D01*
X1371369D01*
X1373909Y1296118D01*
Y1293578D01*
X1363752D01*
X1378987Y1298657D02*
Y1288500D01*
Y1293578D01*
X1381526Y1296118D01*
X1384065Y1298657D01*
X1386604D01*
X1394222Y1288500D02*
X1399300D01*
X1396761D01*
Y1303735D01*
X1394222D01*
X1409457Y1298657D02*
X1414535D01*
X1417074Y1296118D01*
Y1288500D01*
X1409457D01*
X1406918Y1291039D01*
X1409457Y1293578D01*
X1417074D01*
X1422153Y1298657D02*
Y1291039D01*
X1424692Y1288500D01*
X1432310D01*
Y1285961D01*
X1429770Y1283422D01*
X1427231D01*
X1432310Y1288500D02*
Y1298657D01*
X1153000Y1001196D02*
X1163157Y991039D01*
X1153000D02*
X1163157Y1001196D01*
X1153000Y996118D02*
X1163157D01*
X1158078Y991039D02*
Y1001196D01*
X1168235Y988500D02*
Y991039D01*
X1170774D01*
Y988500D01*
X1168235D01*
X1191088Y1001196D02*
X1188548Y1003735D01*
X1183470D01*
X1180931Y1001196D01*
Y991039D01*
X1183470Y988500D01*
X1188548D01*
X1191088Y991039D01*
Y996118D01*
X1186009D01*
X1196166Y988500D02*
Y1003735D01*
X1201244Y998657D01*
X1206323Y1003735D01*
Y988500D01*
X1221558Y1003735D02*
X1216479Y1001196D01*
X1211401Y996118D01*
Y991039D01*
X1213940Y988500D01*
X1219019D01*
X1221558Y991039D01*
Y993578D01*
X1219019Y996118D01*
X1211401D01*
X1241871D02*
X1252028D01*
X1282498Y1003735D02*
X1272341D01*
Y996118D01*
X1277420D01*
X1272341D01*
Y988500D01*
X1290116Y998657D02*
X1295194D01*
X1297733Y996118D01*
Y988500D01*
X1290116D01*
X1287576Y991039D01*
X1290116Y993578D01*
X1297733D01*
X1302811Y1003735D02*
Y988500D01*
X1310429D01*
X1312968Y991039D01*
Y993578D01*
Y996118D01*
X1310429Y998657D01*
X1302811D01*
X1333282Y988500D02*
Y1003735D01*
X1343438Y988500D01*
Y1003735D01*
X1351056Y988500D02*
X1356134D01*
X1358673Y991039D01*
Y996118D01*
X1356134Y998657D01*
X1351056D01*
X1348517Y996118D01*
Y991039D01*
X1351056Y988500D01*
X1366291Y1001196D02*
Y998657D01*
X1363752D01*
X1368830D01*
X1366291D01*
Y991039D01*
X1368830Y988500D01*
X1384065D02*
X1378987D01*
X1376448Y991039D01*
Y996118D01*
X1378987Y998657D01*
X1384065D01*
X1386604Y996118D01*
Y993578D01*
X1376448D01*
X1391683Y988500D02*
X1399300D01*
X1401839Y991039D01*
X1399300Y993578D01*
X1394222D01*
X1391683Y996118D01*
X1394222Y998657D01*
X1401839D01*
X1153000Y1076196D02*
X1163157Y1066039D01*
X1153000D02*
X1163157Y1076196D01*
X1153000Y1071118D02*
X1163157D01*
X1158078Y1066039D02*
Y1076196D01*
X1168235Y1063500D02*
Y1066039D01*
X1170774D01*
Y1063500D01*
X1168235D01*
X1191088Y1076196D02*
X1188548Y1078735D01*
X1183470D01*
X1180931Y1076196D01*
Y1066039D01*
X1183470Y1063500D01*
X1188548D01*
X1191088Y1066039D01*
Y1071118D01*
X1186009D01*
X1196166Y1078735D02*
Y1063500D01*
X1203783D01*
X1206323Y1066039D01*
Y1068578D01*
X1203783Y1071118D01*
X1196166D01*
X1203783D01*
X1206323Y1073657D01*
Y1076196D01*
X1203783Y1078735D01*
X1196166D01*
X1219019D02*
X1213940D01*
X1211401Y1076196D01*
Y1066039D01*
X1213940Y1063500D01*
X1219019D01*
X1221558Y1066039D01*
Y1076196D01*
X1219019Y1078735D01*
X1241871Y1071118D02*
X1252028D01*
X1272341Y1078735D02*
Y1063500D01*
X1279959D01*
X1282498Y1066039D01*
Y1068578D01*
X1279959Y1071118D01*
X1272341D01*
X1279959D01*
X1282498Y1073657D01*
Y1076196D01*
X1279959Y1078735D01*
X1272341D01*
X1290116Y1063500D02*
X1295194D01*
X1297733Y1066039D01*
Y1071118D01*
X1295194Y1073657D01*
X1290116D01*
X1287576Y1071118D01*
Y1066039D01*
X1290116Y1063500D01*
X1305351Y1076196D02*
Y1073657D01*
X1302811D01*
X1307890D01*
X1305351D01*
Y1066039D01*
X1307890Y1063500D01*
X1318047Y1076196D02*
Y1073657D01*
X1315507D01*
X1320586D01*
X1318047D01*
Y1066039D01*
X1320586Y1063500D01*
X1330742D02*
X1335821D01*
X1338360Y1066039D01*
Y1071118D01*
X1335821Y1073657D01*
X1330742D01*
X1328203Y1071118D01*
Y1066039D01*
X1330742Y1063500D01*
X1343438D02*
Y1073657D01*
X1345977D01*
X1348517Y1071118D01*
Y1063500D01*
Y1071118D01*
X1351056Y1073657D01*
X1353595Y1071118D01*
Y1063500D01*
X1381526Y1078735D02*
X1376448D01*
X1373909Y1076196D01*
Y1066039D01*
X1376448Y1063500D01*
X1381526D01*
X1384065Y1066039D01*
Y1076196D01*
X1381526Y1078735D01*
X1389144Y1073657D02*
X1394222Y1063500D01*
X1399300Y1073657D01*
X1411996Y1063500D02*
X1406918D01*
X1404379Y1066039D01*
Y1071118D01*
X1406918Y1073657D01*
X1411996D01*
X1414535Y1071118D01*
Y1068578D01*
X1404379D01*
X1419614Y1073657D02*
Y1063500D01*
Y1068578D01*
X1422153Y1071118D01*
X1424692Y1073657D01*
X1427231D01*
X1434849Y1063500D02*
X1439927D01*
X1437388D01*
Y1078735D01*
X1434849D01*
X1450084Y1073657D02*
X1455162D01*
X1457701Y1071118D01*
Y1063500D01*
X1450084D01*
X1447545Y1066039D01*
X1450084Y1068578D01*
X1457701D01*
X1462780Y1073657D02*
Y1066039D01*
X1465319Y1063500D01*
X1472936D01*
Y1060961D01*
X1470397Y1058422D01*
X1467858D01*
X1472936Y1063500D02*
Y1073657D01*
X1153000Y1276196D02*
X1163157Y1266039D01*
X1153000D02*
X1163157Y1276196D01*
X1153000Y1271118D02*
X1163157D01*
X1158078Y1266039D02*
Y1276196D01*
X1168235Y1263500D02*
Y1266039D01*
X1170774D01*
Y1263500D01*
X1168235D01*
X1191088Y1276196D02*
X1188548Y1278735D01*
X1183470D01*
X1180931Y1276196D01*
Y1266039D01*
X1183470Y1263500D01*
X1188548D01*
X1191088Y1266039D01*
Y1271118D01*
X1186009D01*
X1196166Y1278735D02*
X1206323D01*
X1201244D01*
Y1263500D01*
X1211401D02*
Y1278735D01*
X1219019D01*
X1221558Y1276196D01*
Y1271118D01*
X1219019Y1268578D01*
X1211401D01*
X1241871Y1271118D02*
X1252028D01*
X1272341Y1278735D02*
X1282498D01*
X1277420D01*
Y1263500D01*
X1290116D02*
X1295194D01*
X1297733Y1266039D01*
Y1271118D01*
X1295194Y1273657D01*
X1290116D01*
X1287576Y1271118D01*
Y1266039D01*
X1290116Y1263500D01*
X1302811Y1258422D02*
Y1273657D01*
X1310429D01*
X1312968Y1271118D01*
Y1266039D01*
X1310429Y1263500D01*
X1302811D01*
X1333282D02*
Y1278735D01*
X1340899D01*
X1343438Y1276196D01*
Y1271118D01*
X1340899Y1268578D01*
X1333282D01*
X1351056Y1273657D02*
X1356134D01*
X1358673Y1271118D01*
Y1263500D01*
X1351056D01*
X1348517Y1266039D01*
X1351056Y1268578D01*
X1358673D01*
X1363752Y1263500D02*
X1371369D01*
X1373909Y1266039D01*
X1371369Y1268578D01*
X1366291D01*
X1363752Y1271118D01*
X1366291Y1273657D01*
X1373909D01*
X1381526Y1276196D02*
Y1273657D01*
X1378987D01*
X1384065D01*
X1381526D01*
Y1266039D01*
X1384065Y1263500D01*
X1399300D02*
X1394222D01*
X1391683Y1266039D01*
Y1271118D01*
X1394222Y1273657D01*
X1399300D01*
X1401839Y1271118D01*
Y1268578D01*
X1391683D01*
X1153000Y1201196D02*
X1163157Y1191039D01*
X1153000D02*
X1163157Y1201196D01*
X1153000Y1196118D02*
X1163157D01*
X1158078Y1191039D02*
Y1201196D01*
X1168235Y1188500D02*
Y1191039D01*
X1170774D01*
Y1188500D01*
X1168235D01*
X1191088Y1201196D02*
X1188548Y1203735D01*
X1183470D01*
X1180931Y1201196D01*
Y1191039D01*
X1183470Y1188500D01*
X1188548D01*
X1191088Y1191039D01*
Y1196118D01*
X1186009D01*
X1196166Y1188500D02*
X1201244D01*
X1198705D01*
Y1203735D01*
X1196166Y1201196D01*
X1239332Y1196118D02*
X1249489D01*
X1269802Y1203735D02*
Y1188500D01*
X1279959D01*
X1295194D02*
X1285037D01*
X1295194Y1198657D01*
Y1201196D01*
X1292655Y1203735D01*
X1287576D01*
X1285037Y1201196D01*
X1320586Y1188500D02*
X1315507Y1193578D01*
Y1198657D01*
X1320586Y1203735D01*
X1328203Y1188500D02*
Y1203735D01*
X1335821D01*
X1338360Y1201196D01*
Y1196118D01*
X1335821Y1193578D01*
X1328203D01*
X1345977Y1188500D02*
X1351056D01*
X1353595Y1191039D01*
Y1196118D01*
X1351056Y1198657D01*
X1345977D01*
X1343438Y1196118D01*
Y1191039D01*
X1345977Y1188500D01*
X1358673D02*
X1366291D01*
X1368830Y1191039D01*
X1366291Y1193578D01*
X1361213D01*
X1358673Y1196118D01*
X1361213Y1198657D01*
X1368830D01*
X1373909Y1188500D02*
X1378987D01*
X1376448D01*
Y1198657D01*
X1373909D01*
X1389144Y1201196D02*
Y1198657D01*
X1386604D01*
X1391683D01*
X1389144D01*
Y1191039D01*
X1391683Y1188500D01*
X1399300D02*
X1404379D01*
X1401839D01*
Y1198657D01*
X1399300D01*
X1411996D02*
X1417074Y1188500D01*
X1422153Y1198657D01*
X1434849Y1188500D02*
X1429770D01*
X1427231Y1191039D01*
Y1196118D01*
X1429770Y1198657D01*
X1434849D01*
X1437388Y1196118D01*
Y1193578D01*
X1427231D01*
X1442466Y1188500D02*
X1447545Y1193578D01*
Y1198657D01*
X1442466Y1203735D01*
M02*
