G04*
G04 #@! TF.GenerationSoftware,Altium Limited,Altium Designer,21.2.2 (38)*
G04*
G04 Layer_Color=32768*
%FSLAX44Y44*%
%MOMM*%
G71*
G04*
G04 #@! TF.SameCoordinates,E197076A-8C22-4D41-9B62-958370782F32*
G04*
G04*
G04 #@! TF.FilePolarity,Positive*
G04*
G01*
G75*
%ADD10C,0.2000*%
%ADD13C,0.1000*%
%ADD16C,0.1500*%
%ADD105C,0.0500*%
%ADD108C,0.4000*%
%ADD109C,0.0800*%
%ADD110C,0.1400*%
G36*
X262000Y221125D02*
X261500D01*
X256375Y226250D01*
X262000Y231875D01*
Y221125D01*
D02*
G37*
G36*
X435874Y204124D02*
X430249Y198499D01*
Y209249D01*
X430749D01*
X435874Y204124D01*
D02*
G37*
G36*
Y185124D02*
X430249Y179499D01*
Y190249D01*
X430749D01*
X435874Y185124D01*
D02*
G37*
G36*
X435874Y166124D02*
X430249Y160499D01*
Y171249D01*
X430749D01*
X435874Y166124D01*
D02*
G37*
G36*
Y147124D02*
X430249Y141499D01*
Y152249D01*
X430749D01*
X435874Y147124D01*
D02*
G37*
D10*
X77800Y239550D02*
X579450D01*
Y290350D01*
X71450D02*
X579450D01*
X71450Y245900D02*
Y290350D01*
Y245900D02*
X77800Y239550D01*
D13*
X146500Y210000D02*
G03*
X146500Y210000I-4000J0D01*
G01*
X82250Y61250D02*
G03*
X82250Y61250I-6000J0D01*
G01*
X412500Y225000D02*
G03*
X412500Y225000I-6000J0D01*
G01*
X248000Y210500D02*
G03*
X248000Y210500I-6000J0D01*
G01*
X185000Y224500D02*
G03*
X185000Y224500I-6000J0D01*
G01*
X82500Y32500D02*
G03*
X82500Y32500I-6000J0D01*
G01*
X137315Y172000D02*
G03*
X137315Y172000I-6000J0D01*
G01*
X264000Y115500D02*
G03*
X264000Y115500I-6000J0D01*
G01*
X254500Y108000D02*
G03*
X254500Y108000I-6000J0D01*
G01*
X242500Y104500D02*
G03*
X242500Y104500I-6000J0D01*
G01*
X339499Y103001D02*
G03*
X339499Y103001I-6000J0D01*
G01*
X286000Y64000D02*
G03*
X286000Y64000I-6000J0D01*
G01*
X275500Y74500D02*
G03*
X275500Y74500I-6000J0D01*
G01*
X257000Y81000D02*
G03*
X257000Y81000I-6000J0D01*
G01*
X590900Y125700D02*
X640430D01*
X590900Y100300D02*
Y125700D01*
Y100300D02*
X640430D01*
Y125700D01*
X590900Y92200D02*
X640430D01*
X590900Y66800D02*
Y92200D01*
Y66800D02*
X640430D01*
Y92200D01*
X122500Y205000D02*
X133500D01*
Y226000D01*
X122500D02*
X133500D01*
X122500Y205000D02*
Y226000D01*
X422999Y146749D02*
X430249D01*
X435874Y141499D02*
Y152249D01*
Y147124D02*
X442624D01*
X422999Y184749D02*
X430249D01*
X435874Y179499D02*
Y190249D01*
Y185124D02*
X442624D01*
X422999Y165749D02*
X430249D01*
X435874Y160499D02*
Y171249D01*
Y166124D02*
X442624D01*
X422999Y203749D02*
X430249D01*
X435874Y198499D02*
Y209249D01*
Y204124D02*
X442624D01*
X262000Y226625D02*
X269250D01*
X256375Y221125D02*
Y231875D01*
X249625Y226250D02*
X256375D01*
X135000Y203000D02*
Y237000D01*
Y203000D02*
X172000D01*
Y237000D01*
X135000D02*
X172000D01*
X26710Y208590D02*
X90210D01*
Y165410D02*
Y208590D01*
X26710Y165410D02*
X90210D01*
X26710D02*
Y208590D01*
X382000Y11000D02*
X393000D01*
Y32000D01*
X382000D02*
X393000D01*
X382000Y11000D02*
Y32000D01*
X369500Y11000D02*
X380500D01*
Y32000D01*
X369500D02*
X380500D01*
X369500Y11000D02*
Y32000D01*
X344500Y61000D02*
Y72000D01*
Y61000D02*
X365500D01*
Y72000D01*
X344500D02*
X365500D01*
X344500Y48000D02*
Y59000D01*
Y48000D02*
X365500D01*
Y59000D01*
X344500D02*
X365500D01*
X344500Y119000D02*
X355500D01*
X344500Y98000D02*
Y119000D01*
Y98000D02*
X355500D01*
Y119000D01*
X382993Y115449D02*
Y126449D01*
Y115449D02*
X403993D01*
Y126449D01*
X382993D02*
X403993D01*
X382993Y103449D02*
Y114449D01*
Y103449D02*
X403993D01*
Y114449D01*
X382993D02*
X403993D01*
X504000Y184500D02*
X515000D01*
X504000Y163500D02*
Y184500D01*
Y163500D02*
X515000D01*
Y184500D01*
X582500Y195500D02*
X593500D01*
X582500Y174500D02*
Y195500D01*
Y174500D02*
X593500D01*
Y195500D01*
X557500Y201000D02*
Y212000D01*
X536500D02*
X557500D01*
X536500Y201000D02*
Y212000D01*
Y201000D02*
X557500D01*
X252000Y51000D02*
Y62000D01*
Y51000D02*
X273000D01*
Y62000D01*
X252000D02*
X273000D01*
X434001Y71750D02*
X445001D01*
Y92750D01*
X434001D02*
X445001D01*
X434001Y71750D02*
Y92750D01*
X446001Y71750D02*
X457001D01*
Y92750D01*
X446001D02*
X457001D01*
X446001Y71750D02*
Y92750D01*
X487500Y82000D02*
X498500D01*
Y103000D01*
X487500D02*
X498500D01*
X487500Y82000D02*
Y103000D01*
X327500Y65500D02*
X338500D01*
Y86500D01*
X327500D02*
X338500D01*
X327500Y65500D02*
Y86500D01*
X315500Y65500D02*
X326500D01*
Y86500D01*
X315500D02*
X326500D01*
X315500Y65500D02*
Y86500D01*
X475000Y82000D02*
X486000D01*
Y103000D01*
X475000D02*
X486000D01*
X475000Y82000D02*
Y103000D01*
X232000Y11000D02*
X243000D01*
Y32000D01*
X232000D02*
X243000D01*
X232000Y11000D02*
Y32000D01*
X496500Y68500D02*
Y79500D01*
X475500D02*
X496500D01*
X475500Y68500D02*
Y79500D01*
Y68500D02*
X496500D01*
X423000Y14000D02*
Y25000D01*
X402000D02*
X423000D01*
X402000Y14000D02*
Y25000D01*
Y14000D02*
X423000D01*
X402500Y26500D02*
Y37500D01*
Y26500D02*
X423500D01*
Y37500D01*
X402500D02*
X423500D01*
X167000Y18500D02*
X178000D01*
Y39500D01*
X167000D02*
X178000D01*
X167000Y18500D02*
Y39500D01*
X179000Y18500D02*
X190000D01*
Y39500D01*
X179000D02*
X190000D01*
X179000Y18500D02*
Y39500D01*
X198500Y30500D02*
X209500D01*
X198500Y9500D02*
Y30500D01*
Y9500D02*
X209500D01*
Y30500D01*
X290500Y109500D02*
Y120500D01*
X269500D02*
X290500D01*
X269500Y109500D02*
Y120500D01*
Y109500D02*
X290500D01*
X345000Y129000D02*
Y140000D01*
X324000D02*
X345000D01*
X324000Y129000D02*
Y140000D01*
Y129000D02*
X345000D01*
X271500Y204500D02*
Y215500D01*
X250500D02*
X271500D01*
X250500Y204500D02*
Y215500D01*
Y204500D02*
X271500D01*
X258000Y198000D02*
X269000D01*
X258000Y177000D02*
Y198000D01*
Y177000D02*
X269000D01*
Y198000D01*
X270000D02*
X281000D01*
X270000Y177000D02*
Y198000D01*
Y177000D02*
X281000D01*
Y198000D01*
X26340Y67610D02*
X97460D01*
Y105710D01*
X26340D02*
X97460D01*
X26340Y67610D02*
Y105710D01*
Y113110D02*
X97460D01*
Y151210D01*
X26340D02*
X97460D01*
X26340Y113110D02*
Y151210D01*
X98500Y138000D02*
X109500D01*
Y117000D02*
Y138000D01*
X98500Y117000D02*
X109500D01*
X98500D02*
Y138000D01*
X606500Y192500D02*
X617500D01*
Y171500D02*
Y192500D01*
X606500Y171500D02*
X617500D01*
X606500D02*
Y192500D01*
X507500Y46500D02*
Y57500D01*
X528500D01*
Y46500D02*
Y57500D01*
X507500Y46500D02*
X528500D01*
X98500Y94500D02*
X109500D01*
Y73500D02*
Y94500D01*
X98500Y73500D02*
X109500D01*
X98500D02*
Y94500D01*
X344500Y74000D02*
Y85000D01*
X365500D01*
Y74000D02*
Y85000D01*
X344500Y74000D02*
X365500D01*
X344500Y86500D02*
Y97500D01*
X365500D01*
Y86500D02*
Y97500D01*
X344500Y86500D02*
X365500D01*
X244250Y10001D02*
Y21001D01*
X265250D01*
Y10001D02*
Y21001D01*
X244250Y10001D02*
X265250D01*
X436500Y47500D02*
Y58500D01*
X457500D01*
Y47500D02*
Y58500D01*
X436500Y47500D02*
X457500D01*
X210500Y9500D02*
X221500D01*
X210500D02*
Y30500D01*
X221500D01*
Y9500D02*
Y30500D01*
X244170Y21767D02*
Y32767D01*
X265170D01*
Y21767D02*
Y32767D01*
X244170Y21767D02*
X265170D01*
X355000Y223500D02*
Y234500D01*
X376000D01*
Y223500D02*
Y234500D01*
X355000Y223500D02*
X376000D01*
X332500D02*
Y234500D01*
X353500D01*
Y223500D02*
Y234500D01*
X332500Y223500D02*
X353500D01*
X111500Y173500D02*
Y184500D01*
X90500Y173500D02*
X111500D01*
X90500D02*
Y184500D01*
X111500D01*
X215251Y213500D02*
X226251D01*
X215251D02*
Y234500D01*
X226251D01*
Y213500D02*
Y234500D01*
X111500Y191500D02*
Y202500D01*
X90500Y191500D02*
X111500D01*
X90500D02*
Y202500D01*
X111500D01*
X83500Y209500D02*
Y220500D01*
X62500Y209500D02*
X83500D01*
X62500D02*
Y220500D01*
X83500D01*
X60500Y209500D02*
Y220500D01*
X39500Y209500D02*
X60500D01*
X39500D02*
Y220500D01*
X60500D01*
X462000Y-19250D02*
Y55250D01*
X568000Y-19250D02*
Y55250D01*
X547000D02*
X568000D01*
X548440Y-98050D02*
Y-19250D01*
X481560Y-98050D02*
Y-19250D01*
Y-98050D02*
X548440D01*
X462000Y-19250D02*
X481560D01*
X548440D02*
X568000D01*
X483000Y2250D02*
Y55250D01*
X547000Y2250D02*
Y55250D01*
X462000D02*
X483000D01*
X525000Y2250D02*
X547000D01*
X483000D02*
X505000D01*
Y26750D01*
X525000D01*
Y2250D02*
Y26750D01*
X623250Y196500D02*
X647750D01*
X623250Y176500D02*
Y196500D01*
Y176500D02*
X647750D01*
Y154500D02*
Y176500D01*
Y196500D02*
Y218500D01*
X594750Y133500D02*
Y154500D01*
Y218500D02*
X647750D01*
X594750Y154500D02*
X647750D01*
X669250Y219940D02*
Y239500D01*
Y133500D02*
Y153060D01*
X748050D02*
Y219940D01*
X669250Y153060D02*
X748050D01*
X669250Y219940D02*
X748050D01*
X594750Y218500D02*
Y239500D01*
X669250D01*
X594750Y133500D02*
X669250D01*
D16*
X611500Y116498D02*
Y109500D01*
Y111833D01*
X616165Y116498D01*
X612666Y112999D01*
X616165Y109500D01*
X621997D02*
Y116498D01*
X618498Y112999D01*
X623163D01*
X609500Y83498D02*
Y76500D01*
Y78833D01*
X614165Y83498D01*
X610666Y79999D01*
X614165Y76500D01*
X616498Y82331D02*
X617664Y83498D01*
X619997D01*
X621163Y82331D01*
Y81165D01*
X619997Y79999D01*
X618830D01*
X619997D01*
X621163Y78833D01*
Y77666D01*
X619997Y76500D01*
X617664D01*
X616498Y77666D01*
X126168Y211165D02*
X125002Y209999D01*
Y207666D01*
X126168Y206500D01*
X130834D01*
X132000Y207666D01*
Y209999D01*
X130834Y211165D01*
X125002Y218163D02*
Y213498D01*
X128501D01*
X127335Y215830D01*
Y216997D01*
X128501Y218163D01*
X130834D01*
X132000Y216997D01*
Y214664D01*
X130834Y213498D01*
X125002Y225161D02*
X126168Y222828D01*
X128501Y220495D01*
X130834D01*
X132000Y221662D01*
Y223994D01*
X130834Y225161D01*
X129667D01*
X128501Y223994D01*
Y220495D01*
X586169Y180665D02*
X585002Y179499D01*
Y177166D01*
X586169Y176000D01*
X590834D01*
X592000Y177166D01*
Y179499D01*
X590834Y180665D01*
X586169Y182998D02*
X585002Y184164D01*
Y186497D01*
X586169Y187663D01*
X587335D01*
X588501Y186497D01*
Y185330D01*
Y186497D01*
X589667Y187663D01*
X590834D01*
X592000Y186497D01*
Y184164D01*
X590834Y182998D01*
X585002Y194661D02*
Y189995D01*
X588501D01*
X587335Y192328D01*
Y193494D01*
X588501Y194661D01*
X590834D01*
X592000Y193494D01*
Y191162D01*
X590834Y189995D01*
X507668Y169665D02*
X506502Y168499D01*
Y166166D01*
X507668Y165000D01*
X512334D01*
X513500Y166166D01*
Y168499D01*
X512334Y169665D01*
X507668Y171998D02*
X506502Y173164D01*
Y175497D01*
X507668Y176663D01*
X508835D01*
X510001Y175497D01*
Y174330D01*
Y175497D01*
X511167Y176663D01*
X512334D01*
X513500Y175497D01*
Y173164D01*
X512334Y171998D01*
X506502Y183661D02*
X507668Y181328D01*
X510001Y178995D01*
X512334D01*
X513500Y180162D01*
Y182494D01*
X512334Y183661D01*
X511167D01*
X510001Y182494D01*
Y178995D01*
X539500Y162998D02*
X541833D01*
X540666D01*
Y156000D01*
X539500D01*
X541833D01*
X549996Y161831D02*
X548830Y162998D01*
X546498D01*
X545331Y161831D01*
Y157166D01*
X546498Y156000D01*
X548830D01*
X549996Y157166D01*
X552329Y161831D02*
X553495Y162998D01*
X555828D01*
X556994Y161831D01*
Y160665D01*
X555828Y159499D01*
X556994Y158333D01*
Y157166D01*
X555828Y156000D01*
X553495D01*
X552329Y157166D01*
Y158333D01*
X553495Y159499D01*
X552329Y160665D01*
Y161831D01*
X553495Y159499D02*
X555828D01*
X554000Y88998D02*
Y82000D01*
X557499D01*
X558665Y83166D01*
Y87831D01*
X557499Y88998D01*
X554000D01*
X564497Y82000D02*
Y88998D01*
X560998Y85499D01*
X565663D01*
X517500Y89498D02*
Y82500D01*
X520999D01*
X522165Y83666D01*
Y88331D01*
X520999Y89498D01*
X517500D01*
X524498Y88331D02*
X525664Y89498D01*
X527997D01*
X529163Y88331D01*
Y87165D01*
X527997Y85999D01*
X526830D01*
X527997D01*
X529163Y84833D01*
Y83666D01*
X527997Y82500D01*
X525664D01*
X524498Y83666D01*
X474000Y174498D02*
Y167500D01*
X477499D01*
X478665Y168666D01*
Y173332D01*
X477499Y174498D01*
X474000D01*
X485663Y167500D02*
X480998D01*
X485663Y172165D01*
Y173332D01*
X484496Y174498D01*
X482164D01*
X480998Y173332D01*
X390125Y161170D02*
Y168168D01*
X393624D01*
X394791Y167002D01*
Y164669D01*
X393624Y163503D01*
X390125D01*
X392458D02*
X394791Y161170D01*
X397123D02*
X399456D01*
X398289D01*
Y168168D01*
X397123Y167002D01*
X402955D02*
X404121Y168168D01*
X406454D01*
X407620Y167002D01*
Y162337D01*
X406454Y161170D01*
X404121D01*
X402955Y162337D01*
Y167002D01*
X393784Y142878D02*
Y149876D01*
X397283D01*
X398449Y148710D01*
Y146377D01*
X397283Y145211D01*
X393784D01*
X396116D02*
X398449Y142878D01*
X400782Y144045D02*
X401948Y142878D01*
X404281D01*
X405447Y144045D01*
Y148710D01*
X404281Y149876D01*
X401948D01*
X400782Y148710D01*
Y147543D01*
X401948Y146377D01*
X405447D01*
X392000Y182000D02*
Y188998D01*
X395499D01*
X396665Y187831D01*
Y185499D01*
X395499Y184333D01*
X392000D01*
X394333D02*
X396665Y182000D01*
X398998Y187831D02*
X400164Y188998D01*
X402497D01*
X403663Y187831D01*
Y186665D01*
X402497Y185499D01*
X403663Y184333D01*
Y183166D01*
X402497Y182000D01*
X400164D01*
X398998Y183166D01*
Y184333D01*
X400164Y185499D01*
X398998Y186665D01*
Y187831D01*
X400164Y185499D02*
X402497D01*
X390501Y200500D02*
Y207498D01*
X394000D01*
X395166Y206332D01*
Y203999D01*
X394000Y202833D01*
X390501D01*
X392834D02*
X395166Y200500D01*
X400998D02*
Y207498D01*
X397499Y203999D01*
X402164D01*
X312000Y183998D02*
X314333D01*
X313166D01*
Y177000D01*
X312000D01*
X314333D01*
X322496Y182831D02*
X321330Y183998D01*
X318998D01*
X317831Y182831D01*
Y178166D01*
X318998Y177000D01*
X321330D01*
X322496Y178166D01*
X328328Y177000D02*
Y183998D01*
X324829Y180499D01*
X329494D01*
X352500Y38998D02*
Y32000D01*
X357165D01*
X364163Y38998D02*
X359498D01*
Y35499D01*
X361830Y36665D01*
X362997D01*
X364163Y35499D01*
Y33166D01*
X362997Y32000D01*
X360664D01*
X359498Y33166D01*
X476000Y143498D02*
Y136500D01*
X480665D01*
X482998Y142331D02*
X484164Y143498D01*
X486497D01*
X487663Y142331D01*
Y141165D01*
X486497Y139999D01*
X485330D01*
X486497D01*
X487663Y138832D01*
Y137666D01*
X486497Y136500D01*
X484164D01*
X482998Y137666D01*
X323473Y59998D02*
Y53000D01*
X328138D01*
X335136D02*
X330471D01*
X335136Y57665D01*
Y58832D01*
X333970Y59998D01*
X331637D01*
X330471Y58832D01*
X303500Y60998D02*
Y54000D01*
X308165D01*
X310498D02*
X312830D01*
X311664D01*
Y60998D01*
X310498Y59832D01*
X267125Y235123D02*
Y228125D01*
X270624D01*
X271790Y229291D01*
Y233957D01*
X270624Y235123D01*
X267125D01*
X274123Y228125D02*
X276455D01*
X275289D01*
Y235123D01*
X274123Y233957D01*
X205500Y72998D02*
X207833D01*
X206666D01*
Y66000D01*
X205500D01*
X207833D01*
X215996Y71831D02*
X214830Y72998D01*
X212498D01*
X211331Y71831D01*
Y67166D01*
X212498Y66000D01*
X214830D01*
X215996Y67166D01*
X218329Y72998D02*
X222994D01*
Y71831D01*
X218329Y67166D01*
Y66000D01*
X391500Y73998D02*
X393833D01*
X392666D01*
Y67000D01*
X391500D01*
X393833D01*
X401997Y72832D02*
X400830Y73998D01*
X398498D01*
X397331Y72832D01*
Y68166D01*
X398498Y67000D01*
X400830D01*
X401997Y68166D01*
X408994Y73998D02*
X406662Y72832D01*
X404329Y70499D01*
Y68166D01*
X405495Y67000D01*
X407828D01*
X408994Y68166D01*
Y69333D01*
X407828Y70499D01*
X404329D01*
X203000Y166498D02*
X205333D01*
X204166D01*
Y159500D01*
X203000D01*
X205333D01*
X213497Y165331D02*
X212330Y166498D01*
X209998D01*
X208831Y165331D01*
Y160666D01*
X209998Y159500D01*
X212330D01*
X213497Y160666D01*
X215829Y159500D02*
X218162D01*
X216995D01*
Y166498D01*
X215829Y165331D01*
X60215Y190745D02*
Y183748D01*
X64880D01*
X71878Y190745D02*
X67213D01*
Y183748D01*
X71878D01*
X67213Y187246D02*
X69545D01*
X74211Y190745D02*
Y183748D01*
X77709D01*
X78876Y184914D01*
Y189579D01*
X77709Y190745D01*
X74211D01*
X85874Y183748D02*
X81208D01*
X85874Y188413D01*
Y189579D01*
X84707Y190745D01*
X82375D01*
X81208Y189579D01*
X385668Y17165D02*
X384502Y15999D01*
Y13666D01*
X385668Y12500D01*
X390334D01*
X391500Y13666D01*
Y15999D01*
X390334Y17165D01*
X384502Y24163D02*
Y19498D01*
X388001D01*
X386835Y21830D01*
Y22997D01*
X388001Y24163D01*
X390334D01*
X391500Y22997D01*
Y20664D01*
X390334Y19498D01*
X391500Y26495D02*
Y28828D01*
Y27662D01*
X384502D01*
X385668Y26495D01*
X373168Y17165D02*
X372002Y15999D01*
Y13666D01*
X373168Y12500D01*
X377834D01*
X379000Y13666D01*
Y15999D01*
X377834Y17165D01*
X372002Y24163D02*
Y19498D01*
X375501D01*
X374335Y21830D01*
Y22997D01*
X375501Y24163D01*
X377834D01*
X379000Y22997D01*
Y20664D01*
X377834Y19498D01*
X373168Y26495D02*
X372002Y27662D01*
Y29994D01*
X373168Y31161D01*
X377834D01*
X379000Y29994D01*
Y27662D01*
X377834Y26495D01*
X373168D01*
X350665Y68331D02*
X349499Y69498D01*
X347166D01*
X346000Y68331D01*
Y63666D01*
X347166Y62500D01*
X349499D01*
X350665Y63666D01*
X356497Y62500D02*
Y69498D01*
X352998Y65999D01*
X357663D01*
X359995Y69498D02*
X364661D01*
Y68331D01*
X359995Y63666D01*
Y62500D01*
X350665Y55332D02*
X349499Y56498D01*
X347166D01*
X346000Y55332D01*
Y50666D01*
X347166Y49500D01*
X349499D01*
X350665Y50666D01*
X356497Y49500D02*
Y56498D01*
X352998Y52999D01*
X357663D01*
X364661Y56498D02*
X362328Y55332D01*
X359995Y52999D01*
Y50666D01*
X361162Y49500D01*
X363494D01*
X364661Y50666D01*
Y51833D01*
X363494Y52999D01*
X359995D01*
X347847Y106379D02*
X346681Y105212D01*
Y102880D01*
X347847Y101714D01*
X352512D01*
X353679Y102880D01*
Y105212D01*
X352512Y106379D01*
X353679Y112210D02*
X346681D01*
X350180Y108711D01*
Y113377D01*
X353679Y115709D02*
Y118042D01*
Y116875D01*
X346681D01*
X347847Y115709D01*
X389108Y123363D02*
X387942Y124529D01*
X385610D01*
X384443Y123363D01*
Y118697D01*
X385610Y117531D01*
X387942D01*
X389108Y118697D01*
X394940Y117531D02*
Y124529D01*
X391441Y121030D01*
X396106D01*
X398439Y123363D02*
X399605Y124529D01*
X401938D01*
X403104Y123363D01*
Y118697D01*
X401938Y117531D01*
X399605D01*
X398439Y118697D01*
Y123363D01*
X389159Y110838D02*
X387992Y112004D01*
X385660D01*
X384493Y110838D01*
Y106173D01*
X385660Y105007D01*
X387992D01*
X389159Y106173D01*
X391491Y110838D02*
X392657Y112004D01*
X394990D01*
X396156Y110838D01*
Y109672D01*
X394990Y108505D01*
X393824D01*
X394990D01*
X396156Y107339D01*
Y106173D01*
X394990Y105007D01*
X392657D01*
X391491Y106173D01*
X398489D02*
X399655Y105007D01*
X401988D01*
X403154Y106173D01*
Y110838D01*
X401988Y112004D01*
X399655D01*
X398489Y110838D01*
Y109672D01*
X399655Y108505D01*
X403154D01*
X542665Y209832D02*
X541499Y210998D01*
X539166D01*
X538000Y209832D01*
Y205166D01*
X539166Y204000D01*
X541499D01*
X542665Y205166D01*
X544998Y209832D02*
X546164Y210998D01*
X548497D01*
X549663Y209832D01*
Y208665D01*
X548497Y207499D01*
X547330D01*
X548497D01*
X549663Y206333D01*
Y205166D01*
X548497Y204000D01*
X546164D01*
X544998Y205166D01*
X556661Y204000D02*
X551995D01*
X556661Y208665D01*
Y209832D01*
X555494Y210998D01*
X553162D01*
X551995Y209832D01*
X259553Y59513D02*
X258387Y60679D01*
X256054D01*
X254888Y59513D01*
Y54848D01*
X256054Y53682D01*
X258387D01*
X259553Y54848D01*
X261886Y59513D02*
X263052Y60679D01*
X265385D01*
X266551Y59513D01*
Y58347D01*
X265385Y57180D01*
X264218D01*
X265385D01*
X266551Y56014D01*
Y54848D01*
X265385Y53682D01*
X263052D01*
X261886Y54848D01*
X268884Y53682D02*
X271216D01*
X270050D01*
Y60679D01*
X268884Y59513D01*
X437669Y77915D02*
X436503Y76748D01*
Y74416D01*
X437669Y73250D01*
X442334D01*
X443501Y74416D01*
Y76748D01*
X442334Y77915D01*
X437669Y80247D02*
X436503Y81414D01*
Y83746D01*
X437669Y84913D01*
X438835D01*
X440002Y83746D01*
Y82580D01*
Y83746D01*
X441168Y84913D01*
X442334D01*
X443501Y83746D01*
Y81414D01*
X442334Y80247D01*
X437669Y87245D02*
X436503Y88412D01*
Y90744D01*
X437669Y91910D01*
X442334D01*
X443501Y90744D01*
Y88412D01*
X442334Y87245D01*
X437669D01*
X449669Y77915D02*
X448503Y76749D01*
Y74416D01*
X449669Y73250D01*
X454334D01*
X455501Y74416D01*
Y76749D01*
X454334Y77915D01*
X455501Y84913D02*
Y80247D01*
X450835Y84913D01*
X449669D01*
X448503Y83746D01*
Y81414D01*
X449669Y80247D01*
X454334Y87245D02*
X455501Y88412D01*
Y90744D01*
X454334Y91910D01*
X449669D01*
X448503Y90744D01*
Y88412D01*
X449669Y87245D01*
X450835D01*
X452002Y88412D01*
Y91910D01*
X491169Y88165D02*
X490002Y86999D01*
Y84666D01*
X491169Y83500D01*
X495834D01*
X497000Y84666D01*
Y86999D01*
X495834Y88165D01*
X497000Y95163D02*
Y90498D01*
X492335Y95163D01*
X491169D01*
X490002Y93997D01*
Y91664D01*
X491169Y90498D01*
Y97495D02*
X490002Y98662D01*
Y100994D01*
X491169Y102161D01*
X492335D01*
X493501Y100994D01*
X494667Y102161D01*
X495834D01*
X497000Y100994D01*
Y98662D01*
X495834Y97495D01*
X494667D01*
X493501Y98662D01*
X492335Y97495D01*
X491169D01*
X493501Y98662D02*
Y100994D01*
X330209Y72310D02*
X329042Y71144D01*
Y68811D01*
X330209Y67645D01*
X334874D01*
X336040Y68811D01*
Y71144D01*
X334874Y72310D01*
X336040Y79308D02*
Y74643D01*
X331375Y79308D01*
X330209D01*
X329042Y78141D01*
Y75809D01*
X330209Y74643D01*
X329042Y81640D02*
Y86305D01*
X330209D01*
X334874Y81640D01*
X336040D01*
X318611Y71102D02*
X317444Y69935D01*
Y67603D01*
X318611Y66437D01*
X323276D01*
X324442Y67603D01*
Y69935D01*
X323276Y71102D01*
X324442Y78100D02*
Y73434D01*
X319777Y78100D01*
X318611D01*
X317444Y76933D01*
Y74601D01*
X318611Y73434D01*
X317444Y85097D02*
X318611Y82765D01*
X320943Y80432D01*
X323276D01*
X324442Y81598D01*
Y83931D01*
X323276Y85097D01*
X322109D01*
X320943Y83931D01*
Y80432D01*
X478669Y88165D02*
X477502Y86999D01*
Y84666D01*
X478669Y83500D01*
X483334D01*
X484500Y84666D01*
Y86999D01*
X483334Y88165D01*
X484500Y95163D02*
Y90498D01*
X479835Y95163D01*
X478669D01*
X477502Y93997D01*
Y91664D01*
X478669Y90498D01*
X477502Y102161D02*
Y97495D01*
X481001D01*
X479835Y99828D01*
Y100994D01*
X481001Y102161D01*
X483334D01*
X484500Y100994D01*
Y98662D01*
X483334Y97495D01*
X235669Y17165D02*
X234502Y15999D01*
Y13666D01*
X235669Y12500D01*
X240334D01*
X241500Y13666D01*
Y15999D01*
X240334Y17165D01*
X241500Y24163D02*
Y19498D01*
X236835Y24163D01*
X235669D01*
X234502Y22997D01*
Y20664D01*
X235669Y19498D01*
X241500Y29994D02*
X234502D01*
X238001Y26495D01*
Y31161D01*
X481665Y75831D02*
X480499Y76998D01*
X478166D01*
X477000Y75831D01*
Y71166D01*
X478166Y70000D01*
X480499D01*
X481665Y71166D01*
X488663Y70000D02*
X483998D01*
X488663Y74665D01*
Y75831D01*
X487496Y76998D01*
X485164D01*
X483998Y75831D01*
X490995D02*
X492162Y76998D01*
X494494D01*
X495661Y75831D01*
Y74665D01*
X494494Y73499D01*
X493328D01*
X494494D01*
X495661Y72333D01*
Y71166D01*
X494494Y70000D01*
X492162D01*
X490995Y71166D01*
X408165Y21332D02*
X406999Y22498D01*
X404666D01*
X403500Y21332D01*
Y16666D01*
X404666Y15500D01*
X406999D01*
X408165Y16666D01*
X415163Y15500D02*
X410498D01*
X415163Y20165D01*
Y21332D01*
X413997Y22498D01*
X411664D01*
X410498Y21332D01*
X422161Y15500D02*
X417495D01*
X422161Y20165D01*
Y21332D01*
X420994Y22498D01*
X418662D01*
X417495Y21332D01*
X408969Y33832D02*
X407802Y34998D01*
X405470D01*
X404303Y33832D01*
Y29166D01*
X405470Y28000D01*
X407802D01*
X408969Y29166D01*
X415966Y28000D02*
X411301D01*
X415966Y32665D01*
Y33832D01*
X414800Y34998D01*
X412467D01*
X411301Y33832D01*
X418299Y28000D02*
X420631D01*
X419465D01*
Y34998D01*
X418299Y33832D01*
X170669Y24665D02*
X169502Y23499D01*
Y21166D01*
X170669Y20000D01*
X175334D01*
X176500Y21166D01*
Y23499D01*
X175334Y24665D01*
X176500Y31663D02*
Y26998D01*
X171835Y31663D01*
X170669D01*
X169502Y30497D01*
Y28164D01*
X170669Y26998D01*
Y33995D02*
X169502Y35162D01*
Y37494D01*
X170669Y38661D01*
X175334D01*
X176500Y37494D01*
Y35162D01*
X175334Y33995D01*
X170669D01*
X182668Y24665D02*
X181502Y23499D01*
Y21166D01*
X182668Y20000D01*
X187334D01*
X188500Y21166D01*
Y23499D01*
X187334Y24665D01*
X188500Y26998D02*
Y29330D01*
Y28164D01*
X181502D01*
X182668Y26998D01*
X187334Y32829D02*
X188500Y33995D01*
Y36328D01*
X187334Y37494D01*
X182668D01*
X181502Y36328D01*
Y33995D01*
X182668Y32829D01*
X183835D01*
X185001Y33995D01*
Y37494D01*
X202169Y15665D02*
X201002Y14499D01*
Y12166D01*
X202169Y11000D01*
X206834D01*
X208000Y12166D01*
Y14499D01*
X206834Y15665D01*
X208000Y17998D02*
Y20330D01*
Y19164D01*
X201002D01*
X202169Y17998D01*
Y23829D02*
X201002Y24996D01*
Y27328D01*
X202169Y28494D01*
X203335D01*
X204501Y27328D01*
X205667Y28494D01*
X206834D01*
X208000Y27328D01*
Y24996D01*
X206834Y23829D01*
X205667D01*
X204501Y24996D01*
X203335Y23829D01*
X202169D01*
X204501Y24996D02*
Y27328D01*
X275665Y116832D02*
X274499Y117998D01*
X272166D01*
X271000Y116832D01*
Y112166D01*
X272166Y111000D01*
X274499D01*
X275665Y112166D01*
X277998Y111000D02*
X280330D01*
X279164D01*
Y117998D01*
X277998Y116832D01*
X283829Y117998D02*
X288494D01*
Y116832D01*
X283829Y112166D01*
Y111000D01*
X330165Y136332D02*
X328999Y137498D01*
X326666D01*
X325500Y136332D01*
Y131666D01*
X326666Y130500D01*
X328999D01*
X330165Y131666D01*
X332498Y130500D02*
X334830D01*
X333664D01*
Y137498D01*
X332498Y136332D01*
X342994Y137498D02*
X340662Y136332D01*
X338329Y133999D01*
Y131666D01*
X339495Y130500D01*
X341828D01*
X342994Y131666D01*
Y132833D01*
X341828Y133999D01*
X338329D01*
X260665Y211831D02*
X259499Y212998D01*
X257166D01*
X256000Y211831D01*
Y207166D01*
X257166Y206000D01*
X259499D01*
X260665Y207166D01*
X262998D02*
X264164Y206000D01*
X266497D01*
X267663Y207166D01*
Y211831D01*
X266497Y212998D01*
X264164D01*
X262998Y211831D01*
Y210665D01*
X264164Y209499D01*
X267663D01*
X260669Y186165D02*
X259502Y184999D01*
Y182666D01*
X260669Y181500D01*
X265334D01*
X266500Y182666D01*
Y184999D01*
X265334Y186165D01*
X266500Y193163D02*
Y188498D01*
X261835Y193163D01*
X260669D01*
X259502Y191997D01*
Y189664D01*
X260669Y188498D01*
X272169Y186165D02*
X271002Y184999D01*
Y182666D01*
X272169Y181500D01*
X276834D01*
X278000Y182666D01*
Y184999D01*
X276834Y186165D01*
X278000Y188498D02*
Y190830D01*
Y189664D01*
X271002D01*
X272169Y188498D01*
X58165Y92831D02*
X56999Y93998D01*
X54666D01*
X53500Y92831D01*
Y91665D01*
X54666Y90499D01*
X56999D01*
X58165Y89333D01*
Y88166D01*
X56999Y87000D01*
X54666D01*
X53500Y88166D01*
X60498Y93998D02*
Y87000D01*
X62830Y89333D01*
X65163Y87000D01*
Y93998D01*
X72161Y87000D02*
X67495D01*
X72161Y91665D01*
Y92831D01*
X70994Y93998D01*
X68662D01*
X67495Y92831D01*
X58665Y133832D02*
X57499Y134998D01*
X55166D01*
X54000Y133832D01*
Y132665D01*
X55166Y131499D01*
X57499D01*
X58665Y130333D01*
Y129166D01*
X57499Y128000D01*
X55166D01*
X54000Y129166D01*
X60998Y134998D02*
Y128000D01*
X63330Y130333D01*
X65663Y128000D01*
Y134998D01*
X67995Y128000D02*
X70328D01*
X69162D01*
Y134998D01*
X67995Y133832D01*
X108000Y118500D02*
X101002D01*
Y121999D01*
X102169Y123165D01*
X104501D01*
X105667Y121999D01*
Y118500D01*
Y120833D02*
X108000Y123165D01*
Y130163D02*
Y125498D01*
X103335Y130163D01*
X102169D01*
X101002Y128997D01*
Y126664D01*
X102169Y125498D01*
X101002Y137161D02*
X102169Y134828D01*
X104501Y132495D01*
X106834D01*
X108000Y133662D01*
Y135994D01*
X106834Y137161D01*
X105667D01*
X104501Y135994D01*
Y132495D01*
X616000Y173000D02*
X609002D01*
Y176499D01*
X610168Y177665D01*
X612501D01*
X613667Y176499D01*
Y173000D01*
Y175333D02*
X616000Y177665D01*
Y184663D02*
Y179998D01*
X611335Y184663D01*
X610168D01*
X609002Y183497D01*
Y181164D01*
X610168Y179998D01*
Y186996D02*
X609002Y188162D01*
Y190494D01*
X610168Y191661D01*
X611335D01*
X612501Y190494D01*
Y189328D01*
Y190494D01*
X613667Y191661D01*
X614834D01*
X616000Y190494D01*
Y188162D01*
X614834Y186996D01*
X509000Y48000D02*
Y54998D01*
X512499D01*
X513665Y53832D01*
Y51499D01*
X512499Y50333D01*
X509000D01*
X511333D02*
X513665Y48000D01*
X520663D02*
X515998D01*
X520663Y52665D01*
Y53832D01*
X519496Y54998D01*
X517164D01*
X515998Y53832D01*
X527661Y48000D02*
X522995D01*
X527661Y52665D01*
Y53832D01*
X526494Y54998D01*
X524162D01*
X522995Y53832D01*
X107000Y77000D02*
X100002D01*
Y80499D01*
X101168Y81665D01*
X103501D01*
X104667Y80499D01*
Y77000D01*
Y79333D02*
X107000Y81665D01*
Y88663D02*
Y83998D01*
X102335Y88663D01*
X101168D01*
X100002Y87497D01*
Y85164D01*
X101168Y83998D01*
X107000Y90996D02*
Y93328D01*
Y92162D01*
X100002D01*
X101168Y90996D01*
X346530Y76101D02*
Y83099D01*
X350029D01*
X351195Y81933D01*
Y79600D01*
X350029Y78434D01*
X346530D01*
X348863D02*
X351195Y76101D01*
X358193D02*
X353528D01*
X358193Y80767D01*
Y81933D01*
X357027Y83099D01*
X354694D01*
X353528Y81933D01*
X360526D02*
X361692Y83099D01*
X364025D01*
X365191Y81933D01*
Y77268D01*
X364025Y76101D01*
X361692D01*
X360526Y77268D01*
Y81933D01*
X346047Y88666D02*
Y95664D01*
X349546D01*
X350712Y94497D01*
Y92165D01*
X349546Y90998D01*
X346047D01*
X348380D02*
X350712Y88666D01*
X353045D02*
X355377D01*
X354211D01*
Y95664D01*
X353045Y94497D01*
X358876Y89832D02*
X360042Y88666D01*
X362375D01*
X363541Y89832D01*
Y94497D01*
X362375Y95664D01*
X360042D01*
X358876Y94497D01*
Y93331D01*
X360042Y92165D01*
X363541D01*
X245750Y11501D02*
Y18498D01*
X249249D01*
X250415Y17332D01*
Y15000D01*
X249249Y13833D01*
X245750D01*
X248083D02*
X250415Y11501D01*
X252748D02*
X255081D01*
X253914D01*
Y18498D01*
X252748Y17332D01*
X258580D02*
X259746Y18498D01*
X262078D01*
X263245Y17332D01*
Y16166D01*
X262078Y15000D01*
X263245Y13833D01*
Y12667D01*
X262078Y11501D01*
X259746D01*
X258580Y12667D01*
Y13833D01*
X259746Y15000D01*
X258580Y16166D01*
Y17332D01*
X259746Y15000D02*
X262078D01*
X438500Y49000D02*
Y55998D01*
X441999D01*
X443165Y54832D01*
Y52499D01*
X441999Y51333D01*
X438500D01*
X440832D02*
X443165Y49000D01*
X445498D02*
X447830D01*
X446664D01*
Y55998D01*
X445498Y54832D01*
X451329Y55998D02*
X455994D01*
Y54832D01*
X451329Y50166D01*
Y49000D01*
X220000Y11000D02*
X213002D01*
Y14499D01*
X214168Y15665D01*
X216501D01*
X217667Y14499D01*
Y11000D01*
Y13333D02*
X220000Y15665D01*
Y17998D02*
Y20330D01*
Y19164D01*
X213002D01*
X214168Y17998D01*
X213002Y28494D02*
X214168Y26162D01*
X216501Y23829D01*
X218834D01*
X220000Y24996D01*
Y27328D01*
X218834Y28494D01*
X217667D01*
X216501Y27328D01*
Y23829D01*
X245670Y23267D02*
Y30265D01*
X249168D01*
X250335Y29099D01*
Y26766D01*
X249168Y25600D01*
X245670D01*
X248002D02*
X250335Y23267D01*
X252667D02*
X255000D01*
X253834D01*
Y30265D01*
X252667Y29099D01*
X263164Y30265D02*
X258499D01*
Y26766D01*
X260831Y27933D01*
X261998D01*
X263164Y26766D01*
Y24434D01*
X261998Y23267D01*
X259665D01*
X258499Y24434D01*
X356500Y225000D02*
Y231998D01*
X359999D01*
X361165Y230832D01*
Y228499D01*
X359999Y227333D01*
X356500D01*
X358833D02*
X361165Y225000D01*
X363498D02*
X365830D01*
X364664D01*
Y231998D01*
X363498Y230832D01*
X372828Y225000D02*
Y231998D01*
X369329Y228499D01*
X373994D01*
X334000Y225000D02*
Y231998D01*
X337499D01*
X338665Y230832D01*
Y228499D01*
X337499Y227333D01*
X334000D01*
X336333D02*
X338665Y225000D01*
X340998D02*
X343330D01*
X342164D01*
Y231998D01*
X340998Y230832D01*
X346829D02*
X347995Y231998D01*
X350328D01*
X351494Y230832D01*
Y229665D01*
X350328Y228499D01*
X349162D01*
X350328D01*
X351494Y227333D01*
Y226166D01*
X350328Y225000D01*
X347995D01*
X346829Y226166D01*
X97500Y175500D02*
Y182498D01*
X100999D01*
X102165Y181332D01*
Y178999D01*
X100999Y177833D01*
X97500D01*
X99832D02*
X102165Y175500D01*
X104498Y182498D02*
X109163D01*
Y181332D01*
X104498Y176666D01*
Y175500D01*
X223500Y219000D02*
X216502D01*
Y222499D01*
X217668Y223665D01*
X220001D01*
X221167Y222499D01*
Y219000D01*
Y221333D02*
X223500Y223665D01*
X216502Y230663D02*
X217668Y228330D01*
X220001Y225998D01*
X222334D01*
X223500Y227164D01*
Y229497D01*
X222334Y230663D01*
X221167D01*
X220001Y229497D01*
Y225998D01*
X97500Y193500D02*
Y200498D01*
X100999D01*
X102165Y199331D01*
Y196999D01*
X100999Y195833D01*
X97500D01*
X99832D02*
X102165Y193500D01*
X109163Y200498D02*
X104498D01*
Y196999D01*
X106830Y198165D01*
X107997D01*
X109163Y196999D01*
Y194666D01*
X107997Y193500D01*
X105664D01*
X104498Y194666D01*
X68000Y212000D02*
Y218998D01*
X71499D01*
X72665Y217831D01*
Y215499D01*
X71499Y214333D01*
X68000D01*
X70332D02*
X72665Y212000D01*
X79663D02*
X74998D01*
X79663Y216665D01*
Y217831D01*
X78496Y218998D01*
X76164D01*
X74998Y217831D01*
X46251Y212500D02*
Y219498D01*
X49749D01*
X50916Y218332D01*
Y215999D01*
X49749Y214833D01*
X46251D01*
X48583D02*
X50916Y212500D01*
X53248D02*
X55581D01*
X54415D01*
Y219498D01*
X53248Y218332D01*
X281000Y99998D02*
X283333D01*
X282166D01*
Y93000D01*
X281000D01*
X283333D01*
X291497Y98832D02*
X290330Y99998D01*
X287998D01*
X286831Y98832D01*
Y94166D01*
X287998Y93000D01*
X290330D01*
X291497Y94166D01*
X298494Y99998D02*
X293829D01*
Y96499D01*
X296162Y97665D01*
X297328D01*
X298494Y96499D01*
Y94166D01*
X297328Y93000D01*
X294995D01*
X293829Y94166D01*
D105*
X514980Y114320D02*
Y200680D01*
Y114320D02*
X581020D01*
Y200680D01*
X514980D02*
X581020D01*
X578000Y67000D02*
Y104000D01*
X543000Y67000D02*
X578000D01*
X543000D02*
Y104000D01*
X578000D01*
X540500Y67000D02*
Y104000D01*
X505500Y67000D02*
X540500D01*
X505500D02*
Y104000D01*
X540500D01*
X498499Y152501D02*
Y189501D01*
X463499Y152501D02*
X498499D01*
X463499D02*
Y189501D01*
X498499D01*
X446999Y137499D02*
Y155999D01*
X413499D02*
X446999D01*
X413499Y137499D02*
Y155999D01*
Y137499D02*
X446999D01*
X446999Y175499D02*
Y193999D01*
X413499D02*
X446999D01*
X413499Y175499D02*
Y193999D01*
Y175499D02*
X446999D01*
X446999Y156499D02*
Y174999D01*
X413499D02*
X446999D01*
X413499Y156499D02*
Y174999D01*
Y156499D02*
X446999D01*
X446999Y194499D02*
Y212999D01*
X413499D02*
X446999D01*
X413499Y194499D02*
Y212999D01*
Y194499D02*
X446999D01*
X382749Y157249D02*
Y172249D01*
X412749Y157249D02*
Y172249D01*
X382749D02*
X412749D01*
X382749Y157249D02*
X412749D01*
X394749Y164749D02*
X400749D01*
X397749Y161749D02*
Y167749D01*
X382749Y138749D02*
Y153750D01*
X412749Y138749D02*
Y153750D01*
X382749D02*
X412749D01*
X382749Y138749D02*
X412749D01*
X394749Y146249D02*
X400749D01*
X397749Y143249D02*
Y149249D01*
X382749Y177249D02*
Y192250D01*
X412749Y177249D02*
Y192250D01*
X382749D02*
X412749D01*
X382749Y177249D02*
X412749D01*
X394749Y184749D02*
X400749D01*
X397749Y181749D02*
Y187749D01*
X382749Y195749D02*
Y210749D01*
X412749Y195749D02*
Y210749D01*
X382749D02*
X412749D01*
X382749Y195749D02*
X412749D01*
X394749Y203249D02*
X400749D01*
X397749Y200249D02*
Y206249D01*
X348000Y143750D02*
Y218250D01*
X293000Y143750D02*
X348000D01*
X293000D02*
Y218250D01*
X348000D01*
X357500Y19500D02*
Y29500D01*
X352500Y24500D02*
X362500D01*
X347500Y42000D02*
X367500D01*
Y7000D02*
Y42000D01*
X347500Y7000D02*
X367500D01*
X347500D02*
Y42000D01*
X477500Y139500D02*
X487500D01*
X482500Y134500D02*
Y144500D01*
X465000Y129500D02*
Y149500D01*
X500000D01*
Y129500D02*
Y149500D01*
X465000Y129500D02*
X500000D01*
X329000Y41000D02*
Y51000D01*
X324000Y46000D02*
X334000D01*
X319000Y63500D02*
X339000D01*
Y28500D02*
Y63500D01*
X319000Y28500D02*
X339000D01*
X319000D02*
Y63500D01*
X309000Y41000D02*
Y51000D01*
X304000Y46000D02*
X314000D01*
X299000Y63500D02*
X319000D01*
Y28500D02*
Y63500D01*
X299000Y28500D02*
X319000D01*
X299000D02*
Y63500D01*
X244750Y236250D02*
X279250D01*
Y216750D02*
Y236250D01*
X244750Y216750D02*
X279250D01*
X244750D02*
Y236250D01*
X182200Y37200D02*
Y99800D01*
X244800D01*
Y37200D02*
Y99800D01*
X182200Y37200D02*
X244800D01*
X368700Y38200D02*
Y100800D01*
X431300D01*
Y38200D02*
Y100800D01*
X368700Y38200D02*
X431300D01*
X169250Y121250D02*
X251750D01*
Y203750D01*
X169250D02*
X251750D01*
X169250Y121250D02*
Y203750D01*
X267250Y108000D02*
X309450D01*
Y83000D02*
Y108000D01*
X267250Y83000D02*
X309450D01*
X267250D02*
Y108000D01*
D108*
X323100Y257520D02*
Y272515D01*
X330597D01*
X333097Y270016D01*
Y265018D01*
X330597Y262519D01*
X323100D01*
X338095Y257520D02*
X343093D01*
X340594D01*
Y272515D01*
X338095Y270016D01*
D109*
X414300Y153799D02*
Y149800D01*
X416966D01*
X420965Y153799D02*
X418299D01*
Y149800D01*
X420965D01*
X418299Y151799D02*
X419632D01*
X422297Y153799D02*
Y149800D01*
X424297D01*
X424963Y150466D01*
Y153132D01*
X424297Y153799D01*
X422297D01*
X428962D02*
X426296D01*
Y151799D01*
X427629Y152466D01*
X428295D01*
X428962Y151799D01*
Y150466D01*
X428295Y149800D01*
X426963D01*
X426296Y150466D01*
X414300Y191799D02*
Y187800D01*
X416966D01*
X420965Y191799D02*
X418299D01*
Y187800D01*
X420965D01*
X418299Y189799D02*
X419632D01*
X422297Y191799D02*
Y187800D01*
X424297D01*
X424963Y188466D01*
Y191132D01*
X424297Y191799D01*
X422297D01*
X426296Y191132D02*
X426963Y191799D01*
X428295D01*
X428962Y191132D01*
Y190466D01*
X428295Y189799D01*
X427629D01*
X428295D01*
X428962Y189133D01*
Y188466D01*
X428295Y187800D01*
X426963D01*
X426296Y188466D01*
X414300Y172799D02*
Y168800D01*
X416966D01*
X420965Y172799D02*
X418299D01*
Y168800D01*
X420965D01*
X418299Y170799D02*
X419632D01*
X422297Y172799D02*
Y168800D01*
X424297D01*
X424963Y169466D01*
Y172132D01*
X424297Y172799D01*
X422297D01*
X428295Y168800D02*
Y172799D01*
X426296Y170799D01*
X428962D01*
X414300Y210799D02*
Y206800D01*
X416966D01*
X420965Y210799D02*
X418299D01*
Y206800D01*
X420965D01*
X418299Y208799D02*
X419632D01*
X422297Y210799D02*
Y206800D01*
X424297D01*
X424963Y207467D01*
Y210132D01*
X424297Y210799D01*
X422297D01*
X426296Y206800D02*
X427629D01*
X426963D01*
Y210799D01*
X426296Y210132D01*
D110*
X143165Y223832D02*
X141999Y224998D01*
X139666D01*
X138500Y223832D01*
Y219166D01*
X139666Y218000D01*
X141999D01*
X143165Y219166D01*
Y221499D01*
X140833D01*
X145498Y218000D02*
X147830D01*
X146664D01*
Y224998D01*
X145498Y223832D01*
M02*
