G04*
G04 #@! TF.GenerationSoftware,Altium Limited,Altium Designer,21.2.2 (38)*
G04*
G04 Layer_Color=8388736*
%FSLAX44Y44*%
%MOMM*%
G71*
G04*
G04 #@! TF.SameCoordinates,E197076A-8C22-4D41-9B62-958370782F32*
G04*
G04*
G04 #@! TF.FilePolarity,Negative*
G04*
G01*
G75*
%ADD41R,0.7000X0.6000*%
%ADD42C,0.3000*%
%ADD43R,0.7500X1.2000*%
%ADD44R,0.9500X1.0500*%
%ADD45R,0.9000X0.9000*%
%ADD46R,0.7500X1.6250*%
%ADD47R,1.3500X1.0000*%
%ADD48R,1.0000X1.3500*%
%ADD49R,0.9500X1.1500*%
%ADD50R,3.5500X3.5500*%
G04:AMPARAMS|DCode=51|XSize=0.96mm|YSize=0.36mm|CornerRadius=0.0825mm|HoleSize=0mm|Usage=FLASHONLY|Rotation=180.000|XOffset=0mm|YOffset=0mm|HoleType=Round|Shape=RoundedRectangle|*
%AMROUNDEDRECTD51*
21,1,0.9600,0.1950,0,0,180.0*
21,1,0.7950,0.3600,0,0,180.0*
1,1,0.1650,-0.3975,0.0975*
1,1,0.1650,0.3975,0.0975*
1,1,0.1650,0.3975,-0.0975*
1,1,0.1650,-0.3975,-0.0975*
%
%ADD51ROUNDEDRECTD51*%
G04:AMPARAMS|DCode=52|XSize=0.96mm|YSize=0.36mm|CornerRadius=0.0825mm|HoleSize=0mm|Usage=FLASHONLY|Rotation=90.000|XOffset=0mm|YOffset=0mm|HoleType=Round|Shape=RoundedRectangle|*
%AMROUNDEDRECTD52*
21,1,0.9600,0.1950,0,0,90.0*
21,1,0.7950,0.3600,0,0,90.0*
1,1,0.1650,0.0975,0.3975*
1,1,0.1650,0.0975,-0.3975*
1,1,0.1650,-0.0975,-0.3975*
1,1,0.1650,-0.0975,0.3975*
%
%ADD52ROUNDEDRECTD52*%
%ADD53R,5.6000X5.6000*%
%ADD54R,0.9000X0.3000*%
%ADD55R,0.9500X0.3500*%
%ADD56R,0.3000X0.9000*%
%ADD57R,0.3500X0.9500*%
%ADD58R,1.0016X1.1016*%
%ADD59R,1.5000X1.2000*%
%ADD60R,0.6000X0.7000*%
%ADD61R,1.5500X0.8000*%
%ADD62C,0.9016*%
G04:AMPARAMS|DCode=63|XSize=0.94mm|YSize=0.37mm|CornerRadius=0.1175mm|HoleSize=0mm|Usage=FLASHONLY|Rotation=0.000|XOffset=0mm|YOffset=0mm|HoleType=Round|Shape=RoundedRectangle|*
%AMROUNDEDRECTD63*
21,1,0.9400,0.1350,0,0,0.0*
21,1,0.7050,0.3700,0,0,0.0*
1,1,0.2350,0.3525,-0.0675*
1,1,0.2350,-0.3525,-0.0675*
1,1,0.2350,-0.3525,0.0675*
1,1,0.2350,0.3525,0.0675*
%
%ADD63ROUNDEDRECTD63*%
%ADD64R,1.7250X1.5250*%
%ADD65R,0.8000X2.4500*%
%ADD66R,1.7000X5.0000*%
%ADD67R,5.0000X1.7000*%
%ADD68R,2.4500X0.8000*%
%ADD69C,1.6000*%
%ADD70R,1.6000X1.6000*%
G04:AMPARAMS|DCode=71|XSize=1.6mm|YSize=1.6mm|CornerRadius=0.275mm|HoleSize=0mm|Usage=FLASHONLY|Rotation=0.000|XOffset=0mm|YOffset=0mm|HoleType=Round|Shape=RoundedRectangle|*
%AMROUNDEDRECTD71*
21,1,1.6000,1.0500,0,0,0.0*
21,1,1.0500,1.6000,0,0,0.0*
1,1,0.5500,0.5250,-0.5250*
1,1,0.5500,-0.5250,-0.5250*
1,1,0.5500,-0.5250,0.5250*
1,1,0.5500,0.5250,0.5250*
%
%ADD71ROUNDEDRECTD71*%
%ADD72C,3.6000*%
D41*
X127999Y210251D02*
D03*
Y220750D02*
D03*
X387499Y16251D02*
D03*
Y26750D02*
D03*
X374999Y16251D02*
D03*
Y26750D02*
D03*
X350001Y113749D02*
D03*
Y103250D02*
D03*
X509501Y179249D02*
D03*
Y168750D02*
D03*
X588001Y190249D02*
D03*
Y179750D02*
D03*
X439500Y77000D02*
D03*
Y87500D02*
D03*
X451500Y77000D02*
D03*
Y87500D02*
D03*
X492999Y87251D02*
D03*
Y97750D02*
D03*
X332999Y70751D02*
D03*
Y81250D02*
D03*
X320999Y70751D02*
D03*
Y81250D02*
D03*
X480499Y87251D02*
D03*
Y97750D02*
D03*
X237499Y16251D02*
D03*
Y26750D02*
D03*
X172499Y23751D02*
D03*
Y34250D02*
D03*
X184499Y23751D02*
D03*
Y34250D02*
D03*
X204001Y25249D02*
D03*
Y14750D02*
D03*
X263501Y192749D02*
D03*
Y182250D02*
D03*
X275501Y192749D02*
D03*
Y182250D02*
D03*
X103999Y132750D02*
D03*
Y122251D02*
D03*
X611999Y187250D02*
D03*
Y176751D02*
D03*
X103999Y89250D02*
D03*
Y78751D02*
D03*
X216001Y14750D02*
D03*
Y25249D02*
D03*
X220751Y218750D02*
D03*
Y229249D02*
D03*
D42*
X568000Y125000D02*
D03*
X563000D02*
D03*
X558000D02*
D03*
X553000D02*
D03*
X548000D02*
D03*
X543000D02*
D03*
X538000D02*
D03*
X533000D02*
D03*
X528000D02*
D03*
X543000Y160000D02*
D03*
X558000Y165000D02*
D03*
X543000D02*
D03*
X563000Y185000D02*
D03*
X533000D02*
D03*
X568000Y190000D02*
D03*
X563000D02*
D03*
X558000D02*
D03*
X553000D02*
D03*
X543000D02*
D03*
X538000D02*
D03*
X533000D02*
D03*
X528000D02*
D03*
D43*
X570100Y96000D02*
D03*
X550900D02*
D03*
X560500Y75000D02*
D03*
X532600Y96000D02*
D03*
X513400D02*
D03*
X523000Y75000D02*
D03*
X490599Y181501D02*
D03*
X471399D02*
D03*
X480999Y160501D02*
D03*
D44*
X422249Y146749D02*
D03*
X438249D02*
D03*
X422249Y184749D02*
D03*
X438249D02*
D03*
X422249Y165749D02*
D03*
X438249D02*
D03*
X422249Y203749D02*
D03*
X438249D02*
D03*
D45*
X389000Y164750D02*
D03*
X406500D02*
D03*
X389000Y146250D02*
D03*
X406500D02*
D03*
X389000Y184750D02*
D03*
X406500D02*
D03*
X389000Y203250D02*
D03*
X406500D02*
D03*
D46*
X339550Y208120D02*
D03*
X326850D02*
D03*
X314150D02*
D03*
X301450D02*
D03*
Y153880D02*
D03*
X314150D02*
D03*
X326850D02*
D03*
X339550D02*
D03*
D47*
X357500Y15500D02*
D03*
Y33500D02*
D03*
X329000Y37000D02*
D03*
Y55000D02*
D03*
X309000Y37000D02*
D03*
Y55000D02*
D03*
D48*
X491500Y139500D02*
D03*
X473500D02*
D03*
D49*
X253500Y226500D02*
D03*
X270500D02*
D03*
D50*
X213500Y68500D02*
D03*
X400000Y69500D02*
D03*
D51*
X189150Y51000D02*
D03*
Y56000D02*
D03*
Y61000D02*
D03*
Y66000D02*
D03*
Y71000D02*
D03*
Y76000D02*
D03*
Y81000D02*
D03*
Y86000D02*
D03*
X237850D02*
D03*
Y81000D02*
D03*
Y76000D02*
D03*
Y71000D02*
D03*
Y66000D02*
D03*
Y61000D02*
D03*
Y56000D02*
D03*
Y51000D02*
D03*
X375650Y52000D02*
D03*
Y57000D02*
D03*
Y62000D02*
D03*
Y67000D02*
D03*
Y72000D02*
D03*
Y77000D02*
D03*
Y82000D02*
D03*
Y87000D02*
D03*
X424350D02*
D03*
Y82000D02*
D03*
Y77000D02*
D03*
Y72000D02*
D03*
Y67000D02*
D03*
Y62000D02*
D03*
Y57000D02*
D03*
Y52000D02*
D03*
D52*
X196000Y92850D02*
D03*
X201000D02*
D03*
X206000D02*
D03*
X211000D02*
D03*
X216000D02*
D03*
X221000D02*
D03*
X226000D02*
D03*
X231000D02*
D03*
X196000Y44150D02*
D03*
X201000D02*
D03*
X206000D02*
D03*
X211000D02*
D03*
X216000D02*
D03*
X221000D02*
D03*
X226000D02*
D03*
X231000D02*
D03*
X382500Y93850D02*
D03*
X387500D02*
D03*
X392500D02*
D03*
X397500D02*
D03*
X402500D02*
D03*
X407500D02*
D03*
X412500D02*
D03*
X417500D02*
D03*
X382500Y45150D02*
D03*
X387500D02*
D03*
X392500D02*
D03*
X397500D02*
D03*
X402500D02*
D03*
X407500D02*
D03*
X412500D02*
D03*
X417500D02*
D03*
D53*
X210500Y162500D02*
D03*
D54*
X176000Y135000D02*
D03*
Y190000D02*
D03*
X245000D02*
D03*
Y135000D02*
D03*
D55*
X176000Y140000D02*
D03*
Y145000D02*
D03*
Y150000D02*
D03*
Y155000D02*
D03*
Y160000D02*
D03*
Y165000D02*
D03*
Y170000D02*
D03*
Y175000D02*
D03*
Y180000D02*
D03*
Y185000D02*
D03*
X245000D02*
D03*
Y180000D02*
D03*
Y175000D02*
D03*
Y170000D02*
D03*
Y165000D02*
D03*
Y160000D02*
D03*
Y155000D02*
D03*
Y150000D02*
D03*
Y145000D02*
D03*
Y140000D02*
D03*
D56*
X183000Y197000D02*
D03*
X238000D02*
D03*
Y128000D02*
D03*
X183000D02*
D03*
D57*
X188000Y197000D02*
D03*
X193000D02*
D03*
X198000D02*
D03*
X203000D02*
D03*
X208000D02*
D03*
X213000D02*
D03*
X218000D02*
D03*
X223000D02*
D03*
X228000D02*
D03*
X233000D02*
D03*
Y128000D02*
D03*
X228000D02*
D03*
X223000D02*
D03*
X218000D02*
D03*
X213000D02*
D03*
X208000D02*
D03*
X203000D02*
D03*
X198000D02*
D03*
X193000D02*
D03*
X188000D02*
D03*
D58*
X143000Y229500D02*
D03*
Y210500D02*
D03*
X164000D02*
D03*
Y229500D02*
D03*
D59*
X46000Y195000D02*
D03*
Y179000D02*
D03*
X76000Y195000D02*
D03*
Y179000D02*
D03*
D60*
X349751Y66501D02*
D03*
X360250D02*
D03*
X349751Y53501D02*
D03*
X360250D02*
D03*
X388244Y120950D02*
D03*
X398744D02*
D03*
X388244Y108950D02*
D03*
X398744D02*
D03*
X552249Y206499D02*
D03*
X541750D02*
D03*
X257251Y56501D02*
D03*
X267750D02*
D03*
X491249Y73999D02*
D03*
X480750D02*
D03*
X417749Y19499D02*
D03*
X407250D02*
D03*
X407751Y32001D02*
D03*
X418250D02*
D03*
X285249Y114999D02*
D03*
X274750D02*
D03*
X339749Y134499D02*
D03*
X329250D02*
D03*
X266249Y209999D02*
D03*
X255750D02*
D03*
X512750Y51999D02*
D03*
X523249D02*
D03*
X349750Y79499D02*
D03*
X360249D02*
D03*
X349750Y91999D02*
D03*
X360249D02*
D03*
X249500Y15500D02*
D03*
X260000D02*
D03*
X441750Y52999D02*
D03*
X452249D02*
D03*
X249419Y27267D02*
D03*
X259919D02*
D03*
X360250Y228999D02*
D03*
X370749D02*
D03*
X337750D02*
D03*
X348249D02*
D03*
X106250Y179001D02*
D03*
X95751D02*
D03*
X106250Y197001D02*
D03*
X95751D02*
D03*
X78250Y215001D02*
D03*
X67751D02*
D03*
X55250D02*
D03*
X44751D02*
D03*
D61*
X88000Y76500D02*
D03*
Y97000D02*
D03*
X36500Y76500D02*
D03*
Y97000D02*
D03*
X88000Y122000D02*
D03*
Y142500D02*
D03*
X36500Y122000D02*
D03*
Y142500D02*
D03*
D62*
X76250Y61250D02*
D03*
X406500Y225000D02*
D03*
X242000Y210500D02*
D03*
X179000Y224500D02*
D03*
X76500Y32500D02*
D03*
X131314Y172000D02*
D03*
X258000Y115500D02*
D03*
X248500Y108000D02*
D03*
X236500Y104500D02*
D03*
X333499Y103001D02*
D03*
X280000Y64000D02*
D03*
X269500Y74500D02*
D03*
X251000Y81000D02*
D03*
D63*
X274000Y103000D02*
D03*
Y98000D02*
D03*
Y93000D02*
D03*
Y88000D02*
D03*
X302700D02*
D03*
Y93000D02*
D03*
Y98000D02*
D03*
Y103000D02*
D03*
D64*
X288350Y95500D02*
D03*
D65*
X515000Y16000D02*
D03*
D66*
X557500Y28250D02*
D03*
X472500D02*
D03*
D67*
X621750Y144000D02*
D03*
Y229000D02*
D03*
D68*
X634000Y186500D02*
D03*
D69*
X603600Y113000D02*
D03*
Y79500D02*
D03*
X414350Y277650D02*
D03*
X439750D02*
D03*
X465150D02*
D03*
X490550D02*
D03*
X566750D02*
D03*
X541350D02*
D03*
X515950D02*
D03*
Y252250D02*
D03*
X541350D02*
D03*
X566750D02*
D03*
X490550D02*
D03*
X465150D02*
D03*
X439750D02*
D03*
X414350D02*
D03*
X211150D02*
D03*
X109550D02*
D03*
X236550D02*
D03*
X134950D02*
D03*
X261950D02*
D03*
X160350D02*
D03*
X287350D02*
D03*
X185750D02*
D03*
X312750D02*
D03*
X388950D02*
D03*
X363550D02*
D03*
X338150D02*
D03*
Y277650D02*
D03*
X363550D02*
D03*
X388950D02*
D03*
X312750D02*
D03*
X185750D02*
D03*
X287350D02*
D03*
X160350D02*
D03*
X261950D02*
D03*
X134950D02*
D03*
X236550D02*
D03*
X109550D02*
D03*
X211150D02*
D03*
X84150D02*
D03*
X107500Y62500D02*
D03*
D70*
X629000Y113000D02*
D03*
Y79500D02*
D03*
D71*
X84150Y252250D02*
D03*
D72*
X615000Y265000D02*
D03*
Y35000D02*
D03*
X35000Y265000D02*
D03*
Y35000D02*
D03*
M02*
