G04*
G04 #@! TF.GenerationSoftware,Altium Limited,Altium Designer,19.1.7 (138)*
G04*
G04 Layer_Physical_Order=1*
G04 Layer_Color=255*
%FSLAX44Y44*%
%MOMM*%
G71*
G01*
G75*
%ADD10C,0.2500*%
%ADD14C,0.2000*%
%ADD16R,1.5000X0.3000*%
%ADD17R,0.3000X1.5000*%
%ADD18R,0.9000X0.6000*%
%ADD19R,1.5250X0.6500*%
%ADD20R,1.4000X1.1500*%
%ADD21R,2.2900X1.0000*%
%ADD22R,1.1000X1.4000*%
%ADD23R,0.6000X1.2500*%
%ADD24R,4.9000X3.0000*%
%ADD25R,2.3500X0.7000*%
%ADD26R,1.8000X1.2000*%
%ADD27R,1.5000X1.4000*%
%ADD28R,1.9000X1.9000*%
%ADD29R,1.6000X1.4000*%
%ADD30R,0.4000X1.3500*%
%ADD31R,0.8000X1.0000*%
%ADD32R,1.4000X1.1000*%
%ADD33C,0.5000*%
%ADD51C,0.6000*%
%ADD60C,0.3000*%
%ADD61C,0.1847*%
%ADD62C,0.2300*%
%ADD63C,0.2032*%
%ADD64C,0.1524*%
%ADD65C,1.7250*%
%ADD66R,1.7250X1.7250*%
%ADD67R,1.4460X1.4460*%
%ADD68C,1.4460*%
%ADD69C,1.9500*%
G36*
X187020Y358231D02*
X188399Y358412D01*
X190868Y359435D01*
X192730Y360863D01*
X194000Y360467D01*
Y287408D01*
X192861Y286847D01*
X191613Y287804D01*
X188785Y288976D01*
X185750Y289375D01*
X182715Y288976D01*
X179887Y287804D01*
X178270Y286563D01*
X177000Y287190D01*
Y361056D01*
X178203Y361464D01*
X178512Y361062D01*
X180632Y359435D01*
X183101Y358412D01*
X184480Y358231D01*
Y368300D01*
X187020D01*
Y358231D01*
D02*
G37*
G36*
X624626Y406636D02*
X627136Y406137D01*
X629585Y405394D01*
X631950Y404414D01*
X634207Y403208D01*
X636334Y401786D01*
X638313Y400163D01*
X639218Y399258D01*
X639218Y399258D01*
X640162Y398313D01*
X641786Y396335D01*
X643207Y394207D01*
X644414Y391950D01*
X645393Y389586D01*
X646136Y387137D01*
X646635Y384627D01*
X646886Y382080D01*
Y380800D01*
Y239024D01*
X623520D01*
Y222500D01*
X621999D01*
Y222249D01*
X623269D01*
Y205725D01*
X646886D01*
Y193000D01*
X622750D01*
Y180000D01*
X646886D01*
Y167524D01*
X623520D01*
Y151000D01*
X621999D01*
Y150749D01*
X623269D01*
Y134225D01*
X646886D01*
Y29200D01*
Y27920D01*
X646635Y25373D01*
X646136Y22863D01*
X645393Y20414D01*
X644414Y18050D01*
X643207Y15793D01*
X641786Y13665D01*
X640162Y11687D01*
X639257Y10782D01*
X639257Y10782D01*
X638313Y9837D01*
X636335Y8214D01*
X634207Y6792D01*
X631950Y5586D01*
X629585Y4606D01*
X627136Y3864D01*
X624626Y3364D01*
X622080Y3113D01*
X470261D01*
X469775Y4287D01*
X479994Y14506D01*
X480989Y15994D01*
X481338Y17750D01*
X481234Y18275D01*
X481338Y18800D01*
X480989Y20556D01*
X479994Y22044D01*
X478506Y23039D01*
X476750Y23388D01*
X474994Y23039D01*
X473506Y22044D01*
X472511Y20556D01*
X472373Y19862D01*
X462599Y10088D01*
X345504D01*
X345252Y11358D01*
X346686Y11952D01*
X349041Y13759D01*
X350848Y16114D01*
X351984Y18857D01*
X352204Y20530D01*
X341000D01*
Y23070D01*
X352204D01*
X351984Y24743D01*
X350848Y27486D01*
X349041Y29841D01*
X348310Y30402D01*
X348741Y31672D01*
X357250D01*
Y27750D01*
X361500D01*
Y12000D01*
X373500D01*
Y27750D01*
X374250D01*
Y29226D01*
X379500D01*
Y12000D01*
X391500D01*
Y15912D01*
X392250D01*
X394006Y16261D01*
X395494Y17256D01*
X396489Y18744D01*
X396838Y20500D01*
X396489Y22256D01*
X395494Y23744D01*
X394006Y24739D01*
X392250Y25088D01*
X391500D01*
Y29956D01*
X391500Y30500D01*
X392469Y31226D01*
X398706D01*
Y36980D01*
X391452D01*
Y31770D01*
X391452Y31226D01*
X390483Y30500D01*
X387774D01*
Y36480D01*
X380750D01*
Y39020D01*
X387774D01*
Y45476D01*
X388024D01*
Y52730D01*
X381000D01*
Y54000D01*
X379730D01*
Y62524D01*
X374500D01*
Y64000D01*
X357500D01*
Y47750D01*
X357250D01*
Y39828D01*
X349524D01*
Y45030D01*
X330476D01*
Y40100D01*
X329206Y39855D01*
X329006Y39989D01*
X327250Y40338D01*
X325691Y40028D01*
X324930Y40500D01*
X324524Y40868D01*
Y47280D01*
X322270D01*
Y40276D01*
X323638D01*
X324023Y39006D01*
X324006Y38994D01*
X323011Y37506D01*
X322662Y35750D01*
X322991Y34094D01*
X322965Y33795D01*
X322446Y32824D01*
X321270D01*
Y21800D01*
X320000D01*
Y20530D01*
X308976D01*
Y11358D01*
X308976Y10776D01*
X308000Y10094D01*
X307024Y10776D01*
X307024Y11358D01*
Y20530D01*
X296000D01*
Y21800D01*
X294730D01*
Y32824D01*
X284976D01*
Y29405D01*
X283706Y28974D01*
X283041Y29841D01*
X280686Y31648D01*
X277943Y32784D01*
X276270Y33004D01*
Y21800D01*
X275000D01*
Y20530D01*
X263796D01*
X264016Y18857D01*
X265152Y16114D01*
X266959Y13759D01*
X269314Y11952D01*
X270749Y11358D01*
X270496Y10088D01*
X257588D01*
Y17750D01*
X257239Y19506D01*
X256244Y20994D01*
X254756Y21989D01*
X253000Y22338D01*
X251244Y21989D01*
X249756Y20994D01*
X248761Y19506D01*
X248412Y17750D01*
Y10088D01*
X230996D01*
X230000Y10750D01*
X230000Y11358D01*
Y29250D01*
X230959Y30000D01*
X231000D01*
Y48730D01*
X231000Y50000D01*
X231000D01*
Y50000D01*
X231000D01*
Y62922D01*
X234500D01*
Y45000D01*
X255500D01*
Y49678D01*
X255750Y50922D01*
X257311Y51232D01*
X258634Y52116D01*
X261529Y55012D01*
X265284D01*
X266476Y54824D01*
X266476Y53742D01*
Y47570D01*
X285524D01*
Y53779D01*
X285524Y54824D01*
X286611Y55265D01*
X286901Y55322D01*
X288224Y56206D01*
X288827Y56809D01*
X290000Y56323D01*
Y38800D01*
X290202D01*
X290511Y37244D01*
X291506Y35756D01*
X292994Y34761D01*
X294750Y34412D01*
X296506Y34761D01*
X297994Y35756D01*
X298119Y35881D01*
X299114Y37369D01*
X299398Y38800D01*
X319500D01*
Y40276D01*
X319730D01*
Y48550D01*
X321000D01*
Y49820D01*
X324524D01*
Y51293D01*
X324634Y51366D01*
X325384Y52116D01*
X325384Y52116D01*
X326268Y53439D01*
X326578Y55000D01*
Y67000D01*
X328422D01*
Y63020D01*
X336578D01*
Y67000D01*
X338422D01*
Y62270D01*
X346578D01*
Y67000D01*
X352000D01*
Y73500D01*
X356637D01*
X356994Y73261D01*
X358750Y72912D01*
X360506Y73261D01*
X361994Y74256D01*
X362989Y75744D01*
X363338Y77500D01*
X362989Y79256D01*
X361994Y80744D01*
X360506Y81739D01*
X358750Y82088D01*
X356994Y81739D01*
X356637Y81500D01*
X352000D01*
Y85655D01*
X371554D01*
X375105Y82105D01*
X376433Y81217D01*
X378000Y80905D01*
X389500D01*
Y75000D01*
X410500D01*
Y93730D01*
X410500Y95000D01*
X410500D01*
Y95000D01*
X410500D01*
Y115000D01*
X396231D01*
X395487Y115744D01*
X393998Y116739D01*
X392243Y117088D01*
X378000D01*
Y126209D01*
X378503Y126622D01*
X380259Y126971D01*
X380730Y127286D01*
X382000Y126607D01*
Y125000D01*
X400000D01*
Y122500D01*
X420000D01*
Y125812D01*
X426412D01*
Y122400D01*
X455312D01*
Y138400D01*
X426412D01*
Y134988D01*
X420000D01*
Y140000D01*
X420000D01*
Y140500D01*
X420000D01*
Y158000D01*
X416285D01*
X415759Y159270D01*
X417650Y161162D01*
X427888D01*
Y157070D01*
X453836D01*
Y161162D01*
X459100D01*
X469662Y150599D01*
Y124650D01*
X461100Y116088D01*
X425500D01*
X423744Y115739D01*
X422256Y114744D01*
X413756Y106244D01*
X412761Y104756D01*
X412412Y103000D01*
Y96750D01*
Y73401D01*
X400761Y61750D01*
X389976D01*
Y44750D01*
X391452D01*
Y39520D01*
X399976D01*
Y38250D01*
X401246D01*
Y31226D01*
X415754D01*
Y38250D01*
X417024D01*
Y39520D01*
X425548D01*
Y44750D01*
X427024D01*
Y46200D01*
X455312D01*
Y50412D01*
X490000D01*
X491756Y50761D01*
X493244Y51756D01*
X498244Y56756D01*
X499239Y58244D01*
X499588Y60000D01*
Y103099D01*
X504400Y107912D01*
X560000D01*
Y104000D01*
X580000D01*
Y108412D01*
X594428D01*
X594664Y107841D01*
X596304Y105704D01*
X598441Y104064D01*
X600929Y103033D01*
X603600Y102682D01*
X606271Y103033D01*
X608759Y104064D01*
X610896Y105704D01*
X612536Y107841D01*
X613567Y110329D01*
X613918Y113000D01*
X613567Y115671D01*
X612536Y118159D01*
X610896Y120296D01*
X608759Y121936D01*
X606271Y122967D01*
X603600Y123318D01*
X600929Y122967D01*
X598441Y121936D01*
X596304Y120296D01*
X594664Y118159D01*
X594428Y117588D01*
X580000D01*
Y121000D01*
X578524D01*
Y126230D01*
X570000D01*
X561476D01*
Y121000D01*
X560000D01*
Y117088D01*
X502500D01*
X500744Y116739D01*
X499256Y115744D01*
X491756Y108244D01*
X490761Y106756D01*
X490412Y105000D01*
Y61901D01*
X488100Y59588D01*
X455312D01*
Y62200D01*
X426412D01*
Y61750D01*
X415398D01*
X414912Y62923D01*
X420244Y68256D01*
X421239Y69744D01*
X421588Y71500D01*
Y96750D01*
Y101100D01*
X427401Y106912D01*
X463000D01*
X464756Y107261D01*
X466244Y108256D01*
X477494Y119506D01*
X478489Y120994D01*
X478838Y122750D01*
Y152500D01*
X478489Y154256D01*
X477494Y155744D01*
X464244Y168994D01*
X462756Y169989D01*
X461000Y170338D01*
X415750D01*
X413994Y169989D01*
X412506Y168994D01*
X406756Y163244D01*
X405761Y161756D01*
X405412Y160000D01*
Y158000D01*
X400000D01*
Y155524D01*
X393270D01*
Y148500D01*
X392000D01*
Y147230D01*
X383476D01*
Y142406D01*
X382206Y142087D01*
X381561Y142518D01*
X380000Y142828D01*
X379270Y142683D01*
X379024Y142745D01*
X378000Y143636D01*
Y153000D01*
Y163000D01*
Y172922D01*
X446000D01*
X446000Y172922D01*
X447561Y173232D01*
X448884Y174116D01*
X456158Y181390D01*
X456158Y181390D01*
X457042Y182713D01*
X457352Y184274D01*
X457352Y184274D01*
Y242145D01*
X458491Y242706D01*
X459287Y242096D01*
X462115Y240924D01*
X465150Y240525D01*
X468185Y240924D01*
X471013Y242096D01*
X473441Y243959D01*
X475304Y246387D01*
X476476Y249215D01*
X476875Y252250D01*
X476476Y255285D01*
X475304Y258113D01*
X473441Y260541D01*
X471013Y262404D01*
X468185Y263576D01*
X465150Y263975D01*
X462115Y263576D01*
X459287Y262404D01*
X458202Y261572D01*
X457063Y262134D01*
Y267766D01*
X458202Y268328D01*
X459287Y267496D01*
X462115Y266324D01*
X465150Y265925D01*
X468185Y266324D01*
X471013Y267496D01*
X473441Y269359D01*
X475304Y271787D01*
X476476Y274615D01*
X476875Y277650D01*
X476476Y280685D01*
X475304Y283513D01*
X473441Y285941D01*
X471013Y287804D01*
X468185Y288976D01*
X465150Y289375D01*
X462115Y288976D01*
X459287Y287804D01*
X458202Y286972D01*
X457063Y287534D01*
Y302765D01*
X456753Y304326D01*
X455869Y305649D01*
X455869Y305649D01*
X447884Y313634D01*
X446561Y314518D01*
X445000Y314828D01*
X445000Y314828D01*
X409689D01*
X405410Y319107D01*
X405354Y319391D01*
X405193Y319631D01*
Y359162D01*
X406463Y359699D01*
X408487Y358146D01*
X411315Y356974D01*
X414350Y356575D01*
X417385Y356974D01*
X420213Y358146D01*
X422641Y360009D01*
X424504Y362437D01*
X425676Y365265D01*
X426075Y368300D01*
X425676Y371335D01*
X424504Y374163D01*
X422641Y376591D01*
X420213Y378454D01*
X417385Y379626D01*
X414350Y380025D01*
X411315Y379626D01*
X408487Y378454D01*
X406463Y376901D01*
X405193Y377438D01*
Y381535D01*
X404883Y383096D01*
X403999Y384419D01*
X403999Y384419D01*
X399537Y388881D01*
X400276Y390665D01*
X400675Y393700D01*
X400276Y396735D01*
X399104Y399563D01*
X397241Y401991D01*
X394813Y403854D01*
X391985Y405026D01*
X388950Y405425D01*
X385915Y405026D01*
X383087Y403854D01*
X380659Y401991D01*
X378796Y399563D01*
X377624Y396735D01*
X377225Y393700D01*
X377624Y390665D01*
X378796Y387837D01*
X380659Y385409D01*
X383087Y383546D01*
X385915Y382374D01*
X388950Y381975D01*
X391985Y382374D01*
X393769Y383113D01*
X397037Y379846D01*
Y376416D01*
X395767Y375862D01*
X394068Y377165D01*
X391599Y378188D01*
X390220Y378369D01*
Y368300D01*
Y358231D01*
X391599Y358412D01*
X394068Y359435D01*
X395767Y360738D01*
X397037Y360184D01*
Y319631D01*
X396876Y319391D01*
X396527Y317635D01*
X396876Y315879D01*
X397871Y314391D01*
X399359Y313396D01*
X399643Y313340D01*
X405116Y307866D01*
X406439Y306982D01*
X408000Y306672D01*
X408000Y306672D01*
X443311D01*
X448907Y301076D01*
Y284475D01*
X447637Y284044D01*
X446988Y284888D01*
X444868Y286515D01*
X442399Y287538D01*
X441020Y287719D01*
Y277650D01*
X438480D01*
Y287719D01*
X437101Y287538D01*
X434632Y286515D01*
X432598Y284955D01*
X431990Y285065D01*
X431328Y285290D01*
Y294000D01*
X431018Y295561D01*
X430134Y296884D01*
X430134Y296884D01*
X425819Y301199D01*
X424496Y302083D01*
X422935Y302393D01*
X422935Y302393D01*
X403874D01*
X392884Y313384D01*
X391561Y314268D01*
X390000Y314578D01*
X390000Y314578D01*
X361689D01*
X343328Y332939D01*
Y357862D01*
X344013Y358146D01*
X346441Y360009D01*
X348304Y362437D01*
X349476Y365265D01*
X349875Y368300D01*
X349476Y371335D01*
X348304Y374163D01*
X346441Y376591D01*
X344013Y378454D01*
X341185Y379626D01*
X338150Y380025D01*
X335115Y379626D01*
X332287Y378454D01*
X329859Y376591D01*
X327996Y374163D01*
X326824Y371335D01*
X326425Y368300D01*
X326824Y365265D01*
X327996Y362437D01*
X329859Y360009D01*
X332287Y358146D01*
X335115Y356974D01*
X335172Y356967D01*
Y331250D01*
X335172Y331250D01*
X335482Y329689D01*
X336366Y328366D01*
X354010Y310723D01*
X353566Y309370D01*
X352256Y308494D01*
X351261Y307006D01*
X350912Y305250D01*
X351261Y303494D01*
X352256Y302006D01*
X353744Y301011D01*
X355500Y300662D01*
X357256Y301011D01*
X357496Y301172D01*
X385561D01*
X397422Y289311D01*
Y287403D01*
X396152Y286777D01*
X394813Y287804D01*
X391985Y288976D01*
X388950Y289375D01*
X385915Y288976D01*
X383087Y287804D01*
X381001Y286204D01*
X379905Y286464D01*
X379615Y286666D01*
X379483Y287328D01*
X378599Y288651D01*
X370366Y296884D01*
X369043Y297768D01*
X367482Y298078D01*
X367482Y298078D01*
X340189D01*
X316828Y321439D01*
Y357407D01*
X318613Y358146D01*
X321041Y360009D01*
X322904Y362437D01*
X324076Y365265D01*
X324475Y368300D01*
X324076Y371335D01*
X322904Y374163D01*
X321954Y375402D01*
X322580Y376672D01*
X325200D01*
X325200Y376672D01*
X326761Y376982D01*
X328084Y377866D01*
X333331Y383113D01*
X335115Y382374D01*
X338150Y381975D01*
X341185Y382374D01*
X344013Y383546D01*
X346441Y385409D01*
X348304Y387837D01*
X349476Y390665D01*
X349875Y393700D01*
X349476Y396735D01*
X348304Y399563D01*
X346441Y401991D01*
X344013Y403854D01*
X341185Y405026D01*
X338150Y405425D01*
X335115Y405026D01*
X332287Y403854D01*
X329859Y401991D01*
X327996Y399563D01*
X326824Y396735D01*
X326425Y393700D01*
X326824Y390665D01*
X327563Y388881D01*
X323511Y384828D01*
X322196D01*
X321570Y386098D01*
X322904Y387837D01*
X324076Y390665D01*
X324475Y393700D01*
X324076Y396735D01*
X322904Y399563D01*
X321041Y401991D01*
X318613Y403854D01*
X315785Y405026D01*
X312750Y405425D01*
X309715Y405026D01*
X306887Y403854D01*
X304459Y401991D01*
X302596Y399563D01*
X301424Y396735D01*
X301025Y393700D01*
X301424Y390665D01*
X302596Y387837D01*
X303989Y386022D01*
X303472Y384624D01*
X302939Y384518D01*
X301616Y383634D01*
X301616Y383634D01*
X297366Y379384D01*
X296482Y378061D01*
X296393Y377615D01*
X294994Y377088D01*
X293213Y378454D01*
X290385Y379626D01*
X287350Y380025D01*
X284315Y379626D01*
X281487Y378454D01*
X279059Y376591D01*
X277196Y374163D01*
X276024Y371335D01*
X275625Y368300D01*
X276024Y365265D01*
X277196Y362437D01*
X279059Y360009D01*
X281487Y358146D01*
X284315Y356974D01*
X287350Y356575D01*
X290385Y356974D01*
X293213Y358146D01*
X294902Y359442D01*
X296172Y358815D01*
Y314000D01*
X296172Y314000D01*
X296482Y312439D01*
X297366Y311116D01*
X320609Y287873D01*
X319770Y286917D01*
X318613Y287804D01*
X315785Y288976D01*
X312750Y289375D01*
X309715Y288976D01*
X306887Y287804D01*
X304459Y285941D01*
X302596Y283513D01*
X301424Y280685D01*
X301025Y277650D01*
X301424Y274615D01*
X302596Y271787D01*
X304459Y269359D01*
X306887Y267496D01*
X309715Y266324D01*
X312750Y265925D01*
X315785Y266324D01*
X318613Y267496D01*
X321041Y269359D01*
X322904Y271787D01*
X324076Y274615D01*
X324475Y277650D01*
X324076Y280685D01*
X322904Y283513D01*
X322016Y284670D01*
X322973Y285509D01*
X327109Y281373D01*
X326824Y280685D01*
X326425Y277650D01*
X326824Y274615D01*
X327996Y271787D01*
X329859Y269359D01*
X332287Y267496D01*
X335115Y266324D01*
X338150Y265925D01*
X341185Y266324D01*
X344013Y267496D01*
X346441Y269359D01*
X348304Y271787D01*
X349476Y274615D01*
X349875Y277650D01*
X349476Y280685D01*
X348304Y283513D01*
X346441Y285941D01*
X344013Y287804D01*
X341967Y288652D01*
X342220Y289922D01*
X359480D01*
X359733Y288652D01*
X357687Y287804D01*
X355259Y285941D01*
X353396Y283513D01*
X352224Y280685D01*
X351825Y277650D01*
X352224Y274615D01*
X353396Y271787D01*
X355259Y269359D01*
X357687Y267496D01*
X360515Y266324D01*
X363550Y265925D01*
X366585Y266324D01*
X369413Y267496D01*
X370498Y268328D01*
X371637Y267766D01*
Y262134D01*
X370498Y261572D01*
X369413Y262404D01*
X366585Y263576D01*
X363550Y263975D01*
X360515Y263576D01*
X357687Y262404D01*
X355259Y260541D01*
X353396Y258113D01*
X352224Y255285D01*
X351825Y252250D01*
X352224Y249215D01*
X353396Y246387D01*
X355259Y243959D01*
X357687Y242096D01*
X360515Y240924D01*
X363550Y240525D01*
X366585Y240924D01*
X369413Y242096D01*
X370498Y242928D01*
X371637Y242366D01*
Y217285D01*
X371637Y217285D01*
X371750Y216715D01*
Y206390D01*
X371366Y206134D01*
X371366Y206134D01*
X367116Y201884D01*
X366232Y200561D01*
X365922Y199000D01*
X365922Y199000D01*
Y189439D01*
X364601Y188118D01*
X352668D01*
X352000Y188666D01*
Y201476D01*
X356230D01*
Y210000D01*
Y218524D01*
X351898D01*
X351000Y219422D01*
Y220000D01*
X351000D01*
Y220000D01*
X351000D01*
Y221476D01*
X356230D01*
Y230000D01*
Y238524D01*
X351000D01*
Y240000D01*
X342272D01*
X342019Y241270D01*
X344013Y242096D01*
X346441Y243959D01*
X348304Y246387D01*
X349476Y249215D01*
X349875Y252250D01*
X349476Y255285D01*
X348304Y258113D01*
X346441Y260541D01*
X344013Y262404D01*
X341185Y263576D01*
X338150Y263975D01*
X335115Y263576D01*
X332287Y262404D01*
X329859Y260541D01*
X327996Y258113D01*
X326824Y255285D01*
X326425Y252250D01*
X326824Y249215D01*
X327996Y246387D01*
X329859Y243959D01*
X332287Y242096D01*
X334281Y241270D01*
X334028Y240000D01*
X334000D01*
Y238524D01*
X328770D01*
Y230000D01*
X326230D01*
Y238524D01*
X321000D01*
Y240000D01*
X316872D01*
X316619Y241270D01*
X318613Y242096D01*
X321041Y243959D01*
X322904Y246387D01*
X324076Y249215D01*
X324475Y252250D01*
X324076Y255285D01*
X322904Y258113D01*
X321041Y260541D01*
X318613Y262404D01*
X315785Y263576D01*
X312750Y263975D01*
X309715Y263576D01*
X306887Y262404D01*
X304459Y260541D01*
X302596Y258113D01*
X301424Y255285D01*
X301025Y252250D01*
X301424Y249215D01*
X302596Y246387D01*
X304459Y243959D01*
X306887Y242096D01*
X308881Y241270D01*
X308628Y240000D01*
X306000D01*
Y240000D01*
X291472D01*
X291220Y241270D01*
X293213Y242096D01*
X295641Y243959D01*
X297504Y246387D01*
X298676Y249215D01*
X299075Y252250D01*
X298676Y255285D01*
X297504Y258113D01*
X295641Y260541D01*
X293213Y262404D01*
X290385Y263576D01*
X287350Y263975D01*
X284315Y263576D01*
X281487Y262404D01*
X279059Y260541D01*
X277196Y258113D01*
X276024Y255285D01*
X275625Y252250D01*
X276024Y249215D01*
X277196Y246387D01*
X279059Y243959D01*
X281487Y242096D01*
X284315Y240924D01*
X287350Y240525D01*
X287842Y240589D01*
X288647Y239637D01*
X288243Y238524D01*
X283770D01*
Y230000D01*
Y221476D01*
X288102D01*
X289000Y220578D01*
Y220000D01*
X289000D01*
Y220000D01*
X289000D01*
Y218524D01*
X283770D01*
Y210000D01*
X282500D01*
Y208730D01*
X275476D01*
Y207244D01*
X274616Y206384D01*
X273732Y205061D01*
X273422Y203500D01*
X272344Y203000D01*
X268000D01*
Y186927D01*
X266827Y186441D01*
X251634Y201634D01*
X250311Y202518D01*
X248750Y202828D01*
X248750Y202828D01*
X217398D01*
X216500Y203726D01*
X216500Y204750D01*
X216500D01*
Y204750D01*
X216500D01*
Y224750D01*
X195500D01*
Y218629D01*
X194939Y218518D01*
X193616Y217634D01*
X193616Y217634D01*
X190020Y214038D01*
X189392Y214145D01*
X188750Y214499D01*
Y224750D01*
X167750D01*
Y219338D01*
X120338D01*
Y225250D01*
X119989Y227006D01*
X118994Y228494D01*
X107969Y239520D01*
X108531Y240659D01*
X109550Y240525D01*
X112585Y240924D01*
X115413Y242096D01*
X117841Y243959D01*
X119704Y246387D01*
X120876Y249215D01*
X121275Y252250D01*
X121129Y253361D01*
X122236Y254468D01*
X123439Y253875D01*
X123225Y252250D01*
X123624Y249215D01*
X124796Y246387D01*
X126659Y243959D01*
X129087Y242096D01*
X131915Y240924D01*
X134950Y240525D01*
X137985Y240924D01*
X140813Y242096D01*
X143241Y243959D01*
X145104Y246387D01*
X146276Y249215D01*
X146675Y252250D01*
X146673Y252266D01*
X147526Y253119D01*
X148665Y252557D01*
X148625Y252250D01*
X149024Y249215D01*
X150196Y246387D01*
X152059Y243959D01*
X154487Y242096D01*
X157315Y240924D01*
X160350Y240525D01*
X163385Y240924D01*
X166213Y242096D01*
X168641Y243959D01*
X170504Y246387D01*
X171676Y249215D01*
X172075Y252250D01*
X171676Y255285D01*
X170504Y258113D01*
X168641Y260541D01*
X166213Y262404D01*
X163385Y263576D01*
X160350Y263975D01*
X157315Y263576D01*
X154487Y262404D01*
X152309Y260732D01*
X151039Y261120D01*
Y268780D01*
X152309Y269167D01*
X154487Y267496D01*
X157315Y266324D01*
X160350Y265925D01*
X163385Y266324D01*
X166213Y267496D01*
X168641Y269359D01*
X170504Y271787D01*
X171582Y274390D01*
X172229Y274821D01*
X173130Y275723D01*
X174332Y275314D01*
X174424Y274615D01*
X175596Y271787D01*
X177459Y269359D01*
X179887Y267496D01*
X182715Y266324D01*
X185750Y265925D01*
X188785Y266324D01*
X191613Y267496D01*
X194041Y269359D01*
X195904Y271787D01*
X196768Y273872D01*
X197181Y273954D01*
X198479Y274821D01*
X198651Y274994D01*
X199896Y274443D01*
X200996Y271787D01*
X202859Y269359D01*
X205287Y267496D01*
X208115Y266324D01*
X211150Y265925D01*
X214185Y266324D01*
X217013Y267496D01*
X219441Y269359D01*
X221304Y271787D01*
X222476Y274615D01*
X222875Y277650D01*
X222476Y280685D01*
X221304Y283513D01*
X219441Y285941D01*
X217013Y287804D01*
X214185Y288976D01*
X211150Y289375D01*
X208115Y288976D01*
X205287Y287804D01*
X203270Y286257D01*
X202000Y286800D01*
Y359150D01*
X203270Y359693D01*
X205287Y358146D01*
X208115Y356974D01*
X211150Y356575D01*
X214185Y356974D01*
X217013Y358146D01*
X219441Y360009D01*
X221304Y362437D01*
X222476Y365265D01*
X222875Y368300D01*
X222476Y371335D01*
X221304Y374163D01*
X219441Y376591D01*
X217013Y378454D01*
X214185Y379626D01*
X211150Y380025D01*
X208115Y379626D01*
X205287Y378454D01*
X203270Y376907D01*
X202000Y377450D01*
Y384550D01*
X203270Y385093D01*
X205287Y383546D01*
X208115Y382374D01*
X211150Y381975D01*
X214185Y382374D01*
X217013Y383546D01*
X219441Y385409D01*
X221304Y387837D01*
X222476Y390665D01*
X222875Y393700D01*
X222476Y396735D01*
X221304Y399563D01*
X219441Y401991D01*
X217013Y403854D01*
X214185Y405026D01*
X211150Y405425D01*
X208115Y405026D01*
X205287Y403854D01*
X202859Y401991D01*
X200996Y399563D01*
X199824Y396735D01*
X199608Y395095D01*
X198267Y394640D01*
X197213Y395694D01*
X197076Y396735D01*
X195904Y399563D01*
X194041Y401991D01*
X191613Y403854D01*
X188785Y405026D01*
X185750Y405425D01*
X182715Y405026D01*
X179887Y403854D01*
X177459Y401991D01*
X175596Y399563D01*
X174510Y396943D01*
X173251Y396406D01*
X173129Y396529D01*
X171831Y397396D01*
X171364Y397489D01*
X170504Y399563D01*
X168641Y401991D01*
X166213Y403854D01*
X163385Y405026D01*
X160350Y405425D01*
X157315Y405026D01*
X154487Y403854D01*
X152059Y401991D01*
X150196Y399563D01*
X149024Y396735D01*
X148625Y393700D01*
X149024Y390665D01*
X150196Y387837D01*
X152059Y385409D01*
X154487Y383546D01*
X157315Y382374D01*
X160350Y381975D01*
X163385Y382374D01*
X166213Y383546D01*
X167730Y384710D01*
X169000Y384084D01*
Y377916D01*
X167730Y377290D01*
X166213Y378454D01*
X163385Y379626D01*
X160350Y380025D01*
X157315Y379626D01*
X154487Y378454D01*
X152059Y376591D01*
X150196Y374163D01*
X149024Y371335D01*
X148625Y368300D01*
X149024Y365265D01*
X150196Y362437D01*
X152059Y360009D01*
X154487Y358146D01*
X157315Y356974D01*
X160350Y356575D01*
X163385Y356974D01*
X166213Y358146D01*
X167730Y359310D01*
X169000Y358684D01*
Y287267D01*
X167730Y286640D01*
X166213Y287804D01*
X163385Y288976D01*
X160350Y289375D01*
X157315Y288976D01*
X154487Y287804D01*
X152309Y286133D01*
X151039Y286520D01*
Y356212D01*
X150734Y357743D01*
X149867Y359040D01*
X145504Y363403D01*
X146276Y365265D01*
X146675Y368300D01*
X146276Y371335D01*
X145104Y374163D01*
X143241Y376591D01*
X140813Y378454D01*
X137985Y379626D01*
X134950Y380025D01*
X131915Y379626D01*
X129087Y378454D01*
X126659Y376591D01*
X124796Y374163D01*
X123624Y371335D01*
X123225Y368300D01*
X123624Y365265D01*
X124796Y362437D01*
X126659Y360009D01*
X129087Y358146D01*
X131915Y356974D01*
X134950Y356575D01*
X137985Y356974D01*
X139847Y357746D01*
X143038Y354555D01*
Y285763D01*
X141768Y285211D01*
X140068Y286515D01*
X137599Y287538D01*
X136220Y287719D01*
Y277650D01*
X133680D01*
Y287719D01*
X132301Y287538D01*
X129832Y286515D01*
X127712Y284888D01*
X127063Y284044D01*
X125793Y284475D01*
Y356135D01*
X125483Y357696D01*
X124599Y359019D01*
X124599Y359019D01*
X120137Y363481D01*
X120876Y365265D01*
X121275Y368300D01*
X120876Y371335D01*
X119704Y374163D01*
X117841Y376591D01*
X115413Y378454D01*
X112585Y379626D01*
X109550Y380025D01*
X106515Y379626D01*
X103687Y378454D01*
X101259Y376591D01*
X99396Y374163D01*
X98224Y371335D01*
X97825Y368300D01*
X98224Y365265D01*
X99396Y362437D01*
X101259Y360009D01*
X103687Y358146D01*
X106515Y356974D01*
X109550Y356575D01*
X112585Y356974D01*
X114369Y357713D01*
X117637Y354446D01*
Y287534D01*
X116498Y286972D01*
X115413Y287804D01*
X112585Y288976D01*
X109550Y289375D01*
X106515Y288976D01*
X103687Y287804D01*
X102612Y286979D01*
X101473Y287541D01*
Y355565D01*
X101124Y357321D01*
X100129Y358809D01*
X95775Y363164D01*
Y379925D01*
X72525D01*
Y356675D01*
X89286D01*
X92297Y353665D01*
Y287487D01*
X91158Y286926D01*
X90013Y287804D01*
X87185Y288976D01*
X84150Y289375D01*
X81115Y288976D01*
X78287Y287804D01*
X75859Y285941D01*
X73996Y283513D01*
X72824Y280685D01*
X72425Y277650D01*
X72824Y274615D01*
X73996Y271787D01*
X75859Y269359D01*
X78287Y267496D01*
X81115Y266324D01*
X84150Y265925D01*
X87185Y266324D01*
X90013Y267496D01*
X91158Y268374D01*
X92297Y267813D01*
Y263875D01*
X72525D01*
Y240625D01*
X93886D01*
X111162Y223349D01*
Y214750D01*
Y185938D01*
X108505D01*
Y187600D01*
X87255D01*
Y175100D01*
X108505D01*
Y176762D01*
X111162D01*
Y161651D01*
X110049Y160538D01*
X108505D01*
Y162200D01*
X87255D01*
Y149700D01*
X89662D01*
Y136500D01*
Y60750D01*
X90011Y58994D01*
X91006Y57506D01*
X97013Y51498D01*
X98502Y50504D01*
X100000Y50206D01*
Y46000D01*
X100000D01*
Y29000D01*
X101476D01*
Y23770D01*
X110000D01*
Y22500D01*
D01*
Y23770D01*
X118524D01*
Y29000D01*
X120000D01*
Y29500D01*
X121412D01*
Y19750D01*
X121761Y17994D01*
X122756Y16506D01*
X126256Y13006D01*
X127744Y12011D01*
X129500Y11662D01*
X130500D01*
X132256Y12011D01*
X133744Y13006D01*
X134739Y14494D01*
X135088Y16250D01*
X134739Y18006D01*
X133744Y19494D01*
X132256Y20489D01*
X131624Y20615D01*
X130588Y21651D01*
Y29500D01*
X133500D01*
Y41500D01*
X120000D01*
Y44000D01*
X120000D01*
Y48500D01*
X133500D01*
Y60500D01*
X120000D01*
Y61000D01*
X118524D01*
Y66230D01*
X101476D01*
Y61682D01*
X100206Y61283D01*
X98838Y62650D01*
Y131662D01*
X167500D01*
Y126000D01*
X188500D01*
Y131662D01*
X195000D01*
Y126250D01*
X216000D01*
Y144980D01*
X216000Y146250D01*
X216000D01*
Y146250D01*
X216000D01*
Y151922D01*
X218004D01*
X218244Y151761D01*
X220000Y151412D01*
X221756Y151761D01*
X223244Y152756D01*
X224239Y154244D01*
X224588Y156000D01*
X224359Y157152D01*
X225205Y158422D01*
X242000D01*
Y149524D01*
X236270D01*
Y142500D01*
X235000D01*
Y141230D01*
X226476D01*
Y136000D01*
X225000D01*
Y121000D01*
X218000D01*
Y103000D01*
X238664D01*
Y95524D01*
X231270D01*
Y88000D01*
Y80476D01*
X240524D01*
Y86642D01*
X241697Y87128D01*
X242538Y86288D01*
X243782Y85456D01*
X245250Y85164D01*
X245250Y85164D01*
X269476D01*
Y78770D01*
X272500D01*
Y76230D01*
X269476D01*
Y71078D01*
X262939D01*
X257634Y76384D01*
X256311Y77268D01*
X254750Y77578D01*
X254750Y77578D01*
X200774D01*
X200733Y77763D01*
X201758Y79000D01*
X202000D01*
Y97000D01*
X178000D01*
Y79000D01*
X178687D01*
X179750Y78500D01*
Y61500D01*
X181226D01*
Y56270D01*
X189750D01*
X198274D01*
Y60602D01*
X198668Y60996D01*
X200196Y60905D01*
X200476Y60531D01*
Y51476D01*
X206230D01*
Y60000D01*
X208770D01*
Y51476D01*
X213102D01*
X214000Y50578D01*
Y50000D01*
X214000D01*
Y50000D01*
X214000D01*
Y48524D01*
X208770D01*
Y40000D01*
X207500D01*
Y38730D01*
X200476D01*
Y32169D01*
X200308Y32015D01*
X198978Y31562D01*
X198524Y31778D01*
Y36230D01*
X181476D01*
Y31000D01*
X180000D01*
X180000Y32270D01*
Y46000D01*
X178524D01*
Y51230D01*
X161476D01*
Y47242D01*
X160206Y46716D01*
X160024Y46898D01*
X160024Y49524D01*
X160024Y50794D01*
Y53230D01*
X154000D01*
X147976D01*
Y50794D01*
X147976Y49976D01*
X147976Y48706D01*
Y46270D01*
X154000D01*
Y43730D01*
X147976D01*
Y41500D01*
X146500D01*
Y29500D01*
X149412D01*
Y10088D01*
X78401D01*
X70338Y18151D01*
Y386349D01*
X72388Y388400D01*
X73886Y388102D01*
X73996Y387837D01*
X75859Y385409D01*
X78287Y383546D01*
X81115Y382374D01*
X84150Y381975D01*
X87185Y382374D01*
X90013Y383546D01*
X92441Y385409D01*
X94304Y387837D01*
X94832Y389112D01*
X98868D01*
X99396Y387837D01*
X101259Y385409D01*
X103687Y383546D01*
X106515Y382374D01*
X109550Y381975D01*
X112585Y382374D01*
X115413Y383546D01*
X117841Y385409D01*
X119704Y387837D01*
X120876Y390665D01*
X121275Y393700D01*
X120876Y396735D01*
X119704Y399563D01*
X117841Y401991D01*
X115413Y403854D01*
X112585Y405026D01*
X109550Y405425D01*
X106515Y405026D01*
X103687Y403854D01*
X101259Y401991D01*
X99396Y399563D01*
X98868Y398288D01*
X94832D01*
X94304Y399563D01*
X92441Y401991D01*
X90013Y403854D01*
X87185Y405026D01*
X84150Y405425D01*
X81115Y405026D01*
X78287Y403854D01*
X75859Y401991D01*
X73996Y399563D01*
X73468Y398288D01*
X71200D01*
X69444Y397939D01*
X67956Y396944D01*
X62506Y391494D01*
X61511Y390006D01*
X61162Y388250D01*
Y16250D01*
X61511Y14494D01*
X62506Y13006D01*
X71225Y4287D01*
X70739Y3113D01*
X27920D01*
X25374Y3364D01*
X22864Y3864D01*
X20415Y4606D01*
X18050Y5586D01*
X15793Y6792D01*
X13665Y8214D01*
X11687Y9837D01*
X10782Y10742D01*
X10782Y10742D01*
X9837Y11687D01*
X8214Y13665D01*
X6792Y15793D01*
X5586Y18050D01*
X4606Y20415D01*
X3863Y22864D01*
X3364Y25374D01*
X3113Y27921D01*
Y29200D01*
Y380800D01*
Y382079D01*
X3364Y384626D01*
X3863Y387136D01*
X4606Y389585D01*
X5586Y391950D01*
X6792Y394207D01*
X8214Y396335D01*
X9837Y398313D01*
X10742Y399218D01*
X10742Y399218D01*
X11687Y400163D01*
X13665Y401786D01*
X15793Y403208D01*
X18050Y404414D01*
X20415Y405394D01*
X22864Y406137D01*
X25374Y406636D01*
X27921Y406887D01*
X622079D01*
X624626Y406636D01*
D02*
G37*
G36*
X390220Y242181D02*
X391599Y242362D01*
X394068Y243385D01*
X396152Y244984D01*
X396617Y244917D01*
X397422Y244643D01*
Y239500D01*
X397422Y239500D01*
X397732Y237939D01*
X398616Y236616D01*
X406366Y228866D01*
X407689Y227982D01*
X409250Y227672D01*
X409250Y227672D01*
X409754D01*
X409994Y227511D01*
X411750Y227162D01*
X413506Y227511D01*
X414652Y228277D01*
X415922Y227782D01*
Y201439D01*
X413061Y198578D01*
X401750D01*
Y202500D01*
X399744D01*
X399025Y203770D01*
X399312Y204250D01*
X401750D01*
Y220250D01*
X387750D01*
Y207328D01*
X385750D01*
Y220250D01*
X379793D01*
Y245425D01*
X381063Y245856D01*
X381712Y245012D01*
X383832Y243385D01*
X386301Y242362D01*
X387680Y242181D01*
Y252250D01*
X390220D01*
Y242181D01*
D02*
G37*
G36*
X263736Y177996D02*
X263724Y177871D01*
X262936Y177000D01*
X245000D01*
Y181000D01*
X243524D01*
Y186230D01*
X226476D01*
Y181000D01*
X225000D01*
Y168314D01*
X223730Y167788D01*
X223384Y168134D01*
X222061Y169018D01*
X220500Y169328D01*
X218939Y169018D01*
X217616Y168134D01*
X216921Y167093D01*
X216000Y166250D01*
X215806Y166250D01*
X201268D01*
X195984Y171534D01*
X194661Y172418D01*
X193100Y172728D01*
X193100Y172728D01*
X162745D01*
Y174900D01*
X162745D01*
Y175100D01*
X162745D01*
Y177272D01*
X202600D01*
X202600Y177272D01*
X204161Y177582D01*
X205484Y178466D01*
X208884Y181866D01*
X208884Y181866D01*
X209768Y183189D01*
X210078Y184750D01*
X210078Y184750D01*
X216500D01*
Y194672D01*
X225267D01*
X226476Y194524D01*
Y188770D01*
X243524D01*
Y194524D01*
X244733Y194672D01*
X247061D01*
X263736Y177996D01*
D02*
G37*
G36*
X347761Y95116D02*
X347761Y95116D01*
X347763Y95115D01*
X347378Y93845D01*
X342158D01*
X340591Y93533D01*
X339263Y92645D01*
X334617Y88000D01*
X333000D01*
Y88000D01*
X332848D01*
X331578Y89095D01*
Y97880D01*
X331989Y98494D01*
X332338Y100250D01*
X331989Y102006D01*
X331500Y102737D01*
Y109717D01*
X332673Y110203D01*
X347761Y95116D01*
D02*
G37*
%LPC*%
G36*
X491820Y403769D02*
Y394970D01*
X500619D01*
X500438Y396349D01*
X499415Y398818D01*
X497788Y400938D01*
X495668Y402565D01*
X493199Y403588D01*
X491820Y403769D01*
D02*
G37*
G36*
X489280D02*
X487901Y403588D01*
X485432Y402565D01*
X483312Y400938D01*
X481685Y398818D01*
X480662Y396349D01*
X480481Y394970D01*
X489280D01*
Y403769D01*
D02*
G37*
G36*
X441020D02*
Y394970D01*
X449819D01*
X449638Y396349D01*
X448615Y398818D01*
X446988Y400938D01*
X444868Y402565D01*
X442399Y403588D01*
X441020Y403769D01*
D02*
G37*
G36*
X438480D02*
X437101Y403588D01*
X434632Y402565D01*
X432512Y400938D01*
X430885Y398818D01*
X429862Y396349D01*
X429681Y394970D01*
X438480D01*
Y403769D01*
D02*
G37*
G36*
X237820D02*
Y394970D01*
X246619D01*
X246438Y396349D01*
X245415Y398818D01*
X243788Y400938D01*
X241668Y402565D01*
X239199Y403588D01*
X237820Y403769D01*
D02*
G37*
G36*
X235280D02*
X233901Y403588D01*
X231432Y402565D01*
X229312Y400938D01*
X227685Y398818D01*
X226662Y396349D01*
X226481Y394970D01*
X235280D01*
Y403769D01*
D02*
G37*
G36*
X136220D02*
Y394970D01*
X145019D01*
X144838Y396349D01*
X143815Y398818D01*
X142188Y400938D01*
X140068Y402565D01*
X137599Y403588D01*
X136220Y403769D01*
D02*
G37*
G36*
X133680D02*
X132301Y403588D01*
X129832Y402565D01*
X127712Y400938D01*
X126085Y398818D01*
X125062Y396349D01*
X124881Y394970D01*
X133680D01*
Y403769D01*
D02*
G37*
G36*
X500619Y392430D02*
X491820D01*
Y383631D01*
X493199Y383812D01*
X495668Y384835D01*
X497788Y386462D01*
X499415Y388582D01*
X500438Y391051D01*
X500619Y392430D01*
D02*
G37*
G36*
X489280D02*
X480481D01*
X480662Y391051D01*
X481685Y388582D01*
X483312Y386462D01*
X485432Y384835D01*
X487901Y383812D01*
X489280Y383631D01*
Y392430D01*
D02*
G37*
G36*
X449819D02*
X441020D01*
Y383631D01*
X442399Y383812D01*
X444868Y384835D01*
X446988Y386462D01*
X448615Y388582D01*
X449638Y391051D01*
X449819Y392430D01*
D02*
G37*
G36*
X438480D02*
X429681D01*
X429862Y391051D01*
X430885Y388582D01*
X432512Y386462D01*
X434632Y384835D01*
X437101Y383812D01*
X438480Y383631D01*
Y392430D01*
D02*
G37*
G36*
X246619D02*
X237820D01*
Y383631D01*
X239199Y383812D01*
X241668Y384835D01*
X243788Y386462D01*
X245415Y388582D01*
X246438Y391051D01*
X246619Y392430D01*
D02*
G37*
G36*
X235280D02*
X226481D01*
X226662Y391051D01*
X227685Y388582D01*
X229312Y386462D01*
X231432Y384835D01*
X233901Y383812D01*
X235280Y383631D01*
Y392430D01*
D02*
G37*
G36*
X145019D02*
X136220D01*
Y383631D01*
X137599Y383812D01*
X140068Y384835D01*
X142188Y386462D01*
X143815Y388582D01*
X144838Y391051D01*
X145019Y392430D01*
D02*
G37*
G36*
X133680D02*
X124881D01*
X125062Y391051D01*
X126085Y388582D01*
X127712Y386462D01*
X129832Y384835D01*
X132301Y383812D01*
X133680Y383631D01*
Y392430D01*
D02*
G37*
G36*
X566750Y405425D02*
X563715Y405026D01*
X560887Y403854D01*
X558459Y401991D01*
X556596Y399563D01*
X555424Y396735D01*
X555025Y393700D01*
X555424Y390665D01*
X556596Y387837D01*
X558459Y385409D01*
X560887Y383546D01*
X563715Y382374D01*
X566750Y381975D01*
X569785Y382374D01*
X572613Y383546D01*
X575041Y385409D01*
X576904Y387837D01*
X578076Y390665D01*
X578475Y393700D01*
X578076Y396735D01*
X576904Y399563D01*
X575041Y401991D01*
X572613Y403854D01*
X569785Y405026D01*
X566750Y405425D01*
D02*
G37*
G36*
X541350D02*
X538315Y405026D01*
X535487Y403854D01*
X533059Y401991D01*
X531196Y399563D01*
X530024Y396735D01*
X529625Y393700D01*
X530024Y390665D01*
X531196Y387837D01*
X533059Y385409D01*
X535487Y383546D01*
X538315Y382374D01*
X541350Y381975D01*
X544385Y382374D01*
X547213Y383546D01*
X549641Y385409D01*
X551504Y387837D01*
X552676Y390665D01*
X553075Y393700D01*
X552676Y396735D01*
X551504Y399563D01*
X549641Y401991D01*
X547213Y403854D01*
X544385Y405026D01*
X541350Y405425D01*
D02*
G37*
G36*
X515950D02*
X512915Y405026D01*
X510087Y403854D01*
X507659Y401991D01*
X505796Y399563D01*
X504624Y396735D01*
X504225Y393700D01*
X504624Y390665D01*
X505796Y387837D01*
X507659Y385409D01*
X510087Y383546D01*
X512915Y382374D01*
X515950Y381975D01*
X518985Y382374D01*
X521813Y383546D01*
X524241Y385409D01*
X526104Y387837D01*
X527276Y390665D01*
X527675Y393700D01*
X527276Y396735D01*
X526104Y399563D01*
X524241Y401991D01*
X521813Y403854D01*
X518985Y405026D01*
X515950Y405425D01*
D02*
G37*
G36*
X465150D02*
X462115Y405026D01*
X459287Y403854D01*
X456859Y401991D01*
X454996Y399563D01*
X453824Y396735D01*
X453425Y393700D01*
X453824Y390665D01*
X454996Y387837D01*
X456859Y385409D01*
X459287Y383546D01*
X462115Y382374D01*
X465150Y381975D01*
X468185Y382374D01*
X471013Y383546D01*
X473441Y385409D01*
X475304Y387837D01*
X476476Y390665D01*
X476875Y393700D01*
X476476Y396735D01*
X475304Y399563D01*
X473441Y401991D01*
X471013Y403854D01*
X468185Y405026D01*
X465150Y405425D01*
D02*
G37*
G36*
X414350D02*
X411315Y405026D01*
X408487Y403854D01*
X406059Y401991D01*
X404196Y399563D01*
X403024Y396735D01*
X402625Y393700D01*
X403024Y390665D01*
X404196Y387837D01*
X406059Y385409D01*
X408487Y383546D01*
X411315Y382374D01*
X414350Y381975D01*
X417385Y382374D01*
X420213Y383546D01*
X422641Y385409D01*
X424504Y387837D01*
X425676Y390665D01*
X426075Y393700D01*
X425676Y396735D01*
X424504Y399563D01*
X422641Y401991D01*
X420213Y403854D01*
X417385Y405026D01*
X414350Y405425D01*
D02*
G37*
G36*
X287350D02*
X284315Y405026D01*
X281487Y403854D01*
X279059Y401991D01*
X277196Y399563D01*
X276024Y396735D01*
X275625Y393700D01*
X276024Y390665D01*
X277196Y387837D01*
X279059Y385409D01*
X281487Y383546D01*
X284315Y382374D01*
X287350Y381975D01*
X290385Y382374D01*
X293213Y383546D01*
X295641Y385409D01*
X297504Y387837D01*
X298676Y390665D01*
X299075Y393700D01*
X298676Y396735D01*
X297504Y399563D01*
X295641Y401991D01*
X293213Y403854D01*
X290385Y405026D01*
X287350Y405425D01*
D02*
G37*
G36*
X261950D02*
X258915Y405026D01*
X256087Y403854D01*
X253659Y401991D01*
X251796Y399563D01*
X250624Y396735D01*
X250225Y393700D01*
X250624Y390665D01*
X251363Y388881D01*
X246116Y383634D01*
X245232Y382311D01*
X244922Y380750D01*
X244922Y380750D01*
Y378130D01*
X243652Y377504D01*
X242413Y378454D01*
X239585Y379626D01*
X236550Y380025D01*
X233515Y379626D01*
X230687Y378454D01*
X228259Y376591D01*
X226396Y374163D01*
X225224Y371335D01*
X224825Y368300D01*
X225224Y365265D01*
X226396Y362437D01*
X228259Y360009D01*
X230687Y358146D01*
X233515Y356974D01*
X236550Y356575D01*
X239585Y356974D01*
X242413Y358146D01*
X243652Y359096D01*
X244922Y358470D01*
Y290600D01*
X244922Y290600D01*
X245232Y289039D01*
X246116Y287716D01*
X251363Y282469D01*
X250624Y280685D01*
X250225Y277650D01*
X250624Y274615D01*
X251796Y271787D01*
X253659Y269359D01*
X256087Y267496D01*
X258915Y266324D01*
X261950Y265925D01*
X264985Y266324D01*
X267813Y267496D01*
X270241Y269359D01*
X272104Y271787D01*
X273276Y274615D01*
X273675Y277650D01*
X273276Y280685D01*
X272104Y283513D01*
X270241Y285941D01*
X267813Y287804D01*
X264985Y288976D01*
X261950Y289375D01*
X258915Y288976D01*
X257131Y288237D01*
X253078Y292289D01*
Y358854D01*
X254348Y359480D01*
X256087Y358146D01*
X258915Y356974D01*
X261950Y356575D01*
X264985Y356974D01*
X267813Y358146D01*
X270241Y360009D01*
X272104Y362437D01*
X273276Y365265D01*
X273675Y368300D01*
X273276Y371335D01*
X272104Y374163D01*
X270241Y376591D01*
X267813Y378454D01*
X264985Y379626D01*
X261950Y380025D01*
X258915Y379626D01*
X256087Y378454D01*
X254348Y377120D01*
X253078Y377746D01*
Y379061D01*
X257131Y383113D01*
X258915Y382374D01*
X261950Y381975D01*
X264985Y382374D01*
X267813Y383546D01*
X270241Y385409D01*
X272104Y387837D01*
X273276Y390665D01*
X273675Y393700D01*
X273276Y396735D01*
X272104Y399563D01*
X270241Y401991D01*
X267813Y403854D01*
X264985Y405026D01*
X261950Y405425D01*
D02*
G37*
G36*
X363550D02*
X360515Y405026D01*
X357687Y403854D01*
X355259Y401991D01*
X353396Y399563D01*
X352224Y396735D01*
X351825Y393700D01*
X352224Y390665D01*
X353396Y387837D01*
X355259Y385409D01*
X357687Y383546D01*
X360515Y382374D01*
X363550Y381975D01*
X366585Y382374D01*
X368369Y383113D01*
X372672Y378811D01*
Y377499D01*
X371402Y376928D01*
X369413Y378454D01*
X366585Y379626D01*
X363550Y380025D01*
X360515Y379626D01*
X357687Y378454D01*
X355259Y376591D01*
X353396Y374163D01*
X352224Y371335D01*
X351825Y368300D01*
X352224Y365265D01*
X353396Y362437D01*
X355259Y360009D01*
X357687Y358146D01*
X360515Y356974D01*
X363550Y356575D01*
X366585Y356974D01*
X369413Y358146D01*
X371402Y359672D01*
X372672Y359101D01*
Y337189D01*
X363028Y327545D01*
X362744Y327489D01*
X361256Y326494D01*
X360261Y325006D01*
X359912Y323250D01*
X360261Y321494D01*
X361256Y320006D01*
X362744Y319011D01*
X364500Y318662D01*
X366256Y319011D01*
X367744Y320006D01*
X368739Y321494D01*
X368795Y321778D01*
X379634Y332616D01*
X379634Y332616D01*
X380518Y333939D01*
X380828Y335500D01*
Y360245D01*
X382098Y360765D01*
X383832Y359435D01*
X386301Y358412D01*
X387680Y358231D01*
Y368300D01*
Y378369D01*
X386301Y378188D01*
X383832Y377165D01*
X382098Y375835D01*
X380828Y376355D01*
Y380500D01*
X380828Y380500D01*
X380518Y382061D01*
X379634Y383384D01*
X379634Y383384D01*
X374137Y388881D01*
X374876Y390665D01*
X375275Y393700D01*
X374876Y396735D01*
X373704Y399563D01*
X371841Y401991D01*
X369413Y403854D01*
X366585Y405026D01*
X363550Y405425D01*
D02*
G37*
G36*
X568020Y378369D02*
Y369570D01*
X576819D01*
X576638Y370949D01*
X575615Y373418D01*
X573988Y375538D01*
X571868Y377165D01*
X569399Y378188D01*
X568020Y378369D01*
D02*
G37*
G36*
X565480D02*
X564101Y378188D01*
X561632Y377165D01*
X559512Y375538D01*
X557885Y373418D01*
X556862Y370949D01*
X556681Y369570D01*
X565480D01*
Y378369D01*
D02*
G37*
G36*
X576819Y367030D02*
X568020D01*
Y358231D01*
X569399Y358412D01*
X571868Y359435D01*
X573988Y361062D01*
X575615Y363182D01*
X576638Y365651D01*
X576819Y367030D01*
D02*
G37*
G36*
X565480D02*
X556681D01*
X556862Y365651D01*
X557885Y363182D01*
X559512Y361062D01*
X561632Y359435D01*
X564101Y358412D01*
X565480Y358231D01*
Y367030D01*
D02*
G37*
G36*
X615000Y392082D02*
X611667Y391754D01*
X608463Y390782D01*
X605510Y389203D01*
X602921Y387079D01*
X600797Y384490D01*
X599218Y381537D01*
X598246Y378332D01*
X597918Y375000D01*
X598246Y371667D01*
X599218Y368463D01*
X600797Y365509D01*
X602921Y362921D01*
X605510Y360797D01*
X608463Y359218D01*
X611667Y358246D01*
X615000Y357918D01*
X618332Y358246D01*
X621537Y359218D01*
X624490Y360797D01*
X627079Y362921D01*
X629203Y365509D01*
X630782Y368463D01*
X631754Y371667D01*
X632082Y375000D01*
X631754Y378332D01*
X630782Y381537D01*
X629203Y384490D01*
X627079Y387079D01*
X624490Y389203D01*
X621537Y390782D01*
X618332Y391754D01*
X615000Y392082D01*
D02*
G37*
G36*
X35000D02*
X31667Y391754D01*
X28463Y390782D01*
X25510Y389203D01*
X22921Y387079D01*
X20797Y384490D01*
X19218Y381537D01*
X18246Y378332D01*
X17918Y375000D01*
X18246Y371667D01*
X19218Y368463D01*
X20797Y365509D01*
X22921Y362921D01*
X25510Y360797D01*
X28463Y359218D01*
X31667Y358246D01*
X35000Y357918D01*
X38333Y358246D01*
X41537Y359218D01*
X44490Y360797D01*
X47079Y362921D01*
X49203Y365509D01*
X50782Y368463D01*
X51754Y371667D01*
X52082Y375000D01*
X51754Y378332D01*
X50782Y381537D01*
X49203Y384490D01*
X47079Y387079D01*
X44490Y389203D01*
X41537Y390782D01*
X38333Y391754D01*
X35000Y392082D01*
D02*
G37*
G36*
X541350Y380025D02*
X538315Y379626D01*
X535487Y378454D01*
X533059Y376591D01*
X531196Y374163D01*
X530024Y371335D01*
X529625Y368300D01*
X530024Y365265D01*
X531196Y362437D01*
X533059Y360009D01*
X535487Y358146D01*
X538315Y356974D01*
X541350Y356575D01*
X544385Y356974D01*
X547213Y358146D01*
X549641Y360009D01*
X551504Y362437D01*
X552676Y365265D01*
X553075Y368300D01*
X552676Y371335D01*
X551504Y374163D01*
X549641Y376591D01*
X547213Y378454D01*
X544385Y379626D01*
X541350Y380025D01*
D02*
G37*
G36*
X515950D02*
X512915Y379626D01*
X510087Y378454D01*
X507659Y376591D01*
X505796Y374163D01*
X504624Y371335D01*
X504225Y368300D01*
X504624Y365265D01*
X505796Y362437D01*
X507659Y360009D01*
X510087Y358146D01*
X512915Y356974D01*
X515950Y356575D01*
X518985Y356974D01*
X521813Y358146D01*
X524241Y360009D01*
X526104Y362437D01*
X527276Y365265D01*
X527675Y368300D01*
X527276Y371335D01*
X526104Y374163D01*
X524241Y376591D01*
X521813Y378454D01*
X518985Y379626D01*
X515950Y380025D01*
D02*
G37*
G36*
X490550D02*
X487515Y379626D01*
X484687Y378454D01*
X482259Y376591D01*
X480396Y374163D01*
X479224Y371335D01*
X478825Y368300D01*
X479224Y365265D01*
X480396Y362437D01*
X482259Y360009D01*
X484687Y358146D01*
X487515Y356974D01*
X490550Y356575D01*
X493585Y356974D01*
X496413Y358146D01*
X498841Y360009D01*
X500704Y362437D01*
X501876Y365265D01*
X502275Y368300D01*
X501876Y371335D01*
X500704Y374163D01*
X498841Y376591D01*
X496413Y378454D01*
X493585Y379626D01*
X490550Y380025D01*
D02*
G37*
G36*
X465150D02*
X462115Y379626D01*
X459287Y378454D01*
X456859Y376591D01*
X454996Y374163D01*
X453824Y371335D01*
X453425Y368300D01*
X453824Y365265D01*
X454996Y362437D01*
X456859Y360009D01*
X459287Y358146D01*
X462115Y356974D01*
X465150Y356575D01*
X468185Y356974D01*
X471013Y358146D01*
X473441Y360009D01*
X475304Y362437D01*
X476476Y365265D01*
X476875Y368300D01*
X476476Y371335D01*
X475304Y374163D01*
X473441Y376591D01*
X471013Y378454D01*
X468185Y379626D01*
X465150Y380025D01*
D02*
G37*
G36*
X439750D02*
X436715Y379626D01*
X433887Y378454D01*
X431459Y376591D01*
X429596Y374163D01*
X428424Y371335D01*
X428025Y368300D01*
X428424Y365265D01*
X429596Y362437D01*
X431459Y360009D01*
X433887Y358146D01*
X436715Y356974D01*
X439750Y356575D01*
X442785Y356974D01*
X445613Y358146D01*
X448041Y360009D01*
X449904Y362437D01*
X451076Y365265D01*
X451475Y368300D01*
X451076Y371335D01*
X449904Y374163D01*
X448041Y376591D01*
X445613Y378454D01*
X442785Y379626D01*
X439750Y380025D01*
D02*
G37*
G36*
X491820Y287719D02*
Y278920D01*
X500619D01*
X500438Y280299D01*
X499415Y282768D01*
X497788Y284888D01*
X495668Y286515D01*
X493199Y287538D01*
X491820Y287719D01*
D02*
G37*
G36*
X489280D02*
X487901Y287538D01*
X485432Y286515D01*
X483312Y284888D01*
X481685Y282768D01*
X480662Y280299D01*
X480481Y278920D01*
X489280D01*
Y287719D01*
D02*
G37*
G36*
X237820D02*
Y278920D01*
X246619D01*
X246438Y280299D01*
X245415Y282768D01*
X243788Y284888D01*
X241668Y286515D01*
X239199Y287538D01*
X237820Y287719D01*
D02*
G37*
G36*
X235280D02*
X233901Y287538D01*
X231432Y286515D01*
X229312Y284888D01*
X227685Y282768D01*
X226662Y280299D01*
X226481Y278920D01*
X235280D01*
Y287719D01*
D02*
G37*
G36*
X500619Y276380D02*
X491820D01*
Y267581D01*
X493199Y267762D01*
X495668Y268785D01*
X497788Y270412D01*
X499415Y272532D01*
X500438Y275001D01*
X500619Y276380D01*
D02*
G37*
G36*
X489280D02*
X480481D01*
X480662Y275001D01*
X481685Y272532D01*
X483312Y270412D01*
X485432Y268785D01*
X487901Y267762D01*
X489280Y267581D01*
Y276380D01*
D02*
G37*
G36*
X246619D02*
X237820D01*
Y267581D01*
X239199Y267762D01*
X241668Y268785D01*
X243788Y270412D01*
X245415Y272532D01*
X246438Y275001D01*
X246619Y276380D01*
D02*
G37*
G36*
X235280D02*
X226481D01*
X226662Y275001D01*
X227685Y272532D01*
X229312Y270412D01*
X231432Y268785D01*
X233901Y267762D01*
X235280Y267581D01*
Y276380D01*
D02*
G37*
G36*
X566750Y289375D02*
X563715Y288976D01*
X560887Y287804D01*
X558459Y285941D01*
X556596Y283513D01*
X555424Y280685D01*
X555025Y277650D01*
X555424Y274615D01*
X556596Y271787D01*
X558459Y269359D01*
X560887Y267496D01*
X563715Y266324D01*
X566750Y265925D01*
X569785Y266324D01*
X572613Y267496D01*
X575041Y269359D01*
X576904Y271787D01*
X578076Y274615D01*
X578475Y277650D01*
X578076Y280685D01*
X576904Y283513D01*
X575041Y285941D01*
X572613Y287804D01*
X569785Y288976D01*
X566750Y289375D01*
D02*
G37*
G36*
X541350D02*
X538315Y288976D01*
X535487Y287804D01*
X533059Y285941D01*
X531196Y283513D01*
X530024Y280685D01*
X529625Y277650D01*
X530024Y274615D01*
X531196Y271787D01*
X533059Y269359D01*
X535487Y267496D01*
X538315Y266324D01*
X541350Y265925D01*
X544385Y266324D01*
X547213Y267496D01*
X549641Y269359D01*
X551504Y271787D01*
X552676Y274615D01*
X553075Y277650D01*
X552676Y280685D01*
X551504Y283513D01*
X549641Y285941D01*
X547213Y287804D01*
X544385Y288976D01*
X541350Y289375D01*
D02*
G37*
G36*
X515950D02*
X512915Y288976D01*
X510087Y287804D01*
X507659Y285941D01*
X505796Y283513D01*
X504624Y280685D01*
X504225Y277650D01*
X504624Y274615D01*
X505796Y271787D01*
X507659Y269359D01*
X510087Y267496D01*
X512915Y266324D01*
X515950Y265925D01*
X518985Y266324D01*
X521813Y267496D01*
X524241Y269359D01*
X526104Y271787D01*
X527276Y274615D01*
X527675Y277650D01*
X527276Y280685D01*
X526104Y283513D01*
X524241Y285941D01*
X521813Y287804D01*
X518985Y288976D01*
X515950Y289375D01*
D02*
G37*
G36*
X287350D02*
X284315Y288976D01*
X281487Y287804D01*
X279059Y285941D01*
X277196Y283513D01*
X276024Y280685D01*
X275625Y277650D01*
X276024Y274615D01*
X277196Y271787D01*
X279059Y269359D01*
X281487Y267496D01*
X284315Y266324D01*
X287350Y265925D01*
X290385Y266324D01*
X293213Y267496D01*
X295641Y269359D01*
X297504Y271787D01*
X298676Y274615D01*
X299075Y277650D01*
X298676Y280685D01*
X297504Y283513D01*
X295641Y285941D01*
X293213Y287804D01*
X290385Y288976D01*
X287350Y289375D01*
D02*
G37*
G36*
X568020Y262319D02*
Y253520D01*
X576819D01*
X576638Y254899D01*
X575615Y257368D01*
X573988Y259488D01*
X571868Y261115D01*
X569399Y262138D01*
X568020Y262319D01*
D02*
G37*
G36*
X565480D02*
X564101Y262138D01*
X561632Y261115D01*
X559512Y259488D01*
X557885Y257368D01*
X556862Y254899D01*
X556681Y253520D01*
X565480D01*
Y262319D01*
D02*
G37*
G36*
X187020D02*
Y253520D01*
X195819D01*
X195638Y254899D01*
X194615Y257368D01*
X192988Y259488D01*
X190868Y261115D01*
X188399Y262138D01*
X187020Y262319D01*
D02*
G37*
G36*
X184480D02*
X183101Y262138D01*
X180632Y261115D01*
X178512Y259488D01*
X176885Y257368D01*
X175862Y254899D01*
X175681Y253520D01*
X184480D01*
Y262319D01*
D02*
G37*
G36*
X615000Y282082D02*
X611667Y281754D01*
X608463Y280782D01*
X605510Y279203D01*
X602921Y277079D01*
X600797Y274490D01*
X599218Y271537D01*
X598246Y268333D01*
X597918Y265000D01*
X598246Y261667D01*
X599218Y258463D01*
X600797Y255510D01*
X602921Y252921D01*
X605510Y250797D01*
X608463Y249218D01*
X611667Y248246D01*
X615000Y247918D01*
X618333Y248246D01*
X621537Y249218D01*
X624490Y250797D01*
X627079Y252921D01*
X629203Y255510D01*
X630782Y258463D01*
X631754Y261667D01*
X632082Y265000D01*
X631754Y268333D01*
X630782Y271537D01*
X629203Y274490D01*
X627079Y277079D01*
X624490Y279203D01*
X621537Y280782D01*
X618333Y281754D01*
X615000Y282082D01*
D02*
G37*
G36*
X35000D02*
X31667Y281754D01*
X28463Y280782D01*
X25510Y279203D01*
X22921Y277079D01*
X20797Y274490D01*
X19218Y271537D01*
X18246Y268333D01*
X17918Y265000D01*
X18246Y261667D01*
X19218Y258463D01*
X20797Y255510D01*
X22921Y252921D01*
X25510Y250797D01*
X28463Y249218D01*
X31667Y248246D01*
X35000Y247918D01*
X38333Y248246D01*
X41537Y249218D01*
X44490Y250797D01*
X47079Y252921D01*
X49203Y255510D01*
X50782Y258463D01*
X51754Y261667D01*
X52082Y265000D01*
X51754Y268333D01*
X50782Y271537D01*
X49203Y274490D01*
X47079Y277079D01*
X44490Y279203D01*
X41537Y280782D01*
X38333Y281754D01*
X35000Y282082D01*
D02*
G37*
G36*
X576819Y250980D02*
X568020D01*
Y242181D01*
X569399Y242362D01*
X571868Y243385D01*
X573988Y245012D01*
X575615Y247132D01*
X576638Y249601D01*
X576819Y250980D01*
D02*
G37*
G36*
X565480D02*
X556681D01*
X556862Y249601D01*
X557885Y247132D01*
X559512Y245012D01*
X561632Y243385D01*
X564101Y242362D01*
X565480Y242181D01*
Y250980D01*
D02*
G37*
G36*
X195819D02*
X187020D01*
Y242181D01*
X188399Y242362D01*
X190868Y243385D01*
X192988Y245012D01*
X194615Y247132D01*
X195638Y249601D01*
X195819Y250980D01*
D02*
G37*
G36*
X184480D02*
X175681D01*
X175862Y249601D01*
X176885Y247132D01*
X178512Y245012D01*
X180632Y243385D01*
X183101Y242362D01*
X184480Y242181D01*
Y250980D01*
D02*
G37*
G36*
X541350Y263975D02*
X538315Y263576D01*
X535487Y262404D01*
X533059Y260541D01*
X531196Y258113D01*
X530024Y255285D01*
X529625Y252250D01*
X530024Y249215D01*
X531196Y246387D01*
X533059Y243959D01*
X535487Y242096D01*
X538315Y240924D01*
X541350Y240525D01*
X544385Y240924D01*
X547213Y242096D01*
X549641Y243959D01*
X551504Y246387D01*
X552676Y249215D01*
X553075Y252250D01*
X552676Y255285D01*
X551504Y258113D01*
X549641Y260541D01*
X547213Y262404D01*
X544385Y263576D01*
X541350Y263975D01*
D02*
G37*
G36*
X515950D02*
X512915Y263576D01*
X510087Y262404D01*
X507659Y260541D01*
X505796Y258113D01*
X504624Y255285D01*
X504225Y252250D01*
X504624Y249215D01*
X505796Y246387D01*
X507659Y243959D01*
X510087Y242096D01*
X512915Y240924D01*
X515950Y240525D01*
X518985Y240924D01*
X521813Y242096D01*
X524241Y243959D01*
X526104Y246387D01*
X527276Y249215D01*
X527675Y252250D01*
X527276Y255285D01*
X526104Y258113D01*
X524241Y260541D01*
X521813Y262404D01*
X518985Y263576D01*
X515950Y263975D01*
D02*
G37*
G36*
X490550D02*
X487515Y263576D01*
X484687Y262404D01*
X482259Y260541D01*
X480396Y258113D01*
X479224Y255285D01*
X478825Y252250D01*
X479224Y249215D01*
X480396Y246387D01*
X482259Y243959D01*
X484687Y242096D01*
X487515Y240924D01*
X490550Y240525D01*
X493585Y240924D01*
X496413Y242096D01*
X498841Y243959D01*
X500704Y246387D01*
X501876Y249215D01*
X502275Y252250D01*
X501876Y255285D01*
X500704Y258113D01*
X498841Y260541D01*
X496413Y262404D01*
X493585Y263576D01*
X490550Y263975D01*
D02*
G37*
G36*
X261950D02*
X258915Y263576D01*
X256087Y262404D01*
X253659Y260541D01*
X251796Y258113D01*
X250624Y255285D01*
X250225Y252250D01*
X250624Y249215D01*
X251796Y246387D01*
X253659Y243959D01*
X256087Y242096D01*
X258915Y240924D01*
X261950Y240525D01*
X264985Y240924D01*
X267813Y242096D01*
X270241Y243959D01*
X272104Y246387D01*
X273276Y249215D01*
X273675Y252250D01*
X273276Y255285D01*
X272104Y258113D01*
X270241Y260541D01*
X267813Y262404D01*
X264985Y263576D01*
X261950Y263975D01*
D02*
G37*
G36*
X236550D02*
X233515Y263576D01*
X230687Y262404D01*
X228259Y260541D01*
X226396Y258113D01*
X225224Y255285D01*
X224825Y252250D01*
X225224Y249215D01*
X226396Y246387D01*
X228259Y243959D01*
X230687Y242096D01*
X233515Y240924D01*
X236550Y240525D01*
X239585Y240924D01*
X242413Y242096D01*
X244841Y243959D01*
X246704Y246387D01*
X247876Y249215D01*
X248275Y252250D01*
X247876Y255285D01*
X246704Y258113D01*
X244841Y260541D01*
X242413Y262404D01*
X239585Y263576D01*
X236550Y263975D01*
D02*
G37*
G36*
X211150D02*
X208115Y263576D01*
X205287Y262404D01*
X202859Y260541D01*
X200996Y258113D01*
X199824Y255285D01*
X199425Y252250D01*
X199824Y249215D01*
X200996Y246387D01*
X202859Y243959D01*
X205287Y242096D01*
X208115Y240924D01*
X211150Y240525D01*
X214185Y240924D01*
X217013Y242096D01*
X219441Y243959D01*
X221304Y246387D01*
X222476Y249215D01*
X222875Y252250D01*
X222476Y255285D01*
X221304Y258113D01*
X219441Y260541D01*
X217013Y262404D01*
X214185Y263576D01*
X211150Y263975D01*
D02*
G37*
G36*
X281230Y238524D02*
X275476D01*
Y231270D01*
X281230D01*
Y238524D01*
D02*
G37*
G36*
X364524Y238524D02*
X358770D01*
Y231270D01*
X364524D01*
Y238524D01*
D02*
G37*
G36*
X620980Y239024D02*
X596226D01*
Y238773D01*
X595975D01*
Y223519D01*
X620980D01*
Y239024D01*
D02*
G37*
G36*
X586770Y227764D02*
Y222520D01*
X592014D01*
X591954Y222979D01*
X591286Y224591D01*
X590224Y225974D01*
X588841Y227036D01*
X587229Y227703D01*
X586770Y227764D01*
D02*
G37*
G36*
X584230D02*
X583771Y227703D01*
X582159Y227036D01*
X580776Y225974D01*
X579714Y224591D01*
X579047Y222979D01*
X578986Y222520D01*
X584230D01*
Y227764D01*
D02*
G37*
G36*
X281230Y228730D02*
X275476D01*
Y221476D01*
X281230D01*
Y228730D01*
D02*
G37*
G36*
X364524Y228730D02*
X358770D01*
Y221476D01*
X364524D01*
Y228730D01*
D02*
G37*
G36*
X592014Y219980D02*
X586770D01*
Y214736D01*
X587229Y214797D01*
X588841Y215464D01*
X590224Y216526D01*
X591286Y217909D01*
X591954Y219521D01*
X592014Y219980D01*
D02*
G37*
G36*
X584230D02*
X578986D01*
X579047Y219521D01*
X579714Y217909D01*
X580776Y216526D01*
X582159Y215464D01*
X583771Y214797D01*
X584230Y214736D01*
Y219980D01*
D02*
G37*
G36*
X281230Y218524D02*
X275476D01*
Y211270D01*
X281230D01*
Y218524D01*
D02*
G37*
G36*
X364524Y218524D02*
X358770D01*
Y211270D01*
X364524D01*
Y218524D01*
D02*
G37*
G36*
X620729Y220979D02*
X595975D01*
Y205725D01*
X620729D01*
Y220979D01*
D02*
G37*
G36*
X364524Y208730D02*
X358770D01*
Y201476D01*
X364524D01*
Y208730D01*
D02*
G37*
G36*
X107029Y198824D02*
X99150D01*
Y195320D01*
X107029D01*
Y198824D01*
D02*
G37*
G36*
X96610D02*
X88731D01*
Y195320D01*
X96610D01*
Y198824D01*
D02*
G37*
G36*
X107029Y192780D02*
X99150D01*
Y189276D01*
X107029D01*
Y192780D01*
D02*
G37*
G36*
X96610D02*
X88731D01*
Y189276D01*
X96610D01*
Y192780D01*
D02*
G37*
G36*
X614270Y192764D02*
Y187520D01*
X619514D01*
X619454Y187979D01*
X618786Y189591D01*
X617724Y190974D01*
X616341Y192036D01*
X614729Y192703D01*
X614270Y192764D01*
D02*
G37*
G36*
X611730D02*
X611271Y192703D01*
X609659Y192036D01*
X608276Y190974D01*
X607214Y189591D01*
X606547Y187979D01*
X606486Y187520D01*
X611730D01*
Y192764D01*
D02*
G37*
G36*
X619514Y184980D02*
X614270D01*
Y179736D01*
X614729Y179797D01*
X616341Y180464D01*
X617724Y181526D01*
X618786Y182909D01*
X619454Y184521D01*
X619514Y184980D01*
D02*
G37*
G36*
X611730D02*
X606486D01*
X606547Y184521D01*
X607214Y182909D01*
X608276Y181526D01*
X609659Y180464D01*
X611271Y179797D01*
X611730Y179736D01*
Y184980D01*
D02*
G37*
G36*
X107029Y173424D02*
X99150D01*
Y169920D01*
X107029D01*
Y173424D01*
D02*
G37*
G36*
X96610D02*
X88731D01*
Y169920D01*
X96610D01*
Y173424D01*
D02*
G37*
G36*
X107029Y167380D02*
X99150D01*
Y163876D01*
X107029D01*
Y167380D01*
D02*
G37*
G36*
X96610D02*
X88731D01*
Y163876D01*
X96610D01*
Y167380D01*
D02*
G37*
G36*
X620980Y167524D02*
X596226D01*
Y167273D01*
X595975D01*
Y152019D01*
X620980D01*
Y167524D01*
D02*
G37*
G36*
X390730Y155524D02*
X383476D01*
Y149770D01*
X390730D01*
Y155524D01*
D02*
G37*
G36*
X453836Y154530D02*
X442132D01*
Y149276D01*
X453836D01*
Y154530D01*
D02*
G37*
G36*
X439592D02*
X427888D01*
Y149276D01*
X439592D01*
Y154530D01*
D02*
G37*
G36*
X554412Y163800D02*
X525512D01*
Y147800D01*
X554412D01*
Y163800D01*
D02*
G37*
G36*
X233730Y149524D02*
X226476D01*
Y143770D01*
X233730D01*
Y149524D01*
D02*
G37*
G36*
X585000Y159170D02*
X582886Y158891D01*
X580915Y158075D01*
X579223Y156777D01*
X577925Y155085D01*
X577108Y153115D01*
X576830Y151000D01*
X577108Y148885D01*
X577925Y146915D01*
X579223Y145223D01*
X580915Y143925D01*
X582886Y143109D01*
X585000Y142830D01*
X587114Y143109D01*
X589085Y143925D01*
X590777Y145223D01*
X592075Y146915D01*
X592892Y148885D01*
X593170Y151000D01*
X592892Y153115D01*
X592075Y155085D01*
X590777Y156777D01*
X589085Y158075D01*
X587114Y158891D01*
X585000Y159170D01*
D02*
G37*
G36*
X620729Y149479D02*
X595975D01*
Y134225D01*
X620729D01*
Y149479D01*
D02*
G37*
G36*
X578524Y134524D02*
X571270D01*
Y128770D01*
X578524D01*
Y134524D01*
D02*
G37*
G36*
X568730D02*
X561476D01*
Y128770D01*
X568730D01*
Y134524D01*
D02*
G37*
G36*
X637754Y121754D02*
X630270D01*
Y114270D01*
X637754D01*
Y121754D01*
D02*
G37*
G36*
X627730D02*
X620246D01*
Y114270D01*
X627730D01*
Y121754D01*
D02*
G37*
G36*
X200524Y119524D02*
X191270D01*
Y113270D01*
X200524D01*
Y119524D01*
D02*
G37*
G36*
X188730D02*
X179476D01*
Y113270D01*
X188730D01*
Y119524D01*
D02*
G37*
G36*
X200524Y110730D02*
X191270D01*
Y104476D01*
X200524D01*
Y110730D01*
D02*
G37*
G36*
X188730D02*
X179476D01*
Y104476D01*
X188730D01*
Y110730D01*
D02*
G37*
G36*
X637754Y111730D02*
X630270D01*
Y104246D01*
X637754D01*
Y111730D01*
D02*
G37*
G36*
X627730D02*
X620246D01*
Y104246D01*
X627730D01*
Y111730D01*
D02*
G37*
G36*
X228730Y95524D02*
X219476D01*
Y89270D01*
X228730D01*
Y95524D01*
D02*
G37*
G36*
X603600Y89818D02*
X600929Y89467D01*
X598441Y88436D01*
X596304Y86796D01*
X594664Y84659D01*
X594428Y84088D01*
X580000D01*
Y86000D01*
X560000D01*
Y84088D01*
X554412D01*
Y87600D01*
X525512D01*
Y71600D01*
X554412D01*
Y74912D01*
X560000D01*
Y69000D01*
X561476D01*
Y63770D01*
X570000D01*
X578524D01*
Y69000D01*
X580000D01*
Y74912D01*
X594428D01*
X594664Y74341D01*
X596304Y72204D01*
X598441Y70564D01*
X600929Y69533D01*
X603600Y69182D01*
X606271Y69533D01*
X608759Y70564D01*
X610896Y72204D01*
X612536Y74341D01*
X613567Y76829D01*
X613918Y79500D01*
X613567Y82170D01*
X612536Y84659D01*
X610896Y86796D01*
X608759Y88436D01*
X606271Y89467D01*
X603600Y89818D01*
D02*
G37*
G36*
X453836Y86124D02*
X442132D01*
Y80870D01*
X453836D01*
Y86124D01*
D02*
G37*
G36*
X439592D02*
X427888D01*
Y80870D01*
X439592D01*
Y86124D01*
D02*
G37*
G36*
X228730Y86730D02*
X219476D01*
Y80476D01*
X228730D01*
Y86730D01*
D02*
G37*
G36*
X453836Y78330D02*
X442132D01*
Y73076D01*
X453836D01*
Y78330D01*
D02*
G37*
G36*
X439592D02*
X427888D01*
Y73076D01*
X439592D01*
Y78330D01*
D02*
G37*
G36*
X639230Y89730D02*
X618770D01*
Y69270D01*
X639230D01*
Y89730D01*
D02*
G37*
G36*
X118524Y74524D02*
X111270D01*
Y68770D01*
X118524D01*
Y74524D01*
D02*
G37*
G36*
X108730D02*
X101476D01*
Y68770D01*
X108730D01*
Y74524D01*
D02*
G37*
G36*
X336350Y60480D02*
X333770D01*
Y57900D01*
X334070Y57959D01*
X335401Y58849D01*
X336291Y60180D01*
X336350Y60480D01*
D02*
G37*
G36*
X331230D02*
X328650D01*
X328709Y60180D01*
X329599Y58849D01*
X330930Y57959D01*
X331230Y57900D01*
Y60480D01*
D02*
G37*
G36*
X346350Y59730D02*
X343770D01*
Y57150D01*
X344070Y57210D01*
X345401Y58099D01*
X346291Y59430D01*
X346350Y59730D01*
D02*
G37*
G36*
X341230D02*
X338650D01*
X338709Y59430D01*
X339599Y58099D01*
X340930Y57210D01*
X341230Y57150D01*
Y59730D01*
D02*
G37*
G36*
X160024Y59024D02*
X155270D01*
Y55770D01*
X160024D01*
Y59024D01*
D02*
G37*
G36*
X152730D02*
X147976D01*
Y55770D01*
X152730D01*
Y59024D01*
D02*
G37*
G36*
X578524Y61230D02*
X571270D01*
Y55476D01*
X578524D01*
Y61230D01*
D02*
G37*
G36*
X568730D02*
X561476D01*
Y55476D01*
X568730D01*
Y61230D01*
D02*
G37*
G36*
X388024Y62524D02*
X382270D01*
Y55270D01*
X388024D01*
Y62524D01*
D02*
G37*
G36*
X178524Y59524D02*
X171270D01*
Y53770D01*
X178524D01*
Y59524D01*
D02*
G37*
G36*
X168730D02*
X161476D01*
Y53770D01*
X168730D01*
Y59524D01*
D02*
G37*
G36*
X198274Y53730D02*
X191020D01*
Y47976D01*
X198274D01*
Y53730D01*
D02*
G37*
G36*
X188480D02*
X181226D01*
Y47976D01*
X188480D01*
Y53730D01*
D02*
G37*
G36*
X349524Y54824D02*
X341270D01*
Y47570D01*
X349524D01*
Y54824D01*
D02*
G37*
G36*
X338730D02*
X330476D01*
Y47570D01*
X338730D01*
Y54824D01*
D02*
G37*
G36*
X206230Y48524D02*
X200476D01*
Y41270D01*
X206230D01*
Y48524D01*
D02*
G37*
G36*
X198524Y44524D02*
X191270D01*
Y38770D01*
X198524D01*
Y44524D01*
D02*
G37*
G36*
X188730D02*
X181476D01*
Y38770D01*
X188730D01*
Y44524D01*
D02*
G37*
G36*
X285524Y45030D02*
X277270D01*
Y37776D01*
X285524D01*
Y45030D01*
D02*
G37*
G36*
X274730D02*
X266476D01*
Y37776D01*
X274730D01*
Y45030D01*
D02*
G37*
G36*
X254024Y43524D02*
X246270D01*
Y36270D01*
X254024D01*
Y43524D01*
D02*
G37*
G36*
X243730D02*
X235976D01*
Y36270D01*
X243730D01*
Y43524D01*
D02*
G37*
G36*
X425548Y36980D02*
X418294D01*
Y31226D01*
X425548D01*
Y36980D01*
D02*
G37*
G36*
X254024Y33730D02*
X246270D01*
Y26476D01*
X254024D01*
Y33730D01*
D02*
G37*
G36*
X243730D02*
X235976D01*
Y26476D01*
X243730D01*
Y33730D01*
D02*
G37*
G36*
X318730Y32824D02*
X308976D01*
Y23070D01*
X318730D01*
Y32824D01*
D02*
G37*
G36*
X307024D02*
X297270D01*
Y23070D01*
X307024D01*
Y32824D01*
D02*
G37*
G36*
X273730Y33004D02*
X272057Y32784D01*
X269314Y31648D01*
X266959Y29841D01*
X265152Y27486D01*
X264016Y24743D01*
X263796Y23070D01*
X273730D01*
Y33004D01*
D02*
G37*
G36*
X615000Y52082D02*
X611667Y51754D01*
X608463Y50782D01*
X605510Y49203D01*
X602921Y47079D01*
X600797Y44490D01*
X599218Y41537D01*
X598246Y38333D01*
X597918Y35000D01*
X598246Y31667D01*
X599218Y28463D01*
X600797Y25510D01*
X602921Y22921D01*
X605510Y20797D01*
X608463Y19218D01*
X611667Y18246D01*
X615000Y17918D01*
X618332Y18246D01*
X621537Y19218D01*
X624490Y20797D01*
X627079Y22921D01*
X629203Y25510D01*
X630782Y28463D01*
X631754Y31667D01*
X632082Y35000D01*
X631754Y38333D01*
X630782Y41537D01*
X629203Y44490D01*
X627079Y47079D01*
X624490Y49203D01*
X621537Y50782D01*
X618332Y51754D01*
X615000Y52082D01*
D02*
G37*
G36*
X35000D02*
X31667Y51754D01*
X28463Y50782D01*
X25510Y49203D01*
X22921Y47079D01*
X20797Y44490D01*
X19218Y41537D01*
X18246Y38333D01*
X17918Y35000D01*
X18246Y31667D01*
X19218Y28463D01*
X20797Y25510D01*
X22921Y22921D01*
X25510Y20797D01*
X28463Y19218D01*
X31667Y18246D01*
X35000Y17918D01*
X38333Y18246D01*
X41537Y19218D01*
X44490Y20797D01*
X47079Y22921D01*
X49203Y25510D01*
X50782Y28463D01*
X51754Y31667D01*
X52082Y35000D01*
X51754Y38333D01*
X50782Y41537D01*
X49203Y44490D01*
X47079Y47079D01*
X44490Y49203D01*
X41537Y50782D01*
X38333Y51754D01*
X35000Y52082D01*
D02*
G37*
G36*
X118524Y21230D02*
X111270D01*
Y15476D01*
X118524D01*
Y21230D01*
D02*
G37*
G36*
X108730D02*
X101476D01*
Y15476D01*
X108730D01*
Y21230D01*
D02*
G37*
%LPD*%
D10*
X307500Y55000D02*
X308250Y54250D01*
X307500Y55000D02*
Y77500D01*
X307520Y77480D01*
D14*
X363750Y35750D02*
X365750Y37750D01*
X327250Y35750D02*
X363750D01*
X336690Y116932D02*
X351412Y102210D01*
X367210D01*
X367500Y102500D01*
X356750Y107250D02*
X367250D01*
X367500Y107500D01*
X343250Y117500D02*
X354500D01*
X333170Y115474D02*
X350644Y98000D01*
X336690Y116932D02*
Y162668D01*
X350644Y98000D02*
X367000D01*
X333170Y115474D02*
Y164542D01*
X354500Y117500D02*
X354500Y117500D01*
X367500D01*
X340210Y120540D02*
X343250Y117500D01*
X333170Y164542D02*
X352668Y184040D01*
X336690Y162668D02*
X354542Y180520D01*
X320000Y21800D02*
X341000D01*
X380750Y53750D02*
X381000Y54000D01*
X380750Y37750D02*
Y53750D01*
Y37750D02*
X382020D01*
X401500Y239500D02*
X409250Y231750D01*
X436000Y220250D02*
Y232250D01*
X409250Y231750D02*
X411750D01*
X401500Y239500D02*
Y291000D01*
X387250Y305250D02*
X401500Y291000D01*
X355500Y305250D02*
X387250D01*
X375715Y217285D02*
Y285767D01*
X367482Y294000D02*
X375715Y285767D01*
X338500Y294000D02*
X367482D01*
X312750Y319750D02*
X338500Y294000D01*
X398250Y194500D02*
X414750D01*
X420000Y199750D01*
Y234000D01*
X427250Y241250D01*
Y294000D01*
X422935Y298315D02*
X427250Y294000D01*
X402185Y298315D02*
X422935D01*
X445000Y310750D02*
X452985Y302765D01*
X408000Y310750D02*
X445000D01*
X401115Y317635D02*
X408000Y310750D01*
X452985Y247211D02*
Y302765D01*
X436000Y200250D02*
X438500Y197750D01*
Y188250D02*
Y197750D01*
X452985Y247211D02*
X453274Y246922D01*
Y184274D02*
Y246922D01*
X446000Y177000D02*
X453274Y184274D01*
X356000Y177000D02*
X446000D01*
X340210Y120540D02*
Y161210D01*
X357006Y127506D02*
X357767D01*
X357000Y127500D02*
X357006Y127506D01*
X378503Y131210D02*
Y131328D01*
X377332Y132500D02*
X378503Y131328D01*
X364500Y323250D02*
X376750Y335500D01*
Y380500D01*
X363550Y393700D02*
X376750Y380500D01*
X300250Y314000D02*
X336600Y277650D01*
X338150D01*
X300250Y314000D02*
Y376500D01*
X304500Y380750D01*
X325200D01*
X338150Y393700D01*
X249000Y290600D02*
X261950Y277650D01*
X249000Y290600D02*
Y380750D01*
X261950Y393700D01*
X380000Y138750D02*
X380000D01*
X378750Y137500D02*
X380000Y138750D01*
X367500Y137500D02*
X378750D01*
X367500Y132500D02*
X377332D01*
X332500Y62250D02*
Y77500D01*
X342500Y61000D02*
Y77500D01*
X367500Y21250D02*
Y52500D01*
X285340Y59090D02*
X291250Y65000D01*
X294681D01*
X259840Y59090D02*
X285340D01*
X294681Y65000D02*
X297500Y67819D01*
Y77500D01*
X287250Y68172D02*
Y77250D01*
X282328Y63250D02*
X287250Y68172D01*
X282254Y68648D02*
Y77254D01*
X280606Y67000D02*
X282254Y68648D01*
X257000Y63250D02*
X282328D01*
X261250Y67000D02*
X280606D01*
X390000Y310500D02*
X402185Y298315D01*
X190000Y73500D02*
Y88000D01*
X316710Y173540D02*
X321250Y169000D01*
X316710Y173540D02*
Y180838D01*
X317500Y181628D01*
Y192500D01*
X321750Y178750D02*
Y191750D01*
X322500Y192500D01*
X337500Y176500D02*
X337750Y176250D01*
X352668Y184040D02*
X366290D01*
X337500Y176500D02*
Y192500D01*
X316500Y217500D02*
X325250Y226250D01*
X316500Y214000D02*
Y217500D01*
X312500Y210000D02*
X316500Y214000D01*
X282500Y208500D02*
Y210000D01*
X277500Y203500D02*
X282500Y208500D01*
X277500Y192500D02*
Y203500D01*
X220500Y165250D02*
X223250Y162500D01*
X252500D01*
X292500Y99250D02*
X299250Y106000D01*
X292500Y77500D02*
Y99250D01*
X321750Y54250D02*
X322500Y55000D01*
Y77500D01*
X317500D02*
X322500D01*
X312500Y77500D02*
Y89500D01*
X312500Y77500D02*
X312500Y77500D01*
X366000Y54000D02*
X367500Y52500D01*
Y147500D02*
Y152500D01*
X327500Y100000D02*
X327750Y100250D01*
X327500Y77500D02*
Y100000D01*
X394750Y194500D02*
X398250D01*
X312750Y319750D02*
Y368300D01*
X366290Y184040D02*
X370000Y187750D01*
Y199000D01*
X374250Y203250D01*
X392250D01*
X394422Y205422D01*
Y211922D01*
X394750Y212250D01*
X354542Y180520D02*
X373770D01*
X378750Y185500D01*
Y194500D01*
X339250Y331250D02*
Y367200D01*
X338150Y368300D02*
X339250Y367200D01*
Y331250D02*
X360000Y310500D01*
X390000D01*
X275000Y151250D02*
Y172500D01*
X248750Y198750D02*
X275000Y172500D01*
X274500Y119000D02*
Y122250D01*
X268540Y113040D02*
X274500Y119000D01*
X252500Y112500D02*
X253040Y113040D01*
X269250Y107500D02*
X269750Y108000D01*
X252500Y107500D02*
X269250D01*
X252500Y102500D02*
X276500D01*
X252500Y97500D02*
X274372D01*
X274412Y97460D01*
X278588D01*
X278628Y97500D01*
X253040Y113040D02*
X268540D01*
X278628Y97500D02*
X282250D01*
X375715Y217285D02*
X378250Y214750D01*
X312750Y368300D02*
X315570Y365480D01*
X388950Y393700D02*
X401115Y381535D01*
Y317635D02*
Y381535D01*
X282250Y97500D02*
X282500Y97250D01*
X265750Y172500D02*
X266500Y173250D01*
X252500Y172500D02*
X265750D01*
X210000Y198750D02*
X248750D01*
X205500Y156250D02*
X205750Y156000D01*
X193100Y168650D02*
X205500Y156250D01*
X205750Y156000D02*
X220000D01*
X121715Y259715D02*
Y356135D01*
X118120Y256120D02*
X121715Y259715D01*
X113677Y252250D02*
X117547Y256120D01*
X118120D01*
X109550Y252250D02*
X113677D01*
X352267Y149233D02*
X354000Y147500D01*
X352267Y149233D02*
Y151007D01*
X351000Y143250D02*
X351750Y142500D01*
X354000Y147500D02*
X367500D01*
X340210Y161210D02*
X356000Y177000D01*
X254750Y73500D02*
X261250Y67000D01*
X191000Y73500D02*
X254750D01*
X228000Y67000D02*
X253250D01*
X222500Y61500D02*
X228000Y67000D01*
X253250D02*
X257000Y63250D01*
X245000Y55000D02*
X255750D01*
X259840Y59090D01*
X338150Y252250D02*
X338900Y251500D01*
X388950Y277650D02*
X389550Y278250D01*
X367000Y98000D02*
X367500Y97500D01*
X351750Y142500D02*
X367500D01*
X109550Y368300D02*
X121715Y356135D01*
X178000Y156000D02*
X178750Y156750D01*
X177950Y155950D02*
X178000Y156000D01*
X178750Y156750D02*
X190000D01*
Y72500D02*
Y73500D01*
X282254Y77254D02*
X282500Y77500D01*
X287250Y77250D02*
X287500Y77500D01*
X222500Y40000D02*
Y60000D01*
Y21500D02*
Y40000D01*
Y21500D02*
X224000Y20000D01*
X222500Y60000D02*
Y61500D01*
X190000Y72500D02*
X191000Y73500D01*
X190000Y72500D02*
X190000Y72500D01*
X206000Y194750D02*
X210000Y198750D01*
X152120Y194050D02*
X188800D01*
X192750Y211000D02*
X196500Y214750D01*
X206000D01*
X192750Y198000D02*
Y211000D01*
X188800Y194050D02*
X192750Y198000D01*
X206000Y184750D02*
Y194750D01*
X202600Y181350D02*
X206000Y184750D01*
X152120Y181350D02*
X202600D01*
X152120Y168650D02*
X193100D01*
X152120Y155950D02*
X177950D01*
X235000Y172500D02*
X235000Y172500D01*
X252500D01*
X440862Y54200D02*
X441662Y55000D01*
X601216Y110616D02*
X603600Y113000D01*
D16*
X252500Y97500D02*
D03*
Y102500D02*
D03*
Y107500D02*
D03*
Y112500D02*
D03*
Y117500D02*
D03*
Y122500D02*
D03*
Y127500D02*
D03*
Y132500D02*
D03*
Y137500D02*
D03*
Y142500D02*
D03*
Y147500D02*
D03*
Y152500D02*
D03*
Y157500D02*
D03*
Y162500D02*
D03*
Y167500D02*
D03*
Y172500D02*
D03*
X367500D02*
D03*
Y167500D02*
D03*
Y162500D02*
D03*
Y157500D02*
D03*
Y152500D02*
D03*
Y147500D02*
D03*
Y142500D02*
D03*
Y137500D02*
D03*
Y132500D02*
D03*
Y127500D02*
D03*
Y122500D02*
D03*
Y117500D02*
D03*
Y112500D02*
D03*
Y107500D02*
D03*
Y102500D02*
D03*
Y97500D02*
D03*
D17*
X272500Y192500D02*
D03*
X277500D02*
D03*
X282500D02*
D03*
X287500D02*
D03*
X292500D02*
D03*
X297500D02*
D03*
X302500D02*
D03*
X307500D02*
D03*
X312500D02*
D03*
X317500D02*
D03*
X322500D02*
D03*
X327500D02*
D03*
X332500D02*
D03*
X337500D02*
D03*
X342500D02*
D03*
X347500D02*
D03*
Y77500D02*
D03*
X342500D02*
D03*
X337500D02*
D03*
X332500D02*
D03*
X327500D02*
D03*
X322500D02*
D03*
X317500D02*
D03*
X312500D02*
D03*
X307500D02*
D03*
X302500D02*
D03*
X297500D02*
D03*
X292500D02*
D03*
X287500D02*
D03*
X282500D02*
D03*
X277500D02*
D03*
X272500D02*
D03*
D18*
X154000Y35500D02*
D03*
Y45000D02*
D03*
Y54500D02*
D03*
X126000D02*
D03*
Y35500D02*
D03*
D19*
X97880Y155950D02*
D03*
Y168650D02*
D03*
Y181350D02*
D03*
Y194050D02*
D03*
X152120D02*
D03*
Y181350D02*
D03*
Y168650D02*
D03*
Y155950D02*
D03*
D20*
X410000Y149250D02*
D03*
Y131250D02*
D03*
D21*
X440862Y155800D02*
D03*
Y130400D02*
D03*
Y79600D02*
D03*
Y54200D02*
D03*
X539962Y79600D02*
D03*
Y155800D02*
D03*
D22*
X357500Y230000D02*
D03*
X342500D02*
D03*
X380750Y37750D02*
D03*
X365750D02*
D03*
X207500Y40000D02*
D03*
X222500D02*
D03*
X381000Y54000D02*
D03*
X366000D02*
D03*
X207500Y60000D02*
D03*
X222500D02*
D03*
X282500Y230000D02*
D03*
X297500D02*
D03*
X282500Y210000D02*
D03*
X297500D02*
D03*
X327500Y230000D02*
D03*
X312500D02*
D03*
X357500Y210000D02*
D03*
X342500D02*
D03*
X312500Y210000D02*
D03*
X327500D02*
D03*
D23*
X206000Y20000D02*
D03*
X224000D02*
D03*
X385500Y21250D02*
D03*
X367500D02*
D03*
D24*
X621999Y150749D02*
D03*
Y222249D02*
D03*
X622250Y222500D02*
D03*
Y151000D02*
D03*
D25*
X637500Y186500D02*
D03*
D26*
X190000Y88000D02*
D03*
X230000D02*
D03*
Y112000D02*
D03*
X190000D02*
D03*
D27*
X436000Y200250D02*
D03*
Y220250D02*
D03*
X400000Y105000D02*
D03*
Y85000D02*
D03*
X245000Y55000D02*
D03*
Y35000D02*
D03*
X178000Y136000D02*
D03*
Y156000D02*
D03*
X205500Y156250D02*
D03*
Y136250D02*
D03*
X178250Y194750D02*
D03*
Y214750D02*
D03*
X206000Y194750D02*
D03*
Y214750D02*
D03*
D28*
X320000Y21800D02*
D03*
X296000D02*
D03*
D29*
X340000Y46300D02*
D03*
X276000D02*
D03*
D30*
X321000Y48550D02*
D03*
X314500D02*
D03*
X308000D02*
D03*
X301500D02*
D03*
X295000D02*
D03*
D31*
X394750Y194500D02*
D03*
X378750D02*
D03*
Y212250D02*
D03*
X394750D02*
D03*
D32*
X190000Y37500D02*
D03*
Y22500D02*
D03*
X170000Y52500D02*
D03*
Y37500D02*
D03*
X110000Y67500D02*
D03*
Y52500D02*
D03*
X110000Y22500D02*
D03*
Y37500D02*
D03*
X235000Y187500D02*
D03*
Y172500D02*
D03*
X570000Y62500D02*
D03*
Y77500D02*
D03*
X399976Y38250D02*
D03*
Y53250D02*
D03*
X392000Y148500D02*
D03*
Y133500D02*
D03*
X570000Y112500D02*
D03*
Y127500D02*
D03*
X417024Y38250D02*
D03*
Y53250D02*
D03*
X189750Y55000D02*
D03*
Y70000D02*
D03*
X235000Y142500D02*
D03*
Y127500D02*
D03*
D33*
X332500Y61750D02*
D03*
X342500Y61000D02*
D03*
X327250Y35750D02*
D03*
X356750Y107250D02*
D03*
X350250Y112000D02*
D03*
X351250Y220500D02*
D03*
X436000Y232250D02*
D03*
X411750Y231750D02*
D03*
X355500Y305250D02*
D03*
X438500Y188250D02*
D03*
X401115Y317635D02*
D03*
X357767Y127506D02*
D03*
X321750Y131250D02*
D03*
X378503Y131210D02*
D03*
X364500Y323250D02*
D03*
X387500Y112500D02*
D03*
X380000Y138750D02*
D03*
X294750Y39000D02*
D03*
X253000Y17750D02*
D03*
X321250Y169000D02*
D03*
X321750Y178750D02*
D03*
X337750Y176250D02*
D03*
X216000Y175000D02*
D03*
X220500Y165250D02*
D03*
X312500Y89500D02*
D03*
X392250Y20500D02*
D03*
X275000Y151250D02*
D03*
X274500Y122250D02*
D03*
X269750Y108000D02*
D03*
X276500Y102500D02*
D03*
X327750Y100250D02*
D03*
X282500Y97250D02*
D03*
X266500Y173250D02*
D03*
X220000Y156000D02*
D03*
X352267Y151007D02*
D03*
X351000Y143250D02*
D03*
X345250Y131250D02*
D03*
X205000Y13750D02*
D03*
X130500Y16250D02*
D03*
X476750Y18800D02*
D03*
X417000Y96750D02*
D03*
X358750Y77500D02*
D03*
X190000Y156750D02*
D03*
D51*
X336500Y101500D02*
D03*
X299250Y106000D02*
D03*
D60*
X359335Y112500D02*
X387500D01*
X350250Y112000D02*
X350791D01*
X351581Y112790D01*
X359045D01*
X359335Y112500D01*
X345250Y130709D02*
Y156750D01*
X387500Y112500D02*
X392243D01*
X570000Y79500D02*
X603600D01*
X321500Y131000D02*
X321750Y131250D01*
X417000Y71500D02*
Y96750D01*
X394000Y110500D02*
Y110743D01*
X392243Y112500D02*
X394000Y110743D01*
Y110500D02*
X399500Y105000D01*
X400000D01*
X253000Y5500D02*
X295500D01*
X190000D02*
X253000D01*
X294750Y39000D02*
X294875Y39125D01*
Y48425D01*
X295000Y48550D01*
X253000Y5500D02*
Y17750D01*
X410000Y149250D02*
Y160000D01*
X399976Y53250D02*
Y54476D01*
X302500Y131250D02*
Y192500D01*
X386250Y20500D02*
X392250D01*
X385500Y21250D02*
X386250Y20500D01*
X417024Y53250D02*
X417974Y54200D01*
X440450D01*
X268750Y136250D02*
Y164000D01*
Y136250D02*
X274000Y131000D01*
X265250Y167500D02*
X268750Y164000D01*
X94500Y136250D02*
X205500D01*
X410000Y160000D02*
X415750Y165750D01*
X461000D01*
X409750Y130400D02*
X440450D01*
X461000Y165750D02*
X474250Y152500D01*
Y122750D02*
Y152500D01*
X463000Y111500D02*
X474250Y122750D01*
X425500Y111500D02*
X463000D01*
X417000Y103000D02*
X425500Y111500D01*
X417000Y96750D02*
Y103000D01*
X190000Y5500D02*
Y22500D01*
X252500Y167500D02*
X265250D01*
X115750Y181000D02*
Y214750D01*
Y159750D02*
Y181000D01*
X115400Y181350D02*
X115750Y181000D01*
X97880Y181350D02*
X115400D01*
X76500Y5500D02*
X154000D01*
X65750Y16250D02*
X76500Y5500D01*
X65750Y16250D02*
Y388250D01*
X71200Y393700D02*
X84150D01*
X65750Y388250D02*
X71200Y393700D01*
X96885Y251750D02*
Y355565D01*
X82632Y366782D02*
X84150Y368300D01*
X94250Y136500D02*
Y154200D01*
Y60750D02*
Y136500D01*
X94500Y136250D01*
X115750Y214750D02*
Y225250D01*
Y214750D02*
X115750Y214750D01*
X178250D01*
X96885Y244115D02*
X115750Y225250D01*
X96885Y244115D02*
Y251750D01*
X96385Y252250D02*
X96885Y251750D01*
X84150Y252250D02*
X96385D01*
X84150Y368300D02*
X96885Y355565D01*
X111950Y155950D02*
X115750Y159750D01*
X97880Y155950D02*
X111950D01*
X94250Y154200D02*
X96000Y155950D01*
X97880D01*
X94250Y60750D02*
X100257Y54743D01*
X107757D01*
X110000Y52500D01*
X252500Y137500D02*
X267750D01*
X302750Y131000D02*
X321500D01*
X274000D02*
X302750D01*
X302500Y131250D02*
X302750Y131000D01*
X345250Y156750D02*
X356000Y167500D01*
X367500D01*
X154000Y5500D02*
X190000D01*
X129500Y16250D02*
X130500D01*
X126000Y19750D02*
X129500Y16250D01*
X126000Y19750D02*
Y35500D01*
X295500Y5500D02*
X464500D01*
X399976Y54476D02*
X417000Y71500D01*
X464500Y5500D02*
X476750Y17750D01*
X154000Y5500D02*
X154000Y5500D01*
X154000Y5500D02*
Y35500D01*
X84150Y393700D02*
X109550D01*
X297500Y210000D02*
Y230000D01*
X110000Y52500D02*
X110000Y52500D01*
X110000Y37500D02*
Y52500D01*
Y37500D02*
X112000Y35500D01*
X126000D01*
X154000D02*
X155500D01*
X157500Y37500D01*
X170000D01*
X297500Y208500D02*
Y210000D01*
Y208500D02*
X302500Y203500D01*
Y192500D02*
Y203500D01*
X297500Y230000D02*
X297500Y230000D01*
X312500D01*
X390100Y130400D02*
X409750D01*
X389750Y130750D02*
X390100Y130400D01*
X542062Y77500D02*
X544062Y79500D01*
X543650D02*
X570000D01*
X441250Y55000D02*
X490000D01*
X495000Y60000D01*
Y105000D01*
X502500Y112500D01*
X570000D01*
X570500Y113000D01*
X603600D01*
D61*
X327500Y100500D02*
Y160000D01*
Y192500D01*
Y100500D02*
X327750Y100250D01*
X327500Y192500D02*
Y210000D01*
X357000Y127500D02*
X367500D01*
X198000Y280000D02*
Y389250D01*
X193550Y393700D02*
X198000Y389250D01*
X185750Y393700D02*
X193550D01*
X173000Y281250D02*
Y391000D01*
X170300Y393700D02*
X173000Y391000D01*
X160350Y393700D02*
X170300D01*
X195650Y277650D02*
X198000Y280000D01*
X185750Y277650D02*
X195650D01*
X169400D02*
X173000Y281250D01*
X160350Y277650D02*
X169400D01*
X147038Y258288D02*
Y356212D01*
X141000Y252250D02*
X147038Y258288D01*
X134950Y252250D02*
X141000D01*
X347500Y77500D02*
X358750D01*
X338150Y252250D02*
X338750D01*
X134950Y368300D02*
X147038Y356212D01*
X327500Y210000D02*
X327500Y210000D01*
X342500D02*
X342500Y210000D01*
Y230000D01*
X327500Y210000D02*
X342500D01*
D62*
X302150Y54650D02*
Y77150D01*
X301750Y54250D02*
X302150Y54650D01*
Y77150D02*
X302500Y77500D01*
D63*
X373250Y89750D02*
X378000Y85000D01*
X342158Y89750D02*
X373250D01*
X337500Y85092D02*
X342158Y89750D01*
X337500Y77500D02*
Y85092D01*
X378000Y85000D02*
X400000D01*
D64*
X245250Y89000D02*
X275250D01*
X277500Y86750D01*
X242500Y91750D02*
X245250Y89000D01*
X277500Y77500D02*
Y86750D01*
X242500Y111750D02*
Y121500D01*
Y91750D02*
Y111750D01*
X242250Y112000D02*
X242500Y111750D01*
X230000Y112000D02*
X242250D01*
X236500Y127500D02*
X242500Y121500D01*
X235000Y127500D02*
X236500D01*
D65*
X566750Y393700D02*
D03*
Y368300D02*
D03*
X541350Y393700D02*
D03*
Y368300D02*
D03*
X515950Y393700D02*
D03*
Y368300D02*
D03*
X490550Y393700D02*
D03*
Y368300D02*
D03*
X465150Y393700D02*
D03*
Y368300D02*
D03*
X439750Y393700D02*
D03*
Y368300D02*
D03*
X414350Y393700D02*
D03*
Y368300D02*
D03*
X388950Y393700D02*
D03*
Y368300D02*
D03*
X363550Y393700D02*
D03*
Y368300D02*
D03*
X338150Y393700D02*
D03*
Y368300D02*
D03*
X312750Y393700D02*
D03*
Y368300D02*
D03*
X287350Y393700D02*
D03*
Y368300D02*
D03*
X261950Y393700D02*
D03*
Y368300D02*
D03*
X236550Y393700D02*
D03*
Y368300D02*
D03*
X211150Y393700D02*
D03*
Y368300D02*
D03*
X185750Y393700D02*
D03*
Y368300D02*
D03*
X160350Y393700D02*
D03*
Y368300D02*
D03*
X134950Y393700D02*
D03*
Y368300D02*
D03*
X109550Y393700D02*
D03*
Y368300D02*
D03*
X84150Y393700D02*
D03*
Y277650D02*
D03*
X109550Y252250D02*
D03*
Y277650D02*
D03*
X134950Y252250D02*
D03*
Y277650D02*
D03*
X160350Y252250D02*
D03*
Y277650D02*
D03*
X185750Y252250D02*
D03*
Y277650D02*
D03*
X211150Y252250D02*
D03*
Y277650D02*
D03*
X236550Y252250D02*
D03*
Y277650D02*
D03*
X261950Y252250D02*
D03*
Y277650D02*
D03*
X287350Y252250D02*
D03*
Y277650D02*
D03*
X312750Y252250D02*
D03*
Y277650D02*
D03*
X338150Y252250D02*
D03*
Y277650D02*
D03*
X363550Y252250D02*
D03*
Y277650D02*
D03*
X388950Y252250D02*
D03*
Y277650D02*
D03*
X414350Y252250D02*
D03*
Y277650D02*
D03*
X439750Y252250D02*
D03*
Y277650D02*
D03*
X465150Y252250D02*
D03*
Y277650D02*
D03*
X490550Y252250D02*
D03*
Y277650D02*
D03*
X515950Y252250D02*
D03*
Y277650D02*
D03*
X541350Y252250D02*
D03*
Y277650D02*
D03*
X566750Y252250D02*
D03*
Y277650D02*
D03*
D66*
X84150Y368300D02*
D03*
Y252250D02*
D03*
D67*
X629000Y113000D02*
D03*
Y79500D02*
D03*
D68*
X603600Y113000D02*
D03*
Y79500D02*
D03*
D69*
X341000Y21800D02*
D03*
X275000D02*
D03*
M02*
