G04*
G04 #@! TF.GenerationSoftware,Altium Limited,Altium Designer,19.1.7 (138)*
G04*
G04 Layer_Color=8388736*
%FSLAX44Y44*%
%MOMM*%
G71*
G01*
G75*
%ADD34R,1.6000X0.4000*%
%ADD35R,0.4000X1.6000*%
%ADD36R,1.0000X0.7000*%
%ADD37R,1.6250X0.7500*%
%ADD38R,1.5000X1.2500*%
%ADD39R,2.3900X1.1000*%
%ADD40R,1.2000X1.5000*%
%ADD41R,0.7000X1.3500*%
%ADD42R,5.0000X3.1000*%
%ADD43R,2.4500X0.8000*%
%ADD44R,1.9000X1.3000*%
%ADD45R,1.6000X1.5000*%
%ADD46R,2.0000X2.0000*%
%ADD47R,1.7000X1.5000*%
%ADD48R,0.5000X1.4500*%
%ADD49R,0.9000X1.1000*%
%ADD50R,1.5000X1.2000*%
%ADD51C,0.6000*%
%ADD52C,1.8250*%
%ADD53R,1.8250X1.8250*%
%ADD54R,1.5460X1.5460*%
%ADD55C,1.5460*%
%ADD56C,2.0500*%
%ADD57C,2.0000*%
%ADD58C,3.6000*%
%ADD59C,0.7000*%
D34*
X252500Y97500D02*
D03*
Y102500D02*
D03*
Y107500D02*
D03*
Y112500D02*
D03*
Y117500D02*
D03*
Y122500D02*
D03*
Y127500D02*
D03*
Y132500D02*
D03*
Y137500D02*
D03*
Y142500D02*
D03*
Y147500D02*
D03*
Y152500D02*
D03*
Y157500D02*
D03*
Y162500D02*
D03*
Y167500D02*
D03*
Y172500D02*
D03*
X367500D02*
D03*
Y167500D02*
D03*
Y162500D02*
D03*
Y157500D02*
D03*
Y152500D02*
D03*
Y147500D02*
D03*
Y142500D02*
D03*
Y137500D02*
D03*
Y132500D02*
D03*
Y127500D02*
D03*
Y122500D02*
D03*
Y117500D02*
D03*
Y112500D02*
D03*
Y107500D02*
D03*
Y102500D02*
D03*
Y97500D02*
D03*
D35*
X272500Y192500D02*
D03*
X277500D02*
D03*
X282500D02*
D03*
X287500D02*
D03*
X292500D02*
D03*
X297500D02*
D03*
X302500D02*
D03*
X307500D02*
D03*
X312500D02*
D03*
X317500D02*
D03*
X322500D02*
D03*
X327500D02*
D03*
X332500D02*
D03*
X337500D02*
D03*
X342500D02*
D03*
X347500D02*
D03*
Y77500D02*
D03*
X342500D02*
D03*
X337500D02*
D03*
X332500D02*
D03*
X327500D02*
D03*
X322500D02*
D03*
X317500D02*
D03*
X312500D02*
D03*
X307500D02*
D03*
X302500D02*
D03*
X297500D02*
D03*
X292500D02*
D03*
X287500D02*
D03*
X282500D02*
D03*
X277500D02*
D03*
X272500D02*
D03*
D36*
X154000Y35500D02*
D03*
Y45000D02*
D03*
Y54500D02*
D03*
X126000D02*
D03*
Y35500D02*
D03*
D37*
X97880Y155950D02*
D03*
Y168650D02*
D03*
Y181350D02*
D03*
Y194050D02*
D03*
X152120D02*
D03*
Y181350D02*
D03*
Y168650D02*
D03*
Y155950D02*
D03*
D38*
X410000Y149250D02*
D03*
Y131250D02*
D03*
D39*
X440862Y155800D02*
D03*
Y130400D02*
D03*
Y79600D02*
D03*
Y54200D02*
D03*
X539962Y79600D02*
D03*
Y155800D02*
D03*
D40*
X357500Y230000D02*
D03*
X342500D02*
D03*
X380750Y37750D02*
D03*
X365750D02*
D03*
X207500Y40000D02*
D03*
X222500D02*
D03*
X381000Y54000D02*
D03*
X366000D02*
D03*
X207500Y60000D02*
D03*
X222500D02*
D03*
X282500Y230000D02*
D03*
X297500D02*
D03*
X282500Y210000D02*
D03*
X297500D02*
D03*
X327500Y230000D02*
D03*
X312500D02*
D03*
X357500Y210000D02*
D03*
X342500D02*
D03*
X312500Y210000D02*
D03*
X327500D02*
D03*
D41*
X206000Y20000D02*
D03*
X224000D02*
D03*
X385500Y21250D02*
D03*
X367500D02*
D03*
D42*
X621999Y150749D02*
D03*
Y222249D02*
D03*
X622250Y222500D02*
D03*
Y151000D02*
D03*
D43*
X637500Y186500D02*
D03*
D44*
X190000Y88000D02*
D03*
X230000D02*
D03*
Y112000D02*
D03*
X190000D02*
D03*
D45*
X436000Y200250D02*
D03*
Y220250D02*
D03*
X400000Y105000D02*
D03*
Y85000D02*
D03*
X245000Y55000D02*
D03*
Y35000D02*
D03*
X178000Y136000D02*
D03*
Y156000D02*
D03*
X205500Y156250D02*
D03*
Y136250D02*
D03*
X178250Y194750D02*
D03*
Y214750D02*
D03*
X206000Y194750D02*
D03*
Y214750D02*
D03*
D46*
X320000Y21800D02*
D03*
X296000D02*
D03*
D47*
X340000Y46300D02*
D03*
X276000D02*
D03*
D48*
X321000Y48550D02*
D03*
X314500D02*
D03*
X308000D02*
D03*
X301500D02*
D03*
X295000D02*
D03*
D49*
X394750Y194500D02*
D03*
X378750D02*
D03*
Y212250D02*
D03*
X394750D02*
D03*
D50*
X190000Y37500D02*
D03*
Y22500D02*
D03*
X170000Y52500D02*
D03*
Y37500D02*
D03*
X110000Y67500D02*
D03*
Y52500D02*
D03*
X110000Y22500D02*
D03*
Y37500D02*
D03*
X235000Y187500D02*
D03*
Y172500D02*
D03*
X570000Y62500D02*
D03*
Y77500D02*
D03*
X399976Y38250D02*
D03*
Y53250D02*
D03*
X392000Y148500D02*
D03*
Y133500D02*
D03*
X570000Y112500D02*
D03*
Y127500D02*
D03*
X417024Y38250D02*
D03*
Y53250D02*
D03*
X189750Y55000D02*
D03*
Y70000D02*
D03*
X235000Y142500D02*
D03*
Y127500D02*
D03*
D51*
X332500Y61750D02*
D03*
X342500Y61000D02*
D03*
X327250Y35750D02*
D03*
X356750Y107250D02*
D03*
X350250Y112000D02*
D03*
X351250Y220500D02*
D03*
X436000Y232250D02*
D03*
X411750Y231750D02*
D03*
X355500Y305250D02*
D03*
X438500Y188250D02*
D03*
X401115Y317635D02*
D03*
X357767Y127506D02*
D03*
X321750Y131250D02*
D03*
X378503Y131210D02*
D03*
X364500Y323250D02*
D03*
X387500Y112500D02*
D03*
X380000Y138750D02*
D03*
X294750Y39000D02*
D03*
X253000Y17750D02*
D03*
X321250Y169000D02*
D03*
X321750Y178750D02*
D03*
X337750Y176250D02*
D03*
X216000Y175000D02*
D03*
X220500Y165250D02*
D03*
X312500Y89500D02*
D03*
X392250Y20500D02*
D03*
X275000Y151250D02*
D03*
X274500Y122250D02*
D03*
X269750Y108000D02*
D03*
X276500Y102500D02*
D03*
X327750Y100250D02*
D03*
X282500Y97250D02*
D03*
X266500Y173250D02*
D03*
X220000Y156000D02*
D03*
X352267Y151007D02*
D03*
X351000Y143250D02*
D03*
X345250Y131250D02*
D03*
X205000Y13750D02*
D03*
X130500Y16250D02*
D03*
X476750Y18800D02*
D03*
X417000Y96750D02*
D03*
X358750Y77500D02*
D03*
X190000Y156750D02*
D03*
D52*
X566750Y393700D02*
D03*
Y368300D02*
D03*
X541350Y393700D02*
D03*
Y368300D02*
D03*
X515950Y393700D02*
D03*
Y368300D02*
D03*
X490550Y393700D02*
D03*
Y368300D02*
D03*
X465150Y393700D02*
D03*
Y368300D02*
D03*
X439750Y393700D02*
D03*
Y368300D02*
D03*
X414350Y393700D02*
D03*
Y368300D02*
D03*
X388950Y393700D02*
D03*
Y368300D02*
D03*
X363550Y393700D02*
D03*
Y368300D02*
D03*
X338150Y393700D02*
D03*
Y368300D02*
D03*
X312750Y393700D02*
D03*
Y368300D02*
D03*
X287350Y393700D02*
D03*
Y368300D02*
D03*
X261950Y393700D02*
D03*
Y368300D02*
D03*
X236550Y393700D02*
D03*
Y368300D02*
D03*
X211150Y393700D02*
D03*
Y368300D02*
D03*
X185750Y393700D02*
D03*
Y368300D02*
D03*
X160350Y393700D02*
D03*
Y368300D02*
D03*
X134950Y393700D02*
D03*
Y368300D02*
D03*
X109550Y393700D02*
D03*
Y368300D02*
D03*
X84150Y393700D02*
D03*
Y277650D02*
D03*
X109550Y252250D02*
D03*
Y277650D02*
D03*
X134950Y252250D02*
D03*
Y277650D02*
D03*
X160350Y252250D02*
D03*
Y277650D02*
D03*
X185750Y252250D02*
D03*
Y277650D02*
D03*
X211150Y252250D02*
D03*
Y277650D02*
D03*
X236550Y252250D02*
D03*
Y277650D02*
D03*
X261950Y252250D02*
D03*
Y277650D02*
D03*
X287350Y252250D02*
D03*
Y277650D02*
D03*
X312750Y252250D02*
D03*
Y277650D02*
D03*
X338150Y252250D02*
D03*
Y277650D02*
D03*
X363550Y252250D02*
D03*
Y277650D02*
D03*
X388950Y252250D02*
D03*
Y277650D02*
D03*
X414350Y252250D02*
D03*
Y277650D02*
D03*
X439750Y252250D02*
D03*
Y277650D02*
D03*
X465150Y252250D02*
D03*
Y277650D02*
D03*
X490550Y252250D02*
D03*
Y277650D02*
D03*
X515950Y252250D02*
D03*
Y277650D02*
D03*
X541350Y252250D02*
D03*
Y277650D02*
D03*
X566750Y252250D02*
D03*
Y277650D02*
D03*
D53*
X84150Y368300D02*
D03*
Y252250D02*
D03*
D54*
X629000Y113000D02*
D03*
Y79500D02*
D03*
D55*
X603600Y113000D02*
D03*
Y79500D02*
D03*
D56*
X341000Y21800D02*
D03*
X275000D02*
D03*
D57*
X585000Y151000D02*
D03*
X613000Y186250D02*
D03*
X585500Y221250D02*
D03*
D58*
X615000Y265000D02*
D03*
X35000D02*
D03*
X615000Y375000D02*
D03*
Y35000D02*
D03*
X35000Y375000D02*
D03*
Y35000D02*
D03*
D59*
X336500Y101500D02*
D03*
X299250Y106000D02*
D03*
M02*
