G04*
G04 #@! TF.GenerationSoftware,Altium Limited,Altium Designer,19.1.7 (138)*
G04*
G04 Layer_Color=8421504*
%FSLAX44Y44*%
%MOMM*%
G71*
G01*
G75*
%ADD16R,1.5000X0.3000*%
%ADD17R,0.3000X1.5000*%
%ADD18R,0.9000X0.6000*%
%ADD19R,1.5250X0.6500*%
%ADD20R,1.4000X1.1500*%
%ADD21R,2.2900X1.0000*%
%ADD22R,1.1000X1.4000*%
%ADD23R,0.6000X1.2500*%
%ADD24R,4.9000X3.0000*%
%ADD25R,2.3500X0.7000*%
%ADD26R,1.8000X1.2000*%
%ADD27R,1.5000X1.4000*%
%ADD28R,1.9000X1.9000*%
%ADD29R,1.6000X1.4000*%
%ADD30R,0.4000X1.3500*%
%ADD31R,0.8000X1.0000*%
%ADD32R,1.4000X1.1000*%
%ADD33C,0.5000*%
D16*
X252500Y97500D02*
D03*
Y102500D02*
D03*
Y107500D02*
D03*
Y112500D02*
D03*
Y117500D02*
D03*
Y122500D02*
D03*
Y127500D02*
D03*
Y132500D02*
D03*
Y137500D02*
D03*
Y142500D02*
D03*
Y147500D02*
D03*
Y152500D02*
D03*
Y157500D02*
D03*
Y162500D02*
D03*
Y167500D02*
D03*
Y172500D02*
D03*
X367500D02*
D03*
Y167500D02*
D03*
Y162500D02*
D03*
Y157500D02*
D03*
Y152500D02*
D03*
Y147500D02*
D03*
Y142500D02*
D03*
Y137500D02*
D03*
Y132500D02*
D03*
Y127500D02*
D03*
Y122500D02*
D03*
Y117500D02*
D03*
Y112500D02*
D03*
Y107500D02*
D03*
Y102500D02*
D03*
Y97500D02*
D03*
D17*
X272500Y192500D02*
D03*
X277500D02*
D03*
X282500D02*
D03*
X287500D02*
D03*
X292500D02*
D03*
X297500D02*
D03*
X302500D02*
D03*
X307500D02*
D03*
X312500D02*
D03*
X317500D02*
D03*
X322500D02*
D03*
X327500D02*
D03*
X332500D02*
D03*
X337500D02*
D03*
X342500D02*
D03*
X347500D02*
D03*
Y77500D02*
D03*
X342500D02*
D03*
X337500D02*
D03*
X332500D02*
D03*
X327500D02*
D03*
X322500D02*
D03*
X317500D02*
D03*
X312500D02*
D03*
X307500D02*
D03*
X302500D02*
D03*
X297500D02*
D03*
X292500D02*
D03*
X287500D02*
D03*
X282500D02*
D03*
X277500D02*
D03*
X272500D02*
D03*
D18*
X154000Y35500D02*
D03*
Y45000D02*
D03*
Y54500D02*
D03*
X126000D02*
D03*
Y35500D02*
D03*
D19*
X97880Y155950D02*
D03*
Y168650D02*
D03*
Y181350D02*
D03*
Y194050D02*
D03*
X152120D02*
D03*
Y181350D02*
D03*
Y168650D02*
D03*
Y155950D02*
D03*
D20*
X410000Y149250D02*
D03*
Y131250D02*
D03*
D21*
X440862Y155800D02*
D03*
Y130400D02*
D03*
Y79600D02*
D03*
Y54200D02*
D03*
X539962Y79600D02*
D03*
Y155800D02*
D03*
D22*
X357500Y230000D02*
D03*
X342500D02*
D03*
X380750Y37750D02*
D03*
X365750D02*
D03*
X207500Y40000D02*
D03*
X222500D02*
D03*
X381000Y54000D02*
D03*
X366000D02*
D03*
X207500Y60000D02*
D03*
X222500D02*
D03*
X282500Y230000D02*
D03*
X297500D02*
D03*
X282500Y210000D02*
D03*
X297500D02*
D03*
X327500Y230000D02*
D03*
X312500D02*
D03*
X357500Y210000D02*
D03*
X342500D02*
D03*
X312500Y210000D02*
D03*
X327500D02*
D03*
D23*
X206000Y20000D02*
D03*
X224000D02*
D03*
X385500Y21250D02*
D03*
X367500D02*
D03*
D24*
X621999Y150749D02*
D03*
Y222249D02*
D03*
X622250Y222500D02*
D03*
Y151000D02*
D03*
D25*
X637500Y186500D02*
D03*
D26*
X190000Y88000D02*
D03*
X230000D02*
D03*
Y112000D02*
D03*
X190000D02*
D03*
D27*
X436000Y200250D02*
D03*
Y220250D02*
D03*
X400000Y105000D02*
D03*
Y85000D02*
D03*
X245000Y55000D02*
D03*
Y35000D02*
D03*
X178000Y136000D02*
D03*
Y156000D02*
D03*
X205500Y156250D02*
D03*
Y136250D02*
D03*
X178250Y194750D02*
D03*
Y214750D02*
D03*
X206000Y194750D02*
D03*
Y214750D02*
D03*
D28*
X320000Y21800D02*
D03*
X296000D02*
D03*
D29*
X340000Y46300D02*
D03*
X276000D02*
D03*
D30*
X321000Y48550D02*
D03*
X314500D02*
D03*
X308000D02*
D03*
X301500D02*
D03*
X295000D02*
D03*
D31*
X394750Y194500D02*
D03*
X378750D02*
D03*
Y212250D02*
D03*
X394750D02*
D03*
D32*
X190000Y37500D02*
D03*
Y22500D02*
D03*
X170000Y52500D02*
D03*
Y37500D02*
D03*
X110000Y67500D02*
D03*
Y52500D02*
D03*
X110000Y22500D02*
D03*
Y37500D02*
D03*
X235000Y187500D02*
D03*
Y172500D02*
D03*
X570000Y62500D02*
D03*
Y77500D02*
D03*
X399976Y38250D02*
D03*
Y53250D02*
D03*
X392000Y148500D02*
D03*
Y133500D02*
D03*
X570000Y112500D02*
D03*
Y127500D02*
D03*
X417024Y38250D02*
D03*
Y53250D02*
D03*
X189750Y55000D02*
D03*
Y70000D02*
D03*
X235000Y142500D02*
D03*
Y127500D02*
D03*
D33*
X332500Y61750D02*
D03*
X342500Y61000D02*
D03*
M02*
