M48
;Layer_Color=9474304
;FILE_FORMAT=4:4
METRIC,TZ
;TYPE=PLATED
T1F00S00C0.2000
T2F00S00C0.7500
T3F00S00C0.9000
;TYPE=NON_PLATED
T4F00S00C2.8000
%
T01
X195500Y14500
Y25500
X216119Y36404
X238500Y38500
X247186Y51055
X247500Y61000
X224000Y58500
Y68500
X213500
Y58500
X203500
X203500Y68500
Y79500
X213500
X224000
X222500Y15000
X256392Y34997
X265500Y49481
X273000Y56185
X303000Y82000
X312331Y91227
X293000Y92500
X326999Y75927
X342500Y59500
X350000Y47500
X357397Y40634
X375108Y44608
X389140Y34134
X397360Y35165
X400000Y59500
Y69500
X389500Y69500
Y59500
Y80500
X400000Y80500
X410500
Y69500
Y59500
X433096Y57009
X432517Y82250
X439501Y92750
X451451Y92756
X452500Y68000
X460500Y50000
X487000Y28500
X540000Y28000
X540706Y65000
X551500Y65000
X433519Y18481
X433454Y8893
X387500Y11000
X375000
X344481Y8390
X344443Y16686
X324000Y46000
X368000Y67000
X374944Y92016
X180000Y55136
X188608Y44878
X184499Y18501
X172500Y18500
X134500Y61000
X131917Y78937
X86500Y62500
X77000Y41500
X88000Y104000
X104000Y97000
X137500
X148238Y99452
X158374Y96275
X138166Y120254
X137000Y149000
X126000
X104000Y143000
X88000Y150000
X90000Y162000
X100000
X79500
X69000
X45898Y168172
X27500Y172500
Y162500
X17500
Y172500
X36500Y150000
Y104000
X39500Y229500
X49500
X25500
X15500
X88500Y224000
X97000
X106500Y235000
X125000Y230000
X151000Y229750
X150957Y200745
X151850Y182093
X146500Y172373
X146138Y162101
X157839Y168909
X161500Y175500
X163187Y186135
X177370Y198851
X171500Y210500
X173593Y218333
X187500Y226500
Y183000
Y172855
Y162500
Y151276
Y141500
X182111Y119089
X129036Y190964
X127858Y201490
X113590Y196701
X111648Y188352
X111500Y179000
X199007Y183000
Y172855
Y162500
X210224Y162500
Y172855
Y183000
X221751Y183320
Y173175
Y162820
X232500Y162500
Y172855
Y183000
X242888Y197279
X263500Y198000
X275573Y197948
X272855Y210044
X277000Y227000
X301500Y219500
X338000Y220585
X339500Y191000
X326769Y185972
X327000Y167000
X351216Y154999
X352000Y144501
X353999Y127499
X339500Y128500
X329000
X334500Y120500
X344500Y113656
X374417Y99661
X379000Y127500
X388262Y127170
X403993Y120949
X407000Y107500
X416000Y105500
X468000Y107000
Y118000
X493180Y104108
X523500Y117000
X540190Y114000
X552500Y114320
X572425Y116483
X568000Y152000
X564000Y169500
X552292Y213803
X541855Y213829
X519000Y229500
X516000Y189000
X505889Y186313
X501500Y179000
Y169000
X490899Y171161
X475442Y170641
X453750Y178501
X445999Y184749
X459625Y187125
X446017Y204420
X476500Y209000
X490000Y214500
X445999Y165749
Y146749
X378500Y146000
X372500Y181000
X371000Y219237
X376500Y259500
X314060Y192951
X307500Y184500
X281737Y182043
X261182Y172685
X254000Y175036
X256517Y187500
X256515Y159990
X263520Y165151
X263500Y148787
X255349Y144707
X255180Y137169
X255000Y125500
X269069Y115074
X291502Y115099
X287353Y127853
X302000Y129500
X314500Y142000
X314000Y99500
X284650Y99200
X270607Y154450
X232500Y151276
Y141500
X221751Y141320
Y151595
X210224Y151275
Y141500
X199007
Y151276
X202990Y118731
X211253Y111200
X211000Y102500
X217943Y117093
X228042Y206315
X228635Y215620
X207325Y210383
X197964Y205428
X197997Y216623
X209226Y227878
X246244Y238467
X198500Y286000
X596000Y190500
Y179500
X620500Y160000
X621500Y213000
T02
X107500Y62500
T03
X603600Y79500
X629000
X185750Y252250
X160350
X134950
X109550
X84150
Y277650
X109550
X134950
X160350
X185750
X211150
Y252250
X236550
X261950
X287350
X312750
X338150
X363550
X388950
X414350
Y277650
X439750
X465150
X490550
X515950
X541350
X566750
Y252250
X541350
X515950
X490550
X465150
X439750
X388950Y277650
X363550
X338150
X312750
X287350
X261950
X236550
X603600Y113000
X629000
T04
X615000Y35000
X35000
Y265000
X615000
M30
