M48
;Layer_Color=9474304
;FILE_FORMAT=4:2
METRIC,LZ
;TYPE=PLATED
T1F00S00C0.20
T2F00S00C0.30
T3F00S00C0.90
T4F00S00C1.31
T5F00S00C1.72
;TYPE=NON_PLATED
T6F00S00C0.80
T7F00S00C2.80
%
T01
X00378Y001032
X003871
X003916Y00113
X003825
X003735
X00378Y001227
X003871
T02
X00202Y000443
X002023Y000515
X00211Y000518
X002108Y000443
X002283Y0006
X002679Y000845
X002512Y000173
X003803Y000288
X0044Y00039
X00458Y000142
X005124Y000409
X001808Y00037
X00177Y000285
X001762Y00045
X001817Y00063
X001498Y000672
X001425Y000728
X001377Y000788
X001223Y000788
X001248Y00071
X0007Y000575
X000825Y00013
X000653Y001082
X00066Y00139
X00105Y001532
X001035Y001758
X000955Y00184
X000843Y001808
X001338Y001541
X001355Y001457
X001352Y001323
X00136Y001225
X001488Y001132
X00106Y001127
X001489Y001574
X00168Y001542
X001706Y001653
X001775Y001598
X001998Y001733
X002173Y001683
X002595Y00178
X002648Y001595
X00265Y001515
X002642Y001432
X002677Y001332
X002636Y001272
X002317Y001143
X00232Y00106
X001962Y000968
X003042Y00108
X00313
X003048Y001675
X00345Y00161
X003512Y001652
X003595Y001648
X003715Y002185
X003506Y002317
X004967Y00209
X005705Y00167
X00585Y001339
X00515Y001018
X004628Y00118
T03
X006035Y000795
X006289
X001858Y002521
X001604
X00135
X001096
X000842
Y002775
X001096
X00135
X001604
X001858
X002112
Y002521
X002366
X00262
X002874
X003128
X003382
X003636
X00389
X004144
Y002775
X004398
X004652
X004906
X00516
X005414
X005668
Y002521
X005414
X00516
X004906
X004652
X004398
X00389Y002775
X003636
X003382
X003128
X002874
X00262
X002366
X006035Y00113
X006289
T04
X000535Y00092
Y00158
T05
X000255Y00089
Y00161
T06
X000445Y001055
Y001445
T07
X00615Y00035
X00035
Y00265
X00615
M30
