G04*
G04 #@! TF.GenerationSoftware,Altium Limited,Altium Designer,20.2.5 (213)*
G04*
G04 Layer_Color=16711935*
%FSLAX42Y42*%
%MOMM*%
G71*
G04*
G04 #@! TF.SameCoordinates,6F224850-DB23-45E0-B5EC-48CDDA7698CB*
G04*
G04*
G04 #@! TF.FilePolarity,Negative*
G04*
G01*
G75*
%ADD42R,1.15X0.85*%
%ADD43R,1.00X1.00*%
%ADD49R,1.00X1.00*%
%ADD61C,1.70*%
G04:AMPARAMS|DCode=62|XSize=1.7mm|YSize=1.7mm|CornerRadius=0.33mm|HoleSize=0mm|Usage=FLASHONLY|Rotation=0.000|XOffset=0mm|YOffset=0mm|HoleType=Round|Shape=RoundedRectangle|*
%AMROUNDEDRECTD62*
21,1,1.70,1.05,0,0,0.0*
21,1,1.05,1.70,0,0,0.0*
1,1,0.65,0.53,-0.53*
1,1,0.65,-0.53,-0.53*
1,1,0.65,-0.53,0.53*
1,1,0.65,0.53,0.53*
%
%ADD62ROUNDEDRECTD62*%
%ADD63R,1.70X1.70*%
%ADD64C,2.79*%
%ADD65C,2.17*%
%ADD66C,0.60*%
%ADD67C,3.60*%
%ADD68C,0.65*%
%ADD69C,0.60*%
%ADD107R,1.50X1.60*%
%ADD108R,1.80X1.60*%
%ADD109R,1.85X1.22*%
%ADD110R,1.22X1.60*%
D42*
X6053Y1770D02*
D03*
X6283Y1675D02*
D03*
Y1865D02*
D03*
D43*
X6105Y1500D02*
D03*
X6280D02*
D03*
X6100Y2233D02*
D03*
X6275D02*
D03*
X6275Y2065D02*
D03*
X6100D02*
D03*
X1650Y1243D02*
D03*
X1475D02*
D03*
X1650Y1415D02*
D03*
X1475D02*
D03*
X785Y885D02*
D03*
X960D02*
D03*
X788Y1218D02*
D03*
X962D02*
D03*
X785Y1383D02*
D03*
X960D02*
D03*
X960Y1550D02*
D03*
X785D02*
D03*
X2427Y1647D02*
D03*
X2252D02*
D03*
X2773Y1180D02*
D03*
X2948D02*
D03*
X2770Y845D02*
D03*
X2945D02*
D03*
X2947Y1013D02*
D03*
X2772D02*
D03*
X4730Y313D02*
D03*
X4555D02*
D03*
X960Y1053D02*
D03*
X785D02*
D03*
X2770Y1510D02*
D03*
X2945D02*
D03*
X5002Y2283D02*
D03*
X4827D02*
D03*
X4555Y485D02*
D03*
X4730D02*
D03*
X2427Y1812D02*
D03*
X2252D02*
D03*
X2947Y1675D02*
D03*
X2772D02*
D03*
X2948Y1345D02*
D03*
X2773D02*
D03*
X2945Y155D02*
D03*
X2770D02*
D03*
D49*
X4020Y2108D02*
D03*
Y2283D02*
D03*
X1655Y748D02*
D03*
Y923D02*
D03*
X1825Y753D02*
D03*
Y928D02*
D03*
X532Y1365D02*
D03*
Y1190D02*
D03*
X448Y2083D02*
D03*
Y2258D02*
D03*
X1750Y2265D02*
D03*
Y2090D02*
D03*
X1577Y2265D02*
D03*
Y2090D02*
D03*
X1300Y2262D02*
D03*
Y2088D02*
D03*
D61*
X4144Y2775D02*
D03*
X4398D02*
D03*
X4652D02*
D03*
X4906D02*
D03*
X5668D02*
D03*
X5414D02*
D03*
X5160D02*
D03*
Y2521D02*
D03*
X5414D02*
D03*
X5668D02*
D03*
X4906D02*
D03*
X4652D02*
D03*
X4398D02*
D03*
X4144D02*
D03*
X2112D02*
D03*
X1096D02*
D03*
X2366D02*
D03*
X1350D02*
D03*
X2620D02*
D03*
X1604D02*
D03*
X2874D02*
D03*
X1858D02*
D03*
X3128D02*
D03*
X3890D02*
D03*
X3636D02*
D03*
X3382D02*
D03*
Y2775D02*
D03*
X3636D02*
D03*
X3890D02*
D03*
X3128D02*
D03*
X1858D02*
D03*
X2874D02*
D03*
X1604D02*
D03*
X2620D02*
D03*
X1350D02*
D03*
X2366D02*
D03*
X1096D02*
D03*
X2112D02*
D03*
X842D02*
D03*
X6035Y1130D02*
D03*
X6035Y795D02*
D03*
D62*
X842Y2521D02*
D03*
D63*
X6289Y1130D02*
D03*
X6289Y795D02*
D03*
D64*
X255Y1610D02*
D03*
Y890D02*
D03*
D65*
X535Y1580D02*
D03*
Y920D02*
D03*
D66*
X445Y1445D02*
D03*
Y1055D02*
D03*
D67*
X350Y2650D02*
D03*
Y350D02*
D03*
X6150D02*
D03*
Y2650D02*
D03*
D68*
X3803Y288D02*
D03*
X5124Y409D02*
D03*
X4580Y142D02*
D03*
X4400Y390D02*
D03*
X5150Y1018D02*
D03*
X5850Y1339D02*
D03*
X4967Y2090D02*
D03*
X4628Y1180D02*
D03*
X3715Y2185D02*
D03*
X1817Y630D02*
D03*
X3506Y2317D02*
D03*
X2110Y518D02*
D03*
X653Y1082D02*
D03*
X1680Y1542D02*
D03*
X1706Y1653D02*
D03*
X1489Y1574D02*
D03*
X1360Y1225D02*
D03*
X1998Y1733D02*
D03*
X2512Y173D02*
D03*
X2108Y443D02*
D03*
X2020D02*
D03*
X2023Y515D02*
D03*
X3512Y1652D02*
D03*
X3130Y1080D02*
D03*
X3042D02*
D03*
X3048Y1675D02*
D03*
X3450Y1610D02*
D03*
X3595Y1648D02*
D03*
X2650Y1515D02*
D03*
X2648Y1595D02*
D03*
X2677Y1332D02*
D03*
X5705Y1670D02*
D03*
X1338Y1541D02*
D03*
X1355Y1457D02*
D03*
X1775Y1598D02*
D03*
X2642Y1432D02*
D03*
X2595Y1780D02*
D03*
X2317Y1143D02*
D03*
X1488Y1132D02*
D03*
X2320Y1060D02*
D03*
X2636Y1272D02*
D03*
X1962Y968D02*
D03*
X1377Y788D02*
D03*
X2679Y845D02*
D03*
X700Y575D02*
D03*
X1352Y1323D02*
D03*
X1498Y672D02*
D03*
X1770Y285D02*
D03*
X1248Y710D02*
D03*
X1223Y788D02*
D03*
X1425Y728D02*
D03*
X1808Y370D02*
D03*
X1762Y450D02*
D03*
X2283Y600D02*
D03*
X1060Y1127D02*
D03*
X825Y130D02*
D03*
X843Y1808D02*
D03*
X660Y1390D02*
D03*
X955Y1840D02*
D03*
X1050Y1532D02*
D03*
X1035Y1758D02*
D03*
X2173Y1683D02*
D03*
D69*
X3780Y1227D02*
D03*
X3871D02*
D03*
Y1032D02*
D03*
X3825Y1130D02*
D03*
X3780Y1032D02*
D03*
X3735Y1130D02*
D03*
X3916D02*
D03*
D107*
X5033Y740D02*
D03*
X5237D02*
D03*
X5318Y2088D02*
D03*
X5115D02*
D03*
D108*
X690Y2255D02*
D03*
X1110D02*
D03*
Y2025D02*
D03*
X690D02*
D03*
D109*
X5635Y1530D02*
D03*
Y1835D02*
D03*
X5347Y1527D02*
D03*
Y1832D02*
D03*
X4110Y1523D02*
D03*
Y1827D02*
D03*
X4392Y1525D02*
D03*
Y1830D02*
D03*
X4680Y1525D02*
D03*
Y1830D02*
D03*
X4970Y1525D02*
D03*
Y1830D02*
D03*
X5635Y980D02*
D03*
Y1285D02*
D03*
X5345Y980D02*
D03*
Y1285D02*
D03*
X4970Y985D02*
D03*
Y1290D02*
D03*
X4680Y985D02*
D03*
Y1290D02*
D03*
X4392Y985D02*
D03*
Y1290D02*
D03*
X4110Y985D02*
D03*
Y1290D02*
D03*
D110*
X2958Y370D02*
D03*
X2767D02*
D03*
X2960Y620D02*
D03*
X2769D02*
D03*
M02*
