G04*
G04 #@! TF.GenerationSoftware,Altium Limited,Altium Designer,20.2.5 (213)*
G04*
G04 Layer_Color=2752767*
%FSLAX42Y42*%
%MOMM*%
G71*
G04*
G04 #@! TF.SameCoordinates,6F224850-DB23-45E0-B5EC-48CDDA7698CB*
G04*
G04*
G04 #@! TF.FilePolarity,Positive*
G04*
G01*
G75*
%ADD115C,0.05*%
%ADD116C,0.07*%
D115*
X4124Y2755D02*
Y2795D01*
X4164D01*
Y2755D01*
X4124D01*
X4378D02*
Y2795D01*
X4418D01*
Y2755D01*
X4378D01*
X4632D02*
Y2795D01*
X4672D01*
Y2755D01*
X4632D01*
X4886D02*
Y2795D01*
X4926D01*
Y2755D01*
X4886D01*
X5648D02*
Y2795D01*
X5688D01*
Y2755D01*
X5648D01*
X5394D02*
Y2795D01*
X5434D01*
Y2755D01*
X5394D01*
X5140D02*
Y2795D01*
X5180D01*
Y2755D01*
X5140D01*
Y2501D02*
Y2541D01*
X5180D01*
Y2501D01*
X5140D01*
X5394D02*
Y2541D01*
X5434D01*
Y2501D01*
X5394D01*
X5648D02*
Y2541D01*
X5688D01*
Y2501D01*
X5648D01*
X4886D02*
Y2541D01*
X4926D01*
Y2501D01*
X4886D01*
X4632D02*
Y2541D01*
X4672D01*
Y2501D01*
X4632D01*
X4378D02*
Y2541D01*
X4418D01*
Y2501D01*
X4378D01*
X4124D02*
Y2541D01*
X4164D01*
Y2501D01*
X4124D01*
X822D02*
Y2541D01*
X862D01*
Y2501D01*
X822D01*
X2092D02*
Y2541D01*
X2132D01*
Y2501D01*
X2092D01*
X1076D02*
Y2541D01*
X1116D01*
Y2501D01*
X1076D01*
X2346D02*
Y2541D01*
X2386D01*
Y2501D01*
X2346D01*
X1330D02*
Y2541D01*
X1370D01*
Y2501D01*
X1330D01*
X2600D02*
Y2541D01*
X2640D01*
Y2501D01*
X2600D01*
X1584D02*
Y2541D01*
X1624D01*
Y2501D01*
X1584D01*
X2854D02*
Y2541D01*
X2894D01*
Y2501D01*
X2854D01*
X1838D02*
Y2541D01*
X1878D01*
Y2501D01*
X1838D01*
X3108D02*
Y2541D01*
X3148D01*
Y2501D01*
X3108D01*
X3870D02*
Y2541D01*
X3910D01*
Y2501D01*
X3870D01*
X3616D02*
Y2541D01*
X3656D01*
Y2501D01*
X3616D01*
X3362D02*
Y2541D01*
X3402D01*
Y2501D01*
X3362D01*
Y2755D02*
Y2795D01*
X3402D01*
Y2755D01*
X3362D01*
X3616D02*
Y2795D01*
X3656D01*
Y2755D01*
X3616D01*
X3870D02*
Y2795D01*
X3910D01*
Y2755D01*
X3870D01*
X3108D02*
Y2795D01*
X3148D01*
Y2755D01*
X3108D01*
X1838D02*
Y2795D01*
X1878D01*
Y2755D01*
X1838D01*
X2854D02*
Y2795D01*
X2894D01*
Y2755D01*
X2854D01*
X1584D02*
Y2795D01*
X1624D01*
Y2755D01*
X1584D01*
X2600D02*
Y2795D01*
X2640D01*
Y2755D01*
X2600D01*
X1330D02*
Y2795D01*
X1370D01*
Y2755D01*
X1330D01*
X2346D02*
Y2795D01*
X2386D01*
Y2755D01*
X2346D01*
X1076D02*
Y2795D01*
X1116D01*
Y2755D01*
X1076D01*
X2092D02*
Y2795D01*
X2132D01*
Y2755D01*
X2092D01*
X822D02*
Y2795D01*
X862D01*
Y2755D01*
X822D01*
X6269Y1110D02*
Y1150D01*
X6309D01*
Y1110D01*
X6269D01*
X6015D02*
Y1150D01*
X6055D01*
Y1110D01*
X6015D01*
X6269Y775D02*
Y815D01*
X6309D01*
Y775D01*
X6269D01*
X6015D02*
Y815D01*
X6055D01*
Y775D01*
X6015D01*
X535Y1560D02*
X515Y1600D01*
X555D01*
X535Y1560D01*
Y900D02*
X515Y940D01*
X555D01*
X535Y900D01*
X445Y1425D02*
X455Y1435D01*
X465D01*
X455Y1445D01*
X465Y1455D01*
X455D01*
X445Y1465D01*
X435Y1455D01*
X425D01*
X435Y1445D01*
X425Y1435D01*
X435D01*
X445Y1425D01*
Y1035D02*
X455Y1045D01*
X465D01*
X455Y1055D01*
X465Y1065D01*
X455D01*
X445Y1075D01*
X435Y1065D01*
X425D01*
X435Y1055D01*
X425Y1045D01*
X435D01*
X445Y1035D01*
X330Y2630D02*
X340Y2650D01*
X330Y2670D01*
X350Y2660D01*
X370Y2670D01*
X360Y2650D01*
X370Y2630D01*
X350Y2640D01*
X330Y2630D01*
Y330D02*
X340Y350D01*
X330Y370D01*
X350Y360D01*
X370Y370D01*
X360Y350D01*
X370Y330D01*
X350Y340D01*
X330Y330D01*
X6130D02*
X6140Y350D01*
X6130Y370D01*
X6150Y360D01*
X6170Y370D01*
X6160Y350D01*
X6170Y330D01*
X6150Y340D01*
X6130Y330D01*
Y2630D02*
X6140Y2650D01*
X6130Y2670D01*
X6150Y2660D01*
X6170Y2670D01*
X6160Y2650D01*
X6170Y2630D01*
X6150Y2640D01*
X6130Y2630D01*
X3792Y277D02*
Y267D01*
X3813D01*
Y277D01*
X3823D01*
Y298D01*
X3813D01*
Y308D01*
X3792D01*
Y298D01*
X3782D01*
Y277D01*
X3792D01*
X5114Y399D02*
Y388D01*
X5134D01*
Y399D01*
X5144D01*
Y419D01*
X5134D01*
Y429D01*
X5114D01*
Y419D01*
X5103D01*
Y399D01*
X5114D01*
X4570Y132D02*
Y122D01*
X4590D01*
Y132D01*
X4600D01*
Y153D01*
X4590D01*
Y163D01*
X4570D01*
Y153D01*
X4560D01*
Y132D01*
X4570D01*
X4390Y380D02*
Y370D01*
X4410D01*
Y380D01*
X4420D01*
Y400D01*
X4410D01*
Y410D01*
X4390D01*
Y400D01*
X4380D01*
Y380D01*
X4390D01*
X5140Y1007D02*
Y997D01*
X5160D01*
Y1007D01*
X5170D01*
Y1028D01*
X5160D01*
Y1038D01*
X5140D01*
Y1028D01*
X5130D01*
Y1007D01*
X5140D01*
X5840Y1329D02*
Y1318D01*
X5860D01*
Y1329D01*
X5870D01*
Y1349D01*
X5860D01*
Y1359D01*
X5840D01*
Y1349D01*
X5830D01*
Y1329D01*
X5840D01*
X4957Y2080D02*
Y2070D01*
X4978D01*
Y2080D01*
X4988D01*
Y2100D01*
X4978D01*
Y2110D01*
X4957D01*
Y2100D01*
X4947D01*
Y2080D01*
X4957D01*
X4617Y1170D02*
Y1160D01*
X4638D01*
Y1170D01*
X4648D01*
Y1190D01*
X4638D01*
Y1200D01*
X4617D01*
Y1190D01*
X4607D01*
Y1170D01*
X4617D01*
X3705Y2175D02*
Y2165D01*
X3725D01*
Y2175D01*
X3735D01*
Y2195D01*
X3725D01*
Y2205D01*
X3705D01*
Y2195D01*
X3695D01*
Y2175D01*
X3705D01*
X1807Y620D02*
Y610D01*
X1828D01*
Y620D01*
X1838D01*
Y640D01*
X1828D01*
Y650D01*
X1807D01*
Y640D01*
X1797D01*
Y620D01*
X1807D01*
X3496Y2307D02*
Y2296D01*
X3516D01*
Y2307D01*
X3526D01*
Y2327D01*
X3516D01*
Y2337D01*
X3496D01*
Y2327D01*
X3486D01*
Y2307D01*
X3496D01*
X2100Y507D02*
Y497D01*
X2120D01*
Y507D01*
X2130D01*
Y528D01*
X2120D01*
Y538D01*
X2100D01*
Y528D01*
X2090D01*
Y507D01*
X2100D01*
X642Y1072D02*
Y1062D01*
X663D01*
Y1072D01*
X673D01*
Y1093D01*
X663D01*
Y1103D01*
X642D01*
Y1093D01*
X632D01*
Y1072D01*
X642D01*
X1670Y1532D02*
Y1521D01*
X1690D01*
Y1532D01*
X1700D01*
Y1552D01*
X1690D01*
Y1562D01*
X1670D01*
Y1552D01*
X1660D01*
Y1532D01*
X1670D01*
X1696Y1643D02*
Y1633D01*
X1716D01*
Y1643D01*
X1727D01*
Y1663D01*
X1716D01*
Y1674D01*
X1696D01*
Y1663D01*
X1686D01*
Y1643D01*
X1696D01*
X1479Y1564D02*
Y1553D01*
X1499D01*
Y1564D01*
X1509D01*
Y1584D01*
X1499D01*
Y1594D01*
X1479D01*
Y1584D01*
X1468D01*
Y1564D01*
X1479D01*
X1350Y1215D02*
Y1205D01*
X1370D01*
Y1215D01*
X1380D01*
Y1235D01*
X1370D01*
Y1245D01*
X1350D01*
Y1235D01*
X1340D01*
Y1215D01*
X1350D01*
X1987Y1722D02*
Y1712D01*
X2008D01*
Y1722D01*
X2018D01*
Y1743D01*
X2008D01*
Y1753D01*
X1987D01*
Y1743D01*
X1977D01*
Y1722D01*
X1987D01*
X2502Y162D02*
Y152D01*
X2523D01*
Y162D01*
X2533D01*
Y183D01*
X2523D01*
Y193D01*
X2502D01*
Y183D01*
X2492D01*
Y162D01*
X2502D01*
X2097Y432D02*
Y422D01*
X2118D01*
Y432D01*
X2128D01*
Y453D01*
X2118D01*
Y463D01*
X2097D01*
Y453D01*
X2087D01*
Y432D01*
X2097D01*
X2010D02*
Y422D01*
X2030D01*
Y432D01*
X2040D01*
Y453D01*
X2030D01*
Y463D01*
X2010D01*
Y453D01*
X2000D01*
Y432D01*
X2010D01*
X2012Y505D02*
Y495D01*
X2033D01*
Y505D01*
X2043D01*
Y525D01*
X2033D01*
Y535D01*
X2012D01*
Y525D01*
X2002D01*
Y505D01*
X2012D01*
X3502Y1642D02*
Y1632D01*
X3523D01*
Y1642D01*
X3533D01*
Y1663D01*
X3523D01*
Y1673D01*
X3502D01*
Y1663D01*
X3492D01*
Y1642D01*
X3502D01*
X3120Y1070D02*
Y1060D01*
X3140D01*
Y1070D01*
X3150D01*
Y1090D01*
X3140D01*
Y1100D01*
X3120D01*
Y1090D01*
X3110D01*
Y1070D01*
X3120D01*
X3032D02*
Y1060D01*
X3053D01*
Y1070D01*
X3063D01*
Y1090D01*
X3053D01*
Y1100D01*
X3032D01*
Y1090D01*
X3022D01*
Y1070D01*
X3032D01*
X3037Y1665D02*
Y1655D01*
X3058D01*
Y1665D01*
X3068D01*
Y1685D01*
X3058D01*
Y1695D01*
X3037D01*
Y1685D01*
X3027D01*
Y1665D01*
X3037D01*
X3440Y1600D02*
Y1590D01*
X3460D01*
Y1600D01*
X3470D01*
Y1620D01*
X3460D01*
Y1630D01*
X3440D01*
Y1620D01*
X3430D01*
Y1600D01*
X3440D01*
X3585Y1637D02*
Y1627D01*
X3605D01*
Y1637D01*
X3615D01*
Y1658D01*
X3605D01*
Y1668D01*
X3585D01*
Y1658D01*
X3575D01*
Y1637D01*
X3585D01*
X2640Y1505D02*
Y1495D01*
X2660D01*
Y1505D01*
X2670D01*
Y1525D01*
X2660D01*
Y1535D01*
X2640D01*
Y1525D01*
X2630D01*
Y1505D01*
X2640D01*
X2637Y1585D02*
Y1575D01*
X2658D01*
Y1585D01*
X2668D01*
Y1605D01*
X2658D01*
Y1615D01*
X2637D01*
Y1605D01*
X2627D01*
Y1585D01*
X2637D01*
X2667Y1322D02*
Y1312D01*
X2688D01*
Y1322D01*
X2698D01*
Y1343D01*
X2688D01*
Y1353D01*
X2667D01*
Y1343D01*
X2657D01*
Y1322D01*
X2667D01*
X5695Y1660D02*
Y1650D01*
X5715D01*
Y1660D01*
X5725D01*
Y1680D01*
X5715D01*
Y1690D01*
X5695D01*
Y1680D01*
X5685D01*
Y1660D01*
X5695D01*
X1327Y1531D02*
Y1521D01*
X1348D01*
Y1531D01*
X1358D01*
Y1552D01*
X1348D01*
Y1562D01*
X1327D01*
Y1552D01*
X1317D01*
Y1531D01*
X1327D01*
X1345Y1447D02*
Y1437D01*
X1365D01*
Y1447D01*
X1375D01*
Y1468D01*
X1365D01*
Y1478D01*
X1345D01*
Y1468D01*
X1335D01*
Y1447D01*
X1345D01*
X1765Y1587D02*
Y1577D01*
X1785D01*
Y1587D01*
X1795D01*
Y1608D01*
X1785D01*
Y1618D01*
X1765D01*
Y1608D01*
X1755D01*
Y1587D01*
X1765D01*
X2632Y1422D02*
Y1412D01*
X2652D01*
Y1422D01*
X2662D01*
Y1443D01*
X2652D01*
Y1453D01*
X2632D01*
Y1443D01*
X2621D01*
Y1422D01*
X2632D01*
X2585Y1770D02*
Y1760D01*
X2605D01*
Y1770D01*
X2615D01*
Y1790D01*
X2605D01*
Y1800D01*
X2585D01*
Y1790D01*
X2575D01*
Y1770D01*
X2585D01*
X2307Y1132D02*
Y1122D01*
X2328D01*
Y1132D01*
X2338D01*
Y1153D01*
X2328D01*
Y1163D01*
X2307D01*
Y1153D01*
X2297D01*
Y1132D01*
X2307D01*
X1477Y1122D02*
Y1112D01*
X1498D01*
Y1122D01*
X1508D01*
Y1143D01*
X1498D01*
Y1153D01*
X1477D01*
Y1143D01*
X1467D01*
Y1122D01*
X1477D01*
X2310Y1050D02*
Y1040D01*
X2330D01*
Y1050D01*
X2340D01*
Y1070D01*
X2330D01*
Y1080D01*
X2310D01*
Y1070D01*
X2300D01*
Y1050D01*
X2310D01*
X2625Y1262D02*
Y1252D01*
X2646D01*
Y1262D01*
X2656D01*
Y1282D01*
X2646D01*
Y1292D01*
X2625D01*
Y1282D01*
X2615D01*
Y1262D01*
X2625D01*
X1952Y958D02*
Y948D01*
X1973D01*
Y958D01*
X1983D01*
Y978D01*
X1973D01*
Y989D01*
X1952D01*
Y978D01*
X1942D01*
Y958D01*
X1952D01*
X1367Y777D02*
Y767D01*
X1388D01*
Y777D01*
X1398D01*
Y798D01*
X1388D01*
Y808D01*
X1367D01*
Y798D01*
X1357D01*
Y777D01*
X1367D01*
X2669Y835D02*
Y825D01*
X2689D01*
Y835D01*
X2699D01*
Y855D01*
X2689D01*
Y865D01*
X2669D01*
Y855D01*
X2658D01*
Y835D01*
X2669D01*
X690Y565D02*
Y555D01*
X710D01*
Y565D01*
X720D01*
Y585D01*
X710D01*
Y595D01*
X690D01*
Y585D01*
X680D01*
Y565D01*
X690D01*
X1342Y1312D02*
Y1302D01*
X1363D01*
Y1312D01*
X1373D01*
Y1333D01*
X1363D01*
Y1343D01*
X1342D01*
Y1333D01*
X1332D01*
Y1312D01*
X1342D01*
X1487Y662D02*
Y651D01*
X1508D01*
Y662D01*
X1518D01*
Y682D01*
X1508D01*
Y692D01*
X1487D01*
Y682D01*
X1477D01*
Y662D01*
X1487D01*
X1760Y275D02*
Y265D01*
X1780D01*
Y275D01*
X1790D01*
Y295D01*
X1780D01*
Y305D01*
X1760D01*
Y295D01*
X1750D01*
Y275D01*
X1760D01*
X1237Y700D02*
Y690D01*
X1258D01*
Y700D01*
X1268D01*
Y720D01*
X1258D01*
Y730D01*
X1237D01*
Y720D01*
X1227D01*
Y700D01*
X1237D01*
X1212Y777D02*
Y767D01*
X1233D01*
Y777D01*
X1243D01*
Y798D01*
X1233D01*
Y808D01*
X1212D01*
Y798D01*
X1202D01*
Y777D01*
X1212D01*
X1415Y717D02*
Y707D01*
X1435D01*
Y717D01*
X1445D01*
Y738D01*
X1435D01*
Y748D01*
X1415D01*
Y738D01*
X1405D01*
Y717D01*
X1415D01*
X1797Y360D02*
Y350D01*
X1818D01*
Y360D01*
X1828D01*
Y380D01*
X1818D01*
Y390D01*
X1797D01*
Y380D01*
X1787D01*
Y360D01*
X1797D01*
X1752Y440D02*
Y430D01*
X1773D01*
Y440D01*
X1783D01*
Y460D01*
X1773D01*
Y470D01*
X1752D01*
Y460D01*
X1742D01*
Y440D01*
X1752D01*
X2272Y590D02*
Y580D01*
X2293D01*
Y590D01*
X2303D01*
Y610D01*
X2293D01*
Y620D01*
X2272D01*
Y610D01*
X2262D01*
Y590D01*
X2272D01*
X1050Y1117D02*
Y1107D01*
X1070D01*
Y1117D01*
X1080D01*
Y1138D01*
X1070D01*
Y1148D01*
X1050D01*
Y1138D01*
X1040D01*
Y1117D01*
X1050D01*
X815Y120D02*
Y110D01*
X835D01*
Y120D01*
X845D01*
Y140D01*
X835D01*
Y150D01*
X815D01*
Y140D01*
X805D01*
Y120D01*
X815D01*
X832Y1797D02*
Y1787D01*
X853D01*
Y1797D01*
X863D01*
Y1818D01*
X853D01*
Y1828D01*
X832D01*
Y1818D01*
X822D01*
Y1797D01*
X832D01*
X650Y1380D02*
Y1370D01*
X670D01*
Y1380D01*
X680D01*
Y1400D01*
X670D01*
Y1410D01*
X650D01*
Y1400D01*
X640D01*
Y1380D01*
X650D01*
X945Y1830D02*
Y1820D01*
X965D01*
Y1830D01*
X975D01*
Y1850D01*
X965D01*
Y1860D01*
X945D01*
Y1850D01*
X935D01*
Y1830D01*
X945D01*
X1040Y1522D02*
Y1512D01*
X1060D01*
Y1522D01*
X1070D01*
Y1543D01*
X1060D01*
Y1553D01*
X1040D01*
Y1543D01*
X1030D01*
Y1522D01*
X1040D01*
X1025Y1747D02*
Y1737D01*
X1045D01*
Y1747D01*
X1055D01*
Y1768D01*
X1045D01*
Y1778D01*
X1025D01*
Y1768D01*
X1015D01*
Y1747D01*
X1025D01*
X2162Y1672D02*
Y1662D01*
X2183D01*
Y1672D01*
X2193D01*
Y1693D01*
X2183D01*
Y1703D01*
X2162D01*
Y1693D01*
X2152D01*
Y1672D01*
X2162D01*
X3760Y1207D02*
X3770D01*
X3780Y1217D01*
X3790Y1207D01*
X3800D01*
Y1217D01*
X3790Y1227D01*
X3800Y1238D01*
Y1248D01*
X3790D01*
X3780Y1238D01*
X3770Y1248D01*
X3760D01*
Y1238D01*
X3770Y1227D01*
X3760Y1217D01*
Y1207D01*
X3850D02*
X3860D01*
X3871Y1217D01*
X3881Y1207D01*
X3891D01*
Y1217D01*
X3881Y1227D01*
X3891Y1238D01*
Y1248D01*
X3881D01*
X3871Y1238D01*
X3860Y1248D01*
X3850D01*
Y1238D01*
X3860Y1227D01*
X3850Y1217D01*
Y1207D01*
Y1012D02*
X3860D01*
X3871Y1022D01*
X3881Y1012D01*
X3891D01*
Y1022D01*
X3881Y1032D01*
X3891Y1043D01*
Y1053D01*
X3881D01*
X3871Y1043D01*
X3860Y1053D01*
X3850D01*
Y1043D01*
X3860Y1032D01*
X3850Y1022D01*
Y1012D01*
X3805Y1110D02*
X3815D01*
X3825Y1120D01*
X3835Y1110D01*
X3846D01*
Y1120D01*
X3835Y1130D01*
X3846Y1140D01*
Y1150D01*
X3835D01*
X3825Y1140D01*
X3815Y1150D01*
X3805D01*
Y1140D01*
X3815Y1130D01*
X3805Y1120D01*
Y1110D01*
X3760Y1012D02*
X3770D01*
X3780Y1022D01*
X3790Y1012D01*
X3800D01*
Y1022D01*
X3790Y1032D01*
X3800Y1043D01*
Y1053D01*
X3790D01*
X3780Y1043D01*
X3770Y1053D01*
X3760D01*
Y1043D01*
X3770Y1032D01*
X3760Y1022D01*
Y1012D01*
X3714Y1110D02*
X3725D01*
X3735Y1120D01*
X3745Y1110D01*
X3755D01*
Y1120D01*
X3745Y1130D01*
X3755Y1140D01*
Y1150D01*
X3745D01*
X3735Y1140D01*
X3725Y1150D01*
X3714D01*
Y1140D01*
X3725Y1130D01*
X3714Y1120D01*
Y1110D01*
X3895D02*
X3906D01*
X3916Y1120D01*
X3926Y1110D01*
X3936D01*
Y1120D01*
X3926Y1130D01*
X3936Y1140D01*
Y1150D01*
X3926D01*
X3916Y1140D01*
X3906Y1150D01*
X3895D01*
Y1140D01*
X3906Y1130D01*
X3895Y1120D01*
Y1110D01*
D116*
X275Y1610D02*
G03*
X275Y1610I-20J0D01*
G01*
Y890D02*
G03*
X275Y890I-20J0D01*
G01*
M02*
