G04*
G04 #@! TF.GenerationSoftware,Altium Limited,Altium Designer,20.2.5 (213)*
G04*
G04 Layer_Color=65535*
%FSLAX42Y42*%
%MOMM*%
G71*
G04*
G04 #@! TF.SameCoordinates,6F224850-DB23-45E0-B5EC-48CDDA7698CB*
G04*
G04*
G04 #@! TF.FilePolarity,Positive*
G04*
G01*
G75*
%ADD10C,0.25*%
%ADD11C,0.20*%
%ADD12C,0.10*%
%ADD13C,0.13*%
%ADD14C,0.15*%
%ADD15C,0.25*%
%ADD16C,0.18*%
%ADD17C,0.18*%
%ADD18C,0.38*%
%ADD19C,0.03*%
%ADD20R,0.51X1.32*%
%ADD21R,0.51X3.15*%
D10*
X5445Y428D02*
G03*
X5445Y428I-12J0D01*
G01*
X1140Y1750D02*
G03*
X1140Y1750I-12J0D01*
G01*
X1037Y660D02*
G03*
X1037Y660I-12J0D01*
G01*
X2970Y1523D02*
G03*
X2970Y1523I-12J0D01*
G01*
D11*
X1827Y560D02*
G03*
X1827Y560I-10J0D01*
G01*
X682Y1380D02*
G03*
X672Y1380I-5J0D01*
G01*
D02*
G03*
X682Y1380I5J0D01*
G01*
D02*
G03*
X672Y1380I-5J0D01*
G01*
X5247Y682D02*
Y760D01*
X5347D01*
X5247Y460D02*
Y538D01*
Y460D02*
X5347D01*
X1285Y1715D02*
X1915D01*
Y1085D02*
Y1715D01*
X1285Y1085D02*
X1915D01*
X1285D02*
Y1715D01*
X1090Y655D02*
X1350D01*
Y560D02*
Y655D01*
X1090Y195D02*
X1350D01*
Y290D01*
X3127Y1273D02*
Y1573D01*
X2908Y1273D02*
Y1573D01*
Y1273D02*
X3127D01*
X2962Y1573D02*
X3127D01*
X2908D02*
X2962D01*
X3593Y1300D02*
X3706D01*
X3593Y1275D02*
Y1300D01*
Y960D02*
Y985D01*
Y960D02*
X3618D01*
X3893D02*
X3918D01*
Y985D01*
Y1275D02*
Y1300D01*
X3893D02*
X3918D01*
X715Y2458D02*
Y2902D01*
Y2458D02*
X778Y2394D01*
X5795D01*
Y2902D01*
X715D02*
X5795D01*
X4833Y1800D02*
Y1900D01*
X4310Y1800D02*
Y1900D01*
X4822Y1195D02*
Y1295D01*
X4300Y1195D02*
Y1295D01*
X1908Y75D02*
Y175D01*
Y75D02*
X2277D01*
Y275D01*
X1908D02*
X2277D01*
X1908Y175D02*
Y275D01*
X843Y1938D02*
X943D01*
Y2308D01*
X743D02*
X943D01*
X743Y1938D02*
Y2308D01*
Y1938D02*
X843D01*
X597Y1935D02*
X697D01*
Y2305D01*
X497D02*
X697D01*
X497Y1935D02*
Y2305D01*
Y1935D02*
X597D01*
D12*
X5165Y250D02*
Y380D01*
Y250D02*
X5465D01*
Y380D01*
X5165D02*
X5465D01*
X2738Y855D02*
X3622D01*
Y45D02*
Y855D01*
X2738Y45D02*
Y855D01*
Y45D02*
X3622D01*
X4165Y220D02*
Y360D01*
X3865Y220D02*
X4165D01*
X3865Y360D02*
X4165D01*
X3865Y220D02*
Y360D01*
X3867Y392D02*
X4167D01*
X3867D02*
Y522D01*
X4167D01*
Y392D02*
Y522D01*
X5230Y2175D02*
X5530D01*
Y2045D02*
Y2175D01*
X5230Y2045D02*
X5530D01*
X5230D02*
Y2175D01*
X2248Y675D02*
X2548D01*
X2248D02*
Y805D01*
X2548D01*
Y675D02*
Y805D01*
X2660Y1720D02*
Y2020D01*
X2790D01*
Y1720D02*
Y2020D01*
X2660Y1720D02*
X2790D01*
X2250Y840D02*
X2550D01*
X2250D02*
Y970D01*
X2550D01*
Y840D02*
Y970D01*
X5550Y465D02*
Y765D01*
X5680D01*
Y465D02*
Y765D01*
X5550Y465D02*
X5680D01*
X3192Y1207D02*
X3492D01*
Y1077D02*
Y1207D01*
X3192Y1077D02*
X3492D01*
X3192D02*
Y1207D01*
X3633Y1720D02*
Y2020D01*
X3503Y1720D02*
X3633D01*
X3503D02*
Y2020D01*
X3633D01*
X2877Y905D02*
Y1205D01*
X2748Y905D02*
X2877D01*
X2748D02*
Y1205D01*
X2877D01*
X3125Y1720D02*
Y2020D01*
X2995Y1720D02*
X3125D01*
X2995D02*
Y2020D01*
X3125D01*
X2955Y1720D02*
Y2020D01*
X2825Y1720D02*
X2955D01*
X2825D02*
Y2020D01*
X2955D01*
X2305Y1367D02*
X2605D01*
X2305D02*
Y1497D01*
X2605D01*
Y1367D02*
Y1497D01*
X2302Y1332D02*
X2602D01*
Y1202D02*
Y1332D01*
X2302Y1202D02*
X2602D01*
X2302D02*
Y1332D01*
X2302Y1662D02*
X2602D01*
Y1532D02*
Y1662D01*
X2302Y1532D02*
X2602D01*
X2302D02*
Y1662D01*
X10Y1625D02*
X55D01*
X10Y875D02*
Y1625D01*
Y875D02*
X55D01*
X2333Y593D02*
X2473D01*
X2473Y292D02*
Y593D01*
X2333Y292D02*
Y593D01*
Y292D02*
X2473D01*
X5815Y995D02*
Y1135D01*
X5515Y995D02*
X5815D01*
X5515Y1135D02*
X5815D01*
X5515Y995D02*
Y1135D01*
X5230Y2205D02*
Y2345D01*
Y2345D02*
X5530D01*
X5230Y2205D02*
X5530D01*
Y2345D01*
X3330Y1720D02*
X3470D01*
X3330D02*
Y2020D01*
X3470Y1720D02*
Y2020D01*
X3330D02*
X3470D01*
X4025Y1617D02*
X4165D01*
X4025D02*
Y1917D01*
X4165Y1617D02*
Y1917D01*
X4025D02*
X4165D01*
X5515Y830D02*
Y970D01*
Y970D02*
X5815D01*
X5515Y830D02*
X5815D01*
Y970D01*
X5162Y73D02*
Y212D01*
Y212D02*
X5462D01*
X5162Y73D02*
X5462D01*
Y212D01*
X3360Y1265D02*
X3500D01*
X3360D02*
Y1565D01*
X3500Y1265D02*
Y1565D01*
X3360D02*
X3500D01*
X4030Y1300D02*
X4170D01*
X4170Y1000D02*
Y1300D01*
X4030Y1000D02*
Y1300D01*
Y1000D02*
X4170D01*
X3160Y1720D02*
X3300D01*
X3160D02*
Y2020D01*
X3300Y1720D02*
Y2020D01*
X3160D02*
X3300D01*
X1540Y640D02*
X1680D01*
X1680Y340D02*
Y640D01*
X1540Y340D02*
Y640D01*
Y340D02*
X1680D01*
X755Y638D02*
X895D01*
X895Y338D02*
Y638D01*
X755Y338D02*
Y638D01*
Y338D02*
X895D01*
X2190Y2365D02*
X2330D01*
X2330Y2065D02*
Y2365D01*
X2190Y2065D02*
Y2365D01*
Y2065D02*
X2330D01*
X2017Y2365D02*
X2158D01*
X2158Y2065D02*
Y2365D01*
X2017Y2065D02*
Y2365D01*
Y2065D02*
X2158D01*
X1355Y2365D02*
X1495D01*
X1495Y2065D02*
Y2365D01*
X1355Y2065D02*
Y2365D01*
Y2065D02*
X1495D01*
X1850Y2366D02*
X1990D01*
X1990Y2066D02*
Y2366D01*
X1850Y2066D02*
Y2366D01*
Y2066D02*
X1990D01*
X1675Y2365D02*
X1815D01*
X1815Y2065D02*
Y2365D01*
X1675Y2065D02*
Y2365D01*
Y2065D02*
X1815D01*
D13*
X1917Y600D02*
X2217D01*
X1917Y360D02*
X2217D01*
D14*
X3887Y2048D02*
X3967D01*
X3672D02*
X3753D01*
X3888Y1412D02*
X3968D01*
X3672D02*
X3753D01*
X3672Y1730D02*
X3967D01*
X3672Y1412D02*
X3672Y2048D01*
X3967Y1412D02*
Y2048D01*
X5047Y670D02*
Y730D01*
X5032Y745D01*
X5002D01*
X4987Y730D01*
Y670D01*
X5002Y655D01*
X5032D01*
X5017Y685D02*
X5047Y655D01*
X5032D02*
X5047Y670D01*
X5077Y655D02*
X5107D01*
X5092D01*
Y745D01*
X5077Y730D01*
X4898Y267D02*
Y357D01*
X4943D01*
X4958Y342D01*
Y312D01*
X4943Y297D01*
X4898D01*
X4928D02*
X4958Y267D01*
X4988D02*
X5017D01*
X5003D01*
Y357D01*
X4988Y342D01*
X5122Y267D02*
X5062D01*
X5122Y327D01*
Y342D01*
X5107Y357D01*
X5077D01*
X5062Y342D01*
X3935Y645D02*
Y555D01*
X3995D01*
X4025Y630D02*
X4040Y645D01*
X4070D01*
X4085Y630D01*
Y615D01*
X4070Y600D01*
X4085Y585D01*
Y570D01*
X4070Y555D01*
X4040D01*
X4025Y570D01*
Y585D01*
X4040Y600D01*
X4025Y615D01*
Y630D01*
X4040Y600D02*
X4070D01*
X5565Y2157D02*
Y2068D01*
X5625D01*
X5655Y2157D02*
X5715D01*
Y2142D01*
X5655Y2083D01*
Y2068D01*
X5553Y420D02*
Y330D01*
X5613D01*
X5642Y405D02*
X5657Y420D01*
X5687D01*
X5702Y405D01*
Y390D01*
X5687Y375D01*
X5672D01*
X5687D01*
X5702Y360D01*
Y345D01*
X5687Y330D01*
X5657D01*
X5642Y345D01*
X2733Y1682D02*
Y1608D01*
X2748Y1593D01*
X2778D01*
X2793Y1608D01*
Y1682D01*
X2882Y1593D02*
X2822D01*
X2882Y1652D01*
Y1667D01*
X2867Y1682D01*
X2837D01*
X2822Y1667D01*
X2938Y1123D02*
Y1212D01*
X2983D01*
X2998Y1197D01*
Y1168D01*
X2983Y1153D01*
X2938D01*
X2968D02*
X2998Y1123D01*
X3028D02*
X3057D01*
X3043D01*
Y1212D01*
X3028Y1197D01*
X3162Y1212D02*
X3132Y1197D01*
X3102Y1168D01*
Y1138D01*
X3117Y1123D01*
X3147D01*
X3162Y1138D01*
Y1153D01*
X3147Y1168D01*
X3102D01*
X3620Y2058D02*
X3530D01*
Y2103D01*
X3545Y2118D01*
X3575D01*
X3590Y2103D01*
Y2058D01*
Y2088D02*
X3620Y2118D01*
Y2148D02*
Y2177D01*
Y2163D01*
X3530D01*
X3545Y2148D01*
X3530Y2282D02*
Y2222D01*
X3575D01*
X3560Y2252D01*
Y2267D01*
X3575Y2282D01*
X3605D01*
X3620Y2267D01*
Y2237D01*
X3605Y2222D01*
X2715Y945D02*
X2625D01*
Y990D01*
X2640Y1005D01*
X2670D01*
X2685Y990D01*
Y945D01*
Y975D02*
X2715Y1005D01*
Y1035D02*
Y1065D01*
Y1050D01*
X2625D01*
X2640Y1035D01*
Y1110D02*
X2625Y1125D01*
Y1155D01*
X2640Y1170D01*
X2655D01*
X2670Y1155D01*
Y1140D01*
Y1155D01*
X2685Y1170D01*
X2700D01*
X2715Y1155D01*
Y1125D01*
X2700Y1110D01*
X3105Y2070D02*
X3015D01*
Y2115D01*
X3030Y2130D01*
X3060D01*
X3075Y2115D01*
Y2070D01*
Y2100D02*
X3105Y2130D01*
Y2160D02*
Y2190D01*
Y2175D01*
X3015D01*
X3030Y2160D01*
X3105Y2235D02*
Y2265D01*
Y2250D01*
X3015D01*
X3030Y2235D01*
X2945Y2068D02*
X2855D01*
Y2113D01*
X2870Y2128D01*
X2900D01*
X2915Y2113D01*
Y2068D01*
Y2098D02*
X2945Y2128D01*
Y2158D02*
Y2187D01*
Y2173D01*
X2855D01*
X2870Y2158D01*
Y2232D02*
X2855Y2247D01*
Y2277D01*
X2870Y2292D01*
X2930D01*
X2945Y2277D01*
Y2247D01*
X2930Y2232D01*
X2870D01*
X2130Y1388D02*
Y1478D01*
X2175D01*
X2190Y1463D01*
Y1433D01*
X2175Y1418D01*
X2130D01*
X2160D02*
X2190Y1388D01*
X2220Y1478D02*
X2280D01*
Y1463D01*
X2220Y1403D01*
Y1388D01*
X2125Y1220D02*
Y1310D01*
X2170D01*
X2185Y1295D01*
Y1265D01*
X2170Y1250D01*
X2125D01*
X2155D02*
X2185Y1220D01*
X2275Y1310D02*
X2245Y1295D01*
X2215Y1265D01*
Y1235D01*
X2230Y1220D01*
X2260D01*
X2275Y1235D01*
Y1250D01*
X2260Y1265D01*
X2215D01*
X2125Y1543D02*
Y1632D01*
X2170D01*
X2185Y1617D01*
Y1587D01*
X2170Y1572D01*
X2125D01*
X2155D02*
X2185Y1543D01*
X2275Y1632D02*
X2215D01*
Y1587D01*
X2245Y1602D01*
X2260D01*
X2275Y1587D01*
Y1558D01*
X2260Y1543D01*
X2230D01*
X2215Y1558D01*
X2068Y858D02*
Y947D01*
X2113D01*
X2128Y932D01*
Y903D01*
X2113Y888D01*
X2068D01*
X2098D02*
X2128Y858D01*
X2158Y932D02*
X2172Y947D01*
X2202D01*
X2217Y932D01*
Y918D01*
X2202Y903D01*
X2187D01*
X2202D01*
X2217Y888D01*
Y873D01*
X2202Y858D01*
X2172D01*
X2158Y873D01*
X2060Y698D02*
Y787D01*
X2105D01*
X2120Y772D01*
Y743D01*
X2105Y728D01*
X2060D01*
X2090D02*
X2120Y698D01*
X2210D02*
X2150D01*
X2210Y757D01*
Y772D01*
X2195Y787D01*
X2165D01*
X2150Y772D01*
X2777Y2073D02*
X2688D01*
Y2118D01*
X2703Y2133D01*
X2733D01*
X2747Y2118D01*
Y2073D01*
Y2103D02*
X2777Y2133D01*
Y2162D02*
Y2192D01*
Y2177D01*
X2688D01*
X2703Y2162D01*
X1858Y722D02*
Y648D01*
X1873Y633D01*
X1903D01*
X1918Y648D01*
Y722D01*
X1947Y707D02*
X1962Y722D01*
X1992D01*
X2007Y707D01*
Y692D01*
X1992Y678D01*
X1977D01*
X1992D01*
X2007Y663D01*
Y648D01*
X1992Y633D01*
X1962D01*
X1947Y648D01*
X1003Y150D02*
Y75D01*
X1018Y60D01*
X1048D01*
X1062Y75D01*
Y150D01*
X1092Y60D02*
X1122D01*
X1107D01*
Y150D01*
X1092Y135D01*
X3875Y2100D02*
X3785D01*
Y2145D01*
X3800Y2160D01*
X3830D01*
X3845Y2145D01*
Y2100D01*
Y2130D02*
X3875Y2160D01*
Y2250D02*
Y2190D01*
X3815Y2250D01*
X3800D01*
X3785Y2235D01*
Y2205D01*
X3800Y2190D01*
Y2280D02*
X3785Y2295D01*
Y2325D01*
X3800Y2340D01*
X3860D01*
X3875Y2325D01*
Y2295D01*
X3860Y2280D01*
X3800D01*
X3758Y843D02*
Y902D01*
X3743Y917D01*
X3713D01*
X3698Y902D01*
Y843D01*
X3713Y828D01*
X3743D01*
X3728Y858D02*
X3758Y828D01*
X3743D02*
X3758Y843D01*
X3847Y828D02*
X3787D01*
X3847Y887D01*
Y902D01*
X3832Y917D01*
X3802D01*
X3787Y902D01*
X5858Y2410D02*
Y2500D01*
X5903D01*
X5917Y2485D01*
Y2455D01*
X5903Y2440D01*
X5858D01*
X5947Y2410D02*
X5977D01*
X5962D01*
Y2500D01*
X5947Y2485D01*
X4498Y2257D02*
Y2168D01*
X4558D01*
X4587Y2183D02*
X4602Y2168D01*
X4632D01*
X4647Y2183D01*
Y2242D01*
X4632Y2257D01*
X4602D01*
X4587Y2242D01*
Y2227D01*
X4602Y2212D01*
X4647D01*
X4468Y915D02*
Y825D01*
X4528D01*
X4617Y915D02*
X4587Y900D01*
X4557Y870D01*
Y840D01*
X4572Y825D01*
X4602D01*
X4617Y840D01*
Y855D01*
X4602Y870D01*
X4557D01*
X2583Y103D02*
X2672D01*
Y163D01*
Y237D02*
X2583D01*
X2627Y192D01*
Y252D01*
X6360Y1320D02*
X6450D01*
X6420D01*
X6360Y1380D01*
X6405Y1335D01*
X6450Y1380D01*
Y1470D02*
Y1410D01*
X6390Y1470D01*
X6375D01*
X6360Y1455D01*
Y1425D01*
X6375Y1410D01*
X6363Y505D02*
X6452D01*
X6422D01*
X6363Y565D01*
X6407Y520D01*
X6452Y565D01*
Y595D02*
Y625D01*
Y610D01*
X6363D01*
X6378Y595D01*
X127Y1872D02*
X98D01*
X113D01*
Y1798D01*
X98Y1783D01*
X83D01*
X68Y1798D01*
X157Y1783D02*
X187D01*
X172D01*
Y1872D01*
X157Y1857D01*
X1060Y1030D02*
X1090D01*
X1075D01*
Y940D01*
X1060D01*
X1090D01*
X1195Y1015D02*
X1180Y1030D01*
X1150D01*
X1135Y1015D01*
Y955D01*
X1150Y940D01*
X1180D01*
X1195Y955D01*
X1225Y940D02*
X1255D01*
X1240D01*
Y1030D01*
X1225Y1015D01*
X2318Y148D02*
Y88D01*
X2362D01*
Y118D01*
Y88D01*
X2407D01*
X2333Y177D02*
X2318Y192D01*
Y222D01*
X2333Y237D01*
X2348D01*
X2362Y222D01*
Y207D01*
Y222D01*
X2377Y237D01*
X2392D01*
X2407Y222D01*
Y192D01*
X2392Y177D01*
X990Y2118D02*
Y2058D01*
X1035D01*
Y2088D01*
Y2058D01*
X1080D01*
Y2207D02*
Y2147D01*
X1020Y2207D01*
X1005D01*
X990Y2192D01*
Y2162D01*
X1005Y2147D01*
X368Y2108D02*
Y2048D01*
X412D01*
Y2078D01*
Y2048D01*
X457D01*
Y2137D02*
Y2167D01*
Y2152D01*
X368D01*
X383Y2137D01*
X3010Y1022D02*
Y933D01*
X3055D01*
X3070Y948D01*
Y1007D01*
X3055Y1022D01*
X3010D01*
X3100Y1007D02*
X3115Y1022D01*
X3145D01*
X3160Y1007D01*
Y992D01*
X3145Y977D01*
X3130D01*
X3145D01*
X3160Y963D01*
Y948D01*
X3145Y933D01*
X3115D01*
X3100Y948D01*
X4960Y2027D02*
Y1938D01*
X5005D01*
X5020Y1953D01*
Y2012D01*
X5005Y2027D01*
X4960D01*
X5110Y1938D02*
X5050D01*
X5110Y1997D01*
Y2012D01*
X5095Y2027D01*
X5065D01*
X5050Y2012D01*
X4975Y1137D02*
Y1048D01*
X5020D01*
X5035Y1063D01*
Y1122D01*
X5020Y1137D01*
X4975D01*
X5065Y1048D02*
X5095D01*
X5080D01*
Y1137D01*
X5065Y1122D01*
X2518Y373D02*
X2503Y358D01*
Y328D01*
X2518Y313D01*
X2577D01*
X2592Y328D01*
Y358D01*
X2577Y373D01*
X2592Y447D02*
X2503D01*
X2548Y403D01*
Y462D01*
X2577Y492D02*
X2592Y507D01*
Y537D01*
X2577Y552D01*
X2518D01*
X2503Y537D01*
Y507D01*
X2518Y492D01*
X2533D01*
X2548Y507D01*
Y552D01*
X5295Y1090D02*
X5280Y1105D01*
X5250D01*
X5235Y1090D01*
Y1030D01*
X5250Y1015D01*
X5280D01*
X5295Y1030D01*
X5370Y1015D02*
Y1105D01*
X5325Y1060D01*
X5385D01*
X5415Y1105D02*
X5475D01*
Y1090D01*
X5415Y1030D01*
Y1015D01*
X5625Y2307D02*
X5610Y2322D01*
X5580D01*
X5565Y2307D01*
Y2248D01*
X5580Y2233D01*
X5610D01*
X5625Y2248D01*
X5655Y2307D02*
X5670Y2322D01*
X5700D01*
X5715Y2307D01*
Y2292D01*
X5700Y2277D01*
X5685D01*
X5700D01*
X5715Y2263D01*
Y2248D01*
X5700Y2233D01*
X5670D01*
X5655Y2248D01*
X5745D02*
X5760Y2233D01*
X5790D01*
X5805Y2248D01*
Y2307D01*
X5790Y2322D01*
X5760D01*
X5745Y2307D01*
Y2292D01*
X5760Y2277D01*
X5805D01*
X3373Y2118D02*
X3358Y2103D01*
Y2073D01*
X3373Y2058D01*
X3432D01*
X3447Y2073D01*
Y2103D01*
X3432Y2118D01*
X3373Y2148D02*
X3358Y2163D01*
Y2192D01*
X3373Y2207D01*
X3388D01*
X3403Y2192D01*
Y2177D01*
Y2192D01*
X3417Y2207D01*
X3432D01*
X3447Y2192D01*
Y2163D01*
X3432Y2148D01*
X3358Y2297D02*
X3373Y2267D01*
X3403Y2237D01*
X3432D01*
X3447Y2252D01*
Y2282D01*
X3432Y2297D01*
X3417D01*
X3403Y2282D01*
Y2237D01*
X3955Y177D02*
X3940Y192D01*
X3910D01*
X3895Y177D01*
Y118D01*
X3910Y103D01*
X3940D01*
X3955Y118D01*
X3985Y177D02*
X4000Y192D01*
X4030D01*
X4045Y177D01*
Y162D01*
X4030Y148D01*
X4015D01*
X4030D01*
X4045Y133D01*
Y118D01*
X4030Y103D01*
X4000D01*
X3985Y118D01*
X4135Y192D02*
X4075D01*
Y148D01*
X4105Y162D01*
X4120D01*
X4135Y148D01*
Y118D01*
X4120Y103D01*
X4090D01*
X4075Y118D01*
X4073Y2020D02*
X4058Y2005D01*
Y1975D01*
X4073Y1960D01*
X4132D01*
X4147Y1975D01*
Y2005D01*
X4132Y2020D01*
X4073Y2050D02*
X4058Y2065D01*
Y2095D01*
X4073Y2110D01*
X4088D01*
X4103Y2095D01*
Y2080D01*
Y2095D01*
X4118Y2110D01*
X4132D01*
X4147Y2095D01*
Y2065D01*
X4132Y2050D01*
X4147Y2185D02*
X4058D01*
X4103Y2140D01*
Y2200D01*
X5298Y925D02*
X5283Y940D01*
X5253D01*
X5238Y925D01*
Y865D01*
X5253Y850D01*
X5283D01*
X5298Y865D01*
X5387Y850D02*
X5328D01*
X5387Y910D01*
Y925D01*
X5372Y940D01*
X5343D01*
X5328Y925D01*
X5417Y940D02*
X5477D01*
Y925D01*
X5417Y865D01*
Y850D01*
X4940Y182D02*
X4925Y197D01*
X4895D01*
X4880Y182D01*
Y123D01*
X4895Y108D01*
X4925D01*
X4940Y123D01*
X5030Y108D02*
X4970D01*
X5030Y167D01*
Y182D01*
X5015Y197D01*
X4985D01*
X4970Y182D01*
X5120Y197D02*
X5090Y182D01*
X5060Y152D01*
Y123D01*
X5075Y108D01*
X5105D01*
X5120Y123D01*
Y138D01*
X5105Y152D01*
X5060D01*
X3550Y1413D02*
X3535Y1398D01*
Y1368D01*
X3550Y1353D01*
X3610D01*
X3625Y1368D01*
Y1398D01*
X3610Y1413D01*
X3625Y1502D02*
Y1443D01*
X3565Y1502D01*
X3550D01*
X3535Y1487D01*
Y1458D01*
X3550Y1443D01*
X3535Y1592D02*
Y1532D01*
X3580D01*
X3565Y1562D01*
Y1577D01*
X3580Y1592D01*
X3610D01*
X3625Y1577D01*
Y1547D01*
X3610Y1532D01*
X4065Y813D02*
X4050Y798D01*
Y768D01*
X4065Y753D01*
X4125D01*
X4140Y768D01*
Y798D01*
X4125Y813D01*
X4140Y902D02*
Y843D01*
X4080Y902D01*
X4065D01*
X4050Y887D01*
Y857D01*
X4065Y843D01*
X4140Y932D02*
Y962D01*
Y947D01*
X4050D01*
X4065Y932D01*
X3200Y2123D02*
X3185Y2108D01*
Y2078D01*
X3200Y2063D01*
X3260D01*
X3275Y2078D01*
Y2108D01*
X3260Y2123D01*
X3275Y2212D02*
Y2153D01*
X3215Y2212D01*
X3200D01*
X3185Y2197D01*
Y2168D01*
X3200Y2153D01*
Y2242D02*
X3185Y2257D01*
Y2287D01*
X3200Y2302D01*
X3260D01*
X3275Y2287D01*
Y2257D01*
X3260Y2242D01*
X3200D01*
X1545Y282D02*
X1530Y297D01*
X1500D01*
X1485Y282D01*
Y223D01*
X1500Y208D01*
X1530D01*
X1545Y223D01*
X1575Y208D02*
X1605D01*
X1590D01*
Y297D01*
X1575Y282D01*
X1650D02*
X1665Y297D01*
X1695D01*
X1710Y282D01*
Y267D01*
X1695Y253D01*
X1710Y238D01*
Y223D01*
X1695Y208D01*
X1665D01*
X1650Y223D01*
Y238D01*
X1665Y253D01*
X1650Y267D01*
Y282D01*
X1665Y253D02*
X1695D01*
X750Y272D02*
X735Y287D01*
X705D01*
X690Y272D01*
Y213D01*
X705Y198D01*
X735D01*
X750Y213D01*
X780Y198D02*
X810D01*
X795D01*
Y287D01*
X780Y272D01*
X855Y287D02*
X915D01*
Y272D01*
X855Y213D01*
Y198D01*
X2383Y2160D02*
X2368Y2145D01*
Y2115D01*
X2383Y2100D01*
X2442D01*
X2457Y2115D01*
Y2145D01*
X2442Y2160D01*
X2457Y2190D02*
Y2220D01*
Y2205D01*
X2368D01*
X2383Y2190D01*
Y2265D02*
X2368Y2280D01*
Y2310D01*
X2383Y2325D01*
X2442D01*
X2457Y2310D01*
Y2280D01*
X2442Y2265D01*
X2383D01*
X2105Y2025D02*
X2090Y2040D01*
X2060D01*
X2045Y2025D01*
Y1965D01*
X2060Y1950D01*
X2090D01*
X2105Y1965D01*
X2135D02*
X2150Y1950D01*
X2180D01*
X2195Y1965D01*
Y2025D01*
X2180Y2040D01*
X2150D01*
X2135Y2025D01*
Y2010D01*
X2150Y1995D01*
X2195D01*
X1413Y2022D02*
X1398Y2037D01*
X1368D01*
X1353Y2022D01*
Y1963D01*
X1368Y1948D01*
X1398D01*
X1413Y1963D01*
X1442Y2022D02*
X1457Y2037D01*
X1487D01*
X1502Y2022D01*
Y2007D01*
X1487Y1992D01*
X1472D01*
X1487D01*
X1502Y1978D01*
Y1963D01*
X1487Y1948D01*
X1457D01*
X1442Y1963D01*
X1903Y2025D02*
X1888Y2040D01*
X1858D01*
X1843Y2025D01*
Y1965D01*
X1858Y1950D01*
X1888D01*
X1903Y1965D01*
X1992Y1950D02*
X1932D01*
X1992Y2010D01*
Y2025D01*
X1977Y2040D01*
X1947D01*
X1932Y2025D01*
X1725Y2022D02*
X1710Y2037D01*
X1680D01*
X1665Y2022D01*
Y1963D01*
X1680Y1948D01*
X1710D01*
X1725Y1963D01*
X1755Y1948D02*
X1785D01*
X1770D01*
Y2037D01*
X1755Y2022D01*
D15*
X5921Y1257D02*
X6403D01*
X5921Y1003D02*
X6403D01*
X5908D02*
Y1257D01*
X6403Y1003D02*
Y1257D01*
X5921Y922D02*
X6403D01*
X5921Y668D02*
X6403D01*
X5908D02*
Y922D01*
X6403Y668D02*
Y922D01*
X228Y12147D02*
Y11994D01*
X330D01*
X406Y12096D02*
X457D01*
X482Y12070D01*
Y11994D01*
X406D01*
X381Y12020D01*
X406Y12045D01*
X482D01*
X533Y12096D02*
Y12020D01*
X559Y11994D01*
X635D01*
Y11969D01*
X609Y11943D01*
X584D01*
X635Y11994D02*
Y12096D01*
X762Y11994D02*
X711D01*
X686Y12020D01*
Y12070D01*
X711Y12096D01*
X762D01*
X787Y12070D01*
Y12045D01*
X686D01*
X838Y12096D02*
Y11994D01*
Y12045D01*
X863Y12070D01*
X889Y12096D01*
X914D01*
X305Y9251D02*
Y9403D01*
X228Y9327D01*
X330D01*
X228Y9988D02*
X254Y10013D01*
X305D01*
X330Y9988D01*
Y9962D01*
X305Y9937D01*
X279D01*
X305D01*
X330Y9911D01*
Y9886D01*
X305Y9861D01*
X254D01*
X228Y9886D01*
X330Y10470D02*
X228D01*
X330Y10572D01*
Y10597D01*
X305Y10623D01*
X254D01*
X228Y10597D01*
Y11080D02*
X279D01*
X254D01*
Y11232D01*
X228Y11207D01*
X1270Y11994D02*
Y12147D01*
X1371Y11994D01*
Y12147D01*
X1447Y12096D02*
X1498D01*
X1524Y12070D01*
Y11994D01*
X1447D01*
X1422Y12020D01*
X1447Y12045D01*
X1524D01*
X1574Y11994D02*
Y12096D01*
X1600D01*
X1625Y12070D01*
Y11994D01*
Y12070D01*
X1651Y12096D01*
X1676Y12070D01*
Y11994D01*
X1803D02*
X1752D01*
X1727Y12020D01*
Y12070D01*
X1752Y12096D01*
X1803D01*
X1828Y12070D01*
Y12045D01*
X1727D01*
X1270Y8794D02*
Y8641D01*
X1346D01*
X1371Y8667D01*
Y8692D01*
X1346Y8718D01*
X1270D01*
X1346D01*
X1371Y8743D01*
Y8768D01*
X1346Y8794D01*
X1270D01*
X1447Y8641D02*
X1498D01*
X1524Y8667D01*
Y8718D01*
X1498Y8743D01*
X1447D01*
X1422Y8718D01*
Y8667D01*
X1447Y8641D01*
X1600Y8768D02*
Y8743D01*
X1574D01*
X1625D01*
X1600D01*
Y8667D01*
X1625Y8641D01*
X1727Y8768D02*
Y8743D01*
X1701D01*
X1752D01*
X1727D01*
Y8667D01*
X1752Y8641D01*
X1854D02*
X1904D01*
X1930Y8667D01*
Y8718D01*
X1904Y8743D01*
X1854D01*
X1828Y8718D01*
Y8667D01*
X1854Y8641D01*
X1981D02*
Y8743D01*
X2006D01*
X2031Y8718D01*
Y8641D01*
Y8718D01*
X2057Y8743D01*
X2082Y8718D01*
Y8641D01*
X2362Y8794D02*
X2311D01*
X2285Y8768D01*
Y8667D01*
X2311Y8641D01*
X2362D01*
X2387Y8667D01*
Y8768D01*
X2362Y8794D01*
X2438Y8743D02*
X2488Y8641D01*
X2539Y8743D01*
X2666Y8641D02*
X2615D01*
X2590Y8667D01*
Y8718D01*
X2615Y8743D01*
X2666D01*
X2692Y8718D01*
Y8692D01*
X2590D01*
X2742Y8743D02*
Y8641D01*
Y8692D01*
X2768Y8718D01*
X2793Y8743D01*
X2819D01*
X2895Y8641D02*
X2946D01*
X2920D01*
Y8794D01*
X2895D01*
X3047Y8743D02*
X3098D01*
X3123Y8718D01*
Y8641D01*
X3047D01*
X3022Y8667D01*
X3047Y8692D01*
X3123D01*
X3174Y8743D02*
Y8667D01*
X3199Y8641D01*
X3276D01*
Y8616D01*
X3250Y8591D01*
X3225D01*
X3276Y8641D02*
Y8743D01*
X1270Y9099D02*
Y8946D01*
X1346D01*
X1371Y8972D01*
Y8997D01*
X1346Y9022D01*
X1270D01*
X1346D01*
X1371Y9048D01*
Y9073D01*
X1346Y9099D01*
X1270D01*
X1447Y8946D02*
X1498D01*
X1524Y8972D01*
Y9022D01*
X1498Y9048D01*
X1447D01*
X1422Y9022D01*
Y8972D01*
X1447Y8946D01*
X1600Y9073D02*
Y9048D01*
X1574D01*
X1625D01*
X1600D01*
Y8972D01*
X1625Y8946D01*
X1727Y9073D02*
Y9048D01*
X1701D01*
X1752D01*
X1727D01*
Y8972D01*
X1752Y8946D01*
X1854D02*
X1904D01*
X1930Y8972D01*
Y9022D01*
X1904Y9048D01*
X1854D01*
X1828Y9022D01*
Y8972D01*
X1854Y8946D01*
X1981D02*
Y9048D01*
X2006D01*
X2031Y9022D01*
Y8946D01*
Y9022D01*
X2057Y9048D01*
X2082Y9022D01*
Y8946D01*
X2387Y9073D02*
X2362Y9099D01*
X2311D01*
X2285Y9073D01*
Y9048D01*
X2311Y9022D01*
X2362D01*
X2387Y8997D01*
Y8972D01*
X2362Y8946D01*
X2311D01*
X2285Y8972D01*
X2463Y8946D02*
X2514D01*
X2539Y8972D01*
Y9022D01*
X2514Y9048D01*
X2463D01*
X2438Y9022D01*
Y8972D01*
X2463Y8946D01*
X2590D02*
X2641D01*
X2615D01*
Y9099D01*
X2590D01*
X2819D02*
Y8946D01*
X2742D01*
X2717Y8972D01*
Y9022D01*
X2742Y9048D01*
X2819D01*
X2946Y8946D02*
X2895D01*
X2869Y8972D01*
Y9022D01*
X2895Y9048D01*
X2946D01*
X2971Y9022D01*
Y8997D01*
X2869D01*
X3022Y9048D02*
Y8946D01*
Y8997D01*
X3047Y9022D01*
X3072Y9048D01*
X3098D01*
X1270Y9403D02*
Y9251D01*
X1346D01*
X1371Y9276D01*
Y9302D01*
X1346Y9327D01*
X1270D01*
X1346D01*
X1371Y9353D01*
Y9378D01*
X1346Y9403D01*
X1270D01*
X1447Y9251D02*
X1498D01*
X1524Y9276D01*
Y9327D01*
X1498Y9353D01*
X1447D01*
X1422Y9327D01*
Y9276D01*
X1447Y9251D01*
X1600Y9378D02*
Y9353D01*
X1574D01*
X1625D01*
X1600D01*
Y9276D01*
X1625Y9251D01*
X1727Y9378D02*
Y9353D01*
X1701D01*
X1752D01*
X1727D01*
Y9276D01*
X1752Y9251D01*
X1854D02*
X1904D01*
X1930Y9276D01*
Y9327D01*
X1904Y9353D01*
X1854D01*
X1828Y9327D01*
Y9276D01*
X1854Y9251D01*
X1981D02*
Y9353D01*
X2006D01*
X2031Y9327D01*
Y9251D01*
Y9327D01*
X2057Y9353D01*
X2082Y9327D01*
Y9251D01*
X2285Y9403D02*
Y9251D01*
X2387D01*
X2463Y9353D02*
X2514D01*
X2539Y9327D01*
Y9251D01*
X2463D01*
X2438Y9276D01*
X2463Y9302D01*
X2539D01*
X2590Y9353D02*
Y9276D01*
X2615Y9251D01*
X2692D01*
Y9226D01*
X2666Y9200D01*
X2641D01*
X2692Y9251D02*
Y9353D01*
X2819Y9251D02*
X2768D01*
X2742Y9276D01*
Y9327D01*
X2768Y9353D01*
X2819D01*
X2844Y9327D01*
Y9302D01*
X2742D01*
X2895Y9353D02*
Y9251D01*
Y9302D01*
X2920Y9327D01*
X2946Y9353D01*
X2971D01*
X1270Y9708D02*
Y9556D01*
X1346D01*
X1371Y9581D01*
Y9683D01*
X1346Y9708D01*
X1270D01*
X1422Y9556D02*
X1473D01*
X1447D01*
Y9657D01*
X1422D01*
X1625Y9556D02*
X1574D01*
X1549Y9581D01*
Y9632D01*
X1574Y9657D01*
X1625D01*
X1651Y9632D01*
Y9607D01*
X1549D01*
X1701Y9556D02*
X1752D01*
X1727D01*
Y9708D01*
X1701D01*
X1904Y9556D02*
X1854D01*
X1828Y9581D01*
Y9632D01*
X1854Y9657D01*
X1904D01*
X1930Y9632D01*
Y9607D01*
X1828D01*
X2082Y9657D02*
X2006D01*
X1981Y9632D01*
Y9581D01*
X2006Y9556D01*
X2082D01*
X2158Y9683D02*
Y9657D01*
X2133D01*
X2184D01*
X2158D01*
Y9581D01*
X2184Y9556D01*
X2260Y9657D02*
Y9556D01*
Y9607D01*
X2285Y9632D01*
X2311Y9657D01*
X2336D01*
X2412Y9556D02*
X2463D01*
X2438D01*
Y9657D01*
X2412D01*
X2641D02*
X2565D01*
X2539Y9632D01*
Y9581D01*
X2565Y9556D01*
X2641D01*
X2844Y9683D02*
X2869Y9708D01*
X2920D01*
X2946Y9683D01*
Y9657D01*
X2920Y9632D01*
X2895D01*
X2920D01*
X2946Y9607D01*
Y9581D01*
X2920Y9556D01*
X2869D01*
X2844Y9581D01*
X1270Y10013D02*
Y9861D01*
X1371D01*
X1422Y9988D02*
X1447Y10013D01*
X1498D01*
X1524Y9988D01*
Y9962D01*
X1498Y9937D01*
X1473D01*
X1498D01*
X1524Y9911D01*
Y9886D01*
X1498Y9861D01*
X1447D01*
X1422Y9886D01*
X1270Y10318D02*
Y10165D01*
X1346D01*
X1371Y10191D01*
Y10292D01*
X1346Y10318D01*
X1270D01*
X1422Y10165D02*
X1473D01*
X1447D01*
Y10267D01*
X1422D01*
X1625Y10165D02*
X1574D01*
X1549Y10191D01*
Y10242D01*
X1574Y10267D01*
X1625D01*
X1651Y10242D01*
Y10216D01*
X1549D01*
X1701Y10165D02*
X1752D01*
X1727D01*
Y10318D01*
X1701D01*
X1904Y10165D02*
X1854D01*
X1828Y10191D01*
Y10242D01*
X1854Y10267D01*
X1904D01*
X1930Y10242D01*
Y10216D01*
X1828D01*
X2082Y10267D02*
X2006D01*
X1981Y10242D01*
Y10191D01*
X2006Y10165D01*
X2082D01*
X2158Y10292D02*
Y10267D01*
X2133D01*
X2184D01*
X2158D01*
Y10191D01*
X2184Y10165D01*
X2260Y10267D02*
Y10165D01*
Y10216D01*
X2285Y10242D01*
X2311Y10267D01*
X2336D01*
X2412Y10165D02*
X2463D01*
X2438D01*
Y10267D01*
X2412D01*
X2641D02*
X2565D01*
X2539Y10242D01*
Y10191D01*
X2565Y10165D01*
X2641D01*
X2844D02*
X2895D01*
X2869D01*
Y10318D01*
X2844Y10292D01*
X1270Y10623D02*
Y10470D01*
X1371D01*
X1524D02*
X1422D01*
X1524Y10572D01*
Y10597D01*
X1498Y10623D01*
X1447D01*
X1422Y10597D01*
X1270Y10927D02*
Y10775D01*
X1346D01*
X1371Y10800D01*
Y10902D01*
X1346Y10927D01*
X1270D01*
X1422Y10775D02*
X1473D01*
X1447D01*
Y10877D01*
X1422D01*
X1625Y10775D02*
X1574D01*
X1549Y10800D01*
Y10851D01*
X1574Y10877D01*
X1625D01*
X1651Y10851D01*
Y10826D01*
X1549D01*
X1701Y10775D02*
X1752D01*
X1727D01*
Y10927D01*
X1701D01*
X1904Y10775D02*
X1854D01*
X1828Y10800D01*
Y10851D01*
X1854Y10877D01*
X1904D01*
X1930Y10851D01*
Y10826D01*
X1828D01*
X2082Y10877D02*
X2006D01*
X1981Y10851D01*
Y10800D01*
X2006Y10775D01*
X2082D01*
X2158Y10902D02*
Y10877D01*
X2133D01*
X2184D01*
X2158D01*
Y10800D01*
X2184Y10775D01*
X2260Y10877D02*
Y10775D01*
Y10826D01*
X2285Y10851D01*
X2311Y10877D01*
X2336D01*
X2412Y10775D02*
X2463D01*
X2438D01*
Y10877D01*
X2412D01*
X2641D02*
X2565D01*
X2539Y10851D01*
Y10800D01*
X2565Y10775D01*
X2641D01*
X2946D02*
X2844D01*
X2946Y10877D01*
Y10902D01*
X2920Y10927D01*
X2869D01*
X2844Y10902D01*
X1270Y11232D02*
X1371D01*
X1320D01*
Y11080D01*
X1447D02*
X1498D01*
X1524Y11105D01*
Y11156D01*
X1498Y11181D01*
X1447D01*
X1422Y11156D01*
Y11105D01*
X1447Y11080D01*
X1574Y11029D02*
Y11181D01*
X1651D01*
X1676Y11156D01*
Y11105D01*
X1651Y11080D01*
X1574D01*
X1879Y11232D02*
Y11080D01*
X1981D01*
X2057Y11181D02*
X2108D01*
X2133Y11156D01*
Y11080D01*
X2057D01*
X2031Y11105D01*
X2057Y11131D01*
X2133D01*
X2184Y11181D02*
Y11105D01*
X2209Y11080D01*
X2285D01*
Y11054D01*
X2260Y11029D01*
X2235D01*
X2285Y11080D02*
Y11181D01*
X2412Y11080D02*
X2362D01*
X2336Y11105D01*
Y11156D01*
X2362Y11181D01*
X2412D01*
X2438Y11156D01*
Y11131D01*
X2336D01*
X2488Y11181D02*
Y11080D01*
Y11131D01*
X2514Y11156D01*
X2539Y11181D01*
X2565D01*
X1270Y11537D02*
X1371D01*
X1320D01*
Y11385D01*
X1447D02*
X1498D01*
X1524Y11410D01*
Y11461D01*
X1498Y11486D01*
X1447D01*
X1422Y11461D01*
Y11410D01*
X1447Y11385D01*
X1574Y11334D02*
Y11486D01*
X1651D01*
X1676Y11461D01*
Y11410D01*
X1651Y11385D01*
X1574D01*
X1981Y11512D02*
X1955Y11537D01*
X1904D01*
X1879Y11512D01*
Y11486D01*
X1904Y11461D01*
X1955D01*
X1981Y11435D01*
Y11410D01*
X1955Y11385D01*
X1904D01*
X1879Y11410D01*
X2057Y11385D02*
X2108D01*
X2133Y11410D01*
Y11461D01*
X2108Y11486D01*
X2057D01*
X2031Y11461D01*
Y11410D01*
X2057Y11385D01*
X2184D02*
X2235D01*
X2209D01*
Y11537D01*
X2184D01*
X2412D02*
Y11385D01*
X2336D01*
X2311Y11410D01*
Y11461D01*
X2336Y11486D01*
X2412D01*
X2539Y11385D02*
X2488D01*
X2463Y11410D01*
Y11461D01*
X2488Y11486D01*
X2539D01*
X2565Y11461D01*
Y11435D01*
X2463D01*
X2615Y11486D02*
Y11385D01*
Y11435D01*
X2641Y11461D01*
X2666Y11486D01*
X2692D01*
X1270Y11842D02*
X1371D01*
X1320D01*
Y11689D01*
X1447D02*
X1498D01*
X1524Y11715D01*
Y11766D01*
X1498Y11791D01*
X1447D01*
X1422Y11766D01*
Y11715D01*
X1447Y11689D01*
X1574Y11639D02*
Y11791D01*
X1651D01*
X1676Y11766D01*
Y11715D01*
X1651Y11689D01*
X1574D01*
X1955Y11842D02*
X1904D01*
X1879Y11816D01*
Y11715D01*
X1904Y11689D01*
X1955D01*
X1981Y11715D01*
Y11816D01*
X1955Y11842D01*
X2031Y11791D02*
X2082Y11689D01*
X2133Y11791D01*
X2260Y11689D02*
X2209D01*
X2184Y11715D01*
Y11766D01*
X2209Y11791D01*
X2260D01*
X2285Y11766D01*
Y11740D01*
X2184D01*
X2336Y11791D02*
Y11689D01*
Y11740D01*
X2362Y11766D01*
X2387Y11791D01*
X2412D01*
X2488Y11689D02*
X2539D01*
X2514D01*
Y11842D01*
X2488D01*
X2641Y11791D02*
X2692D01*
X2717Y11766D01*
Y11689D01*
X2641D01*
X2615Y11715D01*
X2641Y11740D01*
X2717D01*
X2768Y11791D02*
Y11715D01*
X2793Y11689D01*
X2869D01*
Y11664D01*
X2844Y11639D01*
X2819D01*
X2869Y11689D02*
Y11791D01*
X3631Y11994D02*
Y12147D01*
X3682Y12096D01*
X3733Y12147D01*
Y11994D01*
X3809Y12096D02*
X3860D01*
X3885Y12070D01*
Y11994D01*
X3809D01*
X3784Y12020D01*
X3809Y12045D01*
X3885D01*
X3961Y12121D02*
Y12096D01*
X3936D01*
X3987D01*
X3961D01*
Y12020D01*
X3987Y11994D01*
X4139D02*
X4088D01*
X4063Y12020D01*
Y12070D01*
X4088Y12096D01*
X4139D01*
X4164Y12070D01*
Y12045D01*
X4063D01*
X4215Y12096D02*
Y11994D01*
Y12045D01*
X4241Y12070D01*
X4266Y12096D01*
X4291D01*
X4368Y11994D02*
X4418D01*
X4393D01*
Y12096D01*
X4368D01*
X4520D02*
X4571D01*
X4596Y12070D01*
Y11994D01*
X4520D01*
X4495Y12020D01*
X4520Y12045D01*
X4596D01*
X4647Y11994D02*
X4698D01*
X4672D01*
Y12147D01*
X4647D01*
X3733Y9073D02*
X3707Y9099D01*
X3657D01*
X3631Y9073D01*
Y9048D01*
X3657Y9022D01*
X3707D01*
X3733Y8997D01*
Y8972D01*
X3707Y8946D01*
X3657D01*
X3631Y8972D01*
X3809Y8946D02*
X3860D01*
X3885Y8972D01*
Y9022D01*
X3860Y9048D01*
X3809D01*
X3784Y9022D01*
Y8972D01*
X3809Y8946D01*
X3936D02*
X3987D01*
X3961D01*
Y9099D01*
X3936D01*
X4164D02*
Y8946D01*
X4088D01*
X4063Y8972D01*
Y9022D01*
X4088Y9048D01*
X4164D01*
X4291Y8946D02*
X4241D01*
X4215Y8972D01*
Y9022D01*
X4241Y9048D01*
X4291D01*
X4317Y9022D01*
Y8997D01*
X4215D01*
X4368Y9048D02*
Y8946D01*
Y8997D01*
X4393Y9022D01*
X4418Y9048D01*
X4444D01*
X4672Y8946D02*
Y9099D01*
X4748D01*
X4774Y9073D01*
Y9022D01*
X4748Y8997D01*
X4672D01*
X4723D02*
X4774Y8946D01*
X4901D02*
X4850D01*
X4825Y8972D01*
Y9022D01*
X4850Y9048D01*
X4901D01*
X4926Y9022D01*
Y8997D01*
X4825D01*
X4977Y8946D02*
X5053D01*
X5079Y8972D01*
X5053Y8997D01*
X5002D01*
X4977Y9022D01*
X5002Y9048D01*
X5079D01*
X5129Y8946D02*
X5180D01*
X5155D01*
Y9048D01*
X5129D01*
X5256Y8946D02*
X5332D01*
X5358Y8972D01*
X5332Y8997D01*
X5282D01*
X5256Y9022D01*
X5282Y9048D01*
X5358D01*
X5434Y9073D02*
Y9048D01*
X5409D01*
X5459D01*
X5434D01*
Y8972D01*
X5459Y8946D01*
X3733Y9378D02*
X3707Y9403D01*
X3657D01*
X3631Y9378D01*
Y9276D01*
X3657Y9251D01*
X3707D01*
X3733Y9276D01*
X3809Y9251D02*
X3860D01*
X3885Y9276D01*
Y9327D01*
X3860Y9353D01*
X3809D01*
X3784Y9327D01*
Y9276D01*
X3809Y9251D01*
X3936Y9200D02*
Y9353D01*
X4012D01*
X4037Y9327D01*
Y9276D01*
X4012Y9251D01*
X3936D01*
X4088Y9200D02*
Y9353D01*
X4164D01*
X4190Y9327D01*
Y9276D01*
X4164Y9251D01*
X4088D01*
X4317D02*
X4266D01*
X4241Y9276D01*
Y9327D01*
X4266Y9353D01*
X4317D01*
X4342Y9327D01*
Y9302D01*
X4241D01*
X4393Y9353D02*
Y9251D01*
Y9302D01*
X4418Y9327D01*
X4444Y9353D01*
X4469D01*
X3631Y9556D02*
Y9708D01*
X3707D01*
X3733Y9683D01*
Y9632D01*
X3707Y9607D01*
X3631D01*
X3784Y9556D02*
Y9708D01*
X3860D01*
X3885Y9683D01*
Y9632D01*
X3860Y9607D01*
X3784D01*
X3936Y9632D02*
X4037D01*
X4088Y9683D02*
X4114Y9708D01*
X4164D01*
X4190Y9683D01*
Y9581D01*
X4164Y9556D01*
X4114D01*
X4088Y9581D01*
Y9683D01*
X4241Y9556D02*
X4291D01*
X4266D01*
Y9708D01*
X4241Y9683D01*
X4368D02*
X4393Y9708D01*
X4444D01*
X4469Y9683D01*
Y9657D01*
X4444Y9632D01*
X4469Y9607D01*
Y9581D01*
X4444Y9556D01*
X4393D01*
X4368Y9581D01*
Y9607D01*
X4393Y9632D01*
X4368Y9657D01*
Y9683D01*
X4393Y9632D02*
X4444D01*
X3733Y9988D02*
X3707Y10013D01*
X3657D01*
X3631Y9988D01*
Y9886D01*
X3657Y9861D01*
X3707D01*
X3733Y9886D01*
X3809Y9861D02*
X3860D01*
X3885Y9886D01*
Y9937D01*
X3860Y9962D01*
X3809D01*
X3784Y9937D01*
Y9886D01*
X3809Y9861D01*
X3936Y9810D02*
Y9962D01*
X4012D01*
X4037Y9937D01*
Y9886D01*
X4012Y9861D01*
X3936D01*
X4088Y9810D02*
Y9962D01*
X4164D01*
X4190Y9937D01*
Y9886D01*
X4164Y9861D01*
X4088D01*
X4317D02*
X4266D01*
X4241Y9886D01*
Y9937D01*
X4266Y9962D01*
X4317D01*
X4342Y9937D01*
Y9911D01*
X4241D01*
X4393Y9962D02*
Y9861D01*
Y9911D01*
X4418Y9937D01*
X4444Y9962D01*
X4469D01*
X3733Y10318D02*
X3631D01*
Y10242D01*
X3682D01*
X3631D01*
Y10165D01*
X3784D02*
Y10318D01*
X3860D01*
X3885Y10292D01*
Y10242D01*
X3860Y10216D01*
X3784D01*
X3834D02*
X3885Y10165D01*
X3936Y10242D02*
X4037D01*
X4164Y10165D02*
Y10318D01*
X4088Y10242D01*
X4190D01*
X3733Y10597D02*
X3707Y10623D01*
X3657D01*
X3631Y10597D01*
Y10496D01*
X3657Y10470D01*
X3707D01*
X3733Y10496D01*
X3809Y10470D02*
X3860D01*
X3885Y10496D01*
Y10546D01*
X3860Y10572D01*
X3809D01*
X3784Y10546D01*
Y10496D01*
X3809Y10470D01*
X3936Y10419D02*
Y10572D01*
X4012D01*
X4037Y10546D01*
Y10496D01*
X4012Y10470D01*
X3936D01*
X4088Y10419D02*
Y10572D01*
X4164D01*
X4190Y10546D01*
Y10496D01*
X4164Y10470D01*
X4088D01*
X4317D02*
X4266D01*
X4241Y10496D01*
Y10546D01*
X4266Y10572D01*
X4317D01*
X4342Y10546D01*
Y10521D01*
X4241D01*
X4393Y10572D02*
Y10470D01*
Y10521D01*
X4418Y10546D01*
X4444Y10572D01*
X4469D01*
X3631Y10775D02*
Y10927D01*
X3707D01*
X3733Y10902D01*
Y10851D01*
X3707Y10826D01*
X3631D01*
X3784Y10775D02*
Y10927D01*
X3860D01*
X3885Y10902D01*
Y10851D01*
X3860Y10826D01*
X3784D01*
X3936Y10851D02*
X4037D01*
X4088Y10902D02*
X4114Y10927D01*
X4164D01*
X4190Y10902D01*
Y10800D01*
X4164Y10775D01*
X4114D01*
X4088Y10800D01*
Y10902D01*
X4241Y10775D02*
X4291D01*
X4266D01*
Y10927D01*
X4241Y10902D01*
X4368D02*
X4393Y10927D01*
X4444D01*
X4469Y10902D01*
Y10877D01*
X4444Y10851D01*
X4469Y10826D01*
Y10800D01*
X4444Y10775D01*
X4393D01*
X4368Y10800D01*
Y10826D01*
X4393Y10851D01*
X4368Y10877D01*
Y10902D01*
X4393Y10851D02*
X4444D01*
X3733Y11207D02*
X3707Y11232D01*
X3657D01*
X3631Y11207D01*
Y11105D01*
X3657Y11080D01*
X3707D01*
X3733Y11105D01*
X3809Y11080D02*
X3860D01*
X3885Y11105D01*
Y11156D01*
X3860Y11181D01*
X3809D01*
X3784Y11156D01*
Y11105D01*
X3809Y11080D01*
X3936Y11029D02*
Y11181D01*
X4012D01*
X4037Y11156D01*
Y11105D01*
X4012Y11080D01*
X3936D01*
X4088Y11029D02*
Y11181D01*
X4164D01*
X4190Y11156D01*
Y11105D01*
X4164Y11080D01*
X4088D01*
X4317D02*
X4266D01*
X4241Y11105D01*
Y11156D01*
X4266Y11181D01*
X4317D01*
X4342Y11156D01*
Y11131D01*
X4241D01*
X4393Y11181D02*
Y11080D01*
Y11131D01*
X4418Y11156D01*
X4444Y11181D01*
X4469D01*
X3733Y11512D02*
X3707Y11537D01*
X3657D01*
X3631Y11512D01*
Y11486D01*
X3657Y11461D01*
X3707D01*
X3733Y11435D01*
Y11410D01*
X3707Y11385D01*
X3657D01*
X3631Y11410D01*
X3809Y11385D02*
X3860D01*
X3885Y11410D01*
Y11461D01*
X3860Y11486D01*
X3809D01*
X3784Y11461D01*
Y11410D01*
X3809Y11385D01*
X3936D02*
X3987D01*
X3961D01*
Y11537D01*
X3936D01*
X4164D02*
Y11385D01*
X4088D01*
X4063Y11410D01*
Y11461D01*
X4088Y11486D01*
X4164D01*
X4291Y11385D02*
X4241D01*
X4215Y11410D01*
Y11461D01*
X4241Y11486D01*
X4291D01*
X4317Y11461D01*
Y11435D01*
X4215D01*
X4368Y11486D02*
Y11385D01*
Y11435D01*
X4393Y11461D01*
X4418Y11486D01*
X4444D01*
X4672Y11385D02*
Y11537D01*
X4748D01*
X4774Y11512D01*
Y11461D01*
X4748Y11435D01*
X4672D01*
X4723D02*
X4774Y11385D01*
X4901D02*
X4850D01*
X4825Y11410D01*
Y11461D01*
X4850Y11486D01*
X4901D01*
X4926Y11461D01*
Y11435D01*
X4825D01*
X4977Y11385D02*
X5053D01*
X5079Y11410D01*
X5053Y11435D01*
X5002D01*
X4977Y11461D01*
X5002Y11486D01*
X5079D01*
X5129Y11385D02*
X5180D01*
X5155D01*
Y11486D01*
X5129D01*
X5256Y11385D02*
X5332D01*
X5358Y11410D01*
X5332Y11435D01*
X5282D01*
X5256Y11461D01*
X5282Y11486D01*
X5358D01*
X5434Y11512D02*
Y11486D01*
X5409D01*
X5459D01*
X5434D01*
Y11410D01*
X5459Y11385D01*
X5815Y12147D02*
X5917D01*
X5866D01*
Y11994D01*
X5967Y12147D02*
Y11994D01*
Y12070D01*
X5993Y12096D01*
X6044D01*
X6069Y12070D01*
Y11994D01*
X6120D02*
X6171D01*
X6145D01*
Y12096D01*
X6120D01*
X6348D02*
X6272D01*
X6247Y12070D01*
Y12020D01*
X6272Y11994D01*
X6348D01*
X6399D02*
Y12147D01*
Y12045D02*
X6475Y12096D01*
X6399Y12045D02*
X6475Y11994D01*
X6551D02*
Y12096D01*
X6628D01*
X6653Y12070D01*
Y11994D01*
X6780D02*
X6729D01*
X6704Y12020D01*
Y12070D01*
X6729Y12096D01*
X6780D01*
X6805Y12070D01*
Y12045D01*
X6704D01*
X6856Y11994D02*
X6932D01*
X6958Y12020D01*
X6932Y12045D01*
X6881D01*
X6856Y12070D01*
X6881Y12096D01*
X6958D01*
X7008Y11994D02*
X7085D01*
X7110Y12020D01*
X7085Y12045D01*
X7034D01*
X7008Y12070D01*
X7034Y12096D01*
X7110D01*
X5815Y9073D02*
X5840Y9099D01*
X5891D01*
X5917Y9073D01*
Y8972D01*
X5891Y8946D01*
X5840D01*
X5815Y8972D01*
Y9073D01*
X5993Y8921D02*
X6018Y8946D01*
Y8972D01*
X5993D01*
Y8946D01*
X6018D01*
X5993Y8921D01*
X5967Y8895D01*
X6196Y8946D02*
Y9099D01*
X6120Y9022D01*
X6221D01*
X6272Y9073D02*
X6297Y9099D01*
X6348D01*
X6374Y9073D01*
Y8972D01*
X6348Y8946D01*
X6297D01*
X6272Y8972D01*
Y9073D01*
X6424Y8946D02*
Y9048D01*
X6450D01*
X6475Y9022D01*
Y8946D01*
Y9022D01*
X6501Y9048D01*
X6526Y9022D01*
Y8946D01*
X6577D02*
X6628D01*
X6602D01*
Y9048D01*
X6577D01*
X6704Y8946D02*
X6755D01*
X6729D01*
Y9099D01*
X6704D01*
X5815Y9251D02*
X5866D01*
X5840D01*
Y9403D01*
X5815Y9378D01*
X5967Y9226D02*
X5993Y9251D01*
Y9276D01*
X5967D01*
Y9251D01*
X5993D01*
X5967Y9226D01*
X5942Y9200D01*
X6171Y9251D02*
Y9403D01*
X6094Y9327D01*
X6196D01*
X6247Y9378D02*
X6272Y9403D01*
X6323D01*
X6348Y9378D01*
Y9276D01*
X6323Y9251D01*
X6272D01*
X6247Y9276D01*
Y9378D01*
X6399Y9251D02*
Y9353D01*
X6424D01*
X6450Y9327D01*
Y9251D01*
Y9327D01*
X6475Y9353D01*
X6501Y9327D01*
Y9251D01*
X6551D02*
X6602D01*
X6577D01*
Y9353D01*
X6551D01*
X6678Y9251D02*
X6729D01*
X6704D01*
Y9403D01*
X6678D01*
X5917Y9708D02*
X5866Y9683D01*
X5815Y9632D01*
Y9581D01*
X5840Y9556D01*
X5891D01*
X5917Y9581D01*
Y9607D01*
X5891Y9632D01*
X5815D01*
X5993Y9530D02*
X6018Y9556D01*
Y9581D01*
X5993D01*
Y9556D01*
X6018D01*
X5993Y9530D01*
X5967Y9505D01*
X6120Y9683D02*
X6145Y9708D01*
X6196D01*
X6221Y9683D01*
Y9581D01*
X6196Y9556D01*
X6145D01*
X6120Y9581D01*
Y9683D01*
X6272D02*
X6297Y9708D01*
X6348D01*
X6374Y9683D01*
Y9581D01*
X6348Y9556D01*
X6297D01*
X6272Y9581D01*
Y9683D01*
X6424Y9556D02*
Y9657D01*
X6450D01*
X6475Y9632D01*
Y9556D01*
Y9632D01*
X6501Y9657D01*
X6526Y9632D01*
Y9556D01*
X6577D02*
X6628D01*
X6602D01*
Y9657D01*
X6577D01*
X6704Y9556D02*
X6755D01*
X6729D01*
Y9708D01*
X6704D01*
X5815Y9861D02*
X5866D01*
X5840D01*
Y10013D01*
X5815Y9988D01*
X5967Y9835D02*
X5993Y9861D01*
Y9886D01*
X5967D01*
Y9861D01*
X5993D01*
X5967Y9835D01*
X5942Y9810D01*
X6094Y9988D02*
X6120Y10013D01*
X6171D01*
X6196Y9988D01*
Y9962D01*
X6171Y9937D01*
X6145D01*
X6171D01*
X6196Y9911D01*
Y9886D01*
X6171Y9861D01*
X6120D01*
X6094Y9886D01*
X6247Y9988D02*
X6272Y10013D01*
X6323D01*
X6348Y9988D01*
Y9962D01*
X6323Y9937D01*
X6348Y9911D01*
Y9886D01*
X6323Y9861D01*
X6272D01*
X6247Y9886D01*
Y9911D01*
X6272Y9937D01*
X6247Y9962D01*
Y9988D01*
X6272Y9937D02*
X6323D01*
X6399Y9861D02*
Y9962D01*
X6424D01*
X6450Y9937D01*
Y9861D01*
Y9937D01*
X6475Y9962D01*
X6501Y9937D01*
Y9861D01*
X6551D02*
X6602D01*
X6577D01*
Y9962D01*
X6551D01*
X6678Y9861D02*
X6729D01*
X6704D01*
Y10013D01*
X6678D01*
X5891Y10165D02*
Y10318D01*
X5815Y10242D01*
X5917D01*
X6044Y10165D02*
Y10318D01*
X5967Y10242D01*
X6069D01*
X6145Y10140D02*
X6171Y10165D01*
Y10191D01*
X6145D01*
Y10165D01*
X6171D01*
X6145Y10140D01*
X6120Y10115D01*
X6348Y10165D02*
Y10318D01*
X6272Y10242D01*
X6374D01*
X6424Y10191D02*
X6450Y10165D01*
X6501D01*
X6526Y10191D01*
Y10292D01*
X6501Y10318D01*
X6450D01*
X6424Y10292D01*
Y10267D01*
X6450Y10242D01*
X6526D01*
X6577Y10165D02*
Y10267D01*
X6602D01*
X6628Y10242D01*
Y10165D01*
Y10242D01*
X6653Y10267D01*
X6678Y10242D01*
Y10165D01*
X6729D02*
X6780D01*
X6755D01*
Y10267D01*
X6729D01*
X6856Y10165D02*
X6907D01*
X6881D01*
Y10318D01*
X6856D01*
X5815Y10470D02*
X5866D01*
X5840D01*
Y10623D01*
X5815Y10597D01*
X5967Y10445D02*
X5993Y10470D01*
Y10496D01*
X5967D01*
Y10470D01*
X5993D01*
X5967Y10445D01*
X5942Y10419D01*
X6094Y10597D02*
X6120Y10623D01*
X6171D01*
X6196Y10597D01*
Y10572D01*
X6171Y10546D01*
X6145D01*
X6171D01*
X6196Y10521D01*
Y10496D01*
X6171Y10470D01*
X6120D01*
X6094Y10496D01*
X6247Y10597D02*
X6272Y10623D01*
X6323D01*
X6348Y10597D01*
Y10572D01*
X6323Y10546D01*
X6348Y10521D01*
Y10496D01*
X6323Y10470D01*
X6272D01*
X6247Y10496D01*
Y10521D01*
X6272Y10546D01*
X6247Y10572D01*
Y10597D01*
X6272Y10546D02*
X6323D01*
X6399Y10470D02*
Y10572D01*
X6424D01*
X6450Y10546D01*
Y10470D01*
Y10546D01*
X6475Y10572D01*
X6501Y10546D01*
Y10470D01*
X6551D02*
X6602D01*
X6577D01*
Y10572D01*
X6551D01*
X6678Y10470D02*
X6729D01*
X6704D01*
Y10623D01*
X6678D01*
X5917Y10927D02*
X5866Y10902D01*
X5815Y10851D01*
Y10800D01*
X5840Y10775D01*
X5891D01*
X5917Y10800D01*
Y10826D01*
X5891Y10851D01*
X5815D01*
X5993Y10750D02*
X6018Y10775D01*
Y10800D01*
X5993D01*
Y10775D01*
X6018D01*
X5993Y10750D01*
X5967Y10724D01*
X6120Y10902D02*
X6145Y10927D01*
X6196D01*
X6221Y10902D01*
Y10800D01*
X6196Y10775D01*
X6145D01*
X6120Y10800D01*
Y10902D01*
X6272D02*
X6297Y10927D01*
X6348D01*
X6374Y10902D01*
Y10800D01*
X6348Y10775D01*
X6297D01*
X6272Y10800D01*
Y10902D01*
X6424Y10775D02*
Y10877D01*
X6450D01*
X6475Y10851D01*
Y10775D01*
Y10851D01*
X6501Y10877D01*
X6526Y10851D01*
Y10775D01*
X6577D02*
X6628D01*
X6602D01*
Y10877D01*
X6577D01*
X6704Y10775D02*
X6755D01*
X6729D01*
Y10927D01*
X6704D01*
X5815Y11080D02*
X5866D01*
X5840D01*
Y11232D01*
X5815Y11207D01*
X5967Y11054D02*
X5993Y11080D01*
Y11105D01*
X5967D01*
Y11080D01*
X5993D01*
X5967Y11054D01*
X5942Y11029D01*
X6171Y11080D02*
Y11232D01*
X6094Y11156D01*
X6196D01*
X6247Y11207D02*
X6272Y11232D01*
X6323D01*
X6348Y11207D01*
Y11105D01*
X6323Y11080D01*
X6272D01*
X6247Y11105D01*
Y11207D01*
X6399Y11080D02*
Y11181D01*
X6424D01*
X6450Y11156D01*
Y11080D01*
Y11156D01*
X6475Y11181D01*
X6501Y11156D01*
Y11080D01*
X6551D02*
X6602D01*
X6577D01*
Y11181D01*
X6551D01*
X6678Y11080D02*
X6729D01*
X6704D01*
Y11232D01*
X6678D01*
X5815Y11512D02*
X5840Y11537D01*
X5891D01*
X5917Y11512D01*
Y11410D01*
X5891Y11385D01*
X5840D01*
X5815Y11410D01*
Y11512D01*
X5993Y11359D02*
X6018Y11385D01*
Y11410D01*
X5993D01*
Y11385D01*
X6018D01*
X5993Y11359D01*
X5967Y11334D01*
X6196Y11385D02*
Y11537D01*
X6120Y11461D01*
X6221D01*
X6272Y11512D02*
X6297Y11537D01*
X6348D01*
X6374Y11512D01*
Y11410D01*
X6348Y11385D01*
X6297D01*
X6272Y11410D01*
Y11512D01*
X6424Y11385D02*
Y11486D01*
X6450D01*
X6475Y11461D01*
Y11385D01*
Y11461D01*
X6501Y11486D01*
X6526Y11461D01*
Y11385D01*
X6577D02*
X6628D01*
X6602D01*
Y11486D01*
X6577D01*
X6704Y11385D02*
X6755D01*
X6729D01*
Y11537D01*
X6704D01*
X7567Y12121D02*
X7542Y12147D01*
X7491D01*
X7466Y12121D01*
Y12020D01*
X7491Y11994D01*
X7542D01*
X7567Y12020D01*
X7643Y11994D02*
X7694D01*
X7720Y12020D01*
Y12070D01*
X7694Y12096D01*
X7643D01*
X7618Y12070D01*
Y12020D01*
X7643Y11994D01*
X7770D02*
Y12096D01*
X7846D01*
X7872Y12070D01*
Y11994D01*
X7923D02*
X7999D01*
X8024Y12020D01*
X7999Y12045D01*
X7948D01*
X7923Y12070D01*
X7948Y12096D01*
X8024D01*
X8100Y12121D02*
Y12096D01*
X8075D01*
X8126D01*
X8100D01*
Y12020D01*
X8126Y11994D01*
X8227Y12096D02*
X8278D01*
X8304Y12070D01*
Y11994D01*
X8227D01*
X8202Y12020D01*
X8227Y12045D01*
X8304D01*
X8354Y11994D02*
Y12096D01*
X8431D01*
X8456Y12070D01*
Y11994D01*
X8532Y12121D02*
Y12096D01*
X8507D01*
X8557D01*
X8532D01*
Y12020D01*
X8557Y11994D01*
X7466Y9073D02*
X7491Y9099D01*
X7542D01*
X7567Y9073D01*
Y9048D01*
X7542Y9022D01*
X7516D01*
X7542D01*
X7567Y8997D01*
Y8972D01*
X7542Y8946D01*
X7491D01*
X7466Y8972D01*
X7643Y8921D02*
X7669Y8946D01*
Y8972D01*
X7643D01*
Y8946D01*
X7669D01*
X7643Y8921D01*
X7618Y8895D01*
X7872Y9099D02*
X7770D01*
Y9022D01*
X7821Y9048D01*
X7846D01*
X7872Y9022D01*
Y8972D01*
X7846Y8946D01*
X7796D01*
X7770Y8972D01*
X7542Y9556D02*
Y9708D01*
X7466Y9632D01*
X7567D01*
X7643Y9530D02*
X7669Y9556D01*
Y9581D01*
X7643D01*
Y9556D01*
X7669D01*
X7643Y9530D01*
X7618Y9505D01*
X7770Y9683D02*
X7796Y9708D01*
X7846D01*
X7872Y9683D01*
Y9657D01*
X7846Y9632D01*
X7821D01*
X7846D01*
X7872Y9607D01*
Y9581D01*
X7846Y9556D01*
X7796D01*
X7770Y9581D01*
X7542Y10165D02*
Y10318D01*
X7466Y10242D01*
X7567D01*
X7643Y10140D02*
X7669Y10165D01*
Y10191D01*
X7643D01*
Y10165D01*
X7669D01*
X7643Y10140D01*
X7618Y10115D01*
X7770Y10292D02*
X7796Y10318D01*
X7846D01*
X7872Y10292D01*
Y10267D01*
X7846Y10242D01*
X7872Y10216D01*
Y10191D01*
X7846Y10165D01*
X7796D01*
X7770Y10191D01*
Y10216D01*
X7796Y10242D01*
X7770Y10267D01*
Y10292D01*
X7796Y10242D02*
X7846D01*
X7542Y10775D02*
Y10927D01*
X7466Y10851D01*
X7567D01*
X7643Y10750D02*
X7669Y10775D01*
Y10800D01*
X7643D01*
Y10775D01*
X7669D01*
X7643Y10750D01*
X7618Y10724D01*
X7770Y10902D02*
X7796Y10927D01*
X7846D01*
X7872Y10902D01*
Y10877D01*
X7846Y10851D01*
X7821D01*
X7846D01*
X7872Y10826D01*
Y10800D01*
X7846Y10775D01*
X7796D01*
X7770Y10800D01*
X7466Y11512D02*
X7491Y11537D01*
X7542D01*
X7567Y11512D01*
Y11486D01*
X7542Y11461D01*
X7516D01*
X7542D01*
X7567Y11435D01*
Y11410D01*
X7542Y11385D01*
X7491D01*
X7466Y11410D01*
X7643Y11359D02*
X7669Y11385D01*
Y11410D01*
X7643D01*
Y11385D01*
X7669D01*
X7643Y11359D01*
X7618Y11334D01*
X7872Y11537D02*
X7770D01*
Y11461D01*
X7821Y11486D01*
X7846D01*
X7872Y11461D01*
Y11410D01*
X7846Y11385D01*
X7796D01*
X7770Y11410D01*
X8913Y12147D02*
Y11994D01*
X8989D01*
X9015Y12020D01*
Y12045D01*
X8989Y12070D01*
X8913D01*
X8989D01*
X9015Y12096D01*
Y12121D01*
X8989Y12147D01*
X8913D01*
X9091Y11994D02*
X9142D01*
X9167Y12020D01*
Y12070D01*
X9142Y12096D01*
X9091D01*
X9065Y12070D01*
Y12020D01*
X9091Y11994D01*
X9243Y12096D02*
X9294D01*
X9319Y12070D01*
Y11994D01*
X9243D01*
X9218Y12020D01*
X9243Y12045D01*
X9319D01*
X9370Y12096D02*
Y11994D01*
Y12045D01*
X9396Y12070D01*
X9421Y12096D01*
X9446D01*
X9624Y12147D02*
Y11994D01*
X9548D01*
X9522Y12020D01*
Y12070D01*
X9548Y12096D01*
X9624D01*
X9827Y12147D02*
Y11994D01*
X9929D01*
X10005Y12096D02*
X10056D01*
X10081Y12070D01*
Y11994D01*
X10005D01*
X9980Y12020D01*
X10005Y12045D01*
X10081D01*
X10132Y12096D02*
Y12020D01*
X10157Y11994D01*
X10233D01*
Y11969D01*
X10208Y11943D01*
X10183D01*
X10233Y11994D02*
Y12096D01*
X10360Y11994D02*
X10310D01*
X10284Y12020D01*
Y12070D01*
X10310Y12096D01*
X10360D01*
X10386Y12070D01*
Y12045D01*
X10284D01*
X10437Y12096D02*
Y11994D01*
Y12045D01*
X10462Y12070D01*
X10487Y12096D01*
X10513D01*
X10843Y12121D02*
X10817Y12147D01*
X10767D01*
X10741Y12121D01*
Y12096D01*
X10767Y12070D01*
X10817D01*
X10843Y12045D01*
Y12020D01*
X10817Y11994D01*
X10767D01*
X10741Y12020D01*
X10919Y12121D02*
Y12096D01*
X10894D01*
X10944D01*
X10919D01*
Y12020D01*
X10944Y11994D01*
X11046Y12096D02*
X11097D01*
X11122Y12070D01*
Y11994D01*
X11046D01*
X11021Y12020D01*
X11046Y12045D01*
X11122D01*
X11274Y12096D02*
X11198D01*
X11173Y12070D01*
Y12020D01*
X11198Y11994D01*
X11274D01*
X11325D02*
Y12147D01*
Y12045D02*
X11401Y12096D01*
X11325Y12045D02*
X11401Y11994D01*
X203Y12147D02*
Y11994D01*
X305D01*
X381Y12096D02*
X432D01*
X457Y12070D01*
Y11994D01*
X381D01*
X356Y12020D01*
X381Y12045D01*
X457D01*
X508Y12096D02*
Y12020D01*
X534Y11994D01*
X610D01*
Y11969D01*
X584Y11943D01*
X559D01*
X610Y11994D02*
Y12096D01*
X737Y11994D02*
X686D01*
X661Y12020D01*
Y12070D01*
X686Y12096D01*
X737D01*
X762Y12070D01*
Y12045D01*
X661D01*
X813Y12096D02*
Y11994D01*
Y12045D01*
X838Y12070D01*
X864Y12096D01*
X889D01*
X280Y9251D02*
Y9403D01*
X203Y9327D01*
X305D01*
X203Y9988D02*
X229Y10013D01*
X280D01*
X305Y9988D01*
Y9962D01*
X280Y9937D01*
X254D01*
X280D01*
X305Y9911D01*
Y9886D01*
X280Y9861D01*
X229D01*
X203Y9886D01*
X305Y10470D02*
X203D01*
X305Y10572D01*
Y10597D01*
X280Y10623D01*
X229D01*
X203Y10597D01*
Y11080D02*
X254D01*
X229D01*
Y11232D01*
X203Y11207D01*
X1245Y11994D02*
Y12147D01*
X1346Y11994D01*
Y12147D01*
X1422Y12096D02*
X1473D01*
X1499Y12070D01*
Y11994D01*
X1422D01*
X1397Y12020D01*
X1422Y12045D01*
X1499D01*
X1549Y11994D02*
Y12096D01*
X1575D01*
X1600Y12070D01*
Y11994D01*
Y12070D01*
X1626Y12096D01*
X1651Y12070D01*
Y11994D01*
X1778D02*
X1727D01*
X1702Y12020D01*
Y12070D01*
X1727Y12096D01*
X1778D01*
X1803Y12070D01*
Y12045D01*
X1702D01*
X1245Y8794D02*
Y8641D01*
X1321D01*
X1346Y8667D01*
Y8692D01*
X1321Y8718D01*
X1245D01*
X1321D01*
X1346Y8743D01*
Y8768D01*
X1321Y8794D01*
X1245D01*
X1422Y8641D02*
X1473D01*
X1499Y8667D01*
Y8718D01*
X1473Y8743D01*
X1422D01*
X1397Y8718D01*
Y8667D01*
X1422Y8641D01*
X1575Y8768D02*
Y8743D01*
X1549D01*
X1600D01*
X1575D01*
Y8667D01*
X1600Y8641D01*
X1702Y8768D02*
Y8743D01*
X1676D01*
X1727D01*
X1702D01*
Y8667D01*
X1727Y8641D01*
X1829D02*
X1879D01*
X1905Y8667D01*
Y8718D01*
X1879Y8743D01*
X1829D01*
X1803Y8718D01*
Y8667D01*
X1829Y8641D01*
X1956D02*
Y8743D01*
X1981D01*
X2006Y8718D01*
Y8641D01*
Y8718D01*
X2032Y8743D01*
X2057Y8718D01*
Y8641D01*
X2337Y8794D02*
X2286D01*
X2260Y8768D01*
Y8667D01*
X2286Y8641D01*
X2337D01*
X2362Y8667D01*
Y8768D01*
X2337Y8794D01*
X2413Y8743D02*
X2463Y8641D01*
X2514Y8743D01*
X2641Y8641D02*
X2590D01*
X2565Y8667D01*
Y8718D01*
X2590Y8743D01*
X2641D01*
X2667Y8718D01*
Y8692D01*
X2565D01*
X2717Y8743D02*
Y8641D01*
Y8692D01*
X2743Y8718D01*
X2768Y8743D01*
X2794D01*
X2870Y8641D02*
X2921D01*
X2895D01*
Y8794D01*
X2870D01*
X3022Y8743D02*
X3073D01*
X3098Y8718D01*
Y8641D01*
X3022D01*
X2997Y8667D01*
X3022Y8692D01*
X3098D01*
X3149Y8743D02*
Y8667D01*
X3174Y8641D01*
X3251D01*
Y8616D01*
X3225Y8591D01*
X3200D01*
X3251Y8641D02*
Y8743D01*
X1245Y9099D02*
Y8946D01*
X1321D01*
X1346Y8972D01*
Y8997D01*
X1321Y9022D01*
X1245D01*
X1321D01*
X1346Y9048D01*
Y9073D01*
X1321Y9099D01*
X1245D01*
X1422Y8946D02*
X1473D01*
X1499Y8972D01*
Y9022D01*
X1473Y9048D01*
X1422D01*
X1397Y9022D01*
Y8972D01*
X1422Y8946D01*
X1575Y9073D02*
Y9048D01*
X1549D01*
X1600D01*
X1575D01*
Y8972D01*
X1600Y8946D01*
X1702Y9073D02*
Y9048D01*
X1676D01*
X1727D01*
X1702D01*
Y8972D01*
X1727Y8946D01*
X1829D02*
X1879D01*
X1905Y8972D01*
Y9022D01*
X1879Y9048D01*
X1829D01*
X1803Y9022D01*
Y8972D01*
X1829Y8946D01*
X1956D02*
Y9048D01*
X1981D01*
X2006Y9022D01*
Y8946D01*
Y9022D01*
X2032Y9048D01*
X2057Y9022D01*
Y8946D01*
X2362Y9073D02*
X2337Y9099D01*
X2286D01*
X2260Y9073D01*
Y9048D01*
X2286Y9022D01*
X2337D01*
X2362Y8997D01*
Y8972D01*
X2337Y8946D01*
X2286D01*
X2260Y8972D01*
X2438Y8946D02*
X2489D01*
X2514Y8972D01*
Y9022D01*
X2489Y9048D01*
X2438D01*
X2413Y9022D01*
Y8972D01*
X2438Y8946D01*
X2565D02*
X2616D01*
X2590D01*
Y9099D01*
X2565D01*
X2794D02*
Y8946D01*
X2717D01*
X2692Y8972D01*
Y9022D01*
X2717Y9048D01*
X2794D01*
X2921Y8946D02*
X2870D01*
X2844Y8972D01*
Y9022D01*
X2870Y9048D01*
X2921D01*
X2946Y9022D01*
Y8997D01*
X2844D01*
X2997Y9048D02*
Y8946D01*
Y8997D01*
X3022Y9022D01*
X3047Y9048D01*
X3073D01*
X1245Y9403D02*
Y9251D01*
X1321D01*
X1346Y9276D01*
Y9302D01*
X1321Y9327D01*
X1245D01*
X1321D01*
X1346Y9353D01*
Y9378D01*
X1321Y9403D01*
X1245D01*
X1422Y9251D02*
X1473D01*
X1499Y9276D01*
Y9327D01*
X1473Y9353D01*
X1422D01*
X1397Y9327D01*
Y9276D01*
X1422Y9251D01*
X1575Y9378D02*
Y9353D01*
X1549D01*
X1600D01*
X1575D01*
Y9276D01*
X1600Y9251D01*
X1702Y9378D02*
Y9353D01*
X1676D01*
X1727D01*
X1702D01*
Y9276D01*
X1727Y9251D01*
X1829D02*
X1879D01*
X1905Y9276D01*
Y9327D01*
X1879Y9353D01*
X1829D01*
X1803Y9327D01*
Y9276D01*
X1829Y9251D01*
X1956D02*
Y9353D01*
X1981D01*
X2006Y9327D01*
Y9251D01*
Y9327D01*
X2032Y9353D01*
X2057Y9327D01*
Y9251D01*
X2260Y9403D02*
Y9251D01*
X2362D01*
X2438Y9353D02*
X2489D01*
X2514Y9327D01*
Y9251D01*
X2438D01*
X2413Y9276D01*
X2438Y9302D01*
X2514D01*
X2565Y9353D02*
Y9276D01*
X2590Y9251D01*
X2667D01*
Y9226D01*
X2641Y9200D01*
X2616D01*
X2667Y9251D02*
Y9353D01*
X2794Y9251D02*
X2743D01*
X2717Y9276D01*
Y9327D01*
X2743Y9353D01*
X2794D01*
X2819Y9327D01*
Y9302D01*
X2717D01*
X2870Y9353D02*
Y9251D01*
Y9302D01*
X2895Y9327D01*
X2921Y9353D01*
X2946D01*
X1245Y9708D02*
Y9556D01*
X1321D01*
X1346Y9581D01*
Y9683D01*
X1321Y9708D01*
X1245D01*
X1397Y9556D02*
X1448D01*
X1422D01*
Y9657D01*
X1397D01*
X1600Y9556D02*
X1549D01*
X1524Y9581D01*
Y9632D01*
X1549Y9657D01*
X1600D01*
X1626Y9632D01*
Y9607D01*
X1524D01*
X1676Y9556D02*
X1727D01*
X1702D01*
Y9708D01*
X1676D01*
X1879Y9556D02*
X1829D01*
X1803Y9581D01*
Y9632D01*
X1829Y9657D01*
X1879D01*
X1905Y9632D01*
Y9607D01*
X1803D01*
X2057Y9657D02*
X1981D01*
X1956Y9632D01*
Y9581D01*
X1981Y9556D01*
X2057D01*
X2133Y9683D02*
Y9657D01*
X2108D01*
X2159D01*
X2133D01*
Y9581D01*
X2159Y9556D01*
X2235Y9657D02*
Y9556D01*
Y9607D01*
X2260Y9632D01*
X2286Y9657D01*
X2311D01*
X2387Y9556D02*
X2438D01*
X2413D01*
Y9657D01*
X2387D01*
X2616D02*
X2540D01*
X2514Y9632D01*
Y9581D01*
X2540Y9556D01*
X2616D01*
X2819Y9683D02*
X2844Y9708D01*
X2895D01*
X2921Y9683D01*
Y9657D01*
X2895Y9632D01*
X2870D01*
X2895D01*
X2921Y9607D01*
Y9581D01*
X2895Y9556D01*
X2844D01*
X2819Y9581D01*
X1245Y10013D02*
Y9861D01*
X1346D01*
X1397Y9988D02*
X1422Y10013D01*
X1473D01*
X1499Y9988D01*
Y9962D01*
X1473Y9937D01*
X1448D01*
X1473D01*
X1499Y9911D01*
Y9886D01*
X1473Y9861D01*
X1422D01*
X1397Y9886D01*
X1245Y10318D02*
Y10165D01*
X1321D01*
X1346Y10191D01*
Y10292D01*
X1321Y10318D01*
X1245D01*
X1397Y10165D02*
X1448D01*
X1422D01*
Y10267D01*
X1397D01*
X1600Y10165D02*
X1549D01*
X1524Y10191D01*
Y10242D01*
X1549Y10267D01*
X1600D01*
X1626Y10242D01*
Y10216D01*
X1524D01*
X1676Y10165D02*
X1727D01*
X1702D01*
Y10318D01*
X1676D01*
X1879Y10165D02*
X1829D01*
X1803Y10191D01*
Y10242D01*
X1829Y10267D01*
X1879D01*
X1905Y10242D01*
Y10216D01*
X1803D01*
X2057Y10267D02*
X1981D01*
X1956Y10242D01*
Y10191D01*
X1981Y10165D01*
X2057D01*
X2133Y10292D02*
Y10267D01*
X2108D01*
X2159D01*
X2133D01*
Y10191D01*
X2159Y10165D01*
X2235Y10267D02*
Y10165D01*
Y10216D01*
X2260Y10242D01*
X2286Y10267D01*
X2311D01*
X2387Y10165D02*
X2438D01*
X2413D01*
Y10267D01*
X2387D01*
X2616D02*
X2540D01*
X2514Y10242D01*
Y10191D01*
X2540Y10165D01*
X2616D01*
X2819D02*
X2870D01*
X2844D01*
Y10318D01*
X2819Y10292D01*
X1245Y10623D02*
Y10470D01*
X1346D01*
X1499D02*
X1397D01*
X1499Y10572D01*
Y10597D01*
X1473Y10623D01*
X1422D01*
X1397Y10597D01*
X1245Y10927D02*
Y10775D01*
X1321D01*
X1346Y10800D01*
Y10902D01*
X1321Y10927D01*
X1245D01*
X1397Y10775D02*
X1448D01*
X1422D01*
Y10877D01*
X1397D01*
X1600Y10775D02*
X1549D01*
X1524Y10800D01*
Y10851D01*
X1549Y10877D01*
X1600D01*
X1626Y10851D01*
Y10826D01*
X1524D01*
X1676Y10775D02*
X1727D01*
X1702D01*
Y10927D01*
X1676D01*
X1879Y10775D02*
X1829D01*
X1803Y10800D01*
Y10851D01*
X1829Y10877D01*
X1879D01*
X1905Y10851D01*
Y10826D01*
X1803D01*
X2057Y10877D02*
X1981D01*
X1956Y10851D01*
Y10800D01*
X1981Y10775D01*
X2057D01*
X2133Y10902D02*
Y10877D01*
X2108D01*
X2159D01*
X2133D01*
Y10800D01*
X2159Y10775D01*
X2235Y10877D02*
Y10775D01*
Y10826D01*
X2260Y10851D01*
X2286Y10877D01*
X2311D01*
X2387Y10775D02*
X2438D01*
X2413D01*
Y10877D01*
X2387D01*
X2616D02*
X2540D01*
X2514Y10851D01*
Y10800D01*
X2540Y10775D01*
X2616D01*
X2921D02*
X2819D01*
X2921Y10877D01*
Y10902D01*
X2895Y10927D01*
X2844D01*
X2819Y10902D01*
X1245Y11232D02*
X1346D01*
X1295D01*
Y11080D01*
X1422D02*
X1473D01*
X1499Y11105D01*
Y11156D01*
X1473Y11181D01*
X1422D01*
X1397Y11156D01*
Y11105D01*
X1422Y11080D01*
X1549Y11029D02*
Y11181D01*
X1626D01*
X1651Y11156D01*
Y11105D01*
X1626Y11080D01*
X1549D01*
X1854Y11232D02*
Y11080D01*
X1956D01*
X2032Y11181D02*
X2083D01*
X2108Y11156D01*
Y11080D01*
X2032D01*
X2006Y11105D01*
X2032Y11131D01*
X2108D01*
X2159Y11181D02*
Y11105D01*
X2184Y11080D01*
X2260D01*
Y11054D01*
X2235Y11029D01*
X2210D01*
X2260Y11080D02*
Y11181D01*
X2387Y11080D02*
X2337D01*
X2311Y11105D01*
Y11156D01*
X2337Y11181D01*
X2387D01*
X2413Y11156D01*
Y11131D01*
X2311D01*
X2463Y11181D02*
Y11080D01*
Y11131D01*
X2489Y11156D01*
X2514Y11181D01*
X2540D01*
X1245Y11537D02*
X1346D01*
X1295D01*
Y11385D01*
X1422D02*
X1473D01*
X1499Y11410D01*
Y11461D01*
X1473Y11486D01*
X1422D01*
X1397Y11461D01*
Y11410D01*
X1422Y11385D01*
X1549Y11334D02*
Y11486D01*
X1626D01*
X1651Y11461D01*
Y11410D01*
X1626Y11385D01*
X1549D01*
X1956Y11512D02*
X1930Y11537D01*
X1879D01*
X1854Y11512D01*
Y11486D01*
X1879Y11461D01*
X1930D01*
X1956Y11435D01*
Y11410D01*
X1930Y11385D01*
X1879D01*
X1854Y11410D01*
X2032Y11385D02*
X2083D01*
X2108Y11410D01*
Y11461D01*
X2083Y11486D01*
X2032D01*
X2006Y11461D01*
Y11410D01*
X2032Y11385D01*
X2159D02*
X2210D01*
X2184D01*
Y11537D01*
X2159D01*
X2387D02*
Y11385D01*
X2311D01*
X2286Y11410D01*
Y11461D01*
X2311Y11486D01*
X2387D01*
X2514Y11385D02*
X2463D01*
X2438Y11410D01*
Y11461D01*
X2463Y11486D01*
X2514D01*
X2540Y11461D01*
Y11435D01*
X2438D01*
X2590Y11486D02*
Y11385D01*
Y11435D01*
X2616Y11461D01*
X2641Y11486D01*
X2667D01*
X1245Y11842D02*
X1346D01*
X1295D01*
Y11689D01*
X1422D02*
X1473D01*
X1499Y11715D01*
Y11766D01*
X1473Y11791D01*
X1422D01*
X1397Y11766D01*
Y11715D01*
X1422Y11689D01*
X1549Y11639D02*
Y11791D01*
X1626D01*
X1651Y11766D01*
Y11715D01*
X1626Y11689D01*
X1549D01*
X1930Y11842D02*
X1879D01*
X1854Y11816D01*
Y11715D01*
X1879Y11689D01*
X1930D01*
X1956Y11715D01*
Y11816D01*
X1930Y11842D01*
X2006Y11791D02*
X2057Y11689D01*
X2108Y11791D01*
X2235Y11689D02*
X2184D01*
X2159Y11715D01*
Y11766D01*
X2184Y11791D01*
X2235D01*
X2260Y11766D01*
Y11740D01*
X2159D01*
X2311Y11791D02*
Y11689D01*
Y11740D01*
X2337Y11766D01*
X2362Y11791D01*
X2387D01*
X2463Y11689D02*
X2514D01*
X2489D01*
Y11842D01*
X2463D01*
X2616Y11791D02*
X2667D01*
X2692Y11766D01*
Y11689D01*
X2616D01*
X2590Y11715D01*
X2616Y11740D01*
X2692D01*
X2743Y11791D02*
Y11715D01*
X2768Y11689D01*
X2844D01*
Y11664D01*
X2819Y11639D01*
X2794D01*
X2844Y11689D02*
Y11791D01*
X3606Y11994D02*
Y12147D01*
X3657Y12096D01*
X3708Y12147D01*
Y11994D01*
X3784Y12096D02*
X3835D01*
X3860Y12070D01*
Y11994D01*
X3784D01*
X3759Y12020D01*
X3784Y12045D01*
X3860D01*
X3936Y12121D02*
Y12096D01*
X3911D01*
X3962D01*
X3936D01*
Y12020D01*
X3962Y11994D01*
X4114D02*
X4063D01*
X4038Y12020D01*
Y12070D01*
X4063Y12096D01*
X4114D01*
X4139Y12070D01*
Y12045D01*
X4038D01*
X4190Y12096D02*
Y11994D01*
Y12045D01*
X4216Y12070D01*
X4241Y12096D01*
X4266D01*
X4343Y11994D02*
X4393D01*
X4368D01*
Y12096D01*
X4343D01*
X4495D02*
X4546D01*
X4571Y12070D01*
Y11994D01*
X4495D01*
X4470Y12020D01*
X4495Y12045D01*
X4571D01*
X4622Y11994D02*
X4673D01*
X4647D01*
Y12147D01*
X4622D01*
X3708Y9073D02*
X3682Y9099D01*
X3632D01*
X3606Y9073D01*
Y9048D01*
X3632Y9022D01*
X3682D01*
X3708Y8997D01*
Y8972D01*
X3682Y8946D01*
X3632D01*
X3606Y8972D01*
X3784Y8946D02*
X3835D01*
X3860Y8972D01*
Y9022D01*
X3835Y9048D01*
X3784D01*
X3759Y9022D01*
Y8972D01*
X3784Y8946D01*
X3911D02*
X3962D01*
X3936D01*
Y9099D01*
X3911D01*
X4139D02*
Y8946D01*
X4063D01*
X4038Y8972D01*
Y9022D01*
X4063Y9048D01*
X4139D01*
X4266Y8946D02*
X4216D01*
X4190Y8972D01*
Y9022D01*
X4216Y9048D01*
X4266D01*
X4292Y9022D01*
Y8997D01*
X4190D01*
X4343Y9048D02*
Y8946D01*
Y8997D01*
X4368Y9022D01*
X4393Y9048D01*
X4419D01*
X4647Y8946D02*
Y9099D01*
X4723D01*
X4749Y9073D01*
Y9022D01*
X4723Y8997D01*
X4647D01*
X4698D02*
X4749Y8946D01*
X4876D02*
X4825D01*
X4800Y8972D01*
Y9022D01*
X4825Y9048D01*
X4876D01*
X4901Y9022D01*
Y8997D01*
X4800D01*
X4952Y8946D02*
X5028D01*
X5054Y8972D01*
X5028Y8997D01*
X4977D01*
X4952Y9022D01*
X4977Y9048D01*
X5054D01*
X5104Y8946D02*
X5155D01*
X5130D01*
Y9048D01*
X5104D01*
X5231Y8946D02*
X5307D01*
X5333Y8972D01*
X5307Y8997D01*
X5257D01*
X5231Y9022D01*
X5257Y9048D01*
X5333D01*
X5409Y9073D02*
Y9048D01*
X5384D01*
X5434D01*
X5409D01*
Y8972D01*
X5434Y8946D01*
X3708Y9378D02*
X3682Y9403D01*
X3632D01*
X3606Y9378D01*
Y9276D01*
X3632Y9251D01*
X3682D01*
X3708Y9276D01*
X3784Y9251D02*
X3835D01*
X3860Y9276D01*
Y9327D01*
X3835Y9353D01*
X3784D01*
X3759Y9327D01*
Y9276D01*
X3784Y9251D01*
X3911Y9200D02*
Y9353D01*
X3987D01*
X4012Y9327D01*
Y9276D01*
X3987Y9251D01*
X3911D01*
X4063Y9200D02*
Y9353D01*
X4139D01*
X4165Y9327D01*
Y9276D01*
X4139Y9251D01*
X4063D01*
X4292D02*
X4241D01*
X4216Y9276D01*
Y9327D01*
X4241Y9353D01*
X4292D01*
X4317Y9327D01*
Y9302D01*
X4216D01*
X4368Y9353D02*
Y9251D01*
Y9302D01*
X4393Y9327D01*
X4419Y9353D01*
X4444D01*
X3606Y9556D02*
Y9708D01*
X3682D01*
X3708Y9683D01*
Y9632D01*
X3682Y9607D01*
X3606D01*
X3759Y9556D02*
Y9708D01*
X3835D01*
X3860Y9683D01*
Y9632D01*
X3835Y9607D01*
X3759D01*
X3911Y9632D02*
X4012D01*
X4063Y9683D02*
X4089Y9708D01*
X4139D01*
X4165Y9683D01*
Y9581D01*
X4139Y9556D01*
X4089D01*
X4063Y9581D01*
Y9683D01*
X4216Y9556D02*
X4266D01*
X4241D01*
Y9708D01*
X4216Y9683D01*
X4343D02*
X4368Y9708D01*
X4419D01*
X4444Y9683D01*
Y9657D01*
X4419Y9632D01*
X4444Y9607D01*
Y9581D01*
X4419Y9556D01*
X4368D01*
X4343Y9581D01*
Y9607D01*
X4368Y9632D01*
X4343Y9657D01*
Y9683D01*
X4368Y9632D02*
X4419D01*
X3708Y9988D02*
X3682Y10013D01*
X3632D01*
X3606Y9988D01*
Y9886D01*
X3632Y9861D01*
X3682D01*
X3708Y9886D01*
X3784Y9861D02*
X3835D01*
X3860Y9886D01*
Y9937D01*
X3835Y9962D01*
X3784D01*
X3759Y9937D01*
Y9886D01*
X3784Y9861D01*
X3911Y9810D02*
Y9962D01*
X3987D01*
X4012Y9937D01*
Y9886D01*
X3987Y9861D01*
X3911D01*
X4063Y9810D02*
Y9962D01*
X4139D01*
X4165Y9937D01*
Y9886D01*
X4139Y9861D01*
X4063D01*
X4292D02*
X4241D01*
X4216Y9886D01*
Y9937D01*
X4241Y9962D01*
X4292D01*
X4317Y9937D01*
Y9911D01*
X4216D01*
X4368Y9962D02*
Y9861D01*
Y9911D01*
X4393Y9937D01*
X4419Y9962D01*
X4444D01*
X3708Y10318D02*
X3606D01*
Y10242D01*
X3657D01*
X3606D01*
Y10165D01*
X3759D02*
Y10318D01*
X3835D01*
X3860Y10292D01*
Y10242D01*
X3835Y10216D01*
X3759D01*
X3809D02*
X3860Y10165D01*
X3911Y10242D02*
X4012D01*
X4139Y10165D02*
Y10318D01*
X4063Y10242D01*
X4165D01*
X3708Y10597D02*
X3682Y10623D01*
X3632D01*
X3606Y10597D01*
Y10496D01*
X3632Y10470D01*
X3682D01*
X3708Y10496D01*
X3784Y10470D02*
X3835D01*
X3860Y10496D01*
Y10546D01*
X3835Y10572D01*
X3784D01*
X3759Y10546D01*
Y10496D01*
X3784Y10470D01*
X3911Y10419D02*
Y10572D01*
X3987D01*
X4012Y10546D01*
Y10496D01*
X3987Y10470D01*
X3911D01*
X4063Y10419D02*
Y10572D01*
X4139D01*
X4165Y10546D01*
Y10496D01*
X4139Y10470D01*
X4063D01*
X4292D02*
X4241D01*
X4216Y10496D01*
Y10546D01*
X4241Y10572D01*
X4292D01*
X4317Y10546D01*
Y10521D01*
X4216D01*
X4368Y10572D02*
Y10470D01*
Y10521D01*
X4393Y10546D01*
X4419Y10572D01*
X4444D01*
X3606Y10775D02*
Y10927D01*
X3682D01*
X3708Y10902D01*
Y10851D01*
X3682Y10826D01*
X3606D01*
X3759Y10775D02*
Y10927D01*
X3835D01*
X3860Y10902D01*
Y10851D01*
X3835Y10826D01*
X3759D01*
X3911Y10851D02*
X4012D01*
X4063Y10902D02*
X4089Y10927D01*
X4139D01*
X4165Y10902D01*
Y10800D01*
X4139Y10775D01*
X4089D01*
X4063Y10800D01*
Y10902D01*
X4216Y10775D02*
X4266D01*
X4241D01*
Y10927D01*
X4216Y10902D01*
X4343D02*
X4368Y10927D01*
X4419D01*
X4444Y10902D01*
Y10877D01*
X4419Y10851D01*
X4444Y10826D01*
Y10800D01*
X4419Y10775D01*
X4368D01*
X4343Y10800D01*
Y10826D01*
X4368Y10851D01*
X4343Y10877D01*
Y10902D01*
X4368Y10851D02*
X4419D01*
X3708Y11207D02*
X3682Y11232D01*
X3632D01*
X3606Y11207D01*
Y11105D01*
X3632Y11080D01*
X3682D01*
X3708Y11105D01*
X3784Y11080D02*
X3835D01*
X3860Y11105D01*
Y11156D01*
X3835Y11181D01*
X3784D01*
X3759Y11156D01*
Y11105D01*
X3784Y11080D01*
X3911Y11029D02*
Y11181D01*
X3987D01*
X4012Y11156D01*
Y11105D01*
X3987Y11080D01*
X3911D01*
X4063Y11029D02*
Y11181D01*
X4139D01*
X4165Y11156D01*
Y11105D01*
X4139Y11080D01*
X4063D01*
X4292D02*
X4241D01*
X4216Y11105D01*
Y11156D01*
X4241Y11181D01*
X4292D01*
X4317Y11156D01*
Y11131D01*
X4216D01*
X4368Y11181D02*
Y11080D01*
Y11131D01*
X4393Y11156D01*
X4419Y11181D01*
X4444D01*
X3708Y11512D02*
X3682Y11537D01*
X3632D01*
X3606Y11512D01*
Y11486D01*
X3632Y11461D01*
X3682D01*
X3708Y11435D01*
Y11410D01*
X3682Y11385D01*
X3632D01*
X3606Y11410D01*
X3784Y11385D02*
X3835D01*
X3860Y11410D01*
Y11461D01*
X3835Y11486D01*
X3784D01*
X3759Y11461D01*
Y11410D01*
X3784Y11385D01*
X3911D02*
X3962D01*
X3936D01*
Y11537D01*
X3911D01*
X4139D02*
Y11385D01*
X4063D01*
X4038Y11410D01*
Y11461D01*
X4063Y11486D01*
X4139D01*
X4266Y11385D02*
X4216D01*
X4190Y11410D01*
Y11461D01*
X4216Y11486D01*
X4266D01*
X4292Y11461D01*
Y11435D01*
X4190D01*
X4343Y11486D02*
Y11385D01*
Y11435D01*
X4368Y11461D01*
X4393Y11486D01*
X4419D01*
X4647Y11385D02*
Y11537D01*
X4723D01*
X4749Y11512D01*
Y11461D01*
X4723Y11435D01*
X4647D01*
X4698D02*
X4749Y11385D01*
X4876D02*
X4825D01*
X4800Y11410D01*
Y11461D01*
X4825Y11486D01*
X4876D01*
X4901Y11461D01*
Y11435D01*
X4800D01*
X4952Y11385D02*
X5028D01*
X5054Y11410D01*
X5028Y11435D01*
X4977D01*
X4952Y11461D01*
X4977Y11486D01*
X5054D01*
X5104Y11385D02*
X5155D01*
X5130D01*
Y11486D01*
X5104D01*
X5231Y11385D02*
X5307D01*
X5333Y11410D01*
X5307Y11435D01*
X5257D01*
X5231Y11461D01*
X5257Y11486D01*
X5333D01*
X5409Y11512D02*
Y11486D01*
X5384D01*
X5434D01*
X5409D01*
Y11410D01*
X5434Y11385D01*
X5790Y12147D02*
X5892D01*
X5841D01*
Y11994D01*
X5942Y12147D02*
Y11994D01*
Y12070D01*
X5968Y12096D01*
X6019D01*
X6044Y12070D01*
Y11994D01*
X6095D02*
X6146D01*
X6120D01*
Y12096D01*
X6095D01*
X6323D02*
X6247D01*
X6222Y12070D01*
Y12020D01*
X6247Y11994D01*
X6323D01*
X6374D02*
Y12147D01*
Y12045D02*
X6450Y12096D01*
X6374Y12045D02*
X6450Y11994D01*
X6526D02*
Y12096D01*
X6603D01*
X6628Y12070D01*
Y11994D01*
X6755D02*
X6704D01*
X6679Y12020D01*
Y12070D01*
X6704Y12096D01*
X6755D01*
X6780Y12070D01*
Y12045D01*
X6679D01*
X6831Y11994D02*
X6907D01*
X6933Y12020D01*
X6907Y12045D01*
X6856D01*
X6831Y12070D01*
X6856Y12096D01*
X6933D01*
X6983Y11994D02*
X7060D01*
X7085Y12020D01*
X7060Y12045D01*
X7009D01*
X6983Y12070D01*
X7009Y12096D01*
X7085D01*
X5790Y9073D02*
X5815Y9099D01*
X5866D01*
X5892Y9073D01*
Y8972D01*
X5866Y8946D01*
X5815D01*
X5790Y8972D01*
Y9073D01*
X5968Y8921D02*
X5993Y8946D01*
Y8972D01*
X5968D01*
Y8946D01*
X5993D01*
X5968Y8921D01*
X5942Y8895D01*
X6171Y8946D02*
Y9099D01*
X6095Y9022D01*
X6196D01*
X6247Y9073D02*
X6272Y9099D01*
X6323D01*
X6349Y9073D01*
Y8972D01*
X6323Y8946D01*
X6272D01*
X6247Y8972D01*
Y9073D01*
X6399Y8946D02*
Y9048D01*
X6425D01*
X6450Y9022D01*
Y8946D01*
Y9022D01*
X6476Y9048D01*
X6501Y9022D01*
Y8946D01*
X6552D02*
X6603D01*
X6577D01*
Y9048D01*
X6552D01*
X6679Y8946D02*
X6730D01*
X6704D01*
Y9099D01*
X6679D01*
X5790Y9251D02*
X5841D01*
X5815D01*
Y9403D01*
X5790Y9378D01*
X5942Y9226D02*
X5968Y9251D01*
Y9276D01*
X5942D01*
Y9251D01*
X5968D01*
X5942Y9226D01*
X5917Y9200D01*
X6146Y9251D02*
Y9403D01*
X6069Y9327D01*
X6171D01*
X6222Y9378D02*
X6247Y9403D01*
X6298D01*
X6323Y9378D01*
Y9276D01*
X6298Y9251D01*
X6247D01*
X6222Y9276D01*
Y9378D01*
X6374Y9251D02*
Y9353D01*
X6399D01*
X6425Y9327D01*
Y9251D01*
Y9327D01*
X6450Y9353D01*
X6476Y9327D01*
Y9251D01*
X6526D02*
X6577D01*
X6552D01*
Y9353D01*
X6526D01*
X6653Y9251D02*
X6704D01*
X6679D01*
Y9403D01*
X6653D01*
X5892Y9708D02*
X5841Y9683D01*
X5790Y9632D01*
Y9581D01*
X5815Y9556D01*
X5866D01*
X5892Y9581D01*
Y9607D01*
X5866Y9632D01*
X5790D01*
X5968Y9530D02*
X5993Y9556D01*
Y9581D01*
X5968D01*
Y9556D01*
X5993D01*
X5968Y9530D01*
X5942Y9505D01*
X6095Y9683D02*
X6120Y9708D01*
X6171D01*
X6196Y9683D01*
Y9581D01*
X6171Y9556D01*
X6120D01*
X6095Y9581D01*
Y9683D01*
X6247D02*
X6272Y9708D01*
X6323D01*
X6349Y9683D01*
Y9581D01*
X6323Y9556D01*
X6272D01*
X6247Y9581D01*
Y9683D01*
X6399Y9556D02*
Y9657D01*
X6425D01*
X6450Y9632D01*
Y9556D01*
Y9632D01*
X6476Y9657D01*
X6501Y9632D01*
Y9556D01*
X6552D02*
X6603D01*
X6577D01*
Y9657D01*
X6552D01*
X6679Y9556D02*
X6730D01*
X6704D01*
Y9708D01*
X6679D01*
X5790Y9861D02*
X5841D01*
X5815D01*
Y10013D01*
X5790Y9988D01*
X5942Y9835D02*
X5968Y9861D01*
Y9886D01*
X5942D01*
Y9861D01*
X5968D01*
X5942Y9835D01*
X5917Y9810D01*
X6069Y9988D02*
X6095Y10013D01*
X6146D01*
X6171Y9988D01*
Y9962D01*
X6146Y9937D01*
X6120D01*
X6146D01*
X6171Y9911D01*
Y9886D01*
X6146Y9861D01*
X6095D01*
X6069Y9886D01*
X6222Y9988D02*
X6247Y10013D01*
X6298D01*
X6323Y9988D01*
Y9962D01*
X6298Y9937D01*
X6323Y9911D01*
Y9886D01*
X6298Y9861D01*
X6247D01*
X6222Y9886D01*
Y9911D01*
X6247Y9937D01*
X6222Y9962D01*
Y9988D01*
X6247Y9937D02*
X6298D01*
X6374Y9861D02*
Y9962D01*
X6399D01*
X6425Y9937D01*
Y9861D01*
Y9937D01*
X6450Y9962D01*
X6476Y9937D01*
Y9861D01*
X6526D02*
X6577D01*
X6552D01*
Y9962D01*
X6526D01*
X6653Y9861D02*
X6704D01*
X6679D01*
Y10013D01*
X6653D01*
X5866Y10165D02*
Y10318D01*
X5790Y10242D01*
X5892D01*
X6019Y10165D02*
Y10318D01*
X5942Y10242D01*
X6044D01*
X6120Y10140D02*
X6146Y10165D01*
Y10191D01*
X6120D01*
Y10165D01*
X6146D01*
X6120Y10140D01*
X6095Y10115D01*
X6323Y10165D02*
Y10318D01*
X6247Y10242D01*
X6349D01*
X6399Y10191D02*
X6425Y10165D01*
X6476D01*
X6501Y10191D01*
Y10292D01*
X6476Y10318D01*
X6425D01*
X6399Y10292D01*
Y10267D01*
X6425Y10242D01*
X6501D01*
X6552Y10165D02*
Y10267D01*
X6577D01*
X6603Y10242D01*
Y10165D01*
Y10242D01*
X6628Y10267D01*
X6653Y10242D01*
Y10165D01*
X6704D02*
X6755D01*
X6730D01*
Y10267D01*
X6704D01*
X6831Y10165D02*
X6882D01*
X6856D01*
Y10318D01*
X6831D01*
X5790Y10470D02*
X5841D01*
X5815D01*
Y10623D01*
X5790Y10597D01*
X5942Y10445D02*
X5968Y10470D01*
Y10496D01*
X5942D01*
Y10470D01*
X5968D01*
X5942Y10445D01*
X5917Y10419D01*
X6069Y10597D02*
X6095Y10623D01*
X6146D01*
X6171Y10597D01*
Y10572D01*
X6146Y10546D01*
X6120D01*
X6146D01*
X6171Y10521D01*
Y10496D01*
X6146Y10470D01*
X6095D01*
X6069Y10496D01*
X6222Y10597D02*
X6247Y10623D01*
X6298D01*
X6323Y10597D01*
Y10572D01*
X6298Y10546D01*
X6323Y10521D01*
Y10496D01*
X6298Y10470D01*
X6247D01*
X6222Y10496D01*
Y10521D01*
X6247Y10546D01*
X6222Y10572D01*
Y10597D01*
X6247Y10546D02*
X6298D01*
X6374Y10470D02*
Y10572D01*
X6399D01*
X6425Y10546D01*
Y10470D01*
Y10546D01*
X6450Y10572D01*
X6476Y10546D01*
Y10470D01*
X6526D02*
X6577D01*
X6552D01*
Y10572D01*
X6526D01*
X6653Y10470D02*
X6704D01*
X6679D01*
Y10623D01*
X6653D01*
X5892Y10927D02*
X5841Y10902D01*
X5790Y10851D01*
Y10800D01*
X5815Y10775D01*
X5866D01*
X5892Y10800D01*
Y10826D01*
X5866Y10851D01*
X5790D01*
X5968Y10750D02*
X5993Y10775D01*
Y10800D01*
X5968D01*
Y10775D01*
X5993D01*
X5968Y10750D01*
X5942Y10724D01*
X6095Y10902D02*
X6120Y10927D01*
X6171D01*
X6196Y10902D01*
Y10800D01*
X6171Y10775D01*
X6120D01*
X6095Y10800D01*
Y10902D01*
X6247D02*
X6272Y10927D01*
X6323D01*
X6349Y10902D01*
Y10800D01*
X6323Y10775D01*
X6272D01*
X6247Y10800D01*
Y10902D01*
X6399Y10775D02*
Y10877D01*
X6425D01*
X6450Y10851D01*
Y10775D01*
Y10851D01*
X6476Y10877D01*
X6501Y10851D01*
Y10775D01*
X6552D02*
X6603D01*
X6577D01*
Y10877D01*
X6552D01*
X6679Y10775D02*
X6730D01*
X6704D01*
Y10927D01*
X6679D01*
X5790Y11080D02*
X5841D01*
X5815D01*
Y11232D01*
X5790Y11207D01*
X5942Y11054D02*
X5968Y11080D01*
Y11105D01*
X5942D01*
Y11080D01*
X5968D01*
X5942Y11054D01*
X5917Y11029D01*
X6146Y11080D02*
Y11232D01*
X6069Y11156D01*
X6171D01*
X6222Y11207D02*
X6247Y11232D01*
X6298D01*
X6323Y11207D01*
Y11105D01*
X6298Y11080D01*
X6247D01*
X6222Y11105D01*
Y11207D01*
X6374Y11080D02*
Y11181D01*
X6399D01*
X6425Y11156D01*
Y11080D01*
Y11156D01*
X6450Y11181D01*
X6476Y11156D01*
Y11080D01*
X6526D02*
X6577D01*
X6552D01*
Y11181D01*
X6526D01*
X6653Y11080D02*
X6704D01*
X6679D01*
Y11232D01*
X6653D01*
X5790Y11512D02*
X5815Y11537D01*
X5866D01*
X5892Y11512D01*
Y11410D01*
X5866Y11385D01*
X5815D01*
X5790Y11410D01*
Y11512D01*
X5968Y11359D02*
X5993Y11385D01*
Y11410D01*
X5968D01*
Y11385D01*
X5993D01*
X5968Y11359D01*
X5942Y11334D01*
X6171Y11385D02*
Y11537D01*
X6095Y11461D01*
X6196D01*
X6247Y11512D02*
X6272Y11537D01*
X6323D01*
X6349Y11512D01*
Y11410D01*
X6323Y11385D01*
X6272D01*
X6247Y11410D01*
Y11512D01*
X6399Y11385D02*
Y11486D01*
X6425D01*
X6450Y11461D01*
Y11385D01*
Y11461D01*
X6476Y11486D01*
X6501Y11461D01*
Y11385D01*
X6552D02*
X6603D01*
X6577D01*
Y11486D01*
X6552D01*
X6679Y11385D02*
X6730D01*
X6704D01*
Y11537D01*
X6679D01*
X7542Y12121D02*
X7517Y12147D01*
X7466D01*
X7441Y12121D01*
Y12020D01*
X7466Y11994D01*
X7517D01*
X7542Y12020D01*
X7618Y11994D02*
X7669D01*
X7695Y12020D01*
Y12070D01*
X7669Y12096D01*
X7618D01*
X7593Y12070D01*
Y12020D01*
X7618Y11994D01*
X7745D02*
Y12096D01*
X7821D01*
X7847Y12070D01*
Y11994D01*
X7898D02*
X7974D01*
X7999Y12020D01*
X7974Y12045D01*
X7923D01*
X7898Y12070D01*
X7923Y12096D01*
X7999D01*
X8075Y12121D02*
Y12096D01*
X8050D01*
X8101D01*
X8075D01*
Y12020D01*
X8101Y11994D01*
X8202Y12096D02*
X8253D01*
X8279Y12070D01*
Y11994D01*
X8202D01*
X8177Y12020D01*
X8202Y12045D01*
X8279D01*
X8329Y11994D02*
Y12096D01*
X8406D01*
X8431Y12070D01*
Y11994D01*
X8507Y12121D02*
Y12096D01*
X8482D01*
X8532D01*
X8507D01*
Y12020D01*
X8532Y11994D01*
X7441Y9073D02*
X7466Y9099D01*
X7517D01*
X7542Y9073D01*
Y9048D01*
X7517Y9022D01*
X7491D01*
X7517D01*
X7542Y8997D01*
Y8972D01*
X7517Y8946D01*
X7466D01*
X7441Y8972D01*
X7618Y8921D02*
X7644Y8946D01*
Y8972D01*
X7618D01*
Y8946D01*
X7644D01*
X7618Y8921D01*
X7593Y8895D01*
X7847Y9099D02*
X7745D01*
Y9022D01*
X7796Y9048D01*
X7821D01*
X7847Y9022D01*
Y8972D01*
X7821Y8946D01*
X7771D01*
X7745Y8972D01*
X7517Y9556D02*
Y9708D01*
X7441Y9632D01*
X7542D01*
X7618Y9530D02*
X7644Y9556D01*
Y9581D01*
X7618D01*
Y9556D01*
X7644D01*
X7618Y9530D01*
X7593Y9505D01*
X7745Y9683D02*
X7771Y9708D01*
X7821D01*
X7847Y9683D01*
Y9657D01*
X7821Y9632D01*
X7796D01*
X7821D01*
X7847Y9607D01*
Y9581D01*
X7821Y9556D01*
X7771D01*
X7745Y9581D01*
X7517Y10165D02*
Y10318D01*
X7441Y10242D01*
X7542D01*
X7618Y10140D02*
X7644Y10165D01*
Y10191D01*
X7618D01*
Y10165D01*
X7644D01*
X7618Y10140D01*
X7593Y10115D01*
X7745Y10292D02*
X7771Y10318D01*
X7821D01*
X7847Y10292D01*
Y10267D01*
X7821Y10242D01*
X7847Y10216D01*
Y10191D01*
X7821Y10165D01*
X7771D01*
X7745Y10191D01*
Y10216D01*
X7771Y10242D01*
X7745Y10267D01*
Y10292D01*
X7771Y10242D02*
X7821D01*
X7517Y10775D02*
Y10927D01*
X7441Y10851D01*
X7542D01*
X7618Y10750D02*
X7644Y10775D01*
Y10800D01*
X7618D01*
Y10775D01*
X7644D01*
X7618Y10750D01*
X7593Y10724D01*
X7745Y10902D02*
X7771Y10927D01*
X7821D01*
X7847Y10902D01*
Y10877D01*
X7821Y10851D01*
X7796D01*
X7821D01*
X7847Y10826D01*
Y10800D01*
X7821Y10775D01*
X7771D01*
X7745Y10800D01*
X7441Y11512D02*
X7466Y11537D01*
X7517D01*
X7542Y11512D01*
Y11486D01*
X7517Y11461D01*
X7491D01*
X7517D01*
X7542Y11435D01*
Y11410D01*
X7517Y11385D01*
X7466D01*
X7441Y11410D01*
X7618Y11359D02*
X7644Y11385D01*
Y11410D01*
X7618D01*
Y11385D01*
X7644D01*
X7618Y11359D01*
X7593Y11334D01*
X7847Y11537D02*
X7745D01*
Y11461D01*
X7796Y11486D01*
X7821D01*
X7847Y11461D01*
Y11410D01*
X7821Y11385D01*
X7771D01*
X7745Y11410D01*
X8888Y12147D02*
Y11994D01*
X8964D01*
X8990Y12020D01*
Y12045D01*
X8964Y12070D01*
X8888D01*
X8964D01*
X8990Y12096D01*
Y12121D01*
X8964Y12147D01*
X8888D01*
X9066Y11994D02*
X9117D01*
X9142Y12020D01*
Y12070D01*
X9117Y12096D01*
X9066D01*
X9040Y12070D01*
Y12020D01*
X9066Y11994D01*
X9218Y12096D02*
X9269D01*
X9294Y12070D01*
Y11994D01*
X9218D01*
X9193Y12020D01*
X9218Y12045D01*
X9294D01*
X9345Y12096D02*
Y11994D01*
Y12045D01*
X9371Y12070D01*
X9396Y12096D01*
X9421D01*
X9599Y12147D02*
Y11994D01*
X9523D01*
X9497Y12020D01*
Y12070D01*
X9523Y12096D01*
X9599D01*
X9802Y12147D02*
Y11994D01*
X9904D01*
X9980Y12096D02*
X10031D01*
X10056Y12070D01*
Y11994D01*
X9980D01*
X9955Y12020D01*
X9980Y12045D01*
X10056D01*
X10107Y12096D02*
Y12020D01*
X10132Y11994D01*
X10208D01*
Y11969D01*
X10183Y11943D01*
X10158D01*
X10208Y11994D02*
Y12096D01*
X10335Y11994D02*
X10285D01*
X10259Y12020D01*
Y12070D01*
X10285Y12096D01*
X10335D01*
X10361Y12070D01*
Y12045D01*
X10259D01*
X10412Y12096D02*
Y11994D01*
Y12045D01*
X10437Y12070D01*
X10462Y12096D01*
X10488D01*
X10818Y12121D02*
X10792Y12147D01*
X10742D01*
X10716Y12121D01*
Y12096D01*
X10742Y12070D01*
X10792D01*
X10818Y12045D01*
Y12020D01*
X10792Y11994D01*
X10742D01*
X10716Y12020D01*
X10894Y12121D02*
Y12096D01*
X10869D01*
X10919D01*
X10894D01*
Y12020D01*
X10919Y11994D01*
X11021Y12096D02*
X11072D01*
X11097Y12070D01*
Y11994D01*
X11021D01*
X10996Y12020D01*
X11021Y12045D01*
X11097D01*
X11249Y12096D02*
X11173D01*
X11148Y12070D01*
Y12020D01*
X11173Y11994D01*
X11249D01*
X11300D02*
Y12147D01*
Y12045D02*
X11376Y12096D01*
X11300Y12045D02*
X11376Y11994D01*
D16*
X3210Y925D02*
X3358D01*
X3478D01*
X3210Y1040D02*
X3358D01*
X3478D01*
X5001Y1889D02*
X5613D01*
X4958Y1591D02*
X5613D01*
X5001Y1489D02*
X5613D01*
X4958Y1191D02*
X5613D01*
D17*
X3478Y925D02*
Y1040D01*
X4958Y1889D02*
X5001D01*
X4958Y1591D02*
Y1889D01*
Y1489D02*
X5001D01*
X4958Y1191D02*
Y1489D01*
D18*
X51Y11918D02*
X11579D01*
X51Y12223D02*
X11579D01*
X51Y8565D02*
Y12223D01*
Y8565D02*
X1092D01*
X51Y8870D02*
X1092D01*
X51Y9175D02*
X1092D01*
X51Y9480D02*
X1092D01*
X51Y9784D02*
X1092D01*
X51Y10089D02*
X1092D01*
X51Y10394D02*
X1092D01*
X51Y10699D02*
X1092D01*
X51Y11004D02*
X1092D01*
X51Y11308D02*
X1092D01*
X51Y11613D02*
X1092D01*
Y8565D02*
Y12223D01*
Y8565D02*
X3453D01*
X1092Y8870D02*
X3453D01*
X1092Y9175D02*
X3453D01*
X1092Y9480D02*
X3453D01*
X1092Y9784D02*
X3453D01*
X1092Y10089D02*
X3453D01*
X1092Y10394D02*
X3453D01*
X1092Y10699D02*
X3453D01*
X1092Y11004D02*
X3453D01*
X1092Y11308D02*
X3453D01*
X1092Y11613D02*
X3453D01*
Y8565D02*
Y12223D01*
Y8565D02*
X5637D01*
X3453Y8870D02*
X5637D01*
X3453Y9175D02*
X5637D01*
X3453Y9480D02*
X5637D01*
X3453Y9784D02*
X5637D01*
X3453Y10089D02*
X5637D01*
X3453Y10394D02*
X5637D01*
X3453Y10699D02*
X5637D01*
X3453Y11004D02*
X5637D01*
X3453Y11308D02*
X5637D01*
X3453Y11613D02*
X5637D01*
Y8565D02*
Y12223D01*
Y8565D02*
X7288D01*
X5637Y8870D02*
X7288D01*
X5637Y9175D02*
X7288D01*
X5637Y9480D02*
X7288D01*
X5637Y9784D02*
X7288D01*
X5637Y10089D02*
X7288D01*
X5637Y10394D02*
X7288D01*
X5637Y10699D02*
X7288D01*
X5637Y11004D02*
X7288D01*
X5637Y11308D02*
X7288D01*
X5637Y11613D02*
X7288D01*
Y8565D02*
Y12223D01*
Y8565D02*
X8735D01*
X7288Y8870D02*
X8735D01*
X7288Y9175D02*
X8735D01*
X7288Y9480D02*
X8735D01*
X7288Y9784D02*
X8735D01*
X7288Y10089D02*
X8735D01*
X7288Y10394D02*
X8735D01*
X7288Y10699D02*
X8735D01*
X7288Y11004D02*
X8735D01*
X7288Y11308D02*
X8735D01*
X7288Y11613D02*
X8735D01*
Y8565D02*
Y12223D01*
Y8565D02*
X11579D01*
X8735Y8870D02*
X11579D01*
X8735Y9175D02*
X11579D01*
X8735Y9480D02*
X11579D01*
X8735Y9784D02*
X11579D01*
X8735Y10089D02*
X11579D01*
X8735Y10394D02*
X11579D01*
X8735Y10699D02*
X11579D01*
X8735Y11004D02*
X11579D01*
X8735Y11308D02*
X11579D01*
X8735Y11613D02*
X11579D01*
Y8565D02*
Y12223D01*
X51Y3700D02*
Y7957D01*
X49Y7957D02*
X51Y7957D01*
X49Y7957D02*
X56Y8040D01*
X75Y8122D01*
X107Y8199D01*
X151Y8271D01*
X205Y8334D01*
X269Y8389D01*
X340Y8433D01*
X418Y8465D01*
X499Y8484D01*
X583Y8491D01*
Y8489D02*
Y8491D01*
X583Y8489D02*
X583Y8489D01*
X583Y8489D02*
X11047Y8491D01*
X11131Y8484D01*
X11212Y8465D01*
X11289Y8433D01*
X11361Y8389D01*
X11425Y8334D01*
X11479Y8271D01*
X11523Y8199D01*
X11555Y8122D01*
X11574Y8040D01*
X11581Y7957D01*
X11579D02*
X11581D01*
X11579Y3700D02*
Y7957D01*
Y3700D02*
X11581D01*
X11574Y3617D02*
X11581Y3700D01*
X11555Y3535D02*
X11574Y3617D01*
X11523Y3458D02*
X11555Y3535D01*
X11479Y3387D02*
X11523Y3458D01*
X11425Y3323D02*
X11479Y3387D01*
X11361Y3268D02*
X11425Y3323D01*
X11289Y3225D02*
X11361Y3268D01*
X11212Y3193D02*
X11289Y3225D01*
X11131Y3173D02*
X11212Y3193D01*
X11047Y3167D02*
X11131Y3173D01*
X11047Y3167D02*
Y3168D01*
X583D02*
X11047D01*
X583Y3167D02*
X583Y3168D01*
X499Y3173D02*
X583Y3167D01*
X418Y3193D02*
X499Y3173D01*
X340Y3225D02*
X418Y3193D01*
X269Y3268D02*
X340Y3225D01*
X205Y3323D02*
X269Y3268D01*
X151Y3387D02*
X205Y3323D01*
X107Y3458D02*
X151Y3387D01*
X75Y3535D02*
X107Y3458D01*
X56Y3617D02*
X75Y3535D01*
X49Y3700D02*
X56Y3617D01*
X49Y3700D02*
X51Y3700D01*
X26Y11918D02*
X11554D01*
X26Y12223D02*
X11554D01*
X26Y8565D02*
Y12223D01*
Y8565D02*
X1067D01*
X26Y8870D02*
X1067D01*
X26Y9175D02*
X1067D01*
X26Y9480D02*
X1067D01*
X26Y9784D02*
X1067D01*
X26Y10089D02*
X1067D01*
X26Y10394D02*
X1067D01*
X26Y10699D02*
X1067D01*
X26Y11004D02*
X1067D01*
X26Y11308D02*
X1067D01*
X26Y11613D02*
X1067D01*
Y8565D02*
Y12223D01*
Y8565D02*
X3428D01*
X1067Y8870D02*
X3428D01*
X1067Y9175D02*
X3428D01*
X1067Y9480D02*
X3428D01*
X1067Y9784D02*
X3428D01*
X1067Y10089D02*
X3428D01*
X1067Y10394D02*
X3428D01*
X1067Y10699D02*
X3428D01*
X1067Y11004D02*
X3428D01*
X1067Y11308D02*
X3428D01*
X1067Y11613D02*
X3428D01*
Y8565D02*
Y12223D01*
Y8565D02*
X5612D01*
X3428Y8870D02*
X5612D01*
X3428Y9175D02*
X5612D01*
X3428Y9480D02*
X5612D01*
X3428Y9784D02*
X5612D01*
X3428Y10089D02*
X5612D01*
X3428Y10394D02*
X5612D01*
X3428Y10699D02*
X5612D01*
X3428Y11004D02*
X5612D01*
X3428Y11308D02*
X5612D01*
X3428Y11613D02*
X5612D01*
Y8565D02*
Y12223D01*
Y8565D02*
X7263D01*
X5612Y8870D02*
X7263D01*
X5612Y9175D02*
X7263D01*
X5612Y9480D02*
X7263D01*
X5612Y9784D02*
X7263D01*
X5612Y10089D02*
X7263D01*
X5612Y10394D02*
X7263D01*
X5612Y10699D02*
X7263D01*
X5612Y11004D02*
X7263D01*
X5612Y11308D02*
X7263D01*
X5612Y11613D02*
X7263D01*
Y8565D02*
Y12223D01*
Y8565D02*
X8710D01*
X7263Y8870D02*
X8710D01*
X7263Y9175D02*
X8710D01*
X7263Y9480D02*
X8710D01*
X7263Y9784D02*
X8710D01*
X7263Y10089D02*
X8710D01*
X7263Y10394D02*
X8710D01*
X7263Y10699D02*
X8710D01*
X7263Y11004D02*
X8710D01*
X7263Y11308D02*
X8710D01*
X7263Y11613D02*
X8710D01*
Y8565D02*
Y12223D01*
Y8565D02*
X11554D01*
X8710Y8870D02*
X11554D01*
X8710Y9175D02*
X11554D01*
X8710Y9480D02*
X11554D01*
X8710Y9784D02*
X11554D01*
X8710Y10089D02*
X11554D01*
X8710Y10394D02*
X11554D01*
X8710Y10699D02*
X11554D01*
X8710Y11004D02*
X11554D01*
X8710Y11308D02*
X11554D01*
X8710Y11613D02*
X11554D01*
Y8565D02*
Y12223D01*
X26Y3700D02*
Y7957D01*
X24Y7957D02*
X26Y7957D01*
X24Y7957D02*
X31Y8040D01*
X50Y8122D01*
X82Y8199D01*
X126Y8271D01*
X180Y8334D01*
X244Y8389D01*
X315Y8433D01*
X393Y8465D01*
X474Y8484D01*
X558Y8491D01*
Y8489D02*
Y8491D01*
X558Y8489D02*
X558Y8489D01*
X558Y8489D02*
X11022Y8491D01*
X11106Y8484D01*
X11187Y8465D01*
X11264Y8433D01*
X11336Y8389D01*
X11400Y8334D01*
X11454Y8271D01*
X11498Y8199D01*
X11530Y8122D01*
X11549Y8040D01*
X11556Y7957D01*
X11554D02*
X11556D01*
X11554Y3700D02*
Y7957D01*
Y3700D02*
X11556D01*
X11549Y3617D02*
X11556Y3700D01*
X11530Y3535D02*
X11549Y3617D01*
X11498Y3458D02*
X11530Y3535D01*
X11454Y3387D02*
X11498Y3458D01*
X11400Y3323D02*
X11454Y3387D01*
X11336Y3268D02*
X11400Y3323D01*
X11264Y3225D02*
X11336Y3268D01*
X11187Y3193D02*
X11264Y3225D01*
X11106Y3173D02*
X11187Y3193D01*
X11022Y3167D02*
X11106Y3173D01*
X11022Y3167D02*
Y3168D01*
X558D02*
X11022D01*
X558Y3167D02*
X558Y3168D01*
X474Y3173D02*
X558Y3167D01*
X393Y3193D02*
X474Y3173D01*
X315Y3225D02*
X393Y3193D01*
X244Y3268D02*
X315Y3225D01*
X180Y3323D02*
X244Y3268D01*
X126Y3387D02*
X180Y3323D01*
X82Y3458D02*
X126Y3387D01*
X50Y3535D02*
X82Y3458D01*
X31Y3617D02*
X50Y3535D01*
X24Y3700D02*
X31Y3617D01*
X24Y3700D02*
X26Y3700D01*
D19*
X11427Y8565D02*
X11579Y8718D01*
X11274Y8565D02*
X11579Y8870D01*
X11122Y8565D02*
X11427Y8870D01*
X10970Y8565D02*
X11274Y8870D01*
X10817Y8565D02*
X11122Y8870D01*
X10665Y8565D02*
X10970Y8870D01*
X10512Y8565D02*
X10817Y8870D01*
X10360Y8565D02*
X10665Y8870D01*
X10208Y8565D02*
X10512Y8870D01*
X10055Y8565D02*
X10360Y8870D01*
X9903Y8565D02*
X10208Y8870D01*
X9750Y8565D02*
X10055Y8870D01*
X9598Y8565D02*
X9903Y8870D01*
X9446Y8565D02*
X9750Y8870D01*
X9293Y8565D02*
X9598Y8870D01*
X9141Y8565D02*
X9446Y8870D01*
X8988Y8565D02*
X9293Y8870D01*
X8836Y8565D02*
X9141Y8870D01*
X8735Y8617D02*
X8988Y8870D01*
X8735Y8769D02*
X8836Y8870D01*
X11427D02*
X11579Y9022D01*
X11274Y8870D02*
X11579Y9175D01*
X11122Y8870D02*
X11427Y9175D01*
X10970Y8870D02*
X11274Y9175D01*
X10817Y8870D02*
X11122Y9175D01*
X10665Y8870D02*
X10970Y9175D01*
X10512Y8870D02*
X10817Y9175D01*
X10360Y8870D02*
X10665Y9175D01*
X10208Y8870D02*
X10512Y9175D01*
X10055Y8870D02*
X10360Y9175D01*
X9903Y8870D02*
X10208Y9175D01*
X9750Y8870D02*
X10055Y9175D01*
X9598Y8870D02*
X9903Y9175D01*
X9446Y8870D02*
X9750Y9175D01*
X9293Y8870D02*
X9598Y9175D01*
X9141Y8870D02*
X9446Y9175D01*
X8988Y8870D02*
X9293Y9175D01*
X8836Y8870D02*
X9141Y9175D01*
X8735Y8922D02*
X8988Y9175D01*
X8735Y9074D02*
X8836Y9175D01*
X11427D02*
X11579Y9327D01*
X11274Y9175D02*
X11579Y9480D01*
X11122Y9175D02*
X11427Y9480D01*
X10970Y9175D02*
X11274Y9480D01*
X10817Y9175D02*
X11122Y9480D01*
X10665Y9175D02*
X10970Y9480D01*
X10512Y9175D02*
X10817Y9480D01*
X10360Y9175D02*
X10665Y9480D01*
X10208Y9175D02*
X10512Y9480D01*
X10055Y9175D02*
X10360Y9480D01*
X9903Y9175D02*
X10208Y9480D01*
X9750Y9175D02*
X10055Y9480D01*
X9598Y9175D02*
X9903Y9480D01*
X9446Y9175D02*
X9750Y9480D01*
X9293Y9175D02*
X9598Y9480D01*
X9141Y9175D02*
X9446Y9480D01*
X8988Y9175D02*
X9293Y9480D01*
X8836Y9175D02*
X9141Y9480D01*
X8735Y9226D02*
X8988Y9480D01*
X8735Y9379D02*
X8836Y9480D01*
X11427D02*
X11579Y9632D01*
X11274Y9480D02*
X11579Y9784D01*
X11122Y9480D02*
X11427Y9784D01*
X10970Y9480D02*
X11274Y9784D01*
X10817Y9480D02*
X11122Y9784D01*
X10665Y9480D02*
X10970Y9784D01*
X10512Y9480D02*
X10817Y9784D01*
X10360Y9480D02*
X10665Y9784D01*
X10208Y9480D02*
X10512Y9784D01*
X10055Y9480D02*
X10360Y9784D01*
X9903Y9480D02*
X10208Y9784D01*
X9750Y9480D02*
X10055Y9784D01*
X9598Y9480D02*
X9903Y9784D01*
X9446Y9480D02*
X9750Y9784D01*
X9293Y9480D02*
X9598Y9784D01*
X9141Y9480D02*
X9446Y9784D01*
X8988Y9480D02*
X9293Y9784D01*
X8836Y9480D02*
X9141Y9784D01*
X8735Y9531D02*
X8988Y9784D01*
X8735Y9684D02*
X8836Y9784D01*
X11427D02*
X11579Y9937D01*
X11274Y9784D02*
X11579Y10089D01*
X11122Y9784D02*
X11427Y10089D01*
X10970Y9784D02*
X11274Y10089D01*
X10817Y9784D02*
X11122Y10089D01*
X10665Y9784D02*
X10970Y10089D01*
X10512Y9784D02*
X10817Y10089D01*
X10360Y9784D02*
X10665Y10089D01*
X10208Y9784D02*
X10512Y10089D01*
X10055Y9784D02*
X10360Y10089D01*
X9903Y9784D02*
X10208Y10089D01*
X9750Y9784D02*
X10055Y10089D01*
X9598Y9784D02*
X9903Y10089D01*
X9446Y9784D02*
X9750Y10089D01*
X9293Y9784D02*
X9598Y10089D01*
X9141Y9784D02*
X9446Y10089D01*
X8988Y9784D02*
X9293Y10089D01*
X8836Y9784D02*
X9141Y10089D01*
X8735Y9836D02*
X8988Y10089D01*
X8735Y9988D02*
X8836Y10089D01*
X11427D02*
X11579Y10242D01*
X11274Y10089D02*
X11579Y10394D01*
X11122Y10089D02*
X11427Y10394D01*
X10970Y10089D02*
X11274Y10394D01*
X10817Y10089D02*
X11122Y10394D01*
X10665Y10089D02*
X10970Y10394D01*
X10512Y10089D02*
X10817Y10394D01*
X10360Y10089D02*
X10665Y10394D01*
X10208Y10089D02*
X10512Y10394D01*
X10055Y10089D02*
X10360Y10394D01*
X9903Y10089D02*
X10208Y10394D01*
X9750Y10089D02*
X10055Y10394D01*
X9598Y10089D02*
X9903Y10394D01*
X9446Y10089D02*
X9750Y10394D01*
X9293Y10089D02*
X9598Y10394D01*
X9141Y10089D02*
X9446Y10394D01*
X8988Y10089D02*
X9293Y10394D01*
X8836Y10089D02*
X9141Y10394D01*
X8735Y10141D02*
X8988Y10394D01*
X8735Y10293D02*
X8836Y10394D01*
X11427D02*
X11579Y10546D01*
X11274Y10394D02*
X11579Y10699D01*
X11122Y10394D02*
X11427Y10699D01*
X10970Y10394D02*
X11274Y10699D01*
X10817Y10394D02*
X11122Y10699D01*
X10665Y10394D02*
X10970Y10699D01*
X10512Y10394D02*
X10817Y10699D01*
X10360Y10394D02*
X10665Y10699D01*
X10208Y10394D02*
X10512Y10699D01*
X10055Y10394D02*
X10360Y10699D01*
X9903Y10394D02*
X10208Y10699D01*
X9750Y10394D02*
X10055Y10699D01*
X9598Y10394D02*
X9903Y10699D01*
X9446Y10394D02*
X9750Y10699D01*
X9293Y10394D02*
X9598Y10699D01*
X9141Y10394D02*
X9446Y10699D01*
X8988Y10394D02*
X9293Y10699D01*
X8836Y10394D02*
X9141Y10699D01*
X8735Y10446D02*
X8988Y10699D01*
X8735Y10598D02*
X8836Y10699D01*
X11427D02*
X11579Y10851D01*
X11274Y10699D02*
X11579Y11004D01*
X11122Y10699D02*
X11427Y11004D01*
X10970Y10699D02*
X11274Y11004D01*
X10817Y10699D02*
X11122Y11004D01*
X10665Y10699D02*
X10970Y11004D01*
X10512Y10699D02*
X10817Y11004D01*
X10360Y10699D02*
X10665Y11004D01*
X10208Y10699D02*
X10512Y11004D01*
X10055Y10699D02*
X10360Y11004D01*
X9903Y10699D02*
X10208Y11004D01*
X9750Y10699D02*
X10055Y11004D01*
X9598Y10699D02*
X9903Y11004D01*
X9446Y10699D02*
X9750Y11004D01*
X9293Y10699D02*
X9598Y11004D01*
X9141Y10699D02*
X9446Y11004D01*
X8988Y10699D02*
X9293Y11004D01*
X8836Y10699D02*
X9141Y11004D01*
X8735Y10750D02*
X8988Y11004D01*
X8735Y10903D02*
X8836Y11004D01*
X11427D02*
X11579Y11156D01*
X11274Y11004D02*
X11579Y11308D01*
X11122Y11004D02*
X11427Y11308D01*
X10970Y11004D02*
X11274Y11308D01*
X10817Y11004D02*
X11122Y11308D01*
X10665Y11004D02*
X10970Y11308D01*
X10512Y11004D02*
X10817Y11308D01*
X10360Y11004D02*
X10665Y11308D01*
X10208Y11004D02*
X10512Y11308D01*
X10055Y11004D02*
X10360Y11308D01*
X9903Y11004D02*
X10208Y11308D01*
X9750Y11004D02*
X10055Y11308D01*
X9598Y11004D02*
X9903Y11308D01*
X9446Y11004D02*
X9750Y11308D01*
X9293Y11004D02*
X9598Y11308D01*
X9141Y11004D02*
X9446Y11308D01*
X8988Y11004D02*
X9293Y11308D01*
X8836Y11004D02*
X9141Y11308D01*
X8735Y11055D02*
X8988Y11308D01*
X8735Y11208D02*
X8836Y11308D01*
X11427D02*
X11579Y11461D01*
X11274Y11308D02*
X11579Y11613D01*
X11122Y11308D02*
X11427Y11613D01*
X10970Y11308D02*
X11274Y11613D01*
X10817Y11308D02*
X11122Y11613D01*
X10665Y11308D02*
X10970Y11613D01*
X10512Y11308D02*
X10817Y11613D01*
X10360Y11308D02*
X10665Y11613D01*
X10208Y11308D02*
X10512Y11613D01*
X10055Y11308D02*
X10360Y11613D01*
X9903Y11308D02*
X10208Y11613D01*
X9750Y11308D02*
X10055Y11613D01*
X9598Y11308D02*
X9903Y11613D01*
X9446Y11308D02*
X9750Y11613D01*
X9293Y11308D02*
X9598Y11613D01*
X9141Y11308D02*
X9446Y11613D01*
X8988Y11308D02*
X9293Y11613D01*
X8836Y11308D02*
X9141Y11613D01*
X8735Y11360D02*
X8988Y11613D01*
X8735Y11512D02*
X8836Y11613D01*
X11427D02*
X11579Y11766D01*
X11274Y11613D02*
X11579Y11918D01*
X11122Y11613D02*
X11427Y11918D01*
X10970Y11613D02*
X11274Y11918D01*
X10817Y11613D02*
X11122Y11918D01*
X10665Y11613D02*
X10970Y11918D01*
X10512Y11613D02*
X10817Y11918D01*
X10360Y11613D02*
X10665Y11918D01*
X10208Y11613D02*
X10512Y11918D01*
X10055Y11613D02*
X10360Y11918D01*
X9903Y11613D02*
X10208Y11918D01*
X9750Y11613D02*
X10055Y11918D01*
X9598Y11613D02*
X9903Y11918D01*
X9446Y11613D02*
X9750Y11918D01*
X9293Y11613D02*
X9598Y11918D01*
X9141Y11613D02*
X9446Y11918D01*
X8988Y11613D02*
X9293Y11918D01*
X8836Y11613D02*
X9141Y11918D01*
X8735Y11665D02*
X8988Y11918D01*
X8735Y11817D02*
X8836Y11918D01*
X11128Y3171D02*
X11575Y3617D01*
X10971Y3166D02*
X11579Y3775D01*
X10819Y3166D02*
X11579Y3927D01*
X10666Y3166D02*
X11579Y4079D01*
X10514Y3166D02*
X11579Y4232D01*
X10361Y3166D02*
X11579Y4384D01*
X10209Y3166D02*
X11579Y4537D01*
X10057Y3166D02*
X11579Y4689D01*
X9904Y3166D02*
X11579Y4841D01*
X9752Y3166D02*
X11579Y4994D01*
X9599Y3166D02*
X11579Y5146D01*
X9447Y3166D02*
X11579Y5299D01*
X9295Y3166D02*
X11579Y5451D01*
X9142Y3166D02*
X11579Y5603D01*
X8990Y3166D02*
X11579Y5756D01*
X8837Y3166D02*
X11579Y5908D01*
X8685Y3166D02*
X11579Y6061D01*
X8533Y3166D02*
X11579Y6213D01*
X8380Y3166D02*
X11579Y6365D01*
X8228Y3166D02*
X11579Y6518D01*
X8075Y3166D02*
X11579Y6670D01*
X7923Y3166D02*
X11579Y6823D01*
X7771Y3166D02*
X11579Y6975D01*
X7618Y3166D02*
X11579Y7127D01*
X7466Y3166D02*
X11579Y7280D01*
X7313Y3166D02*
X11579Y7432D01*
X7161Y3166D02*
X11579Y7585D01*
X7009Y3166D02*
X11579Y7737D01*
X6856Y3166D02*
X11579Y7889D01*
X6704Y3166D02*
X11575Y8037D01*
X6551Y3166D02*
X11541Y8156D01*
X6399Y3166D02*
X11489Y8256D01*
X6247Y3166D02*
X11420Y8340D01*
X6094Y3166D02*
X11335Y8407D01*
X5942Y3166D02*
X11233Y8458D01*
X5789Y3166D02*
X11111Y8488D01*
X5637Y3166D02*
X10963Y8492D01*
X5485Y3166D02*
X10810Y8492D01*
X5332Y3166D02*
X10658Y8492D01*
X5180Y3166D02*
X10506Y8492D01*
X5027Y3166D02*
X10353Y8492D01*
X4875Y3166D02*
X10201Y8492D01*
X4723Y3166D02*
X10048Y8492D01*
X4570Y3166D02*
X9896Y8492D01*
X4418Y3166D02*
X9744Y8492D01*
X4265Y3166D02*
X9591Y8492D01*
X4113Y3166D02*
X9439Y8492D01*
X3961Y3166D02*
X9286Y8492D01*
X3808Y3166D02*
X9134Y8492D01*
X3656Y3166D02*
X8982Y8492D01*
X3503Y3166D02*
X8829Y8492D01*
X3351Y3166D02*
X8677Y8492D01*
X3199Y3166D02*
X8524Y8492D01*
X3046Y3166D02*
X8372Y8492D01*
X2894Y3166D02*
X8219Y8492D01*
X2741Y3166D02*
X8067Y8492D01*
X2589Y3166D02*
X7915Y8492D01*
X2437Y3166D02*
X7762Y8492D01*
X2284Y3166D02*
X7610Y8492D01*
X2132Y3166D02*
X7457Y8492D01*
X1979Y3166D02*
X7305Y8492D01*
X1827Y3166D02*
X7153Y8492D01*
X1675Y3166D02*
X7000Y8492D01*
X1522Y3166D02*
X6848Y8492D01*
X1370Y3166D02*
X6695Y8492D01*
X1217Y3166D02*
X6543Y8492D01*
X1065Y3166D02*
X6391Y8492D01*
X913Y3166D02*
X6238Y8492D01*
X760Y3166D02*
X6086Y8492D01*
X608Y3166D02*
X5933Y8492D01*
X468Y3179D02*
X5781Y8492D01*
X354Y3217D02*
X5628Y8492D01*
X259Y3275D02*
X5476Y8492D01*
X181Y3349D02*
X5324Y8492D01*
X118Y3438D02*
X5171Y8492D01*
X72Y3545D02*
X5019Y8492D01*
X51Y3676D02*
X4866Y8492D01*
X51Y3828D02*
X4714Y8492D01*
X51Y3981D02*
X4562Y8492D01*
X51Y4133D02*
X4409Y8492D01*
X51Y4286D02*
X4257Y8492D01*
X51Y4438D02*
X4104Y8492D01*
X51Y4590D02*
X3952Y8492D01*
X51Y4743D02*
X3799Y8492D01*
X51Y4895D02*
X3647Y8492D01*
X51Y5048D02*
X3495Y8491D01*
X51Y5200D02*
X3342Y8491D01*
X51Y5352D02*
X3190Y8491D01*
X51Y5505D02*
X3037Y8491D01*
X51Y5657D02*
X2885Y8491D01*
X51Y5810D02*
X2733Y8491D01*
X51Y5962D02*
X2580Y8491D01*
X51Y6114D02*
X2428Y8491D01*
X51Y6267D02*
X2275Y8491D01*
X51Y6419D02*
X2123Y8491D01*
X51Y6572D02*
X1970Y8491D01*
X51Y6724D02*
X1818Y8491D01*
X51Y6876D02*
X1666Y8491D01*
X51Y7029D02*
X1513Y8491D01*
X51Y7181D02*
X1361Y8491D01*
X51Y7334D02*
X1208Y8491D01*
X51Y7486D02*
X1056Y8491D01*
X51Y7638D02*
X903Y8491D01*
X51Y7791D02*
X751Y8491D01*
X51Y7943D02*
X599Y8491D01*
X74Y8119D02*
X423Y8468D01*
X11402Y8565D02*
X11554Y8718D01*
X11249Y8565D02*
X11554Y8870D01*
X11097Y8565D02*
X11402Y8870D01*
X10945Y8565D02*
X11249Y8870D01*
X10792Y8565D02*
X11097Y8870D01*
X10640Y8565D02*
X10945Y8870D01*
X10487Y8565D02*
X10792Y8870D01*
X10335Y8565D02*
X10640Y8870D01*
X10183Y8565D02*
X10487Y8870D01*
X10030Y8565D02*
X10335Y8870D01*
X9878Y8565D02*
X10183Y8870D01*
X9725Y8565D02*
X10030Y8870D01*
X9573Y8565D02*
X9878Y8870D01*
X9421Y8565D02*
X9725Y8870D01*
X9268Y8565D02*
X9573Y8870D01*
X9116Y8565D02*
X9421Y8870D01*
X8963Y8565D02*
X9268Y8870D01*
X8811Y8565D02*
X9116Y8870D01*
X8710Y8617D02*
X8963Y8870D01*
X8710Y8769D02*
X8811Y8870D01*
X11402D02*
X11554Y9022D01*
X11249Y8870D02*
X11554Y9175D01*
X11097Y8870D02*
X11402Y9175D01*
X10945Y8870D02*
X11249Y9175D01*
X10792Y8870D02*
X11097Y9175D01*
X10640Y8870D02*
X10945Y9175D01*
X10487Y8870D02*
X10792Y9175D01*
X10335Y8870D02*
X10640Y9175D01*
X10183Y8870D02*
X10487Y9175D01*
X10030Y8870D02*
X10335Y9175D01*
X9878Y8870D02*
X10183Y9175D01*
X9725Y8870D02*
X10030Y9175D01*
X9573Y8870D02*
X9878Y9175D01*
X9421Y8870D02*
X9725Y9175D01*
X9268Y8870D02*
X9573Y9175D01*
X9116Y8870D02*
X9421Y9175D01*
X8963Y8870D02*
X9268Y9175D01*
X8811Y8870D02*
X9116Y9175D01*
X8710Y8922D02*
X8963Y9175D01*
X8710Y9074D02*
X8811Y9175D01*
X11402D02*
X11554Y9327D01*
X11249Y9175D02*
X11554Y9480D01*
X11097Y9175D02*
X11402Y9480D01*
X10945Y9175D02*
X11249Y9480D01*
X10792Y9175D02*
X11097Y9480D01*
X10640Y9175D02*
X10945Y9480D01*
X10487Y9175D02*
X10792Y9480D01*
X10335Y9175D02*
X10640Y9480D01*
X10183Y9175D02*
X10487Y9480D01*
X10030Y9175D02*
X10335Y9480D01*
X9878Y9175D02*
X10183Y9480D01*
X9725Y9175D02*
X10030Y9480D01*
X9573Y9175D02*
X9878Y9480D01*
X9421Y9175D02*
X9725Y9480D01*
X9268Y9175D02*
X9573Y9480D01*
X9116Y9175D02*
X9421Y9480D01*
X8963Y9175D02*
X9268Y9480D01*
X8811Y9175D02*
X9116Y9480D01*
X8710Y9226D02*
X8963Y9480D01*
X8710Y9379D02*
X8811Y9480D01*
X11402D02*
X11554Y9632D01*
X11249Y9480D02*
X11554Y9784D01*
X11097Y9480D02*
X11402Y9784D01*
X10945Y9480D02*
X11249Y9784D01*
X10792Y9480D02*
X11097Y9784D01*
X10640Y9480D02*
X10945Y9784D01*
X10487Y9480D02*
X10792Y9784D01*
X10335Y9480D02*
X10640Y9784D01*
X10183Y9480D02*
X10487Y9784D01*
X10030Y9480D02*
X10335Y9784D01*
X9878Y9480D02*
X10183Y9784D01*
X9725Y9480D02*
X10030Y9784D01*
X9573Y9480D02*
X9878Y9784D01*
X9421Y9480D02*
X9725Y9784D01*
X9268Y9480D02*
X9573Y9784D01*
X9116Y9480D02*
X9421Y9784D01*
X8963Y9480D02*
X9268Y9784D01*
X8811Y9480D02*
X9116Y9784D01*
X8710Y9531D02*
X8963Y9784D01*
X8710Y9684D02*
X8811Y9784D01*
X11402D02*
X11554Y9937D01*
X11249Y9784D02*
X11554Y10089D01*
X11097Y9784D02*
X11402Y10089D01*
X10945Y9784D02*
X11249Y10089D01*
X10792Y9784D02*
X11097Y10089D01*
X10640Y9784D02*
X10945Y10089D01*
X10487Y9784D02*
X10792Y10089D01*
X10335Y9784D02*
X10640Y10089D01*
X10183Y9784D02*
X10487Y10089D01*
X10030Y9784D02*
X10335Y10089D01*
X9878Y9784D02*
X10183Y10089D01*
X9725Y9784D02*
X10030Y10089D01*
X9573Y9784D02*
X9878Y10089D01*
X9421Y9784D02*
X9725Y10089D01*
X9268Y9784D02*
X9573Y10089D01*
X9116Y9784D02*
X9421Y10089D01*
X8963Y9784D02*
X9268Y10089D01*
X8811Y9784D02*
X9116Y10089D01*
X8710Y9836D02*
X8963Y10089D01*
X8710Y9988D02*
X8811Y10089D01*
X11402D02*
X11554Y10242D01*
X11249Y10089D02*
X11554Y10394D01*
X11097Y10089D02*
X11402Y10394D01*
X10945Y10089D02*
X11249Y10394D01*
X10792Y10089D02*
X11097Y10394D01*
X10640Y10089D02*
X10945Y10394D01*
X10487Y10089D02*
X10792Y10394D01*
X10335Y10089D02*
X10640Y10394D01*
X10183Y10089D02*
X10487Y10394D01*
X10030Y10089D02*
X10335Y10394D01*
X9878Y10089D02*
X10183Y10394D01*
X9725Y10089D02*
X10030Y10394D01*
X9573Y10089D02*
X9878Y10394D01*
X9421Y10089D02*
X9725Y10394D01*
X9268Y10089D02*
X9573Y10394D01*
X9116Y10089D02*
X9421Y10394D01*
X8963Y10089D02*
X9268Y10394D01*
X8811Y10089D02*
X9116Y10394D01*
X8710Y10141D02*
X8963Y10394D01*
X8710Y10293D02*
X8811Y10394D01*
X11402D02*
X11554Y10546D01*
X11249Y10394D02*
X11554Y10699D01*
X11097Y10394D02*
X11402Y10699D01*
X10945Y10394D02*
X11249Y10699D01*
X10792Y10394D02*
X11097Y10699D01*
X10640Y10394D02*
X10945Y10699D01*
X10487Y10394D02*
X10792Y10699D01*
X10335Y10394D02*
X10640Y10699D01*
X10183Y10394D02*
X10487Y10699D01*
X10030Y10394D02*
X10335Y10699D01*
X9878Y10394D02*
X10183Y10699D01*
X9725Y10394D02*
X10030Y10699D01*
X9573Y10394D02*
X9878Y10699D01*
X9421Y10394D02*
X9725Y10699D01*
X9268Y10394D02*
X9573Y10699D01*
X9116Y10394D02*
X9421Y10699D01*
X8963Y10394D02*
X9268Y10699D01*
X8811Y10394D02*
X9116Y10699D01*
X8710Y10446D02*
X8963Y10699D01*
X8710Y10598D02*
X8811Y10699D01*
X11402D02*
X11554Y10851D01*
X11249Y10699D02*
X11554Y11004D01*
X11097Y10699D02*
X11402Y11004D01*
X10945Y10699D02*
X11249Y11004D01*
X10792Y10699D02*
X11097Y11004D01*
X10640Y10699D02*
X10945Y11004D01*
X10487Y10699D02*
X10792Y11004D01*
X10335Y10699D02*
X10640Y11004D01*
X10183Y10699D02*
X10487Y11004D01*
X10030Y10699D02*
X10335Y11004D01*
X9878Y10699D02*
X10183Y11004D01*
X9725Y10699D02*
X10030Y11004D01*
X9573Y10699D02*
X9878Y11004D01*
X9421Y10699D02*
X9725Y11004D01*
X9268Y10699D02*
X9573Y11004D01*
X9116Y10699D02*
X9421Y11004D01*
X8963Y10699D02*
X9268Y11004D01*
X8811Y10699D02*
X9116Y11004D01*
X8710Y10750D02*
X8963Y11004D01*
X8710Y10903D02*
X8811Y11004D01*
X11402D02*
X11554Y11156D01*
X11249Y11004D02*
X11554Y11308D01*
X11097Y11004D02*
X11402Y11308D01*
X10945Y11004D02*
X11249Y11308D01*
X10792Y11004D02*
X11097Y11308D01*
X10640Y11004D02*
X10945Y11308D01*
X10487Y11004D02*
X10792Y11308D01*
X10335Y11004D02*
X10640Y11308D01*
X10183Y11004D02*
X10487Y11308D01*
X10030Y11004D02*
X10335Y11308D01*
X9878Y11004D02*
X10183Y11308D01*
X9725Y11004D02*
X10030Y11308D01*
X9573Y11004D02*
X9878Y11308D01*
X9421Y11004D02*
X9725Y11308D01*
X9268Y11004D02*
X9573Y11308D01*
X9116Y11004D02*
X9421Y11308D01*
X8963Y11004D02*
X9268Y11308D01*
X8811Y11004D02*
X9116Y11308D01*
X8710Y11055D02*
X8963Y11308D01*
X8710Y11208D02*
X8811Y11308D01*
X11402D02*
X11554Y11461D01*
X11249Y11308D02*
X11554Y11613D01*
X11097Y11308D02*
X11402Y11613D01*
X10945Y11308D02*
X11249Y11613D01*
X10792Y11308D02*
X11097Y11613D01*
X10640Y11308D02*
X10945Y11613D01*
X10487Y11308D02*
X10792Y11613D01*
X10335Y11308D02*
X10640Y11613D01*
X10183Y11308D02*
X10487Y11613D01*
X10030Y11308D02*
X10335Y11613D01*
X9878Y11308D02*
X10183Y11613D01*
X9725Y11308D02*
X10030Y11613D01*
X9573Y11308D02*
X9878Y11613D01*
X9421Y11308D02*
X9725Y11613D01*
X9268Y11308D02*
X9573Y11613D01*
X9116Y11308D02*
X9421Y11613D01*
X8963Y11308D02*
X9268Y11613D01*
X8811Y11308D02*
X9116Y11613D01*
X8710Y11360D02*
X8963Y11613D01*
X8710Y11512D02*
X8811Y11613D01*
X11402D02*
X11554Y11766D01*
X11249Y11613D02*
X11554Y11918D01*
X11097Y11613D02*
X11402Y11918D01*
X10945Y11613D02*
X11249Y11918D01*
X10792Y11613D02*
X11097Y11918D01*
X10640Y11613D02*
X10945Y11918D01*
X10487Y11613D02*
X10792Y11918D01*
X10335Y11613D02*
X10640Y11918D01*
X10183Y11613D02*
X10487Y11918D01*
X10030Y11613D02*
X10335Y11918D01*
X9878Y11613D02*
X10183Y11918D01*
X9725Y11613D02*
X10030Y11918D01*
X9573Y11613D02*
X9878Y11918D01*
X9421Y11613D02*
X9725Y11918D01*
X9268Y11613D02*
X9573Y11918D01*
X9116Y11613D02*
X9421Y11918D01*
X8963Y11613D02*
X9268Y11918D01*
X8811Y11613D02*
X9116Y11918D01*
X8710Y11665D02*
X8963Y11918D01*
X8710Y11817D02*
X8811Y11918D01*
X11103Y3171D02*
X11550Y3617D01*
X10946Y3166D02*
X11554Y3775D01*
X10794Y3166D02*
X11554Y3927D01*
X10641Y3166D02*
X11554Y4079D01*
X10489Y3166D02*
X11554Y4232D01*
X10336Y3166D02*
X11554Y4384D01*
X10184Y3166D02*
X11554Y4537D01*
X10032Y3166D02*
X11554Y4689D01*
X9879Y3166D02*
X11554Y4841D01*
X9727Y3166D02*
X11554Y4994D01*
X9574Y3166D02*
X11554Y5146D01*
X9422Y3166D02*
X11554Y5299D01*
X9270Y3166D02*
X11554Y5451D01*
X9117Y3166D02*
X11554Y5603D01*
X8965Y3166D02*
X11554Y5756D01*
X8812Y3166D02*
X11554Y5908D01*
X8660Y3166D02*
X11554Y6061D01*
X8508Y3166D02*
X11554Y6213D01*
X8355Y3166D02*
X11554Y6365D01*
X8203Y3166D02*
X11554Y6518D01*
X8050Y3166D02*
X11554Y6670D01*
X7898Y3166D02*
X11554Y6823D01*
X7746Y3166D02*
X11554Y6975D01*
X7593Y3166D02*
X11554Y7127D01*
X7441Y3166D02*
X11554Y7280D01*
X7288Y3166D02*
X11554Y7432D01*
X7136Y3166D02*
X11554Y7585D01*
X6984Y3166D02*
X11554Y7737D01*
X6831Y3166D02*
X11554Y7889D01*
X6679Y3166D02*
X11550Y8037D01*
X6526Y3166D02*
X11516Y8156D01*
X6374Y3166D02*
X11464Y8256D01*
X6222Y3166D02*
X11395Y8340D01*
X6069Y3166D02*
X11310Y8407D01*
X5917Y3166D02*
X11208Y8458D01*
X5764Y3166D02*
X11086Y8488D01*
X5612Y3166D02*
X10938Y8492D01*
X5460Y3166D02*
X10785Y8492D01*
X5307Y3166D02*
X10633Y8492D01*
X5155Y3166D02*
X10481Y8492D01*
X5002Y3166D02*
X10328Y8492D01*
X4850Y3166D02*
X10176Y8492D01*
X4698Y3166D02*
X10023Y8492D01*
X4545Y3166D02*
X9871Y8492D01*
X4393Y3166D02*
X9719Y8492D01*
X4240Y3166D02*
X9566Y8492D01*
X4088Y3166D02*
X9414Y8492D01*
X3936Y3166D02*
X9261Y8492D01*
X3783Y3166D02*
X9109Y8492D01*
X3631Y3166D02*
X8957Y8492D01*
X3478Y3166D02*
X8804Y8492D01*
X3326Y3166D02*
X8652Y8492D01*
X3174Y3166D02*
X8499Y8492D01*
X3021Y3166D02*
X8347Y8492D01*
X2869Y3166D02*
X8194Y8492D01*
X2716Y3166D02*
X8042Y8492D01*
X2564Y3166D02*
X7890Y8492D01*
X2412Y3166D02*
X7737Y8492D01*
X2259Y3166D02*
X7585Y8492D01*
X2107Y3166D02*
X7432Y8492D01*
X1954Y3166D02*
X7280Y8492D01*
X1802Y3166D02*
X7128Y8492D01*
X1650Y3166D02*
X6975Y8492D01*
X1497Y3166D02*
X6823Y8492D01*
X1345Y3166D02*
X6670Y8492D01*
X1192Y3166D02*
X6518Y8492D01*
X1040Y3166D02*
X6366Y8492D01*
X888Y3166D02*
X6213Y8492D01*
X735Y3166D02*
X6061Y8492D01*
X583Y3166D02*
X5908Y8492D01*
X443Y3179D02*
X5756Y8492D01*
X329Y3217D02*
X5603Y8492D01*
X234Y3275D02*
X5451Y8492D01*
X156Y3349D02*
X5299Y8492D01*
X93Y3438D02*
X5146Y8492D01*
X47Y3545D02*
X4994Y8492D01*
X26Y3676D02*
X4841Y8492D01*
X26Y3828D02*
X4689Y8492D01*
X26Y3981D02*
X4537Y8492D01*
X26Y4133D02*
X4384Y8492D01*
X26Y4286D02*
X4232Y8492D01*
X26Y4438D02*
X4079Y8492D01*
X26Y4590D02*
X3927Y8492D01*
X26Y4743D02*
X3774Y8492D01*
X26Y4895D02*
X3622Y8492D01*
X26Y5048D02*
X3470Y8491D01*
X26Y5200D02*
X3317Y8491D01*
X26Y5352D02*
X3165Y8491D01*
X26Y5505D02*
X3012Y8491D01*
X26Y5657D02*
X2860Y8491D01*
X26Y5810D02*
X2708Y8491D01*
X26Y5962D02*
X2555Y8491D01*
X26Y6114D02*
X2403Y8491D01*
X26Y6267D02*
X2250Y8491D01*
X26Y6419D02*
X2098Y8491D01*
X26Y6572D02*
X1945Y8491D01*
X26Y6724D02*
X1793Y8491D01*
X26Y6876D02*
X1641Y8491D01*
X26Y7029D02*
X1488Y8491D01*
X26Y7181D02*
X1336Y8491D01*
X26Y7334D02*
X1183Y8491D01*
X26Y7486D02*
X1031Y8491D01*
X26Y7638D02*
X878Y8491D01*
X26Y7791D02*
X726Y8491D01*
X26Y7943D02*
X574Y8491D01*
X49Y8119D02*
X398Y8468D01*
D20*
X3218Y983D02*
D03*
D21*
X5620Y1740D02*
D03*
X5620Y1340D02*
D03*
M02*
