G04*
G04 #@! TF.GenerationSoftware,Altium Limited,Altium Designer,20.2.5 (213)*
G04*
G04 Layer_Color=8388736*
%FSLAX42Y42*%
%MOMM*%
G71*
G04*
G04 #@! TF.SameCoordinates,6F224850-DB23-45E0-B5EC-48CDDA7698CB*
G04*
G04*
G04 #@! TF.FilePolarity,Negative*
G04*
G01*
G75*
G04:AMPARAMS|DCode=35|XSize=0.3mm|YSize=0.6mm|CornerRadius=0.05mm|HoleSize=0mm|Usage=FLASHONLY|Rotation=270.000|XOffset=0mm|YOffset=0mm|HoleType=Round|Shape=RoundedRectangle|*
%AMROUNDEDRECTD35*
21,1,0.30,0.50,0,0,270.0*
21,1,0.20,0.60,0,0,270.0*
1,1,0.10,-0.25,-0.10*
1,1,0.10,-0.25,0.10*
1,1,0.10,0.25,0.10*
1,1,0.10,0.25,-0.10*
%
%ADD35ROUNDEDRECTD35*%
%ADD42R,1.15X0.85*%
%ADD43R,1.00X1.00*%
%ADD44R,1.68X0.50*%
%ADD45R,0.50X1.68*%
G04:AMPARAMS|DCode=46|XSize=2.6mm|YSize=7.7mm|CornerRadius=0.15mm|HoleSize=0mm|Usage=FLASHONLY|Rotation=0.000|XOffset=0mm|YOffset=0mm|HoleType=Round|Shape=RoundedRectangle|*
%AMROUNDEDRECTD46*
21,1,2.60,7.40,0,0,0.0*
21,1,2.30,7.70,0,0,0.0*
1,1,0.30,1.15,-3.70*
1,1,0.30,-1.15,-3.70*
1,1,0.30,-1.15,3.70*
1,1,0.30,1.15,3.70*
%
%ADD46ROUNDEDRECTD46*%
%ADD47R,1.60X0.80*%
%ADD48R,2.00X0.80*%
%ADD49R,1.00X1.00*%
%ADD50R,1.30X0.60*%
G04:AMPARAMS|DCode=51|XSize=0.6mm|YSize=1.3mm|CornerRadius=0.2mm|HoleSize=0mm|Usage=FLASHONLY|Rotation=90.000|XOffset=0mm|YOffset=0mm|HoleType=Round|Shape=RoundedRectangle|*
%AMROUNDEDRECTD51*
21,1,0.60,0.90,0,0,90.0*
21,1,0.20,1.30,0,0,90.0*
1,1,0.40,0.45,0.10*
1,1,0.40,0.45,-0.10*
1,1,0.40,-0.45,-0.10*
1,1,0.40,-0.45,0.10*
%
%ADD51ROUNDEDRECTD51*%
%ADD52R,1.04X0.47*%
%ADD53R,1.83X1.63*%
%ADD54R,2.80X1.60*%
%ADD55R,0.70X0.70*%
%ADD56R,1.55X0.60*%
%ADD57R,1.20X1.70*%
%ADD58R,1.70X1.20*%
%ADD59R,1.00X0.80*%
%ADD60R,2.20X2.20*%
%ADD61C,1.70*%
G04:AMPARAMS|DCode=62|XSize=1.7mm|YSize=1.7mm|CornerRadius=0.33mm|HoleSize=0mm|Usage=FLASHONLY|Rotation=0.000|XOffset=0mm|YOffset=0mm|HoleType=Round|Shape=RoundedRectangle|*
%AMROUNDEDRECTD62*
21,1,1.70,1.05,0,0,0.0*
21,1,1.05,1.70,0,0,0.0*
1,1,0.65,0.53,-0.53*
1,1,0.65,-0.53,-0.53*
1,1,0.65,-0.53,0.53*
1,1,0.65,0.53,0.53*
%
%ADD62ROUNDEDRECTD62*%
%ADD63R,1.70X1.70*%
%ADD64C,2.79*%
%ADD65C,2.17*%
%ADD66C,0.60*%
%ADD67C,3.60*%
%ADD68C,0.65*%
%ADD69C,0.60*%
G36*
X4835Y1925D02*
X4734D01*
X4720Y1950D01*
X4698Y1978D01*
X4670Y2000D01*
X4639Y2017D01*
X4605Y2027D01*
X4570Y2031D01*
X4535Y2027D01*
X4501Y2017D01*
X4470Y2000D01*
X4442Y1978D01*
X4420Y1950D01*
X4406Y1925D01*
X4305D01*
Y2125D01*
X4835D01*
Y1925D01*
D02*
G37*
G36*
Y1575D02*
X4305D01*
Y1775D01*
X4406D01*
X4420Y1750D01*
X4442Y1722D01*
X4470Y1700D01*
X4501Y1683D01*
X4535Y1673D01*
X4570Y1669D01*
X4605Y1673D01*
X4639Y1683D01*
X4670Y1700D01*
X4698Y1722D01*
X4720Y1750D01*
X4734Y1775D01*
X4835D01*
Y1575D01*
D02*
G37*
G36*
X4825Y1320D02*
X4724D01*
X4710Y1345D01*
X4688Y1373D01*
X4660Y1395D01*
X4629Y1412D01*
X4595Y1422D01*
X4560Y1426D01*
X4525Y1422D01*
X4491Y1412D01*
X4460Y1395D01*
X4432Y1373D01*
X4410Y1345D01*
X4396Y1320D01*
X4295D01*
Y1520D01*
X4825D01*
Y1320D01*
D02*
G37*
G36*
X3875Y1252D02*
X3876Y1250D01*
X3877Y1248D01*
X3877Y1248D01*
Y1243D01*
X3935D01*
X3936Y1243D01*
X3938Y1242D01*
X3940Y1240D01*
X3940Y1238D01*
X3940Y1238D01*
Y1218D01*
X3940Y1217D01*
X3940Y1215D01*
X3938Y1213D01*
X3936Y1212D01*
X3935Y1212D01*
X3877D01*
Y1177D01*
X3935D01*
Y1177D01*
X3936Y1177D01*
X3938Y1177D01*
X3940Y1175D01*
X3940Y1173D01*
X3940Y1173D01*
Y1152D01*
X3940Y1152D01*
X3940Y1150D01*
X3938Y1148D01*
X3936Y1147D01*
X3935Y1148D01*
X3877D01*
Y1112D01*
X3935D01*
X3936Y1112D01*
X3938Y1112D01*
X3940Y1110D01*
X3940Y1108D01*
X3940Y1107D01*
Y1088D01*
X3940Y1087D01*
X3940Y1085D01*
X3938Y1083D01*
X3936Y1082D01*
X3935Y1082D01*
X3877D01*
Y1048D01*
X3935D01*
Y1048D01*
X3936Y1048D01*
X3938Y1047D01*
X3940Y1045D01*
X3940Y1043D01*
X3940Y1043D01*
Y1023D01*
X3940Y1022D01*
X3940Y1020D01*
X3938Y1018D01*
X3936Y1017D01*
X3935Y1018D01*
X3877D01*
Y1012D01*
X3877Y1012D01*
X3876Y1010D01*
X3875Y1008D01*
X3873Y1007D01*
X3872Y1007D01*
X3704D01*
Y1007D01*
X3704D01*
X3704Y1007D01*
X3702Y1008D01*
X3700Y1010D01*
X3699Y1012D01*
X3699Y1012D01*
X3699Y1248D01*
X3699Y1248D01*
X3699Y1248D01*
X3700Y1250D01*
X3702Y1252D01*
X3704Y1252D01*
X3704Y1252D01*
X3872Y1252D01*
Y1252D01*
X3873Y1252D01*
X3875Y1252D01*
D02*
G37*
G36*
X4825Y970D02*
X4295D01*
Y1170D01*
X4396D01*
X4410Y1145D01*
X4432Y1117D01*
X4460Y1095D01*
X4491Y1078D01*
X4525Y1068D01*
X4560Y1064D01*
X4595Y1068D01*
X4629Y1078D01*
X4660Y1095D01*
X4688Y1117D01*
X4710Y1145D01*
X4724Y1170D01*
X4825D01*
Y970D01*
D02*
G37*
G36*
X1404Y530D02*
X1405Y530D01*
X1406Y529D01*
X1408Y529D01*
X1409Y528D01*
X1410Y527D01*
X1475Y462D01*
X1476Y461D01*
X1476Y460D01*
X1477Y459D01*
X1477Y458D01*
X1478Y456D01*
X1478Y455D01*
Y395D01*
X1478Y394D01*
X1477Y392D01*
X1477Y391D01*
X1476Y390D01*
X1476Y389D01*
X1475Y388D01*
X1410Y323D01*
X1409Y322D01*
X1408Y321D01*
X1406Y321D01*
X1405Y320D01*
X1404Y320D01*
X1402Y320D01*
X1212D01*
X1211Y320D01*
X1210Y320D01*
X1209Y321D01*
X1207Y321D01*
X1206Y322D01*
X1205Y323D01*
X1140Y388D01*
X1139Y389D01*
X1139Y390D01*
X1138Y391D01*
X1138Y392D01*
X1137Y394D01*
X1137Y395D01*
Y455D01*
X1137Y456D01*
X1138Y458D01*
X1138Y459D01*
X1139Y460D01*
X1139Y461D01*
X1140Y462D01*
X1205Y527D01*
X1206Y528D01*
X1207Y529D01*
X1209Y529D01*
X1210Y530D01*
X1211Y530D01*
X1212Y530D01*
X1402D01*
X1404Y530D01*
D02*
G37*
D35*
X3910Y1227D02*
D03*
Y1162D02*
D03*
Y1098D02*
D03*
Y1032D02*
D03*
X3601D02*
D03*
Y1098D02*
D03*
Y1162D02*
D03*
Y1227D02*
D03*
D42*
X5202Y610D02*
D03*
X5432Y705D02*
D03*
Y515D02*
D03*
D43*
X5403Y315D02*
D03*
X5228D02*
D03*
X4102Y290D02*
D03*
X3927D02*
D03*
X4105Y457D02*
D03*
X3930D02*
D03*
X5293Y2110D02*
D03*
X5468D02*
D03*
X2485Y740D02*
D03*
X2310D02*
D03*
X2488Y905D02*
D03*
X2312D02*
D03*
X3255Y1143D02*
D03*
X3430D02*
D03*
X2542Y1432D02*
D03*
X2367D02*
D03*
X2365Y1267D02*
D03*
X2540D02*
D03*
X2365Y1598D02*
D03*
X2540D02*
D03*
X5753Y1065D02*
D03*
X5578D02*
D03*
X5293Y2275D02*
D03*
X5468D02*
D03*
X5578Y900D02*
D03*
X5753D02*
D03*
X5225Y143D02*
D03*
X5400D02*
D03*
D44*
X1176Y1675D02*
D03*
Y1625D02*
D03*
Y1575D02*
D03*
Y1525D02*
D03*
Y1475D02*
D03*
Y1425D02*
D03*
Y1375D02*
D03*
Y1325D02*
D03*
Y1275D02*
D03*
Y1225D02*
D03*
Y1175D02*
D03*
Y1125D02*
D03*
X2024D02*
D03*
Y1175D02*
D03*
Y1225D02*
D03*
Y1275D02*
D03*
Y1325D02*
D03*
Y1375D02*
D03*
Y1425D02*
D03*
Y1475D02*
D03*
Y1525D02*
D03*
Y1575D02*
D03*
Y1625D02*
D03*
Y1675D02*
D03*
D45*
X1325Y976D02*
D03*
X1375D02*
D03*
X1425D02*
D03*
X1475D02*
D03*
X1525D02*
D03*
X1575D02*
D03*
X1625D02*
D03*
X1675D02*
D03*
X1725D02*
D03*
X1775D02*
D03*
X1825D02*
D03*
X1875D02*
D03*
Y1824D02*
D03*
X1825D02*
D03*
X1775D02*
D03*
X1725D02*
D03*
X1675D02*
D03*
X1625D02*
D03*
X1575D02*
D03*
X1525D02*
D03*
X1475D02*
D03*
X1425D02*
D03*
X1375D02*
D03*
X1325D02*
D03*
D46*
X3490Y450D02*
D03*
X2870D02*
D03*
D47*
X1038Y575D02*
D03*
Y275D02*
D03*
D48*
X1057Y425D02*
D03*
D49*
X2725Y1783D02*
D03*
Y1958D02*
D03*
X5615Y528D02*
D03*
Y703D02*
D03*
X3568Y1957D02*
D03*
Y1782D02*
D03*
X2813Y1142D02*
D03*
Y967D02*
D03*
X3060Y1957D02*
D03*
Y1782D02*
D03*
X2890Y1957D02*
D03*
Y1782D02*
D03*
X2403Y530D02*
D03*
Y355D02*
D03*
X3400Y1783D02*
D03*
Y1958D02*
D03*
X4095Y1680D02*
D03*
Y1855D02*
D03*
X3430Y1328D02*
D03*
Y1503D02*
D03*
X4100Y1237D02*
D03*
Y1062D02*
D03*
X3230Y1783D02*
D03*
Y1958D02*
D03*
X1610Y577D02*
D03*
Y402D02*
D03*
X825Y576D02*
D03*
Y401D02*
D03*
X2260Y2302D02*
D03*
Y2127D02*
D03*
X2088Y2302D02*
D03*
Y2127D02*
D03*
X1425Y2302D02*
D03*
Y2127D02*
D03*
X1920Y2304D02*
D03*
Y2129D02*
D03*
X1745Y2302D02*
D03*
Y2127D02*
D03*
D50*
X3253Y1320D02*
D03*
Y1385D02*
D03*
Y1450D02*
D03*
Y1515D02*
D03*
X2783Y1320D02*
D03*
Y1385D02*
D03*
Y1450D02*
D03*
D51*
Y1515D02*
D03*
D52*
X1924Y555D02*
D03*
Y505D02*
D03*
Y455D02*
D03*
Y405D02*
D03*
X2211D02*
D03*
Y455D02*
D03*
Y505D02*
D03*
Y555D02*
D03*
D53*
X2067Y480D02*
D03*
D54*
X3820Y1500D02*
D03*
Y1960D02*
D03*
D55*
X4570Y1617D02*
D03*
Y2085D02*
D03*
X4560Y1012D02*
D03*
Y1480D02*
D03*
D56*
X522Y1380D02*
D03*
Y1315D02*
D03*
Y1250D02*
D03*
Y1185D02*
D03*
Y1120D02*
D03*
D57*
X1983Y175D02*
D03*
X2202D02*
D03*
D58*
X843Y2012D02*
D03*
Y2233D02*
D03*
X597Y2010D02*
D03*
Y2230D02*
D03*
D59*
X3303Y982D02*
D03*
X3412D02*
D03*
D60*
X5480Y1740D02*
D03*
X5080D02*
D03*
X5480Y1340D02*
D03*
X5080D02*
D03*
D61*
X4144Y2775D02*
D03*
X4398D02*
D03*
X4652D02*
D03*
X4906D02*
D03*
X5668D02*
D03*
X5414D02*
D03*
X5160D02*
D03*
Y2521D02*
D03*
X5414D02*
D03*
X5668D02*
D03*
X4906D02*
D03*
X4652D02*
D03*
X4398D02*
D03*
X4144D02*
D03*
X2112D02*
D03*
X1096D02*
D03*
X2366D02*
D03*
X1350D02*
D03*
X2620D02*
D03*
X1604D02*
D03*
X2874D02*
D03*
X1858D02*
D03*
X3128D02*
D03*
X3890D02*
D03*
X3636D02*
D03*
X3382D02*
D03*
Y2775D02*
D03*
X3636D02*
D03*
X3890D02*
D03*
X3128D02*
D03*
X1858D02*
D03*
X2874D02*
D03*
X1604D02*
D03*
X2620D02*
D03*
X1350D02*
D03*
X2366D02*
D03*
X1096D02*
D03*
X2112D02*
D03*
X842D02*
D03*
X6035Y1130D02*
D03*
X6035Y795D02*
D03*
D62*
X842Y2521D02*
D03*
D63*
X6289Y1130D02*
D03*
X6289Y795D02*
D03*
D64*
X255Y1610D02*
D03*
Y890D02*
D03*
D65*
X535Y1580D02*
D03*
Y920D02*
D03*
D66*
X445Y1445D02*
D03*
Y1055D02*
D03*
D67*
X350Y2650D02*
D03*
Y350D02*
D03*
X6150D02*
D03*
Y2650D02*
D03*
D68*
X3803Y288D02*
D03*
X5124Y409D02*
D03*
X4580Y142D02*
D03*
X4400Y390D02*
D03*
X5150Y1018D02*
D03*
X5850Y1339D02*
D03*
X4967Y2090D02*
D03*
X4628Y1180D02*
D03*
X3715Y2185D02*
D03*
X1817Y630D02*
D03*
X3506Y2317D02*
D03*
X2110Y518D02*
D03*
X653Y1082D02*
D03*
X1680Y1542D02*
D03*
X1706Y1653D02*
D03*
X1489Y1574D02*
D03*
X1360Y1225D02*
D03*
X1998Y1733D02*
D03*
X2512Y173D02*
D03*
X2108Y443D02*
D03*
X2020D02*
D03*
X2023Y515D02*
D03*
X3512Y1652D02*
D03*
X3130Y1080D02*
D03*
X3042D02*
D03*
X3048Y1675D02*
D03*
X3450Y1610D02*
D03*
X3595Y1648D02*
D03*
X2650Y1515D02*
D03*
X2648Y1595D02*
D03*
X2677Y1332D02*
D03*
X5705Y1670D02*
D03*
X1338Y1541D02*
D03*
X1355Y1457D02*
D03*
X1775Y1598D02*
D03*
X2642Y1432D02*
D03*
X2595Y1780D02*
D03*
X2317Y1143D02*
D03*
X1488Y1132D02*
D03*
X2320Y1060D02*
D03*
X2636Y1272D02*
D03*
X1962Y968D02*
D03*
X1377Y788D02*
D03*
X2679Y845D02*
D03*
X700Y575D02*
D03*
X1352Y1323D02*
D03*
X1498Y672D02*
D03*
X1770Y285D02*
D03*
X1248Y710D02*
D03*
X1223Y788D02*
D03*
X1425Y728D02*
D03*
X1808Y370D02*
D03*
X1762Y450D02*
D03*
X2283Y600D02*
D03*
X1060Y1127D02*
D03*
X825Y130D02*
D03*
X843Y1808D02*
D03*
X660Y1390D02*
D03*
X955Y1840D02*
D03*
X1050Y1532D02*
D03*
X1035Y1758D02*
D03*
X2173Y1683D02*
D03*
D69*
X3780Y1227D02*
D03*
X3871D02*
D03*
Y1032D02*
D03*
X3825Y1130D02*
D03*
X3780Y1032D02*
D03*
X3735Y1130D02*
D03*
X3916D02*
D03*
M02*
