G04*
G04 #@! TF.GenerationSoftware,Altium Limited,Altium Designer,20.2.5 (213)*
G04*
G04 Layer_Color=128*
%FSLAX42Y42*%
%MOMM*%
G71*
G04*
G04 #@! TF.SameCoordinates,6F224850-DB23-45E0-B5EC-48CDDA7698CB*
G04*
G04*
G04 #@! TF.FilePolarity,Positive*
G04*
G01*
G75*
%ADD23R,1.05X0.75*%
%ADD24R,0.90X0.90*%
%ADD30R,0.90X0.90*%
%ADD111R,1.40X1.50*%
%ADD112R,1.70X1.50*%
%ADD113R,1.75X1.12*%
%ADD114R,1.12X1.50*%
D23*
X6053Y1770D02*
D03*
X6283Y1675D02*
D03*
Y1865D02*
D03*
D24*
X6105Y1500D02*
D03*
X6280D02*
D03*
X6100Y2233D02*
D03*
X6275D02*
D03*
X6275Y2065D02*
D03*
X6100D02*
D03*
X1650Y1243D02*
D03*
X1475D02*
D03*
X1650Y1415D02*
D03*
X1475D02*
D03*
X785Y885D02*
D03*
X960D02*
D03*
X788Y1218D02*
D03*
X962D02*
D03*
X785Y1383D02*
D03*
X960D02*
D03*
X960Y1550D02*
D03*
X785D02*
D03*
X2427Y1647D02*
D03*
X2252D02*
D03*
X2773Y1180D02*
D03*
X2948D02*
D03*
X2770Y845D02*
D03*
X2945D02*
D03*
X2947Y1013D02*
D03*
X2772D02*
D03*
X4730Y313D02*
D03*
X4555D02*
D03*
X960Y1053D02*
D03*
X785D02*
D03*
X2770Y1510D02*
D03*
X2945D02*
D03*
X5002Y2283D02*
D03*
X4827D02*
D03*
X4555Y485D02*
D03*
X4730D02*
D03*
X2427Y1812D02*
D03*
X2252D02*
D03*
X2947Y1675D02*
D03*
X2772D02*
D03*
X2948Y1345D02*
D03*
X2773D02*
D03*
X2945Y155D02*
D03*
X2770D02*
D03*
D30*
X4020Y2108D02*
D03*
Y2283D02*
D03*
X1655Y748D02*
D03*
Y923D02*
D03*
X1825Y753D02*
D03*
Y928D02*
D03*
X532Y1365D02*
D03*
Y1190D02*
D03*
X448Y2083D02*
D03*
Y2258D02*
D03*
X1750Y2265D02*
D03*
Y2090D02*
D03*
X1577Y2265D02*
D03*
Y2090D02*
D03*
X1300Y2262D02*
D03*
Y2088D02*
D03*
D111*
X5033Y740D02*
D03*
X5237D02*
D03*
X5318Y2088D02*
D03*
X5115D02*
D03*
D112*
X690Y2255D02*
D03*
X1110D02*
D03*
Y2025D02*
D03*
X690D02*
D03*
D113*
X5635Y1530D02*
D03*
Y1835D02*
D03*
X5347Y1527D02*
D03*
Y1832D02*
D03*
X4110Y1523D02*
D03*
Y1827D02*
D03*
X4392Y1525D02*
D03*
Y1830D02*
D03*
X4680Y1525D02*
D03*
Y1830D02*
D03*
X4970Y1525D02*
D03*
Y1830D02*
D03*
X5635Y980D02*
D03*
Y1285D02*
D03*
X5345Y980D02*
D03*
Y1285D02*
D03*
X4970Y985D02*
D03*
Y1290D02*
D03*
X4680Y985D02*
D03*
Y1290D02*
D03*
X4392Y985D02*
D03*
Y1290D02*
D03*
X4110Y985D02*
D03*
Y1290D02*
D03*
D114*
X2958Y370D02*
D03*
X2767D02*
D03*
X2960Y620D02*
D03*
X2769D02*
D03*
M02*
