G04*
G04 #@! TF.GenerationSoftware,Altium Limited,Altium Designer,20.2.5 (213)*
G04*
G04 Layer_Physical_Order=3*
G04 Layer_Color=16440176*
%FSLAX42Y42*%
%MOMM*%
G71*
G04*
G04 #@! TF.SameCoordinates,6F224850-DB23-45E0-B5EC-48CDDA7698CB*
G04*
G04*
G04 #@! TF.FilePolarity,Positive*
G04*
G01*
G75*
%ADD91C,0.51*%
%ADD93C,0.30*%
%ADD95C,1.50*%
%ADD101C,0.45*%
D91*
X1115Y285D02*
X1770D01*
X905Y495D02*
X1115Y285D01*
X905Y495D02*
Y1310D01*
X843Y1373D02*
Y1808D01*
Y1373D02*
X905Y1310D01*
X825Y130D02*
Y1225D01*
X660Y1390D02*
X825Y1225D01*
D93*
X4047Y743D02*
X4400Y390D01*
X3775Y743D02*
X4047D01*
X3130Y1080D02*
X3438D01*
X3775Y743D01*
X1511Y686D02*
X2431D01*
X1498Y672D02*
X1511Y686D01*
X2431D02*
X3717Y1973D01*
X1432Y734D02*
X2404D01*
X1425Y728D02*
X1432Y734D01*
X2404D02*
X3647Y1977D01*
X3715Y2188D02*
X3717Y2185D01*
Y1973D02*
Y2185D01*
X3042Y1080D02*
X3450Y1488D01*
Y1610D01*
X3128Y1673D02*
Y2521D01*
X1177Y912D02*
X2367D01*
X3128Y1673D01*
X2485Y1127D02*
Y1673D01*
X2590Y1777D01*
X2200Y975D02*
X2333D01*
X2485Y1127D01*
X1488Y1132D02*
X2042D01*
X2200Y975D01*
X2392Y1132D02*
Y1912D01*
X2320Y1060D02*
X2392Y1132D01*
X2317Y1143D02*
Y1808D01*
X1975Y2330D02*
X2392Y1912D01*
X1735Y2390D02*
X2317Y1808D01*
X1143Y745D02*
Y877D01*
X1177Y912D01*
X3267Y1738D02*
Y2605D01*
X1338Y855D02*
X2385D01*
X3267Y1738D01*
X2386Y788D02*
X3382Y1783D01*
X1377Y788D02*
X2386D01*
X3382Y1783D02*
Y2521D01*
X1177Y710D02*
X1248D01*
X1143Y745D02*
X1177Y710D01*
X1268Y785D02*
X1338Y855D01*
X1268Y785D02*
Y785D01*
X2434Y600D02*
X2679Y845D01*
X3647Y1977D02*
Y2308D01*
X3267Y2605D02*
X3310Y2648D01*
X3510D02*
X3636Y2521D01*
X3310Y2648D02*
X3510D01*
X3647Y2308D02*
X3753Y2412D01*
Y2420D01*
X3636Y2751D02*
Y2775D01*
Y2751D02*
X3758Y2630D01*
X3753Y2420D02*
X3758Y2425D01*
Y2630D01*
X2283Y600D02*
X2434D01*
X1975Y2330D02*
Y2655D01*
X1735Y2390D02*
Y2635D01*
X1604Y2766D02*
Y2775D01*
Y2766D02*
X1735Y2635D01*
X1858Y2772D02*
Y2775D01*
Y2772D02*
X1975Y2655D01*
X1602Y450D02*
X1762D01*
X1268Y785D02*
X1602Y450D01*
X1223Y788D02*
X1225Y785D01*
X1268D01*
X1248Y710D02*
X1588Y370D01*
X1808D01*
D95*
X3128Y2521D02*
D03*
X3636D02*
D03*
X3382D02*
D03*
X3636Y2775D02*
D03*
X1858D02*
D03*
X1604D02*
D03*
D101*
X4400Y390D02*
D03*
X3715Y2185D02*
D03*
X3130Y1080D02*
D03*
X3042D02*
D03*
X3450Y1610D02*
D03*
X2595Y1780D02*
D03*
X2317Y1143D02*
D03*
X1488Y1132D02*
D03*
X2320Y1060D02*
D03*
X1377Y788D02*
D03*
X2679Y845D02*
D03*
X1498Y672D02*
D03*
X1770Y285D02*
D03*
X1248Y710D02*
D03*
X1223Y788D02*
D03*
X1425Y728D02*
D03*
X1808Y370D02*
D03*
X1762Y450D02*
D03*
X2283Y600D02*
D03*
X825Y130D02*
D03*
X843Y1808D02*
D03*
X660Y1390D02*
D03*
M02*
