G04*
G04 #@! TF.GenerationSoftware,Altium Limited,Altium Designer,20.2.5 (213)*
G04*
G04 Layer_Physical_Order=2*
G04 Layer_Color=36540*
%FSLAX42Y42*%
%MOMM*%
G71*
G04*
G04 #@! TF.SameCoordinates,6F224850-DB23-45E0-B5EC-48CDDA7698CB*
G04*
G04*
G04 #@! TF.FilePolarity,Positive*
G04*
G01*
G75*
%ADD93C,0.30*%
%ADD95C,1.50*%
%ADD98C,2.59*%
%ADD99C,1.97*%
%ADD101C,0.45*%
G36*
X6250Y2950D02*
X6297Y2935D01*
X6341Y2912D01*
X6380Y2880D01*
X6412Y2841D01*
X6435Y2797D01*
X6450Y2750D01*
X6454Y2703D01*
X6454Y2700D01*
Y300D01*
X6454Y297D01*
X6450Y250D01*
X6435Y203D01*
X6412Y159D01*
X6380Y120D01*
X6341Y88D01*
X6297Y65D01*
X6250Y50D01*
X6201Y46D01*
X6200Y46D01*
Y46D01*
X6195Y45D01*
X305D01*
X300Y46D01*
Y46D01*
X299Y46D01*
X250Y50D01*
X203Y65D01*
X159Y88D01*
X120Y120D01*
X88Y159D01*
X65Y203D01*
X50Y250D01*
X47Y287D01*
X46Y300D01*
X46D01*
Y2700D01*
X46Y2703D01*
X50Y2750D01*
X65Y2797D01*
X88Y2841D01*
X120Y2880D01*
X159Y2912D01*
X203Y2935D01*
X250Y2950D01*
X287Y2953D01*
X300Y2954D01*
X300Y2954D01*
X313Y2954D01*
X6200D01*
X6203Y2954D01*
X6250Y2950D01*
D02*
G37*
%LPC*%
G36*
X4919Y2875D02*
Y2788D01*
X5006D01*
X5004Y2801D01*
X4994Y2826D01*
X4978Y2847D01*
X4957Y2863D01*
X4932Y2873D01*
X4919Y2875D01*
D02*
G37*
G36*
X4893D02*
X4880Y2873D01*
X4855Y2863D01*
X4834Y2847D01*
X4818Y2826D01*
X4808Y2801D01*
X4806Y2788D01*
X4893D01*
Y2875D01*
D02*
G37*
G36*
X4411D02*
Y2788D01*
X4498D01*
X4496Y2801D01*
X4486Y2826D01*
X4470Y2847D01*
X4449Y2863D01*
X4424Y2873D01*
X4411Y2875D01*
D02*
G37*
G36*
X4385D02*
X4372Y2873D01*
X4347Y2863D01*
X4326Y2847D01*
X4310Y2826D01*
X4300Y2801D01*
X4298Y2788D01*
X4385D01*
Y2875D01*
D02*
G37*
G36*
X3141D02*
Y2788D01*
X3228D01*
X3226Y2801D01*
X3216Y2826D01*
X3200Y2847D01*
X3179Y2863D01*
X3154Y2873D01*
X3141Y2875D01*
D02*
G37*
G36*
X3115D02*
X3102Y2873D01*
X3077Y2863D01*
X3056Y2847D01*
X3040Y2826D01*
X3030Y2801D01*
X3028Y2788D01*
X3115D01*
Y2875D01*
D02*
G37*
G36*
X1363D02*
Y2788D01*
X1450D01*
X1448Y2801D01*
X1438Y2826D01*
X1422Y2847D01*
X1401Y2863D01*
X1376Y2873D01*
X1363Y2875D01*
D02*
G37*
G36*
X1337D02*
X1324Y2873D01*
X1299Y2863D01*
X1278Y2847D01*
X1262Y2826D01*
X1252Y2801D01*
X1250Y2788D01*
X1337D01*
Y2875D01*
D02*
G37*
G36*
X5668Y2876D02*
X5642Y2873D01*
X5617Y2863D01*
X5596Y2847D01*
X5580Y2826D01*
X5570Y2801D01*
X5567Y2775D01*
X5570Y2749D01*
X5570Y2749D01*
X5508Y2686D01*
X5484D01*
X5480Y2699D01*
X5486Y2703D01*
X5502Y2724D01*
X5512Y2749D01*
X5515Y2775D01*
X5512Y2801D01*
X5502Y2826D01*
X5486Y2847D01*
X5465Y2863D01*
X5440Y2873D01*
X5414Y2876D01*
X5388Y2873D01*
X5363Y2863D01*
X5342Y2847D01*
X5326Y2826D01*
X5316Y2801D01*
X5313Y2775D01*
X5316Y2749D01*
X5326Y2724D01*
X5342Y2703D01*
X5348Y2699D01*
X5346Y2689D01*
X5344Y2686D01*
X5329Y2683D01*
X5316Y2674D01*
X5246Y2604D01*
X5242Y2599D01*
X5241Y2598D01*
X5226Y2597D01*
X5211Y2609D01*
X5186Y2619D01*
X5160Y2622D01*
X5134Y2619D01*
X5109Y2609D01*
X5088Y2593D01*
X5072Y2572D01*
X5062Y2547D01*
X5059Y2521D01*
X5062Y2495D01*
X5072Y2470D01*
X5088Y2449D01*
X5109Y2433D01*
X5134Y2423D01*
X5160Y2420D01*
X5186Y2423D01*
X5211Y2433D01*
X5221Y2441D01*
X5234Y2435D01*
Y2336D01*
X5017Y2119D01*
X5005Y2121D01*
X5002Y2125D01*
X4986Y2135D01*
X4967Y2139D01*
X4949Y2135D01*
X4933Y2125D01*
X4922Y2109D01*
X4919Y2090D01*
X4922Y2071D01*
X4933Y2055D01*
X4937Y2053D01*
X4938Y2040D01*
X4372Y1474D01*
X2719D01*
X2715Y1484D01*
X2715Y1487D01*
X2955Y1726D01*
X3015D01*
X3019Y1713D01*
X3013Y1710D01*
X3002Y1694D01*
X2999Y1675D01*
X3002Y1656D01*
X3013Y1640D01*
X3029Y1630D01*
X3048Y1626D01*
X3066Y1630D01*
X3082Y1640D01*
X3093Y1656D01*
X3096Y1675D01*
X3093Y1694D01*
X3082Y1710D01*
X3076Y1713D01*
X3080Y1726D01*
X3380D01*
X3438Y1668D01*
X3435Y1656D01*
X3431Y1655D01*
X3415Y1645D01*
X3405Y1629D01*
X3401Y1610D01*
X3405Y1591D01*
X3415Y1575D01*
X3431Y1565D01*
X3450Y1561D01*
X3469Y1565D01*
X3485Y1575D01*
X3495Y1591D01*
X3498Y1607D01*
X3512Y1604D01*
X3531Y1607D01*
X3543Y1616D01*
X3559Y1615D01*
X3560Y1613D01*
X3576Y1602D01*
X3595Y1599D01*
X3614Y1602D01*
X3630Y1613D01*
X3640Y1629D01*
X3644Y1648D01*
X3640Y1666D01*
X3630Y1682D01*
X3614Y1693D01*
X3595Y1696D01*
X3576Y1693D01*
X3564Y1684D01*
X3548Y1685D01*
X3547Y1687D01*
X3531Y1698D01*
X3525Y1699D01*
X3439Y1784D01*
X3444Y1796D01*
X4208D01*
X4223Y1799D01*
X4237Y1808D01*
X4427Y1999D01*
X4436Y2012D01*
X4439Y2028D01*
Y2429D01*
X4449Y2433D01*
X4470Y2449D01*
X4486Y2470D01*
X4496Y2495D01*
X4499Y2521D01*
X4496Y2547D01*
X4486Y2572D01*
X4470Y2593D01*
X4449Y2609D01*
X4424Y2619D01*
X4398Y2622D01*
X4372Y2619D01*
X4347Y2609D01*
X4326Y2593D01*
X4310Y2572D01*
X4300Y2547D01*
X4297Y2521D01*
X4300Y2495D01*
X4310Y2470D01*
X4326Y2449D01*
X4347Y2433D01*
X4357Y2429D01*
Y2045D01*
X4190Y1879D01*
X2890D01*
X2874Y1876D01*
X2861Y1867D01*
X2635Y1641D01*
X2629Y1640D01*
X2613Y1630D01*
X2602Y1614D01*
X2599Y1595D01*
X2602Y1576D01*
X2613Y1560D01*
X2613Y1545D01*
X2605Y1534D01*
X2601Y1515D01*
X2605Y1496D01*
X2612Y1486D01*
X2611Y1469D01*
X2607Y1467D01*
X2597Y1451D01*
X2593Y1432D01*
X2597Y1414D01*
X2607Y1398D01*
X2623Y1387D01*
X2642Y1384D01*
X2646Y1385D01*
X2651Y1373D01*
X2643Y1367D01*
X2632Y1351D01*
X2629Y1332D01*
X2631Y1320D01*
X2617Y1317D01*
X2601Y1306D01*
X2590Y1291D01*
X2587Y1272D01*
X2590Y1253D01*
X2601Y1237D01*
X2617Y1227D01*
X2636Y1223D01*
X2651Y1226D01*
X3483D01*
X3498Y1229D01*
X3512Y1238D01*
X3597Y1324D01*
X4625D01*
X4641Y1327D01*
X4654Y1336D01*
X5443Y2125D01*
X5452Y2138D01*
X5455Y2154D01*
Y2429D01*
X5465Y2433D01*
X5486Y2449D01*
X5502Y2470D01*
X5512Y2495D01*
X5515Y2521D01*
X5512Y2547D01*
X5502Y2572D01*
X5487Y2591D01*
X5490Y2604D01*
X5525D01*
X5541Y2607D01*
X5554Y2616D01*
X5623Y2685D01*
X5642Y2677D01*
X5668Y2674D01*
X5694Y2677D01*
X5719Y2687D01*
X5740Y2703D01*
X5756Y2724D01*
X5766Y2749D01*
X5769Y2775D01*
X5766Y2801D01*
X5756Y2826D01*
X5740Y2847D01*
X5719Y2863D01*
X5694Y2873D01*
X5668Y2876D01*
D02*
G37*
G36*
X5006Y2762D02*
X4919D01*
Y2675D01*
X4932Y2677D01*
X4957Y2687D01*
X4978Y2703D01*
X4994Y2724D01*
X5004Y2749D01*
X5006Y2762D01*
D02*
G37*
G36*
X4893D02*
X4806D01*
X4808Y2749D01*
X4818Y2724D01*
X4834Y2703D01*
X4855Y2687D01*
X4880Y2677D01*
X4893Y2675D01*
Y2762D01*
D02*
G37*
G36*
X4498D02*
X4411D01*
Y2675D01*
X4424Y2677D01*
X4449Y2687D01*
X4470Y2703D01*
X4486Y2724D01*
X4496Y2749D01*
X4498Y2762D01*
D02*
G37*
G36*
X4385D02*
X4298D01*
X4300Y2749D01*
X4310Y2724D01*
X4326Y2703D01*
X4347Y2687D01*
X4372Y2677D01*
X4385Y2675D01*
Y2762D01*
D02*
G37*
G36*
X3228D02*
X3141D01*
Y2675D01*
X3154Y2677D01*
X3179Y2687D01*
X3200Y2703D01*
X3216Y2724D01*
X3226Y2749D01*
X3228Y2762D01*
D02*
G37*
G36*
X3115D02*
X3028D01*
X3030Y2749D01*
X3040Y2724D01*
X3056Y2703D01*
X3077Y2687D01*
X3102Y2677D01*
X3115Y2675D01*
Y2762D01*
D02*
G37*
G36*
X1450D02*
X1363D01*
Y2675D01*
X1376Y2677D01*
X1401Y2687D01*
X1422Y2703D01*
X1438Y2724D01*
X1448Y2749D01*
X1450Y2762D01*
D02*
G37*
G36*
X1337D02*
X1250D01*
X1252Y2749D01*
X1262Y2724D01*
X1278Y2703D01*
X1299Y2687D01*
X1324Y2677D01*
X1337Y2675D01*
Y2762D01*
D02*
G37*
G36*
X5160Y2876D02*
X5134Y2873D01*
X5109Y2863D01*
X5088Y2847D01*
X5072Y2826D01*
X5062Y2801D01*
X5059Y2775D01*
X5062Y2749D01*
X5072Y2724D01*
X5088Y2703D01*
X5109Y2687D01*
X5134Y2677D01*
X5160Y2674D01*
X5186Y2677D01*
X5211Y2687D01*
X5232Y2703D01*
X5248Y2724D01*
X5258Y2749D01*
X5261Y2775D01*
X5258Y2801D01*
X5248Y2826D01*
X5232Y2847D01*
X5211Y2863D01*
X5186Y2873D01*
X5160Y2876D01*
D02*
G37*
G36*
X4652D02*
X4626Y2873D01*
X4601Y2863D01*
X4580Y2847D01*
X4564Y2826D01*
X4554Y2801D01*
X4551Y2775D01*
X4554Y2749D01*
X4564Y2724D01*
X4580Y2703D01*
X4601Y2687D01*
X4626Y2677D01*
X4652Y2674D01*
X4678Y2677D01*
X4703Y2687D01*
X4724Y2703D01*
X4740Y2724D01*
X4750Y2749D01*
X4753Y2775D01*
X4750Y2801D01*
X4740Y2826D01*
X4724Y2847D01*
X4703Y2863D01*
X4678Y2873D01*
X4652Y2876D01*
D02*
G37*
G36*
X4144D02*
X4118Y2873D01*
X4093Y2863D01*
X4072Y2847D01*
X4056Y2826D01*
X4046Y2801D01*
X4043Y2775D01*
X4046Y2749D01*
X4056Y2724D01*
X4072Y2703D01*
X4093Y2687D01*
X4118Y2677D01*
X4144Y2674D01*
X4170Y2677D01*
X4195Y2687D01*
X4216Y2703D01*
X4232Y2724D01*
X4242Y2749D01*
X4245Y2775D01*
X4242Y2801D01*
X4232Y2826D01*
X4216Y2847D01*
X4195Y2863D01*
X4170Y2873D01*
X4144Y2876D01*
D02*
G37*
G36*
X3890D02*
X3864Y2873D01*
X3839Y2863D01*
X3818Y2847D01*
X3802Y2826D01*
X3792Y2801D01*
X3789Y2775D01*
X3792Y2749D01*
X3802Y2724D01*
X3818Y2703D01*
X3839Y2687D01*
X3864Y2677D01*
X3890Y2674D01*
X3916Y2677D01*
X3941Y2687D01*
X3962Y2703D01*
X3978Y2724D01*
X3988Y2749D01*
X3991Y2775D01*
X3988Y2801D01*
X3978Y2826D01*
X3962Y2847D01*
X3941Y2863D01*
X3916Y2873D01*
X3890Y2876D01*
D02*
G37*
G36*
X3636D02*
X3610Y2873D01*
X3585Y2863D01*
X3564Y2847D01*
X3548Y2826D01*
X3538Y2801D01*
X3535Y2775D01*
X3538Y2749D01*
X3548Y2724D01*
X3564Y2703D01*
X3585Y2687D01*
X3610Y2677D01*
X3636Y2674D01*
X3662Y2677D01*
X3687Y2687D01*
X3708Y2703D01*
X3724Y2724D01*
X3734Y2749D01*
X3737Y2775D01*
X3734Y2801D01*
X3724Y2826D01*
X3708Y2847D01*
X3687Y2863D01*
X3662Y2873D01*
X3636Y2876D01*
D02*
G37*
G36*
X3382D02*
X3356Y2873D01*
X3331Y2863D01*
X3310Y2847D01*
X3294Y2826D01*
X3284Y2801D01*
X3281Y2775D01*
X3284Y2749D01*
X3294Y2724D01*
X3310Y2703D01*
X3331Y2687D01*
X3356Y2677D01*
X3382Y2674D01*
X3408Y2677D01*
X3433Y2687D01*
X3454Y2703D01*
X3470Y2724D01*
X3480Y2749D01*
X3483Y2775D01*
X3480Y2801D01*
X3470Y2826D01*
X3454Y2847D01*
X3433Y2863D01*
X3408Y2873D01*
X3382Y2876D01*
D02*
G37*
G36*
X2874D02*
X2848Y2873D01*
X2823Y2863D01*
X2802Y2847D01*
X2786Y2826D01*
X2776Y2801D01*
X2773Y2775D01*
X2776Y2749D01*
X2786Y2724D01*
X2802Y2703D01*
X2823Y2687D01*
X2848Y2677D01*
X2874Y2674D01*
X2900Y2677D01*
X2925Y2687D01*
X2946Y2703D01*
X2962Y2724D01*
X2972Y2749D01*
X2975Y2775D01*
X2972Y2801D01*
X2962Y2826D01*
X2946Y2847D01*
X2925Y2863D01*
X2900Y2873D01*
X2874Y2876D01*
D02*
G37*
G36*
X2620D02*
X2594Y2873D01*
X2569Y2863D01*
X2548Y2847D01*
X2532Y2826D01*
X2522Y2801D01*
X2519Y2775D01*
X2522Y2749D01*
X2532Y2724D01*
X2548Y2703D01*
X2569Y2687D01*
X2594Y2677D01*
X2620Y2674D01*
X2646Y2677D01*
X2671Y2687D01*
X2692Y2703D01*
X2708Y2724D01*
X2718Y2749D01*
X2721Y2775D01*
X2718Y2801D01*
X2708Y2826D01*
X2692Y2847D01*
X2671Y2863D01*
X2646Y2873D01*
X2620Y2876D01*
D02*
G37*
G36*
X2366D02*
X2340Y2873D01*
X2315Y2863D01*
X2294Y2847D01*
X2278Y2826D01*
X2268Y2801D01*
X2265Y2775D01*
X2268Y2749D01*
X2278Y2724D01*
X2294Y2703D01*
X2315Y2687D01*
X2340Y2677D01*
X2366Y2674D01*
X2392Y2677D01*
X2417Y2687D01*
X2438Y2703D01*
X2454Y2724D01*
X2464Y2749D01*
X2467Y2775D01*
X2464Y2801D01*
X2454Y2826D01*
X2438Y2847D01*
X2417Y2863D01*
X2392Y2873D01*
X2366Y2876D01*
D02*
G37*
G36*
X2112D02*
X2086Y2873D01*
X2061Y2863D01*
X2040Y2847D01*
X2024Y2826D01*
X2014Y2801D01*
X2011Y2775D01*
X2014Y2749D01*
X2024Y2724D01*
X2040Y2703D01*
X2061Y2687D01*
X2086Y2677D01*
X2112Y2674D01*
X2138Y2677D01*
X2163Y2687D01*
X2184Y2703D01*
X2200Y2724D01*
X2210Y2749D01*
X2213Y2775D01*
X2210Y2801D01*
X2200Y2826D01*
X2184Y2847D01*
X2163Y2863D01*
X2138Y2873D01*
X2112Y2876D01*
D02*
G37*
G36*
X1858D02*
X1832Y2873D01*
X1807Y2863D01*
X1786Y2847D01*
X1770Y2826D01*
X1760Y2801D01*
X1757Y2775D01*
X1760Y2749D01*
X1770Y2724D01*
X1786Y2703D01*
X1807Y2687D01*
X1832Y2677D01*
X1858Y2674D01*
X1884Y2677D01*
X1909Y2687D01*
X1930Y2703D01*
X1946Y2724D01*
X1956Y2749D01*
X1959Y2775D01*
X1956Y2801D01*
X1946Y2826D01*
X1930Y2847D01*
X1909Y2863D01*
X1884Y2873D01*
X1858Y2876D01*
D02*
G37*
G36*
X1604D02*
X1578Y2873D01*
X1553Y2863D01*
X1532Y2847D01*
X1516Y2826D01*
X1506Y2801D01*
X1503Y2775D01*
X1506Y2749D01*
X1516Y2724D01*
X1532Y2703D01*
X1553Y2687D01*
X1578Y2677D01*
X1604Y2674D01*
X1630Y2677D01*
X1655Y2687D01*
X1676Y2703D01*
X1692Y2724D01*
X1702Y2749D01*
X1705Y2775D01*
X1702Y2801D01*
X1692Y2826D01*
X1676Y2847D01*
X1655Y2863D01*
X1630Y2873D01*
X1604Y2876D01*
D02*
G37*
G36*
X1096D02*
X1070Y2873D01*
X1045Y2863D01*
X1024Y2847D01*
X1008Y2826D01*
X998Y2801D01*
X995Y2775D01*
X998Y2749D01*
X1008Y2724D01*
X1024Y2703D01*
X1045Y2687D01*
X1070Y2677D01*
X1096Y2674D01*
X1122Y2677D01*
X1147Y2687D01*
X1168Y2703D01*
X1184Y2724D01*
X1194Y2749D01*
X1197Y2775D01*
X1194Y2801D01*
X1184Y2826D01*
X1168Y2847D01*
X1147Y2863D01*
X1122Y2873D01*
X1096Y2876D01*
D02*
G37*
G36*
X842D02*
X816Y2873D01*
X791Y2863D01*
X770Y2847D01*
X754Y2826D01*
X744Y2801D01*
X741Y2775D01*
X744Y2749D01*
X754Y2724D01*
X770Y2703D01*
X791Y2687D01*
X816Y2677D01*
X842Y2674D01*
X868Y2677D01*
X893Y2687D01*
X914Y2703D01*
X930Y2724D01*
X940Y2749D01*
X943Y2775D01*
X940Y2801D01*
X930Y2826D01*
X914Y2847D01*
X893Y2863D01*
X868Y2873D01*
X842Y2876D01*
D02*
G37*
G36*
X5681Y2621D02*
Y2534D01*
X5768D01*
X5766Y2547D01*
X5756Y2572D01*
X5740Y2593D01*
X5719Y2609D01*
X5694Y2619D01*
X5681Y2621D01*
D02*
G37*
G36*
X5655D02*
X5642Y2619D01*
X5617Y2609D01*
X5596Y2593D01*
X5580Y2572D01*
X5570Y2547D01*
X5568Y2534D01*
X5655D01*
Y2621D01*
D02*
G37*
G36*
X3903D02*
Y2534D01*
X3990D01*
X3988Y2547D01*
X3978Y2572D01*
X3962Y2593D01*
X3941Y2609D01*
X3916Y2619D01*
X3903Y2621D01*
D02*
G37*
G36*
X3877D02*
X3864Y2619D01*
X3839Y2609D01*
X3818Y2593D01*
X3802Y2572D01*
X3792Y2547D01*
X3790Y2534D01*
X3877D01*
Y2621D01*
D02*
G37*
G36*
X1871D02*
Y2534D01*
X1958D01*
X1956Y2547D01*
X1946Y2572D01*
X1930Y2593D01*
X1909Y2609D01*
X1884Y2619D01*
X1871Y2621D01*
D02*
G37*
G36*
X1845D02*
X1832Y2619D01*
X1807Y2609D01*
X1786Y2593D01*
X1770Y2572D01*
X1760Y2547D01*
X1758Y2534D01*
X1845D01*
Y2621D01*
D02*
G37*
G36*
X6150Y2816D02*
X6118Y2813D01*
X6086Y2804D01*
X6058Y2788D01*
X6032Y2768D01*
X6012Y2742D01*
X5996Y2714D01*
X5987Y2682D01*
X5984Y2650D01*
X5987Y2618D01*
X5996Y2586D01*
X6012Y2558D01*
X6032Y2532D01*
X6058Y2512D01*
X6086Y2496D01*
X6118Y2487D01*
X6150Y2484D01*
X6182Y2487D01*
X6214Y2496D01*
X6242Y2512D01*
X6268Y2532D01*
X6288Y2558D01*
X6304Y2586D01*
X6313Y2618D01*
X6316Y2650D01*
X6313Y2682D01*
X6304Y2714D01*
X6288Y2742D01*
X6268Y2768D01*
X6242Y2788D01*
X6214Y2804D01*
X6182Y2813D01*
X6150Y2816D01*
D02*
G37*
G36*
X350D02*
X318Y2813D01*
X286Y2804D01*
X258Y2788D01*
X232Y2768D01*
X212Y2742D01*
X196Y2714D01*
X187Y2682D01*
X184Y2650D01*
X187Y2618D01*
X196Y2586D01*
X212Y2558D01*
X232Y2532D01*
X258Y2512D01*
X286Y2496D01*
X318Y2487D01*
X350Y2484D01*
X382Y2487D01*
X414Y2496D01*
X442Y2512D01*
X468Y2532D01*
X488Y2558D01*
X504Y2586D01*
X513Y2618D01*
X516Y2650D01*
X513Y2682D01*
X504Y2714D01*
X488Y2742D01*
X468Y2768D01*
X442Y2788D01*
X414Y2804D01*
X382Y2813D01*
X350Y2816D01*
D02*
G37*
G36*
X5768Y2508D02*
X5681D01*
Y2421D01*
X5694Y2423D01*
X5719Y2433D01*
X5740Y2449D01*
X5756Y2470D01*
X5766Y2495D01*
X5768Y2508D01*
D02*
G37*
G36*
X5655D02*
X5568D01*
X5570Y2495D01*
X5580Y2470D01*
X5596Y2449D01*
X5617Y2433D01*
X5642Y2423D01*
X5655Y2421D01*
Y2508D01*
D02*
G37*
G36*
X3990D02*
X3903D01*
Y2421D01*
X3916Y2423D01*
X3941Y2433D01*
X3962Y2449D01*
X3978Y2470D01*
X3988Y2495D01*
X3990Y2508D01*
D02*
G37*
G36*
X3877D02*
X3790D01*
X3792Y2495D01*
X3802Y2470D01*
X3818Y2449D01*
X3839Y2433D01*
X3864Y2423D01*
X3877Y2421D01*
Y2508D01*
D02*
G37*
G36*
X1958D02*
X1871D01*
Y2421D01*
X1884Y2423D01*
X1909Y2433D01*
X1930Y2449D01*
X1946Y2470D01*
X1956Y2495D01*
X1958Y2508D01*
D02*
G37*
G36*
X1845D02*
X1758D01*
X1760Y2495D01*
X1770Y2470D01*
X1786Y2449D01*
X1807Y2433D01*
X1832Y2423D01*
X1845Y2421D01*
Y2508D01*
D02*
G37*
G36*
X4906Y2622D02*
X4880Y2619D01*
X4855Y2609D01*
X4834Y2593D01*
X4818Y2572D01*
X4808Y2547D01*
X4805Y2521D01*
X4808Y2495D01*
X4818Y2470D01*
X4834Y2449D01*
X4855Y2433D01*
X4880Y2423D01*
X4906Y2420D01*
X4932Y2423D01*
X4957Y2433D01*
X4978Y2449D01*
X4994Y2470D01*
X5004Y2495D01*
X5007Y2521D01*
X5004Y2547D01*
X4994Y2572D01*
X4978Y2593D01*
X4957Y2609D01*
X4932Y2619D01*
X4906Y2622D01*
D02*
G37*
G36*
X4652D02*
X4626Y2619D01*
X4601Y2609D01*
X4580Y2593D01*
X4564Y2572D01*
X4554Y2547D01*
X4551Y2521D01*
X4554Y2495D01*
X4564Y2470D01*
X4580Y2449D01*
X4601Y2433D01*
X4626Y2423D01*
X4652Y2420D01*
X4678Y2423D01*
X4703Y2433D01*
X4724Y2449D01*
X4740Y2470D01*
X4750Y2495D01*
X4753Y2521D01*
X4750Y2547D01*
X4740Y2572D01*
X4724Y2593D01*
X4703Y2609D01*
X4678Y2619D01*
X4652Y2622D01*
D02*
G37*
G36*
X4144D02*
X4118Y2619D01*
X4093Y2609D01*
X4072Y2593D01*
X4056Y2572D01*
X4046Y2547D01*
X4043Y2521D01*
X4046Y2495D01*
X4056Y2470D01*
X4072Y2449D01*
X4093Y2433D01*
X4118Y2423D01*
X4144Y2420D01*
X4170Y2423D01*
X4195Y2433D01*
X4216Y2449D01*
X4232Y2470D01*
X4242Y2495D01*
X4245Y2521D01*
X4242Y2547D01*
X4232Y2572D01*
X4216Y2593D01*
X4195Y2609D01*
X4170Y2619D01*
X4144Y2622D01*
D02*
G37*
G36*
X3636D02*
X3610Y2619D01*
X3585Y2609D01*
X3564Y2593D01*
X3548Y2572D01*
X3538Y2547D01*
X3535Y2521D01*
X3538Y2495D01*
X3548Y2470D01*
X3564Y2449D01*
X3585Y2433D01*
X3610Y2423D01*
X3636Y2420D01*
X3662Y2423D01*
X3687Y2433D01*
X3708Y2449D01*
X3724Y2470D01*
X3734Y2495D01*
X3737Y2521D01*
X3734Y2547D01*
X3724Y2572D01*
X3708Y2593D01*
X3687Y2609D01*
X3662Y2619D01*
X3636Y2622D01*
D02*
G37*
G36*
X3382D02*
X3356Y2619D01*
X3331Y2609D01*
X3310Y2593D01*
X3294Y2572D01*
X3284Y2547D01*
X3281Y2521D01*
X3284Y2495D01*
X3294Y2470D01*
X3310Y2449D01*
X3331Y2433D01*
X3356Y2423D01*
X3382Y2420D01*
X3408Y2423D01*
X3433Y2433D01*
X3454Y2449D01*
X3470Y2470D01*
X3480Y2495D01*
X3483Y2521D01*
X3480Y2547D01*
X3470Y2572D01*
X3454Y2593D01*
X3433Y2609D01*
X3408Y2619D01*
X3382Y2622D01*
D02*
G37*
G36*
X3128D02*
X3102Y2619D01*
X3077Y2609D01*
X3056Y2593D01*
X3040Y2572D01*
X3030Y2547D01*
X3027Y2521D01*
X3030Y2495D01*
X3040Y2470D01*
X3056Y2449D01*
X3077Y2433D01*
X3102Y2423D01*
X3128Y2420D01*
X3154Y2423D01*
X3179Y2433D01*
X3200Y2449D01*
X3216Y2470D01*
X3226Y2495D01*
X3229Y2521D01*
X3226Y2547D01*
X3216Y2572D01*
X3200Y2593D01*
X3179Y2609D01*
X3154Y2619D01*
X3128Y2622D01*
D02*
G37*
G36*
X2874D02*
X2848Y2619D01*
X2823Y2609D01*
X2802Y2593D01*
X2786Y2572D01*
X2776Y2547D01*
X2773Y2521D01*
X2776Y2495D01*
X2786Y2470D01*
X2802Y2449D01*
X2823Y2433D01*
X2848Y2423D01*
X2874Y2420D01*
X2900Y2423D01*
X2925Y2433D01*
X2946Y2449D01*
X2962Y2470D01*
X2972Y2495D01*
X2975Y2521D01*
X2972Y2547D01*
X2962Y2572D01*
X2946Y2593D01*
X2925Y2609D01*
X2900Y2619D01*
X2874Y2622D01*
D02*
G37*
G36*
X2620D02*
X2594Y2619D01*
X2569Y2609D01*
X2548Y2593D01*
X2532Y2572D01*
X2522Y2547D01*
X2519Y2521D01*
X2522Y2495D01*
X2532Y2470D01*
X2548Y2449D01*
X2569Y2433D01*
X2594Y2423D01*
X2620Y2420D01*
X2646Y2423D01*
X2671Y2433D01*
X2692Y2449D01*
X2708Y2470D01*
X2718Y2495D01*
X2721Y2521D01*
X2718Y2547D01*
X2708Y2572D01*
X2692Y2593D01*
X2671Y2609D01*
X2646Y2619D01*
X2620Y2622D01*
D02*
G37*
G36*
X2366D02*
X2340Y2619D01*
X2315Y2609D01*
X2294Y2593D01*
X2278Y2572D01*
X2268Y2547D01*
X2265Y2521D01*
X2268Y2495D01*
X2278Y2470D01*
X2294Y2449D01*
X2315Y2433D01*
X2340Y2423D01*
X2366Y2420D01*
X2392Y2423D01*
X2417Y2433D01*
X2438Y2449D01*
X2454Y2470D01*
X2464Y2495D01*
X2467Y2521D01*
X2464Y2547D01*
X2454Y2572D01*
X2438Y2593D01*
X2417Y2609D01*
X2392Y2619D01*
X2366Y2622D01*
D02*
G37*
G36*
X2112D02*
X2086Y2619D01*
X2061Y2609D01*
X2040Y2593D01*
X2024Y2572D01*
X2014Y2547D01*
X2011Y2521D01*
X2014Y2495D01*
X2024Y2470D01*
X2040Y2449D01*
X2061Y2433D01*
X2086Y2423D01*
X2112Y2420D01*
X2138Y2423D01*
X2163Y2433D01*
X2184Y2449D01*
X2200Y2470D01*
X2210Y2495D01*
X2213Y2521D01*
X2210Y2547D01*
X2200Y2572D01*
X2184Y2593D01*
X2163Y2609D01*
X2138Y2619D01*
X2112Y2622D01*
D02*
G37*
G36*
X1604D02*
X1578Y2619D01*
X1553Y2609D01*
X1532Y2593D01*
X1516Y2572D01*
X1506Y2547D01*
X1503Y2521D01*
X1506Y2495D01*
X1516Y2470D01*
X1532Y2449D01*
X1553Y2433D01*
X1578Y2423D01*
X1604Y2420D01*
X1630Y2423D01*
X1655Y2433D01*
X1676Y2449D01*
X1692Y2470D01*
X1702Y2495D01*
X1705Y2521D01*
X1702Y2547D01*
X1692Y2572D01*
X1676Y2593D01*
X1655Y2609D01*
X1630Y2619D01*
X1604Y2622D01*
D02*
G37*
G36*
X1350D02*
X1324Y2619D01*
X1299Y2609D01*
X1278Y2593D01*
X1262Y2572D01*
X1252Y2547D01*
X1249Y2521D01*
X1252Y2495D01*
X1262Y2470D01*
X1278Y2449D01*
X1299Y2433D01*
X1324Y2423D01*
X1350Y2420D01*
X1376Y2423D01*
X1401Y2433D01*
X1422Y2449D01*
X1438Y2470D01*
X1448Y2495D01*
X1451Y2521D01*
X1448Y2547D01*
X1438Y2572D01*
X1422Y2593D01*
X1401Y2609D01*
X1376Y2619D01*
X1350Y2622D01*
D02*
G37*
G36*
X1096D02*
X1070Y2619D01*
X1045Y2609D01*
X1024Y2593D01*
X1008Y2572D01*
X998Y2547D01*
X995Y2521D01*
X998Y2495D01*
X1008Y2470D01*
X1024Y2449D01*
X1045Y2433D01*
X1070Y2423D01*
X1096Y2420D01*
X1122Y2423D01*
X1147Y2433D01*
X1168Y2449D01*
X1184Y2470D01*
X1194Y2495D01*
X1197Y2521D01*
X1194Y2547D01*
X1184Y2572D01*
X1168Y2593D01*
X1147Y2609D01*
X1122Y2619D01*
X1096Y2622D01*
D02*
G37*
G36*
X894Y2622D02*
X789D01*
X771Y2619D01*
X755Y2608D01*
X744Y2592D01*
X741Y2574D01*
Y2468D01*
X744Y2450D01*
X755Y2434D01*
X771Y2423D01*
X789Y2420D01*
X894D01*
X913Y2423D01*
X929Y2434D01*
X940Y2450D01*
X943Y2468D01*
Y2574D01*
X940Y2592D01*
X929Y2608D01*
X913Y2619D01*
X894Y2622D01*
D02*
G37*
G36*
X3506Y2366D02*
X3487Y2362D01*
X3472Y2351D01*
X3461Y2335D01*
X3457Y2317D01*
X3461Y2298D01*
X3472Y2282D01*
X3487Y2272D01*
X3506Y2268D01*
X3525Y2272D01*
X3541Y2282D01*
X3551Y2298D01*
X3555Y2317D01*
X3551Y2335D01*
X3541Y2351D01*
X3525Y2362D01*
X3506Y2366D01*
D02*
G37*
G36*
X3715Y2234D02*
X3696Y2230D01*
X3680Y2220D01*
X3670Y2204D01*
X3666Y2185D01*
X3670Y2166D01*
X3680Y2150D01*
X3696Y2140D01*
X3715Y2136D01*
X3734Y2140D01*
X3750Y2150D01*
X3760Y2166D01*
X3764Y2185D01*
X3760Y2204D01*
X3750Y2220D01*
X3734Y2230D01*
X3715Y2234D01*
D02*
G37*
G36*
X955Y1889D02*
X936Y1885D01*
X920Y1875D01*
X910Y1859D01*
X906Y1840D01*
X910Y1821D01*
X920Y1805D01*
X936Y1795D01*
X955Y1791D01*
X974Y1795D01*
X990Y1805D01*
X1000Y1821D01*
X1004Y1840D01*
X1000Y1859D01*
X990Y1875D01*
X974Y1885D01*
X955Y1889D01*
D02*
G37*
G36*
X843Y1856D02*
X824Y1853D01*
X808Y1842D01*
X797Y1826D01*
X794Y1808D01*
X797Y1789D01*
X808Y1773D01*
X824Y1762D01*
X843Y1759D01*
X861Y1762D01*
X877Y1773D01*
X888Y1789D01*
X891Y1808D01*
X888Y1826D01*
X877Y1842D01*
X861Y1853D01*
X843Y1856D01*
D02*
G37*
G36*
X2010Y1779D02*
Y1745D01*
X2044D01*
X2043Y1751D01*
X2032Y1767D01*
X2016Y1778D01*
X2010Y1779D01*
D02*
G37*
G36*
X1985D02*
X1979Y1778D01*
X1963Y1767D01*
X1952Y1751D01*
X1951Y1745D01*
X1985D01*
Y1779D01*
D02*
G37*
G36*
X2595Y1829D02*
X2576Y1825D01*
X2560Y1815D01*
X2550Y1799D01*
X2546Y1780D01*
X2550Y1761D01*
X2560Y1745D01*
X2576Y1735D01*
X2595Y1731D01*
X2614Y1735D01*
X2630Y1745D01*
X2640Y1761D01*
X2644Y1780D01*
X2640Y1799D01*
X2630Y1815D01*
X2614Y1825D01*
X2595Y1829D01*
D02*
G37*
G36*
X1035Y1806D02*
X1016Y1803D01*
X1000Y1792D01*
X990Y1776D01*
X986Y1758D01*
X990Y1739D01*
X1000Y1723D01*
X1016Y1712D01*
X1035Y1709D01*
X1054Y1712D01*
X1070Y1723D01*
X1080Y1739D01*
X1084Y1758D01*
X1080Y1776D01*
X1070Y1792D01*
X1054Y1803D01*
X1035Y1806D01*
D02*
G37*
G36*
X2044Y1720D02*
X2010D01*
Y1686D01*
X2016Y1687D01*
X2032Y1698D01*
X2043Y1714D01*
X2044Y1720D01*
D02*
G37*
G36*
X1985D02*
X1951D01*
X1952Y1714D01*
X1963Y1698D01*
X1979Y1687D01*
X1985Y1686D01*
Y1720D01*
D02*
G37*
G36*
X2173Y1731D02*
X2154Y1728D01*
X2138Y1717D01*
X2127Y1701D01*
X2124Y1683D01*
X2127Y1664D01*
X2138Y1648D01*
X2154Y1637D01*
X2173Y1634D01*
X2191Y1637D01*
X2207Y1648D01*
X2218Y1664D01*
X2221Y1683D01*
X2218Y1701D01*
X2207Y1717D01*
X2191Y1728D01*
X2173Y1731D01*
D02*
G37*
G36*
X242Y1764D02*
X225Y1762D01*
X196Y1754D01*
X169Y1739D01*
X145Y1720D01*
X126Y1696D01*
X111Y1669D01*
X103Y1640D01*
X101Y1623D01*
X242D01*
Y1764D01*
D02*
G37*
G36*
X5705Y1719D02*
X5686Y1715D01*
X5670Y1705D01*
X5660Y1689D01*
X5656Y1670D01*
X5660Y1651D01*
X5670Y1635D01*
X5686Y1625D01*
X5705Y1621D01*
X5724Y1625D01*
X5740Y1635D01*
X5750Y1651D01*
X5754Y1670D01*
X5750Y1689D01*
X5740Y1705D01*
X5724Y1715D01*
X5705Y1719D01*
D02*
G37*
G36*
X548Y1703D02*
Y1593D01*
X658D01*
X656Y1612D01*
X643Y1642D01*
X623Y1668D01*
X597Y1688D01*
X567Y1701D01*
X548Y1703D01*
D02*
G37*
G36*
X1501Y1620D02*
Y1586D01*
X1535D01*
X1534Y1592D01*
X1523Y1608D01*
X1507Y1619D01*
X1501Y1620D01*
D02*
G37*
G36*
X1476D02*
X1470Y1619D01*
X1454Y1608D01*
X1444Y1592D01*
X1442Y1586D01*
X1476D01*
Y1620D01*
D02*
G37*
G36*
X1693Y1588D02*
Y1554D01*
X1726D01*
X1725Y1560D01*
X1715Y1576D01*
X1699Y1587D01*
X1693Y1588D01*
D02*
G37*
G36*
X1667D02*
X1661Y1587D01*
X1645Y1576D01*
X1635Y1560D01*
X1634Y1554D01*
X1667D01*
Y1588D01*
D02*
G37*
G36*
X1706Y1702D02*
X1688Y1698D01*
X1672Y1688D01*
X1661Y1672D01*
X1657Y1653D01*
X1661Y1635D01*
X1672Y1619D01*
X1688Y1608D01*
X1706Y1604D01*
X1715Y1606D01*
X1726Y1597D01*
X1730Y1579D01*
X1740Y1563D01*
X1756Y1552D01*
X1775Y1549D01*
X1794Y1552D01*
X1810Y1563D01*
X1820Y1579D01*
X1824Y1598D01*
X1820Y1616D01*
X1810Y1632D01*
X1794Y1643D01*
X1775Y1646D01*
X1766Y1645D01*
X1755Y1653D01*
X1751Y1672D01*
X1741Y1688D01*
X1725Y1698D01*
X1706Y1702D01*
D02*
G37*
G36*
X1535Y1561D02*
X1501D01*
Y1527D01*
X1507Y1529D01*
X1523Y1539D01*
X1534Y1555D01*
X1535Y1561D01*
D02*
G37*
G36*
X1476D02*
X1442D01*
X1444Y1555D01*
X1454Y1539D01*
X1470Y1529D01*
X1476Y1527D01*
Y1561D01*
D02*
G37*
G36*
X1726Y1529D02*
X1693D01*
Y1495D01*
X1699Y1497D01*
X1715Y1507D01*
X1725Y1523D01*
X1726Y1529D01*
D02*
G37*
G36*
X1667D02*
X1634D01*
X1635Y1523D01*
X1645Y1507D01*
X1661Y1497D01*
X1667Y1495D01*
Y1529D01*
D02*
G37*
G36*
X1050Y1581D02*
X1031Y1578D01*
X1015Y1567D01*
X1005Y1551D01*
X1001Y1532D01*
X1005Y1514D01*
X1015Y1498D01*
X1031Y1487D01*
X1050Y1484D01*
X1069Y1487D01*
X1085Y1498D01*
X1095Y1514D01*
X1099Y1532D01*
X1095Y1551D01*
X1085Y1567D01*
X1069Y1578D01*
X1050Y1581D01*
D02*
G37*
G36*
X1338Y1590D02*
X1319Y1587D01*
X1303Y1576D01*
X1292Y1560D01*
X1289Y1541D01*
X1292Y1523D01*
X1303Y1507D01*
X1312Y1501D01*
X1318Y1494D01*
X1315Y1485D01*
X1310Y1476D01*
X1309Y1470D01*
X1401D01*
X1400Y1476D01*
X1390Y1492D01*
X1380Y1498D01*
X1374Y1505D01*
X1377Y1514D01*
X1383Y1523D01*
X1386Y1541D01*
X1383Y1560D01*
X1372Y1576D01*
X1356Y1587D01*
X1338Y1590D01*
D02*
G37*
G36*
X268Y1764D02*
Y1610D01*
Y1456D01*
X285Y1458D01*
X314Y1466D01*
X341Y1481D01*
X365Y1500D01*
X384Y1524D01*
X399Y1551D01*
X400Y1556D01*
X413Y1555D01*
X414Y1548D01*
X425Y1521D01*
X426Y1520D01*
X423Y1510D01*
X420Y1505D01*
X412Y1502D01*
X398Y1492D01*
X388Y1478D01*
X381Y1462D01*
X379Y1445D01*
X381Y1428D01*
X388Y1412D01*
X398Y1398D01*
X412Y1388D01*
X428Y1381D01*
X445Y1379D01*
X462Y1381D01*
X478Y1388D01*
X492Y1398D01*
X502Y1412D01*
X509Y1428D01*
X511Y1445D01*
X511Y1448D01*
X520Y1457D01*
X522Y1457D01*
Y1580D01*
Y1703D01*
X503Y1701D01*
X473Y1688D01*
X447Y1668D01*
X427Y1642D01*
X421Y1629D01*
X408Y1631D01*
X407Y1640D01*
X399Y1669D01*
X384Y1696D01*
X365Y1720D01*
X341Y1739D01*
X314Y1754D01*
X285Y1762D01*
X268Y1764D01*
D02*
G37*
G36*
X658Y1567D02*
X548D01*
Y1457D01*
X567Y1459D01*
X597Y1472D01*
X623Y1492D01*
X643Y1518D01*
X656Y1548D01*
X658Y1567D01*
D02*
G37*
G36*
X242Y1597D02*
X101D01*
X103Y1580D01*
X111Y1551D01*
X126Y1524D01*
X145Y1500D01*
X169Y1481D01*
X196Y1466D01*
X225Y1458D01*
X242Y1456D01*
Y1597D01*
D02*
G37*
G36*
X1401Y1445D02*
X1368D01*
Y1411D01*
X1374Y1412D01*
X1390Y1423D01*
X1400Y1439D01*
X1401Y1445D01*
D02*
G37*
G36*
X1342D02*
X1309D01*
X1310Y1439D01*
X1320Y1423D01*
X1336Y1412D01*
X1342Y1411D01*
Y1445D01*
D02*
G37*
G36*
X5863Y1385D02*
Y1351D01*
X5896D01*
X5895Y1357D01*
X5885Y1373D01*
X5869Y1384D01*
X5863Y1385D01*
D02*
G37*
G36*
X5837D02*
X5831Y1384D01*
X5815Y1373D01*
X5805Y1357D01*
X5804Y1351D01*
X5837D01*
Y1385D01*
D02*
G37*
G36*
X660Y1439D02*
X641Y1435D01*
X625Y1425D01*
X615Y1409D01*
X611Y1390D01*
X615Y1371D01*
X625Y1355D01*
X641Y1345D01*
X660Y1341D01*
X679Y1345D01*
X695Y1355D01*
X705Y1371D01*
X709Y1390D01*
X705Y1409D01*
X695Y1425D01*
X679Y1435D01*
X660Y1439D01*
D02*
G37*
G36*
X5896Y1326D02*
X5863D01*
Y1292D01*
X5869Y1294D01*
X5885Y1304D01*
X5895Y1320D01*
X5896Y1326D01*
D02*
G37*
G36*
X5837D02*
X5804D01*
X5805Y1320D01*
X5815Y1304D01*
X5831Y1294D01*
X5837Y1292D01*
Y1326D01*
D02*
G37*
G36*
X3871Y1279D02*
X3851Y1275D01*
X3834Y1264D01*
X3832Y1260D01*
X3819D01*
X3816Y1264D01*
X3800Y1275D01*
X3780Y1279D01*
X3760Y1275D01*
X3744Y1264D01*
X3733Y1247D01*
X3729Y1227D01*
X3733Y1208D01*
X3743Y1193D01*
X3740Y1187D01*
X3736Y1181D01*
X3735Y1181D01*
X3715Y1177D01*
X3698Y1166D01*
X3687Y1150D01*
X3683Y1130D01*
X3687Y1110D01*
X3698Y1094D01*
X3715Y1083D01*
X3735Y1079D01*
X3736Y1079D01*
X3740Y1073D01*
X3743Y1067D01*
X3733Y1052D01*
X3729Y1032D01*
X3733Y1013D01*
X3744Y996D01*
X3760Y985D01*
X3780Y981D01*
X3800Y985D01*
X3816Y996D01*
X3819Y1000D01*
X3832D01*
X3834Y996D01*
X3851Y985D01*
X3871Y981D01*
X3890Y985D01*
X3907Y996D01*
X3918Y1013D01*
X3922Y1032D01*
X3918Y1052D01*
X3908Y1067D01*
X3910Y1073D01*
X3914Y1079D01*
X3916Y1079D01*
X3935Y1083D01*
X3952Y1094D01*
X3963Y1110D01*
X3967Y1130D01*
X3963Y1150D01*
X3952Y1166D01*
X3935Y1177D01*
X3916Y1181D01*
X3914Y1181D01*
X3910Y1187D01*
X3908Y1193D01*
X3918Y1208D01*
X3922Y1227D01*
X3918Y1247D01*
X3907Y1264D01*
X3890Y1275D01*
X3871Y1279D01*
D02*
G37*
G36*
X1352Y1371D02*
X1334Y1368D01*
X1318Y1357D01*
X1307Y1341D01*
X1304Y1323D01*
X1307Y1304D01*
X1318Y1288D01*
X1332Y1279D01*
X1333Y1270D01*
X1333Y1265D01*
X1325Y1260D01*
X1315Y1244D01*
X1314Y1238D01*
X1406D01*
X1405Y1244D01*
X1395Y1260D01*
X1381Y1269D01*
X1379Y1278D01*
X1379Y1283D01*
X1387Y1288D01*
X1398Y1304D01*
X1401Y1323D01*
X1398Y1341D01*
X1387Y1357D01*
X1371Y1368D01*
X1352Y1371D01*
D02*
G37*
G36*
X1406Y1212D02*
X1373D01*
Y1179D01*
X1379Y1180D01*
X1395Y1190D01*
X1405Y1206D01*
X1406Y1212D01*
D02*
G37*
G36*
X1347D02*
X1314D01*
X1315Y1206D01*
X1325Y1190D01*
X1341Y1180D01*
X1347Y1179D01*
Y1212D01*
D02*
G37*
G36*
X4628Y1229D02*
X4609Y1225D01*
X4593Y1215D01*
X4582Y1199D01*
X4579Y1180D01*
X4582Y1161D01*
X4593Y1145D01*
X4609Y1135D01*
X4628Y1131D01*
X4646Y1135D01*
X4662Y1145D01*
X4673Y1161D01*
X4676Y1180D01*
X4673Y1199D01*
X4662Y1215D01*
X4646Y1225D01*
X4628Y1229D01*
D02*
G37*
G36*
X3130Y1129D02*
X3111Y1125D01*
X3095Y1115D01*
X3093Y1110D01*
X3080D01*
X3077Y1115D01*
X3061Y1125D01*
X3042Y1129D01*
X3024Y1125D01*
X3008Y1115D01*
X2997Y1099D01*
X2994Y1080D01*
X2997Y1061D01*
X3008Y1045D01*
X3024Y1035D01*
X3042Y1031D01*
X3061Y1035D01*
X3077Y1045D01*
X3080Y1050D01*
X3093D01*
X3095Y1045D01*
X3111Y1035D01*
X3130Y1031D01*
X3149Y1035D01*
X3165Y1045D01*
X3175Y1061D01*
X3179Y1080D01*
X3175Y1099D01*
X3165Y1115D01*
X3149Y1125D01*
X3130Y1129D01*
D02*
G37*
G36*
X665Y1129D02*
Y1095D01*
X699D01*
X698Y1101D01*
X687Y1117D01*
X671Y1128D01*
X665Y1129D01*
D02*
G37*
G36*
X640D02*
X634Y1128D01*
X618Y1117D01*
X607Y1101D01*
X606Y1095D01*
X640D01*
Y1129D01*
D02*
G37*
G36*
X1488Y1181D02*
X1469Y1178D01*
X1453Y1167D01*
X1442Y1151D01*
X1439Y1132D01*
X1442Y1114D01*
X1453Y1098D01*
X1469Y1087D01*
X1488Y1084D01*
X1506Y1087D01*
X1522Y1098D01*
X1533Y1114D01*
X1536Y1132D01*
X1533Y1151D01*
X1522Y1167D01*
X1506Y1178D01*
X1488Y1181D01*
D02*
G37*
G36*
X1060Y1176D02*
X1041Y1173D01*
X1025Y1162D01*
X1015Y1146D01*
X1011Y1127D01*
X1015Y1109D01*
X1025Y1093D01*
X1041Y1082D01*
X1060Y1079D01*
X1079Y1082D01*
X1095Y1093D01*
X1105Y1109D01*
X1109Y1127D01*
X1105Y1146D01*
X1095Y1162D01*
X1079Y1173D01*
X1060Y1176D01*
D02*
G37*
G36*
X699Y1070D02*
X665D01*
Y1036D01*
X671Y1037D01*
X687Y1048D01*
X698Y1064D01*
X699Y1070D01*
D02*
G37*
G36*
X640D02*
X606D01*
X607Y1064D01*
X618Y1048D01*
X634Y1037D01*
X640Y1036D01*
Y1070D01*
D02*
G37*
G36*
X6389Y1230D02*
X6189D01*
Y1030D01*
X6389D01*
Y1230D01*
D02*
G37*
G36*
X6035Y1231D02*
X6009Y1228D01*
X5984Y1218D01*
X5963Y1202D01*
X5947Y1181D01*
X5937Y1156D01*
X5934Y1130D01*
X5937Y1104D01*
X5947Y1079D01*
X5963Y1058D01*
X5984Y1042D01*
X6009Y1032D01*
X6035Y1029D01*
X6061Y1032D01*
X6086Y1042D01*
X6107Y1058D01*
X6123Y1079D01*
X6133Y1104D01*
X6136Y1130D01*
X6133Y1156D01*
X6123Y1181D01*
X6107Y1202D01*
X6086Y1218D01*
X6061Y1228D01*
X6035Y1231D01*
D02*
G37*
G36*
X2317Y1191D02*
X2299Y1188D01*
X2283Y1177D01*
X2272Y1161D01*
X2269Y1143D01*
X2272Y1124D01*
X2283Y1108D01*
X2285Y1105D01*
X2284Y1092D01*
X2275Y1079D01*
X2271Y1060D01*
X2275Y1041D01*
X2285Y1025D01*
X2301Y1015D01*
X2320Y1011D01*
X2339Y1015D01*
X2355Y1025D01*
X2365Y1041D01*
X2369Y1060D01*
X2365Y1079D01*
X2355Y1094D01*
X2353Y1098D01*
X2354Y1110D01*
X2363Y1124D01*
X2366Y1143D01*
X2363Y1161D01*
X2352Y1177D01*
X2336Y1188D01*
X2317Y1191D01*
D02*
G37*
G36*
X5150Y1066D02*
X5131Y1063D01*
X5115Y1052D01*
X5105Y1036D01*
X5101Y1018D01*
X5105Y999D01*
X5115Y983D01*
X5131Y972D01*
X5150Y969D01*
X5169Y972D01*
X5185Y983D01*
X5195Y999D01*
X5199Y1018D01*
X5195Y1036D01*
X5185Y1052D01*
X5169Y1063D01*
X5150Y1066D01*
D02*
G37*
G36*
X445Y1121D02*
X428Y1119D01*
X412Y1112D01*
X398Y1102D01*
X388Y1088D01*
X381Y1072D01*
X379Y1055D01*
X381Y1038D01*
X388Y1022D01*
X398Y1008D01*
X412Y998D01*
X420Y995D01*
X423Y990D01*
X426Y980D01*
X425Y979D01*
X414Y952D01*
X413Y945D01*
X400Y944D01*
X399Y949D01*
X384Y976D01*
X365Y1000D01*
X341Y1019D01*
X314Y1034D01*
X285Y1042D01*
X268Y1044D01*
Y890D01*
Y736D01*
X285Y738D01*
X314Y746D01*
X341Y761D01*
X365Y780D01*
X384Y804D01*
X399Y831D01*
X407Y860D01*
X408Y869D01*
X421Y871D01*
X427Y858D01*
X447Y832D01*
X473Y812D01*
X503Y799D01*
X522Y797D01*
Y920D01*
Y1043D01*
X520Y1043D01*
X511Y1052D01*
X511Y1055D01*
X509Y1072D01*
X502Y1088D01*
X492Y1102D01*
X478Y1112D01*
X462Y1119D01*
X445Y1121D01*
D02*
G37*
G36*
X548Y1043D02*
Y933D01*
X658D01*
X656Y952D01*
X643Y982D01*
X623Y1008D01*
X597Y1028D01*
X567Y1041D01*
X548Y1043D01*
D02*
G37*
G36*
X1962Y1017D02*
X1944Y1013D01*
X1928Y1003D01*
X1917Y987D01*
X1914Y968D01*
X1917Y950D01*
X1928Y934D01*
X1944Y923D01*
X1962Y919D01*
X1981Y923D01*
X1997Y934D01*
X2008Y950D01*
X2011Y968D01*
X2008Y987D01*
X1997Y1003D01*
X1981Y1013D01*
X1962Y1017D01*
D02*
G37*
G36*
X242Y1044D02*
X225Y1042D01*
X196Y1034D01*
X169Y1019D01*
X145Y1000D01*
X126Y976D01*
X111Y949D01*
X103Y920D01*
X101Y903D01*
X242D01*
Y1044D01*
D02*
G37*
G36*
X658Y907D02*
X548D01*
Y797D01*
X567Y799D01*
X597Y812D01*
X623Y832D01*
X643Y858D01*
X656Y888D01*
X658Y907D01*
D02*
G37*
G36*
X2679Y894D02*
X2660Y890D01*
X2644Y880D01*
X2634Y864D01*
X2630Y845D01*
X2634Y826D01*
X2644Y810D01*
X2660Y800D01*
X2679Y796D01*
X2697Y800D01*
X2713Y810D01*
X2724Y826D01*
X2728Y845D01*
X2724Y864D01*
X2713Y880D01*
X2697Y890D01*
X2679Y894D01*
D02*
G37*
G36*
X242Y877D02*
X101D01*
X103Y860D01*
X111Y831D01*
X126Y804D01*
X145Y780D01*
X169Y761D01*
X196Y746D01*
X225Y738D01*
X242Y736D01*
Y877D01*
D02*
G37*
G36*
X6389Y895D02*
X6189D01*
Y695D01*
X6389D01*
Y895D01*
D02*
G37*
G36*
X6035Y896D02*
X6009Y893D01*
X5984Y883D01*
X5963Y867D01*
X5947Y846D01*
X5937Y821D01*
X5934Y795D01*
X5937Y769D01*
X5947Y744D01*
X5963Y723D01*
X5984Y707D01*
X6009Y697D01*
X6035Y694D01*
X6061Y697D01*
X6086Y707D01*
X6107Y723D01*
X6123Y744D01*
X6133Y769D01*
X6136Y795D01*
X6133Y821D01*
X6123Y846D01*
X6107Y867D01*
X6086Y883D01*
X6061Y893D01*
X6035Y896D01*
D02*
G37*
G36*
X1223Y836D02*
X1204Y833D01*
X1188Y822D01*
X1177Y806D01*
X1174Y788D01*
X1177Y769D01*
X1188Y753D01*
X1199Y746D01*
X1204Y730D01*
X1202Y729D01*
X1199Y710D01*
X1202Y691D01*
X1213Y675D01*
X1229Y665D01*
X1248Y661D01*
X1266Y665D01*
X1282Y675D01*
X1293Y691D01*
X1296Y710D01*
X1293Y729D01*
X1282Y745D01*
X1271Y752D01*
X1266Y767D01*
X1268Y769D01*
X1271Y788D01*
X1268Y806D01*
X1257Y822D01*
X1241Y833D01*
X1223Y836D01*
D02*
G37*
G36*
X1830Y676D02*
Y643D01*
X1864D01*
X1863Y649D01*
X1852Y665D01*
X1836Y675D01*
X1830Y676D01*
D02*
G37*
G36*
X1805D02*
X1799Y675D01*
X1783Y665D01*
X1772Y649D01*
X1771Y643D01*
X1805D01*
Y676D01*
D02*
G37*
G36*
X1377Y836D02*
X1359Y833D01*
X1343Y822D01*
X1332Y806D01*
X1329Y788D01*
X1332Y769D01*
X1343Y753D01*
X1359Y742D01*
X1366Y741D01*
X1376Y727D01*
X1380Y709D01*
X1390Y693D01*
X1406Y682D01*
X1425Y679D01*
X1438Y681D01*
X1449Y672D01*
X1449Y671D01*
X1452Y653D01*
X1463Y637D01*
X1479Y627D01*
X1498Y623D01*
X1516Y627D01*
X1532Y637D01*
X1543Y653D01*
X1546Y672D01*
X1543Y690D01*
X1532Y706D01*
X1516Y717D01*
X1498Y721D01*
X1485Y718D01*
X1474Y727D01*
X1474Y728D01*
X1470Y746D01*
X1460Y762D01*
X1444Y773D01*
X1437Y774D01*
X1426Y788D01*
X1423Y806D01*
X1412Y822D01*
X1396Y833D01*
X1377Y836D01*
D02*
G37*
G36*
X713Y621D02*
Y588D01*
X746D01*
X745Y594D01*
X735Y610D01*
X719Y620D01*
X713Y621D01*
D02*
G37*
G36*
X687D02*
X681Y620D01*
X665Y610D01*
X655Y594D01*
X654Y588D01*
X687D01*
Y621D01*
D02*
G37*
G36*
X1864Y617D02*
X1830D01*
Y584D01*
X1836Y585D01*
X1852Y595D01*
X1863Y611D01*
X1864Y617D01*
D02*
G37*
G36*
X1805D02*
X1771D01*
X1772Y611D01*
X1783Y595D01*
X1799Y585D01*
X1805Y584D01*
Y617D01*
D02*
G37*
G36*
X2283Y649D02*
X2264Y645D01*
X2248Y635D01*
X2237Y619D01*
X2234Y600D01*
X2237Y581D01*
X2248Y565D01*
X2264Y555D01*
X2283Y551D01*
X2301Y555D01*
X2317Y565D01*
X2328Y581D01*
X2331Y600D01*
X2328Y619D01*
X2317Y635D01*
X2301Y645D01*
X2283Y649D01*
D02*
G37*
G36*
X2097Y564D02*
X2091Y563D01*
X2075Y552D01*
X2072Y546D01*
X2059D01*
X2057Y550D01*
X2041Y560D01*
X2035Y561D01*
Y515D01*
X2023D01*
Y502D01*
X1976D01*
X1977Y496D01*
X1988Y480D01*
X1986Y477D01*
X1985Y477D01*
X1975Y461D01*
X1974Y455D01*
X2020D01*
Y443D01*
X2033D01*
Y396D01*
X2039Y397D01*
X2055Y408D01*
X2057Y412D01*
X2070D01*
X2073Y408D01*
X2089Y397D01*
X2095Y396D01*
Y443D01*
X2108D01*
Y455D01*
X2154D01*
X2153Y461D01*
X2147Y469D01*
X2145Y483D01*
X2155Y499D01*
X2156Y505D01*
X2110D01*
Y518D01*
X2097D01*
Y564D01*
D02*
G37*
G36*
X2123D02*
Y530D01*
X2156D01*
X2155Y536D01*
X2145Y552D01*
X2129Y563D01*
X2123Y564D01*
D02*
G37*
G36*
X746Y562D02*
X713D01*
Y529D01*
X719Y530D01*
X735Y540D01*
X745Y556D01*
X746Y562D01*
D02*
G37*
G36*
X687D02*
X654D01*
X655Y556D01*
X665Y540D01*
X681Y530D01*
X687Y529D01*
Y562D01*
D02*
G37*
G36*
X2010Y561D02*
X2004Y560D01*
X1988Y550D01*
X1977Y534D01*
X1976Y528D01*
X2010D01*
Y561D01*
D02*
G37*
G36*
X2154Y430D02*
X2120D01*
Y396D01*
X2126Y397D01*
X2142Y408D01*
X2153Y424D01*
X2154Y430D01*
D02*
G37*
G36*
X2007D02*
X1974D01*
X1975Y424D01*
X1985Y408D01*
X2001Y397D01*
X2007Y396D01*
Y430D01*
D02*
G37*
G36*
X5124Y458D02*
X5105Y454D01*
X5089Y443D01*
X5079Y427D01*
X5075Y409D01*
X5079Y390D01*
X5089Y374D01*
X5105Y364D01*
X5124Y360D01*
X5142Y364D01*
X5158Y374D01*
X5169Y390D01*
X5173Y409D01*
X5169Y427D01*
X5158Y443D01*
X5142Y454D01*
X5124Y458D01*
D02*
G37*
G36*
X4400Y439D02*
X4381Y435D01*
X4365Y425D01*
X4355Y409D01*
X4351Y390D01*
X4355Y371D01*
X4365Y355D01*
X4381Y345D01*
X4400Y341D01*
X4419Y345D01*
X4435Y355D01*
X4445Y371D01*
X4449Y390D01*
X4445Y409D01*
X4435Y425D01*
X4419Y435D01*
X4400Y439D01*
D02*
G37*
G36*
X3815Y334D02*
Y300D01*
X3849D01*
X3848Y306D01*
X3837Y322D01*
X3821Y333D01*
X3815Y334D01*
D02*
G37*
G36*
X3790D02*
X3784Y333D01*
X3768Y322D01*
X3757Y306D01*
X3756Y300D01*
X3790D01*
Y334D01*
D02*
G37*
G36*
X3849Y275D02*
X3815D01*
Y241D01*
X3821Y242D01*
X3837Y253D01*
X3848Y269D01*
X3849Y275D01*
D02*
G37*
G36*
X3790D02*
X3756D01*
X3757Y269D01*
X3768Y253D01*
X3784Y242D01*
X3790Y241D01*
Y275D01*
D02*
G37*
G36*
X1762Y499D02*
X1744Y495D01*
X1728Y485D01*
X1717Y469D01*
X1714Y450D01*
X1717Y431D01*
X1728Y415D01*
X1744Y405D01*
X1756Y402D01*
X1763Y389D01*
X1762Y389D01*
X1759Y370D01*
X1762Y351D01*
X1766Y346D01*
X1760Y332D01*
X1751Y330D01*
X1735Y320D01*
X1725Y304D01*
X1721Y285D01*
X1725Y266D01*
X1735Y250D01*
X1751Y240D01*
X1770Y236D01*
X1789Y240D01*
X1805Y250D01*
X1815Y266D01*
X1819Y285D01*
X1815Y304D01*
X1812Y309D01*
X1817Y323D01*
X1826Y325D01*
X1842Y335D01*
X1853Y351D01*
X1856Y370D01*
X1853Y389D01*
X1842Y405D01*
X1826Y415D01*
X1814Y418D01*
X1807Y431D01*
X1808Y431D01*
X1811Y450D01*
X1808Y469D01*
X1797Y485D01*
X1781Y495D01*
X1762Y499D01*
D02*
G37*
G36*
X6150Y516D02*
X6118Y513D01*
X6086Y504D01*
X6058Y488D01*
X6032Y468D01*
X6012Y442D01*
X5996Y414D01*
X5987Y382D01*
X5984Y350D01*
X5987Y318D01*
X5996Y286D01*
X6012Y258D01*
X6032Y232D01*
X6058Y212D01*
X6086Y196D01*
X6118Y187D01*
X6150Y184D01*
X6182Y187D01*
X6214Y196D01*
X6242Y212D01*
X6268Y232D01*
X6288Y258D01*
X6304Y286D01*
X6313Y318D01*
X6316Y350D01*
X6313Y382D01*
X6304Y414D01*
X6288Y442D01*
X6268Y468D01*
X6242Y488D01*
X6214Y504D01*
X6182Y513D01*
X6150Y516D01*
D02*
G37*
G36*
X350D02*
X318Y513D01*
X286Y504D01*
X258Y488D01*
X232Y468D01*
X212Y442D01*
X196Y414D01*
X187Y382D01*
X184Y350D01*
X187Y318D01*
X196Y286D01*
X212Y258D01*
X232Y232D01*
X258Y212D01*
X286Y196D01*
X318Y187D01*
X350Y184D01*
X382Y187D01*
X414Y196D01*
X442Y212D01*
X468Y232D01*
X488Y258D01*
X504Y286D01*
X513Y318D01*
X516Y350D01*
X513Y382D01*
X504Y414D01*
X488Y442D01*
X468Y468D01*
X442Y488D01*
X414Y504D01*
X382Y513D01*
X350Y516D01*
D02*
G37*
G36*
X2512Y221D02*
X2494Y218D01*
X2478Y207D01*
X2467Y191D01*
X2464Y173D01*
X2467Y154D01*
X2478Y138D01*
X2494Y127D01*
X2512Y124D01*
X2531Y127D01*
X2547Y138D01*
X2558Y154D01*
X2561Y173D01*
X2558Y191D01*
X2547Y207D01*
X2531Y218D01*
X2512Y221D01*
D02*
G37*
G36*
X4580Y191D02*
X4561Y188D01*
X4545Y177D01*
X4535Y161D01*
X4531Y142D01*
X4535Y124D01*
X4545Y108D01*
X4561Y97D01*
X4580Y94D01*
X4599Y97D01*
X4615Y108D01*
X4625Y124D01*
X4629Y142D01*
X4625Y161D01*
X4615Y177D01*
X4599Y188D01*
X4580Y191D01*
D02*
G37*
G36*
X825Y179D02*
X806Y175D01*
X790Y165D01*
X780Y149D01*
X776Y130D01*
X780Y111D01*
X790Y95D01*
X806Y85D01*
X825Y81D01*
X844Y85D01*
X860Y95D01*
X870Y111D01*
X874Y130D01*
X870Y149D01*
X860Y165D01*
X844Y175D01*
X825Y179D01*
D02*
G37*
%LPD*%
G36*
X5342Y2449D02*
X5363Y2433D01*
X5373Y2429D01*
Y2171D01*
X4608Y1406D01*
X4438D01*
X4433Y1418D01*
X5304Y2289D01*
X5313Y2303D01*
X5316Y2319D01*
Y2462D01*
X5329Y2467D01*
X5342Y2449D01*
D02*
G37*
G36*
X3536Y1379D02*
X3465Y1309D01*
X2733D01*
X2724Y1322D01*
X2726Y1332D01*
X2723Y1351D01*
X2712Y1367D01*
X2696Y1378D01*
X2692Y1378D01*
X2694Y1391D01*
X3531D01*
X3536Y1379D01*
D02*
G37*
D93*
X5275Y2319D02*
Y2575D01*
X4389Y1432D02*
X5275Y2319D01*
X2642Y1432D02*
X4389D01*
X3397Y1767D02*
X3512Y1652D01*
X2938Y1767D02*
X3397D01*
X2650Y1515D02*
X2650Y1515D01*
X2685D01*
X2938Y1767D01*
X2648Y1595D02*
X2890Y1838D01*
X4208D01*
X4398Y2028D02*
Y2521D01*
X4208Y1838D02*
X4398Y2028D01*
X2636Y1272D02*
X2636D01*
X2640Y1268D01*
X3483D01*
X4625Y1365D02*
X5414Y2154D01*
Y2521D01*
X3580Y1365D02*
X4625D01*
X3483Y1268D02*
X3580Y1365D01*
X5345Y2645D02*
X5525D01*
X5275Y2575D02*
X5345Y2645D01*
X5655Y2775D02*
X5668D01*
X5525Y2645D02*
X5655Y2775D01*
D95*
X4398D02*
D03*
X4906D02*
D03*
X5668D02*
D03*
X5414Y2521D02*
D03*
X5668D02*
D03*
X4398D02*
D03*
X1858D02*
D03*
X3890D02*
D03*
X3128Y2775D02*
D03*
X1350D02*
D03*
D98*
X255Y1610D02*
D03*
Y890D02*
D03*
D99*
X535Y1580D02*
D03*
Y920D02*
D03*
D101*
X3803Y288D02*
D03*
X5850Y1339D02*
D03*
X1817Y630D02*
D03*
X2110Y518D02*
D03*
X653Y1082D02*
D03*
X1680Y1542D02*
D03*
X1489Y1574D02*
D03*
X1360Y1225D02*
D03*
X1998Y1733D02*
D03*
X2108Y443D02*
D03*
X2020D02*
D03*
X2023Y515D02*
D03*
X3512Y1652D02*
D03*
X2650Y1515D02*
D03*
X2648Y1595D02*
D03*
X1355Y1457D02*
D03*
X2642Y1432D02*
D03*
X2636Y1272D02*
D03*
X700Y575D02*
D03*
M02*
