G04*
G04 #@! TF.GenerationSoftware,Altium Limited,Altium Designer,20.2.5 (213)*
G04*
G04 Layer_Color=32896*
%FSLAX42Y42*%
%MOMM*%
G71*
G04*
G04 #@! TF.SameCoordinates,6F224850-DB23-45E0-B5EC-48CDDA7698CB*
G04*
G04*
G04 #@! TF.FilePolarity,Positive*
G04*
G01*
G75*
%ADD10C,0.25*%
%ADD11C,0.20*%
%ADD12C,0.10*%
%ADD14C,0.15*%
%ADD15C,0.25*%
D10*
X6295Y1952D02*
G03*
X6295Y1952I-12J0D01*
G01*
D11*
X557Y2253D02*
G03*
X557Y2253I-6J0D01*
G01*
X6097Y1620D02*
Y1697D01*
Y1620D02*
X6197D01*
X6097Y1842D02*
Y1920D01*
X6197D01*
X810Y2310D02*
X990D01*
X810Y1970D02*
X990D01*
D12*
X6342Y1435D02*
Y1565D01*
X6042Y1435D02*
X6342D01*
X6042D02*
Y1565D01*
X6342D01*
X6038Y2162D02*
Y2302D01*
Y2162D02*
X6338D01*
X6038Y2302D02*
X6338D01*
Y2162D02*
Y2302D01*
X6038Y2000D02*
Y2130D01*
X6338D01*
Y2000D02*
Y2130D01*
X6038Y2000D02*
X6338D01*
X3955Y2345D02*
X4085D01*
Y2045D02*
Y2345D01*
X3955Y2045D02*
X4085D01*
X3955D02*
Y2345D01*
X1720Y685D02*
Y985D01*
X1590D02*
X1720D01*
X1590Y685D02*
Y985D01*
Y685D02*
X1720D01*
X1755Y690D02*
X1895D01*
X1895D02*
Y990D01*
X1755Y690D02*
Y990D01*
X1895D01*
X1712Y1173D02*
Y1312D01*
X1412Y1312D02*
X1712D01*
X1412Y1173D02*
X1712D01*
X1412D02*
Y1312D01*
X1712Y1345D02*
Y1485D01*
X1412Y1485D02*
X1712D01*
X1412Y1345D02*
X1712D01*
X1412D02*
Y1485D01*
X462Y1427D02*
X603D01*
X462Y1127D02*
Y1427D01*
X603Y1127D02*
Y1427D01*
X462Y1127D02*
X603D01*
X722Y815D02*
Y955D01*
Y815D02*
X1022D01*
X722Y955D02*
X1022D01*
Y815D02*
Y955D01*
X725Y1148D02*
Y1288D01*
Y1148D02*
X1025D01*
X725Y1288D02*
X1025D01*
Y1148D02*
Y1288D01*
X722Y1313D02*
Y1453D01*
Y1313D02*
X1022D01*
X722Y1453D02*
X1022D01*
Y1313D02*
Y1453D01*
X722Y1615D02*
X1023D01*
X722Y1485D02*
Y1615D01*
Y1485D02*
X1023D01*
Y1615D01*
X378Y2020D02*
X518D01*
X518D02*
Y2320D01*
X378Y2020D02*
Y2320D01*
X518D01*
X1680Y2327D02*
X1820D01*
X1680Y2027D02*
Y2327D01*
X1820Y2027D02*
Y2327D01*
X1680Y2027D02*
X1820D01*
X1507Y2327D02*
X1648D01*
X1507Y2027D02*
Y2327D01*
X1648Y2027D02*
Y2327D01*
X1507Y2027D02*
X1648D01*
X1230Y2325D02*
X1370D01*
X1230Y2025D02*
Y2325D01*
X1370Y2025D02*
Y2325D01*
X1230Y2025D02*
X1370D01*
X2490Y1577D02*
Y1717D01*
X2190Y1717D02*
X2490D01*
X2190Y1577D02*
X2490D01*
X2190D02*
Y1717D01*
X2710Y1115D02*
X3010D01*
Y1245D01*
X2710D02*
X3010D01*
X2710Y1115D02*
Y1245D01*
X2708Y780D02*
X3008D01*
Y910D01*
X2708D02*
X3008D01*
X2708Y780D02*
Y910D01*
X3010Y943D02*
Y1082D01*
X2710Y1082D02*
X3010D01*
X2710Y943D02*
X3010D01*
X2710D02*
Y1082D01*
X4492Y378D02*
X4792D01*
X4492Y247D02*
Y378D01*
Y247D02*
X4792D01*
Y378D01*
X722Y1118D02*
X1023D01*
X722Y988D02*
Y1118D01*
Y988D02*
X1023D01*
Y1118D01*
X2707Y1445D02*
X3007D01*
Y1575D01*
X2707D02*
X3007D01*
X2707Y1445D02*
Y1575D01*
X4765Y2348D02*
X5065D01*
X4765Y2217D02*
Y2348D01*
Y2217D02*
X5065D01*
Y2348D01*
X4492Y420D02*
X4792D01*
Y550D01*
X4492D02*
X4792D01*
X4492Y420D02*
Y550D01*
X2190Y1877D02*
X2490D01*
X2190Y1747D02*
Y1877D01*
Y1747D02*
X2490D01*
Y1877D01*
X3010Y1605D02*
Y1745D01*
X2710Y1745D02*
X3010D01*
X2710Y1605D02*
X3010D01*
X2710D02*
Y1745D01*
X3010Y1275D02*
Y1415D01*
X2710Y1415D02*
X3010D01*
X2710Y1275D02*
X3010D01*
X2710D02*
Y1415D01*
X3008Y85D02*
Y225D01*
X2708Y225D02*
X3008D01*
X2708Y85D02*
X3008D01*
X2708D02*
Y225D01*
D14*
X5135Y653D02*
Y827D01*
X5320Y653D02*
Y690D01*
X4950Y653D02*
X5320D01*
X4950D02*
Y690D01*
Y790D02*
Y827D01*
X5320D01*
Y790D02*
Y827D01*
X5402Y2138D02*
Y2175D01*
X5032D02*
X5402D01*
X5032Y2138D02*
Y2175D01*
Y2000D02*
Y2038D01*
Y2000D02*
X5402D01*
Y2038D01*
X5217Y2000D02*
Y2175D01*
X5197Y607D02*
Y518D01*
X5137D01*
X5048Y607D02*
X5108D01*
Y562D01*
X5078Y577D01*
X5063D01*
X5048Y562D01*
Y533D01*
X5063Y518D01*
X5093D01*
X5108Y533D01*
X5995Y1542D02*
Y1453D01*
X5935D01*
X5905D02*
X5875D01*
X5890D01*
Y1542D01*
X5905Y1527D01*
X5830Y1453D02*
X5800D01*
X5815D01*
Y1542D01*
X5830Y1527D01*
X5917Y1840D02*
Y1900D01*
X5932Y1915D01*
X5962D01*
X5977Y1900D01*
Y1840D01*
X5962Y1825D01*
X5932D01*
X5947Y1855D02*
X5917Y1825D01*
X5932D02*
X5917Y1840D01*
X5888Y1900D02*
X5873Y1915D01*
X5843D01*
X5828Y1900D01*
Y1885D01*
X5843Y1870D01*
X5858D01*
X5843D01*
X5828Y1855D01*
Y1840D01*
X5843Y1825D01*
X5873D01*
X5888Y1840D01*
X5935Y2262D02*
X5950Y2277D01*
X5980D01*
X5995Y2262D01*
Y2203D01*
X5980Y2188D01*
X5950D01*
X5935Y2203D01*
X5860Y2188D02*
Y2277D01*
X5905Y2233D01*
X5845D01*
X5815Y2262D02*
X5800Y2277D01*
X5770D01*
X5755Y2262D01*
Y2203D01*
X5770Y2188D01*
X5800D01*
X5815Y2203D01*
Y2262D01*
X5995Y2020D02*
Y2110D01*
X5950D01*
X5935Y2095D01*
Y2065D01*
X5950Y2050D01*
X5995D01*
X5965D02*
X5935Y2020D01*
X5905D02*
X5875D01*
X5890D01*
Y2110D01*
X5905Y2095D01*
X5830Y2035D02*
X5815Y2020D01*
X5785D01*
X5770Y2035D01*
Y2095D01*
X5785Y2110D01*
X5815D01*
X5830Y2095D01*
Y2080D01*
X5815Y2065D01*
X5770D01*
X3828Y2175D02*
X3917D01*
Y2220D01*
X3902Y2235D01*
X3872D01*
X3858Y2220D01*
Y2175D01*
Y2205D02*
X3828Y2235D01*
Y2310D02*
X3917D01*
X3872Y2265D01*
Y2325D01*
X1550Y748D02*
X1460D01*
Y808D01*
Y897D02*
Y837D01*
X1520Y897D01*
X1535D01*
X1550Y882D01*
Y852D01*
X1535Y837D01*
X1192Y1097D02*
Y1008D01*
X1132D01*
X1103D02*
X1073D01*
X1088D01*
Y1097D01*
X1103Y1082D01*
X3295Y800D02*
Y890D01*
X3250D01*
X3235Y875D01*
Y845D01*
X3250Y830D01*
X3295D01*
X3265D02*
X3235Y800D01*
X3145D02*
X3205D01*
X3145Y860D01*
Y875D01*
X3160Y890D01*
X3190D01*
X3205Y875D01*
X3115D02*
X3100Y890D01*
X3070D01*
X3055Y875D01*
Y860D01*
X3070Y845D01*
X3085D01*
X3070D01*
X3055Y830D01*
Y815D01*
X3070Y800D01*
X3100D01*
X3115Y815D01*
X3297Y1138D02*
Y1227D01*
X3252D01*
X3237Y1212D01*
Y1182D01*
X3252Y1168D01*
X3297D01*
X3267D02*
X3237Y1138D01*
X3148D02*
X3207D01*
X3148Y1197D01*
Y1212D01*
X3163Y1227D01*
X3192D01*
X3207Y1212D01*
X3058Y1138D02*
X3118D01*
X3058Y1197D01*
Y1212D01*
X3073Y1227D01*
X3103D01*
X3118Y1212D01*
X4445Y250D02*
Y340D01*
X4400D01*
X4385Y325D01*
Y295D01*
X4400Y280D01*
X4445D01*
X4415D02*
X4385Y250D01*
X4295D02*
X4355D01*
X4295Y310D01*
Y325D01*
X4310Y340D01*
X4340D01*
X4355Y325D01*
X4265Y250D02*
X4235D01*
X4250D01*
Y340D01*
X4265Y325D01*
X3305Y1458D02*
Y1547D01*
X3260D01*
X3245Y1532D01*
Y1502D01*
X3260Y1488D01*
X3305D01*
X3275D02*
X3245Y1458D01*
X3215D02*
X3185D01*
X3200D01*
Y1547D01*
X3215Y1532D01*
X3140D02*
X3125Y1547D01*
X3095D01*
X3080Y1532D01*
Y1517D01*
X3095Y1502D01*
X3080Y1488D01*
Y1473D01*
X3095Y1458D01*
X3125D01*
X3140Y1473D01*
Y1488D01*
X3125Y1502D01*
X3140Y1517D01*
Y1532D01*
X3125Y1502D02*
X3095D01*
X4722Y2275D02*
Y2365D01*
X4677D01*
X4662Y2350D01*
Y2320D01*
X4677Y2305D01*
X4722D01*
X4692D02*
X4662Y2275D01*
X4632D02*
X4603D01*
X4617D01*
Y2365D01*
X4632Y2350D01*
X4558Y2365D02*
X4498D01*
Y2350D01*
X4558Y2290D01*
Y2275D01*
X4455Y453D02*
Y542D01*
X4410D01*
X4395Y527D01*
Y497D01*
X4410Y483D01*
X4455D01*
X4425D02*
X4395Y453D01*
X4365D02*
X4335D01*
X4350D01*
Y542D01*
X4365Y527D01*
X4245Y453D02*
Y542D01*
X4290Y497D01*
X4230D01*
X1245Y1500D02*
Y1590D01*
X1200D01*
X1185Y1575D01*
Y1545D01*
X1200Y1530D01*
X1245D01*
X1215D02*
X1185Y1500D01*
X1155Y1515D02*
X1140Y1500D01*
X1110D01*
X1095Y1515D01*
Y1575D01*
X1110Y1590D01*
X1140D01*
X1155Y1575D01*
Y1560D01*
X1140Y1545D01*
X1095D01*
X2422Y1910D02*
Y2000D01*
X2377D01*
X2362Y1985D01*
Y1955D01*
X2377Y1940D01*
X2422D01*
X2392D02*
X2362Y1910D01*
X2333Y1985D02*
X2318Y2000D01*
X2288D01*
X2273Y1985D01*
Y1970D01*
X2288Y1955D01*
X2273Y1940D01*
Y1925D01*
X2288Y1910D01*
X2318D01*
X2333Y1925D01*
Y1940D01*
X2318Y1955D01*
X2333Y1970D01*
Y1985D01*
X2318Y1955D02*
X2288D01*
X930Y1935D02*
Y1920D01*
X900Y1890D01*
X870Y1920D01*
Y1935D01*
X900Y1890D02*
Y1845D01*
X840D02*
X810D01*
X825D01*
Y1935D01*
X840Y1920D01*
X5390Y2307D02*
Y2218D01*
X5330D01*
X5300D02*
X5270D01*
X5285D01*
Y2307D01*
X5300Y2292D01*
X5225D02*
X5210Y2307D01*
X5180D01*
X5165Y2292D01*
Y2233D01*
X5180Y2218D01*
X5210D01*
X5225Y2233D01*
Y2292D01*
X3242Y1030D02*
X3257Y1045D01*
X3287D01*
X3302Y1030D01*
Y970D01*
X3287Y955D01*
X3257D01*
X3242Y970D01*
X3168Y955D02*
Y1045D01*
X3212Y1000D01*
X3153D01*
X3123Y1030D02*
X3108Y1045D01*
X3078D01*
X3063Y1030D01*
Y1015D01*
X3078Y1000D01*
X3063Y985D01*
Y970D01*
X3078Y955D01*
X3108D01*
X3123Y970D01*
Y985D01*
X3108Y1000D01*
X3123Y1015D01*
Y1030D01*
X3108Y1000D02*
X3078D01*
X5675Y2033D02*
X5690Y2018D01*
Y1988D01*
X5675Y1973D01*
X5615D01*
X5600Y1988D01*
Y2018D01*
X5615Y2033D01*
X5600Y2108D02*
X5690D01*
X5645Y2063D01*
Y2123D01*
X5690Y2213D02*
X5675Y2183D01*
X5645Y2153D01*
X5615D01*
X5600Y2168D01*
Y2198D01*
X5615Y2213D01*
X5630D01*
X5645Y2198D01*
Y2153D01*
X5515Y2040D02*
X5530Y2025D01*
Y1995D01*
X5515Y1980D01*
X5455D01*
X5440Y1995D01*
Y2025D01*
X5455Y2040D01*
X5440Y2115D02*
X5530D01*
X5485Y2070D01*
Y2130D01*
X5530Y2220D02*
Y2160D01*
X5485D01*
X5500Y2190D01*
Y2205D01*
X5485Y2220D01*
X5455D01*
X5440Y2205D01*
Y2175D01*
X5455Y2160D01*
X4130Y2043D02*
X4145Y2028D01*
Y1998D01*
X4130Y1983D01*
X4070D01*
X4055Y1998D01*
Y2028D01*
X4070Y2043D01*
X4055Y2117D02*
X4145D01*
X4100Y2073D01*
Y2132D01*
X4055Y2207D02*
X4145D01*
X4100Y2162D01*
Y2222D01*
X4422Y2035D02*
X4437Y2020D01*
Y1990D01*
X4422Y1975D01*
X4363D01*
X4348Y1990D01*
Y2020D01*
X4363Y2035D01*
X4348Y2110D02*
X4437D01*
X4392Y2065D01*
Y2125D01*
X4422Y2155D02*
X4437Y2170D01*
Y2200D01*
X4422Y2215D01*
X4407D01*
X4392Y2200D01*
Y2185D01*
Y2200D01*
X4377Y2215D01*
X4363D01*
X4348Y2200D01*
Y2170D01*
X4363Y2155D01*
X4720Y2030D02*
X4735Y2015D01*
Y1985D01*
X4720Y1970D01*
X4660D01*
X4645Y1985D01*
Y2015D01*
X4660Y2030D01*
X4645Y2105D02*
X4735D01*
X4690Y2060D01*
Y2120D01*
X4645Y2210D02*
Y2150D01*
X4705Y2210D01*
X4720D01*
X4735Y2195D01*
Y2165D01*
X4720Y2150D01*
X4912Y2040D02*
X4927Y2025D01*
Y1995D01*
X4912Y1980D01*
X4853D01*
X4838Y1995D01*
Y2025D01*
X4853Y2040D01*
X4838Y2115D02*
X4927D01*
X4883Y2070D01*
Y2130D01*
X4838Y2160D02*
Y2190D01*
Y2175D01*
X4927D01*
X4912Y2160D01*
X3262Y1705D02*
X3277Y1720D01*
X3307D01*
X3322Y1705D01*
Y1645D01*
X3307Y1630D01*
X3277D01*
X3262Y1645D01*
X3232Y1705D02*
X3217Y1720D01*
X3188D01*
X3173Y1705D01*
Y1690D01*
X3188Y1675D01*
X3203D01*
X3188D01*
X3173Y1660D01*
Y1645D01*
X3188Y1630D01*
X3217D01*
X3232Y1645D01*
X3143Y1705D02*
X3128Y1720D01*
X3098D01*
X3083Y1705D01*
Y1690D01*
X3098Y1675D01*
X3083Y1660D01*
Y1645D01*
X3098Y1630D01*
X3128D01*
X3143Y1645D01*
Y1660D01*
X3128Y1675D01*
X3143Y1690D01*
Y1705D01*
X3128Y1675D02*
X3098D01*
X3250Y1372D02*
X3265Y1387D01*
X3295D01*
X3310Y1372D01*
Y1313D01*
X3295Y1298D01*
X3265D01*
X3250Y1313D01*
X3220Y1372D02*
X3205Y1387D01*
X3175D01*
X3160Y1372D01*
Y1357D01*
X3175Y1343D01*
X3190D01*
X3175D01*
X3160Y1328D01*
Y1313D01*
X3175Y1298D01*
X3205D01*
X3220Y1313D01*
X3130Y1387D02*
X3070D01*
Y1372D01*
X3130Y1313D01*
Y1298D01*
X5665Y655D02*
X5680Y640D01*
Y610D01*
X5665Y595D01*
X5605D01*
X5590Y610D01*
Y640D01*
X5605Y655D01*
X5665Y685D02*
X5680Y700D01*
Y730D01*
X5665Y745D01*
X5650D01*
X5635Y730D01*
Y715D01*
Y730D01*
X5620Y745D01*
X5605D01*
X5590Y730D01*
Y700D01*
X5605Y685D01*
X5665Y775D02*
X5680Y790D01*
Y820D01*
X5665Y835D01*
X5650D01*
X5635Y820D01*
Y805D01*
Y820D01*
X5620Y835D01*
X5605D01*
X5590Y820D01*
Y790D01*
X5605Y775D01*
X5457Y655D02*
X5472Y640D01*
Y610D01*
X5457Y595D01*
X5398D01*
X5383Y610D01*
Y640D01*
X5398Y655D01*
X5457Y685D02*
X5472Y700D01*
Y730D01*
X5457Y745D01*
X5442D01*
X5428Y730D01*
Y715D01*
Y730D01*
X5413Y745D01*
X5398D01*
X5383Y730D01*
Y700D01*
X5398Y685D01*
X5383Y835D02*
Y775D01*
X5442Y835D01*
X5457D01*
X5472Y820D01*
Y790D01*
X5457Y775D01*
X4880Y680D02*
X4895Y665D01*
Y635D01*
X4880Y620D01*
X4820D01*
X4805Y635D01*
Y665D01*
X4820Y680D01*
X4880Y710D02*
X4895Y725D01*
Y755D01*
X4880Y770D01*
X4865D01*
X4850Y755D01*
Y740D01*
Y755D01*
X4835Y770D01*
X4820D01*
X4805Y755D01*
Y725D01*
X4820Y710D01*
X4805Y800D02*
Y830D01*
Y815D01*
X4895D01*
X4880Y800D01*
X4700Y668D02*
X4715Y653D01*
Y623D01*
X4700Y608D01*
X4640D01*
X4625Y623D01*
Y653D01*
X4640Y668D01*
X4700Y698D02*
X4715Y713D01*
Y742D01*
X4700Y757D01*
X4685D01*
X4670Y742D01*
Y728D01*
Y742D01*
X4655Y757D01*
X4640D01*
X4625Y742D01*
Y713D01*
X4640Y698D01*
X4700Y787D02*
X4715Y802D01*
Y832D01*
X4700Y847D01*
X4640D01*
X4625Y832D01*
Y802D01*
X4640Y787D01*
X4700D01*
X4422Y670D02*
X4437Y655D01*
Y625D01*
X4422Y610D01*
X4363D01*
X4348Y625D01*
Y655D01*
X4363Y670D01*
X4348Y760D02*
Y700D01*
X4407Y760D01*
X4422D01*
X4437Y745D01*
Y715D01*
X4422Y700D01*
X4363Y790D02*
X4348Y805D01*
Y835D01*
X4363Y850D01*
X4422D01*
X4437Y835D01*
Y805D01*
X4422Y790D01*
X4407D01*
X4392Y805D01*
Y850D01*
X4130Y660D02*
X4145Y645D01*
Y615D01*
X4130Y600D01*
X4070D01*
X4055Y615D01*
Y645D01*
X4070Y660D01*
X4055Y750D02*
Y690D01*
X4115Y750D01*
X4130D01*
X4145Y735D01*
Y705D01*
X4130Y690D01*
Y780D02*
X4145Y795D01*
Y825D01*
X4130Y840D01*
X4115D01*
X4100Y825D01*
X4085Y840D01*
X4070D01*
X4055Y825D01*
Y795D01*
X4070Y780D01*
X4085D01*
X4100Y795D01*
X4115Y780D01*
X4130D01*
X4100Y795D02*
Y825D01*
X3267Y185D02*
X3282Y200D01*
X3312D01*
X3327Y185D01*
Y125D01*
X3312Y110D01*
X3282D01*
X3267Y125D01*
X3178Y110D02*
X3237D01*
X3178Y170D01*
Y185D01*
X3193Y200D01*
X3222D01*
X3237Y185D01*
X3103Y110D02*
Y200D01*
X3148Y155D01*
X3088D01*
X3277Y410D02*
X3292Y425D01*
X3322D01*
X3337Y410D01*
Y350D01*
X3322Y335D01*
X3292D01*
X3277Y350D01*
X3188Y335D02*
X3247D01*
X3188Y395D01*
Y410D01*
X3203Y425D01*
X3232D01*
X3247Y410D01*
X3158D02*
X3143Y425D01*
X3113D01*
X3098Y410D01*
Y395D01*
X3113Y380D01*
X3128D01*
X3113D01*
X3098Y365D01*
Y350D01*
X3113Y335D01*
X3143D01*
X3158Y350D01*
X3285Y650D02*
X3300Y665D01*
X3330D01*
X3345Y650D01*
Y590D01*
X3330Y575D01*
X3300D01*
X3285Y590D01*
X3195Y575D02*
X3255D01*
X3195Y635D01*
Y650D01*
X3210Y665D01*
X3240D01*
X3255Y650D01*
X3105Y575D02*
X3165D01*
X3105Y635D01*
Y650D01*
X3120Y665D01*
X3150D01*
X3165Y650D01*
X2405Y1527D02*
X2420Y1542D01*
X2450D01*
X2465Y1527D01*
Y1468D01*
X2450Y1453D01*
X2420D01*
X2405Y1468D01*
X2375Y1453D02*
X2345D01*
X2360D01*
Y1542D01*
X2375Y1527D01*
X2300Y1468D02*
X2285Y1453D01*
X2255D01*
X2240Y1468D01*
Y1527D01*
X2255Y1542D01*
X2285D01*
X2300Y1527D01*
Y1512D01*
X2285Y1498D01*
X2240D01*
X1915Y1452D02*
X1930Y1467D01*
X1960D01*
X1975Y1452D01*
Y1393D01*
X1960Y1378D01*
X1930D01*
X1915Y1393D01*
X1885Y1378D02*
X1855D01*
X1870D01*
Y1467D01*
X1885Y1452D01*
X1750Y1467D02*
X1780Y1452D01*
X1810Y1423D01*
Y1393D01*
X1795Y1378D01*
X1765D01*
X1750Y1393D01*
Y1408D01*
X1765Y1423D01*
X1810D01*
X1922Y1280D02*
X1937Y1295D01*
X1967D01*
X1982Y1280D01*
Y1220D01*
X1967Y1205D01*
X1937D01*
X1922Y1220D01*
X1892Y1205D02*
X1863D01*
X1877D01*
Y1295D01*
X1892Y1280D01*
X1758Y1295D02*
X1818D01*
Y1250D01*
X1788Y1265D01*
X1773D01*
X1758Y1250D01*
Y1220D01*
X1773Y1205D01*
X1803D01*
X1818Y1220D01*
X1217Y1415D02*
X1232Y1430D01*
X1262D01*
X1277Y1415D01*
Y1355D01*
X1262Y1340D01*
X1232D01*
X1217Y1355D01*
X1187Y1340D02*
X1158D01*
X1172D01*
Y1430D01*
X1187Y1415D01*
X1068Y1340D02*
Y1430D01*
X1113Y1385D01*
X1053D01*
X1225Y1252D02*
X1240Y1267D01*
X1270D01*
X1285Y1252D01*
Y1193D01*
X1270Y1178D01*
X1240D01*
X1225Y1193D01*
X1195Y1178D02*
X1165D01*
X1180D01*
Y1267D01*
X1195Y1252D01*
X1120D02*
X1105Y1267D01*
X1075D01*
X1060Y1252D01*
Y1237D01*
X1075Y1223D01*
X1090D01*
X1075D01*
X1060Y1208D01*
Y1193D01*
X1075Y1178D01*
X1105D01*
X1120Y1193D01*
X1872Y1977D02*
X1887Y1992D01*
X1917D01*
X1932Y1977D01*
Y1918D01*
X1917Y1903D01*
X1887D01*
X1872Y1918D01*
X1842Y1903D02*
X1813D01*
X1827D01*
Y1992D01*
X1842Y1977D01*
X1708Y1903D02*
X1768D01*
X1708Y1962D01*
Y1977D01*
X1723Y1992D01*
X1753D01*
X1768Y1977D01*
X1597D02*
X1612Y1992D01*
X1642D01*
X1657Y1977D01*
Y1918D01*
X1642Y1903D01*
X1612D01*
X1597Y1918D01*
X1567Y1903D02*
X1538D01*
X1553D01*
Y1992D01*
X1567Y1977D01*
X1493Y1903D02*
X1463D01*
X1478D01*
Y1992D01*
X1493Y1977D01*
X2015Y795D02*
X2030Y780D01*
Y750D01*
X2015Y735D01*
X1955D01*
X1940Y750D01*
Y780D01*
X1955Y795D01*
X2015Y825D02*
X2030Y840D01*
Y870D01*
X2015Y885D01*
X2000D01*
X1985Y870D01*
X1970Y885D01*
X1955D01*
X1940Y870D01*
Y840D01*
X1955Y825D01*
X1970D01*
X1985Y840D01*
X2000Y825D01*
X2015D01*
X1985Y840D02*
Y870D01*
X455Y1967D02*
X470Y1982D01*
X500D01*
X515Y1967D01*
Y1908D01*
X500Y1893D01*
X470D01*
X455Y1908D01*
X425Y1982D02*
X365D01*
Y1967D01*
X425Y1908D01*
Y1893D01*
X1155Y912D02*
X1170Y927D01*
X1200D01*
X1215Y912D01*
Y853D01*
X1200Y838D01*
X1170D01*
X1155Y853D01*
X1065Y927D02*
X1095Y912D01*
X1125Y882D01*
Y853D01*
X1110Y838D01*
X1080D01*
X1065Y853D01*
Y868D01*
X1080Y882D01*
X1125D01*
X410Y1273D02*
X425Y1258D01*
Y1228D01*
X410Y1213D01*
X350D01*
X335Y1228D01*
Y1258D01*
X350Y1273D01*
X425Y1362D02*
Y1302D01*
X380D01*
X395Y1332D01*
Y1347D01*
X380Y1362D01*
X350D01*
X335Y1347D01*
Y1317D01*
X350Y1302D01*
X1310Y1975D02*
X1325Y1990D01*
X1355D01*
X1370Y1975D01*
Y1915D01*
X1355Y1900D01*
X1325D01*
X1310Y1915D01*
X1235Y1900D02*
Y1990D01*
X1280Y1945D01*
X1220D01*
D15*
X5521Y1924D02*
X5749D01*
X5521Y1441D02*
X5749D01*
Y1924D01*
X5521Y1441D02*
Y1924D01*
X5233Y1921D02*
X5462D01*
X5233Y1439D02*
X5462D01*
Y1921D01*
X5233Y1439D02*
Y1921D01*
X3996Y1916D02*
X4224D01*
X3996Y1434D02*
X4224D01*
Y1916D01*
X3996Y1434D02*
Y1916D01*
X4278Y1919D02*
X4507D01*
X4278Y1436D02*
X4507D01*
Y1919D01*
X4278Y1436D02*
Y1919D01*
X4566Y1919D02*
X4794D01*
X4566Y1436D02*
X4794D01*
Y1919D01*
X4566Y1436D02*
Y1919D01*
X4856D02*
X5084D01*
X4856Y1436D02*
X5084D01*
Y1919D01*
X4856Y1436D02*
Y1919D01*
X5521Y1374D02*
X5749D01*
X5521Y891D02*
X5749D01*
Y1374D01*
X5521Y891D02*
Y1374D01*
X5231Y1374D02*
X5459D01*
X5231Y891D02*
X5459D01*
Y1374D01*
X5231Y891D02*
Y1374D01*
X4856Y1379D02*
X5084D01*
X4856Y896D02*
X5084D01*
Y1379D01*
X4856Y896D02*
Y1379D01*
X4566D02*
X4794D01*
X4566Y896D02*
X4794D01*
Y1379D01*
X4566Y896D02*
Y1379D01*
X4278D02*
X4507D01*
X4278Y896D02*
X4507D01*
Y1379D01*
X4278Y896D02*
Y1379D01*
X3996D02*
X4224D01*
X3996Y896D02*
X4224D01*
Y1379D01*
X3996Y896D02*
Y1379D01*
X2679Y263D02*
X3047D01*
X2679Y477D02*
X3047D01*
X2679Y263D02*
Y477D01*
X3047Y263D02*
Y477D01*
X2681Y513D02*
X3049D01*
X2681Y727D02*
X3049D01*
X2681Y513D02*
Y727D01*
X3049Y513D02*
Y727D01*
M02*
